M48
; DRILL file {KiCad (5.1.2)-2} date 10/08/2019 11:34:20
; FORMAT={-:-/ absolute / inch / decimal}
; #@! TF.CreationDate,2019-08-10T11:34:20-04:00
; #@! TF.GenerationSoftware,Kicad,Pcbnew,(5.1.2)-2
; #@! TF.FileFunction,Plated,1,2,PTH
FMAT,2
INCH
T1C0.0157
T2C0.0300
T3C0.0394
%
G90
G05
T1
X4.275Y-2.71
X5.25Y-3.235
X5.325Y-3.16
T2
X5.45Y-2.8813
X5.45Y-2.96
X5.45Y-3.0387
X5.45Y-3.1175
T3
X4.65Y-2.96
X4.65Y-3.06
X4.75Y-2.96
X4.75Y-3.06
X4.85Y-2.96
X4.85Y-3.06
X4.95Y-2.96
X4.95Y-3.06
X5.05Y-2.96
X5.05Y-3.06
X5.15Y-2.96
X5.15Y-3.06
X3.95Y-2.96
X3.95Y-3.06
X4.05Y-2.96
X4.05Y-3.06
X4.15Y-2.96
X4.15Y-3.06
X4.25Y-2.96
X4.25Y-3.06
X4.35Y-2.96
X4.35Y-3.06
X4.45Y-2.96
X4.45Y-3.06
X4.55Y-3.01
X3.9224Y-2.5884
X3.9224Y-3.3884
X4.0224Y-2.5884
X4.0224Y-3.3884
X4.1224Y-2.5884
X4.1224Y-3.3884
X4.2224Y-2.5884
X4.2224Y-3.3884
X4.3224Y-2.5884
X4.3224Y-3.3884
X4.4224Y-2.5884
X4.4224Y-3.3884
X4.5224Y-3.3884
X4.6224Y-3.3884
X4.7224Y-3.3884
X5.0224Y-2.5884
X5.0224Y-3.3884
X5.1224Y-2.5884
X5.1224Y-3.3884
X5.2224Y-2.5884
X5.2224Y-3.3884
X5.3224Y-2.5884
X5.3224Y-3.3884
T0
M30
