G04 #@! TF.GenerationSoftware,KiCad,Pcbnew,(5.1.0)-1*
G04 #@! TF.CreationDate,2019-08-20T09:41:23-04:00*
G04 #@! TF.ProjectId,compact-giraffe,636f6d70-6163-4742-9d67-697261666665,rev?*
G04 #@! TF.SameCoordinates,Original*
G04 #@! TF.FileFunction,Legend,Bot*
G04 #@! TF.FilePolarity,Positive*
%FSLAX46Y46*%
G04 Gerber Fmt 4.6, Leading zero omitted, Abs format (unit mm)*
G04 Created by KiCad (PCBNEW (5.1.0)-1) date 2019-08-20 09:41:23*
%MOMM*%
%LPD*%
G04 APERTURE LIST*
%ADD10C,0.120000*%
%ADD11C,0.150000*%
G04 APERTURE END LIST*
D10*
X99060000Y-78994000D02*
X114300000Y-78994000D01*
X99060000Y-73914000D02*
X99060000Y-78994000D01*
X104140000Y-73914000D02*
X99060000Y-73914000D01*
X109220000Y-72644000D02*
X104140000Y-72644000D01*
X114300000Y-73914000D02*
X109220000Y-73914000D01*
X114300000Y-78994000D02*
X114300000Y-73914000D01*
X114300000Y-73914000D02*
X114300000Y-72644000D01*
X114300000Y-72644000D02*
X109220000Y-72644000D01*
X109220000Y-72644000D02*
X104140000Y-72644000D01*
X104140000Y-72644000D02*
X99060000Y-72644000D01*
X99060000Y-72644000D02*
X99060000Y-73914000D01*
X111760000Y-78994000D02*
X111760000Y-80264000D01*
X111760000Y-80264000D02*
X110490000Y-80264000D01*
X110490000Y-80264000D02*
X110490000Y-78994000D01*
X110490000Y-78994000D02*
X102870000Y-78994000D01*
X102870000Y-78994000D02*
X102870000Y-80264000D01*
X102870000Y-80264000D02*
X101600000Y-80264000D01*
X101600000Y-80264000D02*
X101600000Y-78994000D01*
X110490000Y-80264000D02*
X102870000Y-80264000D01*
X109220000Y-73914000D02*
X104140000Y-73914000D01*
X132080000Y-78994000D02*
X116840000Y-78994000D01*
X132080000Y-73914000D02*
X132080000Y-78994000D01*
X127000000Y-73914000D02*
X132080000Y-73914000D01*
X127000000Y-72644000D02*
X127000000Y-73914000D01*
X121920000Y-72644000D02*
X127000000Y-72644000D01*
X121920000Y-73914000D02*
X121920000Y-72644000D01*
X116840000Y-73914000D02*
X121920000Y-73914000D01*
X116840000Y-78994000D02*
X116840000Y-73914000D01*
X116840000Y-73914000D02*
X116840000Y-71374000D01*
X116840000Y-71374000D02*
X118110000Y-71374000D01*
X118110000Y-71374000D02*
X118110000Y-73914000D01*
X130810000Y-73914000D02*
X130810000Y-71374000D01*
X130810000Y-71374000D02*
X132080000Y-71374000D01*
X132080000Y-71374000D02*
X132080000Y-73914000D01*
X116840000Y-78994000D02*
X119380000Y-80264000D01*
X119380000Y-80264000D02*
X129540000Y-80264000D01*
X129540000Y-80264000D02*
X132080000Y-78994000D01*
X100867936Y-80624000D02*
X102072064Y-80624000D01*
X100867936Y-82444000D02*
X102072064Y-82444000D01*
D11*
X112744285Y-73731380D02*
X113315714Y-73731380D01*
X113030000Y-73731380D02*
X113030000Y-72731380D01*
X113125238Y-72874238D01*
X113220476Y-72969476D01*
X113315714Y-73017095D01*
X111322857Y-71778761D02*
X111180000Y-71826380D01*
X110941904Y-71826380D01*
X110846666Y-71778761D01*
X110799047Y-71731142D01*
X110751428Y-71635904D01*
X110751428Y-71540666D01*
X110799047Y-71445428D01*
X110846666Y-71397809D01*
X110941904Y-71350190D01*
X111132380Y-71302571D01*
X111227619Y-71254952D01*
X111275238Y-71207333D01*
X111322857Y-71112095D01*
X111322857Y-71016857D01*
X111275238Y-70921619D01*
X111227619Y-70874000D01*
X111132380Y-70826380D01*
X110894285Y-70826380D01*
X110751428Y-70874000D01*
X110322857Y-71826380D02*
X110322857Y-70826380D01*
X109894285Y-71826380D02*
X109894285Y-71302571D01*
X109941904Y-71207333D01*
X110037142Y-71159714D01*
X110180000Y-71159714D01*
X110275238Y-71207333D01*
X110322857Y-71254952D01*
X109275238Y-71826380D02*
X109370476Y-71778761D01*
X109418095Y-71731142D01*
X109465714Y-71635904D01*
X109465714Y-71350190D01*
X109418095Y-71254952D01*
X109370476Y-71207333D01*
X109275238Y-71159714D01*
X109132380Y-71159714D01*
X109037142Y-71207333D01*
X108989523Y-71254952D01*
X108941904Y-71350190D01*
X108941904Y-71635904D01*
X108989523Y-71731142D01*
X109037142Y-71778761D01*
X109132380Y-71826380D01*
X109275238Y-71826380D01*
X108513333Y-71826380D02*
X108513333Y-71159714D01*
X108513333Y-71350190D02*
X108465714Y-71254952D01*
X108418095Y-71207333D01*
X108322857Y-71159714D01*
X108227619Y-71159714D01*
X108037142Y-71159714D02*
X107656190Y-71159714D01*
X107894285Y-70826380D02*
X107894285Y-71683523D01*
X107846666Y-71778761D01*
X107751428Y-71826380D01*
X107656190Y-71826380D01*
X106608571Y-71778761D02*
X106465714Y-71826380D01*
X106227619Y-71826380D01*
X106132380Y-71778761D01*
X106084761Y-71731142D01*
X106037142Y-71635904D01*
X106037142Y-71540666D01*
X106084761Y-71445428D01*
X106132380Y-71397809D01*
X106227619Y-71350190D01*
X106418095Y-71302571D01*
X106513333Y-71254952D01*
X106560952Y-71207333D01*
X106608571Y-71112095D01*
X106608571Y-71016857D01*
X106560952Y-70921619D01*
X106513333Y-70874000D01*
X106418095Y-70826380D01*
X106180000Y-70826380D01*
X106037142Y-70874000D01*
X105465714Y-71826380D02*
X105560952Y-71778761D01*
X105608571Y-71731142D01*
X105656190Y-71635904D01*
X105656190Y-71350190D01*
X105608571Y-71254952D01*
X105560952Y-71207333D01*
X105465714Y-71159714D01*
X105322857Y-71159714D01*
X105227619Y-71207333D01*
X105180000Y-71254952D01*
X105132380Y-71350190D01*
X105132380Y-71635904D01*
X105180000Y-71731142D01*
X105227619Y-71778761D01*
X105322857Y-71826380D01*
X105465714Y-71826380D01*
X104275238Y-71778761D02*
X104370476Y-71826380D01*
X104560952Y-71826380D01*
X104656190Y-71778761D01*
X104703809Y-71731142D01*
X104751428Y-71635904D01*
X104751428Y-71350190D01*
X104703809Y-71254952D01*
X104656190Y-71207333D01*
X104560952Y-71159714D01*
X104370476Y-71159714D01*
X104275238Y-71207333D01*
X103846666Y-71826380D02*
X103846666Y-70826380D01*
X103751428Y-71445428D02*
X103465714Y-71826380D01*
X103465714Y-71159714D02*
X103846666Y-71540666D01*
X102656190Y-71778761D02*
X102751428Y-71826380D01*
X102941904Y-71826380D01*
X103037142Y-71778761D01*
X103084761Y-71683523D01*
X103084761Y-71302571D01*
X103037142Y-71207333D01*
X102941904Y-71159714D01*
X102751428Y-71159714D01*
X102656190Y-71207333D01*
X102608571Y-71302571D01*
X102608571Y-71397809D01*
X103084761Y-71493047D01*
X102322857Y-71159714D02*
X101941904Y-71159714D01*
X102180000Y-70826380D02*
X102180000Y-71683523D01*
X102132380Y-71778761D01*
X102037142Y-71826380D01*
X101941904Y-71826380D01*
X136887976Y-81557380D02*
X137221309Y-81081190D01*
X137459404Y-81557380D02*
X137459404Y-80557380D01*
X137078452Y-80557380D01*
X136983214Y-80605000D01*
X136935595Y-80652619D01*
X136887976Y-80747857D01*
X136887976Y-80890714D01*
X136935595Y-80985952D01*
X136983214Y-81033571D01*
X137078452Y-81081190D01*
X137459404Y-81081190D01*
X135840357Y-80557380D02*
X135507023Y-81557380D01*
X135173690Y-80557380D01*
X134268928Y-81462142D02*
X134316547Y-81509761D01*
X134459404Y-81557380D01*
X134554642Y-81557380D01*
X134697500Y-81509761D01*
X134792738Y-81414523D01*
X134840357Y-81319285D01*
X134887976Y-81128809D01*
X134887976Y-80985952D01*
X134840357Y-80795476D01*
X134792738Y-80700238D01*
X134697500Y-80605000D01*
X134554642Y-80557380D01*
X134459404Y-80557380D01*
X134316547Y-80605000D01*
X134268928Y-80652619D01*
X133268928Y-81462142D02*
X133316547Y-81509761D01*
X133459404Y-81557380D01*
X133554642Y-81557380D01*
X133697500Y-81509761D01*
X133792738Y-81414523D01*
X133840357Y-81319285D01*
X133887976Y-81128809D01*
X133887976Y-80985952D01*
X133840357Y-80795476D01*
X133792738Y-80700238D01*
X133697500Y-80605000D01*
X133554642Y-80557380D01*
X133459404Y-80557380D01*
X133316547Y-80605000D01*
X133268928Y-80652619D01*
X137554642Y-78700380D02*
X137316547Y-79700380D01*
X137126071Y-78986095D01*
X136935595Y-79700380D01*
X136697500Y-78700380D01*
X135554642Y-79700380D02*
X135554642Y-78700380D01*
X135316547Y-78700380D01*
X135173690Y-78748000D01*
X135078452Y-78843238D01*
X135030833Y-78938476D01*
X134983214Y-79128952D01*
X134983214Y-79271809D01*
X135030833Y-79462285D01*
X135078452Y-79557523D01*
X135173690Y-79652761D01*
X135316547Y-79700380D01*
X135554642Y-79700380D01*
X134554642Y-79319428D02*
X133792738Y-79319428D01*
X136935595Y-76605000D02*
X137030833Y-76557380D01*
X137173690Y-76557380D01*
X137316547Y-76605000D01*
X137411785Y-76700238D01*
X137459404Y-76795476D01*
X137507023Y-76985952D01*
X137507023Y-77128809D01*
X137459404Y-77319285D01*
X137411785Y-77414523D01*
X137316547Y-77509761D01*
X137173690Y-77557380D01*
X137078452Y-77557380D01*
X136935595Y-77509761D01*
X136887976Y-77462142D01*
X136887976Y-77128809D01*
X137078452Y-77128809D01*
X135697500Y-77557380D02*
X135697500Y-76557380D01*
X135459404Y-76557380D01*
X135316547Y-76605000D01*
X135221309Y-76700238D01*
X135173690Y-76795476D01*
X135126071Y-76985952D01*
X135126071Y-77128809D01*
X135173690Y-77319285D01*
X135221309Y-77414523D01*
X135316547Y-77509761D01*
X135459404Y-77557380D01*
X135697500Y-77557380D01*
X134697500Y-77176428D02*
X133935595Y-77176428D01*
X134316547Y-77557380D02*
X134316547Y-76795476D01*
X137459404Y-75557380D02*
X137459404Y-74557380D01*
X136887976Y-75557380D02*
X137316547Y-74985952D01*
X136887976Y-74557380D02*
X137459404Y-75128809D01*
X135173690Y-74605000D02*
X135268928Y-74557380D01*
X135411785Y-74557380D01*
X135554642Y-74605000D01*
X135649880Y-74700238D01*
X135697500Y-74795476D01*
X135745119Y-74985952D01*
X135745119Y-75128809D01*
X135697500Y-75319285D01*
X135649880Y-75414523D01*
X135554642Y-75509761D01*
X135411785Y-75557380D01*
X135316547Y-75557380D01*
X135173690Y-75509761D01*
X135126071Y-75462142D01*
X135126071Y-75128809D01*
X135316547Y-75128809D01*
X134697500Y-75557380D02*
X134697500Y-74557380D01*
X134126071Y-75557380D01*
X134126071Y-74557380D01*
X133649880Y-75557380D02*
X133649880Y-74557380D01*
X133411785Y-74557380D01*
X133268928Y-74605000D01*
X133173690Y-74700238D01*
X133126071Y-74795476D01*
X133078452Y-74985952D01*
X133078452Y-75128809D01*
X133126071Y-75319285D01*
X133173690Y-75414523D01*
X133268928Y-75509761D01*
X133411785Y-75557380D01*
X133649880Y-75557380D01*
X124793333Y-73176380D02*
X124793333Y-73890666D01*
X124840952Y-74033523D01*
X124936190Y-74128761D01*
X125079047Y-74176380D01*
X125174285Y-74176380D01*
X124412380Y-73176380D02*
X123793333Y-73176380D01*
X124126666Y-73557333D01*
X123983809Y-73557333D01*
X123888571Y-73604952D01*
X123840952Y-73652571D01*
X123793333Y-73747809D01*
X123793333Y-73985904D01*
X123840952Y-74081142D01*
X123888571Y-74128761D01*
X123983809Y-74176380D01*
X124269523Y-74176380D01*
X124364761Y-74128761D01*
X124412380Y-74081142D01*
X118332285Y-73731380D02*
X118903714Y-73731380D01*
X118618000Y-73731380D02*
X118618000Y-72731380D01*
X118713238Y-72874238D01*
X118808476Y-72969476D01*
X118903714Y-73017095D01*
X125888571Y-71826380D02*
X125888571Y-70826380D01*
X125507619Y-70826380D01*
X125412380Y-70874000D01*
X125364761Y-70921619D01*
X125317142Y-71016857D01*
X125317142Y-71159714D01*
X125364761Y-71254952D01*
X125412380Y-71302571D01*
X125507619Y-71350190D01*
X125888571Y-71350190D01*
X124745714Y-71826380D02*
X124840952Y-71778761D01*
X124888571Y-71683523D01*
X124888571Y-70826380D01*
X123936190Y-71159714D02*
X123936190Y-71826380D01*
X124364761Y-71159714D02*
X124364761Y-71683523D01*
X124317142Y-71778761D01*
X124221904Y-71826380D01*
X124079047Y-71826380D01*
X123983809Y-71778761D01*
X123936190Y-71731142D01*
X123031428Y-71159714D02*
X123031428Y-71969238D01*
X123079047Y-72064476D01*
X123126666Y-72112095D01*
X123221904Y-72159714D01*
X123364761Y-72159714D01*
X123460000Y-72112095D01*
X123031428Y-71778761D02*
X123126666Y-71826380D01*
X123317142Y-71826380D01*
X123412380Y-71778761D01*
X123460000Y-71731142D01*
X123507619Y-71635904D01*
X123507619Y-71350190D01*
X123460000Y-71254952D01*
X123412380Y-71207333D01*
X123317142Y-71159714D01*
X123126666Y-71159714D01*
X123031428Y-71207333D01*
X136367976Y-71572380D02*
X136367976Y-70572380D01*
X135987023Y-70572380D01*
X135891785Y-70620000D01*
X135844166Y-70667619D01*
X135796547Y-70762857D01*
X135796547Y-70905714D01*
X135844166Y-71000952D01*
X135891785Y-71048571D01*
X135987023Y-71096190D01*
X136367976Y-71096190D01*
X135225119Y-71572380D02*
X135320357Y-71524761D01*
X135367976Y-71477142D01*
X135415595Y-71381904D01*
X135415595Y-71096190D01*
X135367976Y-71000952D01*
X135320357Y-70953333D01*
X135225119Y-70905714D01*
X135082261Y-70905714D01*
X134987023Y-70953333D01*
X134939404Y-71000952D01*
X134891785Y-71096190D01*
X134891785Y-71381904D01*
X134939404Y-71477142D01*
X134987023Y-71524761D01*
X135082261Y-71572380D01*
X135225119Y-71572380D01*
X134558452Y-70905714D02*
X134367976Y-71572380D01*
X134177500Y-71096190D01*
X133987023Y-71572380D01*
X133796547Y-70905714D01*
X133034642Y-71524761D02*
X133129880Y-71572380D01*
X133320357Y-71572380D01*
X133415595Y-71524761D01*
X133463214Y-71429523D01*
X133463214Y-71048571D01*
X133415595Y-70953333D01*
X133320357Y-70905714D01*
X133129880Y-70905714D01*
X133034642Y-70953333D01*
X132987023Y-71048571D01*
X132987023Y-71143809D01*
X133463214Y-71239047D01*
X132558452Y-71572380D02*
X132558452Y-70905714D01*
X132558452Y-71096190D02*
X132510833Y-71000952D01*
X132463214Y-70953333D01*
X132367976Y-70905714D01*
X132272738Y-70905714D01*
X105576666Y-81986380D02*
X105910000Y-81510190D01*
X106148095Y-81986380D02*
X106148095Y-80986380D01*
X105767142Y-80986380D01*
X105671904Y-81034000D01*
X105624285Y-81081619D01*
X105576666Y-81176857D01*
X105576666Y-81319714D01*
X105624285Y-81414952D01*
X105671904Y-81462571D01*
X105767142Y-81510190D01*
X106148095Y-81510190D01*
X104624285Y-81986380D02*
X105195714Y-81986380D01*
X104910000Y-81986380D02*
X104910000Y-80986380D01*
X105005238Y-81129238D01*
X105100476Y-81224476D01*
X105195714Y-81272095D01*
X105108047Y-84018380D02*
X105679476Y-84018380D01*
X105393761Y-84018380D02*
X105393761Y-83018380D01*
X105489000Y-83161238D01*
X105584238Y-83256476D01*
X105679476Y-83304095D01*
X104727095Y-83113619D02*
X104679476Y-83066000D01*
X104584238Y-83018380D01*
X104346142Y-83018380D01*
X104250904Y-83066000D01*
X104203285Y-83113619D01*
X104155666Y-83208857D01*
X104155666Y-83304095D01*
X104203285Y-83446952D01*
X104774714Y-84018380D01*
X104155666Y-84018380D01*
X103536619Y-83018380D02*
X103441380Y-83018380D01*
X103346142Y-83066000D01*
X103298523Y-83113619D01*
X103250904Y-83208857D01*
X103203285Y-83399333D01*
X103203285Y-83637428D01*
X103250904Y-83827904D01*
X103298523Y-83923142D01*
X103346142Y-83970761D01*
X103441380Y-84018380D01*
X103536619Y-84018380D01*
X103631857Y-83970761D01*
X103679476Y-83923142D01*
X103727095Y-83827904D01*
X103774714Y-83637428D01*
X103774714Y-83399333D01*
X103727095Y-83208857D01*
X103679476Y-83113619D01*
X103631857Y-83066000D01*
X103536619Y-83018380D01*
X101869952Y-84018380D02*
X101965190Y-83970761D01*
X102012809Y-83923142D01*
X102060428Y-83827904D01*
X102060428Y-83542190D01*
X102012809Y-83446952D01*
X101965190Y-83399333D01*
X101869952Y-83351714D01*
X101727095Y-83351714D01*
X101631857Y-83399333D01*
X101584238Y-83446952D01*
X101536619Y-83542190D01*
X101536619Y-83827904D01*
X101584238Y-83923142D01*
X101631857Y-83970761D01*
X101727095Y-84018380D01*
X101869952Y-84018380D01*
X101108047Y-84018380D02*
X101108047Y-83018380D01*
X100679476Y-84018380D02*
X100679476Y-83494571D01*
X100727095Y-83399333D01*
X100822333Y-83351714D01*
X100965190Y-83351714D01*
X101060428Y-83399333D01*
X101108047Y-83446952D01*
X100203285Y-84018380D02*
X100203285Y-83351714D01*
X100203285Y-83446952D02*
X100155666Y-83399333D01*
X100060428Y-83351714D01*
X99917571Y-83351714D01*
X99822333Y-83399333D01*
X99774714Y-83494571D01*
X99774714Y-84018380D01*
X99774714Y-83494571D02*
X99727095Y-83399333D01*
X99631857Y-83351714D01*
X99489000Y-83351714D01*
X99393761Y-83399333D01*
X99346142Y-83494571D01*
X99346142Y-84018380D01*
M02*
