G04 #@! TF.GenerationSoftware,KiCad,Pcbnew,(5.1.2)-2*
G04 #@! TF.CreationDate,2019-08-10T02:00:27-04:00*
G04 #@! TF.ProjectId,compact-giraffe,636f6d70-6163-4742-9d67-697261666665,rev?*
G04 #@! TF.SameCoordinates,Original*
G04 #@! TF.FileFunction,Copper,L2,Bot*
G04 #@! TF.FilePolarity,Positive*
%FSLAX46Y46*%
G04 Gerber Fmt 4.6, Leading zero omitted, Abs format (unit mm)*
G04 Created by KiCad (PCBNEW (5.1.2)-2) date 2019-08-10 02:00:27*
%MOMM*%
%LPD*%
G04 APERTURE LIST*
%ADD10C,1.524000*%
%ADD11C,0.500000*%
%ADD12C,0.100000*%
%ADD13C,0.800000*%
%ADD14C,0.250000*%
%ADD15C,0.254000*%
G04 APERTURE END LIST*
D10*
X133350000Y-91440000D03*
X130810000Y-91440000D03*
X135890000Y-88900000D03*
X133350000Y-88900000D03*
X130810000Y-88900000D03*
X140970000Y-91440000D03*
X138430000Y-91440000D03*
X135890000Y-91440000D03*
X128270000Y-91440000D03*
X140970000Y-88900000D03*
X138430000Y-88900000D03*
X128270000Y-88900000D03*
X141671999Y-79461999D03*
X139131999Y-79461999D03*
X136591999Y-79461999D03*
X134051999Y-79461999D03*
X131511999Y-79461999D03*
X128971999Y-79461999D03*
X113731999Y-79461999D03*
X111191999Y-79461999D03*
X108651999Y-79461999D03*
X106111999Y-79461999D03*
X141671999Y-99781999D03*
X139131999Y-99781999D03*
X136591999Y-99781999D03*
X134051999Y-99781999D03*
X131511999Y-99781999D03*
X128971999Y-99781999D03*
X126431999Y-99781999D03*
X123891999Y-99781999D03*
X121351999Y-99781999D03*
X113731999Y-99781999D03*
X111191999Y-99781999D03*
X108651999Y-99781999D03*
X106111999Y-99781999D03*
X118110000Y-91440000D03*
X120650000Y-91440000D03*
X115570000Y-88900000D03*
X118110000Y-88900000D03*
X120650000Y-88900000D03*
X110490000Y-91440000D03*
X113030000Y-91440000D03*
X115570000Y-91440000D03*
X123190000Y-91440000D03*
X110490000Y-88900000D03*
X113030000Y-88900000D03*
X123190000Y-88900000D03*
X102870000Y-92900000D03*
X102870000Y-90900000D03*
X102870000Y-88900000D03*
X102870000Y-86900000D03*
X125730000Y-90170000D03*
D11*
X116175000Y-80010000D03*
D12*
G36*
X116175000Y-80759398D02*
G01*
X116150466Y-80759398D01*
X116101635Y-80754588D01*
X116053510Y-80745016D01*
X116006555Y-80730772D01*
X115961222Y-80711995D01*
X115917949Y-80688864D01*
X115877150Y-80661604D01*
X115839221Y-80630476D01*
X115804524Y-80595779D01*
X115773396Y-80557850D01*
X115746136Y-80517051D01*
X115723005Y-80473778D01*
X115704228Y-80428445D01*
X115689984Y-80381490D01*
X115680412Y-80333365D01*
X115675602Y-80284534D01*
X115675602Y-80260000D01*
X115675000Y-80260000D01*
X115675000Y-79760000D01*
X115675602Y-79760000D01*
X115675602Y-79735466D01*
X115680412Y-79686635D01*
X115689984Y-79638510D01*
X115704228Y-79591555D01*
X115723005Y-79546222D01*
X115746136Y-79502949D01*
X115773396Y-79462150D01*
X115804524Y-79424221D01*
X115839221Y-79389524D01*
X115877150Y-79358396D01*
X115917949Y-79331136D01*
X115961222Y-79308005D01*
X116006555Y-79289228D01*
X116053510Y-79274984D01*
X116101635Y-79265412D01*
X116150466Y-79260602D01*
X116175000Y-79260602D01*
X116175000Y-79260000D01*
X116675000Y-79260000D01*
X116675000Y-80760000D01*
X116175000Y-80760000D01*
X116175000Y-80759398D01*
X116175000Y-80759398D01*
G37*
D11*
X117475000Y-80010000D03*
D12*
G36*
X116975000Y-79260000D02*
G01*
X117475000Y-79260000D01*
X117475000Y-79260602D01*
X117499534Y-79260602D01*
X117548365Y-79265412D01*
X117596490Y-79274984D01*
X117643445Y-79289228D01*
X117688778Y-79308005D01*
X117732051Y-79331136D01*
X117772850Y-79358396D01*
X117810779Y-79389524D01*
X117845476Y-79424221D01*
X117876604Y-79462150D01*
X117903864Y-79502949D01*
X117926995Y-79546222D01*
X117945772Y-79591555D01*
X117960016Y-79638510D01*
X117969588Y-79686635D01*
X117974398Y-79735466D01*
X117974398Y-79760000D01*
X117975000Y-79760000D01*
X117975000Y-80260000D01*
X117974398Y-80260000D01*
X117974398Y-80284534D01*
X117969588Y-80333365D01*
X117960016Y-80381490D01*
X117945772Y-80428445D01*
X117926995Y-80473778D01*
X117903864Y-80517051D01*
X117876604Y-80557850D01*
X117845476Y-80595779D01*
X117810779Y-80630476D01*
X117772850Y-80661604D01*
X117732051Y-80688864D01*
X117688778Y-80711995D01*
X117643445Y-80730772D01*
X117596490Y-80745016D01*
X117548365Y-80754588D01*
X117499534Y-80759398D01*
X117475000Y-80759398D01*
X117475000Y-80760000D01*
X116975000Y-80760000D01*
X116975000Y-79260000D01*
X116975000Y-79260000D01*
G37*
D13*
X107315000Y-97790000D03*
X106045000Y-97790000D03*
X106045000Y-96520000D03*
X107315000Y-96520000D03*
X106045000Y-95250000D03*
X108585000Y-97790000D03*
X120015000Y-95250000D03*
X121285000Y-95250000D03*
X122555000Y-95250000D03*
X123825000Y-95250000D03*
X125095000Y-95250000D03*
X126365000Y-95250000D03*
X127635000Y-95250000D03*
X128905000Y-95250000D03*
X132715000Y-82550000D03*
D14*
X132588001Y-92201999D02*
X133350000Y-91440000D01*
X131812989Y-92977011D02*
X132588001Y-92201999D01*
X119647011Y-92977011D02*
X131812989Y-92977011D01*
X118110000Y-91440000D02*
X119647011Y-92977011D01*
X130048001Y-92201999D02*
X130810000Y-91440000D01*
X129722999Y-92527001D02*
X130048001Y-92201999D01*
X121737001Y-92527001D02*
X129722999Y-92527001D01*
X120650000Y-91440000D02*
X121737001Y-92527001D01*
X135128001Y-88138001D02*
X135890000Y-88900000D01*
X133902979Y-86912979D02*
X135128001Y-88138001D01*
X117557021Y-86912979D02*
X133902979Y-86912979D01*
X115570000Y-88900000D02*
X117557021Y-86912979D01*
X132588001Y-88138001D02*
X133350000Y-88900000D01*
X131812989Y-87362989D02*
X132588001Y-88138001D01*
X119647011Y-87362989D02*
X131812989Y-87362989D01*
X118110000Y-88900000D02*
X119647011Y-87362989D01*
X130048001Y-88138001D02*
X130810000Y-88900000D01*
X129722999Y-87812999D02*
X130048001Y-88138001D01*
X121737001Y-87812999D02*
X129722999Y-87812999D01*
X120650000Y-88900000D02*
X121737001Y-87812999D01*
X139517001Y-89987001D02*
X139517001Y-87447001D01*
X140970000Y-91440000D02*
X139517001Y-89987001D01*
X139517001Y-87447001D02*
X134051999Y-81981999D01*
X134051999Y-81981999D02*
X134051999Y-79461999D01*
X109402999Y-90352999D02*
X109402999Y-88082001D01*
X110490000Y-91440000D02*
X109402999Y-90352999D01*
X109402999Y-88082001D02*
X115570000Y-81915000D01*
X131598998Y-81915000D02*
X134051999Y-79461999D01*
X115570000Y-81915000D02*
X131598998Y-81915000D01*
X136591999Y-99761999D02*
X136591999Y-99781999D01*
X123190000Y-91440000D02*
X128270000Y-91440000D01*
X135255705Y-80798293D02*
X135331999Y-80721999D01*
X135255705Y-82549295D02*
X135255705Y-80798293D01*
X140208001Y-87501591D02*
X135255705Y-82549295D01*
X140970000Y-88900000D02*
X140208001Y-88138001D01*
X140208001Y-88138001D02*
X140208001Y-87501591D01*
X135331999Y-80721999D02*
X136591999Y-79461999D01*
X110490000Y-88900000D02*
X114935000Y-84455000D01*
X114935000Y-84455000D02*
X116840000Y-82550000D01*
X116840000Y-82550000D02*
X132715000Y-82550000D01*
X123190000Y-88900000D02*
X128270000Y-88900000D01*
X113030000Y-91440000D02*
X118745000Y-97155000D01*
X139045000Y-97155000D02*
X141671999Y-99781999D01*
X118745000Y-97155000D02*
X139045000Y-97155000D01*
X111942999Y-91961761D02*
X117771238Y-97790000D01*
X113030000Y-88900000D02*
X111942999Y-89987001D01*
X111942999Y-89987001D02*
X111942999Y-91961761D01*
X137140000Y-97790000D02*
X139131999Y-99781999D01*
X117771238Y-97790000D02*
X137140000Y-97790000D01*
X114280000Y-80010000D02*
X113731999Y-79461999D01*
X116175000Y-80010000D02*
X114280000Y-80010000D01*
X117475000Y-80857592D02*
X117052592Y-81280000D01*
X117475000Y-80010000D02*
X117475000Y-80857592D01*
X108490000Y-81280000D02*
X102870000Y-86900000D01*
X117052592Y-81280000D02*
X108490000Y-81280000D01*
X102870000Y-86900000D02*
X104775000Y-88805000D01*
X104775000Y-98445000D02*
X106111999Y-99781999D01*
X104775000Y-88805000D02*
X104775000Y-98445000D01*
D15*
G36*
X104269000Y-89014592D02*
G01*
X104269000Y-92823139D01*
X104236897Y-92580417D01*
X104184084Y-92406316D01*
X103973667Y-92323835D01*
X103397502Y-92900000D01*
X103973667Y-93476165D01*
X104184084Y-93393684D01*
X104255147Y-93127833D01*
X104269000Y-92914507D01*
X104269001Y-98420144D01*
X104266553Y-98445000D01*
X104276322Y-98544192D01*
X104305255Y-98639574D01*
X104305256Y-98639575D01*
X104352242Y-98727479D01*
X104415474Y-98804527D01*
X104434780Y-98820371D01*
X105027593Y-99413184D01*
X105012924Y-99448598D01*
X104968999Y-99669423D01*
X104968999Y-99894575D01*
X105012924Y-100115400D01*
X105049209Y-100203000D01*
X102362000Y-100203000D01*
X102362000Y-94177563D01*
X102376316Y-94214084D01*
X102642167Y-94285147D01*
X102916773Y-94302980D01*
X103189583Y-94266897D01*
X103363684Y-94214084D01*
X103446165Y-94003667D01*
X102870000Y-93427502D01*
X102855858Y-93441644D01*
X102362000Y-92947786D01*
X102362000Y-92852214D01*
X102855858Y-92358356D01*
X102870000Y-92372498D01*
X103271723Y-91970775D01*
X103411413Y-91912913D01*
X103598620Y-91787826D01*
X103757826Y-91628620D01*
X103882913Y-91441413D01*
X103969075Y-91233401D01*
X104013000Y-91012576D01*
X104013000Y-90787424D01*
X103969075Y-90566599D01*
X103882913Y-90358587D01*
X103757826Y-90171380D01*
X103598620Y-90012174D01*
X103430739Y-89900000D01*
X103598620Y-89787826D01*
X103757826Y-89628620D01*
X103882913Y-89441413D01*
X103969075Y-89233401D01*
X104013000Y-89012576D01*
X104013000Y-88787424D01*
X104005841Y-88751433D01*
X104269000Y-89014592D01*
X104269000Y-89014592D01*
G37*
X104269000Y-89014592D02*
X104269000Y-92823139D01*
X104236897Y-92580417D01*
X104184084Y-92406316D01*
X103973667Y-92323835D01*
X103397502Y-92900000D01*
X103973667Y-93476165D01*
X104184084Y-93393684D01*
X104255147Y-93127833D01*
X104269000Y-92914507D01*
X104269001Y-98420144D01*
X104266553Y-98445000D01*
X104276322Y-98544192D01*
X104305255Y-98639574D01*
X104305256Y-98639575D01*
X104352242Y-98727479D01*
X104415474Y-98804527D01*
X104434780Y-98820371D01*
X105027593Y-99413184D01*
X105012924Y-99448598D01*
X104968999Y-99669423D01*
X104968999Y-99894575D01*
X105012924Y-100115400D01*
X105049209Y-100203000D01*
X102362000Y-100203000D01*
X102362000Y-94177563D01*
X102376316Y-94214084D01*
X102642167Y-94285147D01*
X102916773Y-94302980D01*
X103189583Y-94266897D01*
X103363684Y-94214084D01*
X103446165Y-94003667D01*
X102870000Y-93427502D01*
X102855858Y-93441644D01*
X102362000Y-92947786D01*
X102362000Y-92852214D01*
X102855858Y-92358356D01*
X102870000Y-92372498D01*
X103271723Y-91970775D01*
X103411413Y-91912913D01*
X103598620Y-91787826D01*
X103757826Y-91628620D01*
X103882913Y-91441413D01*
X103969075Y-91233401D01*
X104013000Y-91012576D01*
X104013000Y-90787424D01*
X103969075Y-90566599D01*
X103882913Y-90358587D01*
X103757826Y-90171380D01*
X103598620Y-90012174D01*
X103430739Y-89900000D01*
X103598620Y-89787826D01*
X103757826Y-89628620D01*
X103882913Y-89441413D01*
X103969075Y-89233401D01*
X104013000Y-89012576D01*
X104013000Y-88787424D01*
X104005841Y-88751433D01*
X104269000Y-89014592D01*
G36*
X109062780Y-87706629D02*
G01*
X109043473Y-87722474D01*
X108980241Y-87799522D01*
X108968028Y-87822371D01*
X108933254Y-87887427D01*
X108904321Y-87982809D01*
X108894552Y-88082001D01*
X108897000Y-88106857D01*
X108896999Y-90328153D01*
X108894552Y-90352999D01*
X108896999Y-90377845D01*
X108896999Y-90377852D01*
X108904321Y-90452191D01*
X108933254Y-90547573D01*
X108980240Y-90635478D01*
X109043472Y-90712526D01*
X109062784Y-90728375D01*
X109405594Y-91071185D01*
X109390925Y-91106599D01*
X109347000Y-91327424D01*
X109347000Y-91552576D01*
X109390925Y-91773401D01*
X109477087Y-91981413D01*
X109602174Y-92168620D01*
X109761380Y-92327826D01*
X109948587Y-92452913D01*
X110156599Y-92539075D01*
X110377424Y-92583000D01*
X110602576Y-92583000D01*
X110823401Y-92539075D01*
X111031413Y-92452913D01*
X111218620Y-92327826D01*
X111377826Y-92168620D01*
X111446021Y-92066558D01*
X111473254Y-92156335D01*
X111473255Y-92156336D01*
X111520241Y-92244240D01*
X111583473Y-92321288D01*
X111602780Y-92337133D01*
X117395866Y-98130220D01*
X117411711Y-98149527D01*
X117488759Y-98212759D01*
X117559229Y-98250426D01*
X117576663Y-98259745D01*
X117672045Y-98288678D01*
X117771238Y-98298448D01*
X117796092Y-98296000D01*
X136930409Y-98296000D01*
X138047593Y-99413184D01*
X138032924Y-99448598D01*
X137988999Y-99669423D01*
X137988999Y-99894575D01*
X138032924Y-100115400D01*
X138069209Y-100203000D01*
X137654789Y-100203000D01*
X137691074Y-100115400D01*
X137734999Y-99894575D01*
X137734999Y-99669423D01*
X137691074Y-99448598D01*
X137604912Y-99240586D01*
X137479825Y-99053379D01*
X137320619Y-98894173D01*
X137133412Y-98769086D01*
X136925400Y-98682924D01*
X136704575Y-98638999D01*
X136479423Y-98638999D01*
X136258598Y-98682924D01*
X136050586Y-98769086D01*
X135863379Y-98894173D01*
X135704173Y-99053379D01*
X135579086Y-99240586D01*
X135492924Y-99448598D01*
X135448999Y-99669423D01*
X135448999Y-99894575D01*
X135492924Y-100115400D01*
X135529209Y-100203000D01*
X135114789Y-100203000D01*
X135151074Y-100115400D01*
X135194999Y-99894575D01*
X135194999Y-99669423D01*
X135151074Y-99448598D01*
X135064912Y-99240586D01*
X134939825Y-99053379D01*
X134780619Y-98894173D01*
X134593412Y-98769086D01*
X134385400Y-98682924D01*
X134164575Y-98638999D01*
X133939423Y-98638999D01*
X133718598Y-98682924D01*
X133510586Y-98769086D01*
X133323379Y-98894173D01*
X133164173Y-99053379D01*
X133039086Y-99240586D01*
X132952924Y-99448598D01*
X132908999Y-99669423D01*
X132908999Y-99894575D01*
X132952924Y-100115400D01*
X132989209Y-100203000D01*
X132574789Y-100203000D01*
X132611074Y-100115400D01*
X132654999Y-99894575D01*
X132654999Y-99669423D01*
X132611074Y-99448598D01*
X132524912Y-99240586D01*
X132399825Y-99053379D01*
X132240619Y-98894173D01*
X132053412Y-98769086D01*
X131845400Y-98682924D01*
X131624575Y-98638999D01*
X131399423Y-98638999D01*
X131178598Y-98682924D01*
X130970586Y-98769086D01*
X130783379Y-98894173D01*
X130624173Y-99053379D01*
X130499086Y-99240586D01*
X130412924Y-99448598D01*
X130368999Y-99669423D01*
X130368999Y-99690013D01*
X130338896Y-99462416D01*
X130286083Y-99288315D01*
X130075666Y-99205834D01*
X129499501Y-99781999D01*
X129513643Y-99796141D01*
X129106784Y-100203000D01*
X128837214Y-100203000D01*
X128430355Y-99796141D01*
X128444497Y-99781999D01*
X127868332Y-99205834D01*
X127657915Y-99288315D01*
X127586852Y-99554166D01*
X127574999Y-99736687D01*
X127574999Y-99669423D01*
X127531074Y-99448598D01*
X127444912Y-99240586D01*
X127319825Y-99053379D01*
X127160619Y-98894173D01*
X126973412Y-98769086D01*
X126765400Y-98682924D01*
X126742315Y-98678332D01*
X128395834Y-98678332D01*
X128971999Y-99254497D01*
X129548164Y-98678332D01*
X129465683Y-98467915D01*
X129199832Y-98396852D01*
X128925226Y-98379019D01*
X128652416Y-98415102D01*
X128478315Y-98467915D01*
X128395834Y-98678332D01*
X126742315Y-98678332D01*
X126544575Y-98638999D01*
X126319423Y-98638999D01*
X126098598Y-98682924D01*
X125890586Y-98769086D01*
X125703379Y-98894173D01*
X125544173Y-99053379D01*
X125419086Y-99240586D01*
X125332924Y-99448598D01*
X125288999Y-99669423D01*
X125288999Y-99894575D01*
X125332924Y-100115400D01*
X125369209Y-100203000D01*
X124954789Y-100203000D01*
X124991074Y-100115400D01*
X125034999Y-99894575D01*
X125034999Y-99669423D01*
X124991074Y-99448598D01*
X124904912Y-99240586D01*
X124779825Y-99053379D01*
X124620619Y-98894173D01*
X124433412Y-98769086D01*
X124225400Y-98682924D01*
X124004575Y-98638999D01*
X123779423Y-98638999D01*
X123558598Y-98682924D01*
X123350586Y-98769086D01*
X123163379Y-98894173D01*
X123004173Y-99053379D01*
X122879086Y-99240586D01*
X122792924Y-99448598D01*
X122748999Y-99669423D01*
X122748999Y-99894575D01*
X122792924Y-100115400D01*
X122829209Y-100203000D01*
X122414789Y-100203000D01*
X122451074Y-100115400D01*
X122494999Y-99894575D01*
X122494999Y-99669423D01*
X122451074Y-99448598D01*
X122364912Y-99240586D01*
X122239825Y-99053379D01*
X122080619Y-98894173D01*
X121893412Y-98769086D01*
X121685400Y-98682924D01*
X121464575Y-98638999D01*
X121239423Y-98638999D01*
X121018598Y-98682924D01*
X120810586Y-98769086D01*
X120623379Y-98894173D01*
X120464173Y-99053379D01*
X120339086Y-99240586D01*
X120252924Y-99448598D01*
X120208999Y-99669423D01*
X120208999Y-99894575D01*
X120252924Y-100115400D01*
X120289209Y-100203000D01*
X115065511Y-100203000D01*
X115117146Y-100009832D01*
X115134979Y-99735226D01*
X115098896Y-99462416D01*
X115046083Y-99288315D01*
X114835666Y-99205834D01*
X114259501Y-99781999D01*
X114273643Y-99796141D01*
X113866784Y-100203000D01*
X113597214Y-100203000D01*
X113190355Y-99796141D01*
X113204497Y-99781999D01*
X112628332Y-99205834D01*
X112417915Y-99288315D01*
X112346852Y-99554166D01*
X112334999Y-99736687D01*
X112334999Y-99669423D01*
X112291074Y-99448598D01*
X112204912Y-99240586D01*
X112079825Y-99053379D01*
X111920619Y-98894173D01*
X111733412Y-98769086D01*
X111525400Y-98682924D01*
X111502315Y-98678332D01*
X113155834Y-98678332D01*
X113731999Y-99254497D01*
X114308164Y-98678332D01*
X114225683Y-98467915D01*
X113959832Y-98396852D01*
X113685226Y-98379019D01*
X113412416Y-98415102D01*
X113238315Y-98467915D01*
X113155834Y-98678332D01*
X111502315Y-98678332D01*
X111304575Y-98638999D01*
X111079423Y-98638999D01*
X110858598Y-98682924D01*
X110650586Y-98769086D01*
X110463379Y-98894173D01*
X110304173Y-99053379D01*
X110179086Y-99240586D01*
X110092924Y-99448598D01*
X110048999Y-99669423D01*
X110048999Y-99894575D01*
X110092924Y-100115400D01*
X110129209Y-100203000D01*
X109714789Y-100203000D01*
X109751074Y-100115400D01*
X109794999Y-99894575D01*
X109794999Y-99669423D01*
X109751074Y-99448598D01*
X109664912Y-99240586D01*
X109539825Y-99053379D01*
X109380619Y-98894173D01*
X109193412Y-98769086D01*
X108985400Y-98682924D01*
X108764575Y-98638999D01*
X108539423Y-98638999D01*
X108318598Y-98682924D01*
X108110586Y-98769086D01*
X107923379Y-98894173D01*
X107764173Y-99053379D01*
X107639086Y-99240586D01*
X107552924Y-99448598D01*
X107508999Y-99669423D01*
X107508999Y-99894575D01*
X107552924Y-100115400D01*
X107589209Y-100203000D01*
X107174789Y-100203000D01*
X107211074Y-100115400D01*
X107254999Y-99894575D01*
X107254999Y-99669423D01*
X107211074Y-99448598D01*
X107124912Y-99240586D01*
X106999825Y-99053379D01*
X106840619Y-98894173D01*
X106653412Y-98769086D01*
X106445400Y-98682924D01*
X106224575Y-98638999D01*
X105999423Y-98638999D01*
X105778598Y-98682924D01*
X105743184Y-98697593D01*
X105281000Y-98235409D01*
X105281000Y-88829854D01*
X105283448Y-88805000D01*
X105273678Y-88705807D01*
X105244745Y-88610425D01*
X105243313Y-88607746D01*
X105197759Y-88522521D01*
X105134527Y-88445473D01*
X105115220Y-88429628D01*
X103954406Y-87268815D01*
X103969075Y-87233401D01*
X104013000Y-87012576D01*
X104013000Y-86787424D01*
X103969075Y-86566599D01*
X103954406Y-86531185D01*
X108699592Y-81786000D01*
X114983408Y-81786000D01*
X109062780Y-87706629D01*
X109062780Y-87706629D01*
G37*
X109062780Y-87706629D02*
X109043473Y-87722474D01*
X108980241Y-87799522D01*
X108968028Y-87822371D01*
X108933254Y-87887427D01*
X108904321Y-87982809D01*
X108894552Y-88082001D01*
X108897000Y-88106857D01*
X108896999Y-90328153D01*
X108894552Y-90352999D01*
X108896999Y-90377845D01*
X108896999Y-90377852D01*
X108904321Y-90452191D01*
X108933254Y-90547573D01*
X108980240Y-90635478D01*
X109043472Y-90712526D01*
X109062784Y-90728375D01*
X109405594Y-91071185D01*
X109390925Y-91106599D01*
X109347000Y-91327424D01*
X109347000Y-91552576D01*
X109390925Y-91773401D01*
X109477087Y-91981413D01*
X109602174Y-92168620D01*
X109761380Y-92327826D01*
X109948587Y-92452913D01*
X110156599Y-92539075D01*
X110377424Y-92583000D01*
X110602576Y-92583000D01*
X110823401Y-92539075D01*
X111031413Y-92452913D01*
X111218620Y-92327826D01*
X111377826Y-92168620D01*
X111446021Y-92066558D01*
X111473254Y-92156335D01*
X111473255Y-92156336D01*
X111520241Y-92244240D01*
X111583473Y-92321288D01*
X111602780Y-92337133D01*
X117395866Y-98130220D01*
X117411711Y-98149527D01*
X117488759Y-98212759D01*
X117559229Y-98250426D01*
X117576663Y-98259745D01*
X117672045Y-98288678D01*
X117771238Y-98298448D01*
X117796092Y-98296000D01*
X136930409Y-98296000D01*
X138047593Y-99413184D01*
X138032924Y-99448598D01*
X137988999Y-99669423D01*
X137988999Y-99894575D01*
X138032924Y-100115400D01*
X138069209Y-100203000D01*
X137654789Y-100203000D01*
X137691074Y-100115400D01*
X137734999Y-99894575D01*
X137734999Y-99669423D01*
X137691074Y-99448598D01*
X137604912Y-99240586D01*
X137479825Y-99053379D01*
X137320619Y-98894173D01*
X137133412Y-98769086D01*
X136925400Y-98682924D01*
X136704575Y-98638999D01*
X136479423Y-98638999D01*
X136258598Y-98682924D01*
X136050586Y-98769086D01*
X135863379Y-98894173D01*
X135704173Y-99053379D01*
X135579086Y-99240586D01*
X135492924Y-99448598D01*
X135448999Y-99669423D01*
X135448999Y-99894575D01*
X135492924Y-100115400D01*
X135529209Y-100203000D01*
X135114789Y-100203000D01*
X135151074Y-100115400D01*
X135194999Y-99894575D01*
X135194999Y-99669423D01*
X135151074Y-99448598D01*
X135064912Y-99240586D01*
X134939825Y-99053379D01*
X134780619Y-98894173D01*
X134593412Y-98769086D01*
X134385400Y-98682924D01*
X134164575Y-98638999D01*
X133939423Y-98638999D01*
X133718598Y-98682924D01*
X133510586Y-98769086D01*
X133323379Y-98894173D01*
X133164173Y-99053379D01*
X133039086Y-99240586D01*
X132952924Y-99448598D01*
X132908999Y-99669423D01*
X132908999Y-99894575D01*
X132952924Y-100115400D01*
X132989209Y-100203000D01*
X132574789Y-100203000D01*
X132611074Y-100115400D01*
X132654999Y-99894575D01*
X132654999Y-99669423D01*
X132611074Y-99448598D01*
X132524912Y-99240586D01*
X132399825Y-99053379D01*
X132240619Y-98894173D01*
X132053412Y-98769086D01*
X131845400Y-98682924D01*
X131624575Y-98638999D01*
X131399423Y-98638999D01*
X131178598Y-98682924D01*
X130970586Y-98769086D01*
X130783379Y-98894173D01*
X130624173Y-99053379D01*
X130499086Y-99240586D01*
X130412924Y-99448598D01*
X130368999Y-99669423D01*
X130368999Y-99690013D01*
X130338896Y-99462416D01*
X130286083Y-99288315D01*
X130075666Y-99205834D01*
X129499501Y-99781999D01*
X129513643Y-99796141D01*
X129106784Y-100203000D01*
X128837214Y-100203000D01*
X128430355Y-99796141D01*
X128444497Y-99781999D01*
X127868332Y-99205834D01*
X127657915Y-99288315D01*
X127586852Y-99554166D01*
X127574999Y-99736687D01*
X127574999Y-99669423D01*
X127531074Y-99448598D01*
X127444912Y-99240586D01*
X127319825Y-99053379D01*
X127160619Y-98894173D01*
X126973412Y-98769086D01*
X126765400Y-98682924D01*
X126742315Y-98678332D01*
X128395834Y-98678332D01*
X128971999Y-99254497D01*
X129548164Y-98678332D01*
X129465683Y-98467915D01*
X129199832Y-98396852D01*
X128925226Y-98379019D01*
X128652416Y-98415102D01*
X128478315Y-98467915D01*
X128395834Y-98678332D01*
X126742315Y-98678332D01*
X126544575Y-98638999D01*
X126319423Y-98638999D01*
X126098598Y-98682924D01*
X125890586Y-98769086D01*
X125703379Y-98894173D01*
X125544173Y-99053379D01*
X125419086Y-99240586D01*
X125332924Y-99448598D01*
X125288999Y-99669423D01*
X125288999Y-99894575D01*
X125332924Y-100115400D01*
X125369209Y-100203000D01*
X124954789Y-100203000D01*
X124991074Y-100115400D01*
X125034999Y-99894575D01*
X125034999Y-99669423D01*
X124991074Y-99448598D01*
X124904912Y-99240586D01*
X124779825Y-99053379D01*
X124620619Y-98894173D01*
X124433412Y-98769086D01*
X124225400Y-98682924D01*
X124004575Y-98638999D01*
X123779423Y-98638999D01*
X123558598Y-98682924D01*
X123350586Y-98769086D01*
X123163379Y-98894173D01*
X123004173Y-99053379D01*
X122879086Y-99240586D01*
X122792924Y-99448598D01*
X122748999Y-99669423D01*
X122748999Y-99894575D01*
X122792924Y-100115400D01*
X122829209Y-100203000D01*
X122414789Y-100203000D01*
X122451074Y-100115400D01*
X122494999Y-99894575D01*
X122494999Y-99669423D01*
X122451074Y-99448598D01*
X122364912Y-99240586D01*
X122239825Y-99053379D01*
X122080619Y-98894173D01*
X121893412Y-98769086D01*
X121685400Y-98682924D01*
X121464575Y-98638999D01*
X121239423Y-98638999D01*
X121018598Y-98682924D01*
X120810586Y-98769086D01*
X120623379Y-98894173D01*
X120464173Y-99053379D01*
X120339086Y-99240586D01*
X120252924Y-99448598D01*
X120208999Y-99669423D01*
X120208999Y-99894575D01*
X120252924Y-100115400D01*
X120289209Y-100203000D01*
X115065511Y-100203000D01*
X115117146Y-100009832D01*
X115134979Y-99735226D01*
X115098896Y-99462416D01*
X115046083Y-99288315D01*
X114835666Y-99205834D01*
X114259501Y-99781999D01*
X114273643Y-99796141D01*
X113866784Y-100203000D01*
X113597214Y-100203000D01*
X113190355Y-99796141D01*
X113204497Y-99781999D01*
X112628332Y-99205834D01*
X112417915Y-99288315D01*
X112346852Y-99554166D01*
X112334999Y-99736687D01*
X112334999Y-99669423D01*
X112291074Y-99448598D01*
X112204912Y-99240586D01*
X112079825Y-99053379D01*
X111920619Y-98894173D01*
X111733412Y-98769086D01*
X111525400Y-98682924D01*
X111502315Y-98678332D01*
X113155834Y-98678332D01*
X113731999Y-99254497D01*
X114308164Y-98678332D01*
X114225683Y-98467915D01*
X113959832Y-98396852D01*
X113685226Y-98379019D01*
X113412416Y-98415102D01*
X113238315Y-98467915D01*
X113155834Y-98678332D01*
X111502315Y-98678332D01*
X111304575Y-98638999D01*
X111079423Y-98638999D01*
X110858598Y-98682924D01*
X110650586Y-98769086D01*
X110463379Y-98894173D01*
X110304173Y-99053379D01*
X110179086Y-99240586D01*
X110092924Y-99448598D01*
X110048999Y-99669423D01*
X110048999Y-99894575D01*
X110092924Y-100115400D01*
X110129209Y-100203000D01*
X109714789Y-100203000D01*
X109751074Y-100115400D01*
X109794999Y-99894575D01*
X109794999Y-99669423D01*
X109751074Y-99448598D01*
X109664912Y-99240586D01*
X109539825Y-99053379D01*
X109380619Y-98894173D01*
X109193412Y-98769086D01*
X108985400Y-98682924D01*
X108764575Y-98638999D01*
X108539423Y-98638999D01*
X108318598Y-98682924D01*
X108110586Y-98769086D01*
X107923379Y-98894173D01*
X107764173Y-99053379D01*
X107639086Y-99240586D01*
X107552924Y-99448598D01*
X107508999Y-99669423D01*
X107508999Y-99894575D01*
X107552924Y-100115400D01*
X107589209Y-100203000D01*
X107174789Y-100203000D01*
X107211074Y-100115400D01*
X107254999Y-99894575D01*
X107254999Y-99669423D01*
X107211074Y-99448598D01*
X107124912Y-99240586D01*
X106999825Y-99053379D01*
X106840619Y-98894173D01*
X106653412Y-98769086D01*
X106445400Y-98682924D01*
X106224575Y-98638999D01*
X105999423Y-98638999D01*
X105778598Y-98682924D01*
X105743184Y-98697593D01*
X105281000Y-98235409D01*
X105281000Y-88829854D01*
X105283448Y-88805000D01*
X105273678Y-88705807D01*
X105244745Y-88610425D01*
X105243313Y-88607746D01*
X105197759Y-88522521D01*
X105134527Y-88445473D01*
X105115220Y-88429628D01*
X103954406Y-87268815D01*
X103969075Y-87233401D01*
X104013000Y-87012576D01*
X104013000Y-86787424D01*
X103969075Y-86566599D01*
X103954406Y-86531185D01*
X108699592Y-81786000D01*
X114983408Y-81786000D01*
X109062780Y-87706629D01*
G36*
X133545999Y-81957153D02*
G01*
X133543552Y-81981999D01*
X133545999Y-82006845D01*
X133545999Y-82006852D01*
X133553321Y-82081191D01*
X133582254Y-82176573D01*
X133629240Y-82264478D01*
X133692472Y-82341526D01*
X133711784Y-82357375D01*
X139011002Y-87656594D01*
X139011002Y-87913539D01*
X138971413Y-87887087D01*
X138763401Y-87800925D01*
X138542576Y-87757000D01*
X138317424Y-87757000D01*
X138096599Y-87800925D01*
X137888587Y-87887087D01*
X137701380Y-88012174D01*
X137542174Y-88171380D01*
X137417087Y-88358587D01*
X137330925Y-88566599D01*
X137287000Y-88787424D01*
X137287000Y-89012576D01*
X137330925Y-89233401D01*
X137417087Y-89441413D01*
X137542174Y-89628620D01*
X137701380Y-89787826D01*
X137888587Y-89912913D01*
X138096599Y-89999075D01*
X138317424Y-90043000D01*
X138542576Y-90043000D01*
X138763401Y-89999075D01*
X138971413Y-89912913D01*
X139011001Y-89886461D01*
X139011001Y-89962155D01*
X139008554Y-89987001D01*
X139011001Y-90011847D01*
X139011001Y-90011854D01*
X139018323Y-90086193D01*
X139047256Y-90181575D01*
X139094242Y-90269480D01*
X139157474Y-90346528D01*
X139176786Y-90362377D01*
X139885594Y-91071185D01*
X139870925Y-91106599D01*
X139827000Y-91327424D01*
X139827000Y-91552576D01*
X139870925Y-91773401D01*
X139957087Y-91981413D01*
X140082174Y-92168620D01*
X140241380Y-92327826D01*
X140428587Y-92452913D01*
X140636599Y-92539075D01*
X140857424Y-92583000D01*
X141082576Y-92583000D01*
X141303401Y-92539075D01*
X141511413Y-92452913D01*
X141698620Y-92327826D01*
X141857826Y-92168620D01*
X141982913Y-91981413D01*
X142069075Y-91773401D01*
X142113000Y-91552576D01*
X142113000Y-98727494D01*
X142005400Y-98682924D01*
X141784575Y-98638999D01*
X141559423Y-98638999D01*
X141338598Y-98682924D01*
X141303185Y-98697593D01*
X139420376Y-96814785D01*
X139404527Y-96795473D01*
X139327479Y-96732241D01*
X139239575Y-96685255D01*
X139144193Y-96656322D01*
X139069854Y-96649000D01*
X139069846Y-96649000D01*
X139045000Y-96646553D01*
X139020154Y-96649000D01*
X118954592Y-96649000D01*
X114921548Y-92615957D01*
X114993836Y-92543669D01*
X115076316Y-92754084D01*
X115342167Y-92825147D01*
X115616773Y-92842980D01*
X115889583Y-92806897D01*
X116063684Y-92754084D01*
X116146165Y-92543667D01*
X115570000Y-91967502D01*
X115555858Y-91981644D01*
X115028356Y-91454142D01*
X115042498Y-91440000D01*
X114466333Y-90863835D01*
X114255916Y-90946316D01*
X114184853Y-91212167D01*
X114173000Y-91394688D01*
X114173000Y-91327424D01*
X114129075Y-91106599D01*
X114042913Y-90898587D01*
X113917826Y-90711380D01*
X113758620Y-90552174D01*
X113571413Y-90427087D01*
X113363401Y-90340925D01*
X113142576Y-90297000D01*
X112917424Y-90297000D01*
X112696599Y-90340925D01*
X112488587Y-90427087D01*
X112448999Y-90453539D01*
X112448999Y-90196592D01*
X112661185Y-89984406D01*
X112696599Y-89999075D01*
X112917424Y-90043000D01*
X113142576Y-90043000D01*
X113363401Y-89999075D01*
X113571413Y-89912913D01*
X113758620Y-89787826D01*
X113917826Y-89628620D01*
X114042913Y-89441413D01*
X114129075Y-89233401D01*
X114173000Y-89012576D01*
X114173000Y-88787424D01*
X114427000Y-88787424D01*
X114427000Y-89012576D01*
X114470925Y-89233401D01*
X114557087Y-89441413D01*
X114682174Y-89628620D01*
X114841380Y-89787826D01*
X115028587Y-89912913D01*
X115236599Y-89999075D01*
X115457424Y-90043000D01*
X115478014Y-90043000D01*
X115250417Y-90073103D01*
X115076316Y-90125916D01*
X114993835Y-90336333D01*
X115570000Y-90912498D01*
X116146165Y-90336333D01*
X116063684Y-90125916D01*
X115797833Y-90054853D01*
X115615312Y-90043000D01*
X115682576Y-90043000D01*
X115903401Y-89999075D01*
X116111413Y-89912913D01*
X116298620Y-89787826D01*
X116457826Y-89628620D01*
X116582913Y-89441413D01*
X116669075Y-89233401D01*
X116713000Y-89012576D01*
X116713000Y-88787424D01*
X116669075Y-88566599D01*
X116654406Y-88531185D01*
X117766613Y-87418979D01*
X118875429Y-87418979D01*
X118478815Y-87815594D01*
X118443401Y-87800925D01*
X118222576Y-87757000D01*
X117997424Y-87757000D01*
X117776599Y-87800925D01*
X117568587Y-87887087D01*
X117381380Y-88012174D01*
X117222174Y-88171380D01*
X117097087Y-88358587D01*
X117010925Y-88566599D01*
X116967000Y-88787424D01*
X116967000Y-89012576D01*
X117010925Y-89233401D01*
X117097087Y-89441413D01*
X117222174Y-89628620D01*
X117381380Y-89787826D01*
X117568587Y-89912913D01*
X117776599Y-89999075D01*
X117997424Y-90043000D01*
X118222576Y-90043000D01*
X118443401Y-89999075D01*
X118651413Y-89912913D01*
X118838620Y-89787826D01*
X118997826Y-89628620D01*
X119122913Y-89441413D01*
X119209075Y-89233401D01*
X119253000Y-89012576D01*
X119253000Y-88787424D01*
X119209075Y-88566599D01*
X119194406Y-88531185D01*
X119856603Y-87868989D01*
X120152279Y-87868989D01*
X120108587Y-87887087D01*
X119921380Y-88012174D01*
X119762174Y-88171380D01*
X119637087Y-88358587D01*
X119550925Y-88566599D01*
X119507000Y-88787424D01*
X119507000Y-89012576D01*
X119550925Y-89233401D01*
X119637087Y-89441413D01*
X119762174Y-89628620D01*
X119921380Y-89787826D01*
X120108587Y-89912913D01*
X120316599Y-89999075D01*
X120537424Y-90043000D01*
X120762576Y-90043000D01*
X120983401Y-89999075D01*
X121191413Y-89912913D01*
X121378620Y-89787826D01*
X121537826Y-89628620D01*
X121662913Y-89441413D01*
X121749075Y-89233401D01*
X121793000Y-89012576D01*
X121793000Y-88787424D01*
X121749075Y-88566599D01*
X121734406Y-88531186D01*
X121946593Y-88318999D01*
X122203539Y-88318999D01*
X122177087Y-88358587D01*
X122090925Y-88566599D01*
X122047000Y-88787424D01*
X122047000Y-89012576D01*
X122090925Y-89233401D01*
X122177087Y-89441413D01*
X122302174Y-89628620D01*
X122461380Y-89787826D01*
X122648587Y-89912913D01*
X122856599Y-89999075D01*
X123077424Y-90043000D01*
X123302576Y-90043000D01*
X123523401Y-89999075D01*
X123731413Y-89912913D01*
X123918620Y-89787826D01*
X124077826Y-89628620D01*
X124202913Y-89441413D01*
X124217582Y-89406000D01*
X124877554Y-89406000D01*
X124842174Y-89441380D01*
X124717087Y-89628587D01*
X124630925Y-89836599D01*
X124587000Y-90057424D01*
X124587000Y-90282576D01*
X124630925Y-90503401D01*
X124717087Y-90711413D01*
X124842174Y-90898620D01*
X124877554Y-90934000D01*
X124217582Y-90934000D01*
X124202913Y-90898587D01*
X124077826Y-90711380D01*
X123918620Y-90552174D01*
X123731413Y-90427087D01*
X123523401Y-90340925D01*
X123302576Y-90297000D01*
X123077424Y-90297000D01*
X122856599Y-90340925D01*
X122648587Y-90427087D01*
X122461380Y-90552174D01*
X122302174Y-90711380D01*
X122177087Y-90898587D01*
X122090925Y-91106599D01*
X122047000Y-91327424D01*
X122047000Y-91552576D01*
X122090925Y-91773401D01*
X122177087Y-91981413D01*
X122203539Y-92021001D01*
X121946593Y-92021001D01*
X121734406Y-91808814D01*
X121749075Y-91773401D01*
X121793000Y-91552576D01*
X121793000Y-91327424D01*
X121749075Y-91106599D01*
X121662913Y-90898587D01*
X121537826Y-90711380D01*
X121378620Y-90552174D01*
X121191413Y-90427087D01*
X120983401Y-90340925D01*
X120762576Y-90297000D01*
X120537424Y-90297000D01*
X120316599Y-90340925D01*
X120108587Y-90427087D01*
X119921380Y-90552174D01*
X119762174Y-90711380D01*
X119637087Y-90898587D01*
X119550925Y-91106599D01*
X119507000Y-91327424D01*
X119507000Y-91552576D01*
X119550925Y-91773401D01*
X119637087Y-91981413D01*
X119762174Y-92168620D01*
X119921380Y-92327826D01*
X120108587Y-92452913D01*
X120152279Y-92471011D01*
X119856603Y-92471011D01*
X119194406Y-91808815D01*
X119209075Y-91773401D01*
X119253000Y-91552576D01*
X119253000Y-91327424D01*
X119209075Y-91106599D01*
X119122913Y-90898587D01*
X118997826Y-90711380D01*
X118838620Y-90552174D01*
X118651413Y-90427087D01*
X118443401Y-90340925D01*
X118222576Y-90297000D01*
X117997424Y-90297000D01*
X117776599Y-90340925D01*
X117568587Y-90427087D01*
X117381380Y-90552174D01*
X117222174Y-90711380D01*
X117097087Y-90898587D01*
X117010925Y-91106599D01*
X116967000Y-91327424D01*
X116967000Y-91348014D01*
X116936897Y-91120417D01*
X116884084Y-90946316D01*
X116673667Y-90863835D01*
X116097502Y-91440000D01*
X116673667Y-92016165D01*
X116884084Y-91933684D01*
X116955147Y-91667833D01*
X116967000Y-91485312D01*
X116967000Y-91552576D01*
X117010925Y-91773401D01*
X117097087Y-91981413D01*
X117222174Y-92168620D01*
X117381380Y-92327826D01*
X117568587Y-92452913D01*
X117776599Y-92539075D01*
X117997424Y-92583000D01*
X118222576Y-92583000D01*
X118443401Y-92539075D01*
X118478815Y-92524406D01*
X119271639Y-93317231D01*
X119287484Y-93336538D01*
X119364532Y-93399770D01*
X119416415Y-93427502D01*
X119452436Y-93446756D01*
X119547818Y-93475689D01*
X119647011Y-93485459D01*
X119671865Y-93483011D01*
X131788143Y-93483011D01*
X131812989Y-93485458D01*
X131837835Y-93483011D01*
X131837843Y-93483011D01*
X131912182Y-93475689D01*
X132007564Y-93446756D01*
X132095468Y-93399770D01*
X132172516Y-93336538D01*
X132188365Y-93317226D01*
X132963371Y-92542221D01*
X132963375Y-92542216D01*
X132981185Y-92524406D01*
X133016599Y-92539075D01*
X133237424Y-92583000D01*
X133462576Y-92583000D01*
X133660315Y-92543667D01*
X135313835Y-92543667D01*
X135396316Y-92754084D01*
X135662167Y-92825147D01*
X135936773Y-92842980D01*
X136209583Y-92806897D01*
X136383684Y-92754084D01*
X136466165Y-92543667D01*
X135890000Y-91967502D01*
X135313835Y-92543667D01*
X133660315Y-92543667D01*
X133683401Y-92539075D01*
X133891413Y-92452913D01*
X134078620Y-92327826D01*
X134237826Y-92168620D01*
X134362913Y-91981413D01*
X134449075Y-91773401D01*
X134493000Y-91552576D01*
X134493000Y-91531986D01*
X134523103Y-91759583D01*
X134575916Y-91933684D01*
X134786333Y-92016165D01*
X135362498Y-91440000D01*
X136417502Y-91440000D01*
X136993667Y-92016165D01*
X137204084Y-91933684D01*
X137275147Y-91667833D01*
X137287000Y-91485312D01*
X137287000Y-91552576D01*
X137330925Y-91773401D01*
X137417087Y-91981413D01*
X137542174Y-92168620D01*
X137701380Y-92327826D01*
X137888587Y-92452913D01*
X138096599Y-92539075D01*
X138317424Y-92583000D01*
X138542576Y-92583000D01*
X138763401Y-92539075D01*
X138971413Y-92452913D01*
X139158620Y-92327826D01*
X139317826Y-92168620D01*
X139442913Y-91981413D01*
X139529075Y-91773401D01*
X139573000Y-91552576D01*
X139573000Y-91327424D01*
X139529075Y-91106599D01*
X139442913Y-90898587D01*
X139317826Y-90711380D01*
X139158620Y-90552174D01*
X138971413Y-90427087D01*
X138763401Y-90340925D01*
X138542576Y-90297000D01*
X138317424Y-90297000D01*
X138096599Y-90340925D01*
X137888587Y-90427087D01*
X137701380Y-90552174D01*
X137542174Y-90711380D01*
X137417087Y-90898587D01*
X137330925Y-91106599D01*
X137287000Y-91327424D01*
X137287000Y-91348014D01*
X137256897Y-91120417D01*
X137204084Y-90946316D01*
X136993667Y-90863835D01*
X136417502Y-91440000D01*
X135362498Y-91440000D01*
X134786333Y-90863835D01*
X134575916Y-90946316D01*
X134504853Y-91212167D01*
X134493000Y-91394688D01*
X134493000Y-91327424D01*
X134449075Y-91106599D01*
X134362913Y-90898587D01*
X134237826Y-90711380D01*
X134078620Y-90552174D01*
X133891413Y-90427087D01*
X133683401Y-90340925D01*
X133462576Y-90297000D01*
X133237424Y-90297000D01*
X133016599Y-90340925D01*
X132808587Y-90427087D01*
X132621380Y-90552174D01*
X132462174Y-90711380D01*
X132337087Y-90898587D01*
X132250925Y-91106599D01*
X132207000Y-91327424D01*
X132207000Y-91552576D01*
X132250925Y-91773401D01*
X132265594Y-91808815D01*
X132247784Y-91826625D01*
X132247779Y-91826629D01*
X131603398Y-92471011D01*
X131307721Y-92471011D01*
X131351413Y-92452913D01*
X131538620Y-92327826D01*
X131697826Y-92168620D01*
X131822913Y-91981413D01*
X131909075Y-91773401D01*
X131953000Y-91552576D01*
X131953000Y-91327424D01*
X131909075Y-91106599D01*
X131822913Y-90898587D01*
X131697826Y-90711380D01*
X131538620Y-90552174D01*
X131351413Y-90427087D01*
X131143401Y-90340925D01*
X130922576Y-90297000D01*
X130697424Y-90297000D01*
X130476599Y-90340925D01*
X130268587Y-90427087D01*
X130081380Y-90552174D01*
X129922174Y-90711380D01*
X129797087Y-90898587D01*
X129710925Y-91106599D01*
X129667000Y-91327424D01*
X129667000Y-91552576D01*
X129710925Y-91773401D01*
X129725594Y-91808815D01*
X129513408Y-92021001D01*
X129256461Y-92021001D01*
X129282913Y-91981413D01*
X129369075Y-91773401D01*
X129413000Y-91552576D01*
X129413000Y-91327424D01*
X129369075Y-91106599D01*
X129282913Y-90898587D01*
X129157826Y-90711380D01*
X128998620Y-90552174D01*
X128811413Y-90427087D01*
X128603401Y-90340925D01*
X128382576Y-90297000D01*
X128157424Y-90297000D01*
X127936599Y-90340925D01*
X127728587Y-90427087D01*
X127541380Y-90552174D01*
X127382174Y-90711380D01*
X127257087Y-90898587D01*
X127242418Y-90934000D01*
X126582446Y-90934000D01*
X126617826Y-90898620D01*
X126742913Y-90711413D01*
X126829075Y-90503401D01*
X126873000Y-90282576D01*
X126873000Y-90057424D01*
X126829075Y-89836599D01*
X126742913Y-89628587D01*
X126617826Y-89441380D01*
X126582446Y-89406000D01*
X127242418Y-89406000D01*
X127257087Y-89441413D01*
X127382174Y-89628620D01*
X127541380Y-89787826D01*
X127728587Y-89912913D01*
X127936599Y-89999075D01*
X128157424Y-90043000D01*
X128382576Y-90043000D01*
X128603401Y-89999075D01*
X128811413Y-89912913D01*
X128998620Y-89787826D01*
X129157826Y-89628620D01*
X129282913Y-89441413D01*
X129369075Y-89233401D01*
X129413000Y-89012576D01*
X129413000Y-88787424D01*
X129369075Y-88566599D01*
X129282913Y-88358587D01*
X129256461Y-88318999D01*
X129513408Y-88318999D01*
X129725594Y-88531185D01*
X129710925Y-88566599D01*
X129667000Y-88787424D01*
X129667000Y-89012576D01*
X129710925Y-89233401D01*
X129797087Y-89441413D01*
X129922174Y-89628620D01*
X130081380Y-89787826D01*
X130268587Y-89912913D01*
X130476599Y-89999075D01*
X130697424Y-90043000D01*
X130922576Y-90043000D01*
X131143401Y-89999075D01*
X131351413Y-89912913D01*
X131538620Y-89787826D01*
X131697826Y-89628620D01*
X131822913Y-89441413D01*
X131909075Y-89233401D01*
X131953000Y-89012576D01*
X131953000Y-88787424D01*
X131909075Y-88566599D01*
X131822913Y-88358587D01*
X131697826Y-88171380D01*
X131538620Y-88012174D01*
X131351413Y-87887087D01*
X131307721Y-87868989D01*
X131603398Y-87868989D01*
X132247779Y-88513371D01*
X132247784Y-88513375D01*
X132265594Y-88531185D01*
X132250925Y-88566599D01*
X132207000Y-88787424D01*
X132207000Y-89012576D01*
X132250925Y-89233401D01*
X132337087Y-89441413D01*
X132462174Y-89628620D01*
X132621380Y-89787826D01*
X132808587Y-89912913D01*
X133016599Y-89999075D01*
X133237424Y-90043000D01*
X133462576Y-90043000D01*
X133683401Y-89999075D01*
X133891413Y-89912913D01*
X134078620Y-89787826D01*
X134237826Y-89628620D01*
X134362913Y-89441413D01*
X134449075Y-89233401D01*
X134493000Y-89012576D01*
X134493000Y-88787424D01*
X134449075Y-88566599D01*
X134362913Y-88358587D01*
X134237826Y-88171380D01*
X134078620Y-88012174D01*
X133891413Y-87887087D01*
X133683401Y-87800925D01*
X133462576Y-87757000D01*
X133237424Y-87757000D01*
X133016599Y-87800925D01*
X132981185Y-87815594D01*
X132963375Y-87797784D01*
X132963371Y-87797779D01*
X132584571Y-87418979D01*
X133693388Y-87418979D01*
X134787779Y-88513371D01*
X134787784Y-88513375D01*
X134805594Y-88531185D01*
X134790925Y-88566599D01*
X134747000Y-88787424D01*
X134747000Y-89012576D01*
X134790925Y-89233401D01*
X134877087Y-89441413D01*
X135002174Y-89628620D01*
X135161380Y-89787826D01*
X135348587Y-89912913D01*
X135556599Y-89999075D01*
X135777424Y-90043000D01*
X135798014Y-90043000D01*
X135570417Y-90073103D01*
X135396316Y-90125916D01*
X135313835Y-90336333D01*
X135890000Y-90912498D01*
X136466165Y-90336333D01*
X136383684Y-90125916D01*
X136117833Y-90054853D01*
X135935312Y-90043000D01*
X136002576Y-90043000D01*
X136223401Y-89999075D01*
X136431413Y-89912913D01*
X136618620Y-89787826D01*
X136777826Y-89628620D01*
X136902913Y-89441413D01*
X136989075Y-89233401D01*
X137033000Y-89012576D01*
X137033000Y-88787424D01*
X136989075Y-88566599D01*
X136902913Y-88358587D01*
X136777826Y-88171380D01*
X136618620Y-88012174D01*
X136431413Y-87887087D01*
X136223401Y-87800925D01*
X136002576Y-87757000D01*
X135777424Y-87757000D01*
X135556599Y-87800925D01*
X135521185Y-87815594D01*
X135503375Y-87797784D01*
X135503371Y-87797779D01*
X134278355Y-86572764D01*
X134262506Y-86553452D01*
X134185458Y-86490220D01*
X134097554Y-86443234D01*
X134002172Y-86414301D01*
X133927833Y-86406979D01*
X133927825Y-86406979D01*
X133902979Y-86404532D01*
X133878133Y-86406979D01*
X117581866Y-86406979D01*
X117557020Y-86404532D01*
X117532174Y-86406979D01*
X117532167Y-86406979D01*
X117457828Y-86414301D01*
X117362446Y-86443234D01*
X117274542Y-86490220D01*
X117197494Y-86553452D01*
X117181649Y-86572759D01*
X115938815Y-87815594D01*
X115903401Y-87800925D01*
X115682576Y-87757000D01*
X115457424Y-87757000D01*
X115236599Y-87800925D01*
X115028587Y-87887087D01*
X114841380Y-88012174D01*
X114682174Y-88171380D01*
X114557087Y-88358587D01*
X114470925Y-88566599D01*
X114427000Y-88787424D01*
X114173000Y-88787424D01*
X114129075Y-88566599D01*
X114042913Y-88358587D01*
X113917826Y-88171380D01*
X113758620Y-88012174D01*
X113571413Y-87887087D01*
X113363401Y-87800925D01*
X113142576Y-87757000D01*
X112917424Y-87757000D01*
X112696599Y-87800925D01*
X112488587Y-87887087D01*
X112301380Y-88012174D01*
X112142174Y-88171380D01*
X112017087Y-88358587D01*
X111930925Y-88566599D01*
X111887000Y-88787424D01*
X111887000Y-89012576D01*
X111930925Y-89233401D01*
X111945594Y-89268815D01*
X111602784Y-89611625D01*
X111583472Y-89627474D01*
X111520240Y-89704522D01*
X111473254Y-89792427D01*
X111444321Y-89887809D01*
X111436999Y-89962148D01*
X111436999Y-89962155D01*
X111434552Y-89987001D01*
X111436999Y-90011847D01*
X111436999Y-90799940D01*
X111377826Y-90711380D01*
X111218620Y-90552174D01*
X111031413Y-90427087D01*
X110823401Y-90340925D01*
X110602576Y-90297000D01*
X110377424Y-90297000D01*
X110156599Y-90340925D01*
X110121185Y-90355594D01*
X109908999Y-90143408D01*
X109908999Y-89886461D01*
X109948587Y-89912913D01*
X110156599Y-89999075D01*
X110377424Y-90043000D01*
X110602576Y-90043000D01*
X110823401Y-89999075D01*
X111031413Y-89912913D01*
X111218620Y-89787826D01*
X111377826Y-89628620D01*
X111502913Y-89441413D01*
X111589075Y-89233401D01*
X111633000Y-89012576D01*
X111633000Y-88787424D01*
X111589075Y-88566599D01*
X111574406Y-88531185D01*
X115310370Y-84795222D01*
X115310374Y-84795217D01*
X117049592Y-83056000D01*
X132116499Y-83056000D01*
X132217141Y-83156642D01*
X132345058Y-83242113D01*
X132487191Y-83300987D01*
X132638078Y-83331000D01*
X132791922Y-83331000D01*
X132942809Y-83300987D01*
X133084942Y-83242113D01*
X133212859Y-83156642D01*
X133321642Y-83047859D01*
X133407113Y-82919942D01*
X133465987Y-82777809D01*
X133496000Y-82626922D01*
X133496000Y-82473078D01*
X133465987Y-82322191D01*
X133407113Y-82180058D01*
X133321642Y-82052141D01*
X133212859Y-81943358D01*
X133084942Y-81857887D01*
X132942809Y-81799013D01*
X132791922Y-81769000D01*
X132638078Y-81769000D01*
X132487191Y-81799013D01*
X132390543Y-81839046D01*
X133546000Y-80683590D01*
X133545999Y-81957153D01*
X133545999Y-81957153D01*
G37*
X133545999Y-81957153D02*
X133543552Y-81981999D01*
X133545999Y-82006845D01*
X133545999Y-82006852D01*
X133553321Y-82081191D01*
X133582254Y-82176573D01*
X133629240Y-82264478D01*
X133692472Y-82341526D01*
X133711784Y-82357375D01*
X139011002Y-87656594D01*
X139011002Y-87913539D01*
X138971413Y-87887087D01*
X138763401Y-87800925D01*
X138542576Y-87757000D01*
X138317424Y-87757000D01*
X138096599Y-87800925D01*
X137888587Y-87887087D01*
X137701380Y-88012174D01*
X137542174Y-88171380D01*
X137417087Y-88358587D01*
X137330925Y-88566599D01*
X137287000Y-88787424D01*
X137287000Y-89012576D01*
X137330925Y-89233401D01*
X137417087Y-89441413D01*
X137542174Y-89628620D01*
X137701380Y-89787826D01*
X137888587Y-89912913D01*
X138096599Y-89999075D01*
X138317424Y-90043000D01*
X138542576Y-90043000D01*
X138763401Y-89999075D01*
X138971413Y-89912913D01*
X139011001Y-89886461D01*
X139011001Y-89962155D01*
X139008554Y-89987001D01*
X139011001Y-90011847D01*
X139011001Y-90011854D01*
X139018323Y-90086193D01*
X139047256Y-90181575D01*
X139094242Y-90269480D01*
X139157474Y-90346528D01*
X139176786Y-90362377D01*
X139885594Y-91071185D01*
X139870925Y-91106599D01*
X139827000Y-91327424D01*
X139827000Y-91552576D01*
X139870925Y-91773401D01*
X139957087Y-91981413D01*
X140082174Y-92168620D01*
X140241380Y-92327826D01*
X140428587Y-92452913D01*
X140636599Y-92539075D01*
X140857424Y-92583000D01*
X141082576Y-92583000D01*
X141303401Y-92539075D01*
X141511413Y-92452913D01*
X141698620Y-92327826D01*
X141857826Y-92168620D01*
X141982913Y-91981413D01*
X142069075Y-91773401D01*
X142113000Y-91552576D01*
X142113000Y-98727494D01*
X142005400Y-98682924D01*
X141784575Y-98638999D01*
X141559423Y-98638999D01*
X141338598Y-98682924D01*
X141303185Y-98697593D01*
X139420376Y-96814785D01*
X139404527Y-96795473D01*
X139327479Y-96732241D01*
X139239575Y-96685255D01*
X139144193Y-96656322D01*
X139069854Y-96649000D01*
X139069846Y-96649000D01*
X139045000Y-96646553D01*
X139020154Y-96649000D01*
X118954592Y-96649000D01*
X114921548Y-92615957D01*
X114993836Y-92543669D01*
X115076316Y-92754084D01*
X115342167Y-92825147D01*
X115616773Y-92842980D01*
X115889583Y-92806897D01*
X116063684Y-92754084D01*
X116146165Y-92543667D01*
X115570000Y-91967502D01*
X115555858Y-91981644D01*
X115028356Y-91454142D01*
X115042498Y-91440000D01*
X114466333Y-90863835D01*
X114255916Y-90946316D01*
X114184853Y-91212167D01*
X114173000Y-91394688D01*
X114173000Y-91327424D01*
X114129075Y-91106599D01*
X114042913Y-90898587D01*
X113917826Y-90711380D01*
X113758620Y-90552174D01*
X113571413Y-90427087D01*
X113363401Y-90340925D01*
X113142576Y-90297000D01*
X112917424Y-90297000D01*
X112696599Y-90340925D01*
X112488587Y-90427087D01*
X112448999Y-90453539D01*
X112448999Y-90196592D01*
X112661185Y-89984406D01*
X112696599Y-89999075D01*
X112917424Y-90043000D01*
X113142576Y-90043000D01*
X113363401Y-89999075D01*
X113571413Y-89912913D01*
X113758620Y-89787826D01*
X113917826Y-89628620D01*
X114042913Y-89441413D01*
X114129075Y-89233401D01*
X114173000Y-89012576D01*
X114173000Y-88787424D01*
X114427000Y-88787424D01*
X114427000Y-89012576D01*
X114470925Y-89233401D01*
X114557087Y-89441413D01*
X114682174Y-89628620D01*
X114841380Y-89787826D01*
X115028587Y-89912913D01*
X115236599Y-89999075D01*
X115457424Y-90043000D01*
X115478014Y-90043000D01*
X115250417Y-90073103D01*
X115076316Y-90125916D01*
X114993835Y-90336333D01*
X115570000Y-90912498D01*
X116146165Y-90336333D01*
X116063684Y-90125916D01*
X115797833Y-90054853D01*
X115615312Y-90043000D01*
X115682576Y-90043000D01*
X115903401Y-89999075D01*
X116111413Y-89912913D01*
X116298620Y-89787826D01*
X116457826Y-89628620D01*
X116582913Y-89441413D01*
X116669075Y-89233401D01*
X116713000Y-89012576D01*
X116713000Y-88787424D01*
X116669075Y-88566599D01*
X116654406Y-88531185D01*
X117766613Y-87418979D01*
X118875429Y-87418979D01*
X118478815Y-87815594D01*
X118443401Y-87800925D01*
X118222576Y-87757000D01*
X117997424Y-87757000D01*
X117776599Y-87800925D01*
X117568587Y-87887087D01*
X117381380Y-88012174D01*
X117222174Y-88171380D01*
X117097087Y-88358587D01*
X117010925Y-88566599D01*
X116967000Y-88787424D01*
X116967000Y-89012576D01*
X117010925Y-89233401D01*
X117097087Y-89441413D01*
X117222174Y-89628620D01*
X117381380Y-89787826D01*
X117568587Y-89912913D01*
X117776599Y-89999075D01*
X117997424Y-90043000D01*
X118222576Y-90043000D01*
X118443401Y-89999075D01*
X118651413Y-89912913D01*
X118838620Y-89787826D01*
X118997826Y-89628620D01*
X119122913Y-89441413D01*
X119209075Y-89233401D01*
X119253000Y-89012576D01*
X119253000Y-88787424D01*
X119209075Y-88566599D01*
X119194406Y-88531185D01*
X119856603Y-87868989D01*
X120152279Y-87868989D01*
X120108587Y-87887087D01*
X119921380Y-88012174D01*
X119762174Y-88171380D01*
X119637087Y-88358587D01*
X119550925Y-88566599D01*
X119507000Y-88787424D01*
X119507000Y-89012576D01*
X119550925Y-89233401D01*
X119637087Y-89441413D01*
X119762174Y-89628620D01*
X119921380Y-89787826D01*
X120108587Y-89912913D01*
X120316599Y-89999075D01*
X120537424Y-90043000D01*
X120762576Y-90043000D01*
X120983401Y-89999075D01*
X121191413Y-89912913D01*
X121378620Y-89787826D01*
X121537826Y-89628620D01*
X121662913Y-89441413D01*
X121749075Y-89233401D01*
X121793000Y-89012576D01*
X121793000Y-88787424D01*
X121749075Y-88566599D01*
X121734406Y-88531186D01*
X121946593Y-88318999D01*
X122203539Y-88318999D01*
X122177087Y-88358587D01*
X122090925Y-88566599D01*
X122047000Y-88787424D01*
X122047000Y-89012576D01*
X122090925Y-89233401D01*
X122177087Y-89441413D01*
X122302174Y-89628620D01*
X122461380Y-89787826D01*
X122648587Y-89912913D01*
X122856599Y-89999075D01*
X123077424Y-90043000D01*
X123302576Y-90043000D01*
X123523401Y-89999075D01*
X123731413Y-89912913D01*
X123918620Y-89787826D01*
X124077826Y-89628620D01*
X124202913Y-89441413D01*
X124217582Y-89406000D01*
X124877554Y-89406000D01*
X124842174Y-89441380D01*
X124717087Y-89628587D01*
X124630925Y-89836599D01*
X124587000Y-90057424D01*
X124587000Y-90282576D01*
X124630925Y-90503401D01*
X124717087Y-90711413D01*
X124842174Y-90898620D01*
X124877554Y-90934000D01*
X124217582Y-90934000D01*
X124202913Y-90898587D01*
X124077826Y-90711380D01*
X123918620Y-90552174D01*
X123731413Y-90427087D01*
X123523401Y-90340925D01*
X123302576Y-90297000D01*
X123077424Y-90297000D01*
X122856599Y-90340925D01*
X122648587Y-90427087D01*
X122461380Y-90552174D01*
X122302174Y-90711380D01*
X122177087Y-90898587D01*
X122090925Y-91106599D01*
X122047000Y-91327424D01*
X122047000Y-91552576D01*
X122090925Y-91773401D01*
X122177087Y-91981413D01*
X122203539Y-92021001D01*
X121946593Y-92021001D01*
X121734406Y-91808814D01*
X121749075Y-91773401D01*
X121793000Y-91552576D01*
X121793000Y-91327424D01*
X121749075Y-91106599D01*
X121662913Y-90898587D01*
X121537826Y-90711380D01*
X121378620Y-90552174D01*
X121191413Y-90427087D01*
X120983401Y-90340925D01*
X120762576Y-90297000D01*
X120537424Y-90297000D01*
X120316599Y-90340925D01*
X120108587Y-90427087D01*
X119921380Y-90552174D01*
X119762174Y-90711380D01*
X119637087Y-90898587D01*
X119550925Y-91106599D01*
X119507000Y-91327424D01*
X119507000Y-91552576D01*
X119550925Y-91773401D01*
X119637087Y-91981413D01*
X119762174Y-92168620D01*
X119921380Y-92327826D01*
X120108587Y-92452913D01*
X120152279Y-92471011D01*
X119856603Y-92471011D01*
X119194406Y-91808815D01*
X119209075Y-91773401D01*
X119253000Y-91552576D01*
X119253000Y-91327424D01*
X119209075Y-91106599D01*
X119122913Y-90898587D01*
X118997826Y-90711380D01*
X118838620Y-90552174D01*
X118651413Y-90427087D01*
X118443401Y-90340925D01*
X118222576Y-90297000D01*
X117997424Y-90297000D01*
X117776599Y-90340925D01*
X117568587Y-90427087D01*
X117381380Y-90552174D01*
X117222174Y-90711380D01*
X117097087Y-90898587D01*
X117010925Y-91106599D01*
X116967000Y-91327424D01*
X116967000Y-91348014D01*
X116936897Y-91120417D01*
X116884084Y-90946316D01*
X116673667Y-90863835D01*
X116097502Y-91440000D01*
X116673667Y-92016165D01*
X116884084Y-91933684D01*
X116955147Y-91667833D01*
X116967000Y-91485312D01*
X116967000Y-91552576D01*
X117010925Y-91773401D01*
X117097087Y-91981413D01*
X117222174Y-92168620D01*
X117381380Y-92327826D01*
X117568587Y-92452913D01*
X117776599Y-92539075D01*
X117997424Y-92583000D01*
X118222576Y-92583000D01*
X118443401Y-92539075D01*
X118478815Y-92524406D01*
X119271639Y-93317231D01*
X119287484Y-93336538D01*
X119364532Y-93399770D01*
X119416415Y-93427502D01*
X119452436Y-93446756D01*
X119547818Y-93475689D01*
X119647011Y-93485459D01*
X119671865Y-93483011D01*
X131788143Y-93483011D01*
X131812989Y-93485458D01*
X131837835Y-93483011D01*
X131837843Y-93483011D01*
X131912182Y-93475689D01*
X132007564Y-93446756D01*
X132095468Y-93399770D01*
X132172516Y-93336538D01*
X132188365Y-93317226D01*
X132963371Y-92542221D01*
X132963375Y-92542216D01*
X132981185Y-92524406D01*
X133016599Y-92539075D01*
X133237424Y-92583000D01*
X133462576Y-92583000D01*
X133660315Y-92543667D01*
X135313835Y-92543667D01*
X135396316Y-92754084D01*
X135662167Y-92825147D01*
X135936773Y-92842980D01*
X136209583Y-92806897D01*
X136383684Y-92754084D01*
X136466165Y-92543667D01*
X135890000Y-91967502D01*
X135313835Y-92543667D01*
X133660315Y-92543667D01*
X133683401Y-92539075D01*
X133891413Y-92452913D01*
X134078620Y-92327826D01*
X134237826Y-92168620D01*
X134362913Y-91981413D01*
X134449075Y-91773401D01*
X134493000Y-91552576D01*
X134493000Y-91531986D01*
X134523103Y-91759583D01*
X134575916Y-91933684D01*
X134786333Y-92016165D01*
X135362498Y-91440000D01*
X136417502Y-91440000D01*
X136993667Y-92016165D01*
X137204084Y-91933684D01*
X137275147Y-91667833D01*
X137287000Y-91485312D01*
X137287000Y-91552576D01*
X137330925Y-91773401D01*
X137417087Y-91981413D01*
X137542174Y-92168620D01*
X137701380Y-92327826D01*
X137888587Y-92452913D01*
X138096599Y-92539075D01*
X138317424Y-92583000D01*
X138542576Y-92583000D01*
X138763401Y-92539075D01*
X138971413Y-92452913D01*
X139158620Y-92327826D01*
X139317826Y-92168620D01*
X139442913Y-91981413D01*
X139529075Y-91773401D01*
X139573000Y-91552576D01*
X139573000Y-91327424D01*
X139529075Y-91106599D01*
X139442913Y-90898587D01*
X139317826Y-90711380D01*
X139158620Y-90552174D01*
X138971413Y-90427087D01*
X138763401Y-90340925D01*
X138542576Y-90297000D01*
X138317424Y-90297000D01*
X138096599Y-90340925D01*
X137888587Y-90427087D01*
X137701380Y-90552174D01*
X137542174Y-90711380D01*
X137417087Y-90898587D01*
X137330925Y-91106599D01*
X137287000Y-91327424D01*
X137287000Y-91348014D01*
X137256897Y-91120417D01*
X137204084Y-90946316D01*
X136993667Y-90863835D01*
X136417502Y-91440000D01*
X135362498Y-91440000D01*
X134786333Y-90863835D01*
X134575916Y-90946316D01*
X134504853Y-91212167D01*
X134493000Y-91394688D01*
X134493000Y-91327424D01*
X134449075Y-91106599D01*
X134362913Y-90898587D01*
X134237826Y-90711380D01*
X134078620Y-90552174D01*
X133891413Y-90427087D01*
X133683401Y-90340925D01*
X133462576Y-90297000D01*
X133237424Y-90297000D01*
X133016599Y-90340925D01*
X132808587Y-90427087D01*
X132621380Y-90552174D01*
X132462174Y-90711380D01*
X132337087Y-90898587D01*
X132250925Y-91106599D01*
X132207000Y-91327424D01*
X132207000Y-91552576D01*
X132250925Y-91773401D01*
X132265594Y-91808815D01*
X132247784Y-91826625D01*
X132247779Y-91826629D01*
X131603398Y-92471011D01*
X131307721Y-92471011D01*
X131351413Y-92452913D01*
X131538620Y-92327826D01*
X131697826Y-92168620D01*
X131822913Y-91981413D01*
X131909075Y-91773401D01*
X131953000Y-91552576D01*
X131953000Y-91327424D01*
X131909075Y-91106599D01*
X131822913Y-90898587D01*
X131697826Y-90711380D01*
X131538620Y-90552174D01*
X131351413Y-90427087D01*
X131143401Y-90340925D01*
X130922576Y-90297000D01*
X130697424Y-90297000D01*
X130476599Y-90340925D01*
X130268587Y-90427087D01*
X130081380Y-90552174D01*
X129922174Y-90711380D01*
X129797087Y-90898587D01*
X129710925Y-91106599D01*
X129667000Y-91327424D01*
X129667000Y-91552576D01*
X129710925Y-91773401D01*
X129725594Y-91808815D01*
X129513408Y-92021001D01*
X129256461Y-92021001D01*
X129282913Y-91981413D01*
X129369075Y-91773401D01*
X129413000Y-91552576D01*
X129413000Y-91327424D01*
X129369075Y-91106599D01*
X129282913Y-90898587D01*
X129157826Y-90711380D01*
X128998620Y-90552174D01*
X128811413Y-90427087D01*
X128603401Y-90340925D01*
X128382576Y-90297000D01*
X128157424Y-90297000D01*
X127936599Y-90340925D01*
X127728587Y-90427087D01*
X127541380Y-90552174D01*
X127382174Y-90711380D01*
X127257087Y-90898587D01*
X127242418Y-90934000D01*
X126582446Y-90934000D01*
X126617826Y-90898620D01*
X126742913Y-90711413D01*
X126829075Y-90503401D01*
X126873000Y-90282576D01*
X126873000Y-90057424D01*
X126829075Y-89836599D01*
X126742913Y-89628587D01*
X126617826Y-89441380D01*
X126582446Y-89406000D01*
X127242418Y-89406000D01*
X127257087Y-89441413D01*
X127382174Y-89628620D01*
X127541380Y-89787826D01*
X127728587Y-89912913D01*
X127936599Y-89999075D01*
X128157424Y-90043000D01*
X128382576Y-90043000D01*
X128603401Y-89999075D01*
X128811413Y-89912913D01*
X128998620Y-89787826D01*
X129157826Y-89628620D01*
X129282913Y-89441413D01*
X129369075Y-89233401D01*
X129413000Y-89012576D01*
X129413000Y-88787424D01*
X129369075Y-88566599D01*
X129282913Y-88358587D01*
X129256461Y-88318999D01*
X129513408Y-88318999D01*
X129725594Y-88531185D01*
X129710925Y-88566599D01*
X129667000Y-88787424D01*
X129667000Y-89012576D01*
X129710925Y-89233401D01*
X129797087Y-89441413D01*
X129922174Y-89628620D01*
X130081380Y-89787826D01*
X130268587Y-89912913D01*
X130476599Y-89999075D01*
X130697424Y-90043000D01*
X130922576Y-90043000D01*
X131143401Y-89999075D01*
X131351413Y-89912913D01*
X131538620Y-89787826D01*
X131697826Y-89628620D01*
X131822913Y-89441413D01*
X131909075Y-89233401D01*
X131953000Y-89012576D01*
X131953000Y-88787424D01*
X131909075Y-88566599D01*
X131822913Y-88358587D01*
X131697826Y-88171380D01*
X131538620Y-88012174D01*
X131351413Y-87887087D01*
X131307721Y-87868989D01*
X131603398Y-87868989D01*
X132247779Y-88513371D01*
X132247784Y-88513375D01*
X132265594Y-88531185D01*
X132250925Y-88566599D01*
X132207000Y-88787424D01*
X132207000Y-89012576D01*
X132250925Y-89233401D01*
X132337087Y-89441413D01*
X132462174Y-89628620D01*
X132621380Y-89787826D01*
X132808587Y-89912913D01*
X133016599Y-89999075D01*
X133237424Y-90043000D01*
X133462576Y-90043000D01*
X133683401Y-89999075D01*
X133891413Y-89912913D01*
X134078620Y-89787826D01*
X134237826Y-89628620D01*
X134362913Y-89441413D01*
X134449075Y-89233401D01*
X134493000Y-89012576D01*
X134493000Y-88787424D01*
X134449075Y-88566599D01*
X134362913Y-88358587D01*
X134237826Y-88171380D01*
X134078620Y-88012174D01*
X133891413Y-87887087D01*
X133683401Y-87800925D01*
X133462576Y-87757000D01*
X133237424Y-87757000D01*
X133016599Y-87800925D01*
X132981185Y-87815594D01*
X132963375Y-87797784D01*
X132963371Y-87797779D01*
X132584571Y-87418979D01*
X133693388Y-87418979D01*
X134787779Y-88513371D01*
X134787784Y-88513375D01*
X134805594Y-88531185D01*
X134790925Y-88566599D01*
X134747000Y-88787424D01*
X134747000Y-89012576D01*
X134790925Y-89233401D01*
X134877087Y-89441413D01*
X135002174Y-89628620D01*
X135161380Y-89787826D01*
X135348587Y-89912913D01*
X135556599Y-89999075D01*
X135777424Y-90043000D01*
X135798014Y-90043000D01*
X135570417Y-90073103D01*
X135396316Y-90125916D01*
X135313835Y-90336333D01*
X135890000Y-90912498D01*
X136466165Y-90336333D01*
X136383684Y-90125916D01*
X136117833Y-90054853D01*
X135935312Y-90043000D01*
X136002576Y-90043000D01*
X136223401Y-89999075D01*
X136431413Y-89912913D01*
X136618620Y-89787826D01*
X136777826Y-89628620D01*
X136902913Y-89441413D01*
X136989075Y-89233401D01*
X137033000Y-89012576D01*
X137033000Y-88787424D01*
X136989075Y-88566599D01*
X136902913Y-88358587D01*
X136777826Y-88171380D01*
X136618620Y-88012174D01*
X136431413Y-87887087D01*
X136223401Y-87800925D01*
X136002576Y-87757000D01*
X135777424Y-87757000D01*
X135556599Y-87800925D01*
X135521185Y-87815594D01*
X135503375Y-87797784D01*
X135503371Y-87797779D01*
X134278355Y-86572764D01*
X134262506Y-86553452D01*
X134185458Y-86490220D01*
X134097554Y-86443234D01*
X134002172Y-86414301D01*
X133927833Y-86406979D01*
X133927825Y-86406979D01*
X133902979Y-86404532D01*
X133878133Y-86406979D01*
X117581866Y-86406979D01*
X117557020Y-86404532D01*
X117532174Y-86406979D01*
X117532167Y-86406979D01*
X117457828Y-86414301D01*
X117362446Y-86443234D01*
X117274542Y-86490220D01*
X117197494Y-86553452D01*
X117181649Y-86572759D01*
X115938815Y-87815594D01*
X115903401Y-87800925D01*
X115682576Y-87757000D01*
X115457424Y-87757000D01*
X115236599Y-87800925D01*
X115028587Y-87887087D01*
X114841380Y-88012174D01*
X114682174Y-88171380D01*
X114557087Y-88358587D01*
X114470925Y-88566599D01*
X114427000Y-88787424D01*
X114173000Y-88787424D01*
X114129075Y-88566599D01*
X114042913Y-88358587D01*
X113917826Y-88171380D01*
X113758620Y-88012174D01*
X113571413Y-87887087D01*
X113363401Y-87800925D01*
X113142576Y-87757000D01*
X112917424Y-87757000D01*
X112696599Y-87800925D01*
X112488587Y-87887087D01*
X112301380Y-88012174D01*
X112142174Y-88171380D01*
X112017087Y-88358587D01*
X111930925Y-88566599D01*
X111887000Y-88787424D01*
X111887000Y-89012576D01*
X111930925Y-89233401D01*
X111945594Y-89268815D01*
X111602784Y-89611625D01*
X111583472Y-89627474D01*
X111520240Y-89704522D01*
X111473254Y-89792427D01*
X111444321Y-89887809D01*
X111436999Y-89962148D01*
X111436999Y-89962155D01*
X111434552Y-89987001D01*
X111436999Y-90011847D01*
X111436999Y-90799940D01*
X111377826Y-90711380D01*
X111218620Y-90552174D01*
X111031413Y-90427087D01*
X110823401Y-90340925D01*
X110602576Y-90297000D01*
X110377424Y-90297000D01*
X110156599Y-90340925D01*
X110121185Y-90355594D01*
X109908999Y-90143408D01*
X109908999Y-89886461D01*
X109948587Y-89912913D01*
X110156599Y-89999075D01*
X110377424Y-90043000D01*
X110602576Y-90043000D01*
X110823401Y-89999075D01*
X111031413Y-89912913D01*
X111218620Y-89787826D01*
X111377826Y-89628620D01*
X111502913Y-89441413D01*
X111589075Y-89233401D01*
X111633000Y-89012576D01*
X111633000Y-88787424D01*
X111589075Y-88566599D01*
X111574406Y-88531185D01*
X115310370Y-84795222D01*
X115310374Y-84795217D01*
X117049592Y-83056000D01*
X132116499Y-83056000D01*
X132217141Y-83156642D01*
X132345058Y-83242113D01*
X132487191Y-83300987D01*
X132638078Y-83331000D01*
X132791922Y-83331000D01*
X132942809Y-83300987D01*
X133084942Y-83242113D01*
X133212859Y-83156642D01*
X133321642Y-83047859D01*
X133407113Y-82919942D01*
X133465987Y-82777809D01*
X133496000Y-82626922D01*
X133496000Y-82473078D01*
X133465987Y-82322191D01*
X133407113Y-82180058D01*
X133321642Y-82052141D01*
X133212859Y-81943358D01*
X133084942Y-81857887D01*
X132942809Y-81799013D01*
X132791922Y-81769000D01*
X132638078Y-81769000D01*
X132487191Y-81799013D01*
X132390543Y-81839046D01*
X133546000Y-80683590D01*
X133545999Y-81957153D01*
G36*
X105008330Y-78885835D02*
G01*
X104797915Y-78968315D01*
X104726852Y-79234166D01*
X104709019Y-79508772D01*
X104745102Y-79781582D01*
X104797915Y-79955683D01*
X105008332Y-80038164D01*
X105584497Y-79461999D01*
X105570355Y-79447857D01*
X106097857Y-78920355D01*
X106111999Y-78934497D01*
X106126141Y-78920355D01*
X106653643Y-79447857D01*
X106639501Y-79461999D01*
X107215666Y-80038164D01*
X107426083Y-79955683D01*
X107497146Y-79689832D01*
X107508999Y-79507311D01*
X107508999Y-79574575D01*
X107552924Y-79795400D01*
X107639086Y-80003412D01*
X107764173Y-80190619D01*
X107923379Y-80349825D01*
X108110586Y-80474912D01*
X108318598Y-80561074D01*
X108539423Y-80604999D01*
X108764575Y-80604999D01*
X108985400Y-80561074D01*
X109193412Y-80474912D01*
X109380619Y-80349825D01*
X109539825Y-80190619D01*
X109664912Y-80003412D01*
X109751074Y-79795400D01*
X109794999Y-79574575D01*
X109794999Y-79349423D01*
X109751074Y-79128598D01*
X109664912Y-78920586D01*
X109629107Y-78867000D01*
X110214891Y-78867000D01*
X110179086Y-78920586D01*
X110092924Y-79128598D01*
X110048999Y-79349423D01*
X110048999Y-79574575D01*
X110092924Y-79795400D01*
X110179086Y-80003412D01*
X110304173Y-80190619D01*
X110463379Y-80349825D01*
X110650586Y-80474912D01*
X110858598Y-80561074D01*
X111079423Y-80604999D01*
X111304575Y-80604999D01*
X111525400Y-80561074D01*
X111733412Y-80474912D01*
X111920619Y-80349825D01*
X112079825Y-80190619D01*
X112204912Y-80003412D01*
X112291074Y-79795400D01*
X112334999Y-79574575D01*
X112334999Y-79349423D01*
X112291074Y-79128598D01*
X112204912Y-78920586D01*
X112169107Y-78867000D01*
X112754891Y-78867000D01*
X112719086Y-78920586D01*
X112632924Y-79128598D01*
X112588999Y-79349423D01*
X112588999Y-79574575D01*
X112632924Y-79795400D01*
X112719086Y-80003412D01*
X112844173Y-80190619D01*
X113003379Y-80349825D01*
X113190586Y-80474912D01*
X113398598Y-80561074D01*
X113619423Y-80604999D01*
X113844575Y-80604999D01*
X114065400Y-80561074D01*
X114189764Y-80509560D01*
X114190694Y-80509652D01*
X114255146Y-80516000D01*
X114255153Y-80516000D01*
X114279999Y-80518447D01*
X114304845Y-80516000D01*
X115332015Y-80516000D01*
X115342828Y-80551648D01*
X115380337Y-80642204D01*
X115415717Y-80708394D01*
X115459554Y-80774000D01*
X108514845Y-80774000D01*
X108489999Y-80771553D01*
X108465153Y-80774000D01*
X108465146Y-80774000D01*
X108400694Y-80780348D01*
X108390806Y-80781322D01*
X108295425Y-80810255D01*
X108207521Y-80857241D01*
X108130473Y-80920473D01*
X108114629Y-80939779D01*
X103238815Y-85815594D01*
X103203401Y-85800925D01*
X102982576Y-85757000D01*
X102757424Y-85757000D01*
X102536599Y-85800925D01*
X102362000Y-85873247D01*
X102362000Y-80565666D01*
X105535834Y-80565666D01*
X105618315Y-80776083D01*
X105884166Y-80847146D01*
X106158772Y-80864979D01*
X106431582Y-80828896D01*
X106605683Y-80776083D01*
X106688164Y-80565666D01*
X106111999Y-79989501D01*
X105535834Y-80565666D01*
X102362000Y-80565666D01*
X102362000Y-78867000D01*
X104989495Y-78867000D01*
X105008330Y-78885835D01*
X105008330Y-78885835D01*
G37*
X105008330Y-78885835D02*
X104797915Y-78968315D01*
X104726852Y-79234166D01*
X104709019Y-79508772D01*
X104745102Y-79781582D01*
X104797915Y-79955683D01*
X105008332Y-80038164D01*
X105584497Y-79461999D01*
X105570355Y-79447857D01*
X106097857Y-78920355D01*
X106111999Y-78934497D01*
X106126141Y-78920355D01*
X106653643Y-79447857D01*
X106639501Y-79461999D01*
X107215666Y-80038164D01*
X107426083Y-79955683D01*
X107497146Y-79689832D01*
X107508999Y-79507311D01*
X107508999Y-79574575D01*
X107552924Y-79795400D01*
X107639086Y-80003412D01*
X107764173Y-80190619D01*
X107923379Y-80349825D01*
X108110586Y-80474912D01*
X108318598Y-80561074D01*
X108539423Y-80604999D01*
X108764575Y-80604999D01*
X108985400Y-80561074D01*
X109193412Y-80474912D01*
X109380619Y-80349825D01*
X109539825Y-80190619D01*
X109664912Y-80003412D01*
X109751074Y-79795400D01*
X109794999Y-79574575D01*
X109794999Y-79349423D01*
X109751074Y-79128598D01*
X109664912Y-78920586D01*
X109629107Y-78867000D01*
X110214891Y-78867000D01*
X110179086Y-78920586D01*
X110092924Y-79128598D01*
X110048999Y-79349423D01*
X110048999Y-79574575D01*
X110092924Y-79795400D01*
X110179086Y-80003412D01*
X110304173Y-80190619D01*
X110463379Y-80349825D01*
X110650586Y-80474912D01*
X110858598Y-80561074D01*
X111079423Y-80604999D01*
X111304575Y-80604999D01*
X111525400Y-80561074D01*
X111733412Y-80474912D01*
X111920619Y-80349825D01*
X112079825Y-80190619D01*
X112204912Y-80003412D01*
X112291074Y-79795400D01*
X112334999Y-79574575D01*
X112334999Y-79349423D01*
X112291074Y-79128598D01*
X112204912Y-78920586D01*
X112169107Y-78867000D01*
X112754891Y-78867000D01*
X112719086Y-78920586D01*
X112632924Y-79128598D01*
X112588999Y-79349423D01*
X112588999Y-79574575D01*
X112632924Y-79795400D01*
X112719086Y-80003412D01*
X112844173Y-80190619D01*
X113003379Y-80349825D01*
X113190586Y-80474912D01*
X113398598Y-80561074D01*
X113619423Y-80604999D01*
X113844575Y-80604999D01*
X114065400Y-80561074D01*
X114189764Y-80509560D01*
X114190694Y-80509652D01*
X114255146Y-80516000D01*
X114255153Y-80516000D01*
X114279999Y-80518447D01*
X114304845Y-80516000D01*
X115332015Y-80516000D01*
X115342828Y-80551648D01*
X115380337Y-80642204D01*
X115415717Y-80708394D01*
X115459554Y-80774000D01*
X108514845Y-80774000D01*
X108489999Y-80771553D01*
X108465153Y-80774000D01*
X108465146Y-80774000D01*
X108400694Y-80780348D01*
X108390806Y-80781322D01*
X108295425Y-80810255D01*
X108207521Y-80857241D01*
X108130473Y-80920473D01*
X108114629Y-80939779D01*
X103238815Y-85815594D01*
X103203401Y-85800925D01*
X102982576Y-85757000D01*
X102757424Y-85757000D01*
X102536599Y-85800925D01*
X102362000Y-85873247D01*
X102362000Y-80565666D01*
X105535834Y-80565666D01*
X105618315Y-80776083D01*
X105884166Y-80847146D01*
X106158772Y-80864979D01*
X106431582Y-80828896D01*
X106605683Y-80776083D01*
X106688164Y-80565666D01*
X106111999Y-79989501D01*
X105535834Y-80565666D01*
X102362000Y-80565666D01*
X102362000Y-78867000D01*
X104989495Y-78867000D01*
X105008330Y-78885835D01*
M02*
