G04 #@! TF.GenerationSoftware,KiCad,Pcbnew,(5.1.2)-2*
G04 #@! TF.CreationDate,2019-08-10T11:34:17-04:00*
G04 #@! TF.ProjectId,compact-giraffe,636f6d70-6163-4742-9d67-697261666665,rev?*
G04 #@! TF.SameCoordinates,Original*
G04 #@! TF.FileFunction,Legend,Top*
G04 #@! TF.FilePolarity,Positive*
%FSLAX46Y46*%
G04 Gerber Fmt 4.6, Leading zero omitted, Abs format (unit mm)*
G04 Created by KiCad (PCBNEW (5.1.2)-2) date 2019-08-10 11:34:17*
%MOMM*%
%LPD*%
G04 APERTURE LIST*
%ADD10C,0.150000*%
%ADD11C,0.120000*%
%ADD12C,0.100000*%
G04 APERTURE END LIST*
D10*
X108570428Y-82089523D02*
X108760904Y-82184761D01*
X109141857Y-82184761D01*
X109332333Y-82089523D01*
X109427571Y-81899047D01*
X109427571Y-81803809D01*
X109332333Y-81613333D01*
X109141857Y-81518095D01*
X108856142Y-81518095D01*
X108665666Y-81422857D01*
X108570428Y-81232380D01*
X108570428Y-81137142D01*
X108665666Y-80946666D01*
X108856142Y-80851428D01*
X109141857Y-80851428D01*
X109332333Y-80946666D01*
X109999000Y-80851428D02*
X110760904Y-80851428D01*
X110284714Y-80184761D02*
X110284714Y-81899047D01*
X110379952Y-82089523D01*
X110570428Y-82184761D01*
X110760904Y-82184761D01*
X112189476Y-82089523D02*
X111999000Y-82184761D01*
X111618047Y-82184761D01*
X111427571Y-82089523D01*
X111332333Y-81899047D01*
X111332333Y-81137142D01*
X111427571Y-80946666D01*
X111618047Y-80851428D01*
X111999000Y-80851428D01*
X112189476Y-80946666D01*
X112284714Y-81137142D01*
X112284714Y-81327619D01*
X111332333Y-81518095D01*
X113999000Y-82184761D02*
X113999000Y-81137142D01*
X113903761Y-80946666D01*
X113713285Y-80851428D01*
X113332333Y-80851428D01*
X113141857Y-80946666D01*
X113999000Y-82089523D02*
X113808523Y-82184761D01*
X113332333Y-82184761D01*
X113141857Y-82089523D01*
X113046619Y-81899047D01*
X113046619Y-81708571D01*
X113141857Y-81518095D01*
X113332333Y-81422857D01*
X113808523Y-81422857D01*
X113999000Y-81327619D01*
X115237095Y-82184761D02*
X115046619Y-82089523D01*
X114951380Y-81899047D01*
X114951380Y-80184761D01*
X115713285Y-80851428D02*
X116475190Y-80851428D01*
X115999000Y-80184761D02*
X115999000Y-81899047D01*
X116094238Y-82089523D01*
X116284714Y-82184761D01*
X116475190Y-82184761D01*
X117141857Y-82184761D02*
X117141857Y-80184761D01*
X117999000Y-82184761D02*
X117999000Y-81137142D01*
X117903761Y-80946666D01*
X117713285Y-80851428D01*
X117427571Y-80851428D01*
X117237095Y-80946666D01*
X117141857Y-81041904D01*
X121332333Y-80851428D02*
X121332333Y-82470476D01*
X121237095Y-82660952D01*
X121141857Y-82756190D01*
X120951380Y-82851428D01*
X120665666Y-82851428D01*
X120475190Y-82756190D01*
X121332333Y-82089523D02*
X121141857Y-82184761D01*
X120760904Y-82184761D01*
X120570428Y-82089523D01*
X120475190Y-81994285D01*
X120379952Y-81803809D01*
X120379952Y-81232380D01*
X120475190Y-81041904D01*
X120570428Y-80946666D01*
X120760904Y-80851428D01*
X121141857Y-80851428D01*
X121332333Y-80946666D01*
X122284714Y-82184761D02*
X122284714Y-80851428D01*
X122284714Y-80184761D02*
X122189476Y-80280000D01*
X122284714Y-80375238D01*
X122379952Y-80280000D01*
X122284714Y-80184761D01*
X122284714Y-80375238D01*
X123237095Y-82184761D02*
X123237095Y-80851428D01*
X123237095Y-81232380D02*
X123332333Y-81041904D01*
X123427571Y-80946666D01*
X123618047Y-80851428D01*
X123808523Y-80851428D01*
X125332333Y-82184761D02*
X125332333Y-81137142D01*
X125237095Y-80946666D01*
X125046619Y-80851428D01*
X124665666Y-80851428D01*
X124475190Y-80946666D01*
X125332333Y-82089523D02*
X125141857Y-82184761D01*
X124665666Y-82184761D01*
X124475190Y-82089523D01*
X124379952Y-81899047D01*
X124379952Y-81708571D01*
X124475190Y-81518095D01*
X124665666Y-81422857D01*
X125141857Y-81422857D01*
X125332333Y-81327619D01*
X125999000Y-80851428D02*
X126760904Y-80851428D01*
X126284714Y-82184761D02*
X126284714Y-80470476D01*
X126379952Y-80280000D01*
X126570428Y-80184761D01*
X126760904Y-80184761D01*
X127141857Y-80851428D02*
X127903761Y-80851428D01*
X127427571Y-82184761D02*
X127427571Y-80470476D01*
X127522809Y-80280000D01*
X127713285Y-80184761D01*
X127903761Y-80184761D01*
X129332333Y-82089523D02*
X129141857Y-82184761D01*
X128760904Y-82184761D01*
X128570428Y-82089523D01*
X128475190Y-81899047D01*
X128475190Y-81137142D01*
X128570428Y-80946666D01*
X128760904Y-80851428D01*
X129141857Y-80851428D01*
X129332333Y-80946666D01*
X129427571Y-81137142D01*
X129427571Y-81327619D01*
X128475190Y-81518095D01*
D11*
X121920000Y-70993000D02*
X121920000Y-71374000D01*
X121539000Y-69469000D02*
X121920000Y-70993000D01*
X121412000Y-69342000D02*
X121539000Y-69469000D01*
X121031000Y-69088000D02*
X121412000Y-69342000D01*
D12*
G36*
X116130000Y-65834000D02*
G01*
X116380000Y-66084000D01*
X118130000Y-68334000D01*
X119380000Y-68834000D01*
X121130000Y-69084000D01*
X121380000Y-69334000D01*
X121630000Y-70584000D01*
X121380000Y-72084000D01*
X121630000Y-73584000D01*
X121380000Y-73584000D01*
X121130000Y-72084000D01*
X121130000Y-70834000D01*
X120880000Y-72084000D01*
X121130000Y-73584000D01*
X120880000Y-73584000D01*
X120630000Y-72084000D01*
X120880000Y-70834000D01*
X120630000Y-71084000D01*
X119880000Y-71334000D01*
X119630000Y-71334000D01*
X118880000Y-71084000D01*
X118630000Y-70834000D01*
X118630000Y-72334000D01*
X118880000Y-73584000D01*
X118630000Y-73584000D01*
X118380000Y-72084000D01*
X118380000Y-70584000D01*
X118130000Y-72084000D01*
X118380000Y-73584000D01*
X118130000Y-73584000D01*
X117880000Y-72084000D01*
X118130000Y-70084000D01*
X117630000Y-68834000D01*
X115880000Y-66084000D01*
X114880000Y-66334000D01*
X114880000Y-66084000D01*
X115130000Y-65834000D01*
X115880000Y-65584000D01*
X116130000Y-65334000D01*
X116130000Y-65834000D01*
G37*
X116130000Y-65834000D02*
X116380000Y-66084000D01*
X118130000Y-68334000D01*
X119380000Y-68834000D01*
X121130000Y-69084000D01*
X121380000Y-69334000D01*
X121630000Y-70584000D01*
X121380000Y-72084000D01*
X121630000Y-73584000D01*
X121380000Y-73584000D01*
X121130000Y-72084000D01*
X121130000Y-70834000D01*
X120880000Y-72084000D01*
X121130000Y-73584000D01*
X120880000Y-73584000D01*
X120630000Y-72084000D01*
X120880000Y-70834000D01*
X120630000Y-71084000D01*
X119880000Y-71334000D01*
X119630000Y-71334000D01*
X118880000Y-71084000D01*
X118630000Y-70834000D01*
X118630000Y-72334000D01*
X118880000Y-73584000D01*
X118630000Y-73584000D01*
X118380000Y-72084000D01*
X118380000Y-70584000D01*
X118130000Y-72084000D01*
X118380000Y-73584000D01*
X118130000Y-73584000D01*
X117880000Y-72084000D01*
X118130000Y-70084000D01*
X117630000Y-68834000D01*
X115880000Y-66084000D01*
X114880000Y-66334000D01*
X114880000Y-66084000D01*
X115130000Y-65834000D01*
X115880000Y-65584000D01*
X116130000Y-65334000D01*
X116130000Y-65834000D01*
D10*
X108204285Y-71159714D02*
X108204285Y-72016857D01*
X108156666Y-72112095D01*
X108061428Y-72159714D01*
X108013809Y-72159714D01*
X108204285Y-70826380D02*
X108156666Y-70874000D01*
X108204285Y-70921619D01*
X108251904Y-70874000D01*
X108204285Y-70826380D01*
X108204285Y-70921619D01*
X108632857Y-71778761D02*
X108728095Y-71826380D01*
X108918571Y-71826380D01*
X109013809Y-71778761D01*
X109061428Y-71683523D01*
X109061428Y-71635904D01*
X109013809Y-71540666D01*
X108918571Y-71493047D01*
X108775714Y-71493047D01*
X108680476Y-71445428D01*
X108632857Y-71350190D01*
X108632857Y-71302571D01*
X108680476Y-71207333D01*
X108775714Y-71159714D01*
X108918571Y-71159714D01*
X109013809Y-71207333D01*
X109490000Y-71826380D02*
X109490000Y-70826380D01*
X109918571Y-71826380D02*
X109918571Y-71302571D01*
X109870952Y-71207333D01*
X109775714Y-71159714D01*
X109632857Y-71159714D01*
X109537619Y-71207333D01*
X109490000Y-71254952D01*
X110299523Y-70826380D02*
X110918571Y-70826380D01*
X110585238Y-71207333D01*
X110728095Y-71207333D01*
X110823333Y-71254952D01*
X110870952Y-71302571D01*
X110918571Y-71397809D01*
X110918571Y-71635904D01*
X110870952Y-71731142D01*
X110823333Y-71778761D01*
X110728095Y-71826380D01*
X110442380Y-71826380D01*
X110347142Y-71778761D01*
X110299523Y-71731142D01*
X111775714Y-71159714D02*
X111775714Y-71826380D01*
X111537619Y-70778761D02*
X111299523Y-71493047D01*
X111918571Y-71493047D01*
X112442380Y-71254952D02*
X112347142Y-71207333D01*
X112299523Y-71159714D01*
X112251904Y-71064476D01*
X112251904Y-71016857D01*
X112299523Y-70921619D01*
X112347142Y-70874000D01*
X112442380Y-70826380D01*
X112632857Y-70826380D01*
X112728095Y-70874000D01*
X112775714Y-70921619D01*
X112823333Y-71016857D01*
X112823333Y-71064476D01*
X112775714Y-71159714D01*
X112728095Y-71207333D01*
X112632857Y-71254952D01*
X112442380Y-71254952D01*
X112347142Y-71302571D01*
X112299523Y-71350190D01*
X112251904Y-71445428D01*
X112251904Y-71635904D01*
X112299523Y-71731142D01*
X112347142Y-71778761D01*
X112442380Y-71826380D01*
X112632857Y-71826380D01*
X112728095Y-71778761D01*
X112775714Y-71731142D01*
X112823333Y-71635904D01*
X112823333Y-71445428D01*
X112775714Y-71350190D01*
X112728095Y-71302571D01*
X112632857Y-71254952D01*
D11*
X123775000Y-65294000D02*
X125175000Y-65294000D01*
X125875000Y-65994000D02*
X125875000Y-66594000D01*
X125175000Y-67294000D02*
X123775000Y-67294000D01*
X123075000Y-66594000D02*
X123075000Y-65994000D01*
X123075000Y-65994000D02*
G75*
G02X123775000Y-65294000I700000J0D01*
G01*
X123775000Y-67294000D02*
G75*
G02X123075000Y-66594000I0J700000D01*
G01*
X125875000Y-66594000D02*
G75*
G02X125175000Y-67294000I-700000J0D01*
G01*
X125175000Y-65294000D02*
G75*
G02X125875000Y-65994000I0J-700000D01*
G01*
D10*
X123762142Y-68651380D02*
X123762142Y-67651380D01*
X124143095Y-67651380D01*
X124238333Y-67699000D01*
X124285952Y-67746619D01*
X124333571Y-67841857D01*
X124333571Y-67984714D01*
X124285952Y-68079952D01*
X124238333Y-68127571D01*
X124143095Y-68175190D01*
X123762142Y-68175190D01*
X125190714Y-68651380D02*
X125190714Y-68127571D01*
X125143095Y-68032333D01*
X125047857Y-67984714D01*
X124857380Y-67984714D01*
X124762142Y-68032333D01*
X125190714Y-68603761D02*
X125095476Y-68651380D01*
X124857380Y-68651380D01*
X124762142Y-68603761D01*
X124714523Y-68508523D01*
X124714523Y-68413285D01*
X124762142Y-68318047D01*
X124857380Y-68270428D01*
X125095476Y-68270428D01*
X125190714Y-68222809D01*
X125571666Y-67984714D02*
X125762142Y-68651380D01*
X125952619Y-68175190D01*
X126143095Y-68651380D01*
X126333571Y-67984714D01*
X126476428Y-68746619D02*
X127238333Y-68746619D01*
X127476428Y-68651380D02*
X127476428Y-67651380D01*
X127714523Y-67651380D01*
X127857380Y-67699000D01*
X127952619Y-67794238D01*
X128000238Y-67889476D01*
X128047857Y-68079952D01*
X128047857Y-68222809D01*
X128000238Y-68413285D01*
X127952619Y-68508523D01*
X127857380Y-68603761D01*
X127714523Y-68651380D01*
X127476428Y-68651380D01*
X128809761Y-68127571D02*
X128476428Y-68127571D01*
X128476428Y-68651380D02*
X128476428Y-67651380D01*
X128952619Y-67651380D01*
X129333571Y-67651380D02*
X129333571Y-68460904D01*
X129381190Y-68556142D01*
X129428809Y-68603761D01*
X129524047Y-68651380D01*
X129714523Y-68651380D01*
X129809761Y-68603761D01*
X129857380Y-68556142D01*
X129905000Y-68460904D01*
X129905000Y-67651380D01*
X130143095Y-68746619D02*
X130905000Y-68746619D01*
X131476428Y-68127571D02*
X131619285Y-68175190D01*
X131666904Y-68222809D01*
X131714523Y-68318047D01*
X131714523Y-68460904D01*
X131666904Y-68556142D01*
X131619285Y-68603761D01*
X131524047Y-68651380D01*
X131143095Y-68651380D01*
X131143095Y-67651380D01*
X131476428Y-67651380D01*
X131571666Y-67699000D01*
X131619285Y-67746619D01*
X131666904Y-67841857D01*
X131666904Y-67937095D01*
X131619285Y-68032333D01*
X131571666Y-68079952D01*
X131476428Y-68127571D01*
X131143095Y-68127571D01*
X132285952Y-68651380D02*
X132190714Y-68603761D01*
X132143095Y-68556142D01*
X132095476Y-68460904D01*
X132095476Y-68175190D01*
X132143095Y-68079952D01*
X132190714Y-68032333D01*
X132285952Y-67984714D01*
X132428809Y-67984714D01*
X132524047Y-68032333D01*
X132571666Y-68079952D01*
X132619285Y-68175190D01*
X132619285Y-68460904D01*
X132571666Y-68556142D01*
X132524047Y-68603761D01*
X132428809Y-68651380D01*
X132285952Y-68651380D01*
X133190714Y-68651380D02*
X133095476Y-68603761D01*
X133047857Y-68556142D01*
X133000238Y-68460904D01*
X133000238Y-68175190D01*
X133047857Y-68079952D01*
X133095476Y-68032333D01*
X133190714Y-67984714D01*
X133333571Y-67984714D01*
X133428809Y-68032333D01*
X133476428Y-68079952D01*
X133524047Y-68175190D01*
X133524047Y-68460904D01*
X133476428Y-68556142D01*
X133428809Y-68603761D01*
X133333571Y-68651380D01*
X133190714Y-68651380D01*
X133809761Y-67984714D02*
X134190714Y-67984714D01*
X133952619Y-67651380D02*
X133952619Y-68508523D01*
X134000238Y-68603761D01*
X134095476Y-68651380D01*
X134190714Y-68651380D01*
M02*
