G04 #@! TF.GenerationSoftware,KiCad,Pcbnew,(5.1.2)-2*
G04 #@! TF.CreationDate,2019-08-10T02:00:27-04:00*
G04 #@! TF.ProjectId,compact-giraffe,636f6d70-6163-4742-9d67-697261666665,rev?*
G04 #@! TF.SameCoordinates,Original*
G04 #@! TF.FileFunction,Legend,Top*
G04 #@! TF.FilePolarity,Positive*
%FSLAX46Y46*%
G04 Gerber Fmt 4.6, Leading zero omitted, Abs format (unit mm)*
G04 Created by KiCad (PCBNEW (5.1.2)-2) date 2019-08-10 02:00:27*
%MOMM*%
%LPD*%
G04 APERTURE LIST*
%ADD10C,0.120000*%
%ADD11C,0.150000*%
G04 APERTURE END LIST*
D10*
X142240000Y-92710000D02*
X127000000Y-92710000D01*
X142240000Y-87630000D02*
X142240000Y-92710000D01*
X137160000Y-87630000D02*
X142240000Y-87630000D01*
X137160000Y-86360000D02*
X137160000Y-87630000D01*
X132080000Y-86360000D02*
X137160000Y-86360000D01*
X132080000Y-87630000D02*
X132080000Y-86360000D01*
X127000000Y-87630000D02*
X132080000Y-87630000D01*
X127000000Y-92710000D02*
X127000000Y-87630000D01*
X127000000Y-87630000D02*
X127000000Y-86360000D01*
X127000000Y-86360000D02*
X132080000Y-86360000D01*
X132080000Y-86360000D02*
X137160000Y-86360000D01*
X137160000Y-86360000D02*
X142240000Y-86360000D01*
X142240000Y-86360000D02*
X142240000Y-87630000D01*
X129540000Y-92710000D02*
X129540000Y-93980000D01*
X129540000Y-93980000D02*
X130810000Y-93980000D01*
X130810000Y-93980000D02*
X130810000Y-92710000D01*
X130810000Y-92710000D02*
X138430000Y-92710000D01*
X138430000Y-92710000D02*
X138430000Y-93980000D01*
X138430000Y-93980000D02*
X139700000Y-93980000D01*
X139700000Y-93980000D02*
X139700000Y-92710000D01*
X130810000Y-93980000D02*
X138430000Y-93980000D01*
X109220000Y-92710000D02*
X124460000Y-92710000D01*
X109220000Y-87630000D02*
X109220000Y-92710000D01*
X114300000Y-87630000D02*
X109220000Y-87630000D01*
X114300000Y-86360000D02*
X114300000Y-87630000D01*
X119380000Y-86360000D02*
X114300000Y-86360000D01*
X119380000Y-87630000D02*
X119380000Y-86360000D01*
X124460000Y-87630000D02*
X119380000Y-87630000D01*
X124460000Y-92710000D02*
X124460000Y-87630000D01*
X124460000Y-87630000D02*
X124460000Y-85090000D01*
X124460000Y-85090000D02*
X123190000Y-85090000D01*
X123190000Y-85090000D02*
X123190000Y-87630000D01*
X110490000Y-87630000D02*
X110490000Y-85090000D01*
X110490000Y-85090000D02*
X109220000Y-85090000D01*
X109220000Y-85090000D02*
X109220000Y-87630000D01*
X124460000Y-92710000D02*
X121920000Y-93980000D01*
X121920000Y-93980000D02*
X111760000Y-93980000D01*
X111760000Y-93980000D02*
X109220000Y-92710000D01*
X140432064Y-94340000D02*
X139227936Y-94340000D01*
X140432064Y-96160000D02*
X139227936Y-96160000D01*
D11*
X134286666Y-86892380D02*
X134286666Y-87606666D01*
X134239047Y-87749523D01*
X134143809Y-87844761D01*
X134000952Y-87892380D01*
X133905714Y-87892380D01*
X134715238Y-86987619D02*
X134762857Y-86940000D01*
X134858095Y-86892380D01*
X135096190Y-86892380D01*
X135191428Y-86940000D01*
X135239047Y-86987619D01*
X135286666Y-87082857D01*
X135286666Y-87178095D01*
X135239047Y-87320952D01*
X134667619Y-87892380D01*
X135286666Y-87892380D01*
X128555714Y-87447380D02*
X127984285Y-87447380D01*
X128270000Y-87447380D02*
X128270000Y-86447380D01*
X128174761Y-86590238D01*
X128079523Y-86685476D01*
X127984285Y-86733095D01*
X129977142Y-85494761D02*
X130120000Y-85542380D01*
X130358095Y-85542380D01*
X130453333Y-85494761D01*
X130500952Y-85447142D01*
X130548571Y-85351904D01*
X130548571Y-85256666D01*
X130500952Y-85161428D01*
X130453333Y-85113809D01*
X130358095Y-85066190D01*
X130167619Y-85018571D01*
X130072380Y-84970952D01*
X130024761Y-84923333D01*
X129977142Y-84828095D01*
X129977142Y-84732857D01*
X130024761Y-84637619D01*
X130072380Y-84590000D01*
X130167619Y-84542380D01*
X130405714Y-84542380D01*
X130548571Y-84590000D01*
X130977142Y-85542380D02*
X130977142Y-84542380D01*
X131405714Y-85542380D02*
X131405714Y-85018571D01*
X131358095Y-84923333D01*
X131262857Y-84875714D01*
X131120000Y-84875714D01*
X131024761Y-84923333D01*
X130977142Y-84970952D01*
X132024761Y-85542380D02*
X131929523Y-85494761D01*
X131881904Y-85447142D01*
X131834285Y-85351904D01*
X131834285Y-85066190D01*
X131881904Y-84970952D01*
X131929523Y-84923333D01*
X132024761Y-84875714D01*
X132167619Y-84875714D01*
X132262857Y-84923333D01*
X132310476Y-84970952D01*
X132358095Y-85066190D01*
X132358095Y-85351904D01*
X132310476Y-85447142D01*
X132262857Y-85494761D01*
X132167619Y-85542380D01*
X132024761Y-85542380D01*
X132786666Y-85542380D02*
X132786666Y-84875714D01*
X132786666Y-85066190D02*
X132834285Y-84970952D01*
X132881904Y-84923333D01*
X132977142Y-84875714D01*
X133072380Y-84875714D01*
X133262857Y-84875714D02*
X133643809Y-84875714D01*
X133405714Y-84542380D02*
X133405714Y-85399523D01*
X133453333Y-85494761D01*
X133548571Y-85542380D01*
X133643809Y-85542380D01*
X134691428Y-85494761D02*
X134834285Y-85542380D01*
X135072380Y-85542380D01*
X135167619Y-85494761D01*
X135215238Y-85447142D01*
X135262857Y-85351904D01*
X135262857Y-85256666D01*
X135215238Y-85161428D01*
X135167619Y-85113809D01*
X135072380Y-85066190D01*
X134881904Y-85018571D01*
X134786666Y-84970952D01*
X134739047Y-84923333D01*
X134691428Y-84828095D01*
X134691428Y-84732857D01*
X134739047Y-84637619D01*
X134786666Y-84590000D01*
X134881904Y-84542380D01*
X135120000Y-84542380D01*
X135262857Y-84590000D01*
X135834285Y-85542380D02*
X135739047Y-85494761D01*
X135691428Y-85447142D01*
X135643809Y-85351904D01*
X135643809Y-85066190D01*
X135691428Y-84970952D01*
X135739047Y-84923333D01*
X135834285Y-84875714D01*
X135977142Y-84875714D01*
X136072380Y-84923333D01*
X136120000Y-84970952D01*
X136167619Y-85066190D01*
X136167619Y-85351904D01*
X136120000Y-85447142D01*
X136072380Y-85494761D01*
X135977142Y-85542380D01*
X135834285Y-85542380D01*
X137024761Y-85494761D02*
X136929523Y-85542380D01*
X136739047Y-85542380D01*
X136643809Y-85494761D01*
X136596190Y-85447142D01*
X136548571Y-85351904D01*
X136548571Y-85066190D01*
X136596190Y-84970952D01*
X136643809Y-84923333D01*
X136739047Y-84875714D01*
X136929523Y-84875714D01*
X137024761Y-84923333D01*
X137453333Y-85542380D02*
X137453333Y-84542380D01*
X137548571Y-85161428D02*
X137834285Y-85542380D01*
X137834285Y-84875714D02*
X137453333Y-85256666D01*
X138643809Y-85494761D02*
X138548571Y-85542380D01*
X138358095Y-85542380D01*
X138262857Y-85494761D01*
X138215238Y-85399523D01*
X138215238Y-85018571D01*
X138262857Y-84923333D01*
X138358095Y-84875714D01*
X138548571Y-84875714D01*
X138643809Y-84923333D01*
X138691428Y-85018571D01*
X138691428Y-85113809D01*
X138215238Y-85209047D01*
X138977142Y-84875714D02*
X139358095Y-84875714D01*
X139120000Y-84542380D02*
X139120000Y-85399523D01*
X139167619Y-85494761D01*
X139262857Y-85542380D01*
X139358095Y-85542380D01*
X116506666Y-86892380D02*
X116506666Y-87606666D01*
X116459047Y-87749523D01*
X116363809Y-87844761D01*
X116220952Y-87892380D01*
X116125714Y-87892380D01*
X116887619Y-86892380D02*
X117506666Y-86892380D01*
X117173333Y-87273333D01*
X117316190Y-87273333D01*
X117411428Y-87320952D01*
X117459047Y-87368571D01*
X117506666Y-87463809D01*
X117506666Y-87701904D01*
X117459047Y-87797142D01*
X117411428Y-87844761D01*
X117316190Y-87892380D01*
X117030476Y-87892380D01*
X116935238Y-87844761D01*
X116887619Y-87797142D01*
X122967714Y-87447380D02*
X122396285Y-87447380D01*
X122682000Y-87447380D02*
X122682000Y-86447380D01*
X122586761Y-86590238D01*
X122491523Y-86685476D01*
X122396285Y-86733095D01*
X115411428Y-85542380D02*
X115411428Y-84542380D01*
X115792380Y-84542380D01*
X115887619Y-84590000D01*
X115935238Y-84637619D01*
X115982857Y-84732857D01*
X115982857Y-84875714D01*
X115935238Y-84970952D01*
X115887619Y-85018571D01*
X115792380Y-85066190D01*
X115411428Y-85066190D01*
X116554285Y-85542380D02*
X116459047Y-85494761D01*
X116411428Y-85399523D01*
X116411428Y-84542380D01*
X117363809Y-84875714D02*
X117363809Y-85542380D01*
X116935238Y-84875714D02*
X116935238Y-85399523D01*
X116982857Y-85494761D01*
X117078095Y-85542380D01*
X117220952Y-85542380D01*
X117316190Y-85494761D01*
X117363809Y-85447142D01*
X118268571Y-84875714D02*
X118268571Y-85685238D01*
X118220952Y-85780476D01*
X118173333Y-85828095D01*
X118078095Y-85875714D01*
X117935238Y-85875714D01*
X117840000Y-85828095D01*
X118268571Y-85494761D02*
X118173333Y-85542380D01*
X117982857Y-85542380D01*
X117887619Y-85494761D01*
X117840000Y-85447142D01*
X117792380Y-85351904D01*
X117792380Y-85066190D01*
X117840000Y-84970952D01*
X117887619Y-84923333D01*
X117982857Y-84875714D01*
X118173333Y-84875714D01*
X118268571Y-84923333D01*
X104205595Y-93352380D02*
X104205595Y-92352380D01*
X104777023Y-93352380D02*
X104348452Y-92780952D01*
X104777023Y-92352380D02*
X104205595Y-92923809D01*
X106491309Y-92400000D02*
X106396071Y-92352380D01*
X106253214Y-92352380D01*
X106110357Y-92400000D01*
X106015119Y-92495238D01*
X105967500Y-92590476D01*
X105919880Y-92780952D01*
X105919880Y-92923809D01*
X105967500Y-93114285D01*
X106015119Y-93209523D01*
X106110357Y-93304761D01*
X106253214Y-93352380D01*
X106348452Y-93352380D01*
X106491309Y-93304761D01*
X106538928Y-93257142D01*
X106538928Y-92923809D01*
X106348452Y-92923809D01*
X106967500Y-93352380D02*
X106967500Y-92352380D01*
X107538928Y-93352380D01*
X107538928Y-92352380D01*
X108015119Y-93352380D02*
X108015119Y-92352380D01*
X108253214Y-92352380D01*
X108396071Y-92400000D01*
X108491309Y-92495238D01*
X108538928Y-92590476D01*
X108586547Y-92780952D01*
X108586547Y-92923809D01*
X108538928Y-93114285D01*
X108491309Y-93209523D01*
X108396071Y-93304761D01*
X108253214Y-93352380D01*
X108015119Y-93352380D01*
X104729404Y-90400000D02*
X104634166Y-90352380D01*
X104491309Y-90352380D01*
X104348452Y-90400000D01*
X104253214Y-90495238D01*
X104205595Y-90590476D01*
X104157976Y-90780952D01*
X104157976Y-90923809D01*
X104205595Y-91114285D01*
X104253214Y-91209523D01*
X104348452Y-91304761D01*
X104491309Y-91352380D01*
X104586547Y-91352380D01*
X104729404Y-91304761D01*
X104777023Y-91257142D01*
X104777023Y-90923809D01*
X104586547Y-90923809D01*
X105967500Y-91352380D02*
X105967500Y-90352380D01*
X106205595Y-90352380D01*
X106348452Y-90400000D01*
X106443690Y-90495238D01*
X106491309Y-90590476D01*
X106538928Y-90780952D01*
X106538928Y-90923809D01*
X106491309Y-91114285D01*
X106443690Y-91209523D01*
X106348452Y-91304761D01*
X106205595Y-91352380D01*
X105967500Y-91352380D01*
X106967500Y-90971428D02*
X107729404Y-90971428D01*
X107348452Y-91352380D02*
X107348452Y-90590476D01*
X104110357Y-88352380D02*
X104348452Y-89352380D01*
X104538928Y-88638095D01*
X104729404Y-89352380D01*
X104967500Y-88352380D01*
X106110357Y-89352380D02*
X106110357Y-88352380D01*
X106348452Y-88352380D01*
X106491309Y-88400000D01*
X106586547Y-88495238D01*
X106634166Y-88590476D01*
X106681785Y-88780952D01*
X106681785Y-88923809D01*
X106634166Y-89114285D01*
X106586547Y-89209523D01*
X106491309Y-89304761D01*
X106348452Y-89352380D01*
X106110357Y-89352380D01*
X107110357Y-88971428D02*
X107872261Y-88971428D01*
X104777023Y-87352380D02*
X104443690Y-86876190D01*
X104205595Y-87352380D02*
X104205595Y-86352380D01*
X104586547Y-86352380D01*
X104681785Y-86400000D01*
X104729404Y-86447619D01*
X104777023Y-86542857D01*
X104777023Y-86685714D01*
X104729404Y-86780952D01*
X104681785Y-86828571D01*
X104586547Y-86876190D01*
X104205595Y-86876190D01*
X105824642Y-86352380D02*
X106157976Y-87352380D01*
X106491309Y-86352380D01*
X107396071Y-87257142D02*
X107348452Y-87304761D01*
X107205595Y-87352380D01*
X107110357Y-87352380D01*
X106967500Y-87304761D01*
X106872261Y-87209523D01*
X106824642Y-87114285D01*
X106777023Y-86923809D01*
X106777023Y-86780952D01*
X106824642Y-86590476D01*
X106872261Y-86495238D01*
X106967500Y-86400000D01*
X107110357Y-86352380D01*
X107205595Y-86352380D01*
X107348452Y-86400000D01*
X107396071Y-86447619D01*
X108396071Y-87257142D02*
X108348452Y-87304761D01*
X108205595Y-87352380D01*
X108110357Y-87352380D01*
X107967500Y-87304761D01*
X107872261Y-87209523D01*
X107824642Y-87114285D01*
X107777023Y-86923809D01*
X107777023Y-86780952D01*
X107824642Y-86590476D01*
X107872261Y-86495238D01*
X107967500Y-86400000D01*
X108110357Y-86352380D01*
X108205595Y-86352380D01*
X108348452Y-86400000D01*
X108396071Y-86447619D01*
X126182380Y-95146190D02*
X125182380Y-95146190D01*
X125182380Y-94765238D01*
X125230000Y-94670000D01*
X125277619Y-94622380D01*
X125372857Y-94574761D01*
X125515714Y-94574761D01*
X125610952Y-94622380D01*
X125658571Y-94670000D01*
X125706190Y-94765238D01*
X125706190Y-95146190D01*
X126182380Y-94003333D02*
X126134761Y-94098571D01*
X126087142Y-94146190D01*
X125991904Y-94193809D01*
X125706190Y-94193809D01*
X125610952Y-94146190D01*
X125563333Y-94098571D01*
X125515714Y-94003333D01*
X125515714Y-93860476D01*
X125563333Y-93765238D01*
X125610952Y-93717619D01*
X125706190Y-93670000D01*
X125991904Y-93670000D01*
X126087142Y-93717619D01*
X126134761Y-93765238D01*
X126182380Y-93860476D01*
X126182380Y-94003333D01*
X125515714Y-93336666D02*
X126182380Y-93146190D01*
X125706190Y-92955714D01*
X126182380Y-92765238D01*
X125515714Y-92574761D01*
X126134761Y-91812857D02*
X126182380Y-91908095D01*
X126182380Y-92098571D01*
X126134761Y-92193809D01*
X126039523Y-92241428D01*
X125658571Y-92241428D01*
X125563333Y-92193809D01*
X125515714Y-92098571D01*
X125515714Y-91908095D01*
X125563333Y-91812857D01*
X125658571Y-91765238D01*
X125753809Y-91765238D01*
X125849047Y-92241428D01*
X126182380Y-91336666D02*
X125515714Y-91336666D01*
X125706190Y-91336666D02*
X125610952Y-91289047D01*
X125563333Y-91241428D01*
X125515714Y-91146190D01*
X125515714Y-91050952D01*
X135723333Y-95702380D02*
X135390000Y-95226190D01*
X135151904Y-95702380D02*
X135151904Y-94702380D01*
X135532857Y-94702380D01*
X135628095Y-94750000D01*
X135675714Y-94797619D01*
X135723333Y-94892857D01*
X135723333Y-95035714D01*
X135675714Y-95130952D01*
X135628095Y-95178571D01*
X135532857Y-95226190D01*
X135151904Y-95226190D01*
X136675714Y-95702380D02*
X136104285Y-95702380D01*
X136390000Y-95702380D02*
X136390000Y-94702380D01*
X136294761Y-94845238D01*
X136199523Y-94940476D01*
X136104285Y-94988095D01*
X136191952Y-97734380D02*
X135620523Y-97734380D01*
X135906238Y-97734380D02*
X135906238Y-96734380D01*
X135811000Y-96877238D01*
X135715761Y-96972476D01*
X135620523Y-97020095D01*
X136572904Y-96829619D02*
X136620523Y-96782000D01*
X136715761Y-96734380D01*
X136953857Y-96734380D01*
X137049095Y-96782000D01*
X137096714Y-96829619D01*
X137144333Y-96924857D01*
X137144333Y-97020095D01*
X137096714Y-97162952D01*
X136525285Y-97734380D01*
X137144333Y-97734380D01*
X137763380Y-96734380D02*
X137858619Y-96734380D01*
X137953857Y-96782000D01*
X138001476Y-96829619D01*
X138049095Y-96924857D01*
X138096714Y-97115333D01*
X138096714Y-97353428D01*
X138049095Y-97543904D01*
X138001476Y-97639142D01*
X137953857Y-97686761D01*
X137858619Y-97734380D01*
X137763380Y-97734380D01*
X137668142Y-97686761D01*
X137620523Y-97639142D01*
X137572904Y-97543904D01*
X137525285Y-97353428D01*
X137525285Y-97115333D01*
X137572904Y-96924857D01*
X137620523Y-96829619D01*
X137668142Y-96782000D01*
X137763380Y-96734380D01*
X139430047Y-97734380D02*
X139334809Y-97686761D01*
X139287190Y-97639142D01*
X139239571Y-97543904D01*
X139239571Y-97258190D01*
X139287190Y-97162952D01*
X139334809Y-97115333D01*
X139430047Y-97067714D01*
X139572904Y-97067714D01*
X139668142Y-97115333D01*
X139715761Y-97162952D01*
X139763380Y-97258190D01*
X139763380Y-97543904D01*
X139715761Y-97639142D01*
X139668142Y-97686761D01*
X139572904Y-97734380D01*
X139430047Y-97734380D01*
X140191952Y-97734380D02*
X140191952Y-96734380D01*
X140620523Y-97734380D02*
X140620523Y-97210571D01*
X140572904Y-97115333D01*
X140477666Y-97067714D01*
X140334809Y-97067714D01*
X140239571Y-97115333D01*
X140191952Y-97162952D01*
X141096714Y-97734380D02*
X141096714Y-97067714D01*
X141096714Y-97162952D02*
X141144333Y-97115333D01*
X141239571Y-97067714D01*
X141382428Y-97067714D01*
X141477666Y-97115333D01*
X141525285Y-97210571D01*
X141525285Y-97734380D01*
X141525285Y-97210571D02*
X141572904Y-97115333D01*
X141668142Y-97067714D01*
X141811000Y-97067714D01*
X141906238Y-97115333D01*
X141953857Y-97210571D01*
X141953857Y-97734380D01*
M02*
