G04 #@! TF.GenerationSoftware,KiCad,Pcbnew,(5.1.2)-2*
G04 #@! TF.CreationDate,2019-08-10T11:34:17-04:00*
G04 #@! TF.ProjectId,compact-giraffe,636f6d70-6163-4742-9d67-697261666665,rev?*
G04 #@! TF.SameCoordinates,Original*
G04 #@! TF.FileFunction,Copper,L2,Bot*
G04 #@! TF.FilePolarity,Positive*
%FSLAX46Y46*%
G04 Gerber Fmt 4.6, Leading zero omitted, Abs format (unit mm)*
G04 Created by KiCad (PCBNEW (5.1.2)-2) date 2019-08-10 11:34:17*
%MOMM*%
%LPD*%
G04 APERTURE LIST*
%ADD10C,1.524000*%
%ADD11C,0.100000*%
%ADD12C,1.250000*%
%ADD13C,0.800000*%
%ADD14C,0.250000*%
%ADD15C,1.000000*%
%ADD16C,0.254000*%
G04 APERTURE END LIST*
D10*
X99628001Y-65745999D03*
X102168001Y-65745999D03*
X104708001Y-65745999D03*
X107248001Y-65745999D03*
X109788001Y-65745999D03*
X112328001Y-65745999D03*
X127568001Y-65745999D03*
X130108001Y-65745999D03*
X132648001Y-65745999D03*
X135188001Y-65745999D03*
X99628001Y-86065999D03*
X102168001Y-86065999D03*
X104708001Y-86065999D03*
X107248001Y-86065999D03*
X109788001Y-86065999D03*
X112328001Y-86065999D03*
X114868001Y-86065999D03*
X117408001Y-86065999D03*
X119948001Y-86065999D03*
X127568001Y-86065999D03*
X130108001Y-86065999D03*
X132648001Y-86065999D03*
X135188001Y-86065999D03*
X107950000Y-77724000D03*
X110490000Y-77724000D03*
X105410000Y-75184000D03*
X107950000Y-75184000D03*
X110490000Y-75184000D03*
X100330000Y-77724000D03*
X102870000Y-77724000D03*
X105410000Y-77724000D03*
X113030000Y-77724000D03*
X100330000Y-75184000D03*
X102870000Y-75184000D03*
X113030000Y-75184000D03*
X123190000Y-77724000D03*
X120650000Y-77724000D03*
X125730000Y-75184000D03*
X123190000Y-75184000D03*
X120650000Y-75184000D03*
X130810000Y-77724000D03*
X128270000Y-77724000D03*
X125730000Y-77724000D03*
X118110000Y-77724000D03*
X130810000Y-75184000D03*
X128270000Y-75184000D03*
X118110000Y-75184000D03*
X138430000Y-79184000D03*
X138430000Y-77184000D03*
X138430000Y-75184000D03*
X138430000Y-73184000D03*
X115570000Y-76454000D03*
D11*
G36*
X103269504Y-80660204D02*
G01*
X103293773Y-80663804D01*
X103317571Y-80669765D01*
X103340671Y-80678030D01*
X103362849Y-80688520D01*
X103383893Y-80701133D01*
X103403598Y-80715747D01*
X103421777Y-80732223D01*
X103438253Y-80750402D01*
X103452867Y-80770107D01*
X103465480Y-80791151D01*
X103475970Y-80813329D01*
X103484235Y-80836429D01*
X103490196Y-80860227D01*
X103493796Y-80884496D01*
X103495000Y-80909000D01*
X103495000Y-82159000D01*
X103493796Y-82183504D01*
X103490196Y-82207773D01*
X103484235Y-82231571D01*
X103475970Y-82254671D01*
X103465480Y-82276849D01*
X103452867Y-82297893D01*
X103438253Y-82317598D01*
X103421777Y-82335777D01*
X103403598Y-82352253D01*
X103383893Y-82366867D01*
X103362849Y-82379480D01*
X103340671Y-82389970D01*
X103317571Y-82398235D01*
X103293773Y-82404196D01*
X103269504Y-82407796D01*
X103245000Y-82409000D01*
X102495000Y-82409000D01*
X102470496Y-82407796D01*
X102446227Y-82404196D01*
X102422429Y-82398235D01*
X102399329Y-82389970D01*
X102377151Y-82379480D01*
X102356107Y-82366867D01*
X102336402Y-82352253D01*
X102318223Y-82335777D01*
X102301747Y-82317598D01*
X102287133Y-82297893D01*
X102274520Y-82276849D01*
X102264030Y-82254671D01*
X102255765Y-82231571D01*
X102249804Y-82207773D01*
X102246204Y-82183504D01*
X102245000Y-82159000D01*
X102245000Y-80909000D01*
X102246204Y-80884496D01*
X102249804Y-80860227D01*
X102255765Y-80836429D01*
X102264030Y-80813329D01*
X102274520Y-80791151D01*
X102287133Y-80770107D01*
X102301747Y-80750402D01*
X102318223Y-80732223D01*
X102336402Y-80715747D01*
X102356107Y-80701133D01*
X102377151Y-80688520D01*
X102399329Y-80678030D01*
X102422429Y-80669765D01*
X102446227Y-80663804D01*
X102470496Y-80660204D01*
X102495000Y-80659000D01*
X103245000Y-80659000D01*
X103269504Y-80660204D01*
X103269504Y-80660204D01*
G37*
D12*
X102870000Y-81534000D03*
D11*
G36*
X100469504Y-80660204D02*
G01*
X100493773Y-80663804D01*
X100517571Y-80669765D01*
X100540671Y-80678030D01*
X100562849Y-80688520D01*
X100583893Y-80701133D01*
X100603598Y-80715747D01*
X100621777Y-80732223D01*
X100638253Y-80750402D01*
X100652867Y-80770107D01*
X100665480Y-80791151D01*
X100675970Y-80813329D01*
X100684235Y-80836429D01*
X100690196Y-80860227D01*
X100693796Y-80884496D01*
X100695000Y-80909000D01*
X100695000Y-82159000D01*
X100693796Y-82183504D01*
X100690196Y-82207773D01*
X100684235Y-82231571D01*
X100675970Y-82254671D01*
X100665480Y-82276849D01*
X100652867Y-82297893D01*
X100638253Y-82317598D01*
X100621777Y-82335777D01*
X100603598Y-82352253D01*
X100583893Y-82366867D01*
X100562849Y-82379480D01*
X100540671Y-82389970D01*
X100517571Y-82398235D01*
X100493773Y-82404196D01*
X100469504Y-82407796D01*
X100445000Y-82409000D01*
X99695000Y-82409000D01*
X99670496Y-82407796D01*
X99646227Y-82404196D01*
X99622429Y-82398235D01*
X99599329Y-82389970D01*
X99577151Y-82379480D01*
X99556107Y-82366867D01*
X99536402Y-82352253D01*
X99518223Y-82335777D01*
X99501747Y-82317598D01*
X99487133Y-82297893D01*
X99474520Y-82276849D01*
X99464030Y-82254671D01*
X99455765Y-82231571D01*
X99449804Y-82207773D01*
X99446204Y-82183504D01*
X99445000Y-82159000D01*
X99445000Y-80909000D01*
X99446204Y-80884496D01*
X99449804Y-80860227D01*
X99455765Y-80836429D01*
X99464030Y-80813329D01*
X99474520Y-80791151D01*
X99487133Y-80770107D01*
X99501747Y-80750402D01*
X99518223Y-80732223D01*
X99536402Y-80715747D01*
X99556107Y-80701133D01*
X99577151Y-80688520D01*
X99599329Y-80678030D01*
X99622429Y-80669765D01*
X99646227Y-80663804D01*
X99670496Y-80660204D01*
X99695000Y-80659000D01*
X100445000Y-80659000D01*
X100469504Y-80660204D01*
X100469504Y-80660204D01*
G37*
D12*
X100070000Y-81534000D03*
D13*
X135255000Y-80264000D03*
X133350000Y-82169000D03*
X108585000Y-68834000D03*
D14*
X103631999Y-76962001D02*
X102870000Y-77724000D01*
X103957001Y-76636999D02*
X103631999Y-76962001D01*
X103957001Y-69286001D02*
X103957001Y-76636999D01*
X102168001Y-67497001D02*
X103957001Y-69286001D01*
X102168001Y-65745999D02*
X102168001Y-67497001D01*
X113030000Y-77744000D02*
X113030000Y-77724000D01*
X104708001Y-86065999D02*
X113030000Y-77744000D01*
X107796002Y-68834000D02*
X104708001Y-65745999D01*
X108585000Y-68834000D02*
X107796002Y-68834000D01*
X103505000Y-74549000D02*
X102870000Y-75184000D01*
X99628001Y-65745999D02*
X103505000Y-69622998D01*
X103505000Y-69622998D02*
X103505000Y-74549000D01*
X99628001Y-81975999D02*
X100070000Y-81534000D01*
X99628001Y-86065999D02*
X99628001Y-81975999D01*
X102168001Y-82235999D02*
X102870000Y-81534000D01*
X102168001Y-86065999D02*
X102168001Y-82235999D01*
D15*
X115570000Y-76454000D02*
X115570000Y-72644000D01*
X115570000Y-72644000D02*
X116840000Y-71374000D01*
X116840000Y-71374000D02*
X127020000Y-71374000D01*
X127020000Y-71374000D02*
X132648001Y-65745999D01*
D14*
X138430000Y-75184000D02*
X130108001Y-83505999D01*
X130108001Y-83505999D02*
X130108001Y-86065999D01*
X130810705Y-84228703D02*
X130810705Y-83439705D01*
X132648001Y-86065999D02*
X130810705Y-84228703D01*
X130810705Y-83439705D02*
X137066410Y-77184000D01*
X137066410Y-77184000D02*
X138430000Y-77184000D01*
D16*
G36*
X137417087Y-77725413D02*
G01*
X137542174Y-77912620D01*
X137701380Y-78071826D01*
X137888587Y-78196913D01*
X138028277Y-78254775D01*
X138430000Y-78656498D01*
X138444142Y-78642356D01*
X138938000Y-79136214D01*
X138938000Y-79231786D01*
X138444142Y-79725644D01*
X138430000Y-79711502D01*
X137853835Y-80287667D01*
X137936316Y-80498084D01*
X138202167Y-80569147D01*
X138476773Y-80586980D01*
X138749583Y-80550897D01*
X138923684Y-80498084D01*
X138938000Y-80461563D01*
X138938000Y-86487000D01*
X136250791Y-86487000D01*
X136287076Y-86399400D01*
X136331001Y-86178575D01*
X136331001Y-85953423D01*
X136287076Y-85732598D01*
X136200914Y-85524586D01*
X136075827Y-85337379D01*
X135916621Y-85178173D01*
X135729414Y-85053086D01*
X135521402Y-84966924D01*
X135300577Y-84922999D01*
X135075425Y-84922999D01*
X134854600Y-84966924D01*
X134646588Y-85053086D01*
X134459381Y-85178173D01*
X134300175Y-85337379D01*
X134175088Y-85524586D01*
X134088926Y-85732598D01*
X134045001Y-85953423D01*
X134045001Y-86178575D01*
X134088926Y-86399400D01*
X134125211Y-86487000D01*
X133710791Y-86487000D01*
X133747076Y-86399400D01*
X133791001Y-86178575D01*
X133791001Y-85953423D01*
X133747076Y-85732598D01*
X133660914Y-85524586D01*
X133535827Y-85337379D01*
X133376621Y-85178173D01*
X133189414Y-85053086D01*
X132981402Y-84966924D01*
X132760577Y-84922999D01*
X132535425Y-84922999D01*
X132314600Y-84966924D01*
X132279186Y-84981593D01*
X131316705Y-84019112D01*
X131316705Y-83649296D01*
X135735228Y-79230773D01*
X137027020Y-79230773D01*
X137063103Y-79503583D01*
X137115916Y-79677684D01*
X137326333Y-79760165D01*
X137902498Y-79184000D01*
X137326333Y-78607835D01*
X137115916Y-78690316D01*
X137044853Y-78956167D01*
X137027020Y-79230773D01*
X135735228Y-79230773D01*
X137276002Y-77690000D01*
X137402418Y-77690000D01*
X137417087Y-77725413D01*
X137417087Y-77725413D01*
G37*
X137417087Y-77725413D02*
X137542174Y-77912620D01*
X137701380Y-78071826D01*
X137888587Y-78196913D01*
X138028277Y-78254775D01*
X138430000Y-78656498D01*
X138444142Y-78642356D01*
X138938000Y-79136214D01*
X138938000Y-79231786D01*
X138444142Y-79725644D01*
X138430000Y-79711502D01*
X137853835Y-80287667D01*
X137936316Y-80498084D01*
X138202167Y-80569147D01*
X138476773Y-80586980D01*
X138749583Y-80550897D01*
X138923684Y-80498084D01*
X138938000Y-80461563D01*
X138938000Y-86487000D01*
X136250791Y-86487000D01*
X136287076Y-86399400D01*
X136331001Y-86178575D01*
X136331001Y-85953423D01*
X136287076Y-85732598D01*
X136200914Y-85524586D01*
X136075827Y-85337379D01*
X135916621Y-85178173D01*
X135729414Y-85053086D01*
X135521402Y-84966924D01*
X135300577Y-84922999D01*
X135075425Y-84922999D01*
X134854600Y-84966924D01*
X134646588Y-85053086D01*
X134459381Y-85178173D01*
X134300175Y-85337379D01*
X134175088Y-85524586D01*
X134088926Y-85732598D01*
X134045001Y-85953423D01*
X134045001Y-86178575D01*
X134088926Y-86399400D01*
X134125211Y-86487000D01*
X133710791Y-86487000D01*
X133747076Y-86399400D01*
X133791001Y-86178575D01*
X133791001Y-85953423D01*
X133747076Y-85732598D01*
X133660914Y-85524586D01*
X133535827Y-85337379D01*
X133376621Y-85178173D01*
X133189414Y-85053086D01*
X132981402Y-84966924D01*
X132760577Y-84922999D01*
X132535425Y-84922999D01*
X132314600Y-84966924D01*
X132279186Y-84981593D01*
X131316705Y-84019112D01*
X131316705Y-83649296D01*
X135735228Y-79230773D01*
X137027020Y-79230773D01*
X137063103Y-79503583D01*
X137115916Y-79677684D01*
X137326333Y-79760165D01*
X137902498Y-79184000D01*
X137326333Y-78607835D01*
X137115916Y-78690316D01*
X137044853Y-78956167D01*
X137027020Y-79230773D01*
X135735228Y-79230773D01*
X137276002Y-77690000D01*
X137402418Y-77690000D01*
X137417087Y-77725413D01*
G36*
X103695088Y-65204586D02*
G01*
X103608926Y-65412598D01*
X103565001Y-65633423D01*
X103565001Y-65858575D01*
X103608926Y-66079400D01*
X103695088Y-66287412D01*
X103820175Y-66474619D01*
X103979381Y-66633825D01*
X104166588Y-66758912D01*
X104374600Y-66845074D01*
X104595425Y-66888999D01*
X104820577Y-66888999D01*
X105041402Y-66845074D01*
X105076816Y-66830405D01*
X107420630Y-69174220D01*
X107436475Y-69193527D01*
X107513523Y-69256759D01*
X107568229Y-69286000D01*
X107601427Y-69303745D01*
X107696809Y-69332678D01*
X107796002Y-69342448D01*
X107820856Y-69340000D01*
X107986499Y-69340000D01*
X108087141Y-69440642D01*
X108215058Y-69526113D01*
X108357191Y-69584987D01*
X108508078Y-69615000D01*
X108661922Y-69615000D01*
X108812809Y-69584987D01*
X108954942Y-69526113D01*
X109082859Y-69440642D01*
X109191642Y-69331859D01*
X109277113Y-69203942D01*
X109335987Y-69061809D01*
X109366000Y-68910922D01*
X109366000Y-68757078D01*
X109335987Y-68606191D01*
X109277113Y-68464058D01*
X109191642Y-68336141D01*
X109082859Y-68227358D01*
X108954942Y-68141887D01*
X108812809Y-68083013D01*
X108661922Y-68053000D01*
X108508078Y-68053000D01*
X108357191Y-68083013D01*
X108215058Y-68141887D01*
X108087141Y-68227358D01*
X107996046Y-68318453D01*
X105792407Y-66114814D01*
X105807076Y-66079400D01*
X105851001Y-65858575D01*
X105851001Y-65633423D01*
X105807076Y-65412598D01*
X105720914Y-65204586D01*
X105685109Y-65151000D01*
X106270893Y-65151000D01*
X106235088Y-65204586D01*
X106148926Y-65412598D01*
X106105001Y-65633423D01*
X106105001Y-65858575D01*
X106148926Y-66079400D01*
X106235088Y-66287412D01*
X106360175Y-66474619D01*
X106519381Y-66633825D01*
X106706588Y-66758912D01*
X106914600Y-66845074D01*
X107135425Y-66888999D01*
X107360577Y-66888999D01*
X107581402Y-66845074D01*
X107789414Y-66758912D01*
X107976621Y-66633825D01*
X108135827Y-66474619D01*
X108260914Y-66287412D01*
X108347076Y-66079400D01*
X108391001Y-65858575D01*
X108391001Y-65633423D01*
X108347076Y-65412598D01*
X108260914Y-65204586D01*
X108225109Y-65151000D01*
X108810893Y-65151000D01*
X108775088Y-65204586D01*
X108688926Y-65412598D01*
X108645001Y-65633423D01*
X108645001Y-65858575D01*
X108688926Y-66079400D01*
X108775088Y-66287412D01*
X108900175Y-66474619D01*
X109059381Y-66633825D01*
X109246588Y-66758912D01*
X109454600Y-66845074D01*
X109675425Y-66888999D01*
X109900577Y-66888999D01*
X110121402Y-66845074D01*
X110329414Y-66758912D01*
X110516621Y-66633825D01*
X110675827Y-66474619D01*
X110800914Y-66287412D01*
X110887076Y-66079400D01*
X110931001Y-65858575D01*
X110931001Y-65633423D01*
X110887076Y-65412598D01*
X110800914Y-65204586D01*
X110765109Y-65151000D01*
X111350893Y-65151000D01*
X111315088Y-65204586D01*
X111228926Y-65412598D01*
X111185001Y-65633423D01*
X111185001Y-65858575D01*
X111228926Y-66079400D01*
X111315088Y-66287412D01*
X111440175Y-66474619D01*
X111599381Y-66633825D01*
X111786588Y-66758912D01*
X111994600Y-66845074D01*
X112215425Y-66888999D01*
X112440577Y-66888999D01*
X112661402Y-66845074D01*
X112869414Y-66758912D01*
X113056621Y-66633825D01*
X113215827Y-66474619D01*
X113340914Y-66287412D01*
X113427076Y-66079400D01*
X113471001Y-65858575D01*
X113471001Y-65633423D01*
X113427076Y-65412598D01*
X113340914Y-65204586D01*
X113305109Y-65151000D01*
X126590893Y-65151000D01*
X126555088Y-65204586D01*
X126468926Y-65412598D01*
X126425001Y-65633423D01*
X126425001Y-65858575D01*
X126468926Y-66079400D01*
X126555088Y-66287412D01*
X126680175Y-66474619D01*
X126839381Y-66633825D01*
X127026588Y-66758912D01*
X127234600Y-66845074D01*
X127455425Y-66888999D01*
X127680577Y-66888999D01*
X127901402Y-66845074D01*
X128109414Y-66758912D01*
X128296621Y-66633825D01*
X128455827Y-66474619D01*
X128580914Y-66287412D01*
X128667076Y-66079400D01*
X128711001Y-65858575D01*
X128711001Y-65633423D01*
X128667076Y-65412598D01*
X128580914Y-65204586D01*
X128545109Y-65151000D01*
X129130893Y-65151000D01*
X129095088Y-65204586D01*
X129008926Y-65412598D01*
X128965001Y-65633423D01*
X128965001Y-65858575D01*
X129008926Y-66079400D01*
X129095088Y-66287412D01*
X129220175Y-66474619D01*
X129379381Y-66633825D01*
X129566588Y-66758912D01*
X129774600Y-66845074D01*
X129995425Y-66888999D01*
X130220577Y-66888999D01*
X130268640Y-66879439D01*
X126655079Y-70493000D01*
X116883269Y-70493000D01*
X116839999Y-70488738D01*
X116796729Y-70493000D01*
X116796727Y-70493000D01*
X116667294Y-70505748D01*
X116501225Y-70556125D01*
X116429981Y-70594206D01*
X116348174Y-70637932D01*
X116280022Y-70693863D01*
X116214025Y-70748025D01*
X116186440Y-70781638D01*
X114977640Y-71990439D01*
X114944026Y-72018025D01*
X114916441Y-72051638D01*
X114833932Y-72152175D01*
X114752125Y-72305226D01*
X114701749Y-72471295D01*
X114684738Y-72644000D01*
X114689001Y-72687280D01*
X114689000Y-75718554D01*
X114682174Y-75725380D01*
X114557087Y-75912587D01*
X114470925Y-76120599D01*
X114427000Y-76341424D01*
X114427000Y-76566576D01*
X114470925Y-76787401D01*
X114557087Y-76995413D01*
X114682174Y-77182620D01*
X114841380Y-77341826D01*
X115028587Y-77466913D01*
X115236599Y-77553075D01*
X115457424Y-77597000D01*
X115682576Y-77597000D01*
X115903401Y-77553075D01*
X116111413Y-77466913D01*
X116298620Y-77341826D01*
X116457826Y-77182620D01*
X116582913Y-76995413D01*
X116669075Y-76787401D01*
X116713000Y-76566576D01*
X116713000Y-76341424D01*
X116669075Y-76120599D01*
X116582913Y-75912587D01*
X116457826Y-75725380D01*
X116451000Y-75718554D01*
X116451000Y-75071424D01*
X116967000Y-75071424D01*
X116967000Y-75296576D01*
X117010925Y-75517401D01*
X117097087Y-75725413D01*
X117222174Y-75912620D01*
X117381380Y-76071826D01*
X117568587Y-76196913D01*
X117776599Y-76283075D01*
X117997424Y-76327000D01*
X118222576Y-76327000D01*
X118443401Y-76283075D01*
X118651413Y-76196913D01*
X118838620Y-76071826D01*
X118997826Y-75912620D01*
X119122913Y-75725413D01*
X119209075Y-75517401D01*
X119253000Y-75296576D01*
X119253000Y-75071424D01*
X119507000Y-75071424D01*
X119507000Y-75296576D01*
X119550925Y-75517401D01*
X119637087Y-75725413D01*
X119762174Y-75912620D01*
X119921380Y-76071826D01*
X120108587Y-76196913D01*
X120316599Y-76283075D01*
X120537424Y-76327000D01*
X120762576Y-76327000D01*
X120983401Y-76283075D01*
X121191413Y-76196913D01*
X121378620Y-76071826D01*
X121537826Y-75912620D01*
X121662913Y-75725413D01*
X121749075Y-75517401D01*
X121793000Y-75296576D01*
X121793000Y-75071424D01*
X122047000Y-75071424D01*
X122047000Y-75296576D01*
X122090925Y-75517401D01*
X122177087Y-75725413D01*
X122302174Y-75912620D01*
X122461380Y-76071826D01*
X122648587Y-76196913D01*
X122856599Y-76283075D01*
X123077424Y-76327000D01*
X123302576Y-76327000D01*
X123523401Y-76283075D01*
X123731413Y-76196913D01*
X123918620Y-76071826D01*
X124077826Y-75912620D01*
X124202913Y-75725413D01*
X124289075Y-75517401D01*
X124333000Y-75296576D01*
X124333000Y-75071424D01*
X124587000Y-75071424D01*
X124587000Y-75296576D01*
X124630925Y-75517401D01*
X124717087Y-75725413D01*
X124842174Y-75912620D01*
X125001380Y-76071826D01*
X125188587Y-76196913D01*
X125396599Y-76283075D01*
X125617424Y-76327000D01*
X125638014Y-76327000D01*
X125410417Y-76357103D01*
X125236316Y-76409916D01*
X125153835Y-76620333D01*
X125730000Y-77196498D01*
X126306165Y-76620333D01*
X126223684Y-76409916D01*
X125957833Y-76338853D01*
X125775312Y-76327000D01*
X125842576Y-76327000D01*
X126063401Y-76283075D01*
X126271413Y-76196913D01*
X126458620Y-76071826D01*
X126617826Y-75912620D01*
X126742913Y-75725413D01*
X126829075Y-75517401D01*
X126873000Y-75296576D01*
X126873000Y-75071424D01*
X127127000Y-75071424D01*
X127127000Y-75296576D01*
X127170925Y-75517401D01*
X127257087Y-75725413D01*
X127382174Y-75912620D01*
X127541380Y-76071826D01*
X127728587Y-76196913D01*
X127936599Y-76283075D01*
X128157424Y-76327000D01*
X128382576Y-76327000D01*
X128603401Y-76283075D01*
X128811413Y-76196913D01*
X128998620Y-76071826D01*
X129157826Y-75912620D01*
X129282913Y-75725413D01*
X129369075Y-75517401D01*
X129413000Y-75296576D01*
X129413000Y-75071424D01*
X129667000Y-75071424D01*
X129667000Y-75296576D01*
X129710925Y-75517401D01*
X129797087Y-75725413D01*
X129922174Y-75912620D01*
X130081380Y-76071826D01*
X130268587Y-76196913D01*
X130476599Y-76283075D01*
X130697424Y-76327000D01*
X130922576Y-76327000D01*
X131143401Y-76283075D01*
X131351413Y-76196913D01*
X131538620Y-76071826D01*
X131697826Y-75912620D01*
X131822913Y-75725413D01*
X131909075Y-75517401D01*
X131953000Y-75296576D01*
X131953000Y-75071424D01*
X131909075Y-74850599D01*
X131822913Y-74642587D01*
X131697826Y-74455380D01*
X131538620Y-74296174D01*
X131351413Y-74171087D01*
X131143401Y-74084925D01*
X130922576Y-74041000D01*
X130697424Y-74041000D01*
X130476599Y-74084925D01*
X130268587Y-74171087D01*
X130081380Y-74296174D01*
X129922174Y-74455380D01*
X129797087Y-74642587D01*
X129710925Y-74850599D01*
X129667000Y-75071424D01*
X129413000Y-75071424D01*
X129369075Y-74850599D01*
X129282913Y-74642587D01*
X129157826Y-74455380D01*
X128998620Y-74296174D01*
X128811413Y-74171087D01*
X128603401Y-74084925D01*
X128382576Y-74041000D01*
X128157424Y-74041000D01*
X127936599Y-74084925D01*
X127728587Y-74171087D01*
X127541380Y-74296174D01*
X127382174Y-74455380D01*
X127257087Y-74642587D01*
X127170925Y-74850599D01*
X127127000Y-75071424D01*
X126873000Y-75071424D01*
X126829075Y-74850599D01*
X126742913Y-74642587D01*
X126617826Y-74455380D01*
X126458620Y-74296174D01*
X126271413Y-74171087D01*
X126063401Y-74084925D01*
X125842576Y-74041000D01*
X125617424Y-74041000D01*
X125396599Y-74084925D01*
X125188587Y-74171087D01*
X125001380Y-74296174D01*
X124842174Y-74455380D01*
X124717087Y-74642587D01*
X124630925Y-74850599D01*
X124587000Y-75071424D01*
X124333000Y-75071424D01*
X124289075Y-74850599D01*
X124202913Y-74642587D01*
X124077826Y-74455380D01*
X123918620Y-74296174D01*
X123731413Y-74171087D01*
X123523401Y-74084925D01*
X123302576Y-74041000D01*
X123077424Y-74041000D01*
X122856599Y-74084925D01*
X122648587Y-74171087D01*
X122461380Y-74296174D01*
X122302174Y-74455380D01*
X122177087Y-74642587D01*
X122090925Y-74850599D01*
X122047000Y-75071424D01*
X121793000Y-75071424D01*
X121749075Y-74850599D01*
X121662913Y-74642587D01*
X121537826Y-74455380D01*
X121378620Y-74296174D01*
X121191413Y-74171087D01*
X120983401Y-74084925D01*
X120762576Y-74041000D01*
X120537424Y-74041000D01*
X120316599Y-74084925D01*
X120108587Y-74171087D01*
X119921380Y-74296174D01*
X119762174Y-74455380D01*
X119637087Y-74642587D01*
X119550925Y-74850599D01*
X119507000Y-75071424D01*
X119253000Y-75071424D01*
X119209075Y-74850599D01*
X119122913Y-74642587D01*
X118997826Y-74455380D01*
X118838620Y-74296174D01*
X118651413Y-74171087D01*
X118443401Y-74084925D01*
X118222576Y-74041000D01*
X117997424Y-74041000D01*
X117776599Y-74084925D01*
X117568587Y-74171087D01*
X117381380Y-74296174D01*
X117222174Y-74455380D01*
X117097087Y-74642587D01*
X117010925Y-74850599D01*
X116967000Y-75071424D01*
X116451000Y-75071424D01*
X116451000Y-73008921D01*
X117204922Y-72255000D01*
X126976730Y-72255000D01*
X127020000Y-72259262D01*
X127063270Y-72255000D01*
X127063273Y-72255000D01*
X127192706Y-72242252D01*
X127358775Y-72191875D01*
X127511825Y-72110068D01*
X127645975Y-71999975D01*
X127673566Y-71966355D01*
X132750923Y-66888999D01*
X132760577Y-66888999D01*
X132958316Y-66849666D01*
X134611836Y-66849666D01*
X134694317Y-67060083D01*
X134960168Y-67131146D01*
X135234774Y-67148979D01*
X135507584Y-67112896D01*
X135681685Y-67060083D01*
X135764166Y-66849666D01*
X135188001Y-66273501D01*
X134611836Y-66849666D01*
X132958316Y-66849666D01*
X132981402Y-66845074D01*
X133189414Y-66758912D01*
X133376621Y-66633825D01*
X133535827Y-66474619D01*
X133660914Y-66287412D01*
X133747076Y-66079400D01*
X133791001Y-65858575D01*
X133791001Y-65837985D01*
X133821104Y-66065582D01*
X133873917Y-66239683D01*
X134084334Y-66322164D01*
X134660499Y-65745999D01*
X134646357Y-65731857D01*
X135173859Y-65204355D01*
X135188001Y-65218497D01*
X135202143Y-65204355D01*
X135729645Y-65731857D01*
X135715503Y-65745999D01*
X136291668Y-66322164D01*
X136502085Y-66239683D01*
X136573148Y-65973832D01*
X136590981Y-65699226D01*
X136554898Y-65426416D01*
X136502085Y-65252315D01*
X136291670Y-65169835D01*
X136310505Y-65151000D01*
X138938000Y-65151000D01*
X138938000Y-72157247D01*
X138763401Y-72084925D01*
X138542576Y-72041000D01*
X138317424Y-72041000D01*
X138096599Y-72084925D01*
X137888587Y-72171087D01*
X137701380Y-72296174D01*
X137542174Y-72455380D01*
X137417087Y-72642587D01*
X137330925Y-72850599D01*
X137287000Y-73071424D01*
X137287000Y-73296576D01*
X137330925Y-73517401D01*
X137417087Y-73725413D01*
X137542174Y-73912620D01*
X137701380Y-74071826D01*
X137869261Y-74184000D01*
X137701380Y-74296174D01*
X137542174Y-74455380D01*
X137417087Y-74642587D01*
X137330925Y-74850599D01*
X137287000Y-75071424D01*
X137287000Y-75296576D01*
X137330925Y-75517401D01*
X137345594Y-75552814D01*
X129767786Y-83130623D01*
X129748474Y-83146472D01*
X129685242Y-83223520D01*
X129638256Y-83311425D01*
X129609323Y-83406807D01*
X129602001Y-83481146D01*
X129602001Y-83481153D01*
X129599554Y-83505999D01*
X129602001Y-83530845D01*
X129602002Y-85038417D01*
X129566588Y-85053086D01*
X129379381Y-85178173D01*
X129220175Y-85337379D01*
X129095088Y-85524586D01*
X129008926Y-85732598D01*
X128965001Y-85953423D01*
X128965001Y-85974013D01*
X128934898Y-85746416D01*
X128882085Y-85572315D01*
X128671668Y-85489834D01*
X128095503Y-86065999D01*
X128109645Y-86080141D01*
X127702786Y-86487000D01*
X127433216Y-86487000D01*
X127026357Y-86080141D01*
X127040499Y-86065999D01*
X126464334Y-85489834D01*
X126253917Y-85572315D01*
X126182854Y-85838166D01*
X126165021Y-86112772D01*
X126201104Y-86385582D01*
X126231869Y-86487000D01*
X121010791Y-86487000D01*
X121047076Y-86399400D01*
X121091001Y-86178575D01*
X121091001Y-85953423D01*
X121047076Y-85732598D01*
X120960914Y-85524586D01*
X120835827Y-85337379D01*
X120676621Y-85178173D01*
X120489414Y-85053086D01*
X120281402Y-84966924D01*
X120258317Y-84962332D01*
X126991836Y-84962332D01*
X127568001Y-85538497D01*
X128144166Y-84962332D01*
X128061685Y-84751915D01*
X127795834Y-84680852D01*
X127521228Y-84663019D01*
X127248418Y-84699102D01*
X127074317Y-84751915D01*
X126991836Y-84962332D01*
X120258317Y-84962332D01*
X120060577Y-84922999D01*
X119835425Y-84922999D01*
X119614600Y-84966924D01*
X119406588Y-85053086D01*
X119219381Y-85178173D01*
X119060175Y-85337379D01*
X118935088Y-85524586D01*
X118848926Y-85732598D01*
X118805001Y-85953423D01*
X118805001Y-86178575D01*
X118848926Y-86399400D01*
X118885211Y-86487000D01*
X118470791Y-86487000D01*
X118507076Y-86399400D01*
X118551001Y-86178575D01*
X118551001Y-85953423D01*
X118507076Y-85732598D01*
X118420914Y-85524586D01*
X118295827Y-85337379D01*
X118136621Y-85178173D01*
X117949414Y-85053086D01*
X117741402Y-84966924D01*
X117520577Y-84922999D01*
X117295425Y-84922999D01*
X117074600Y-84966924D01*
X116866588Y-85053086D01*
X116679381Y-85178173D01*
X116520175Y-85337379D01*
X116395088Y-85524586D01*
X116308926Y-85732598D01*
X116265001Y-85953423D01*
X116265001Y-86178575D01*
X116308926Y-86399400D01*
X116345211Y-86487000D01*
X115930791Y-86487000D01*
X115967076Y-86399400D01*
X116011001Y-86178575D01*
X116011001Y-85953423D01*
X115967076Y-85732598D01*
X115880914Y-85524586D01*
X115755827Y-85337379D01*
X115596621Y-85178173D01*
X115409414Y-85053086D01*
X115201402Y-84966924D01*
X114980577Y-84922999D01*
X114755425Y-84922999D01*
X114534600Y-84966924D01*
X114326588Y-85053086D01*
X114139381Y-85178173D01*
X113980175Y-85337379D01*
X113855088Y-85524586D01*
X113768926Y-85732598D01*
X113725001Y-85953423D01*
X113725001Y-85974013D01*
X113694898Y-85746416D01*
X113642085Y-85572315D01*
X113431668Y-85489834D01*
X112855503Y-86065999D01*
X112869645Y-86080141D01*
X112462786Y-86487000D01*
X112193216Y-86487000D01*
X111786357Y-86080141D01*
X111800499Y-86065999D01*
X111224334Y-85489834D01*
X111013917Y-85572315D01*
X110942854Y-85838166D01*
X110931001Y-86020687D01*
X110931001Y-85953423D01*
X110887076Y-85732598D01*
X110800914Y-85524586D01*
X110675827Y-85337379D01*
X110516621Y-85178173D01*
X110329414Y-85053086D01*
X110121402Y-84966924D01*
X110098317Y-84962332D01*
X111751836Y-84962332D01*
X112328001Y-85538497D01*
X112904166Y-84962332D01*
X112821685Y-84751915D01*
X112555834Y-84680852D01*
X112281228Y-84663019D01*
X112008418Y-84699102D01*
X111834317Y-84751915D01*
X111751836Y-84962332D01*
X110098317Y-84962332D01*
X109900577Y-84922999D01*
X109675425Y-84922999D01*
X109454600Y-84966924D01*
X109246588Y-85053086D01*
X109059381Y-85178173D01*
X108900175Y-85337379D01*
X108775088Y-85524586D01*
X108688926Y-85732598D01*
X108645001Y-85953423D01*
X108645001Y-86178575D01*
X108688926Y-86399400D01*
X108725211Y-86487000D01*
X108310791Y-86487000D01*
X108347076Y-86399400D01*
X108391001Y-86178575D01*
X108391001Y-85953423D01*
X108347076Y-85732598D01*
X108260914Y-85524586D01*
X108135827Y-85337379D01*
X107976621Y-85178173D01*
X107789414Y-85053086D01*
X107581402Y-84966924D01*
X107360577Y-84922999D01*
X107135425Y-84922999D01*
X106914600Y-84966924D01*
X106706588Y-85053086D01*
X106519381Y-85178173D01*
X106360175Y-85337379D01*
X106235088Y-85524586D01*
X106148926Y-85732598D01*
X106105001Y-85953423D01*
X106105001Y-86178575D01*
X106148926Y-86399400D01*
X106185211Y-86487000D01*
X105770791Y-86487000D01*
X105807076Y-86399400D01*
X105851001Y-86178575D01*
X105851001Y-85953423D01*
X105807076Y-85732598D01*
X105792407Y-85697184D01*
X112675328Y-78814264D01*
X112696599Y-78823075D01*
X112917424Y-78867000D01*
X113142576Y-78867000D01*
X113363401Y-78823075D01*
X113571413Y-78736913D01*
X113758620Y-78611826D01*
X113917826Y-78452620D01*
X114042913Y-78265413D01*
X114129075Y-78057401D01*
X114173000Y-77836576D01*
X114173000Y-77611424D01*
X116967000Y-77611424D01*
X116967000Y-77836576D01*
X117010925Y-78057401D01*
X117097087Y-78265413D01*
X117222174Y-78452620D01*
X117381380Y-78611826D01*
X117568587Y-78736913D01*
X117776599Y-78823075D01*
X117997424Y-78867000D01*
X118222576Y-78867000D01*
X118443401Y-78823075D01*
X118651413Y-78736913D01*
X118838620Y-78611826D01*
X118997826Y-78452620D01*
X119122913Y-78265413D01*
X119209075Y-78057401D01*
X119253000Y-77836576D01*
X119253000Y-77611424D01*
X119507000Y-77611424D01*
X119507000Y-77836576D01*
X119550925Y-78057401D01*
X119637087Y-78265413D01*
X119762174Y-78452620D01*
X119921380Y-78611826D01*
X120108587Y-78736913D01*
X120316599Y-78823075D01*
X120537424Y-78867000D01*
X120762576Y-78867000D01*
X120983401Y-78823075D01*
X121191413Y-78736913D01*
X121378620Y-78611826D01*
X121537826Y-78452620D01*
X121662913Y-78265413D01*
X121749075Y-78057401D01*
X121793000Y-77836576D01*
X121793000Y-77611424D01*
X122047000Y-77611424D01*
X122047000Y-77836576D01*
X122090925Y-78057401D01*
X122177087Y-78265413D01*
X122302174Y-78452620D01*
X122461380Y-78611826D01*
X122648587Y-78736913D01*
X122856599Y-78823075D01*
X123077424Y-78867000D01*
X123302576Y-78867000D01*
X123500315Y-78827667D01*
X125153835Y-78827667D01*
X125236316Y-79038084D01*
X125502167Y-79109147D01*
X125776773Y-79126980D01*
X126049583Y-79090897D01*
X126223684Y-79038084D01*
X126306165Y-78827667D01*
X125730000Y-78251502D01*
X125153835Y-78827667D01*
X123500315Y-78827667D01*
X123523401Y-78823075D01*
X123731413Y-78736913D01*
X123918620Y-78611826D01*
X124077826Y-78452620D01*
X124202913Y-78265413D01*
X124289075Y-78057401D01*
X124333000Y-77836576D01*
X124333000Y-77815986D01*
X124363103Y-78043583D01*
X124415916Y-78217684D01*
X124626333Y-78300165D01*
X125202498Y-77724000D01*
X126257502Y-77724000D01*
X126833667Y-78300165D01*
X127044084Y-78217684D01*
X127115147Y-77951833D01*
X127127000Y-77769312D01*
X127127000Y-77836576D01*
X127170925Y-78057401D01*
X127257087Y-78265413D01*
X127382174Y-78452620D01*
X127541380Y-78611826D01*
X127728587Y-78736913D01*
X127936599Y-78823075D01*
X128157424Y-78867000D01*
X128382576Y-78867000D01*
X128603401Y-78823075D01*
X128811413Y-78736913D01*
X128998620Y-78611826D01*
X129157826Y-78452620D01*
X129282913Y-78265413D01*
X129369075Y-78057401D01*
X129413000Y-77836576D01*
X129413000Y-77611424D01*
X129667000Y-77611424D01*
X129667000Y-77836576D01*
X129710925Y-78057401D01*
X129797087Y-78265413D01*
X129922174Y-78452620D01*
X130081380Y-78611826D01*
X130268587Y-78736913D01*
X130476599Y-78823075D01*
X130697424Y-78867000D01*
X130922576Y-78867000D01*
X131143401Y-78823075D01*
X131351413Y-78736913D01*
X131538620Y-78611826D01*
X131697826Y-78452620D01*
X131822913Y-78265413D01*
X131909075Y-78057401D01*
X131953000Y-77836576D01*
X131953000Y-77611424D01*
X131909075Y-77390599D01*
X131822913Y-77182587D01*
X131697826Y-76995380D01*
X131538620Y-76836174D01*
X131351413Y-76711087D01*
X131143401Y-76624925D01*
X130922576Y-76581000D01*
X130697424Y-76581000D01*
X130476599Y-76624925D01*
X130268587Y-76711087D01*
X130081380Y-76836174D01*
X129922174Y-76995380D01*
X129797087Y-77182587D01*
X129710925Y-77390599D01*
X129667000Y-77611424D01*
X129413000Y-77611424D01*
X129369075Y-77390599D01*
X129282913Y-77182587D01*
X129157826Y-76995380D01*
X128998620Y-76836174D01*
X128811413Y-76711087D01*
X128603401Y-76624925D01*
X128382576Y-76581000D01*
X128157424Y-76581000D01*
X127936599Y-76624925D01*
X127728587Y-76711087D01*
X127541380Y-76836174D01*
X127382174Y-76995380D01*
X127257087Y-77182587D01*
X127170925Y-77390599D01*
X127127000Y-77611424D01*
X127127000Y-77632014D01*
X127096897Y-77404417D01*
X127044084Y-77230316D01*
X126833667Y-77147835D01*
X126257502Y-77724000D01*
X125202498Y-77724000D01*
X124626333Y-77147835D01*
X124415916Y-77230316D01*
X124344853Y-77496167D01*
X124333000Y-77678688D01*
X124333000Y-77611424D01*
X124289075Y-77390599D01*
X124202913Y-77182587D01*
X124077826Y-76995380D01*
X123918620Y-76836174D01*
X123731413Y-76711087D01*
X123523401Y-76624925D01*
X123302576Y-76581000D01*
X123077424Y-76581000D01*
X122856599Y-76624925D01*
X122648587Y-76711087D01*
X122461380Y-76836174D01*
X122302174Y-76995380D01*
X122177087Y-77182587D01*
X122090925Y-77390599D01*
X122047000Y-77611424D01*
X121793000Y-77611424D01*
X121749075Y-77390599D01*
X121662913Y-77182587D01*
X121537826Y-76995380D01*
X121378620Y-76836174D01*
X121191413Y-76711087D01*
X120983401Y-76624925D01*
X120762576Y-76581000D01*
X120537424Y-76581000D01*
X120316599Y-76624925D01*
X120108587Y-76711087D01*
X119921380Y-76836174D01*
X119762174Y-76995380D01*
X119637087Y-77182587D01*
X119550925Y-77390599D01*
X119507000Y-77611424D01*
X119253000Y-77611424D01*
X119209075Y-77390599D01*
X119122913Y-77182587D01*
X118997826Y-76995380D01*
X118838620Y-76836174D01*
X118651413Y-76711087D01*
X118443401Y-76624925D01*
X118222576Y-76581000D01*
X117997424Y-76581000D01*
X117776599Y-76624925D01*
X117568587Y-76711087D01*
X117381380Y-76836174D01*
X117222174Y-76995380D01*
X117097087Y-77182587D01*
X117010925Y-77390599D01*
X116967000Y-77611424D01*
X114173000Y-77611424D01*
X114129075Y-77390599D01*
X114042913Y-77182587D01*
X113917826Y-76995380D01*
X113758620Y-76836174D01*
X113571413Y-76711087D01*
X113363401Y-76624925D01*
X113142576Y-76581000D01*
X112917424Y-76581000D01*
X112696599Y-76624925D01*
X112488587Y-76711087D01*
X112301380Y-76836174D01*
X112142174Y-76995380D01*
X112017087Y-77182587D01*
X111930925Y-77390599D01*
X111887000Y-77611424D01*
X111887000Y-77836576D01*
X111930925Y-78057401D01*
X111951452Y-78106956D01*
X105076816Y-84981593D01*
X105041402Y-84966924D01*
X104820577Y-84922999D01*
X104595425Y-84922999D01*
X104374600Y-84966924D01*
X104166588Y-85053086D01*
X103979381Y-85178173D01*
X103820175Y-85337379D01*
X103695088Y-85524586D01*
X103608926Y-85732598D01*
X103565001Y-85953423D01*
X103565001Y-86178575D01*
X103608926Y-86399400D01*
X103645211Y-86487000D01*
X103230791Y-86487000D01*
X103267076Y-86399400D01*
X103311001Y-86178575D01*
X103311001Y-85953423D01*
X103267076Y-85732598D01*
X103180914Y-85524586D01*
X103055827Y-85337379D01*
X102896621Y-85178173D01*
X102709414Y-85053086D01*
X102674001Y-85038417D01*
X102674001Y-82791843D01*
X103245000Y-82791843D01*
X103368462Y-82779683D01*
X103487179Y-82743671D01*
X103596589Y-82685190D01*
X103692488Y-82606488D01*
X103771190Y-82510589D01*
X103829671Y-82401179D01*
X103865683Y-82282462D01*
X103877843Y-82159000D01*
X103877843Y-80909000D01*
X103865683Y-80785538D01*
X103829671Y-80666821D01*
X103771190Y-80557411D01*
X103692488Y-80461512D01*
X103596589Y-80382810D01*
X103487179Y-80324329D01*
X103368462Y-80288317D01*
X103245000Y-80276157D01*
X102495000Y-80276157D01*
X102371538Y-80288317D01*
X102252821Y-80324329D01*
X102143411Y-80382810D01*
X102047512Y-80461512D01*
X101968810Y-80557411D01*
X101910329Y-80666821D01*
X101874317Y-80785538D01*
X101862157Y-80909000D01*
X101862157Y-81826252D01*
X101827781Y-81860628D01*
X101808475Y-81876472D01*
X101745243Y-81953520D01*
X101733228Y-81975999D01*
X101698256Y-82041425D01*
X101669323Y-82136807D01*
X101659554Y-82235999D01*
X101662002Y-82260855D01*
X101662001Y-85038417D01*
X101626588Y-85053086D01*
X101439381Y-85178173D01*
X101280175Y-85337379D01*
X101155088Y-85524586D01*
X101068926Y-85732598D01*
X101025001Y-85953423D01*
X101025001Y-86178575D01*
X101068926Y-86399400D01*
X101105211Y-86487000D01*
X100690791Y-86487000D01*
X100727076Y-86399400D01*
X100771001Y-86178575D01*
X100771001Y-85953423D01*
X100727076Y-85732598D01*
X100640914Y-85524586D01*
X100515827Y-85337379D01*
X100356621Y-85178173D01*
X100169414Y-85053086D01*
X100134001Y-85038417D01*
X100134001Y-82791843D01*
X100445000Y-82791843D01*
X100568462Y-82779683D01*
X100687179Y-82743671D01*
X100796589Y-82685190D01*
X100892488Y-82606488D01*
X100971190Y-82510589D01*
X101029671Y-82401179D01*
X101065683Y-82282462D01*
X101077843Y-82159000D01*
X101077843Y-80909000D01*
X101065683Y-80785538D01*
X101029671Y-80666821D01*
X100971190Y-80557411D01*
X100892488Y-80461512D01*
X100796589Y-80382810D01*
X100687179Y-80324329D01*
X100568462Y-80288317D01*
X100445000Y-80276157D01*
X99695000Y-80276157D01*
X99571538Y-80288317D01*
X99452821Y-80324329D01*
X99343411Y-80382810D01*
X99247512Y-80461512D01*
X99187000Y-80535246D01*
X99187000Y-77836576D01*
X99230925Y-78057401D01*
X99317087Y-78265413D01*
X99442174Y-78452620D01*
X99601380Y-78611826D01*
X99788587Y-78736913D01*
X99996599Y-78823075D01*
X100217424Y-78867000D01*
X100442576Y-78867000D01*
X100663401Y-78823075D01*
X100871413Y-78736913D01*
X101058620Y-78611826D01*
X101217826Y-78452620D01*
X101342913Y-78265413D01*
X101429075Y-78057401D01*
X101473000Y-77836576D01*
X101473000Y-77611424D01*
X101429075Y-77390599D01*
X101342913Y-77182587D01*
X101217826Y-76995380D01*
X101058620Y-76836174D01*
X100871413Y-76711087D01*
X100663401Y-76624925D01*
X100442576Y-76581000D01*
X100217424Y-76581000D01*
X99996599Y-76624925D01*
X99788587Y-76711087D01*
X99601380Y-76836174D01*
X99442174Y-76995380D01*
X99317087Y-77182587D01*
X99230925Y-77390599D01*
X99187000Y-77611424D01*
X99187000Y-75296576D01*
X99230925Y-75517401D01*
X99317087Y-75725413D01*
X99442174Y-75912620D01*
X99601380Y-76071826D01*
X99788587Y-76196913D01*
X99996599Y-76283075D01*
X100217424Y-76327000D01*
X100442576Y-76327000D01*
X100663401Y-76283075D01*
X100871413Y-76196913D01*
X101058620Y-76071826D01*
X101217826Y-75912620D01*
X101342913Y-75725413D01*
X101429075Y-75517401D01*
X101473000Y-75296576D01*
X101473000Y-75071424D01*
X101429075Y-74850599D01*
X101342913Y-74642587D01*
X101217826Y-74455380D01*
X101058620Y-74296174D01*
X100871413Y-74171087D01*
X100663401Y-74084925D01*
X100442576Y-74041000D01*
X100217424Y-74041000D01*
X99996599Y-74084925D01*
X99788587Y-74171087D01*
X99601380Y-74296174D01*
X99442174Y-74455380D01*
X99317087Y-74642587D01*
X99230925Y-74850599D01*
X99187000Y-75071424D01*
X99187000Y-66800504D01*
X99294600Y-66845074D01*
X99515425Y-66888999D01*
X99740577Y-66888999D01*
X99961402Y-66845074D01*
X99996816Y-66830405D01*
X102999000Y-69832590D01*
X102999001Y-74044267D01*
X102982576Y-74041000D01*
X102757424Y-74041000D01*
X102536599Y-74084925D01*
X102328587Y-74171087D01*
X102141380Y-74296174D01*
X101982174Y-74455380D01*
X101857087Y-74642587D01*
X101770925Y-74850599D01*
X101727000Y-75071424D01*
X101727000Y-75296576D01*
X101770925Y-75517401D01*
X101857087Y-75725413D01*
X101982174Y-75912620D01*
X102141380Y-76071826D01*
X102328587Y-76196913D01*
X102536599Y-76283075D01*
X102757424Y-76327000D01*
X102982576Y-76327000D01*
X103203401Y-76283075D01*
X103411413Y-76196913D01*
X103451002Y-76170461D01*
X103451002Y-76427407D01*
X103291783Y-76586626D01*
X103291777Y-76586631D01*
X103238814Y-76639594D01*
X103203401Y-76624925D01*
X102982576Y-76581000D01*
X102757424Y-76581000D01*
X102536599Y-76624925D01*
X102328587Y-76711087D01*
X102141380Y-76836174D01*
X101982174Y-76995380D01*
X101857087Y-77182587D01*
X101770925Y-77390599D01*
X101727000Y-77611424D01*
X101727000Y-77836576D01*
X101770925Y-78057401D01*
X101857087Y-78265413D01*
X101982174Y-78452620D01*
X102141380Y-78611826D01*
X102328587Y-78736913D01*
X102536599Y-78823075D01*
X102757424Y-78867000D01*
X102982576Y-78867000D01*
X103180315Y-78827667D01*
X104833835Y-78827667D01*
X104916316Y-79038084D01*
X105182167Y-79109147D01*
X105456773Y-79126980D01*
X105729583Y-79090897D01*
X105903684Y-79038084D01*
X105986165Y-78827667D01*
X105410000Y-78251502D01*
X104833835Y-78827667D01*
X103180315Y-78827667D01*
X103203401Y-78823075D01*
X103411413Y-78736913D01*
X103598620Y-78611826D01*
X103757826Y-78452620D01*
X103882913Y-78265413D01*
X103969075Y-78057401D01*
X104013000Y-77836576D01*
X104013000Y-77815986D01*
X104043103Y-78043583D01*
X104095916Y-78217684D01*
X104306333Y-78300165D01*
X104882498Y-77724000D01*
X105937502Y-77724000D01*
X106513667Y-78300165D01*
X106724084Y-78217684D01*
X106795147Y-77951833D01*
X106807000Y-77769312D01*
X106807000Y-77836576D01*
X106850925Y-78057401D01*
X106937087Y-78265413D01*
X107062174Y-78452620D01*
X107221380Y-78611826D01*
X107408587Y-78736913D01*
X107616599Y-78823075D01*
X107837424Y-78867000D01*
X108062576Y-78867000D01*
X108283401Y-78823075D01*
X108491413Y-78736913D01*
X108678620Y-78611826D01*
X108837826Y-78452620D01*
X108962913Y-78265413D01*
X109049075Y-78057401D01*
X109093000Y-77836576D01*
X109093000Y-77611424D01*
X109347000Y-77611424D01*
X109347000Y-77836576D01*
X109390925Y-78057401D01*
X109477087Y-78265413D01*
X109602174Y-78452620D01*
X109761380Y-78611826D01*
X109948587Y-78736913D01*
X110156599Y-78823075D01*
X110377424Y-78867000D01*
X110602576Y-78867000D01*
X110823401Y-78823075D01*
X111031413Y-78736913D01*
X111218620Y-78611826D01*
X111377826Y-78452620D01*
X111502913Y-78265413D01*
X111589075Y-78057401D01*
X111633000Y-77836576D01*
X111633000Y-77611424D01*
X111589075Y-77390599D01*
X111502913Y-77182587D01*
X111377826Y-76995380D01*
X111218620Y-76836174D01*
X111031413Y-76711087D01*
X110823401Y-76624925D01*
X110602576Y-76581000D01*
X110377424Y-76581000D01*
X110156599Y-76624925D01*
X109948587Y-76711087D01*
X109761380Y-76836174D01*
X109602174Y-76995380D01*
X109477087Y-77182587D01*
X109390925Y-77390599D01*
X109347000Y-77611424D01*
X109093000Y-77611424D01*
X109049075Y-77390599D01*
X108962913Y-77182587D01*
X108837826Y-76995380D01*
X108678620Y-76836174D01*
X108491413Y-76711087D01*
X108283401Y-76624925D01*
X108062576Y-76581000D01*
X107837424Y-76581000D01*
X107616599Y-76624925D01*
X107408587Y-76711087D01*
X107221380Y-76836174D01*
X107062174Y-76995380D01*
X106937087Y-77182587D01*
X106850925Y-77390599D01*
X106807000Y-77611424D01*
X106807000Y-77632014D01*
X106776897Y-77404417D01*
X106724084Y-77230316D01*
X106513667Y-77147835D01*
X105937502Y-77724000D01*
X104882498Y-77724000D01*
X104868356Y-77709858D01*
X105395858Y-77182356D01*
X105410000Y-77196498D01*
X105986165Y-76620333D01*
X105903684Y-76409916D01*
X105637833Y-76338853D01*
X105455312Y-76327000D01*
X105522576Y-76327000D01*
X105743401Y-76283075D01*
X105951413Y-76196913D01*
X106138620Y-76071826D01*
X106297826Y-75912620D01*
X106422913Y-75725413D01*
X106509075Y-75517401D01*
X106553000Y-75296576D01*
X106553000Y-75071424D01*
X106807000Y-75071424D01*
X106807000Y-75296576D01*
X106850925Y-75517401D01*
X106937087Y-75725413D01*
X107062174Y-75912620D01*
X107221380Y-76071826D01*
X107408587Y-76196913D01*
X107616599Y-76283075D01*
X107837424Y-76327000D01*
X108062576Y-76327000D01*
X108283401Y-76283075D01*
X108491413Y-76196913D01*
X108678620Y-76071826D01*
X108837826Y-75912620D01*
X108962913Y-75725413D01*
X109049075Y-75517401D01*
X109093000Y-75296576D01*
X109093000Y-75071424D01*
X109347000Y-75071424D01*
X109347000Y-75296576D01*
X109390925Y-75517401D01*
X109477087Y-75725413D01*
X109602174Y-75912620D01*
X109761380Y-76071826D01*
X109948587Y-76196913D01*
X110156599Y-76283075D01*
X110377424Y-76327000D01*
X110602576Y-76327000D01*
X110823401Y-76283075D01*
X111031413Y-76196913D01*
X111218620Y-76071826D01*
X111377826Y-75912620D01*
X111502913Y-75725413D01*
X111589075Y-75517401D01*
X111633000Y-75296576D01*
X111633000Y-75071424D01*
X111887000Y-75071424D01*
X111887000Y-75296576D01*
X111930925Y-75517401D01*
X112017087Y-75725413D01*
X112142174Y-75912620D01*
X112301380Y-76071826D01*
X112488587Y-76196913D01*
X112696599Y-76283075D01*
X112917424Y-76327000D01*
X113142576Y-76327000D01*
X113363401Y-76283075D01*
X113571413Y-76196913D01*
X113758620Y-76071826D01*
X113917826Y-75912620D01*
X114042913Y-75725413D01*
X114129075Y-75517401D01*
X114173000Y-75296576D01*
X114173000Y-75071424D01*
X114129075Y-74850599D01*
X114042913Y-74642587D01*
X113917826Y-74455380D01*
X113758620Y-74296174D01*
X113571413Y-74171087D01*
X113363401Y-74084925D01*
X113142576Y-74041000D01*
X112917424Y-74041000D01*
X112696599Y-74084925D01*
X112488587Y-74171087D01*
X112301380Y-74296174D01*
X112142174Y-74455380D01*
X112017087Y-74642587D01*
X111930925Y-74850599D01*
X111887000Y-75071424D01*
X111633000Y-75071424D01*
X111589075Y-74850599D01*
X111502913Y-74642587D01*
X111377826Y-74455380D01*
X111218620Y-74296174D01*
X111031413Y-74171087D01*
X110823401Y-74084925D01*
X110602576Y-74041000D01*
X110377424Y-74041000D01*
X110156599Y-74084925D01*
X109948587Y-74171087D01*
X109761380Y-74296174D01*
X109602174Y-74455380D01*
X109477087Y-74642587D01*
X109390925Y-74850599D01*
X109347000Y-75071424D01*
X109093000Y-75071424D01*
X109049075Y-74850599D01*
X108962913Y-74642587D01*
X108837826Y-74455380D01*
X108678620Y-74296174D01*
X108491413Y-74171087D01*
X108283401Y-74084925D01*
X108062576Y-74041000D01*
X107837424Y-74041000D01*
X107616599Y-74084925D01*
X107408587Y-74171087D01*
X107221380Y-74296174D01*
X107062174Y-74455380D01*
X106937087Y-74642587D01*
X106850925Y-74850599D01*
X106807000Y-75071424D01*
X106553000Y-75071424D01*
X106509075Y-74850599D01*
X106422913Y-74642587D01*
X106297826Y-74455380D01*
X106138620Y-74296174D01*
X105951413Y-74171087D01*
X105743401Y-74084925D01*
X105522576Y-74041000D01*
X105297424Y-74041000D01*
X105076599Y-74084925D01*
X104868587Y-74171087D01*
X104681380Y-74296174D01*
X104522174Y-74455380D01*
X104463001Y-74543939D01*
X104463001Y-69310846D01*
X104465448Y-69286000D01*
X104463001Y-69261154D01*
X104463001Y-69261147D01*
X104455679Y-69186808D01*
X104426746Y-69091426D01*
X104379760Y-69003522D01*
X104316528Y-68926474D01*
X104297221Y-68910629D01*
X102674001Y-67287410D01*
X102674001Y-66773581D01*
X102709414Y-66758912D01*
X102896621Y-66633825D01*
X103055827Y-66474619D01*
X103180914Y-66287412D01*
X103267076Y-66079400D01*
X103311001Y-65858575D01*
X103311001Y-65633423D01*
X103267076Y-65412598D01*
X103180914Y-65204586D01*
X103145109Y-65151000D01*
X103730893Y-65151000D01*
X103695088Y-65204586D01*
X103695088Y-65204586D01*
G37*
X103695088Y-65204586D02*
X103608926Y-65412598D01*
X103565001Y-65633423D01*
X103565001Y-65858575D01*
X103608926Y-66079400D01*
X103695088Y-66287412D01*
X103820175Y-66474619D01*
X103979381Y-66633825D01*
X104166588Y-66758912D01*
X104374600Y-66845074D01*
X104595425Y-66888999D01*
X104820577Y-66888999D01*
X105041402Y-66845074D01*
X105076816Y-66830405D01*
X107420630Y-69174220D01*
X107436475Y-69193527D01*
X107513523Y-69256759D01*
X107568229Y-69286000D01*
X107601427Y-69303745D01*
X107696809Y-69332678D01*
X107796002Y-69342448D01*
X107820856Y-69340000D01*
X107986499Y-69340000D01*
X108087141Y-69440642D01*
X108215058Y-69526113D01*
X108357191Y-69584987D01*
X108508078Y-69615000D01*
X108661922Y-69615000D01*
X108812809Y-69584987D01*
X108954942Y-69526113D01*
X109082859Y-69440642D01*
X109191642Y-69331859D01*
X109277113Y-69203942D01*
X109335987Y-69061809D01*
X109366000Y-68910922D01*
X109366000Y-68757078D01*
X109335987Y-68606191D01*
X109277113Y-68464058D01*
X109191642Y-68336141D01*
X109082859Y-68227358D01*
X108954942Y-68141887D01*
X108812809Y-68083013D01*
X108661922Y-68053000D01*
X108508078Y-68053000D01*
X108357191Y-68083013D01*
X108215058Y-68141887D01*
X108087141Y-68227358D01*
X107996046Y-68318453D01*
X105792407Y-66114814D01*
X105807076Y-66079400D01*
X105851001Y-65858575D01*
X105851001Y-65633423D01*
X105807076Y-65412598D01*
X105720914Y-65204586D01*
X105685109Y-65151000D01*
X106270893Y-65151000D01*
X106235088Y-65204586D01*
X106148926Y-65412598D01*
X106105001Y-65633423D01*
X106105001Y-65858575D01*
X106148926Y-66079400D01*
X106235088Y-66287412D01*
X106360175Y-66474619D01*
X106519381Y-66633825D01*
X106706588Y-66758912D01*
X106914600Y-66845074D01*
X107135425Y-66888999D01*
X107360577Y-66888999D01*
X107581402Y-66845074D01*
X107789414Y-66758912D01*
X107976621Y-66633825D01*
X108135827Y-66474619D01*
X108260914Y-66287412D01*
X108347076Y-66079400D01*
X108391001Y-65858575D01*
X108391001Y-65633423D01*
X108347076Y-65412598D01*
X108260914Y-65204586D01*
X108225109Y-65151000D01*
X108810893Y-65151000D01*
X108775088Y-65204586D01*
X108688926Y-65412598D01*
X108645001Y-65633423D01*
X108645001Y-65858575D01*
X108688926Y-66079400D01*
X108775088Y-66287412D01*
X108900175Y-66474619D01*
X109059381Y-66633825D01*
X109246588Y-66758912D01*
X109454600Y-66845074D01*
X109675425Y-66888999D01*
X109900577Y-66888999D01*
X110121402Y-66845074D01*
X110329414Y-66758912D01*
X110516621Y-66633825D01*
X110675827Y-66474619D01*
X110800914Y-66287412D01*
X110887076Y-66079400D01*
X110931001Y-65858575D01*
X110931001Y-65633423D01*
X110887076Y-65412598D01*
X110800914Y-65204586D01*
X110765109Y-65151000D01*
X111350893Y-65151000D01*
X111315088Y-65204586D01*
X111228926Y-65412598D01*
X111185001Y-65633423D01*
X111185001Y-65858575D01*
X111228926Y-66079400D01*
X111315088Y-66287412D01*
X111440175Y-66474619D01*
X111599381Y-66633825D01*
X111786588Y-66758912D01*
X111994600Y-66845074D01*
X112215425Y-66888999D01*
X112440577Y-66888999D01*
X112661402Y-66845074D01*
X112869414Y-66758912D01*
X113056621Y-66633825D01*
X113215827Y-66474619D01*
X113340914Y-66287412D01*
X113427076Y-66079400D01*
X113471001Y-65858575D01*
X113471001Y-65633423D01*
X113427076Y-65412598D01*
X113340914Y-65204586D01*
X113305109Y-65151000D01*
X126590893Y-65151000D01*
X126555088Y-65204586D01*
X126468926Y-65412598D01*
X126425001Y-65633423D01*
X126425001Y-65858575D01*
X126468926Y-66079400D01*
X126555088Y-66287412D01*
X126680175Y-66474619D01*
X126839381Y-66633825D01*
X127026588Y-66758912D01*
X127234600Y-66845074D01*
X127455425Y-66888999D01*
X127680577Y-66888999D01*
X127901402Y-66845074D01*
X128109414Y-66758912D01*
X128296621Y-66633825D01*
X128455827Y-66474619D01*
X128580914Y-66287412D01*
X128667076Y-66079400D01*
X128711001Y-65858575D01*
X128711001Y-65633423D01*
X128667076Y-65412598D01*
X128580914Y-65204586D01*
X128545109Y-65151000D01*
X129130893Y-65151000D01*
X129095088Y-65204586D01*
X129008926Y-65412598D01*
X128965001Y-65633423D01*
X128965001Y-65858575D01*
X129008926Y-66079400D01*
X129095088Y-66287412D01*
X129220175Y-66474619D01*
X129379381Y-66633825D01*
X129566588Y-66758912D01*
X129774600Y-66845074D01*
X129995425Y-66888999D01*
X130220577Y-66888999D01*
X130268640Y-66879439D01*
X126655079Y-70493000D01*
X116883269Y-70493000D01*
X116839999Y-70488738D01*
X116796729Y-70493000D01*
X116796727Y-70493000D01*
X116667294Y-70505748D01*
X116501225Y-70556125D01*
X116429981Y-70594206D01*
X116348174Y-70637932D01*
X116280022Y-70693863D01*
X116214025Y-70748025D01*
X116186440Y-70781638D01*
X114977640Y-71990439D01*
X114944026Y-72018025D01*
X114916441Y-72051638D01*
X114833932Y-72152175D01*
X114752125Y-72305226D01*
X114701749Y-72471295D01*
X114684738Y-72644000D01*
X114689001Y-72687280D01*
X114689000Y-75718554D01*
X114682174Y-75725380D01*
X114557087Y-75912587D01*
X114470925Y-76120599D01*
X114427000Y-76341424D01*
X114427000Y-76566576D01*
X114470925Y-76787401D01*
X114557087Y-76995413D01*
X114682174Y-77182620D01*
X114841380Y-77341826D01*
X115028587Y-77466913D01*
X115236599Y-77553075D01*
X115457424Y-77597000D01*
X115682576Y-77597000D01*
X115903401Y-77553075D01*
X116111413Y-77466913D01*
X116298620Y-77341826D01*
X116457826Y-77182620D01*
X116582913Y-76995413D01*
X116669075Y-76787401D01*
X116713000Y-76566576D01*
X116713000Y-76341424D01*
X116669075Y-76120599D01*
X116582913Y-75912587D01*
X116457826Y-75725380D01*
X116451000Y-75718554D01*
X116451000Y-75071424D01*
X116967000Y-75071424D01*
X116967000Y-75296576D01*
X117010925Y-75517401D01*
X117097087Y-75725413D01*
X117222174Y-75912620D01*
X117381380Y-76071826D01*
X117568587Y-76196913D01*
X117776599Y-76283075D01*
X117997424Y-76327000D01*
X118222576Y-76327000D01*
X118443401Y-76283075D01*
X118651413Y-76196913D01*
X118838620Y-76071826D01*
X118997826Y-75912620D01*
X119122913Y-75725413D01*
X119209075Y-75517401D01*
X119253000Y-75296576D01*
X119253000Y-75071424D01*
X119507000Y-75071424D01*
X119507000Y-75296576D01*
X119550925Y-75517401D01*
X119637087Y-75725413D01*
X119762174Y-75912620D01*
X119921380Y-76071826D01*
X120108587Y-76196913D01*
X120316599Y-76283075D01*
X120537424Y-76327000D01*
X120762576Y-76327000D01*
X120983401Y-76283075D01*
X121191413Y-76196913D01*
X121378620Y-76071826D01*
X121537826Y-75912620D01*
X121662913Y-75725413D01*
X121749075Y-75517401D01*
X121793000Y-75296576D01*
X121793000Y-75071424D01*
X122047000Y-75071424D01*
X122047000Y-75296576D01*
X122090925Y-75517401D01*
X122177087Y-75725413D01*
X122302174Y-75912620D01*
X122461380Y-76071826D01*
X122648587Y-76196913D01*
X122856599Y-76283075D01*
X123077424Y-76327000D01*
X123302576Y-76327000D01*
X123523401Y-76283075D01*
X123731413Y-76196913D01*
X123918620Y-76071826D01*
X124077826Y-75912620D01*
X124202913Y-75725413D01*
X124289075Y-75517401D01*
X124333000Y-75296576D01*
X124333000Y-75071424D01*
X124587000Y-75071424D01*
X124587000Y-75296576D01*
X124630925Y-75517401D01*
X124717087Y-75725413D01*
X124842174Y-75912620D01*
X125001380Y-76071826D01*
X125188587Y-76196913D01*
X125396599Y-76283075D01*
X125617424Y-76327000D01*
X125638014Y-76327000D01*
X125410417Y-76357103D01*
X125236316Y-76409916D01*
X125153835Y-76620333D01*
X125730000Y-77196498D01*
X126306165Y-76620333D01*
X126223684Y-76409916D01*
X125957833Y-76338853D01*
X125775312Y-76327000D01*
X125842576Y-76327000D01*
X126063401Y-76283075D01*
X126271413Y-76196913D01*
X126458620Y-76071826D01*
X126617826Y-75912620D01*
X126742913Y-75725413D01*
X126829075Y-75517401D01*
X126873000Y-75296576D01*
X126873000Y-75071424D01*
X127127000Y-75071424D01*
X127127000Y-75296576D01*
X127170925Y-75517401D01*
X127257087Y-75725413D01*
X127382174Y-75912620D01*
X127541380Y-76071826D01*
X127728587Y-76196913D01*
X127936599Y-76283075D01*
X128157424Y-76327000D01*
X128382576Y-76327000D01*
X128603401Y-76283075D01*
X128811413Y-76196913D01*
X128998620Y-76071826D01*
X129157826Y-75912620D01*
X129282913Y-75725413D01*
X129369075Y-75517401D01*
X129413000Y-75296576D01*
X129413000Y-75071424D01*
X129667000Y-75071424D01*
X129667000Y-75296576D01*
X129710925Y-75517401D01*
X129797087Y-75725413D01*
X129922174Y-75912620D01*
X130081380Y-76071826D01*
X130268587Y-76196913D01*
X130476599Y-76283075D01*
X130697424Y-76327000D01*
X130922576Y-76327000D01*
X131143401Y-76283075D01*
X131351413Y-76196913D01*
X131538620Y-76071826D01*
X131697826Y-75912620D01*
X131822913Y-75725413D01*
X131909075Y-75517401D01*
X131953000Y-75296576D01*
X131953000Y-75071424D01*
X131909075Y-74850599D01*
X131822913Y-74642587D01*
X131697826Y-74455380D01*
X131538620Y-74296174D01*
X131351413Y-74171087D01*
X131143401Y-74084925D01*
X130922576Y-74041000D01*
X130697424Y-74041000D01*
X130476599Y-74084925D01*
X130268587Y-74171087D01*
X130081380Y-74296174D01*
X129922174Y-74455380D01*
X129797087Y-74642587D01*
X129710925Y-74850599D01*
X129667000Y-75071424D01*
X129413000Y-75071424D01*
X129369075Y-74850599D01*
X129282913Y-74642587D01*
X129157826Y-74455380D01*
X128998620Y-74296174D01*
X128811413Y-74171087D01*
X128603401Y-74084925D01*
X128382576Y-74041000D01*
X128157424Y-74041000D01*
X127936599Y-74084925D01*
X127728587Y-74171087D01*
X127541380Y-74296174D01*
X127382174Y-74455380D01*
X127257087Y-74642587D01*
X127170925Y-74850599D01*
X127127000Y-75071424D01*
X126873000Y-75071424D01*
X126829075Y-74850599D01*
X126742913Y-74642587D01*
X126617826Y-74455380D01*
X126458620Y-74296174D01*
X126271413Y-74171087D01*
X126063401Y-74084925D01*
X125842576Y-74041000D01*
X125617424Y-74041000D01*
X125396599Y-74084925D01*
X125188587Y-74171087D01*
X125001380Y-74296174D01*
X124842174Y-74455380D01*
X124717087Y-74642587D01*
X124630925Y-74850599D01*
X124587000Y-75071424D01*
X124333000Y-75071424D01*
X124289075Y-74850599D01*
X124202913Y-74642587D01*
X124077826Y-74455380D01*
X123918620Y-74296174D01*
X123731413Y-74171087D01*
X123523401Y-74084925D01*
X123302576Y-74041000D01*
X123077424Y-74041000D01*
X122856599Y-74084925D01*
X122648587Y-74171087D01*
X122461380Y-74296174D01*
X122302174Y-74455380D01*
X122177087Y-74642587D01*
X122090925Y-74850599D01*
X122047000Y-75071424D01*
X121793000Y-75071424D01*
X121749075Y-74850599D01*
X121662913Y-74642587D01*
X121537826Y-74455380D01*
X121378620Y-74296174D01*
X121191413Y-74171087D01*
X120983401Y-74084925D01*
X120762576Y-74041000D01*
X120537424Y-74041000D01*
X120316599Y-74084925D01*
X120108587Y-74171087D01*
X119921380Y-74296174D01*
X119762174Y-74455380D01*
X119637087Y-74642587D01*
X119550925Y-74850599D01*
X119507000Y-75071424D01*
X119253000Y-75071424D01*
X119209075Y-74850599D01*
X119122913Y-74642587D01*
X118997826Y-74455380D01*
X118838620Y-74296174D01*
X118651413Y-74171087D01*
X118443401Y-74084925D01*
X118222576Y-74041000D01*
X117997424Y-74041000D01*
X117776599Y-74084925D01*
X117568587Y-74171087D01*
X117381380Y-74296174D01*
X117222174Y-74455380D01*
X117097087Y-74642587D01*
X117010925Y-74850599D01*
X116967000Y-75071424D01*
X116451000Y-75071424D01*
X116451000Y-73008921D01*
X117204922Y-72255000D01*
X126976730Y-72255000D01*
X127020000Y-72259262D01*
X127063270Y-72255000D01*
X127063273Y-72255000D01*
X127192706Y-72242252D01*
X127358775Y-72191875D01*
X127511825Y-72110068D01*
X127645975Y-71999975D01*
X127673566Y-71966355D01*
X132750923Y-66888999D01*
X132760577Y-66888999D01*
X132958316Y-66849666D01*
X134611836Y-66849666D01*
X134694317Y-67060083D01*
X134960168Y-67131146D01*
X135234774Y-67148979D01*
X135507584Y-67112896D01*
X135681685Y-67060083D01*
X135764166Y-66849666D01*
X135188001Y-66273501D01*
X134611836Y-66849666D01*
X132958316Y-66849666D01*
X132981402Y-66845074D01*
X133189414Y-66758912D01*
X133376621Y-66633825D01*
X133535827Y-66474619D01*
X133660914Y-66287412D01*
X133747076Y-66079400D01*
X133791001Y-65858575D01*
X133791001Y-65837985D01*
X133821104Y-66065582D01*
X133873917Y-66239683D01*
X134084334Y-66322164D01*
X134660499Y-65745999D01*
X134646357Y-65731857D01*
X135173859Y-65204355D01*
X135188001Y-65218497D01*
X135202143Y-65204355D01*
X135729645Y-65731857D01*
X135715503Y-65745999D01*
X136291668Y-66322164D01*
X136502085Y-66239683D01*
X136573148Y-65973832D01*
X136590981Y-65699226D01*
X136554898Y-65426416D01*
X136502085Y-65252315D01*
X136291670Y-65169835D01*
X136310505Y-65151000D01*
X138938000Y-65151000D01*
X138938000Y-72157247D01*
X138763401Y-72084925D01*
X138542576Y-72041000D01*
X138317424Y-72041000D01*
X138096599Y-72084925D01*
X137888587Y-72171087D01*
X137701380Y-72296174D01*
X137542174Y-72455380D01*
X137417087Y-72642587D01*
X137330925Y-72850599D01*
X137287000Y-73071424D01*
X137287000Y-73296576D01*
X137330925Y-73517401D01*
X137417087Y-73725413D01*
X137542174Y-73912620D01*
X137701380Y-74071826D01*
X137869261Y-74184000D01*
X137701380Y-74296174D01*
X137542174Y-74455380D01*
X137417087Y-74642587D01*
X137330925Y-74850599D01*
X137287000Y-75071424D01*
X137287000Y-75296576D01*
X137330925Y-75517401D01*
X137345594Y-75552814D01*
X129767786Y-83130623D01*
X129748474Y-83146472D01*
X129685242Y-83223520D01*
X129638256Y-83311425D01*
X129609323Y-83406807D01*
X129602001Y-83481146D01*
X129602001Y-83481153D01*
X129599554Y-83505999D01*
X129602001Y-83530845D01*
X129602002Y-85038417D01*
X129566588Y-85053086D01*
X129379381Y-85178173D01*
X129220175Y-85337379D01*
X129095088Y-85524586D01*
X129008926Y-85732598D01*
X128965001Y-85953423D01*
X128965001Y-85974013D01*
X128934898Y-85746416D01*
X128882085Y-85572315D01*
X128671668Y-85489834D01*
X128095503Y-86065999D01*
X128109645Y-86080141D01*
X127702786Y-86487000D01*
X127433216Y-86487000D01*
X127026357Y-86080141D01*
X127040499Y-86065999D01*
X126464334Y-85489834D01*
X126253917Y-85572315D01*
X126182854Y-85838166D01*
X126165021Y-86112772D01*
X126201104Y-86385582D01*
X126231869Y-86487000D01*
X121010791Y-86487000D01*
X121047076Y-86399400D01*
X121091001Y-86178575D01*
X121091001Y-85953423D01*
X121047076Y-85732598D01*
X120960914Y-85524586D01*
X120835827Y-85337379D01*
X120676621Y-85178173D01*
X120489414Y-85053086D01*
X120281402Y-84966924D01*
X120258317Y-84962332D01*
X126991836Y-84962332D01*
X127568001Y-85538497D01*
X128144166Y-84962332D01*
X128061685Y-84751915D01*
X127795834Y-84680852D01*
X127521228Y-84663019D01*
X127248418Y-84699102D01*
X127074317Y-84751915D01*
X126991836Y-84962332D01*
X120258317Y-84962332D01*
X120060577Y-84922999D01*
X119835425Y-84922999D01*
X119614600Y-84966924D01*
X119406588Y-85053086D01*
X119219381Y-85178173D01*
X119060175Y-85337379D01*
X118935088Y-85524586D01*
X118848926Y-85732598D01*
X118805001Y-85953423D01*
X118805001Y-86178575D01*
X118848926Y-86399400D01*
X118885211Y-86487000D01*
X118470791Y-86487000D01*
X118507076Y-86399400D01*
X118551001Y-86178575D01*
X118551001Y-85953423D01*
X118507076Y-85732598D01*
X118420914Y-85524586D01*
X118295827Y-85337379D01*
X118136621Y-85178173D01*
X117949414Y-85053086D01*
X117741402Y-84966924D01*
X117520577Y-84922999D01*
X117295425Y-84922999D01*
X117074600Y-84966924D01*
X116866588Y-85053086D01*
X116679381Y-85178173D01*
X116520175Y-85337379D01*
X116395088Y-85524586D01*
X116308926Y-85732598D01*
X116265001Y-85953423D01*
X116265001Y-86178575D01*
X116308926Y-86399400D01*
X116345211Y-86487000D01*
X115930791Y-86487000D01*
X115967076Y-86399400D01*
X116011001Y-86178575D01*
X116011001Y-85953423D01*
X115967076Y-85732598D01*
X115880914Y-85524586D01*
X115755827Y-85337379D01*
X115596621Y-85178173D01*
X115409414Y-85053086D01*
X115201402Y-84966924D01*
X114980577Y-84922999D01*
X114755425Y-84922999D01*
X114534600Y-84966924D01*
X114326588Y-85053086D01*
X114139381Y-85178173D01*
X113980175Y-85337379D01*
X113855088Y-85524586D01*
X113768926Y-85732598D01*
X113725001Y-85953423D01*
X113725001Y-85974013D01*
X113694898Y-85746416D01*
X113642085Y-85572315D01*
X113431668Y-85489834D01*
X112855503Y-86065999D01*
X112869645Y-86080141D01*
X112462786Y-86487000D01*
X112193216Y-86487000D01*
X111786357Y-86080141D01*
X111800499Y-86065999D01*
X111224334Y-85489834D01*
X111013917Y-85572315D01*
X110942854Y-85838166D01*
X110931001Y-86020687D01*
X110931001Y-85953423D01*
X110887076Y-85732598D01*
X110800914Y-85524586D01*
X110675827Y-85337379D01*
X110516621Y-85178173D01*
X110329414Y-85053086D01*
X110121402Y-84966924D01*
X110098317Y-84962332D01*
X111751836Y-84962332D01*
X112328001Y-85538497D01*
X112904166Y-84962332D01*
X112821685Y-84751915D01*
X112555834Y-84680852D01*
X112281228Y-84663019D01*
X112008418Y-84699102D01*
X111834317Y-84751915D01*
X111751836Y-84962332D01*
X110098317Y-84962332D01*
X109900577Y-84922999D01*
X109675425Y-84922999D01*
X109454600Y-84966924D01*
X109246588Y-85053086D01*
X109059381Y-85178173D01*
X108900175Y-85337379D01*
X108775088Y-85524586D01*
X108688926Y-85732598D01*
X108645001Y-85953423D01*
X108645001Y-86178575D01*
X108688926Y-86399400D01*
X108725211Y-86487000D01*
X108310791Y-86487000D01*
X108347076Y-86399400D01*
X108391001Y-86178575D01*
X108391001Y-85953423D01*
X108347076Y-85732598D01*
X108260914Y-85524586D01*
X108135827Y-85337379D01*
X107976621Y-85178173D01*
X107789414Y-85053086D01*
X107581402Y-84966924D01*
X107360577Y-84922999D01*
X107135425Y-84922999D01*
X106914600Y-84966924D01*
X106706588Y-85053086D01*
X106519381Y-85178173D01*
X106360175Y-85337379D01*
X106235088Y-85524586D01*
X106148926Y-85732598D01*
X106105001Y-85953423D01*
X106105001Y-86178575D01*
X106148926Y-86399400D01*
X106185211Y-86487000D01*
X105770791Y-86487000D01*
X105807076Y-86399400D01*
X105851001Y-86178575D01*
X105851001Y-85953423D01*
X105807076Y-85732598D01*
X105792407Y-85697184D01*
X112675328Y-78814264D01*
X112696599Y-78823075D01*
X112917424Y-78867000D01*
X113142576Y-78867000D01*
X113363401Y-78823075D01*
X113571413Y-78736913D01*
X113758620Y-78611826D01*
X113917826Y-78452620D01*
X114042913Y-78265413D01*
X114129075Y-78057401D01*
X114173000Y-77836576D01*
X114173000Y-77611424D01*
X116967000Y-77611424D01*
X116967000Y-77836576D01*
X117010925Y-78057401D01*
X117097087Y-78265413D01*
X117222174Y-78452620D01*
X117381380Y-78611826D01*
X117568587Y-78736913D01*
X117776599Y-78823075D01*
X117997424Y-78867000D01*
X118222576Y-78867000D01*
X118443401Y-78823075D01*
X118651413Y-78736913D01*
X118838620Y-78611826D01*
X118997826Y-78452620D01*
X119122913Y-78265413D01*
X119209075Y-78057401D01*
X119253000Y-77836576D01*
X119253000Y-77611424D01*
X119507000Y-77611424D01*
X119507000Y-77836576D01*
X119550925Y-78057401D01*
X119637087Y-78265413D01*
X119762174Y-78452620D01*
X119921380Y-78611826D01*
X120108587Y-78736913D01*
X120316599Y-78823075D01*
X120537424Y-78867000D01*
X120762576Y-78867000D01*
X120983401Y-78823075D01*
X121191413Y-78736913D01*
X121378620Y-78611826D01*
X121537826Y-78452620D01*
X121662913Y-78265413D01*
X121749075Y-78057401D01*
X121793000Y-77836576D01*
X121793000Y-77611424D01*
X122047000Y-77611424D01*
X122047000Y-77836576D01*
X122090925Y-78057401D01*
X122177087Y-78265413D01*
X122302174Y-78452620D01*
X122461380Y-78611826D01*
X122648587Y-78736913D01*
X122856599Y-78823075D01*
X123077424Y-78867000D01*
X123302576Y-78867000D01*
X123500315Y-78827667D01*
X125153835Y-78827667D01*
X125236316Y-79038084D01*
X125502167Y-79109147D01*
X125776773Y-79126980D01*
X126049583Y-79090897D01*
X126223684Y-79038084D01*
X126306165Y-78827667D01*
X125730000Y-78251502D01*
X125153835Y-78827667D01*
X123500315Y-78827667D01*
X123523401Y-78823075D01*
X123731413Y-78736913D01*
X123918620Y-78611826D01*
X124077826Y-78452620D01*
X124202913Y-78265413D01*
X124289075Y-78057401D01*
X124333000Y-77836576D01*
X124333000Y-77815986D01*
X124363103Y-78043583D01*
X124415916Y-78217684D01*
X124626333Y-78300165D01*
X125202498Y-77724000D01*
X126257502Y-77724000D01*
X126833667Y-78300165D01*
X127044084Y-78217684D01*
X127115147Y-77951833D01*
X127127000Y-77769312D01*
X127127000Y-77836576D01*
X127170925Y-78057401D01*
X127257087Y-78265413D01*
X127382174Y-78452620D01*
X127541380Y-78611826D01*
X127728587Y-78736913D01*
X127936599Y-78823075D01*
X128157424Y-78867000D01*
X128382576Y-78867000D01*
X128603401Y-78823075D01*
X128811413Y-78736913D01*
X128998620Y-78611826D01*
X129157826Y-78452620D01*
X129282913Y-78265413D01*
X129369075Y-78057401D01*
X129413000Y-77836576D01*
X129413000Y-77611424D01*
X129667000Y-77611424D01*
X129667000Y-77836576D01*
X129710925Y-78057401D01*
X129797087Y-78265413D01*
X129922174Y-78452620D01*
X130081380Y-78611826D01*
X130268587Y-78736913D01*
X130476599Y-78823075D01*
X130697424Y-78867000D01*
X130922576Y-78867000D01*
X131143401Y-78823075D01*
X131351413Y-78736913D01*
X131538620Y-78611826D01*
X131697826Y-78452620D01*
X131822913Y-78265413D01*
X131909075Y-78057401D01*
X131953000Y-77836576D01*
X131953000Y-77611424D01*
X131909075Y-77390599D01*
X131822913Y-77182587D01*
X131697826Y-76995380D01*
X131538620Y-76836174D01*
X131351413Y-76711087D01*
X131143401Y-76624925D01*
X130922576Y-76581000D01*
X130697424Y-76581000D01*
X130476599Y-76624925D01*
X130268587Y-76711087D01*
X130081380Y-76836174D01*
X129922174Y-76995380D01*
X129797087Y-77182587D01*
X129710925Y-77390599D01*
X129667000Y-77611424D01*
X129413000Y-77611424D01*
X129369075Y-77390599D01*
X129282913Y-77182587D01*
X129157826Y-76995380D01*
X128998620Y-76836174D01*
X128811413Y-76711087D01*
X128603401Y-76624925D01*
X128382576Y-76581000D01*
X128157424Y-76581000D01*
X127936599Y-76624925D01*
X127728587Y-76711087D01*
X127541380Y-76836174D01*
X127382174Y-76995380D01*
X127257087Y-77182587D01*
X127170925Y-77390599D01*
X127127000Y-77611424D01*
X127127000Y-77632014D01*
X127096897Y-77404417D01*
X127044084Y-77230316D01*
X126833667Y-77147835D01*
X126257502Y-77724000D01*
X125202498Y-77724000D01*
X124626333Y-77147835D01*
X124415916Y-77230316D01*
X124344853Y-77496167D01*
X124333000Y-77678688D01*
X124333000Y-77611424D01*
X124289075Y-77390599D01*
X124202913Y-77182587D01*
X124077826Y-76995380D01*
X123918620Y-76836174D01*
X123731413Y-76711087D01*
X123523401Y-76624925D01*
X123302576Y-76581000D01*
X123077424Y-76581000D01*
X122856599Y-76624925D01*
X122648587Y-76711087D01*
X122461380Y-76836174D01*
X122302174Y-76995380D01*
X122177087Y-77182587D01*
X122090925Y-77390599D01*
X122047000Y-77611424D01*
X121793000Y-77611424D01*
X121749075Y-77390599D01*
X121662913Y-77182587D01*
X121537826Y-76995380D01*
X121378620Y-76836174D01*
X121191413Y-76711087D01*
X120983401Y-76624925D01*
X120762576Y-76581000D01*
X120537424Y-76581000D01*
X120316599Y-76624925D01*
X120108587Y-76711087D01*
X119921380Y-76836174D01*
X119762174Y-76995380D01*
X119637087Y-77182587D01*
X119550925Y-77390599D01*
X119507000Y-77611424D01*
X119253000Y-77611424D01*
X119209075Y-77390599D01*
X119122913Y-77182587D01*
X118997826Y-76995380D01*
X118838620Y-76836174D01*
X118651413Y-76711087D01*
X118443401Y-76624925D01*
X118222576Y-76581000D01*
X117997424Y-76581000D01*
X117776599Y-76624925D01*
X117568587Y-76711087D01*
X117381380Y-76836174D01*
X117222174Y-76995380D01*
X117097087Y-77182587D01*
X117010925Y-77390599D01*
X116967000Y-77611424D01*
X114173000Y-77611424D01*
X114129075Y-77390599D01*
X114042913Y-77182587D01*
X113917826Y-76995380D01*
X113758620Y-76836174D01*
X113571413Y-76711087D01*
X113363401Y-76624925D01*
X113142576Y-76581000D01*
X112917424Y-76581000D01*
X112696599Y-76624925D01*
X112488587Y-76711087D01*
X112301380Y-76836174D01*
X112142174Y-76995380D01*
X112017087Y-77182587D01*
X111930925Y-77390599D01*
X111887000Y-77611424D01*
X111887000Y-77836576D01*
X111930925Y-78057401D01*
X111951452Y-78106956D01*
X105076816Y-84981593D01*
X105041402Y-84966924D01*
X104820577Y-84922999D01*
X104595425Y-84922999D01*
X104374600Y-84966924D01*
X104166588Y-85053086D01*
X103979381Y-85178173D01*
X103820175Y-85337379D01*
X103695088Y-85524586D01*
X103608926Y-85732598D01*
X103565001Y-85953423D01*
X103565001Y-86178575D01*
X103608926Y-86399400D01*
X103645211Y-86487000D01*
X103230791Y-86487000D01*
X103267076Y-86399400D01*
X103311001Y-86178575D01*
X103311001Y-85953423D01*
X103267076Y-85732598D01*
X103180914Y-85524586D01*
X103055827Y-85337379D01*
X102896621Y-85178173D01*
X102709414Y-85053086D01*
X102674001Y-85038417D01*
X102674001Y-82791843D01*
X103245000Y-82791843D01*
X103368462Y-82779683D01*
X103487179Y-82743671D01*
X103596589Y-82685190D01*
X103692488Y-82606488D01*
X103771190Y-82510589D01*
X103829671Y-82401179D01*
X103865683Y-82282462D01*
X103877843Y-82159000D01*
X103877843Y-80909000D01*
X103865683Y-80785538D01*
X103829671Y-80666821D01*
X103771190Y-80557411D01*
X103692488Y-80461512D01*
X103596589Y-80382810D01*
X103487179Y-80324329D01*
X103368462Y-80288317D01*
X103245000Y-80276157D01*
X102495000Y-80276157D01*
X102371538Y-80288317D01*
X102252821Y-80324329D01*
X102143411Y-80382810D01*
X102047512Y-80461512D01*
X101968810Y-80557411D01*
X101910329Y-80666821D01*
X101874317Y-80785538D01*
X101862157Y-80909000D01*
X101862157Y-81826252D01*
X101827781Y-81860628D01*
X101808475Y-81876472D01*
X101745243Y-81953520D01*
X101733228Y-81975999D01*
X101698256Y-82041425D01*
X101669323Y-82136807D01*
X101659554Y-82235999D01*
X101662002Y-82260855D01*
X101662001Y-85038417D01*
X101626588Y-85053086D01*
X101439381Y-85178173D01*
X101280175Y-85337379D01*
X101155088Y-85524586D01*
X101068926Y-85732598D01*
X101025001Y-85953423D01*
X101025001Y-86178575D01*
X101068926Y-86399400D01*
X101105211Y-86487000D01*
X100690791Y-86487000D01*
X100727076Y-86399400D01*
X100771001Y-86178575D01*
X100771001Y-85953423D01*
X100727076Y-85732598D01*
X100640914Y-85524586D01*
X100515827Y-85337379D01*
X100356621Y-85178173D01*
X100169414Y-85053086D01*
X100134001Y-85038417D01*
X100134001Y-82791843D01*
X100445000Y-82791843D01*
X100568462Y-82779683D01*
X100687179Y-82743671D01*
X100796589Y-82685190D01*
X100892488Y-82606488D01*
X100971190Y-82510589D01*
X101029671Y-82401179D01*
X101065683Y-82282462D01*
X101077843Y-82159000D01*
X101077843Y-80909000D01*
X101065683Y-80785538D01*
X101029671Y-80666821D01*
X100971190Y-80557411D01*
X100892488Y-80461512D01*
X100796589Y-80382810D01*
X100687179Y-80324329D01*
X100568462Y-80288317D01*
X100445000Y-80276157D01*
X99695000Y-80276157D01*
X99571538Y-80288317D01*
X99452821Y-80324329D01*
X99343411Y-80382810D01*
X99247512Y-80461512D01*
X99187000Y-80535246D01*
X99187000Y-77836576D01*
X99230925Y-78057401D01*
X99317087Y-78265413D01*
X99442174Y-78452620D01*
X99601380Y-78611826D01*
X99788587Y-78736913D01*
X99996599Y-78823075D01*
X100217424Y-78867000D01*
X100442576Y-78867000D01*
X100663401Y-78823075D01*
X100871413Y-78736913D01*
X101058620Y-78611826D01*
X101217826Y-78452620D01*
X101342913Y-78265413D01*
X101429075Y-78057401D01*
X101473000Y-77836576D01*
X101473000Y-77611424D01*
X101429075Y-77390599D01*
X101342913Y-77182587D01*
X101217826Y-76995380D01*
X101058620Y-76836174D01*
X100871413Y-76711087D01*
X100663401Y-76624925D01*
X100442576Y-76581000D01*
X100217424Y-76581000D01*
X99996599Y-76624925D01*
X99788587Y-76711087D01*
X99601380Y-76836174D01*
X99442174Y-76995380D01*
X99317087Y-77182587D01*
X99230925Y-77390599D01*
X99187000Y-77611424D01*
X99187000Y-75296576D01*
X99230925Y-75517401D01*
X99317087Y-75725413D01*
X99442174Y-75912620D01*
X99601380Y-76071826D01*
X99788587Y-76196913D01*
X99996599Y-76283075D01*
X100217424Y-76327000D01*
X100442576Y-76327000D01*
X100663401Y-76283075D01*
X100871413Y-76196913D01*
X101058620Y-76071826D01*
X101217826Y-75912620D01*
X101342913Y-75725413D01*
X101429075Y-75517401D01*
X101473000Y-75296576D01*
X101473000Y-75071424D01*
X101429075Y-74850599D01*
X101342913Y-74642587D01*
X101217826Y-74455380D01*
X101058620Y-74296174D01*
X100871413Y-74171087D01*
X100663401Y-74084925D01*
X100442576Y-74041000D01*
X100217424Y-74041000D01*
X99996599Y-74084925D01*
X99788587Y-74171087D01*
X99601380Y-74296174D01*
X99442174Y-74455380D01*
X99317087Y-74642587D01*
X99230925Y-74850599D01*
X99187000Y-75071424D01*
X99187000Y-66800504D01*
X99294600Y-66845074D01*
X99515425Y-66888999D01*
X99740577Y-66888999D01*
X99961402Y-66845074D01*
X99996816Y-66830405D01*
X102999000Y-69832590D01*
X102999001Y-74044267D01*
X102982576Y-74041000D01*
X102757424Y-74041000D01*
X102536599Y-74084925D01*
X102328587Y-74171087D01*
X102141380Y-74296174D01*
X101982174Y-74455380D01*
X101857087Y-74642587D01*
X101770925Y-74850599D01*
X101727000Y-75071424D01*
X101727000Y-75296576D01*
X101770925Y-75517401D01*
X101857087Y-75725413D01*
X101982174Y-75912620D01*
X102141380Y-76071826D01*
X102328587Y-76196913D01*
X102536599Y-76283075D01*
X102757424Y-76327000D01*
X102982576Y-76327000D01*
X103203401Y-76283075D01*
X103411413Y-76196913D01*
X103451002Y-76170461D01*
X103451002Y-76427407D01*
X103291783Y-76586626D01*
X103291777Y-76586631D01*
X103238814Y-76639594D01*
X103203401Y-76624925D01*
X102982576Y-76581000D01*
X102757424Y-76581000D01*
X102536599Y-76624925D01*
X102328587Y-76711087D01*
X102141380Y-76836174D01*
X101982174Y-76995380D01*
X101857087Y-77182587D01*
X101770925Y-77390599D01*
X101727000Y-77611424D01*
X101727000Y-77836576D01*
X101770925Y-78057401D01*
X101857087Y-78265413D01*
X101982174Y-78452620D01*
X102141380Y-78611826D01*
X102328587Y-78736913D01*
X102536599Y-78823075D01*
X102757424Y-78867000D01*
X102982576Y-78867000D01*
X103180315Y-78827667D01*
X104833835Y-78827667D01*
X104916316Y-79038084D01*
X105182167Y-79109147D01*
X105456773Y-79126980D01*
X105729583Y-79090897D01*
X105903684Y-79038084D01*
X105986165Y-78827667D01*
X105410000Y-78251502D01*
X104833835Y-78827667D01*
X103180315Y-78827667D01*
X103203401Y-78823075D01*
X103411413Y-78736913D01*
X103598620Y-78611826D01*
X103757826Y-78452620D01*
X103882913Y-78265413D01*
X103969075Y-78057401D01*
X104013000Y-77836576D01*
X104013000Y-77815986D01*
X104043103Y-78043583D01*
X104095916Y-78217684D01*
X104306333Y-78300165D01*
X104882498Y-77724000D01*
X105937502Y-77724000D01*
X106513667Y-78300165D01*
X106724084Y-78217684D01*
X106795147Y-77951833D01*
X106807000Y-77769312D01*
X106807000Y-77836576D01*
X106850925Y-78057401D01*
X106937087Y-78265413D01*
X107062174Y-78452620D01*
X107221380Y-78611826D01*
X107408587Y-78736913D01*
X107616599Y-78823075D01*
X107837424Y-78867000D01*
X108062576Y-78867000D01*
X108283401Y-78823075D01*
X108491413Y-78736913D01*
X108678620Y-78611826D01*
X108837826Y-78452620D01*
X108962913Y-78265413D01*
X109049075Y-78057401D01*
X109093000Y-77836576D01*
X109093000Y-77611424D01*
X109347000Y-77611424D01*
X109347000Y-77836576D01*
X109390925Y-78057401D01*
X109477087Y-78265413D01*
X109602174Y-78452620D01*
X109761380Y-78611826D01*
X109948587Y-78736913D01*
X110156599Y-78823075D01*
X110377424Y-78867000D01*
X110602576Y-78867000D01*
X110823401Y-78823075D01*
X111031413Y-78736913D01*
X111218620Y-78611826D01*
X111377826Y-78452620D01*
X111502913Y-78265413D01*
X111589075Y-78057401D01*
X111633000Y-77836576D01*
X111633000Y-77611424D01*
X111589075Y-77390599D01*
X111502913Y-77182587D01*
X111377826Y-76995380D01*
X111218620Y-76836174D01*
X111031413Y-76711087D01*
X110823401Y-76624925D01*
X110602576Y-76581000D01*
X110377424Y-76581000D01*
X110156599Y-76624925D01*
X109948587Y-76711087D01*
X109761380Y-76836174D01*
X109602174Y-76995380D01*
X109477087Y-77182587D01*
X109390925Y-77390599D01*
X109347000Y-77611424D01*
X109093000Y-77611424D01*
X109049075Y-77390599D01*
X108962913Y-77182587D01*
X108837826Y-76995380D01*
X108678620Y-76836174D01*
X108491413Y-76711087D01*
X108283401Y-76624925D01*
X108062576Y-76581000D01*
X107837424Y-76581000D01*
X107616599Y-76624925D01*
X107408587Y-76711087D01*
X107221380Y-76836174D01*
X107062174Y-76995380D01*
X106937087Y-77182587D01*
X106850925Y-77390599D01*
X106807000Y-77611424D01*
X106807000Y-77632014D01*
X106776897Y-77404417D01*
X106724084Y-77230316D01*
X106513667Y-77147835D01*
X105937502Y-77724000D01*
X104882498Y-77724000D01*
X104868356Y-77709858D01*
X105395858Y-77182356D01*
X105410000Y-77196498D01*
X105986165Y-76620333D01*
X105903684Y-76409916D01*
X105637833Y-76338853D01*
X105455312Y-76327000D01*
X105522576Y-76327000D01*
X105743401Y-76283075D01*
X105951413Y-76196913D01*
X106138620Y-76071826D01*
X106297826Y-75912620D01*
X106422913Y-75725413D01*
X106509075Y-75517401D01*
X106553000Y-75296576D01*
X106553000Y-75071424D01*
X106807000Y-75071424D01*
X106807000Y-75296576D01*
X106850925Y-75517401D01*
X106937087Y-75725413D01*
X107062174Y-75912620D01*
X107221380Y-76071826D01*
X107408587Y-76196913D01*
X107616599Y-76283075D01*
X107837424Y-76327000D01*
X108062576Y-76327000D01*
X108283401Y-76283075D01*
X108491413Y-76196913D01*
X108678620Y-76071826D01*
X108837826Y-75912620D01*
X108962913Y-75725413D01*
X109049075Y-75517401D01*
X109093000Y-75296576D01*
X109093000Y-75071424D01*
X109347000Y-75071424D01*
X109347000Y-75296576D01*
X109390925Y-75517401D01*
X109477087Y-75725413D01*
X109602174Y-75912620D01*
X109761380Y-76071826D01*
X109948587Y-76196913D01*
X110156599Y-76283075D01*
X110377424Y-76327000D01*
X110602576Y-76327000D01*
X110823401Y-76283075D01*
X111031413Y-76196913D01*
X111218620Y-76071826D01*
X111377826Y-75912620D01*
X111502913Y-75725413D01*
X111589075Y-75517401D01*
X111633000Y-75296576D01*
X111633000Y-75071424D01*
X111887000Y-75071424D01*
X111887000Y-75296576D01*
X111930925Y-75517401D01*
X112017087Y-75725413D01*
X112142174Y-75912620D01*
X112301380Y-76071826D01*
X112488587Y-76196913D01*
X112696599Y-76283075D01*
X112917424Y-76327000D01*
X113142576Y-76327000D01*
X113363401Y-76283075D01*
X113571413Y-76196913D01*
X113758620Y-76071826D01*
X113917826Y-75912620D01*
X114042913Y-75725413D01*
X114129075Y-75517401D01*
X114173000Y-75296576D01*
X114173000Y-75071424D01*
X114129075Y-74850599D01*
X114042913Y-74642587D01*
X113917826Y-74455380D01*
X113758620Y-74296174D01*
X113571413Y-74171087D01*
X113363401Y-74084925D01*
X113142576Y-74041000D01*
X112917424Y-74041000D01*
X112696599Y-74084925D01*
X112488587Y-74171087D01*
X112301380Y-74296174D01*
X112142174Y-74455380D01*
X112017087Y-74642587D01*
X111930925Y-74850599D01*
X111887000Y-75071424D01*
X111633000Y-75071424D01*
X111589075Y-74850599D01*
X111502913Y-74642587D01*
X111377826Y-74455380D01*
X111218620Y-74296174D01*
X111031413Y-74171087D01*
X110823401Y-74084925D01*
X110602576Y-74041000D01*
X110377424Y-74041000D01*
X110156599Y-74084925D01*
X109948587Y-74171087D01*
X109761380Y-74296174D01*
X109602174Y-74455380D01*
X109477087Y-74642587D01*
X109390925Y-74850599D01*
X109347000Y-75071424D01*
X109093000Y-75071424D01*
X109049075Y-74850599D01*
X108962913Y-74642587D01*
X108837826Y-74455380D01*
X108678620Y-74296174D01*
X108491413Y-74171087D01*
X108283401Y-74084925D01*
X108062576Y-74041000D01*
X107837424Y-74041000D01*
X107616599Y-74084925D01*
X107408587Y-74171087D01*
X107221380Y-74296174D01*
X107062174Y-74455380D01*
X106937087Y-74642587D01*
X106850925Y-74850599D01*
X106807000Y-75071424D01*
X106553000Y-75071424D01*
X106509075Y-74850599D01*
X106422913Y-74642587D01*
X106297826Y-74455380D01*
X106138620Y-74296174D01*
X105951413Y-74171087D01*
X105743401Y-74084925D01*
X105522576Y-74041000D01*
X105297424Y-74041000D01*
X105076599Y-74084925D01*
X104868587Y-74171087D01*
X104681380Y-74296174D01*
X104522174Y-74455380D01*
X104463001Y-74543939D01*
X104463001Y-69310846D01*
X104465448Y-69286000D01*
X104463001Y-69261154D01*
X104463001Y-69261147D01*
X104455679Y-69186808D01*
X104426746Y-69091426D01*
X104379760Y-69003522D01*
X104316528Y-68926474D01*
X104297221Y-68910629D01*
X102674001Y-67287410D01*
X102674001Y-66773581D01*
X102709414Y-66758912D01*
X102896621Y-66633825D01*
X103055827Y-66474619D01*
X103180914Y-66287412D01*
X103267076Y-66079400D01*
X103311001Y-65858575D01*
X103311001Y-65633423D01*
X103267076Y-65412598D01*
X103180914Y-65204586D01*
X103145109Y-65151000D01*
X103730893Y-65151000D01*
X103695088Y-65204586D01*
M02*
