G04 #@! TF.GenerationSoftware,KiCad,Pcbnew,(5.1.2)-2*
G04 #@! TF.CreationDate,2019-08-10T11:34:17-04:00*
G04 #@! TF.ProjectId,compact-giraffe,636f6d70-6163-4742-9d67-697261666665,rev?*
G04 #@! TF.SameCoordinates,Original*
G04 #@! TF.FileFunction,Legend,Bot*
G04 #@! TF.FilePolarity,Positive*
%FSLAX46Y46*%
G04 Gerber Fmt 4.6, Leading zero omitted, Abs format (unit mm)*
G04 Created by KiCad (PCBNEW (5.1.2)-2) date 2019-08-10 11:34:17*
%MOMM*%
%LPD*%
G04 APERTURE LIST*
%ADD10C,0.120000*%
%ADD11C,0.150000*%
G04 APERTURE END LIST*
D10*
X99060000Y-78994000D02*
X114300000Y-78994000D01*
X99060000Y-73914000D02*
X99060000Y-78994000D01*
X104140000Y-73914000D02*
X99060000Y-73914000D01*
X104140000Y-72644000D02*
X104140000Y-73914000D01*
X109220000Y-72644000D02*
X104140000Y-72644000D01*
X109220000Y-73914000D02*
X109220000Y-72644000D01*
X114300000Y-73914000D02*
X109220000Y-73914000D01*
X114300000Y-78994000D02*
X114300000Y-73914000D01*
X114300000Y-73914000D02*
X114300000Y-72644000D01*
X114300000Y-72644000D02*
X109220000Y-72644000D01*
X109220000Y-72644000D02*
X104140000Y-72644000D01*
X104140000Y-72644000D02*
X99060000Y-72644000D01*
X99060000Y-72644000D02*
X99060000Y-73914000D01*
X111760000Y-78994000D02*
X111760000Y-80264000D01*
X111760000Y-80264000D02*
X110490000Y-80264000D01*
X110490000Y-80264000D02*
X110490000Y-78994000D01*
X110490000Y-78994000D02*
X102870000Y-78994000D01*
X102870000Y-78994000D02*
X102870000Y-80264000D01*
X102870000Y-80264000D02*
X101600000Y-80264000D01*
X101600000Y-80264000D02*
X101600000Y-78994000D01*
X110490000Y-80264000D02*
X102870000Y-80264000D01*
X132080000Y-78994000D02*
X116840000Y-78994000D01*
X132080000Y-73914000D02*
X132080000Y-78994000D01*
X127000000Y-73914000D02*
X132080000Y-73914000D01*
X127000000Y-72644000D02*
X127000000Y-73914000D01*
X121920000Y-72644000D02*
X127000000Y-72644000D01*
X121920000Y-73914000D02*
X121920000Y-72644000D01*
X116840000Y-73914000D02*
X121920000Y-73914000D01*
X116840000Y-78994000D02*
X116840000Y-73914000D01*
X116840000Y-73914000D02*
X116840000Y-71374000D01*
X116840000Y-71374000D02*
X118110000Y-71374000D01*
X118110000Y-71374000D02*
X118110000Y-73914000D01*
X130810000Y-73914000D02*
X130810000Y-71374000D01*
X130810000Y-71374000D02*
X132080000Y-71374000D01*
X132080000Y-71374000D02*
X132080000Y-73914000D01*
X116840000Y-78994000D02*
X119380000Y-80264000D01*
X119380000Y-80264000D02*
X129540000Y-80264000D01*
X129540000Y-80264000D02*
X132080000Y-78994000D01*
X100867936Y-80624000D02*
X102072064Y-80624000D01*
X100867936Y-82444000D02*
X102072064Y-82444000D01*
D11*
X107013333Y-73176380D02*
X107013333Y-73890666D01*
X107060952Y-74033523D01*
X107156190Y-74128761D01*
X107299047Y-74176380D01*
X107394285Y-74176380D01*
X106584761Y-73271619D02*
X106537142Y-73224000D01*
X106441904Y-73176380D01*
X106203809Y-73176380D01*
X106108571Y-73224000D01*
X106060952Y-73271619D01*
X106013333Y-73366857D01*
X106013333Y-73462095D01*
X106060952Y-73604952D01*
X106632380Y-74176380D01*
X106013333Y-74176380D01*
X112744285Y-73731380D02*
X113315714Y-73731380D01*
X113030000Y-73731380D02*
X113030000Y-72731380D01*
X113125238Y-72874238D01*
X113220476Y-72969476D01*
X113315714Y-73017095D01*
X111322857Y-71778761D02*
X111180000Y-71826380D01*
X110941904Y-71826380D01*
X110846666Y-71778761D01*
X110799047Y-71731142D01*
X110751428Y-71635904D01*
X110751428Y-71540666D01*
X110799047Y-71445428D01*
X110846666Y-71397809D01*
X110941904Y-71350190D01*
X111132380Y-71302571D01*
X111227619Y-71254952D01*
X111275238Y-71207333D01*
X111322857Y-71112095D01*
X111322857Y-71016857D01*
X111275238Y-70921619D01*
X111227619Y-70874000D01*
X111132380Y-70826380D01*
X110894285Y-70826380D01*
X110751428Y-70874000D01*
X110322857Y-71826380D02*
X110322857Y-70826380D01*
X109894285Y-71826380D02*
X109894285Y-71302571D01*
X109941904Y-71207333D01*
X110037142Y-71159714D01*
X110180000Y-71159714D01*
X110275238Y-71207333D01*
X110322857Y-71254952D01*
X109275238Y-71826380D02*
X109370476Y-71778761D01*
X109418095Y-71731142D01*
X109465714Y-71635904D01*
X109465714Y-71350190D01*
X109418095Y-71254952D01*
X109370476Y-71207333D01*
X109275238Y-71159714D01*
X109132380Y-71159714D01*
X109037142Y-71207333D01*
X108989523Y-71254952D01*
X108941904Y-71350190D01*
X108941904Y-71635904D01*
X108989523Y-71731142D01*
X109037142Y-71778761D01*
X109132380Y-71826380D01*
X109275238Y-71826380D01*
X108513333Y-71826380D02*
X108513333Y-71159714D01*
X108513333Y-71350190D02*
X108465714Y-71254952D01*
X108418095Y-71207333D01*
X108322857Y-71159714D01*
X108227619Y-71159714D01*
X108037142Y-71159714D02*
X107656190Y-71159714D01*
X107894285Y-70826380D02*
X107894285Y-71683523D01*
X107846666Y-71778761D01*
X107751428Y-71826380D01*
X107656190Y-71826380D01*
X106608571Y-71778761D02*
X106465714Y-71826380D01*
X106227619Y-71826380D01*
X106132380Y-71778761D01*
X106084761Y-71731142D01*
X106037142Y-71635904D01*
X106037142Y-71540666D01*
X106084761Y-71445428D01*
X106132380Y-71397809D01*
X106227619Y-71350190D01*
X106418095Y-71302571D01*
X106513333Y-71254952D01*
X106560952Y-71207333D01*
X106608571Y-71112095D01*
X106608571Y-71016857D01*
X106560952Y-70921619D01*
X106513333Y-70874000D01*
X106418095Y-70826380D01*
X106180000Y-70826380D01*
X106037142Y-70874000D01*
X105465714Y-71826380D02*
X105560952Y-71778761D01*
X105608571Y-71731142D01*
X105656190Y-71635904D01*
X105656190Y-71350190D01*
X105608571Y-71254952D01*
X105560952Y-71207333D01*
X105465714Y-71159714D01*
X105322857Y-71159714D01*
X105227619Y-71207333D01*
X105180000Y-71254952D01*
X105132380Y-71350190D01*
X105132380Y-71635904D01*
X105180000Y-71731142D01*
X105227619Y-71778761D01*
X105322857Y-71826380D01*
X105465714Y-71826380D01*
X104275238Y-71778761D02*
X104370476Y-71826380D01*
X104560952Y-71826380D01*
X104656190Y-71778761D01*
X104703809Y-71731142D01*
X104751428Y-71635904D01*
X104751428Y-71350190D01*
X104703809Y-71254952D01*
X104656190Y-71207333D01*
X104560952Y-71159714D01*
X104370476Y-71159714D01*
X104275238Y-71207333D01*
X103846666Y-71826380D02*
X103846666Y-70826380D01*
X103751428Y-71445428D02*
X103465714Y-71826380D01*
X103465714Y-71159714D02*
X103846666Y-71540666D01*
X102656190Y-71778761D02*
X102751428Y-71826380D01*
X102941904Y-71826380D01*
X103037142Y-71778761D01*
X103084761Y-71683523D01*
X103084761Y-71302571D01*
X103037142Y-71207333D01*
X102941904Y-71159714D01*
X102751428Y-71159714D01*
X102656190Y-71207333D01*
X102608571Y-71302571D01*
X102608571Y-71397809D01*
X103084761Y-71493047D01*
X102322857Y-71159714D02*
X101941904Y-71159714D01*
X102180000Y-70826380D02*
X102180000Y-71683523D01*
X102132380Y-71778761D01*
X102037142Y-71826380D01*
X101941904Y-71826380D01*
X124793333Y-73176380D02*
X124793333Y-73890666D01*
X124840952Y-74033523D01*
X124936190Y-74128761D01*
X125079047Y-74176380D01*
X125174285Y-74176380D01*
X124412380Y-73176380D02*
X123793333Y-73176380D01*
X124126666Y-73557333D01*
X123983809Y-73557333D01*
X123888571Y-73604952D01*
X123840952Y-73652571D01*
X123793333Y-73747809D01*
X123793333Y-73985904D01*
X123840952Y-74081142D01*
X123888571Y-74128761D01*
X123983809Y-74176380D01*
X124269523Y-74176380D01*
X124364761Y-74128761D01*
X124412380Y-74081142D01*
X118332285Y-73731380D02*
X118903714Y-73731380D01*
X118618000Y-73731380D02*
X118618000Y-72731380D01*
X118713238Y-72874238D01*
X118808476Y-72969476D01*
X118903714Y-73017095D01*
X125888571Y-71826380D02*
X125888571Y-70826380D01*
X125507619Y-70826380D01*
X125412380Y-70874000D01*
X125364761Y-70921619D01*
X125317142Y-71016857D01*
X125317142Y-71159714D01*
X125364761Y-71254952D01*
X125412380Y-71302571D01*
X125507619Y-71350190D01*
X125888571Y-71350190D01*
X124745714Y-71826380D02*
X124840952Y-71778761D01*
X124888571Y-71683523D01*
X124888571Y-70826380D01*
X123936190Y-71159714D02*
X123936190Y-71826380D01*
X124364761Y-71159714D02*
X124364761Y-71683523D01*
X124317142Y-71778761D01*
X124221904Y-71826380D01*
X124079047Y-71826380D01*
X123983809Y-71778761D01*
X123936190Y-71731142D01*
X123031428Y-71159714D02*
X123031428Y-71969238D01*
X123079047Y-72064476D01*
X123126666Y-72112095D01*
X123221904Y-72159714D01*
X123364761Y-72159714D01*
X123460000Y-72112095D01*
X123031428Y-71778761D02*
X123126666Y-71826380D01*
X123317142Y-71826380D01*
X123412380Y-71778761D01*
X123460000Y-71731142D01*
X123507619Y-71635904D01*
X123507619Y-71350190D01*
X123460000Y-71254952D01*
X123412380Y-71207333D01*
X123317142Y-71159714D01*
X123126666Y-71159714D01*
X123031428Y-71207333D01*
X137094404Y-79636380D02*
X137094404Y-78636380D01*
X136522976Y-79636380D02*
X136951547Y-79064952D01*
X136522976Y-78636380D02*
X137094404Y-79207809D01*
X134808690Y-78684000D02*
X134903928Y-78636380D01*
X135046785Y-78636380D01*
X135189642Y-78684000D01*
X135284880Y-78779238D01*
X135332500Y-78874476D01*
X135380119Y-79064952D01*
X135380119Y-79207809D01*
X135332500Y-79398285D01*
X135284880Y-79493523D01*
X135189642Y-79588761D01*
X135046785Y-79636380D01*
X134951547Y-79636380D01*
X134808690Y-79588761D01*
X134761071Y-79541142D01*
X134761071Y-79207809D01*
X134951547Y-79207809D01*
X134332500Y-79636380D02*
X134332500Y-78636380D01*
X133761071Y-79636380D01*
X133761071Y-78636380D01*
X133284880Y-79636380D02*
X133284880Y-78636380D01*
X133046785Y-78636380D01*
X132903928Y-78684000D01*
X132808690Y-78779238D01*
X132761071Y-78874476D01*
X132713452Y-79064952D01*
X132713452Y-79207809D01*
X132761071Y-79398285D01*
X132808690Y-79493523D01*
X132903928Y-79588761D01*
X133046785Y-79636380D01*
X133284880Y-79636380D01*
X136570595Y-76684000D02*
X136665833Y-76636380D01*
X136808690Y-76636380D01*
X136951547Y-76684000D01*
X137046785Y-76779238D01*
X137094404Y-76874476D01*
X137142023Y-77064952D01*
X137142023Y-77207809D01*
X137094404Y-77398285D01*
X137046785Y-77493523D01*
X136951547Y-77588761D01*
X136808690Y-77636380D01*
X136713452Y-77636380D01*
X136570595Y-77588761D01*
X136522976Y-77541142D01*
X136522976Y-77207809D01*
X136713452Y-77207809D01*
X135332500Y-77636380D02*
X135332500Y-76636380D01*
X135094404Y-76636380D01*
X134951547Y-76684000D01*
X134856309Y-76779238D01*
X134808690Y-76874476D01*
X134761071Y-77064952D01*
X134761071Y-77207809D01*
X134808690Y-77398285D01*
X134856309Y-77493523D01*
X134951547Y-77588761D01*
X135094404Y-77636380D01*
X135332500Y-77636380D01*
X134332500Y-77255428D02*
X133570595Y-77255428D01*
X133951547Y-77636380D02*
X133951547Y-76874476D01*
X137189642Y-74636380D02*
X136951547Y-75636380D01*
X136761071Y-74922095D01*
X136570595Y-75636380D01*
X136332500Y-74636380D01*
X135189642Y-75636380D02*
X135189642Y-74636380D01*
X134951547Y-74636380D01*
X134808690Y-74684000D01*
X134713452Y-74779238D01*
X134665833Y-74874476D01*
X134618214Y-75064952D01*
X134618214Y-75207809D01*
X134665833Y-75398285D01*
X134713452Y-75493523D01*
X134808690Y-75588761D01*
X134951547Y-75636380D01*
X135189642Y-75636380D01*
X134189642Y-75255428D02*
X133427738Y-75255428D01*
X136522976Y-73636380D02*
X136856309Y-73160190D01*
X137094404Y-73636380D02*
X137094404Y-72636380D01*
X136713452Y-72636380D01*
X136618214Y-72684000D01*
X136570595Y-72731619D01*
X136522976Y-72826857D01*
X136522976Y-72969714D01*
X136570595Y-73064952D01*
X136618214Y-73112571D01*
X136713452Y-73160190D01*
X137094404Y-73160190D01*
X135475357Y-72636380D02*
X135142023Y-73636380D01*
X134808690Y-72636380D01*
X133903928Y-73541142D02*
X133951547Y-73588761D01*
X134094404Y-73636380D01*
X134189642Y-73636380D01*
X134332500Y-73588761D01*
X134427738Y-73493523D01*
X134475357Y-73398285D01*
X134522976Y-73207809D01*
X134522976Y-73064952D01*
X134475357Y-72874476D01*
X134427738Y-72779238D01*
X134332500Y-72684000D01*
X134189642Y-72636380D01*
X134094404Y-72636380D01*
X133951547Y-72684000D01*
X133903928Y-72731619D01*
X132903928Y-73541142D02*
X132951547Y-73588761D01*
X133094404Y-73636380D01*
X133189642Y-73636380D01*
X133332500Y-73588761D01*
X133427738Y-73493523D01*
X133475357Y-73398285D01*
X133522976Y-73207809D01*
X133522976Y-73064952D01*
X133475357Y-72874476D01*
X133427738Y-72779238D01*
X133332500Y-72684000D01*
X133189642Y-72636380D01*
X133094404Y-72636380D01*
X132951547Y-72684000D01*
X132903928Y-72731619D01*
X116022380Y-68159714D02*
X116022380Y-67588285D01*
X116022380Y-67874000D02*
X115022380Y-67874000D01*
X115165238Y-67778761D01*
X115260476Y-67683523D01*
X115308095Y-67588285D01*
X115117619Y-68540666D02*
X115070000Y-68588285D01*
X115022380Y-68683523D01*
X115022380Y-68921619D01*
X115070000Y-69016857D01*
X115117619Y-69064476D01*
X115212857Y-69112095D01*
X115308095Y-69112095D01*
X115450952Y-69064476D01*
X116022380Y-68493047D01*
X116022380Y-69112095D01*
X115022380Y-69397809D02*
X116022380Y-69731142D01*
X115022380Y-70064476D01*
X116117619Y-70159714D02*
X116117619Y-70921619D01*
X116022380Y-71159714D02*
X115022380Y-71159714D01*
X115022380Y-71540666D01*
X115070000Y-71635904D01*
X115117619Y-71683523D01*
X115212857Y-71731142D01*
X115355714Y-71731142D01*
X115450952Y-71683523D01*
X115498571Y-71635904D01*
X115546190Y-71540666D01*
X115546190Y-71159714D01*
X116022380Y-72302571D02*
X115974761Y-72207333D01*
X115927142Y-72159714D01*
X115831904Y-72112095D01*
X115546190Y-72112095D01*
X115450952Y-72159714D01*
X115403333Y-72207333D01*
X115355714Y-72302571D01*
X115355714Y-72445428D01*
X115403333Y-72540666D01*
X115450952Y-72588285D01*
X115546190Y-72635904D01*
X115831904Y-72635904D01*
X115927142Y-72588285D01*
X115974761Y-72540666D01*
X116022380Y-72445428D01*
X116022380Y-72302571D01*
X115355714Y-72969238D02*
X116022380Y-73159714D01*
X115546190Y-73350190D01*
X116022380Y-73540666D01*
X115355714Y-73731142D01*
X115974761Y-74493047D02*
X116022380Y-74397809D01*
X116022380Y-74207333D01*
X115974761Y-74112095D01*
X115879523Y-74064476D01*
X115498571Y-74064476D01*
X115403333Y-74112095D01*
X115355714Y-74207333D01*
X115355714Y-74397809D01*
X115403333Y-74493047D01*
X115498571Y-74540666D01*
X115593809Y-74540666D01*
X115689047Y-74064476D01*
X116022380Y-74969238D02*
X115355714Y-74969238D01*
X115546190Y-74969238D02*
X115450952Y-75016857D01*
X115403333Y-75064476D01*
X115355714Y-75159714D01*
X115355714Y-75254952D01*
X105576666Y-81986380D02*
X105910000Y-81510190D01*
X106148095Y-81986380D02*
X106148095Y-80986380D01*
X105767142Y-80986380D01*
X105671904Y-81034000D01*
X105624285Y-81081619D01*
X105576666Y-81176857D01*
X105576666Y-81319714D01*
X105624285Y-81414952D01*
X105671904Y-81462571D01*
X105767142Y-81510190D01*
X106148095Y-81510190D01*
X104624285Y-81986380D02*
X105195714Y-81986380D01*
X104910000Y-81986380D02*
X104910000Y-80986380D01*
X105005238Y-81129238D01*
X105100476Y-81224476D01*
X105195714Y-81272095D01*
X105108047Y-84018380D02*
X105679476Y-84018380D01*
X105393761Y-84018380D02*
X105393761Y-83018380D01*
X105489000Y-83161238D01*
X105584238Y-83256476D01*
X105679476Y-83304095D01*
X104727095Y-83113619D02*
X104679476Y-83066000D01*
X104584238Y-83018380D01*
X104346142Y-83018380D01*
X104250904Y-83066000D01*
X104203285Y-83113619D01*
X104155666Y-83208857D01*
X104155666Y-83304095D01*
X104203285Y-83446952D01*
X104774714Y-84018380D01*
X104155666Y-84018380D01*
X103536619Y-83018380D02*
X103441380Y-83018380D01*
X103346142Y-83066000D01*
X103298523Y-83113619D01*
X103250904Y-83208857D01*
X103203285Y-83399333D01*
X103203285Y-83637428D01*
X103250904Y-83827904D01*
X103298523Y-83923142D01*
X103346142Y-83970761D01*
X103441380Y-84018380D01*
X103536619Y-84018380D01*
X103631857Y-83970761D01*
X103679476Y-83923142D01*
X103727095Y-83827904D01*
X103774714Y-83637428D01*
X103774714Y-83399333D01*
X103727095Y-83208857D01*
X103679476Y-83113619D01*
X103631857Y-83066000D01*
X103536619Y-83018380D01*
X101869952Y-84018380D02*
X101965190Y-83970761D01*
X102012809Y-83923142D01*
X102060428Y-83827904D01*
X102060428Y-83542190D01*
X102012809Y-83446952D01*
X101965190Y-83399333D01*
X101869952Y-83351714D01*
X101727095Y-83351714D01*
X101631857Y-83399333D01*
X101584238Y-83446952D01*
X101536619Y-83542190D01*
X101536619Y-83827904D01*
X101584238Y-83923142D01*
X101631857Y-83970761D01*
X101727095Y-84018380D01*
X101869952Y-84018380D01*
X101108047Y-84018380D02*
X101108047Y-83018380D01*
X100679476Y-84018380D02*
X100679476Y-83494571D01*
X100727095Y-83399333D01*
X100822333Y-83351714D01*
X100965190Y-83351714D01*
X101060428Y-83399333D01*
X101108047Y-83446952D01*
X100203285Y-84018380D02*
X100203285Y-83351714D01*
X100203285Y-83446952D02*
X100155666Y-83399333D01*
X100060428Y-83351714D01*
X99917571Y-83351714D01*
X99822333Y-83399333D01*
X99774714Y-83494571D01*
X99774714Y-84018380D01*
X99774714Y-83494571D02*
X99727095Y-83399333D01*
X99631857Y-83351714D01*
X99489000Y-83351714D01*
X99393761Y-83399333D01*
X99346142Y-83494571D01*
X99346142Y-84018380D01*
M02*
