G04 #@! TF.GenerationSoftware,KiCad,Pcbnew,(5.1.2)-2*
G04 #@! TF.CreationDate,2019-08-10T02:00:27-04:00*
G04 #@! TF.ProjectId,compact-giraffe,636f6d70-6163-4742-9d67-697261666665,rev?*
G04 #@! TF.SameCoordinates,Original*
G04 #@! TF.FileFunction,Soldermask,Bot*
G04 #@! TF.FilePolarity,Negative*
%FSLAX46Y46*%
G04 Gerber Fmt 4.6, Leading zero omitted, Abs format (unit mm)*
G04 Created by KiCad (PCBNEW (5.1.2)-2) date 2019-08-10 02:00:27*
%MOMM*%
%LPD*%
G04 APERTURE LIST*
%ADD10C,0.100000*%
G04 APERTURE END LIST*
D10*
G36*
X111429141Y-99000241D02*
G01*
X111577100Y-99061528D01*
X111710254Y-99150498D01*
X111823500Y-99263744D01*
X111912470Y-99396898D01*
X111973757Y-99544857D01*
X112004999Y-99701924D01*
X112004999Y-99862074D01*
X111973757Y-100019141D01*
X111912470Y-100167100D01*
X111823500Y-100300254D01*
X111710254Y-100413500D01*
X111577100Y-100502470D01*
X111429141Y-100563757D01*
X111272074Y-100594999D01*
X111111924Y-100594999D01*
X110954857Y-100563757D01*
X110806898Y-100502470D01*
X110673744Y-100413500D01*
X110560498Y-100300254D01*
X110471528Y-100167100D01*
X110410241Y-100019141D01*
X110378999Y-99862074D01*
X110378999Y-99701924D01*
X110410241Y-99544857D01*
X110471528Y-99396898D01*
X110560498Y-99263744D01*
X110673744Y-99150498D01*
X110806898Y-99061528D01*
X110954857Y-99000241D01*
X111111924Y-98968999D01*
X111272074Y-98968999D01*
X111429141Y-99000241D01*
X111429141Y-99000241D01*
G37*
G36*
X139369141Y-99000241D02*
G01*
X139517100Y-99061528D01*
X139650254Y-99150498D01*
X139763500Y-99263744D01*
X139852470Y-99396898D01*
X139913757Y-99544857D01*
X139944999Y-99701924D01*
X139944999Y-99862074D01*
X139913757Y-100019141D01*
X139852470Y-100167100D01*
X139763500Y-100300254D01*
X139650254Y-100413500D01*
X139517100Y-100502470D01*
X139369141Y-100563757D01*
X139212074Y-100594999D01*
X139051924Y-100594999D01*
X138894857Y-100563757D01*
X138746898Y-100502470D01*
X138613744Y-100413500D01*
X138500498Y-100300254D01*
X138411528Y-100167100D01*
X138350241Y-100019141D01*
X138318999Y-99862074D01*
X138318999Y-99701924D01*
X138350241Y-99544857D01*
X138411528Y-99396898D01*
X138500498Y-99263744D01*
X138613744Y-99150498D01*
X138746898Y-99061528D01*
X138894857Y-99000241D01*
X139051924Y-98968999D01*
X139212074Y-98968999D01*
X139369141Y-99000241D01*
X139369141Y-99000241D01*
G37*
G36*
X106349141Y-99000241D02*
G01*
X106497100Y-99061528D01*
X106630254Y-99150498D01*
X106743500Y-99263744D01*
X106832470Y-99396898D01*
X106893757Y-99544857D01*
X106924999Y-99701924D01*
X106924999Y-99862074D01*
X106893757Y-100019141D01*
X106832470Y-100167100D01*
X106743500Y-100300254D01*
X106630254Y-100413500D01*
X106497100Y-100502470D01*
X106349141Y-100563757D01*
X106192074Y-100594999D01*
X106031924Y-100594999D01*
X105874857Y-100563757D01*
X105726898Y-100502470D01*
X105593744Y-100413500D01*
X105480498Y-100300254D01*
X105391528Y-100167100D01*
X105330241Y-100019141D01*
X105298999Y-99862074D01*
X105298999Y-99701924D01*
X105330241Y-99544857D01*
X105391528Y-99396898D01*
X105480498Y-99263744D01*
X105593744Y-99150498D01*
X105726898Y-99061528D01*
X105874857Y-99000241D01*
X106031924Y-98968999D01*
X106192074Y-98968999D01*
X106349141Y-99000241D01*
X106349141Y-99000241D01*
G37*
G36*
X108889141Y-99000241D02*
G01*
X109037100Y-99061528D01*
X109170254Y-99150498D01*
X109283500Y-99263744D01*
X109372470Y-99396898D01*
X109433757Y-99544857D01*
X109464999Y-99701924D01*
X109464999Y-99862074D01*
X109433757Y-100019141D01*
X109372470Y-100167100D01*
X109283500Y-100300254D01*
X109170254Y-100413500D01*
X109037100Y-100502470D01*
X108889141Y-100563757D01*
X108732074Y-100594999D01*
X108571924Y-100594999D01*
X108414857Y-100563757D01*
X108266898Y-100502470D01*
X108133744Y-100413500D01*
X108020498Y-100300254D01*
X107931528Y-100167100D01*
X107870241Y-100019141D01*
X107838999Y-99862074D01*
X107838999Y-99701924D01*
X107870241Y-99544857D01*
X107931528Y-99396898D01*
X108020498Y-99263744D01*
X108133744Y-99150498D01*
X108266898Y-99061528D01*
X108414857Y-99000241D01*
X108571924Y-98968999D01*
X108732074Y-98968999D01*
X108889141Y-99000241D01*
X108889141Y-99000241D01*
G37*
G36*
X141909141Y-99000241D02*
G01*
X142057100Y-99061528D01*
X142190254Y-99150498D01*
X142303500Y-99263744D01*
X142392470Y-99396898D01*
X142453757Y-99544857D01*
X142484999Y-99701924D01*
X142484999Y-99862074D01*
X142453757Y-100019141D01*
X142392470Y-100167100D01*
X142303500Y-100300254D01*
X142190254Y-100413500D01*
X142057100Y-100502470D01*
X141909141Y-100563757D01*
X141752074Y-100594999D01*
X141591924Y-100594999D01*
X141434857Y-100563757D01*
X141286898Y-100502470D01*
X141153744Y-100413500D01*
X141040498Y-100300254D01*
X140951528Y-100167100D01*
X140890241Y-100019141D01*
X140858999Y-99862074D01*
X140858999Y-99701924D01*
X140890241Y-99544857D01*
X140951528Y-99396898D01*
X141040498Y-99263744D01*
X141153744Y-99150498D01*
X141286898Y-99061528D01*
X141434857Y-99000241D01*
X141591924Y-98968999D01*
X141752074Y-98968999D01*
X141909141Y-99000241D01*
X141909141Y-99000241D01*
G37*
G36*
X136829141Y-99000241D02*
G01*
X136977100Y-99061528D01*
X137110254Y-99150498D01*
X137223500Y-99263744D01*
X137312470Y-99396898D01*
X137373757Y-99544857D01*
X137404999Y-99701924D01*
X137404999Y-99862074D01*
X137373757Y-100019141D01*
X137312470Y-100167100D01*
X137223500Y-100300254D01*
X137110254Y-100413500D01*
X136977100Y-100502470D01*
X136829141Y-100563757D01*
X136672074Y-100594999D01*
X136511924Y-100594999D01*
X136354857Y-100563757D01*
X136206898Y-100502470D01*
X136073744Y-100413500D01*
X135960498Y-100300254D01*
X135871528Y-100167100D01*
X135810241Y-100019141D01*
X135778999Y-99862074D01*
X135778999Y-99701924D01*
X135810241Y-99544857D01*
X135871528Y-99396898D01*
X135960498Y-99263744D01*
X136073744Y-99150498D01*
X136206898Y-99061528D01*
X136354857Y-99000241D01*
X136511924Y-98968999D01*
X136672074Y-98968999D01*
X136829141Y-99000241D01*
X136829141Y-99000241D01*
G37*
G36*
X134289141Y-99000241D02*
G01*
X134437100Y-99061528D01*
X134570254Y-99150498D01*
X134683500Y-99263744D01*
X134772470Y-99396898D01*
X134833757Y-99544857D01*
X134864999Y-99701924D01*
X134864999Y-99862074D01*
X134833757Y-100019141D01*
X134772470Y-100167100D01*
X134683500Y-100300254D01*
X134570254Y-100413500D01*
X134437100Y-100502470D01*
X134289141Y-100563757D01*
X134132074Y-100594999D01*
X133971924Y-100594999D01*
X133814857Y-100563757D01*
X133666898Y-100502470D01*
X133533744Y-100413500D01*
X133420498Y-100300254D01*
X133331528Y-100167100D01*
X133270241Y-100019141D01*
X133238999Y-99862074D01*
X133238999Y-99701924D01*
X133270241Y-99544857D01*
X133331528Y-99396898D01*
X133420498Y-99263744D01*
X133533744Y-99150498D01*
X133666898Y-99061528D01*
X133814857Y-99000241D01*
X133971924Y-98968999D01*
X134132074Y-98968999D01*
X134289141Y-99000241D01*
X134289141Y-99000241D01*
G37*
G36*
X129209141Y-99000241D02*
G01*
X129357100Y-99061528D01*
X129490254Y-99150498D01*
X129603500Y-99263744D01*
X129692470Y-99396898D01*
X129753757Y-99544857D01*
X129784999Y-99701924D01*
X129784999Y-99862074D01*
X129753757Y-100019141D01*
X129692470Y-100167100D01*
X129603500Y-100300254D01*
X129490254Y-100413500D01*
X129357100Y-100502470D01*
X129209141Y-100563757D01*
X129052074Y-100594999D01*
X128891924Y-100594999D01*
X128734857Y-100563757D01*
X128586898Y-100502470D01*
X128453744Y-100413500D01*
X128340498Y-100300254D01*
X128251528Y-100167100D01*
X128190241Y-100019141D01*
X128158999Y-99862074D01*
X128158999Y-99701924D01*
X128190241Y-99544857D01*
X128251528Y-99396898D01*
X128340498Y-99263744D01*
X128453744Y-99150498D01*
X128586898Y-99061528D01*
X128734857Y-99000241D01*
X128891924Y-98968999D01*
X129052074Y-98968999D01*
X129209141Y-99000241D01*
X129209141Y-99000241D01*
G37*
G36*
X126669141Y-99000241D02*
G01*
X126817100Y-99061528D01*
X126950254Y-99150498D01*
X127063500Y-99263744D01*
X127152470Y-99396898D01*
X127213757Y-99544857D01*
X127244999Y-99701924D01*
X127244999Y-99862074D01*
X127213757Y-100019141D01*
X127152470Y-100167100D01*
X127063500Y-100300254D01*
X126950254Y-100413500D01*
X126817100Y-100502470D01*
X126669141Y-100563757D01*
X126512074Y-100594999D01*
X126351924Y-100594999D01*
X126194857Y-100563757D01*
X126046898Y-100502470D01*
X125913744Y-100413500D01*
X125800498Y-100300254D01*
X125711528Y-100167100D01*
X125650241Y-100019141D01*
X125618999Y-99862074D01*
X125618999Y-99701924D01*
X125650241Y-99544857D01*
X125711528Y-99396898D01*
X125800498Y-99263744D01*
X125913744Y-99150498D01*
X126046898Y-99061528D01*
X126194857Y-99000241D01*
X126351924Y-98968999D01*
X126512074Y-98968999D01*
X126669141Y-99000241D01*
X126669141Y-99000241D01*
G37*
G36*
X124129141Y-99000241D02*
G01*
X124277100Y-99061528D01*
X124410254Y-99150498D01*
X124523500Y-99263744D01*
X124612470Y-99396898D01*
X124673757Y-99544857D01*
X124704999Y-99701924D01*
X124704999Y-99862074D01*
X124673757Y-100019141D01*
X124612470Y-100167100D01*
X124523500Y-100300254D01*
X124410254Y-100413500D01*
X124277100Y-100502470D01*
X124129141Y-100563757D01*
X123972074Y-100594999D01*
X123811924Y-100594999D01*
X123654857Y-100563757D01*
X123506898Y-100502470D01*
X123373744Y-100413500D01*
X123260498Y-100300254D01*
X123171528Y-100167100D01*
X123110241Y-100019141D01*
X123078999Y-99862074D01*
X123078999Y-99701924D01*
X123110241Y-99544857D01*
X123171528Y-99396898D01*
X123260498Y-99263744D01*
X123373744Y-99150498D01*
X123506898Y-99061528D01*
X123654857Y-99000241D01*
X123811924Y-98968999D01*
X123972074Y-98968999D01*
X124129141Y-99000241D01*
X124129141Y-99000241D01*
G37*
G36*
X121589141Y-99000241D02*
G01*
X121737100Y-99061528D01*
X121870254Y-99150498D01*
X121983500Y-99263744D01*
X122072470Y-99396898D01*
X122133757Y-99544857D01*
X122164999Y-99701924D01*
X122164999Y-99862074D01*
X122133757Y-100019141D01*
X122072470Y-100167100D01*
X121983500Y-100300254D01*
X121870254Y-100413500D01*
X121737100Y-100502470D01*
X121589141Y-100563757D01*
X121432074Y-100594999D01*
X121271924Y-100594999D01*
X121114857Y-100563757D01*
X120966898Y-100502470D01*
X120833744Y-100413500D01*
X120720498Y-100300254D01*
X120631528Y-100167100D01*
X120570241Y-100019141D01*
X120538999Y-99862074D01*
X120538999Y-99701924D01*
X120570241Y-99544857D01*
X120631528Y-99396898D01*
X120720498Y-99263744D01*
X120833744Y-99150498D01*
X120966898Y-99061528D01*
X121114857Y-99000241D01*
X121271924Y-98968999D01*
X121432074Y-98968999D01*
X121589141Y-99000241D01*
X121589141Y-99000241D01*
G37*
G36*
X113969141Y-99000241D02*
G01*
X114117100Y-99061528D01*
X114250254Y-99150498D01*
X114363500Y-99263744D01*
X114452470Y-99396898D01*
X114513757Y-99544857D01*
X114544999Y-99701924D01*
X114544999Y-99862074D01*
X114513757Y-100019141D01*
X114452470Y-100167100D01*
X114363500Y-100300254D01*
X114250254Y-100413500D01*
X114117100Y-100502470D01*
X113969141Y-100563757D01*
X113812074Y-100594999D01*
X113651924Y-100594999D01*
X113494857Y-100563757D01*
X113346898Y-100502470D01*
X113213744Y-100413500D01*
X113100498Y-100300254D01*
X113011528Y-100167100D01*
X112950241Y-100019141D01*
X112918999Y-99862074D01*
X112918999Y-99701924D01*
X112950241Y-99544857D01*
X113011528Y-99396898D01*
X113100498Y-99263744D01*
X113213744Y-99150498D01*
X113346898Y-99061528D01*
X113494857Y-99000241D01*
X113651924Y-98968999D01*
X113812074Y-98968999D01*
X113969141Y-99000241D01*
X113969141Y-99000241D01*
G37*
G36*
X131749141Y-99000241D02*
G01*
X131897100Y-99061528D01*
X132030254Y-99150498D01*
X132143500Y-99263744D01*
X132232470Y-99396898D01*
X132293757Y-99544857D01*
X132324999Y-99701924D01*
X132324999Y-99862074D01*
X132293757Y-100019141D01*
X132232470Y-100167100D01*
X132143500Y-100300254D01*
X132030254Y-100413500D01*
X131897100Y-100502470D01*
X131749141Y-100563757D01*
X131592074Y-100594999D01*
X131431924Y-100594999D01*
X131274857Y-100563757D01*
X131126898Y-100502470D01*
X130993744Y-100413500D01*
X130880498Y-100300254D01*
X130791528Y-100167100D01*
X130730241Y-100019141D01*
X130698999Y-99862074D01*
X130698999Y-99701924D01*
X130730241Y-99544857D01*
X130791528Y-99396898D01*
X130880498Y-99263744D01*
X130993744Y-99150498D01*
X131126898Y-99061528D01*
X131274857Y-99000241D01*
X131431924Y-98968999D01*
X131592074Y-98968999D01*
X131749141Y-99000241D01*
X131749141Y-99000241D01*
G37*
G36*
X103107142Y-92118242D02*
G01*
X103255101Y-92179529D01*
X103388255Y-92268499D01*
X103501501Y-92381745D01*
X103590471Y-92514899D01*
X103651758Y-92662858D01*
X103683000Y-92819925D01*
X103683000Y-92980075D01*
X103651758Y-93137142D01*
X103590471Y-93285101D01*
X103501501Y-93418255D01*
X103388255Y-93531501D01*
X103255101Y-93620471D01*
X103107142Y-93681758D01*
X102950075Y-93713000D01*
X102789925Y-93713000D01*
X102632858Y-93681758D01*
X102484899Y-93620471D01*
X102351745Y-93531501D01*
X102238499Y-93418255D01*
X102149529Y-93285101D01*
X102088242Y-93137142D01*
X102057000Y-92980075D01*
X102057000Y-92819925D01*
X102088242Y-92662858D01*
X102149529Y-92514899D01*
X102238499Y-92381745D01*
X102351745Y-92268499D01*
X102484899Y-92179529D01*
X102632858Y-92118242D01*
X102789925Y-92087000D01*
X102950075Y-92087000D01*
X103107142Y-92118242D01*
X103107142Y-92118242D01*
G37*
G36*
X110727142Y-90658242D02*
G01*
X110875101Y-90719529D01*
X111008255Y-90808499D01*
X111121501Y-90921745D01*
X111210471Y-91054899D01*
X111271758Y-91202858D01*
X111303000Y-91359925D01*
X111303000Y-91520075D01*
X111271758Y-91677142D01*
X111210471Y-91825101D01*
X111121501Y-91958255D01*
X111008255Y-92071501D01*
X110875101Y-92160471D01*
X110727142Y-92221758D01*
X110570075Y-92253000D01*
X110409925Y-92253000D01*
X110252858Y-92221758D01*
X110104899Y-92160471D01*
X109971745Y-92071501D01*
X109858499Y-91958255D01*
X109769529Y-91825101D01*
X109708242Y-91677142D01*
X109677000Y-91520075D01*
X109677000Y-91359925D01*
X109708242Y-91202858D01*
X109769529Y-91054899D01*
X109858499Y-90921745D01*
X109971745Y-90808499D01*
X110104899Y-90719529D01*
X110252858Y-90658242D01*
X110409925Y-90627000D01*
X110570075Y-90627000D01*
X110727142Y-90658242D01*
X110727142Y-90658242D01*
G37*
G36*
X118347142Y-90658242D02*
G01*
X118495101Y-90719529D01*
X118628255Y-90808499D01*
X118741501Y-90921745D01*
X118830471Y-91054899D01*
X118891758Y-91202858D01*
X118923000Y-91359925D01*
X118923000Y-91520075D01*
X118891758Y-91677142D01*
X118830471Y-91825101D01*
X118741501Y-91958255D01*
X118628255Y-92071501D01*
X118495101Y-92160471D01*
X118347142Y-92221758D01*
X118190075Y-92253000D01*
X118029925Y-92253000D01*
X117872858Y-92221758D01*
X117724899Y-92160471D01*
X117591745Y-92071501D01*
X117478499Y-91958255D01*
X117389529Y-91825101D01*
X117328242Y-91677142D01*
X117297000Y-91520075D01*
X117297000Y-91359925D01*
X117328242Y-91202858D01*
X117389529Y-91054899D01*
X117478499Y-90921745D01*
X117591745Y-90808499D01*
X117724899Y-90719529D01*
X117872858Y-90658242D01*
X118029925Y-90627000D01*
X118190075Y-90627000D01*
X118347142Y-90658242D01*
X118347142Y-90658242D01*
G37*
G36*
X128507142Y-90658242D02*
G01*
X128655101Y-90719529D01*
X128788255Y-90808499D01*
X128901501Y-90921745D01*
X128990471Y-91054899D01*
X129051758Y-91202858D01*
X129083000Y-91359925D01*
X129083000Y-91520075D01*
X129051758Y-91677142D01*
X128990471Y-91825101D01*
X128901501Y-91958255D01*
X128788255Y-92071501D01*
X128655101Y-92160471D01*
X128507142Y-92221758D01*
X128350075Y-92253000D01*
X128189925Y-92253000D01*
X128032858Y-92221758D01*
X127884899Y-92160471D01*
X127751745Y-92071501D01*
X127638499Y-91958255D01*
X127549529Y-91825101D01*
X127488242Y-91677142D01*
X127457000Y-91520075D01*
X127457000Y-91359925D01*
X127488242Y-91202858D01*
X127549529Y-91054899D01*
X127638499Y-90921745D01*
X127751745Y-90808499D01*
X127884899Y-90719529D01*
X128032858Y-90658242D01*
X128189925Y-90627000D01*
X128350075Y-90627000D01*
X128507142Y-90658242D01*
X128507142Y-90658242D01*
G37*
G36*
X131047142Y-90658242D02*
G01*
X131195101Y-90719529D01*
X131328255Y-90808499D01*
X131441501Y-90921745D01*
X131530471Y-91054899D01*
X131591758Y-91202858D01*
X131623000Y-91359925D01*
X131623000Y-91520075D01*
X131591758Y-91677142D01*
X131530471Y-91825101D01*
X131441501Y-91958255D01*
X131328255Y-92071501D01*
X131195101Y-92160471D01*
X131047142Y-92221758D01*
X130890075Y-92253000D01*
X130729925Y-92253000D01*
X130572858Y-92221758D01*
X130424899Y-92160471D01*
X130291745Y-92071501D01*
X130178499Y-91958255D01*
X130089529Y-91825101D01*
X130028242Y-91677142D01*
X129997000Y-91520075D01*
X129997000Y-91359925D01*
X130028242Y-91202858D01*
X130089529Y-91054899D01*
X130178499Y-90921745D01*
X130291745Y-90808499D01*
X130424899Y-90719529D01*
X130572858Y-90658242D01*
X130729925Y-90627000D01*
X130890075Y-90627000D01*
X131047142Y-90658242D01*
X131047142Y-90658242D01*
G37*
G36*
X133587142Y-90658242D02*
G01*
X133735101Y-90719529D01*
X133868255Y-90808499D01*
X133981501Y-90921745D01*
X134070471Y-91054899D01*
X134131758Y-91202858D01*
X134163000Y-91359925D01*
X134163000Y-91520075D01*
X134131758Y-91677142D01*
X134070471Y-91825101D01*
X133981501Y-91958255D01*
X133868255Y-92071501D01*
X133735101Y-92160471D01*
X133587142Y-92221758D01*
X133430075Y-92253000D01*
X133269925Y-92253000D01*
X133112858Y-92221758D01*
X132964899Y-92160471D01*
X132831745Y-92071501D01*
X132718499Y-91958255D01*
X132629529Y-91825101D01*
X132568242Y-91677142D01*
X132537000Y-91520075D01*
X132537000Y-91359925D01*
X132568242Y-91202858D01*
X132629529Y-91054899D01*
X132718499Y-90921745D01*
X132831745Y-90808499D01*
X132964899Y-90719529D01*
X133112858Y-90658242D01*
X133269925Y-90627000D01*
X133430075Y-90627000D01*
X133587142Y-90658242D01*
X133587142Y-90658242D01*
G37*
G36*
X123427142Y-90658242D02*
G01*
X123575101Y-90719529D01*
X123708255Y-90808499D01*
X123821501Y-90921745D01*
X123910471Y-91054899D01*
X123971758Y-91202858D01*
X124003000Y-91359925D01*
X124003000Y-91520075D01*
X123971758Y-91677142D01*
X123910471Y-91825101D01*
X123821501Y-91958255D01*
X123708255Y-92071501D01*
X123575101Y-92160471D01*
X123427142Y-92221758D01*
X123270075Y-92253000D01*
X123109925Y-92253000D01*
X122952858Y-92221758D01*
X122804899Y-92160471D01*
X122671745Y-92071501D01*
X122558499Y-91958255D01*
X122469529Y-91825101D01*
X122408242Y-91677142D01*
X122377000Y-91520075D01*
X122377000Y-91359925D01*
X122408242Y-91202858D01*
X122469529Y-91054899D01*
X122558499Y-90921745D01*
X122671745Y-90808499D01*
X122804899Y-90719529D01*
X122952858Y-90658242D01*
X123109925Y-90627000D01*
X123270075Y-90627000D01*
X123427142Y-90658242D01*
X123427142Y-90658242D01*
G37*
G36*
X115807142Y-90658242D02*
G01*
X115955101Y-90719529D01*
X116088255Y-90808499D01*
X116201501Y-90921745D01*
X116290471Y-91054899D01*
X116351758Y-91202858D01*
X116383000Y-91359925D01*
X116383000Y-91520075D01*
X116351758Y-91677142D01*
X116290471Y-91825101D01*
X116201501Y-91958255D01*
X116088255Y-92071501D01*
X115955101Y-92160471D01*
X115807142Y-92221758D01*
X115650075Y-92253000D01*
X115489925Y-92253000D01*
X115332858Y-92221758D01*
X115184899Y-92160471D01*
X115051745Y-92071501D01*
X114938499Y-91958255D01*
X114849529Y-91825101D01*
X114788242Y-91677142D01*
X114757000Y-91520075D01*
X114757000Y-91359925D01*
X114788242Y-91202858D01*
X114849529Y-91054899D01*
X114938499Y-90921745D01*
X115051745Y-90808499D01*
X115184899Y-90719529D01*
X115332858Y-90658242D01*
X115489925Y-90627000D01*
X115650075Y-90627000D01*
X115807142Y-90658242D01*
X115807142Y-90658242D01*
G37*
G36*
X138667142Y-90658242D02*
G01*
X138815101Y-90719529D01*
X138948255Y-90808499D01*
X139061501Y-90921745D01*
X139150471Y-91054899D01*
X139211758Y-91202858D01*
X139243000Y-91359925D01*
X139243000Y-91520075D01*
X139211758Y-91677142D01*
X139150471Y-91825101D01*
X139061501Y-91958255D01*
X138948255Y-92071501D01*
X138815101Y-92160471D01*
X138667142Y-92221758D01*
X138510075Y-92253000D01*
X138349925Y-92253000D01*
X138192858Y-92221758D01*
X138044899Y-92160471D01*
X137911745Y-92071501D01*
X137798499Y-91958255D01*
X137709529Y-91825101D01*
X137648242Y-91677142D01*
X137617000Y-91520075D01*
X137617000Y-91359925D01*
X137648242Y-91202858D01*
X137709529Y-91054899D01*
X137798499Y-90921745D01*
X137911745Y-90808499D01*
X138044899Y-90719529D01*
X138192858Y-90658242D01*
X138349925Y-90627000D01*
X138510075Y-90627000D01*
X138667142Y-90658242D01*
X138667142Y-90658242D01*
G37*
G36*
X113267142Y-90658242D02*
G01*
X113415101Y-90719529D01*
X113548255Y-90808499D01*
X113661501Y-90921745D01*
X113750471Y-91054899D01*
X113811758Y-91202858D01*
X113843000Y-91359925D01*
X113843000Y-91520075D01*
X113811758Y-91677142D01*
X113750471Y-91825101D01*
X113661501Y-91958255D01*
X113548255Y-92071501D01*
X113415101Y-92160471D01*
X113267142Y-92221758D01*
X113110075Y-92253000D01*
X112949925Y-92253000D01*
X112792858Y-92221758D01*
X112644899Y-92160471D01*
X112511745Y-92071501D01*
X112398499Y-91958255D01*
X112309529Y-91825101D01*
X112248242Y-91677142D01*
X112217000Y-91520075D01*
X112217000Y-91359925D01*
X112248242Y-91202858D01*
X112309529Y-91054899D01*
X112398499Y-90921745D01*
X112511745Y-90808499D01*
X112644899Y-90719529D01*
X112792858Y-90658242D01*
X112949925Y-90627000D01*
X113110075Y-90627000D01*
X113267142Y-90658242D01*
X113267142Y-90658242D01*
G37*
G36*
X141207142Y-90658242D02*
G01*
X141355101Y-90719529D01*
X141488255Y-90808499D01*
X141601501Y-90921745D01*
X141690471Y-91054899D01*
X141751758Y-91202858D01*
X141783000Y-91359925D01*
X141783000Y-91520075D01*
X141751758Y-91677142D01*
X141690471Y-91825101D01*
X141601501Y-91958255D01*
X141488255Y-92071501D01*
X141355101Y-92160471D01*
X141207142Y-92221758D01*
X141050075Y-92253000D01*
X140889925Y-92253000D01*
X140732858Y-92221758D01*
X140584899Y-92160471D01*
X140451745Y-92071501D01*
X140338499Y-91958255D01*
X140249529Y-91825101D01*
X140188242Y-91677142D01*
X140157000Y-91520075D01*
X140157000Y-91359925D01*
X140188242Y-91202858D01*
X140249529Y-91054899D01*
X140338499Y-90921745D01*
X140451745Y-90808499D01*
X140584899Y-90719529D01*
X140732858Y-90658242D01*
X140889925Y-90627000D01*
X141050075Y-90627000D01*
X141207142Y-90658242D01*
X141207142Y-90658242D01*
G37*
G36*
X136127142Y-90658242D02*
G01*
X136275101Y-90719529D01*
X136408255Y-90808499D01*
X136521501Y-90921745D01*
X136610471Y-91054899D01*
X136671758Y-91202858D01*
X136703000Y-91359925D01*
X136703000Y-91520075D01*
X136671758Y-91677142D01*
X136610471Y-91825101D01*
X136521501Y-91958255D01*
X136408255Y-92071501D01*
X136275101Y-92160471D01*
X136127142Y-92221758D01*
X135970075Y-92253000D01*
X135809925Y-92253000D01*
X135652858Y-92221758D01*
X135504899Y-92160471D01*
X135371745Y-92071501D01*
X135258499Y-91958255D01*
X135169529Y-91825101D01*
X135108242Y-91677142D01*
X135077000Y-91520075D01*
X135077000Y-91359925D01*
X135108242Y-91202858D01*
X135169529Y-91054899D01*
X135258499Y-90921745D01*
X135371745Y-90808499D01*
X135504899Y-90719529D01*
X135652858Y-90658242D01*
X135809925Y-90627000D01*
X135970075Y-90627000D01*
X136127142Y-90658242D01*
X136127142Y-90658242D01*
G37*
G36*
X120887142Y-90658242D02*
G01*
X121035101Y-90719529D01*
X121168255Y-90808499D01*
X121281501Y-90921745D01*
X121370471Y-91054899D01*
X121431758Y-91202858D01*
X121463000Y-91359925D01*
X121463000Y-91520075D01*
X121431758Y-91677142D01*
X121370471Y-91825101D01*
X121281501Y-91958255D01*
X121168255Y-92071501D01*
X121035101Y-92160471D01*
X120887142Y-92221758D01*
X120730075Y-92253000D01*
X120569925Y-92253000D01*
X120412858Y-92221758D01*
X120264899Y-92160471D01*
X120131745Y-92071501D01*
X120018499Y-91958255D01*
X119929529Y-91825101D01*
X119868242Y-91677142D01*
X119837000Y-91520075D01*
X119837000Y-91359925D01*
X119868242Y-91202858D01*
X119929529Y-91054899D01*
X120018499Y-90921745D01*
X120131745Y-90808499D01*
X120264899Y-90719529D01*
X120412858Y-90658242D01*
X120569925Y-90627000D01*
X120730075Y-90627000D01*
X120887142Y-90658242D01*
X120887142Y-90658242D01*
G37*
G36*
X103107142Y-90118242D02*
G01*
X103255101Y-90179529D01*
X103388255Y-90268499D01*
X103501501Y-90381745D01*
X103590471Y-90514899D01*
X103651758Y-90662858D01*
X103683000Y-90819925D01*
X103683000Y-90980075D01*
X103651758Y-91137142D01*
X103590471Y-91285101D01*
X103501501Y-91418255D01*
X103388255Y-91531501D01*
X103255101Y-91620471D01*
X103107142Y-91681758D01*
X102950075Y-91713000D01*
X102789925Y-91713000D01*
X102632858Y-91681758D01*
X102484899Y-91620471D01*
X102351745Y-91531501D01*
X102238499Y-91418255D01*
X102149529Y-91285101D01*
X102088242Y-91137142D01*
X102057000Y-90980075D01*
X102057000Y-90819925D01*
X102088242Y-90662858D01*
X102149529Y-90514899D01*
X102238499Y-90381745D01*
X102351745Y-90268499D01*
X102484899Y-90179529D01*
X102632858Y-90118242D01*
X102789925Y-90087000D01*
X102950075Y-90087000D01*
X103107142Y-90118242D01*
X103107142Y-90118242D01*
G37*
G36*
X125967142Y-89388242D02*
G01*
X126115101Y-89449529D01*
X126248255Y-89538499D01*
X126361501Y-89651745D01*
X126450471Y-89784899D01*
X126511758Y-89932858D01*
X126543000Y-90089925D01*
X126543000Y-90250075D01*
X126511758Y-90407142D01*
X126450471Y-90555101D01*
X126361501Y-90688255D01*
X126248255Y-90801501D01*
X126115101Y-90890471D01*
X125967142Y-90951758D01*
X125810075Y-90983000D01*
X125649925Y-90983000D01*
X125492858Y-90951758D01*
X125344899Y-90890471D01*
X125211745Y-90801501D01*
X125098499Y-90688255D01*
X125009529Y-90555101D01*
X124948242Y-90407142D01*
X124917000Y-90250075D01*
X124917000Y-90089925D01*
X124948242Y-89932858D01*
X125009529Y-89784899D01*
X125098499Y-89651745D01*
X125211745Y-89538499D01*
X125344899Y-89449529D01*
X125492858Y-89388242D01*
X125649925Y-89357000D01*
X125810075Y-89357000D01*
X125967142Y-89388242D01*
X125967142Y-89388242D01*
G37*
G36*
X138667142Y-88118242D02*
G01*
X138815101Y-88179529D01*
X138948255Y-88268499D01*
X139061501Y-88381745D01*
X139150471Y-88514899D01*
X139211758Y-88662858D01*
X139243000Y-88819925D01*
X139243000Y-88980075D01*
X139211758Y-89137142D01*
X139150471Y-89285101D01*
X139061501Y-89418255D01*
X138948255Y-89531501D01*
X138815101Y-89620471D01*
X138667142Y-89681758D01*
X138510075Y-89713000D01*
X138349925Y-89713000D01*
X138192858Y-89681758D01*
X138044899Y-89620471D01*
X137911745Y-89531501D01*
X137798499Y-89418255D01*
X137709529Y-89285101D01*
X137648242Y-89137142D01*
X137617000Y-88980075D01*
X137617000Y-88819925D01*
X137648242Y-88662858D01*
X137709529Y-88514899D01*
X137798499Y-88381745D01*
X137911745Y-88268499D01*
X138044899Y-88179529D01*
X138192858Y-88118242D01*
X138349925Y-88087000D01*
X138510075Y-88087000D01*
X138667142Y-88118242D01*
X138667142Y-88118242D01*
G37*
G36*
X141207142Y-88118242D02*
G01*
X141355101Y-88179529D01*
X141488255Y-88268499D01*
X141601501Y-88381745D01*
X141690471Y-88514899D01*
X141751758Y-88662858D01*
X141783000Y-88819925D01*
X141783000Y-88980075D01*
X141751758Y-89137142D01*
X141690471Y-89285101D01*
X141601501Y-89418255D01*
X141488255Y-89531501D01*
X141355101Y-89620471D01*
X141207142Y-89681758D01*
X141050075Y-89713000D01*
X140889925Y-89713000D01*
X140732858Y-89681758D01*
X140584899Y-89620471D01*
X140451745Y-89531501D01*
X140338499Y-89418255D01*
X140249529Y-89285101D01*
X140188242Y-89137142D01*
X140157000Y-88980075D01*
X140157000Y-88819925D01*
X140188242Y-88662858D01*
X140249529Y-88514899D01*
X140338499Y-88381745D01*
X140451745Y-88268499D01*
X140584899Y-88179529D01*
X140732858Y-88118242D01*
X140889925Y-88087000D01*
X141050075Y-88087000D01*
X141207142Y-88118242D01*
X141207142Y-88118242D01*
G37*
G36*
X120887142Y-88118242D02*
G01*
X121035101Y-88179529D01*
X121168255Y-88268499D01*
X121281501Y-88381745D01*
X121370471Y-88514899D01*
X121431758Y-88662858D01*
X121463000Y-88819925D01*
X121463000Y-88980075D01*
X121431758Y-89137142D01*
X121370471Y-89285101D01*
X121281501Y-89418255D01*
X121168255Y-89531501D01*
X121035101Y-89620471D01*
X120887142Y-89681758D01*
X120730075Y-89713000D01*
X120569925Y-89713000D01*
X120412858Y-89681758D01*
X120264899Y-89620471D01*
X120131745Y-89531501D01*
X120018499Y-89418255D01*
X119929529Y-89285101D01*
X119868242Y-89137142D01*
X119837000Y-88980075D01*
X119837000Y-88819925D01*
X119868242Y-88662858D01*
X119929529Y-88514899D01*
X120018499Y-88381745D01*
X120131745Y-88268499D01*
X120264899Y-88179529D01*
X120412858Y-88118242D01*
X120569925Y-88087000D01*
X120730075Y-88087000D01*
X120887142Y-88118242D01*
X120887142Y-88118242D01*
G37*
G36*
X118347142Y-88118242D02*
G01*
X118495101Y-88179529D01*
X118628255Y-88268499D01*
X118741501Y-88381745D01*
X118830471Y-88514899D01*
X118891758Y-88662858D01*
X118923000Y-88819925D01*
X118923000Y-88980075D01*
X118891758Y-89137142D01*
X118830471Y-89285101D01*
X118741501Y-89418255D01*
X118628255Y-89531501D01*
X118495101Y-89620471D01*
X118347142Y-89681758D01*
X118190075Y-89713000D01*
X118029925Y-89713000D01*
X117872858Y-89681758D01*
X117724899Y-89620471D01*
X117591745Y-89531501D01*
X117478499Y-89418255D01*
X117389529Y-89285101D01*
X117328242Y-89137142D01*
X117297000Y-88980075D01*
X117297000Y-88819925D01*
X117328242Y-88662858D01*
X117389529Y-88514899D01*
X117478499Y-88381745D01*
X117591745Y-88268499D01*
X117724899Y-88179529D01*
X117872858Y-88118242D01*
X118029925Y-88087000D01*
X118190075Y-88087000D01*
X118347142Y-88118242D01*
X118347142Y-88118242D01*
G37*
G36*
X115807142Y-88118242D02*
G01*
X115955101Y-88179529D01*
X116088255Y-88268499D01*
X116201501Y-88381745D01*
X116290471Y-88514899D01*
X116351758Y-88662858D01*
X116383000Y-88819925D01*
X116383000Y-88980075D01*
X116351758Y-89137142D01*
X116290471Y-89285101D01*
X116201501Y-89418255D01*
X116088255Y-89531501D01*
X115955101Y-89620471D01*
X115807142Y-89681758D01*
X115650075Y-89713000D01*
X115489925Y-89713000D01*
X115332858Y-89681758D01*
X115184899Y-89620471D01*
X115051745Y-89531501D01*
X114938499Y-89418255D01*
X114849529Y-89285101D01*
X114788242Y-89137142D01*
X114757000Y-88980075D01*
X114757000Y-88819925D01*
X114788242Y-88662858D01*
X114849529Y-88514899D01*
X114938499Y-88381745D01*
X115051745Y-88268499D01*
X115184899Y-88179529D01*
X115332858Y-88118242D01*
X115489925Y-88087000D01*
X115650075Y-88087000D01*
X115807142Y-88118242D01*
X115807142Y-88118242D01*
G37*
G36*
X123427142Y-88118242D02*
G01*
X123575101Y-88179529D01*
X123708255Y-88268499D01*
X123821501Y-88381745D01*
X123910471Y-88514899D01*
X123971758Y-88662858D01*
X124003000Y-88819925D01*
X124003000Y-88980075D01*
X123971758Y-89137142D01*
X123910471Y-89285101D01*
X123821501Y-89418255D01*
X123708255Y-89531501D01*
X123575101Y-89620471D01*
X123427142Y-89681758D01*
X123270075Y-89713000D01*
X123109925Y-89713000D01*
X122952858Y-89681758D01*
X122804899Y-89620471D01*
X122671745Y-89531501D01*
X122558499Y-89418255D01*
X122469529Y-89285101D01*
X122408242Y-89137142D01*
X122377000Y-88980075D01*
X122377000Y-88819925D01*
X122408242Y-88662858D01*
X122469529Y-88514899D01*
X122558499Y-88381745D01*
X122671745Y-88268499D01*
X122804899Y-88179529D01*
X122952858Y-88118242D01*
X123109925Y-88087000D01*
X123270075Y-88087000D01*
X123427142Y-88118242D01*
X123427142Y-88118242D01*
G37*
G36*
X133587142Y-88118242D02*
G01*
X133735101Y-88179529D01*
X133868255Y-88268499D01*
X133981501Y-88381745D01*
X134070471Y-88514899D01*
X134131758Y-88662858D01*
X134163000Y-88819925D01*
X134163000Y-88980075D01*
X134131758Y-89137142D01*
X134070471Y-89285101D01*
X133981501Y-89418255D01*
X133868255Y-89531501D01*
X133735101Y-89620471D01*
X133587142Y-89681758D01*
X133430075Y-89713000D01*
X133269925Y-89713000D01*
X133112858Y-89681758D01*
X132964899Y-89620471D01*
X132831745Y-89531501D01*
X132718499Y-89418255D01*
X132629529Y-89285101D01*
X132568242Y-89137142D01*
X132537000Y-88980075D01*
X132537000Y-88819925D01*
X132568242Y-88662858D01*
X132629529Y-88514899D01*
X132718499Y-88381745D01*
X132831745Y-88268499D01*
X132964899Y-88179529D01*
X133112858Y-88118242D01*
X133269925Y-88087000D01*
X133430075Y-88087000D01*
X133587142Y-88118242D01*
X133587142Y-88118242D01*
G37*
G36*
X136127142Y-88118242D02*
G01*
X136275101Y-88179529D01*
X136408255Y-88268499D01*
X136521501Y-88381745D01*
X136610471Y-88514899D01*
X136671758Y-88662858D01*
X136703000Y-88819925D01*
X136703000Y-88980075D01*
X136671758Y-89137142D01*
X136610471Y-89285101D01*
X136521501Y-89418255D01*
X136408255Y-89531501D01*
X136275101Y-89620471D01*
X136127142Y-89681758D01*
X135970075Y-89713000D01*
X135809925Y-89713000D01*
X135652858Y-89681758D01*
X135504899Y-89620471D01*
X135371745Y-89531501D01*
X135258499Y-89418255D01*
X135169529Y-89285101D01*
X135108242Y-89137142D01*
X135077000Y-88980075D01*
X135077000Y-88819925D01*
X135108242Y-88662858D01*
X135169529Y-88514899D01*
X135258499Y-88381745D01*
X135371745Y-88268499D01*
X135504899Y-88179529D01*
X135652858Y-88118242D01*
X135809925Y-88087000D01*
X135970075Y-88087000D01*
X136127142Y-88118242D01*
X136127142Y-88118242D01*
G37*
G36*
X131047142Y-88118242D02*
G01*
X131195101Y-88179529D01*
X131328255Y-88268499D01*
X131441501Y-88381745D01*
X131530471Y-88514899D01*
X131591758Y-88662858D01*
X131623000Y-88819925D01*
X131623000Y-88980075D01*
X131591758Y-89137142D01*
X131530471Y-89285101D01*
X131441501Y-89418255D01*
X131328255Y-89531501D01*
X131195101Y-89620471D01*
X131047142Y-89681758D01*
X130890075Y-89713000D01*
X130729925Y-89713000D01*
X130572858Y-89681758D01*
X130424899Y-89620471D01*
X130291745Y-89531501D01*
X130178499Y-89418255D01*
X130089529Y-89285101D01*
X130028242Y-89137142D01*
X129997000Y-88980075D01*
X129997000Y-88819925D01*
X130028242Y-88662858D01*
X130089529Y-88514899D01*
X130178499Y-88381745D01*
X130291745Y-88268499D01*
X130424899Y-88179529D01*
X130572858Y-88118242D01*
X130729925Y-88087000D01*
X130890075Y-88087000D01*
X131047142Y-88118242D01*
X131047142Y-88118242D01*
G37*
G36*
X113267142Y-88118242D02*
G01*
X113415101Y-88179529D01*
X113548255Y-88268499D01*
X113661501Y-88381745D01*
X113750471Y-88514899D01*
X113811758Y-88662858D01*
X113843000Y-88819925D01*
X113843000Y-88980075D01*
X113811758Y-89137142D01*
X113750471Y-89285101D01*
X113661501Y-89418255D01*
X113548255Y-89531501D01*
X113415101Y-89620471D01*
X113267142Y-89681758D01*
X113110075Y-89713000D01*
X112949925Y-89713000D01*
X112792858Y-89681758D01*
X112644899Y-89620471D01*
X112511745Y-89531501D01*
X112398499Y-89418255D01*
X112309529Y-89285101D01*
X112248242Y-89137142D01*
X112217000Y-88980075D01*
X112217000Y-88819925D01*
X112248242Y-88662858D01*
X112309529Y-88514899D01*
X112398499Y-88381745D01*
X112511745Y-88268499D01*
X112644899Y-88179529D01*
X112792858Y-88118242D01*
X112949925Y-88087000D01*
X113110075Y-88087000D01*
X113267142Y-88118242D01*
X113267142Y-88118242D01*
G37*
G36*
X110727142Y-88118242D02*
G01*
X110875101Y-88179529D01*
X111008255Y-88268499D01*
X111121501Y-88381745D01*
X111210471Y-88514899D01*
X111271758Y-88662858D01*
X111303000Y-88819925D01*
X111303000Y-88980075D01*
X111271758Y-89137142D01*
X111210471Y-89285101D01*
X111121501Y-89418255D01*
X111008255Y-89531501D01*
X110875101Y-89620471D01*
X110727142Y-89681758D01*
X110570075Y-89713000D01*
X110409925Y-89713000D01*
X110252858Y-89681758D01*
X110104899Y-89620471D01*
X109971745Y-89531501D01*
X109858499Y-89418255D01*
X109769529Y-89285101D01*
X109708242Y-89137142D01*
X109677000Y-88980075D01*
X109677000Y-88819925D01*
X109708242Y-88662858D01*
X109769529Y-88514899D01*
X109858499Y-88381745D01*
X109971745Y-88268499D01*
X110104899Y-88179529D01*
X110252858Y-88118242D01*
X110409925Y-88087000D01*
X110570075Y-88087000D01*
X110727142Y-88118242D01*
X110727142Y-88118242D01*
G37*
G36*
X103107142Y-88118242D02*
G01*
X103255101Y-88179529D01*
X103388255Y-88268499D01*
X103501501Y-88381745D01*
X103590471Y-88514899D01*
X103651758Y-88662858D01*
X103683000Y-88819925D01*
X103683000Y-88980075D01*
X103651758Y-89137142D01*
X103590471Y-89285101D01*
X103501501Y-89418255D01*
X103388255Y-89531501D01*
X103255101Y-89620471D01*
X103107142Y-89681758D01*
X102950075Y-89713000D01*
X102789925Y-89713000D01*
X102632858Y-89681758D01*
X102484899Y-89620471D01*
X102351745Y-89531501D01*
X102238499Y-89418255D01*
X102149529Y-89285101D01*
X102088242Y-89137142D01*
X102057000Y-88980075D01*
X102057000Y-88819925D01*
X102088242Y-88662858D01*
X102149529Y-88514899D01*
X102238499Y-88381745D01*
X102351745Y-88268499D01*
X102484899Y-88179529D01*
X102632858Y-88118242D01*
X102789925Y-88087000D01*
X102950075Y-88087000D01*
X103107142Y-88118242D01*
X103107142Y-88118242D01*
G37*
G36*
X128507142Y-88118242D02*
G01*
X128655101Y-88179529D01*
X128788255Y-88268499D01*
X128901501Y-88381745D01*
X128990471Y-88514899D01*
X129051758Y-88662858D01*
X129083000Y-88819925D01*
X129083000Y-88980075D01*
X129051758Y-89137142D01*
X128990471Y-89285101D01*
X128901501Y-89418255D01*
X128788255Y-89531501D01*
X128655101Y-89620471D01*
X128507142Y-89681758D01*
X128350075Y-89713000D01*
X128189925Y-89713000D01*
X128032858Y-89681758D01*
X127884899Y-89620471D01*
X127751745Y-89531501D01*
X127638499Y-89418255D01*
X127549529Y-89285101D01*
X127488242Y-89137142D01*
X127457000Y-88980075D01*
X127457000Y-88819925D01*
X127488242Y-88662858D01*
X127549529Y-88514899D01*
X127638499Y-88381745D01*
X127751745Y-88268499D01*
X127884899Y-88179529D01*
X128032858Y-88118242D01*
X128189925Y-88087000D01*
X128350075Y-88087000D01*
X128507142Y-88118242D01*
X128507142Y-88118242D01*
G37*
G36*
X103107142Y-86118242D02*
G01*
X103255101Y-86179529D01*
X103388255Y-86268499D01*
X103501501Y-86381745D01*
X103590471Y-86514899D01*
X103651758Y-86662858D01*
X103683000Y-86819925D01*
X103683000Y-86980075D01*
X103651758Y-87137142D01*
X103590471Y-87285101D01*
X103501501Y-87418255D01*
X103388255Y-87531501D01*
X103255101Y-87620471D01*
X103107142Y-87681758D01*
X102950075Y-87713000D01*
X102789925Y-87713000D01*
X102632858Y-87681758D01*
X102484899Y-87620471D01*
X102351745Y-87531501D01*
X102238499Y-87418255D01*
X102149529Y-87285101D01*
X102088242Y-87137142D01*
X102057000Y-86980075D01*
X102057000Y-86819925D01*
X102088242Y-86662858D01*
X102149529Y-86514899D01*
X102238499Y-86381745D01*
X102351745Y-86268499D01*
X102484899Y-86179529D01*
X102632858Y-86118242D01*
X102789925Y-86087000D01*
X102950075Y-86087000D01*
X103107142Y-86118242D01*
X103107142Y-86118242D01*
G37*
G36*
X116684999Y-79209737D02*
G01*
X116694608Y-79212652D01*
X116703472Y-79217390D01*
X116711237Y-79223763D01*
X116721448Y-79236206D01*
X116728378Y-79246575D01*
X116745705Y-79263902D01*
X116766080Y-79277515D01*
X116788720Y-79286891D01*
X116812753Y-79291671D01*
X116837257Y-79291670D01*
X116861290Y-79286888D01*
X116883929Y-79277510D01*
X116904302Y-79263895D01*
X116921629Y-79246568D01*
X116928558Y-79236198D01*
X116938763Y-79223763D01*
X116946528Y-79217390D01*
X116955392Y-79212652D01*
X116965001Y-79209737D01*
X116981140Y-79208148D01*
X117468861Y-79208148D01*
X117487199Y-79209954D01*
X117499450Y-79210556D01*
X117517869Y-79210556D01*
X117540149Y-79212750D01*
X117624233Y-79229476D01*
X117645660Y-79235976D01*
X117724858Y-79268780D01*
X117730303Y-79271691D01*
X117730309Y-79271693D01*
X117739169Y-79276429D01*
X117739173Y-79276432D01*
X117744614Y-79279340D01*
X117815899Y-79326971D01*
X117833204Y-79341172D01*
X117893828Y-79401796D01*
X117908029Y-79419101D01*
X117955660Y-79490386D01*
X117958568Y-79495827D01*
X117958571Y-79495831D01*
X117963307Y-79504691D01*
X117963309Y-79504697D01*
X117966220Y-79510142D01*
X117999024Y-79589340D01*
X118005524Y-79610767D01*
X118022250Y-79694851D01*
X118024444Y-79717131D01*
X118024444Y-79735550D01*
X118025046Y-79747801D01*
X118026852Y-79766139D01*
X118026852Y-80253862D01*
X118025046Y-80272199D01*
X118024444Y-80284450D01*
X118024444Y-80302869D01*
X118022250Y-80325149D01*
X118005524Y-80409233D01*
X117999024Y-80430660D01*
X117966220Y-80509858D01*
X117963309Y-80515303D01*
X117963307Y-80515309D01*
X117958571Y-80524169D01*
X117958568Y-80524173D01*
X117955660Y-80529614D01*
X117908029Y-80600899D01*
X117893828Y-80618204D01*
X117833204Y-80678828D01*
X117815899Y-80693029D01*
X117744614Y-80740660D01*
X117739173Y-80743568D01*
X117739169Y-80743571D01*
X117730309Y-80748307D01*
X117730303Y-80748309D01*
X117724858Y-80751220D01*
X117645660Y-80784024D01*
X117624233Y-80790524D01*
X117540149Y-80807250D01*
X117517869Y-80809444D01*
X117499450Y-80809444D01*
X117487199Y-80810046D01*
X117468862Y-80811852D01*
X116981140Y-80811852D01*
X116965001Y-80810263D01*
X116955392Y-80807348D01*
X116946528Y-80802610D01*
X116938763Y-80796237D01*
X116928552Y-80783794D01*
X116921622Y-80773425D01*
X116904295Y-80756098D01*
X116883920Y-80742485D01*
X116861280Y-80733109D01*
X116837247Y-80728329D01*
X116812743Y-80728330D01*
X116788710Y-80733112D01*
X116766071Y-80742490D01*
X116745698Y-80756105D01*
X116728371Y-80773432D01*
X116721442Y-80783802D01*
X116711237Y-80796237D01*
X116703472Y-80802610D01*
X116694608Y-80807348D01*
X116684999Y-80810263D01*
X116668860Y-80811852D01*
X116181138Y-80811852D01*
X116162801Y-80810046D01*
X116150550Y-80809444D01*
X116132131Y-80809444D01*
X116109851Y-80807250D01*
X116025767Y-80790524D01*
X116004340Y-80784024D01*
X115925142Y-80751220D01*
X115919697Y-80748309D01*
X115919691Y-80748307D01*
X115910831Y-80743571D01*
X115910827Y-80743568D01*
X115905386Y-80740660D01*
X115834101Y-80693029D01*
X115816796Y-80678828D01*
X115756172Y-80618204D01*
X115741971Y-80600899D01*
X115694340Y-80529614D01*
X115691432Y-80524173D01*
X115691429Y-80524169D01*
X115686693Y-80515309D01*
X115686691Y-80515303D01*
X115683780Y-80509858D01*
X115650976Y-80430660D01*
X115644476Y-80409233D01*
X115627750Y-80325149D01*
X115625556Y-80302869D01*
X115625556Y-80284450D01*
X115624954Y-80272199D01*
X115623148Y-80253862D01*
X115623148Y-79766139D01*
X115624954Y-79747801D01*
X115625556Y-79735550D01*
X115625556Y-79717131D01*
X115627750Y-79694851D01*
X115644476Y-79610767D01*
X115650976Y-79589340D01*
X115683780Y-79510142D01*
X115686691Y-79504697D01*
X115686693Y-79504691D01*
X115691429Y-79495831D01*
X115691432Y-79495827D01*
X115694340Y-79490386D01*
X115741971Y-79419101D01*
X115756172Y-79401796D01*
X115816796Y-79341172D01*
X115834101Y-79326971D01*
X115905386Y-79279340D01*
X115910827Y-79276432D01*
X115910831Y-79276429D01*
X115919691Y-79271693D01*
X115919697Y-79271691D01*
X115925142Y-79268780D01*
X116004340Y-79235976D01*
X116025767Y-79229476D01*
X116109851Y-79212750D01*
X116132131Y-79210556D01*
X116150550Y-79210556D01*
X116162801Y-79209954D01*
X116181139Y-79208148D01*
X116668860Y-79208148D01*
X116684999Y-79209737D01*
X116684999Y-79209737D01*
G37*
G36*
X108889141Y-78680241D02*
G01*
X109037100Y-78741528D01*
X109170254Y-78830498D01*
X109283500Y-78943744D01*
X109372470Y-79076898D01*
X109433757Y-79224857D01*
X109464999Y-79381924D01*
X109464999Y-79542074D01*
X109433757Y-79699141D01*
X109372470Y-79847100D01*
X109283500Y-79980254D01*
X109170254Y-80093500D01*
X109037100Y-80182470D01*
X108889141Y-80243757D01*
X108732074Y-80274999D01*
X108571924Y-80274999D01*
X108414857Y-80243757D01*
X108266898Y-80182470D01*
X108133744Y-80093500D01*
X108020498Y-79980254D01*
X107931528Y-79847100D01*
X107870241Y-79699141D01*
X107838999Y-79542074D01*
X107838999Y-79381924D01*
X107870241Y-79224857D01*
X107931528Y-79076898D01*
X108020498Y-78943744D01*
X108133744Y-78830498D01*
X108266898Y-78741528D01*
X108414857Y-78680241D01*
X108571924Y-78648999D01*
X108732074Y-78648999D01*
X108889141Y-78680241D01*
X108889141Y-78680241D01*
G37*
G36*
X141909141Y-78680241D02*
G01*
X142057100Y-78741528D01*
X142190254Y-78830498D01*
X142303500Y-78943744D01*
X142392470Y-79076898D01*
X142453757Y-79224857D01*
X142484999Y-79381924D01*
X142484999Y-79542074D01*
X142453757Y-79699141D01*
X142392470Y-79847100D01*
X142303500Y-79980254D01*
X142190254Y-80093500D01*
X142057100Y-80182470D01*
X141909141Y-80243757D01*
X141752074Y-80274999D01*
X141591924Y-80274999D01*
X141434857Y-80243757D01*
X141286898Y-80182470D01*
X141153744Y-80093500D01*
X141040498Y-79980254D01*
X140951528Y-79847100D01*
X140890241Y-79699141D01*
X140858999Y-79542074D01*
X140858999Y-79381924D01*
X140890241Y-79224857D01*
X140951528Y-79076898D01*
X141040498Y-78943744D01*
X141153744Y-78830498D01*
X141286898Y-78741528D01*
X141434857Y-78680241D01*
X141591924Y-78648999D01*
X141752074Y-78648999D01*
X141909141Y-78680241D01*
X141909141Y-78680241D01*
G37*
G36*
X139369141Y-78680241D02*
G01*
X139517100Y-78741528D01*
X139650254Y-78830498D01*
X139763500Y-78943744D01*
X139852470Y-79076898D01*
X139913757Y-79224857D01*
X139944999Y-79381924D01*
X139944999Y-79542074D01*
X139913757Y-79699141D01*
X139852470Y-79847100D01*
X139763500Y-79980254D01*
X139650254Y-80093500D01*
X139517100Y-80182470D01*
X139369141Y-80243757D01*
X139212074Y-80274999D01*
X139051924Y-80274999D01*
X138894857Y-80243757D01*
X138746898Y-80182470D01*
X138613744Y-80093500D01*
X138500498Y-79980254D01*
X138411528Y-79847100D01*
X138350241Y-79699141D01*
X138318999Y-79542074D01*
X138318999Y-79381924D01*
X138350241Y-79224857D01*
X138411528Y-79076898D01*
X138500498Y-78943744D01*
X138613744Y-78830498D01*
X138746898Y-78741528D01*
X138894857Y-78680241D01*
X139051924Y-78648999D01*
X139212074Y-78648999D01*
X139369141Y-78680241D01*
X139369141Y-78680241D01*
G37*
G36*
X136829141Y-78680241D02*
G01*
X136977100Y-78741528D01*
X137110254Y-78830498D01*
X137223500Y-78943744D01*
X137312470Y-79076898D01*
X137373757Y-79224857D01*
X137404999Y-79381924D01*
X137404999Y-79542074D01*
X137373757Y-79699141D01*
X137312470Y-79847100D01*
X137223500Y-79980254D01*
X137110254Y-80093500D01*
X136977100Y-80182470D01*
X136829141Y-80243757D01*
X136672074Y-80274999D01*
X136511924Y-80274999D01*
X136354857Y-80243757D01*
X136206898Y-80182470D01*
X136073744Y-80093500D01*
X135960498Y-79980254D01*
X135871528Y-79847100D01*
X135810241Y-79699141D01*
X135778999Y-79542074D01*
X135778999Y-79381924D01*
X135810241Y-79224857D01*
X135871528Y-79076898D01*
X135960498Y-78943744D01*
X136073744Y-78830498D01*
X136206898Y-78741528D01*
X136354857Y-78680241D01*
X136511924Y-78648999D01*
X136672074Y-78648999D01*
X136829141Y-78680241D01*
X136829141Y-78680241D01*
G37*
G36*
X134289141Y-78680241D02*
G01*
X134437100Y-78741528D01*
X134570254Y-78830498D01*
X134683500Y-78943744D01*
X134772470Y-79076898D01*
X134833757Y-79224857D01*
X134864999Y-79381924D01*
X134864999Y-79542074D01*
X134833757Y-79699141D01*
X134772470Y-79847100D01*
X134683500Y-79980254D01*
X134570254Y-80093500D01*
X134437100Y-80182470D01*
X134289141Y-80243757D01*
X134132074Y-80274999D01*
X133971924Y-80274999D01*
X133814857Y-80243757D01*
X133666898Y-80182470D01*
X133533744Y-80093500D01*
X133420498Y-79980254D01*
X133331528Y-79847100D01*
X133270241Y-79699141D01*
X133238999Y-79542074D01*
X133238999Y-79381924D01*
X133270241Y-79224857D01*
X133331528Y-79076898D01*
X133420498Y-78943744D01*
X133533744Y-78830498D01*
X133666898Y-78741528D01*
X133814857Y-78680241D01*
X133971924Y-78648999D01*
X134132074Y-78648999D01*
X134289141Y-78680241D01*
X134289141Y-78680241D01*
G37*
G36*
X131749141Y-78680241D02*
G01*
X131897100Y-78741528D01*
X132030254Y-78830498D01*
X132143500Y-78943744D01*
X132232470Y-79076898D01*
X132293757Y-79224857D01*
X132324999Y-79381924D01*
X132324999Y-79542074D01*
X132293757Y-79699141D01*
X132232470Y-79847100D01*
X132143500Y-79980254D01*
X132030254Y-80093500D01*
X131897100Y-80182470D01*
X131749141Y-80243757D01*
X131592074Y-80274999D01*
X131431924Y-80274999D01*
X131274857Y-80243757D01*
X131126898Y-80182470D01*
X130993744Y-80093500D01*
X130880498Y-79980254D01*
X130791528Y-79847100D01*
X130730241Y-79699141D01*
X130698999Y-79542074D01*
X130698999Y-79381924D01*
X130730241Y-79224857D01*
X130791528Y-79076898D01*
X130880498Y-78943744D01*
X130993744Y-78830498D01*
X131126898Y-78741528D01*
X131274857Y-78680241D01*
X131431924Y-78648999D01*
X131592074Y-78648999D01*
X131749141Y-78680241D01*
X131749141Y-78680241D01*
G37*
G36*
X129209141Y-78680241D02*
G01*
X129357100Y-78741528D01*
X129490254Y-78830498D01*
X129603500Y-78943744D01*
X129692470Y-79076898D01*
X129753757Y-79224857D01*
X129784999Y-79381924D01*
X129784999Y-79542074D01*
X129753757Y-79699141D01*
X129692470Y-79847100D01*
X129603500Y-79980254D01*
X129490254Y-80093500D01*
X129357100Y-80182470D01*
X129209141Y-80243757D01*
X129052074Y-80274999D01*
X128891924Y-80274999D01*
X128734857Y-80243757D01*
X128586898Y-80182470D01*
X128453744Y-80093500D01*
X128340498Y-79980254D01*
X128251528Y-79847100D01*
X128190241Y-79699141D01*
X128158999Y-79542074D01*
X128158999Y-79381924D01*
X128190241Y-79224857D01*
X128251528Y-79076898D01*
X128340498Y-78943744D01*
X128453744Y-78830498D01*
X128586898Y-78741528D01*
X128734857Y-78680241D01*
X128891924Y-78648999D01*
X129052074Y-78648999D01*
X129209141Y-78680241D01*
X129209141Y-78680241D01*
G37*
G36*
X113969141Y-78680241D02*
G01*
X114117100Y-78741528D01*
X114250254Y-78830498D01*
X114363500Y-78943744D01*
X114452470Y-79076898D01*
X114513757Y-79224857D01*
X114544999Y-79381924D01*
X114544999Y-79542074D01*
X114513757Y-79699141D01*
X114452470Y-79847100D01*
X114363500Y-79980254D01*
X114250254Y-80093500D01*
X114117100Y-80182470D01*
X113969141Y-80243757D01*
X113812074Y-80274999D01*
X113651924Y-80274999D01*
X113494857Y-80243757D01*
X113346898Y-80182470D01*
X113213744Y-80093500D01*
X113100498Y-79980254D01*
X113011528Y-79847100D01*
X112950241Y-79699141D01*
X112918999Y-79542074D01*
X112918999Y-79381924D01*
X112950241Y-79224857D01*
X113011528Y-79076898D01*
X113100498Y-78943744D01*
X113213744Y-78830498D01*
X113346898Y-78741528D01*
X113494857Y-78680241D01*
X113651924Y-78648999D01*
X113812074Y-78648999D01*
X113969141Y-78680241D01*
X113969141Y-78680241D01*
G37*
G36*
X111429141Y-78680241D02*
G01*
X111577100Y-78741528D01*
X111710254Y-78830498D01*
X111823500Y-78943744D01*
X111912470Y-79076898D01*
X111973757Y-79224857D01*
X112004999Y-79381924D01*
X112004999Y-79542074D01*
X111973757Y-79699141D01*
X111912470Y-79847100D01*
X111823500Y-79980254D01*
X111710254Y-80093500D01*
X111577100Y-80182470D01*
X111429141Y-80243757D01*
X111272074Y-80274999D01*
X111111924Y-80274999D01*
X110954857Y-80243757D01*
X110806898Y-80182470D01*
X110673744Y-80093500D01*
X110560498Y-79980254D01*
X110471528Y-79847100D01*
X110410241Y-79699141D01*
X110378999Y-79542074D01*
X110378999Y-79381924D01*
X110410241Y-79224857D01*
X110471528Y-79076898D01*
X110560498Y-78943744D01*
X110673744Y-78830498D01*
X110806898Y-78741528D01*
X110954857Y-78680241D01*
X111111924Y-78648999D01*
X111272074Y-78648999D01*
X111429141Y-78680241D01*
X111429141Y-78680241D01*
G37*
G36*
X106349141Y-78680241D02*
G01*
X106497100Y-78741528D01*
X106630254Y-78830498D01*
X106743500Y-78943744D01*
X106832470Y-79076898D01*
X106893757Y-79224857D01*
X106924999Y-79381924D01*
X106924999Y-79542074D01*
X106893757Y-79699141D01*
X106832470Y-79847100D01*
X106743500Y-79980254D01*
X106630254Y-80093500D01*
X106497100Y-80182470D01*
X106349141Y-80243757D01*
X106192074Y-80274999D01*
X106031924Y-80274999D01*
X105874857Y-80243757D01*
X105726898Y-80182470D01*
X105593744Y-80093500D01*
X105480498Y-79980254D01*
X105391528Y-79847100D01*
X105330241Y-79699141D01*
X105298999Y-79542074D01*
X105298999Y-79381924D01*
X105330241Y-79224857D01*
X105391528Y-79076898D01*
X105480498Y-78943744D01*
X105593744Y-78830498D01*
X105726898Y-78741528D01*
X105874857Y-78680241D01*
X106031924Y-78648999D01*
X106192074Y-78648999D01*
X106349141Y-78680241D01*
X106349141Y-78680241D01*
G37*
M02*
