M48
; DRILL file {KiCad (5.1.2)-2} date 10/08/2019 02:00:31
; FORMAT={-:-/ absolute / inch / decimal}
; #@! TF.CreationDate,2019-08-10T02:00:31-04:00
; #@! TF.GenerationSoftware,Kicad,Pcbnew,(5.1.2)-2
; #@! TF.FileFunction,Plated,1,2,PTH
FMAT,2
INCH
T1C0.0157
T2C0.0300
T3C0.0394
%
G90
G05
T1
X4.175Y-3.75
X4.175Y-3.8
X4.175Y-3.85
X4.225Y-3.8
X4.225Y-3.85
X4.275Y-3.85
X4.725Y-3.75
X4.775Y-3.75
X4.825Y-3.75
X4.875Y-3.75
X4.925Y-3.75
X4.975Y-3.75
X5.025Y-3.75
X5.075Y-3.75
X5.225Y-3.25
T2
X4.05Y-3.4213
X4.05Y-3.5
X4.05Y-3.5787
X4.05Y-3.6575
T3
X5.05Y-3.5
X5.05Y-3.6
X5.15Y-3.5
X5.15Y-3.6
X5.25Y-3.5
X5.25Y-3.6
X5.35Y-3.5
X5.35Y-3.6
X5.45Y-3.5
X5.45Y-3.6
X5.55Y-3.5
X5.55Y-3.6
X4.95Y-3.55
X4.1776Y-3.1284
X4.1776Y-3.9284
X4.2776Y-3.1284
X4.2776Y-3.9284
X4.3776Y-3.1284
X4.3776Y-3.9284
X4.4776Y-3.1284
X4.4776Y-3.9284
X4.7776Y-3.9284
X4.8776Y-3.9284
X4.9776Y-3.9284
X5.0776Y-3.1284
X5.0776Y-3.9284
X5.1776Y-3.1284
X5.1776Y-3.9284
X5.2776Y-3.1284
X5.2776Y-3.9284
X5.3776Y-3.1284
X5.3776Y-3.9284
X5.4776Y-3.1284
X5.4776Y-3.9284
X5.5776Y-3.1284
X5.5776Y-3.9284
X4.35Y-3.5
X4.35Y-3.6
X4.45Y-3.5
X4.45Y-3.6
X4.55Y-3.5
X4.55Y-3.6
X4.65Y-3.5
X4.65Y-3.6
X4.75Y-3.5
X4.75Y-3.6
X4.85Y-3.5
X4.85Y-3.6
T0
M30
