G04 #@! TF.GenerationSoftware,KiCad,Pcbnew,(5.1.0)-1*
G04 #@! TF.CreationDate,2019-08-20T09:41:23-04:00*
G04 #@! TF.ProjectId,compact-giraffe,636f6d70-6163-4742-9d67-697261666665,rev?*
G04 #@! TF.SameCoordinates,Original*
G04 #@! TF.FileFunction,Soldermask,Bot*
G04 #@! TF.FilePolarity,Negative*
%FSLAX46Y46*%
G04 Gerber Fmt 4.6, Leading zero omitted, Abs format (unit mm)*
G04 Created by KiCad (PCBNEW (5.1.0)-1) date 2019-08-20 09:41:23*
%MOMM*%
%LPD*%
G04 APERTURE LIST*
%ADD10C,0.100000*%
G04 APERTURE END LIST*
D10*
G36*
X99865143Y-85284241D02*
G01*
X100013102Y-85345528D01*
X100146256Y-85434498D01*
X100259502Y-85547744D01*
X100348472Y-85680898D01*
X100409759Y-85828857D01*
X100441001Y-85985924D01*
X100441001Y-86146074D01*
X100409759Y-86303141D01*
X100348472Y-86451100D01*
X100259502Y-86584254D01*
X100146256Y-86697500D01*
X100013102Y-86786470D01*
X99865143Y-86847757D01*
X99708076Y-86878999D01*
X99547926Y-86878999D01*
X99390859Y-86847757D01*
X99242900Y-86786470D01*
X99109746Y-86697500D01*
X98996500Y-86584254D01*
X98907530Y-86451100D01*
X98846243Y-86303141D01*
X98815001Y-86146074D01*
X98815001Y-85985924D01*
X98846243Y-85828857D01*
X98907530Y-85680898D01*
X98996500Y-85547744D01*
X99109746Y-85434498D01*
X99242900Y-85345528D01*
X99390859Y-85284241D01*
X99547926Y-85252999D01*
X99708076Y-85252999D01*
X99865143Y-85284241D01*
X99865143Y-85284241D01*
G37*
G36*
X132885143Y-85284241D02*
G01*
X133033102Y-85345528D01*
X133166256Y-85434498D01*
X133279502Y-85547744D01*
X133368472Y-85680898D01*
X133429759Y-85828857D01*
X133461001Y-85985924D01*
X133461001Y-86146074D01*
X133429759Y-86303141D01*
X133368472Y-86451100D01*
X133279502Y-86584254D01*
X133166256Y-86697500D01*
X133033102Y-86786470D01*
X132885143Y-86847757D01*
X132728076Y-86878999D01*
X132567926Y-86878999D01*
X132410859Y-86847757D01*
X132262900Y-86786470D01*
X132129746Y-86697500D01*
X132016500Y-86584254D01*
X131927530Y-86451100D01*
X131866243Y-86303141D01*
X131835001Y-86146074D01*
X131835001Y-85985924D01*
X131866243Y-85828857D01*
X131927530Y-85680898D01*
X132016500Y-85547744D01*
X132129746Y-85434498D01*
X132262900Y-85345528D01*
X132410859Y-85284241D01*
X132567926Y-85252999D01*
X132728076Y-85252999D01*
X132885143Y-85284241D01*
X132885143Y-85284241D01*
G37*
G36*
X135425143Y-85284241D02*
G01*
X135573102Y-85345528D01*
X135706256Y-85434498D01*
X135819502Y-85547744D01*
X135908472Y-85680898D01*
X135969759Y-85828857D01*
X136001001Y-85985924D01*
X136001001Y-86146074D01*
X135969759Y-86303141D01*
X135908472Y-86451100D01*
X135819502Y-86584254D01*
X135706256Y-86697500D01*
X135573102Y-86786470D01*
X135425143Y-86847757D01*
X135268076Y-86878999D01*
X135107926Y-86878999D01*
X134950859Y-86847757D01*
X134802900Y-86786470D01*
X134669746Y-86697500D01*
X134556500Y-86584254D01*
X134467530Y-86451100D01*
X134406243Y-86303141D01*
X134375001Y-86146074D01*
X134375001Y-85985924D01*
X134406243Y-85828857D01*
X134467530Y-85680898D01*
X134556500Y-85547744D01*
X134669746Y-85434498D01*
X134802900Y-85345528D01*
X134950859Y-85284241D01*
X135107926Y-85252999D01*
X135268076Y-85252999D01*
X135425143Y-85284241D01*
X135425143Y-85284241D01*
G37*
G36*
X130345143Y-85284241D02*
G01*
X130493102Y-85345528D01*
X130626256Y-85434498D01*
X130739502Y-85547744D01*
X130828472Y-85680898D01*
X130889759Y-85828857D01*
X130921001Y-85985924D01*
X130921001Y-86146074D01*
X130889759Y-86303141D01*
X130828472Y-86451100D01*
X130739502Y-86584254D01*
X130626256Y-86697500D01*
X130493102Y-86786470D01*
X130345143Y-86847757D01*
X130188076Y-86878999D01*
X130027926Y-86878999D01*
X129870859Y-86847757D01*
X129722900Y-86786470D01*
X129589746Y-86697500D01*
X129476500Y-86584254D01*
X129387530Y-86451100D01*
X129326243Y-86303141D01*
X129295001Y-86146074D01*
X129295001Y-85985924D01*
X129326243Y-85828857D01*
X129387530Y-85680898D01*
X129476500Y-85547744D01*
X129589746Y-85434498D01*
X129722900Y-85345528D01*
X129870859Y-85284241D01*
X130027926Y-85252999D01*
X130188076Y-85252999D01*
X130345143Y-85284241D01*
X130345143Y-85284241D01*
G37*
G36*
X127805143Y-85284241D02*
G01*
X127953102Y-85345528D01*
X128086256Y-85434498D01*
X128199502Y-85547744D01*
X128288472Y-85680898D01*
X128349759Y-85828857D01*
X128381001Y-85985924D01*
X128381001Y-86146074D01*
X128349759Y-86303141D01*
X128288472Y-86451100D01*
X128199502Y-86584254D01*
X128086256Y-86697500D01*
X127953102Y-86786470D01*
X127805143Y-86847757D01*
X127648076Y-86878999D01*
X127487926Y-86878999D01*
X127330859Y-86847757D01*
X127182900Y-86786470D01*
X127049746Y-86697500D01*
X126936500Y-86584254D01*
X126847530Y-86451100D01*
X126786243Y-86303141D01*
X126755001Y-86146074D01*
X126755001Y-85985924D01*
X126786243Y-85828857D01*
X126847530Y-85680898D01*
X126936500Y-85547744D01*
X127049746Y-85434498D01*
X127182900Y-85345528D01*
X127330859Y-85284241D01*
X127487926Y-85252999D01*
X127648076Y-85252999D01*
X127805143Y-85284241D01*
X127805143Y-85284241D01*
G37*
G36*
X120185143Y-85284241D02*
G01*
X120333102Y-85345528D01*
X120466256Y-85434498D01*
X120579502Y-85547744D01*
X120668472Y-85680898D01*
X120729759Y-85828857D01*
X120761001Y-85985924D01*
X120761001Y-86146074D01*
X120729759Y-86303141D01*
X120668472Y-86451100D01*
X120579502Y-86584254D01*
X120466256Y-86697500D01*
X120333102Y-86786470D01*
X120185143Y-86847757D01*
X120028076Y-86878999D01*
X119867926Y-86878999D01*
X119710859Y-86847757D01*
X119562900Y-86786470D01*
X119429746Y-86697500D01*
X119316500Y-86584254D01*
X119227530Y-86451100D01*
X119166243Y-86303141D01*
X119135001Y-86146074D01*
X119135001Y-85985924D01*
X119166243Y-85828857D01*
X119227530Y-85680898D01*
X119316500Y-85547744D01*
X119429746Y-85434498D01*
X119562900Y-85345528D01*
X119710859Y-85284241D01*
X119867926Y-85252999D01*
X120028076Y-85252999D01*
X120185143Y-85284241D01*
X120185143Y-85284241D01*
G37*
G36*
X117645143Y-85284241D02*
G01*
X117793102Y-85345528D01*
X117926256Y-85434498D01*
X118039502Y-85547744D01*
X118128472Y-85680898D01*
X118189759Y-85828857D01*
X118221001Y-85985924D01*
X118221001Y-86146074D01*
X118189759Y-86303141D01*
X118128472Y-86451100D01*
X118039502Y-86584254D01*
X117926256Y-86697500D01*
X117793102Y-86786470D01*
X117645143Y-86847757D01*
X117488076Y-86878999D01*
X117327926Y-86878999D01*
X117170859Y-86847757D01*
X117022900Y-86786470D01*
X116889746Y-86697500D01*
X116776500Y-86584254D01*
X116687530Y-86451100D01*
X116626243Y-86303141D01*
X116595001Y-86146074D01*
X116595001Y-85985924D01*
X116626243Y-85828857D01*
X116687530Y-85680898D01*
X116776500Y-85547744D01*
X116889746Y-85434498D01*
X117022900Y-85345528D01*
X117170859Y-85284241D01*
X117327926Y-85252999D01*
X117488076Y-85252999D01*
X117645143Y-85284241D01*
X117645143Y-85284241D01*
G37*
G36*
X115105143Y-85284241D02*
G01*
X115253102Y-85345528D01*
X115386256Y-85434498D01*
X115499502Y-85547744D01*
X115588472Y-85680898D01*
X115649759Y-85828857D01*
X115681001Y-85985924D01*
X115681001Y-86146074D01*
X115649759Y-86303141D01*
X115588472Y-86451100D01*
X115499502Y-86584254D01*
X115386256Y-86697500D01*
X115253102Y-86786470D01*
X115105143Y-86847757D01*
X114948076Y-86878999D01*
X114787926Y-86878999D01*
X114630859Y-86847757D01*
X114482900Y-86786470D01*
X114349746Y-86697500D01*
X114236500Y-86584254D01*
X114147530Y-86451100D01*
X114086243Y-86303141D01*
X114055001Y-86146074D01*
X114055001Y-85985924D01*
X114086243Y-85828857D01*
X114147530Y-85680898D01*
X114236500Y-85547744D01*
X114349746Y-85434498D01*
X114482900Y-85345528D01*
X114630859Y-85284241D01*
X114787926Y-85252999D01*
X114948076Y-85252999D01*
X115105143Y-85284241D01*
X115105143Y-85284241D01*
G37*
G36*
X112565143Y-85284241D02*
G01*
X112713102Y-85345528D01*
X112846256Y-85434498D01*
X112959502Y-85547744D01*
X113048472Y-85680898D01*
X113109759Y-85828857D01*
X113141001Y-85985924D01*
X113141001Y-86146074D01*
X113109759Y-86303141D01*
X113048472Y-86451100D01*
X112959502Y-86584254D01*
X112846256Y-86697500D01*
X112713102Y-86786470D01*
X112565143Y-86847757D01*
X112408076Y-86878999D01*
X112247926Y-86878999D01*
X112090859Y-86847757D01*
X111942900Y-86786470D01*
X111809746Y-86697500D01*
X111696500Y-86584254D01*
X111607530Y-86451100D01*
X111546243Y-86303141D01*
X111515001Y-86146074D01*
X111515001Y-85985924D01*
X111546243Y-85828857D01*
X111607530Y-85680898D01*
X111696500Y-85547744D01*
X111809746Y-85434498D01*
X111942900Y-85345528D01*
X112090859Y-85284241D01*
X112247926Y-85252999D01*
X112408076Y-85252999D01*
X112565143Y-85284241D01*
X112565143Y-85284241D01*
G37*
G36*
X110025143Y-85284241D02*
G01*
X110173102Y-85345528D01*
X110306256Y-85434498D01*
X110419502Y-85547744D01*
X110508472Y-85680898D01*
X110569759Y-85828857D01*
X110601001Y-85985924D01*
X110601001Y-86146074D01*
X110569759Y-86303141D01*
X110508472Y-86451100D01*
X110419502Y-86584254D01*
X110306256Y-86697500D01*
X110173102Y-86786470D01*
X110025143Y-86847757D01*
X109868076Y-86878999D01*
X109707926Y-86878999D01*
X109550859Y-86847757D01*
X109402900Y-86786470D01*
X109269746Y-86697500D01*
X109156500Y-86584254D01*
X109067530Y-86451100D01*
X109006243Y-86303141D01*
X108975001Y-86146074D01*
X108975001Y-85985924D01*
X109006243Y-85828857D01*
X109067530Y-85680898D01*
X109156500Y-85547744D01*
X109269746Y-85434498D01*
X109402900Y-85345528D01*
X109550859Y-85284241D01*
X109707926Y-85252999D01*
X109868076Y-85252999D01*
X110025143Y-85284241D01*
X110025143Y-85284241D01*
G37*
G36*
X107485143Y-85284241D02*
G01*
X107633102Y-85345528D01*
X107766256Y-85434498D01*
X107879502Y-85547744D01*
X107968472Y-85680898D01*
X108029759Y-85828857D01*
X108061001Y-85985924D01*
X108061001Y-86146074D01*
X108029759Y-86303141D01*
X107968472Y-86451100D01*
X107879502Y-86584254D01*
X107766256Y-86697500D01*
X107633102Y-86786470D01*
X107485143Y-86847757D01*
X107328076Y-86878999D01*
X107167926Y-86878999D01*
X107010859Y-86847757D01*
X106862900Y-86786470D01*
X106729746Y-86697500D01*
X106616500Y-86584254D01*
X106527530Y-86451100D01*
X106466243Y-86303141D01*
X106435001Y-86146074D01*
X106435001Y-85985924D01*
X106466243Y-85828857D01*
X106527530Y-85680898D01*
X106616500Y-85547744D01*
X106729746Y-85434498D01*
X106862900Y-85345528D01*
X107010859Y-85284241D01*
X107167926Y-85252999D01*
X107328076Y-85252999D01*
X107485143Y-85284241D01*
X107485143Y-85284241D01*
G37*
G36*
X104945143Y-85284241D02*
G01*
X105093102Y-85345528D01*
X105226256Y-85434498D01*
X105339502Y-85547744D01*
X105428472Y-85680898D01*
X105489759Y-85828857D01*
X105521001Y-85985924D01*
X105521001Y-86146074D01*
X105489759Y-86303141D01*
X105428472Y-86451100D01*
X105339502Y-86584254D01*
X105226256Y-86697500D01*
X105093102Y-86786470D01*
X104945143Y-86847757D01*
X104788076Y-86878999D01*
X104627926Y-86878999D01*
X104470859Y-86847757D01*
X104322900Y-86786470D01*
X104189746Y-86697500D01*
X104076500Y-86584254D01*
X103987530Y-86451100D01*
X103926243Y-86303141D01*
X103895001Y-86146074D01*
X103895001Y-85985924D01*
X103926243Y-85828857D01*
X103987530Y-85680898D01*
X104076500Y-85547744D01*
X104189746Y-85434498D01*
X104322900Y-85345528D01*
X104470859Y-85284241D01*
X104627926Y-85252999D01*
X104788076Y-85252999D01*
X104945143Y-85284241D01*
X104945143Y-85284241D01*
G37*
G36*
X102405143Y-85284241D02*
G01*
X102553102Y-85345528D01*
X102686256Y-85434498D01*
X102799502Y-85547744D01*
X102888472Y-85680898D01*
X102949759Y-85828857D01*
X102981001Y-85985924D01*
X102981001Y-86146074D01*
X102949759Y-86303141D01*
X102888472Y-86451100D01*
X102799502Y-86584254D01*
X102686256Y-86697500D01*
X102553102Y-86786470D01*
X102405143Y-86847757D01*
X102248076Y-86878999D01*
X102087926Y-86878999D01*
X101930859Y-86847757D01*
X101782900Y-86786470D01*
X101649746Y-86697500D01*
X101536500Y-86584254D01*
X101447530Y-86451100D01*
X101386243Y-86303141D01*
X101355001Y-86146074D01*
X101355001Y-85985924D01*
X101386243Y-85828857D01*
X101447530Y-85680898D01*
X101536500Y-85547744D01*
X101649746Y-85434498D01*
X101782900Y-85345528D01*
X101930859Y-85284241D01*
X102087926Y-85252999D01*
X102248076Y-85252999D01*
X102405143Y-85284241D01*
X102405143Y-85284241D01*
G37*
G36*
X103388604Y-80612347D02*
G01*
X103425144Y-80623432D01*
X103458821Y-80641433D01*
X103488341Y-80665659D01*
X103512567Y-80695179D01*
X103530568Y-80728856D01*
X103541653Y-80765396D01*
X103546000Y-80809538D01*
X103546000Y-82258462D01*
X103541653Y-82302604D01*
X103530568Y-82339144D01*
X103512567Y-82372821D01*
X103488341Y-82402341D01*
X103458821Y-82426567D01*
X103425144Y-82444568D01*
X103388604Y-82455653D01*
X103344462Y-82460000D01*
X102395538Y-82460000D01*
X102351396Y-82455653D01*
X102314856Y-82444568D01*
X102281179Y-82426567D01*
X102251659Y-82402341D01*
X102227433Y-82372821D01*
X102209432Y-82339144D01*
X102198347Y-82302604D01*
X102194000Y-82258462D01*
X102194000Y-80809538D01*
X102198347Y-80765396D01*
X102209432Y-80728856D01*
X102227433Y-80695179D01*
X102251659Y-80665659D01*
X102281179Y-80641433D01*
X102314856Y-80623432D01*
X102351396Y-80612347D01*
X102395538Y-80608000D01*
X103344462Y-80608000D01*
X103388604Y-80612347D01*
X103388604Y-80612347D01*
G37*
G36*
X100588604Y-80612347D02*
G01*
X100625144Y-80623432D01*
X100658821Y-80641433D01*
X100688341Y-80665659D01*
X100712567Y-80695179D01*
X100730568Y-80728856D01*
X100741653Y-80765396D01*
X100746000Y-80809538D01*
X100746000Y-82258462D01*
X100741653Y-82302604D01*
X100730568Y-82339144D01*
X100712567Y-82372821D01*
X100688341Y-82402341D01*
X100658821Y-82426567D01*
X100625144Y-82444568D01*
X100588604Y-82455653D01*
X100544462Y-82460000D01*
X99595538Y-82460000D01*
X99551396Y-82455653D01*
X99514856Y-82444568D01*
X99481179Y-82426567D01*
X99451659Y-82402341D01*
X99427433Y-82372821D01*
X99409432Y-82339144D01*
X99398347Y-82302604D01*
X99394000Y-82258462D01*
X99394000Y-80809538D01*
X99398347Y-80765396D01*
X99409432Y-80728856D01*
X99427433Y-80695179D01*
X99451659Y-80665659D01*
X99481179Y-80641433D01*
X99514856Y-80623432D01*
X99551396Y-80612347D01*
X99595538Y-80608000D01*
X100544462Y-80608000D01*
X100588604Y-80612347D01*
X100588604Y-80612347D01*
G37*
G36*
X138667142Y-80323242D02*
G01*
X138815101Y-80384529D01*
X138948255Y-80473499D01*
X139061501Y-80586745D01*
X139150471Y-80719899D01*
X139211758Y-80867858D01*
X139243000Y-81024925D01*
X139243000Y-81185075D01*
X139211758Y-81342142D01*
X139150471Y-81490101D01*
X139061501Y-81623255D01*
X138948255Y-81736501D01*
X138815101Y-81825471D01*
X138667142Y-81886758D01*
X138510075Y-81918000D01*
X138349925Y-81918000D01*
X138192858Y-81886758D01*
X138044899Y-81825471D01*
X137911745Y-81736501D01*
X137798499Y-81623255D01*
X137709529Y-81490101D01*
X137648242Y-81342142D01*
X137617000Y-81185075D01*
X137617000Y-81024925D01*
X137648242Y-80867858D01*
X137709529Y-80719899D01*
X137798499Y-80586745D01*
X137911745Y-80473499D01*
X138044899Y-80384529D01*
X138192858Y-80323242D01*
X138349925Y-80292000D01*
X138510075Y-80292000D01*
X138667142Y-80323242D01*
X138667142Y-80323242D01*
G37*
G36*
X138667142Y-78323242D02*
G01*
X138815101Y-78384529D01*
X138948255Y-78473499D01*
X139061501Y-78586745D01*
X139150471Y-78719899D01*
X139211758Y-78867858D01*
X139243000Y-79024925D01*
X139243000Y-79185075D01*
X139211758Y-79342142D01*
X139150471Y-79490101D01*
X139061501Y-79623255D01*
X138948255Y-79736501D01*
X138815101Y-79825471D01*
X138667142Y-79886758D01*
X138510075Y-79918000D01*
X138349925Y-79918000D01*
X138192858Y-79886758D01*
X138044899Y-79825471D01*
X137911745Y-79736501D01*
X137798499Y-79623255D01*
X137709529Y-79490101D01*
X137648242Y-79342142D01*
X137617000Y-79185075D01*
X137617000Y-79024925D01*
X137648242Y-78867858D01*
X137709529Y-78719899D01*
X137798499Y-78586745D01*
X137911745Y-78473499D01*
X138044899Y-78384529D01*
X138192858Y-78323242D01*
X138349925Y-78292000D01*
X138510075Y-78292000D01*
X138667142Y-78323242D01*
X138667142Y-78323242D01*
G37*
G36*
X131047142Y-76942242D02*
G01*
X131195101Y-77003529D01*
X131328255Y-77092499D01*
X131441501Y-77205745D01*
X131530471Y-77338899D01*
X131591758Y-77486858D01*
X131623000Y-77643925D01*
X131623000Y-77804075D01*
X131591758Y-77961142D01*
X131530471Y-78109101D01*
X131441501Y-78242255D01*
X131328255Y-78355501D01*
X131195101Y-78444471D01*
X131047142Y-78505758D01*
X130890075Y-78537000D01*
X130729925Y-78537000D01*
X130572858Y-78505758D01*
X130424899Y-78444471D01*
X130291745Y-78355501D01*
X130178499Y-78242255D01*
X130089529Y-78109101D01*
X130028242Y-77961142D01*
X129997000Y-77804075D01*
X129997000Y-77643925D01*
X130028242Y-77486858D01*
X130089529Y-77338899D01*
X130178499Y-77205745D01*
X130291745Y-77092499D01*
X130424899Y-77003529D01*
X130572858Y-76942242D01*
X130729925Y-76911000D01*
X130890075Y-76911000D01*
X131047142Y-76942242D01*
X131047142Y-76942242D01*
G37*
G36*
X128507142Y-76942242D02*
G01*
X128655101Y-77003529D01*
X128788255Y-77092499D01*
X128901501Y-77205745D01*
X128990471Y-77338899D01*
X129051758Y-77486858D01*
X129083000Y-77643925D01*
X129083000Y-77804075D01*
X129051758Y-77961142D01*
X128990471Y-78109101D01*
X128901501Y-78242255D01*
X128788255Y-78355501D01*
X128655101Y-78444471D01*
X128507142Y-78505758D01*
X128350075Y-78537000D01*
X128189925Y-78537000D01*
X128032858Y-78505758D01*
X127884899Y-78444471D01*
X127751745Y-78355501D01*
X127638499Y-78242255D01*
X127549529Y-78109101D01*
X127488242Y-77961142D01*
X127457000Y-77804075D01*
X127457000Y-77643925D01*
X127488242Y-77486858D01*
X127549529Y-77338899D01*
X127638499Y-77205745D01*
X127751745Y-77092499D01*
X127884899Y-77003529D01*
X128032858Y-76942242D01*
X128189925Y-76911000D01*
X128350075Y-76911000D01*
X128507142Y-76942242D01*
X128507142Y-76942242D01*
G37*
G36*
X125967142Y-76942242D02*
G01*
X126115101Y-77003529D01*
X126248255Y-77092499D01*
X126361501Y-77205745D01*
X126450471Y-77338899D01*
X126511758Y-77486858D01*
X126543000Y-77643925D01*
X126543000Y-77804075D01*
X126511758Y-77961142D01*
X126450471Y-78109101D01*
X126361501Y-78242255D01*
X126248255Y-78355501D01*
X126115101Y-78444471D01*
X125967142Y-78505758D01*
X125810075Y-78537000D01*
X125649925Y-78537000D01*
X125492858Y-78505758D01*
X125344899Y-78444471D01*
X125211745Y-78355501D01*
X125098499Y-78242255D01*
X125009529Y-78109101D01*
X124948242Y-77961142D01*
X124917000Y-77804075D01*
X124917000Y-77643925D01*
X124948242Y-77486858D01*
X125009529Y-77338899D01*
X125098499Y-77205745D01*
X125211745Y-77092499D01*
X125344899Y-77003529D01*
X125492858Y-76942242D01*
X125649925Y-76911000D01*
X125810075Y-76911000D01*
X125967142Y-76942242D01*
X125967142Y-76942242D01*
G37*
G36*
X123427142Y-76942242D02*
G01*
X123575101Y-77003529D01*
X123708255Y-77092499D01*
X123821501Y-77205745D01*
X123910471Y-77338899D01*
X123971758Y-77486858D01*
X124003000Y-77643925D01*
X124003000Y-77804075D01*
X123971758Y-77961142D01*
X123910471Y-78109101D01*
X123821501Y-78242255D01*
X123708255Y-78355501D01*
X123575101Y-78444471D01*
X123427142Y-78505758D01*
X123270075Y-78537000D01*
X123109925Y-78537000D01*
X122952858Y-78505758D01*
X122804899Y-78444471D01*
X122671745Y-78355501D01*
X122558499Y-78242255D01*
X122469529Y-78109101D01*
X122408242Y-77961142D01*
X122377000Y-77804075D01*
X122377000Y-77643925D01*
X122408242Y-77486858D01*
X122469529Y-77338899D01*
X122558499Y-77205745D01*
X122671745Y-77092499D01*
X122804899Y-77003529D01*
X122952858Y-76942242D01*
X123109925Y-76911000D01*
X123270075Y-76911000D01*
X123427142Y-76942242D01*
X123427142Y-76942242D01*
G37*
G36*
X120887142Y-76942242D02*
G01*
X121035101Y-77003529D01*
X121168255Y-77092499D01*
X121281501Y-77205745D01*
X121370471Y-77338899D01*
X121431758Y-77486858D01*
X121463000Y-77643925D01*
X121463000Y-77804075D01*
X121431758Y-77961142D01*
X121370471Y-78109101D01*
X121281501Y-78242255D01*
X121168255Y-78355501D01*
X121035101Y-78444471D01*
X120887142Y-78505758D01*
X120730075Y-78537000D01*
X120569925Y-78537000D01*
X120412858Y-78505758D01*
X120264899Y-78444471D01*
X120131745Y-78355501D01*
X120018499Y-78242255D01*
X119929529Y-78109101D01*
X119868242Y-77961142D01*
X119837000Y-77804075D01*
X119837000Y-77643925D01*
X119868242Y-77486858D01*
X119929529Y-77338899D01*
X120018499Y-77205745D01*
X120131745Y-77092499D01*
X120264899Y-77003529D01*
X120412858Y-76942242D01*
X120569925Y-76911000D01*
X120730075Y-76911000D01*
X120887142Y-76942242D01*
X120887142Y-76942242D01*
G37*
G36*
X118347142Y-76942242D02*
G01*
X118495101Y-77003529D01*
X118628255Y-77092499D01*
X118741501Y-77205745D01*
X118830471Y-77338899D01*
X118891758Y-77486858D01*
X118923000Y-77643925D01*
X118923000Y-77804075D01*
X118891758Y-77961142D01*
X118830471Y-78109101D01*
X118741501Y-78242255D01*
X118628255Y-78355501D01*
X118495101Y-78444471D01*
X118347142Y-78505758D01*
X118190075Y-78537000D01*
X118029925Y-78537000D01*
X117872858Y-78505758D01*
X117724899Y-78444471D01*
X117591745Y-78355501D01*
X117478499Y-78242255D01*
X117389529Y-78109101D01*
X117328242Y-77961142D01*
X117297000Y-77804075D01*
X117297000Y-77643925D01*
X117328242Y-77486858D01*
X117389529Y-77338899D01*
X117478499Y-77205745D01*
X117591745Y-77092499D01*
X117724899Y-77003529D01*
X117872858Y-76942242D01*
X118029925Y-76911000D01*
X118190075Y-76911000D01*
X118347142Y-76942242D01*
X118347142Y-76942242D01*
G37*
G36*
X100567142Y-76942242D02*
G01*
X100715101Y-77003529D01*
X100848255Y-77092499D01*
X100961501Y-77205745D01*
X101050471Y-77338899D01*
X101111758Y-77486858D01*
X101143000Y-77643925D01*
X101143000Y-77804075D01*
X101111758Y-77961142D01*
X101050471Y-78109101D01*
X100961501Y-78242255D01*
X100848255Y-78355501D01*
X100715101Y-78444471D01*
X100567142Y-78505758D01*
X100410075Y-78537000D01*
X100249925Y-78537000D01*
X100092858Y-78505758D01*
X99944899Y-78444471D01*
X99811745Y-78355501D01*
X99698499Y-78242255D01*
X99609529Y-78109101D01*
X99548242Y-77961142D01*
X99517000Y-77804075D01*
X99517000Y-77643925D01*
X99548242Y-77486858D01*
X99609529Y-77338899D01*
X99698499Y-77205745D01*
X99811745Y-77092499D01*
X99944899Y-77003529D01*
X100092858Y-76942242D01*
X100249925Y-76911000D01*
X100410075Y-76911000D01*
X100567142Y-76942242D01*
X100567142Y-76942242D01*
G37*
G36*
X113267142Y-76942242D02*
G01*
X113415101Y-77003529D01*
X113548255Y-77092499D01*
X113661501Y-77205745D01*
X113750471Y-77338899D01*
X113811758Y-77486858D01*
X113843000Y-77643925D01*
X113843000Y-77804075D01*
X113811758Y-77961142D01*
X113750471Y-78109101D01*
X113661501Y-78242255D01*
X113548255Y-78355501D01*
X113415101Y-78444471D01*
X113267142Y-78505758D01*
X113110075Y-78537000D01*
X112949925Y-78537000D01*
X112792858Y-78505758D01*
X112644899Y-78444471D01*
X112511745Y-78355501D01*
X112398499Y-78242255D01*
X112309529Y-78109101D01*
X112248242Y-77961142D01*
X112217000Y-77804075D01*
X112217000Y-77643925D01*
X112248242Y-77486858D01*
X112309529Y-77338899D01*
X112398499Y-77205745D01*
X112511745Y-77092499D01*
X112644899Y-77003529D01*
X112792858Y-76942242D01*
X112949925Y-76911000D01*
X113110075Y-76911000D01*
X113267142Y-76942242D01*
X113267142Y-76942242D01*
G37*
G36*
X108187142Y-76942242D02*
G01*
X108335101Y-77003529D01*
X108468255Y-77092499D01*
X108581501Y-77205745D01*
X108670471Y-77338899D01*
X108731758Y-77486858D01*
X108763000Y-77643925D01*
X108763000Y-77804075D01*
X108731758Y-77961142D01*
X108670471Y-78109101D01*
X108581501Y-78242255D01*
X108468255Y-78355501D01*
X108335101Y-78444471D01*
X108187142Y-78505758D01*
X108030075Y-78537000D01*
X107869925Y-78537000D01*
X107712858Y-78505758D01*
X107564899Y-78444471D01*
X107431745Y-78355501D01*
X107318499Y-78242255D01*
X107229529Y-78109101D01*
X107168242Y-77961142D01*
X107137000Y-77804075D01*
X107137000Y-77643925D01*
X107168242Y-77486858D01*
X107229529Y-77338899D01*
X107318499Y-77205745D01*
X107431745Y-77092499D01*
X107564899Y-77003529D01*
X107712858Y-76942242D01*
X107869925Y-76911000D01*
X108030075Y-76911000D01*
X108187142Y-76942242D01*
X108187142Y-76942242D01*
G37*
G36*
X110727142Y-76942242D02*
G01*
X110875101Y-77003529D01*
X111008255Y-77092499D01*
X111121501Y-77205745D01*
X111210471Y-77338899D01*
X111271758Y-77486858D01*
X111303000Y-77643925D01*
X111303000Y-77804075D01*
X111271758Y-77961142D01*
X111210471Y-78109101D01*
X111121501Y-78242255D01*
X111008255Y-78355501D01*
X110875101Y-78444471D01*
X110727142Y-78505758D01*
X110570075Y-78537000D01*
X110409925Y-78537000D01*
X110252858Y-78505758D01*
X110104899Y-78444471D01*
X109971745Y-78355501D01*
X109858499Y-78242255D01*
X109769529Y-78109101D01*
X109708242Y-77961142D01*
X109677000Y-77804075D01*
X109677000Y-77643925D01*
X109708242Y-77486858D01*
X109769529Y-77338899D01*
X109858499Y-77205745D01*
X109971745Y-77092499D01*
X110104899Y-77003529D01*
X110252858Y-76942242D01*
X110409925Y-76911000D01*
X110570075Y-76911000D01*
X110727142Y-76942242D01*
X110727142Y-76942242D01*
G37*
G36*
X105647142Y-76942242D02*
G01*
X105795101Y-77003529D01*
X105928255Y-77092499D01*
X106041501Y-77205745D01*
X106130471Y-77338899D01*
X106191758Y-77486858D01*
X106223000Y-77643925D01*
X106223000Y-77804075D01*
X106191758Y-77961142D01*
X106130471Y-78109101D01*
X106041501Y-78242255D01*
X105928255Y-78355501D01*
X105795101Y-78444471D01*
X105647142Y-78505758D01*
X105490075Y-78537000D01*
X105329925Y-78537000D01*
X105172858Y-78505758D01*
X105024899Y-78444471D01*
X104891745Y-78355501D01*
X104778499Y-78242255D01*
X104689529Y-78109101D01*
X104628242Y-77961142D01*
X104597000Y-77804075D01*
X104597000Y-77643925D01*
X104628242Y-77486858D01*
X104689529Y-77338899D01*
X104778499Y-77205745D01*
X104891745Y-77092499D01*
X105024899Y-77003529D01*
X105172858Y-76942242D01*
X105329925Y-76911000D01*
X105490075Y-76911000D01*
X105647142Y-76942242D01*
X105647142Y-76942242D01*
G37*
G36*
X103107142Y-76942242D02*
G01*
X103255101Y-77003529D01*
X103388255Y-77092499D01*
X103501501Y-77205745D01*
X103590471Y-77338899D01*
X103651758Y-77486858D01*
X103683000Y-77643925D01*
X103683000Y-77804075D01*
X103651758Y-77961142D01*
X103590471Y-78109101D01*
X103501501Y-78242255D01*
X103388255Y-78355501D01*
X103255101Y-78444471D01*
X103107142Y-78505758D01*
X102950075Y-78537000D01*
X102789925Y-78537000D01*
X102632858Y-78505758D01*
X102484899Y-78444471D01*
X102351745Y-78355501D01*
X102238499Y-78242255D01*
X102149529Y-78109101D01*
X102088242Y-77961142D01*
X102057000Y-77804075D01*
X102057000Y-77643925D01*
X102088242Y-77486858D01*
X102149529Y-77338899D01*
X102238499Y-77205745D01*
X102351745Y-77092499D01*
X102484899Y-77003529D01*
X102632858Y-76942242D01*
X102789925Y-76911000D01*
X102950075Y-76911000D01*
X103107142Y-76942242D01*
X103107142Y-76942242D01*
G37*
G36*
X138667142Y-76323242D02*
G01*
X138815101Y-76384529D01*
X138948255Y-76473499D01*
X139061501Y-76586745D01*
X139150471Y-76719899D01*
X139211758Y-76867858D01*
X139243000Y-77024925D01*
X139243000Y-77185075D01*
X139211758Y-77342142D01*
X139150471Y-77490101D01*
X139061501Y-77623255D01*
X138948255Y-77736501D01*
X138815101Y-77825471D01*
X138667142Y-77886758D01*
X138510075Y-77918000D01*
X138349925Y-77918000D01*
X138192858Y-77886758D01*
X138044899Y-77825471D01*
X137911745Y-77736501D01*
X137798499Y-77623255D01*
X137709529Y-77490101D01*
X137648242Y-77342142D01*
X137617000Y-77185075D01*
X137617000Y-77024925D01*
X137648242Y-76867858D01*
X137709529Y-76719899D01*
X137798499Y-76586745D01*
X137911745Y-76473499D01*
X138044899Y-76384529D01*
X138192858Y-76323242D01*
X138349925Y-76292000D01*
X138510075Y-76292000D01*
X138667142Y-76323242D01*
X138667142Y-76323242D01*
G37*
G36*
X123427142Y-74402242D02*
G01*
X123575101Y-74463529D01*
X123708255Y-74552499D01*
X123821501Y-74665745D01*
X123910471Y-74798899D01*
X123971758Y-74946858D01*
X124003000Y-75103925D01*
X124003000Y-75264075D01*
X123971758Y-75421142D01*
X123910471Y-75569101D01*
X123821501Y-75702255D01*
X123708255Y-75815501D01*
X123575101Y-75904471D01*
X123427142Y-75965758D01*
X123270075Y-75997000D01*
X123109925Y-75997000D01*
X122952858Y-75965758D01*
X122804899Y-75904471D01*
X122671745Y-75815501D01*
X122558499Y-75702255D01*
X122469529Y-75569101D01*
X122408242Y-75421142D01*
X122377000Y-75264075D01*
X122377000Y-75103925D01*
X122408242Y-74946858D01*
X122469529Y-74798899D01*
X122558499Y-74665745D01*
X122671745Y-74552499D01*
X122804899Y-74463529D01*
X122952858Y-74402242D01*
X123109925Y-74371000D01*
X123270075Y-74371000D01*
X123427142Y-74402242D01*
X123427142Y-74402242D01*
G37*
G36*
X131047142Y-74402242D02*
G01*
X131195101Y-74463529D01*
X131328255Y-74552499D01*
X131441501Y-74665745D01*
X131530471Y-74798899D01*
X131591758Y-74946858D01*
X131623000Y-75103925D01*
X131623000Y-75264075D01*
X131591758Y-75421142D01*
X131530471Y-75569101D01*
X131441501Y-75702255D01*
X131328255Y-75815501D01*
X131195101Y-75904471D01*
X131047142Y-75965758D01*
X130890075Y-75997000D01*
X130729925Y-75997000D01*
X130572858Y-75965758D01*
X130424899Y-75904471D01*
X130291745Y-75815501D01*
X130178499Y-75702255D01*
X130089529Y-75569101D01*
X130028242Y-75421142D01*
X129997000Y-75264075D01*
X129997000Y-75103925D01*
X130028242Y-74946858D01*
X130089529Y-74798899D01*
X130178499Y-74665745D01*
X130291745Y-74552499D01*
X130424899Y-74463529D01*
X130572858Y-74402242D01*
X130729925Y-74371000D01*
X130890075Y-74371000D01*
X131047142Y-74402242D01*
X131047142Y-74402242D01*
G37*
G36*
X128507142Y-74402242D02*
G01*
X128655101Y-74463529D01*
X128788255Y-74552499D01*
X128901501Y-74665745D01*
X128990471Y-74798899D01*
X129051758Y-74946858D01*
X129083000Y-75103925D01*
X129083000Y-75264075D01*
X129051758Y-75421142D01*
X128990471Y-75569101D01*
X128901501Y-75702255D01*
X128788255Y-75815501D01*
X128655101Y-75904471D01*
X128507142Y-75965758D01*
X128350075Y-75997000D01*
X128189925Y-75997000D01*
X128032858Y-75965758D01*
X127884899Y-75904471D01*
X127751745Y-75815501D01*
X127638499Y-75702255D01*
X127549529Y-75569101D01*
X127488242Y-75421142D01*
X127457000Y-75264075D01*
X127457000Y-75103925D01*
X127488242Y-74946858D01*
X127549529Y-74798899D01*
X127638499Y-74665745D01*
X127751745Y-74552499D01*
X127884899Y-74463529D01*
X128032858Y-74402242D01*
X128189925Y-74371000D01*
X128350075Y-74371000D01*
X128507142Y-74402242D01*
X128507142Y-74402242D01*
G37*
G36*
X120887142Y-74402242D02*
G01*
X121035101Y-74463529D01*
X121168255Y-74552499D01*
X121281501Y-74665745D01*
X121370471Y-74798899D01*
X121431758Y-74946858D01*
X121463000Y-75103925D01*
X121463000Y-75264075D01*
X121431758Y-75421142D01*
X121370471Y-75569101D01*
X121281501Y-75702255D01*
X121168255Y-75815501D01*
X121035101Y-75904471D01*
X120887142Y-75965758D01*
X120730075Y-75997000D01*
X120569925Y-75997000D01*
X120412858Y-75965758D01*
X120264899Y-75904471D01*
X120131745Y-75815501D01*
X120018499Y-75702255D01*
X119929529Y-75569101D01*
X119868242Y-75421142D01*
X119837000Y-75264075D01*
X119837000Y-75103925D01*
X119868242Y-74946858D01*
X119929529Y-74798899D01*
X120018499Y-74665745D01*
X120131745Y-74552499D01*
X120264899Y-74463529D01*
X120412858Y-74402242D01*
X120569925Y-74371000D01*
X120730075Y-74371000D01*
X120887142Y-74402242D01*
X120887142Y-74402242D01*
G37*
G36*
X125967142Y-74402242D02*
G01*
X126115101Y-74463529D01*
X126248255Y-74552499D01*
X126361501Y-74665745D01*
X126450471Y-74798899D01*
X126511758Y-74946858D01*
X126543000Y-75103925D01*
X126543000Y-75264075D01*
X126511758Y-75421142D01*
X126450471Y-75569101D01*
X126361501Y-75702255D01*
X126248255Y-75815501D01*
X126115101Y-75904471D01*
X125967142Y-75965758D01*
X125810075Y-75997000D01*
X125649925Y-75997000D01*
X125492858Y-75965758D01*
X125344899Y-75904471D01*
X125211745Y-75815501D01*
X125098499Y-75702255D01*
X125009529Y-75569101D01*
X124948242Y-75421142D01*
X124917000Y-75264075D01*
X124917000Y-75103925D01*
X124948242Y-74946858D01*
X125009529Y-74798899D01*
X125098499Y-74665745D01*
X125211745Y-74552499D01*
X125344899Y-74463529D01*
X125492858Y-74402242D01*
X125649925Y-74371000D01*
X125810075Y-74371000D01*
X125967142Y-74402242D01*
X125967142Y-74402242D01*
G37*
G36*
X118347142Y-74402242D02*
G01*
X118495101Y-74463529D01*
X118628255Y-74552499D01*
X118741501Y-74665745D01*
X118830471Y-74798899D01*
X118891758Y-74946858D01*
X118923000Y-75103925D01*
X118923000Y-75264075D01*
X118891758Y-75421142D01*
X118830471Y-75569101D01*
X118741501Y-75702255D01*
X118628255Y-75815501D01*
X118495101Y-75904471D01*
X118347142Y-75965758D01*
X118190075Y-75997000D01*
X118029925Y-75997000D01*
X117872858Y-75965758D01*
X117724899Y-75904471D01*
X117591745Y-75815501D01*
X117478499Y-75702255D01*
X117389529Y-75569101D01*
X117328242Y-75421142D01*
X117297000Y-75264075D01*
X117297000Y-75103925D01*
X117328242Y-74946858D01*
X117389529Y-74798899D01*
X117478499Y-74665745D01*
X117591745Y-74552499D01*
X117724899Y-74463529D01*
X117872858Y-74402242D01*
X118029925Y-74371000D01*
X118190075Y-74371000D01*
X118347142Y-74402242D01*
X118347142Y-74402242D01*
G37*
G36*
X110727142Y-74402242D02*
G01*
X110875101Y-74463529D01*
X111008255Y-74552499D01*
X111121501Y-74665745D01*
X111210471Y-74798899D01*
X111271758Y-74946858D01*
X111303000Y-75103925D01*
X111303000Y-75264075D01*
X111271758Y-75421142D01*
X111210471Y-75569101D01*
X111121501Y-75702255D01*
X111008255Y-75815501D01*
X110875101Y-75904471D01*
X110727142Y-75965758D01*
X110570075Y-75997000D01*
X110409925Y-75997000D01*
X110252858Y-75965758D01*
X110104899Y-75904471D01*
X109971745Y-75815501D01*
X109858499Y-75702255D01*
X109769529Y-75569101D01*
X109708242Y-75421142D01*
X109677000Y-75264075D01*
X109677000Y-75103925D01*
X109708242Y-74946858D01*
X109769529Y-74798899D01*
X109858499Y-74665745D01*
X109971745Y-74552499D01*
X110104899Y-74463529D01*
X110252858Y-74402242D01*
X110409925Y-74371000D01*
X110570075Y-74371000D01*
X110727142Y-74402242D01*
X110727142Y-74402242D01*
G37*
G36*
X105647142Y-74402242D02*
G01*
X105795101Y-74463529D01*
X105928255Y-74552499D01*
X106041501Y-74665745D01*
X106130471Y-74798899D01*
X106191758Y-74946858D01*
X106223000Y-75103925D01*
X106223000Y-75264075D01*
X106191758Y-75421142D01*
X106130471Y-75569101D01*
X106041501Y-75702255D01*
X105928255Y-75815501D01*
X105795101Y-75904471D01*
X105647142Y-75965758D01*
X105490075Y-75997000D01*
X105329925Y-75997000D01*
X105172858Y-75965758D01*
X105024899Y-75904471D01*
X104891745Y-75815501D01*
X104778499Y-75702255D01*
X104689529Y-75569101D01*
X104628242Y-75421142D01*
X104597000Y-75264075D01*
X104597000Y-75103925D01*
X104628242Y-74946858D01*
X104689529Y-74798899D01*
X104778499Y-74665745D01*
X104891745Y-74552499D01*
X105024899Y-74463529D01*
X105172858Y-74402242D01*
X105329925Y-74371000D01*
X105490075Y-74371000D01*
X105647142Y-74402242D01*
X105647142Y-74402242D01*
G37*
G36*
X103107142Y-74402242D02*
G01*
X103255101Y-74463529D01*
X103388255Y-74552499D01*
X103501501Y-74665745D01*
X103590471Y-74798899D01*
X103651758Y-74946858D01*
X103683000Y-75103925D01*
X103683000Y-75264075D01*
X103651758Y-75421142D01*
X103590471Y-75569101D01*
X103501501Y-75702255D01*
X103388255Y-75815501D01*
X103255101Y-75904471D01*
X103107142Y-75965758D01*
X102950075Y-75997000D01*
X102789925Y-75997000D01*
X102632858Y-75965758D01*
X102484899Y-75904471D01*
X102351745Y-75815501D01*
X102238499Y-75702255D01*
X102149529Y-75569101D01*
X102088242Y-75421142D01*
X102057000Y-75264075D01*
X102057000Y-75103925D01*
X102088242Y-74946858D01*
X102149529Y-74798899D01*
X102238499Y-74665745D01*
X102351745Y-74552499D01*
X102484899Y-74463529D01*
X102632858Y-74402242D01*
X102789925Y-74371000D01*
X102950075Y-74371000D01*
X103107142Y-74402242D01*
X103107142Y-74402242D01*
G37*
G36*
X108187142Y-74402242D02*
G01*
X108335101Y-74463529D01*
X108468255Y-74552499D01*
X108581501Y-74665745D01*
X108670471Y-74798899D01*
X108731758Y-74946858D01*
X108763000Y-75103925D01*
X108763000Y-75264075D01*
X108731758Y-75421142D01*
X108670471Y-75569101D01*
X108581501Y-75702255D01*
X108468255Y-75815501D01*
X108335101Y-75904471D01*
X108187142Y-75965758D01*
X108030075Y-75997000D01*
X107869925Y-75997000D01*
X107712858Y-75965758D01*
X107564899Y-75904471D01*
X107431745Y-75815501D01*
X107318499Y-75702255D01*
X107229529Y-75569101D01*
X107168242Y-75421142D01*
X107137000Y-75264075D01*
X107137000Y-75103925D01*
X107168242Y-74946858D01*
X107229529Y-74798899D01*
X107318499Y-74665745D01*
X107431745Y-74552499D01*
X107564899Y-74463529D01*
X107712858Y-74402242D01*
X107869925Y-74371000D01*
X108030075Y-74371000D01*
X108187142Y-74402242D01*
X108187142Y-74402242D01*
G37*
G36*
X100567142Y-74402242D02*
G01*
X100715101Y-74463529D01*
X100848255Y-74552499D01*
X100961501Y-74665745D01*
X101050471Y-74798899D01*
X101111758Y-74946858D01*
X101143000Y-75103925D01*
X101143000Y-75264075D01*
X101111758Y-75421142D01*
X101050471Y-75569101D01*
X100961501Y-75702255D01*
X100848255Y-75815501D01*
X100715101Y-75904471D01*
X100567142Y-75965758D01*
X100410075Y-75997000D01*
X100249925Y-75997000D01*
X100092858Y-75965758D01*
X99944899Y-75904471D01*
X99811745Y-75815501D01*
X99698499Y-75702255D01*
X99609529Y-75569101D01*
X99548242Y-75421142D01*
X99517000Y-75264075D01*
X99517000Y-75103925D01*
X99548242Y-74946858D01*
X99609529Y-74798899D01*
X99698499Y-74665745D01*
X99811745Y-74552499D01*
X99944899Y-74463529D01*
X100092858Y-74402242D01*
X100249925Y-74371000D01*
X100410075Y-74371000D01*
X100567142Y-74402242D01*
X100567142Y-74402242D01*
G37*
G36*
X113267142Y-74402242D02*
G01*
X113415101Y-74463529D01*
X113548255Y-74552499D01*
X113661501Y-74665745D01*
X113750471Y-74798899D01*
X113811758Y-74946858D01*
X113843000Y-75103925D01*
X113843000Y-75264075D01*
X113811758Y-75421142D01*
X113750471Y-75569101D01*
X113661501Y-75702255D01*
X113548255Y-75815501D01*
X113415101Y-75904471D01*
X113267142Y-75965758D01*
X113110075Y-75997000D01*
X112949925Y-75997000D01*
X112792858Y-75965758D01*
X112644899Y-75904471D01*
X112511745Y-75815501D01*
X112398499Y-75702255D01*
X112309529Y-75569101D01*
X112248242Y-75421142D01*
X112217000Y-75264075D01*
X112217000Y-75103925D01*
X112248242Y-74946858D01*
X112309529Y-74798899D01*
X112398499Y-74665745D01*
X112511745Y-74552499D01*
X112644899Y-74463529D01*
X112792858Y-74402242D01*
X112949925Y-74371000D01*
X113110075Y-74371000D01*
X113267142Y-74402242D01*
X113267142Y-74402242D01*
G37*
G36*
X138667142Y-74323242D02*
G01*
X138815101Y-74384529D01*
X138948255Y-74473499D01*
X139061501Y-74586745D01*
X139150471Y-74719899D01*
X139211758Y-74867858D01*
X139243000Y-75024925D01*
X139243000Y-75185075D01*
X139211758Y-75342142D01*
X139150471Y-75490101D01*
X139061501Y-75623255D01*
X138948255Y-75736501D01*
X138815101Y-75825471D01*
X138667142Y-75886758D01*
X138510075Y-75918000D01*
X138349925Y-75918000D01*
X138192858Y-75886758D01*
X138044899Y-75825471D01*
X137911745Y-75736501D01*
X137798499Y-75623255D01*
X137709529Y-75490101D01*
X137648242Y-75342142D01*
X137617000Y-75185075D01*
X137617000Y-75024925D01*
X137648242Y-74867858D01*
X137709529Y-74719899D01*
X137798499Y-74586745D01*
X137911745Y-74473499D01*
X138044899Y-74384529D01*
X138192858Y-74323242D01*
X138349925Y-74292000D01*
X138510075Y-74292000D01*
X138667142Y-74323242D01*
X138667142Y-74323242D01*
G37*
G36*
X138667142Y-70338242D02*
G01*
X138815101Y-70399529D01*
X138948255Y-70488499D01*
X139061501Y-70601745D01*
X139150471Y-70734899D01*
X139211758Y-70882858D01*
X139243000Y-71039925D01*
X139243000Y-71200075D01*
X139211758Y-71357142D01*
X139150471Y-71505101D01*
X139061501Y-71638255D01*
X138948255Y-71751501D01*
X138815101Y-71840471D01*
X138667142Y-71901758D01*
X138510075Y-71933000D01*
X138349925Y-71933000D01*
X138192858Y-71901758D01*
X138044899Y-71840471D01*
X137911745Y-71751501D01*
X137798499Y-71638255D01*
X137709529Y-71505101D01*
X137648242Y-71357142D01*
X137617000Y-71200075D01*
X137617000Y-71039925D01*
X137648242Y-70882858D01*
X137709529Y-70734899D01*
X137798499Y-70601745D01*
X137911745Y-70488499D01*
X138044899Y-70399529D01*
X138192858Y-70338242D01*
X138349925Y-70307000D01*
X138510075Y-70307000D01*
X138667142Y-70338242D01*
X138667142Y-70338242D01*
G37*
G36*
X132885143Y-64964241D02*
G01*
X133033102Y-65025528D01*
X133166256Y-65114498D01*
X133279502Y-65227744D01*
X133368472Y-65360898D01*
X133429759Y-65508857D01*
X133461001Y-65665924D01*
X133461001Y-65826074D01*
X133429759Y-65983141D01*
X133368472Y-66131100D01*
X133279502Y-66264254D01*
X133166256Y-66377500D01*
X133033102Y-66466470D01*
X132885143Y-66527757D01*
X132728076Y-66558999D01*
X132567926Y-66558999D01*
X132410859Y-66527757D01*
X132262900Y-66466470D01*
X132129746Y-66377500D01*
X132016500Y-66264254D01*
X131927530Y-66131100D01*
X131866243Y-65983141D01*
X131835001Y-65826074D01*
X131835001Y-65665924D01*
X131866243Y-65508857D01*
X131927530Y-65360898D01*
X132016500Y-65227744D01*
X132129746Y-65114498D01*
X132262900Y-65025528D01*
X132410859Y-64964241D01*
X132567926Y-64932999D01*
X132728076Y-64932999D01*
X132885143Y-64964241D01*
X132885143Y-64964241D01*
G37*
G36*
X130345143Y-64964241D02*
G01*
X130493102Y-65025528D01*
X130626256Y-65114498D01*
X130739502Y-65227744D01*
X130828472Y-65360898D01*
X130889759Y-65508857D01*
X130921001Y-65665924D01*
X130921001Y-65826074D01*
X130889759Y-65983141D01*
X130828472Y-66131100D01*
X130739502Y-66264254D01*
X130626256Y-66377500D01*
X130493102Y-66466470D01*
X130345143Y-66527757D01*
X130188076Y-66558999D01*
X130027926Y-66558999D01*
X129870859Y-66527757D01*
X129722900Y-66466470D01*
X129589746Y-66377500D01*
X129476500Y-66264254D01*
X129387530Y-66131100D01*
X129326243Y-65983141D01*
X129295001Y-65826074D01*
X129295001Y-65665924D01*
X129326243Y-65508857D01*
X129387530Y-65360898D01*
X129476500Y-65227744D01*
X129589746Y-65114498D01*
X129722900Y-65025528D01*
X129870859Y-64964241D01*
X130027926Y-64932999D01*
X130188076Y-64932999D01*
X130345143Y-64964241D01*
X130345143Y-64964241D01*
G37*
G36*
X127805143Y-64964241D02*
G01*
X127953102Y-65025528D01*
X128086256Y-65114498D01*
X128199502Y-65227744D01*
X128288472Y-65360898D01*
X128349759Y-65508857D01*
X128381001Y-65665924D01*
X128381001Y-65826074D01*
X128349759Y-65983141D01*
X128288472Y-66131100D01*
X128199502Y-66264254D01*
X128086256Y-66377500D01*
X127953102Y-66466470D01*
X127805143Y-66527757D01*
X127648076Y-66558999D01*
X127487926Y-66558999D01*
X127330859Y-66527757D01*
X127182900Y-66466470D01*
X127049746Y-66377500D01*
X126936500Y-66264254D01*
X126847530Y-66131100D01*
X126786243Y-65983141D01*
X126755001Y-65826074D01*
X126755001Y-65665924D01*
X126786243Y-65508857D01*
X126847530Y-65360898D01*
X126936500Y-65227744D01*
X127049746Y-65114498D01*
X127182900Y-65025528D01*
X127330859Y-64964241D01*
X127487926Y-64932999D01*
X127648076Y-64932999D01*
X127805143Y-64964241D01*
X127805143Y-64964241D01*
G37*
G36*
X112565143Y-64964241D02*
G01*
X112713102Y-65025528D01*
X112846256Y-65114498D01*
X112959502Y-65227744D01*
X113048472Y-65360898D01*
X113109759Y-65508857D01*
X113141001Y-65665924D01*
X113141001Y-65826074D01*
X113109759Y-65983141D01*
X113048472Y-66131100D01*
X112959502Y-66264254D01*
X112846256Y-66377500D01*
X112713102Y-66466470D01*
X112565143Y-66527757D01*
X112408076Y-66558999D01*
X112247926Y-66558999D01*
X112090859Y-66527757D01*
X111942900Y-66466470D01*
X111809746Y-66377500D01*
X111696500Y-66264254D01*
X111607530Y-66131100D01*
X111546243Y-65983141D01*
X111515001Y-65826074D01*
X111515001Y-65665924D01*
X111546243Y-65508857D01*
X111607530Y-65360898D01*
X111696500Y-65227744D01*
X111809746Y-65114498D01*
X111942900Y-65025528D01*
X112090859Y-64964241D01*
X112247926Y-64932999D01*
X112408076Y-64932999D01*
X112565143Y-64964241D01*
X112565143Y-64964241D01*
G37*
G36*
X110025143Y-64964241D02*
G01*
X110173102Y-65025528D01*
X110306256Y-65114498D01*
X110419502Y-65227744D01*
X110508472Y-65360898D01*
X110569759Y-65508857D01*
X110601001Y-65665924D01*
X110601001Y-65826074D01*
X110569759Y-65983141D01*
X110508472Y-66131100D01*
X110419502Y-66264254D01*
X110306256Y-66377500D01*
X110173102Y-66466470D01*
X110025143Y-66527757D01*
X109868076Y-66558999D01*
X109707926Y-66558999D01*
X109550859Y-66527757D01*
X109402900Y-66466470D01*
X109269746Y-66377500D01*
X109156500Y-66264254D01*
X109067530Y-66131100D01*
X109006243Y-65983141D01*
X108975001Y-65826074D01*
X108975001Y-65665924D01*
X109006243Y-65508857D01*
X109067530Y-65360898D01*
X109156500Y-65227744D01*
X109269746Y-65114498D01*
X109402900Y-65025528D01*
X109550859Y-64964241D01*
X109707926Y-64932999D01*
X109868076Y-64932999D01*
X110025143Y-64964241D01*
X110025143Y-64964241D01*
G37*
G36*
X135425143Y-64964241D02*
G01*
X135573102Y-65025528D01*
X135706256Y-65114498D01*
X135819502Y-65227744D01*
X135908472Y-65360898D01*
X135969759Y-65508857D01*
X136001001Y-65665924D01*
X136001001Y-65826074D01*
X135969759Y-65983141D01*
X135908472Y-66131100D01*
X135819502Y-66264254D01*
X135706256Y-66377500D01*
X135573102Y-66466470D01*
X135425143Y-66527757D01*
X135268076Y-66558999D01*
X135107926Y-66558999D01*
X134950859Y-66527757D01*
X134802900Y-66466470D01*
X134669746Y-66377500D01*
X134556500Y-66264254D01*
X134467530Y-66131100D01*
X134406243Y-65983141D01*
X134375001Y-65826074D01*
X134375001Y-65665924D01*
X134406243Y-65508857D01*
X134467530Y-65360898D01*
X134556500Y-65227744D01*
X134669746Y-65114498D01*
X134802900Y-65025528D01*
X134950859Y-64964241D01*
X135107926Y-64932999D01*
X135268076Y-64932999D01*
X135425143Y-64964241D01*
X135425143Y-64964241D01*
G37*
G36*
X104945143Y-64964241D02*
G01*
X105093102Y-65025528D01*
X105226256Y-65114498D01*
X105339502Y-65227744D01*
X105428472Y-65360898D01*
X105489759Y-65508857D01*
X105521001Y-65665924D01*
X105521001Y-65826074D01*
X105489759Y-65983141D01*
X105428472Y-66131100D01*
X105339502Y-66264254D01*
X105226256Y-66377500D01*
X105093102Y-66466470D01*
X104945143Y-66527757D01*
X104788076Y-66558999D01*
X104627926Y-66558999D01*
X104470859Y-66527757D01*
X104322900Y-66466470D01*
X104189746Y-66377500D01*
X104076500Y-66264254D01*
X103987530Y-66131100D01*
X103926243Y-65983141D01*
X103895001Y-65826074D01*
X103895001Y-65665924D01*
X103926243Y-65508857D01*
X103987530Y-65360898D01*
X104076500Y-65227744D01*
X104189746Y-65114498D01*
X104322900Y-65025528D01*
X104470859Y-64964241D01*
X104627926Y-64932999D01*
X104788076Y-64932999D01*
X104945143Y-64964241D01*
X104945143Y-64964241D01*
G37*
G36*
X102405143Y-64964241D02*
G01*
X102553102Y-65025528D01*
X102686256Y-65114498D01*
X102799502Y-65227744D01*
X102888472Y-65360898D01*
X102949759Y-65508857D01*
X102981001Y-65665924D01*
X102981001Y-65826074D01*
X102949759Y-65983141D01*
X102888472Y-66131100D01*
X102799502Y-66264254D01*
X102686256Y-66377500D01*
X102553102Y-66466470D01*
X102405143Y-66527757D01*
X102248076Y-66558999D01*
X102087926Y-66558999D01*
X101930859Y-66527757D01*
X101782900Y-66466470D01*
X101649746Y-66377500D01*
X101536500Y-66264254D01*
X101447530Y-66131100D01*
X101386243Y-65983141D01*
X101355001Y-65826074D01*
X101355001Y-65665924D01*
X101386243Y-65508857D01*
X101447530Y-65360898D01*
X101536500Y-65227744D01*
X101649746Y-65114498D01*
X101782900Y-65025528D01*
X101930859Y-64964241D01*
X102087926Y-64932999D01*
X102248076Y-64932999D01*
X102405143Y-64964241D01*
X102405143Y-64964241D01*
G37*
G36*
X99865143Y-64964241D02*
G01*
X100013102Y-65025528D01*
X100146256Y-65114498D01*
X100259502Y-65227744D01*
X100348472Y-65360898D01*
X100409759Y-65508857D01*
X100441001Y-65665924D01*
X100441001Y-65826074D01*
X100409759Y-65983141D01*
X100348472Y-66131100D01*
X100259502Y-66264254D01*
X100146256Y-66377500D01*
X100013102Y-66466470D01*
X99865143Y-66527757D01*
X99708076Y-66558999D01*
X99547926Y-66558999D01*
X99390859Y-66527757D01*
X99242900Y-66466470D01*
X99109746Y-66377500D01*
X98996500Y-66264254D01*
X98907530Y-66131100D01*
X98846243Y-65983141D01*
X98815001Y-65826074D01*
X98815001Y-65665924D01*
X98846243Y-65508857D01*
X98907530Y-65360898D01*
X98996500Y-65227744D01*
X99109746Y-65114498D01*
X99242900Y-65025528D01*
X99390859Y-64964241D01*
X99547926Y-64932999D01*
X99708076Y-64932999D01*
X99865143Y-64964241D01*
X99865143Y-64964241D01*
G37*
G36*
X107485143Y-64964241D02*
G01*
X107633102Y-65025528D01*
X107766256Y-65114498D01*
X107879502Y-65227744D01*
X107968472Y-65360898D01*
X108029759Y-65508857D01*
X108061001Y-65665924D01*
X108061001Y-65826074D01*
X108029759Y-65983141D01*
X107968472Y-66131100D01*
X107879502Y-66264254D01*
X107766256Y-66377500D01*
X107633102Y-66466470D01*
X107485143Y-66527757D01*
X107328076Y-66558999D01*
X107167926Y-66558999D01*
X107010859Y-66527757D01*
X106862900Y-66466470D01*
X106729746Y-66377500D01*
X106616500Y-66264254D01*
X106527530Y-66131100D01*
X106466243Y-65983141D01*
X106435001Y-65826074D01*
X106435001Y-65665924D01*
X106466243Y-65508857D01*
X106527530Y-65360898D01*
X106616500Y-65227744D01*
X106729746Y-65114498D01*
X106862900Y-65025528D01*
X107010859Y-64964241D01*
X107167926Y-64932999D01*
X107328076Y-64932999D01*
X107485143Y-64964241D01*
X107485143Y-64964241D01*
G37*
M02*
