G04 #@! TF.GenerationSoftware,KiCad,Pcbnew,(5.1.2)-2*
G04 #@! TF.CreationDate,2019-08-10T12:47:09-04:00*
G04 #@! TF.ProjectId,toyota-angle-sensor,746f796f-7461-42d6-916e-676c652d7365,rev?*
G04 #@! TF.SameCoordinates,Original*
G04 #@! TF.FileFunction,Copper,L1,Top*
G04 #@! TF.FilePolarity,Positive*
%FSLAX46Y46*%
G04 Gerber Fmt 4.6, Leading zero omitted, Abs format (unit mm)*
G04 Created by KiCad (PCBNEW (5.1.2)-2) date 2019-08-10 12:47:09*
%MOMM*%
%LPD*%
G04 APERTURE LIST*
%ADD10O,1.700000X1.700000*%
%ADD11R,1.700000X1.700000*%
%ADD12C,0.100000*%
%ADD13C,0.875000*%
%ADD14C,1.250000*%
%ADD15C,1.500000*%
%ADD16R,1.500000X1.500000*%
%ADD17R,1.500000X2.000000*%
%ADD18R,3.800000X2.000000*%
%ADD19C,0.975000*%
%ADD20C,0.800000*%
%ADD21C,1.500000*%
%ADD22C,0.250000*%
%ADD23C,0.254000*%
G04 APERTURE END LIST*
D10*
X136779000Y-126111000D03*
X136779000Y-123571000D03*
X139319000Y-126111000D03*
X139319000Y-123571000D03*
X141859000Y-126111000D03*
D11*
X141859000Y-123571000D03*
D12*
G36*
X134580691Y-129066053D02*
G01*
X134601926Y-129069203D01*
X134622750Y-129074419D01*
X134642962Y-129081651D01*
X134662368Y-129090830D01*
X134680781Y-129101866D01*
X134698024Y-129114654D01*
X134713930Y-129129070D01*
X134728346Y-129144976D01*
X134741134Y-129162219D01*
X134752170Y-129180632D01*
X134761349Y-129200038D01*
X134768581Y-129220250D01*
X134773797Y-129241074D01*
X134776947Y-129262309D01*
X134778000Y-129283750D01*
X134778000Y-129796250D01*
X134776947Y-129817691D01*
X134773797Y-129838926D01*
X134768581Y-129859750D01*
X134761349Y-129879962D01*
X134752170Y-129899368D01*
X134741134Y-129917781D01*
X134728346Y-129935024D01*
X134713930Y-129950930D01*
X134698024Y-129965346D01*
X134680781Y-129978134D01*
X134662368Y-129989170D01*
X134642962Y-129998349D01*
X134622750Y-130005581D01*
X134601926Y-130010797D01*
X134580691Y-130013947D01*
X134559250Y-130015000D01*
X134121750Y-130015000D01*
X134100309Y-130013947D01*
X134079074Y-130010797D01*
X134058250Y-130005581D01*
X134038038Y-129998349D01*
X134018632Y-129989170D01*
X134000219Y-129978134D01*
X133982976Y-129965346D01*
X133967070Y-129950930D01*
X133952654Y-129935024D01*
X133939866Y-129917781D01*
X133928830Y-129899368D01*
X133919651Y-129879962D01*
X133912419Y-129859750D01*
X133907203Y-129838926D01*
X133904053Y-129817691D01*
X133903000Y-129796250D01*
X133903000Y-129283750D01*
X133904053Y-129262309D01*
X133907203Y-129241074D01*
X133912419Y-129220250D01*
X133919651Y-129200038D01*
X133928830Y-129180632D01*
X133939866Y-129162219D01*
X133952654Y-129144976D01*
X133967070Y-129129070D01*
X133982976Y-129114654D01*
X134000219Y-129101866D01*
X134018632Y-129090830D01*
X134038038Y-129081651D01*
X134058250Y-129074419D01*
X134079074Y-129069203D01*
X134100309Y-129066053D01*
X134121750Y-129065000D01*
X134559250Y-129065000D01*
X134580691Y-129066053D01*
X134580691Y-129066053D01*
G37*
D13*
X134340500Y-129540000D03*
D12*
G36*
X136155691Y-129066053D02*
G01*
X136176926Y-129069203D01*
X136197750Y-129074419D01*
X136217962Y-129081651D01*
X136237368Y-129090830D01*
X136255781Y-129101866D01*
X136273024Y-129114654D01*
X136288930Y-129129070D01*
X136303346Y-129144976D01*
X136316134Y-129162219D01*
X136327170Y-129180632D01*
X136336349Y-129200038D01*
X136343581Y-129220250D01*
X136348797Y-129241074D01*
X136351947Y-129262309D01*
X136353000Y-129283750D01*
X136353000Y-129796250D01*
X136351947Y-129817691D01*
X136348797Y-129838926D01*
X136343581Y-129859750D01*
X136336349Y-129879962D01*
X136327170Y-129899368D01*
X136316134Y-129917781D01*
X136303346Y-129935024D01*
X136288930Y-129950930D01*
X136273024Y-129965346D01*
X136255781Y-129978134D01*
X136237368Y-129989170D01*
X136217962Y-129998349D01*
X136197750Y-130005581D01*
X136176926Y-130010797D01*
X136155691Y-130013947D01*
X136134250Y-130015000D01*
X135696750Y-130015000D01*
X135675309Y-130013947D01*
X135654074Y-130010797D01*
X135633250Y-130005581D01*
X135613038Y-129998349D01*
X135593632Y-129989170D01*
X135575219Y-129978134D01*
X135557976Y-129965346D01*
X135542070Y-129950930D01*
X135527654Y-129935024D01*
X135514866Y-129917781D01*
X135503830Y-129899368D01*
X135494651Y-129879962D01*
X135487419Y-129859750D01*
X135482203Y-129838926D01*
X135479053Y-129817691D01*
X135478000Y-129796250D01*
X135478000Y-129283750D01*
X135479053Y-129262309D01*
X135482203Y-129241074D01*
X135487419Y-129220250D01*
X135494651Y-129200038D01*
X135503830Y-129180632D01*
X135514866Y-129162219D01*
X135527654Y-129144976D01*
X135542070Y-129129070D01*
X135557976Y-129114654D01*
X135575219Y-129101866D01*
X135593632Y-129090830D01*
X135613038Y-129081651D01*
X135633250Y-129074419D01*
X135654074Y-129069203D01*
X135675309Y-129066053D01*
X135696750Y-129065000D01*
X136134250Y-129065000D01*
X136155691Y-129066053D01*
X136155691Y-129066053D01*
G37*
D13*
X135915500Y-129540000D03*
D12*
G36*
X132355504Y-126946204D02*
G01*
X132379773Y-126949804D01*
X132403571Y-126955765D01*
X132426671Y-126964030D01*
X132448849Y-126974520D01*
X132469893Y-126987133D01*
X132489598Y-127001747D01*
X132507777Y-127018223D01*
X132524253Y-127036402D01*
X132538867Y-127056107D01*
X132551480Y-127077151D01*
X132561970Y-127099329D01*
X132570235Y-127122429D01*
X132576196Y-127146227D01*
X132579796Y-127170496D01*
X132581000Y-127195000D01*
X132581000Y-129345000D01*
X132579796Y-129369504D01*
X132576196Y-129393773D01*
X132570235Y-129417571D01*
X132561970Y-129440671D01*
X132551480Y-129462849D01*
X132538867Y-129483893D01*
X132524253Y-129503598D01*
X132507777Y-129521777D01*
X132489598Y-129538253D01*
X132469893Y-129552867D01*
X132448849Y-129565480D01*
X132426671Y-129575970D01*
X132403571Y-129584235D01*
X132379773Y-129590196D01*
X132355504Y-129593796D01*
X132331000Y-129595000D01*
X131581000Y-129595000D01*
X131556496Y-129593796D01*
X131532227Y-129590196D01*
X131508429Y-129584235D01*
X131485329Y-129575970D01*
X131463151Y-129565480D01*
X131442107Y-129552867D01*
X131422402Y-129538253D01*
X131404223Y-129521777D01*
X131387747Y-129503598D01*
X131373133Y-129483893D01*
X131360520Y-129462849D01*
X131350030Y-129440671D01*
X131341765Y-129417571D01*
X131335804Y-129393773D01*
X131332204Y-129369504D01*
X131331000Y-129345000D01*
X131331000Y-127195000D01*
X131332204Y-127170496D01*
X131335804Y-127146227D01*
X131341765Y-127122429D01*
X131350030Y-127099329D01*
X131360520Y-127077151D01*
X131373133Y-127056107D01*
X131387747Y-127036402D01*
X131404223Y-127018223D01*
X131422402Y-127001747D01*
X131442107Y-126987133D01*
X131463151Y-126974520D01*
X131485329Y-126964030D01*
X131508429Y-126955765D01*
X131532227Y-126949804D01*
X131556496Y-126946204D01*
X131581000Y-126945000D01*
X132331000Y-126945000D01*
X132355504Y-126946204D01*
X132355504Y-126946204D01*
G37*
D14*
X131956000Y-128270000D03*
D12*
G36*
X129555504Y-126946204D02*
G01*
X129579773Y-126949804D01*
X129603571Y-126955765D01*
X129626671Y-126964030D01*
X129648849Y-126974520D01*
X129669893Y-126987133D01*
X129689598Y-127001747D01*
X129707777Y-127018223D01*
X129724253Y-127036402D01*
X129738867Y-127056107D01*
X129751480Y-127077151D01*
X129761970Y-127099329D01*
X129770235Y-127122429D01*
X129776196Y-127146227D01*
X129779796Y-127170496D01*
X129781000Y-127195000D01*
X129781000Y-129345000D01*
X129779796Y-129369504D01*
X129776196Y-129393773D01*
X129770235Y-129417571D01*
X129761970Y-129440671D01*
X129751480Y-129462849D01*
X129738867Y-129483893D01*
X129724253Y-129503598D01*
X129707777Y-129521777D01*
X129689598Y-129538253D01*
X129669893Y-129552867D01*
X129648849Y-129565480D01*
X129626671Y-129575970D01*
X129603571Y-129584235D01*
X129579773Y-129590196D01*
X129555504Y-129593796D01*
X129531000Y-129595000D01*
X128781000Y-129595000D01*
X128756496Y-129593796D01*
X128732227Y-129590196D01*
X128708429Y-129584235D01*
X128685329Y-129575970D01*
X128663151Y-129565480D01*
X128642107Y-129552867D01*
X128622402Y-129538253D01*
X128604223Y-129521777D01*
X128587747Y-129503598D01*
X128573133Y-129483893D01*
X128560520Y-129462849D01*
X128550030Y-129440671D01*
X128541765Y-129417571D01*
X128535804Y-129393773D01*
X128532204Y-129369504D01*
X128531000Y-129345000D01*
X128531000Y-127195000D01*
X128532204Y-127170496D01*
X128535804Y-127146227D01*
X128541765Y-127122429D01*
X128550030Y-127099329D01*
X128560520Y-127077151D01*
X128573133Y-127056107D01*
X128587747Y-127036402D01*
X128604223Y-127018223D01*
X128622402Y-127001747D01*
X128642107Y-126987133D01*
X128663151Y-126974520D01*
X128685329Y-126964030D01*
X128708429Y-126955765D01*
X128732227Y-126949804D01*
X128756496Y-126946204D01*
X128781000Y-126945000D01*
X129531000Y-126945000D01*
X129555504Y-126946204D01*
X129555504Y-126946204D01*
G37*
D14*
X129156000Y-128270000D03*
D12*
G36*
X119844504Y-126246204D02*
G01*
X119868773Y-126249804D01*
X119892571Y-126255765D01*
X119915671Y-126264030D01*
X119937849Y-126274520D01*
X119958893Y-126287133D01*
X119978598Y-126301747D01*
X119996777Y-126318223D01*
X120013253Y-126336402D01*
X120027867Y-126356107D01*
X120040480Y-126377151D01*
X120050970Y-126399329D01*
X120059235Y-126422429D01*
X120065196Y-126446227D01*
X120068796Y-126470496D01*
X120070000Y-126495000D01*
X120070000Y-127245000D01*
X120068796Y-127269504D01*
X120065196Y-127293773D01*
X120059235Y-127317571D01*
X120050970Y-127340671D01*
X120040480Y-127362849D01*
X120027867Y-127383893D01*
X120013253Y-127403598D01*
X119996777Y-127421777D01*
X119978598Y-127438253D01*
X119958893Y-127452867D01*
X119937849Y-127465480D01*
X119915671Y-127475970D01*
X119892571Y-127484235D01*
X119868773Y-127490196D01*
X119844504Y-127493796D01*
X119820000Y-127495000D01*
X117670000Y-127495000D01*
X117645496Y-127493796D01*
X117621227Y-127490196D01*
X117597429Y-127484235D01*
X117574329Y-127475970D01*
X117552151Y-127465480D01*
X117531107Y-127452867D01*
X117511402Y-127438253D01*
X117493223Y-127421777D01*
X117476747Y-127403598D01*
X117462133Y-127383893D01*
X117449520Y-127362849D01*
X117439030Y-127340671D01*
X117430765Y-127317571D01*
X117424804Y-127293773D01*
X117421204Y-127269504D01*
X117420000Y-127245000D01*
X117420000Y-126495000D01*
X117421204Y-126470496D01*
X117424804Y-126446227D01*
X117430765Y-126422429D01*
X117439030Y-126399329D01*
X117449520Y-126377151D01*
X117462133Y-126356107D01*
X117476747Y-126336402D01*
X117493223Y-126318223D01*
X117511402Y-126301747D01*
X117531107Y-126287133D01*
X117552151Y-126274520D01*
X117574329Y-126264030D01*
X117597429Y-126255765D01*
X117621227Y-126249804D01*
X117645496Y-126246204D01*
X117670000Y-126245000D01*
X119820000Y-126245000D01*
X119844504Y-126246204D01*
X119844504Y-126246204D01*
G37*
D14*
X118745000Y-126870000D03*
D12*
G36*
X119844504Y-129046204D02*
G01*
X119868773Y-129049804D01*
X119892571Y-129055765D01*
X119915671Y-129064030D01*
X119937849Y-129074520D01*
X119958893Y-129087133D01*
X119978598Y-129101747D01*
X119996777Y-129118223D01*
X120013253Y-129136402D01*
X120027867Y-129156107D01*
X120040480Y-129177151D01*
X120050970Y-129199329D01*
X120059235Y-129222429D01*
X120065196Y-129246227D01*
X120068796Y-129270496D01*
X120070000Y-129295000D01*
X120070000Y-130045000D01*
X120068796Y-130069504D01*
X120065196Y-130093773D01*
X120059235Y-130117571D01*
X120050970Y-130140671D01*
X120040480Y-130162849D01*
X120027867Y-130183893D01*
X120013253Y-130203598D01*
X119996777Y-130221777D01*
X119978598Y-130238253D01*
X119958893Y-130252867D01*
X119937849Y-130265480D01*
X119915671Y-130275970D01*
X119892571Y-130284235D01*
X119868773Y-130290196D01*
X119844504Y-130293796D01*
X119820000Y-130295000D01*
X117670000Y-130295000D01*
X117645496Y-130293796D01*
X117621227Y-130290196D01*
X117597429Y-130284235D01*
X117574329Y-130275970D01*
X117552151Y-130265480D01*
X117531107Y-130252867D01*
X117511402Y-130238253D01*
X117493223Y-130221777D01*
X117476747Y-130203598D01*
X117462133Y-130183893D01*
X117449520Y-130162849D01*
X117439030Y-130140671D01*
X117430765Y-130117571D01*
X117424804Y-130093773D01*
X117421204Y-130069504D01*
X117420000Y-130045000D01*
X117420000Y-129295000D01*
X117421204Y-129270496D01*
X117424804Y-129246227D01*
X117430765Y-129222429D01*
X117439030Y-129199329D01*
X117449520Y-129177151D01*
X117462133Y-129156107D01*
X117476747Y-129136402D01*
X117493223Y-129118223D01*
X117511402Y-129101747D01*
X117531107Y-129087133D01*
X117552151Y-129074520D01*
X117574329Y-129064030D01*
X117597429Y-129055765D01*
X117621227Y-129049804D01*
X117645496Y-129046204D01*
X117670000Y-129045000D01*
X119820000Y-129045000D01*
X119844504Y-129046204D01*
X119844504Y-129046204D01*
G37*
D14*
X118745000Y-129670000D03*
D15*
X131470400Y-132346700D03*
X130200400Y-134886700D03*
X128930400Y-132346700D03*
X127660400Y-134886700D03*
X126390400Y-132346700D03*
X125120400Y-134886700D03*
X123850400Y-132346700D03*
D16*
X122580400Y-134886700D03*
D17*
X121855200Y-128016400D03*
X126455200Y-128016400D03*
X124155200Y-128016400D03*
D18*
X124155200Y-121716400D03*
D12*
G36*
X138402142Y-130910174D02*
G01*
X138425803Y-130913684D01*
X138449007Y-130919496D01*
X138471529Y-130927554D01*
X138493153Y-130937782D01*
X138513670Y-130950079D01*
X138532883Y-130964329D01*
X138550607Y-130980393D01*
X138566671Y-130998117D01*
X138580921Y-131017330D01*
X138593218Y-131037847D01*
X138603446Y-131059471D01*
X138611504Y-131081993D01*
X138617316Y-131105197D01*
X138620826Y-131128858D01*
X138622000Y-131152750D01*
X138622000Y-131640250D01*
X138620826Y-131664142D01*
X138617316Y-131687803D01*
X138611504Y-131711007D01*
X138603446Y-131733529D01*
X138593218Y-131755153D01*
X138580921Y-131775670D01*
X138566671Y-131794883D01*
X138550607Y-131812607D01*
X138532883Y-131828671D01*
X138513670Y-131842921D01*
X138493153Y-131855218D01*
X138471529Y-131865446D01*
X138449007Y-131873504D01*
X138425803Y-131879316D01*
X138402142Y-131882826D01*
X138378250Y-131884000D01*
X137465750Y-131884000D01*
X137441858Y-131882826D01*
X137418197Y-131879316D01*
X137394993Y-131873504D01*
X137372471Y-131865446D01*
X137350847Y-131855218D01*
X137330330Y-131842921D01*
X137311117Y-131828671D01*
X137293393Y-131812607D01*
X137277329Y-131794883D01*
X137263079Y-131775670D01*
X137250782Y-131755153D01*
X137240554Y-131733529D01*
X137232496Y-131711007D01*
X137226684Y-131687803D01*
X137223174Y-131664142D01*
X137222000Y-131640250D01*
X137222000Y-131152750D01*
X137223174Y-131128858D01*
X137226684Y-131105197D01*
X137232496Y-131081993D01*
X137240554Y-131059471D01*
X137250782Y-131037847D01*
X137263079Y-131017330D01*
X137277329Y-130998117D01*
X137293393Y-130980393D01*
X137311117Y-130964329D01*
X137330330Y-130950079D01*
X137350847Y-130937782D01*
X137372471Y-130927554D01*
X137394993Y-130919496D01*
X137418197Y-130913684D01*
X137441858Y-130910174D01*
X137465750Y-130909000D01*
X138378250Y-130909000D01*
X138402142Y-130910174D01*
X138402142Y-130910174D01*
G37*
D19*
X137922000Y-131396500D03*
D12*
G36*
X138402142Y-132785174D02*
G01*
X138425803Y-132788684D01*
X138449007Y-132794496D01*
X138471529Y-132802554D01*
X138493153Y-132812782D01*
X138513670Y-132825079D01*
X138532883Y-132839329D01*
X138550607Y-132855393D01*
X138566671Y-132873117D01*
X138580921Y-132892330D01*
X138593218Y-132912847D01*
X138603446Y-132934471D01*
X138611504Y-132956993D01*
X138617316Y-132980197D01*
X138620826Y-133003858D01*
X138622000Y-133027750D01*
X138622000Y-133515250D01*
X138620826Y-133539142D01*
X138617316Y-133562803D01*
X138611504Y-133586007D01*
X138603446Y-133608529D01*
X138593218Y-133630153D01*
X138580921Y-133650670D01*
X138566671Y-133669883D01*
X138550607Y-133687607D01*
X138532883Y-133703671D01*
X138513670Y-133717921D01*
X138493153Y-133730218D01*
X138471529Y-133740446D01*
X138449007Y-133748504D01*
X138425803Y-133754316D01*
X138402142Y-133757826D01*
X138378250Y-133759000D01*
X137465750Y-133759000D01*
X137441858Y-133757826D01*
X137418197Y-133754316D01*
X137394993Y-133748504D01*
X137372471Y-133740446D01*
X137350847Y-133730218D01*
X137330330Y-133717921D01*
X137311117Y-133703671D01*
X137293393Y-133687607D01*
X137277329Y-133669883D01*
X137263079Y-133650670D01*
X137250782Y-133630153D01*
X137240554Y-133608529D01*
X137232496Y-133586007D01*
X137226684Y-133562803D01*
X137223174Y-133539142D01*
X137222000Y-133515250D01*
X137222000Y-133027750D01*
X137223174Y-133003858D01*
X137226684Y-132980197D01*
X137232496Y-132956993D01*
X137240554Y-132934471D01*
X137250782Y-132912847D01*
X137263079Y-132892330D01*
X137277329Y-132873117D01*
X137293393Y-132855393D01*
X137311117Y-132839329D01*
X137330330Y-132825079D01*
X137350847Y-132812782D01*
X137372471Y-132802554D01*
X137394993Y-132794496D01*
X137418197Y-132788684D01*
X137441858Y-132785174D01*
X137465750Y-132784000D01*
X138378250Y-132784000D01*
X138402142Y-132785174D01*
X138402142Y-132785174D01*
G37*
D19*
X137922000Y-133271500D03*
D12*
G36*
X116812142Y-130910174D02*
G01*
X116835803Y-130913684D01*
X116859007Y-130919496D01*
X116881529Y-130927554D01*
X116903153Y-130937782D01*
X116923670Y-130950079D01*
X116942883Y-130964329D01*
X116960607Y-130980393D01*
X116976671Y-130998117D01*
X116990921Y-131017330D01*
X117003218Y-131037847D01*
X117013446Y-131059471D01*
X117021504Y-131081993D01*
X117027316Y-131105197D01*
X117030826Y-131128858D01*
X117032000Y-131152750D01*
X117032000Y-131640250D01*
X117030826Y-131664142D01*
X117027316Y-131687803D01*
X117021504Y-131711007D01*
X117013446Y-131733529D01*
X117003218Y-131755153D01*
X116990921Y-131775670D01*
X116976671Y-131794883D01*
X116960607Y-131812607D01*
X116942883Y-131828671D01*
X116923670Y-131842921D01*
X116903153Y-131855218D01*
X116881529Y-131865446D01*
X116859007Y-131873504D01*
X116835803Y-131879316D01*
X116812142Y-131882826D01*
X116788250Y-131884000D01*
X115875750Y-131884000D01*
X115851858Y-131882826D01*
X115828197Y-131879316D01*
X115804993Y-131873504D01*
X115782471Y-131865446D01*
X115760847Y-131855218D01*
X115740330Y-131842921D01*
X115721117Y-131828671D01*
X115703393Y-131812607D01*
X115687329Y-131794883D01*
X115673079Y-131775670D01*
X115660782Y-131755153D01*
X115650554Y-131733529D01*
X115642496Y-131711007D01*
X115636684Y-131687803D01*
X115633174Y-131664142D01*
X115632000Y-131640250D01*
X115632000Y-131152750D01*
X115633174Y-131128858D01*
X115636684Y-131105197D01*
X115642496Y-131081993D01*
X115650554Y-131059471D01*
X115660782Y-131037847D01*
X115673079Y-131017330D01*
X115687329Y-130998117D01*
X115703393Y-130980393D01*
X115721117Y-130964329D01*
X115740330Y-130950079D01*
X115760847Y-130937782D01*
X115782471Y-130927554D01*
X115804993Y-130919496D01*
X115828197Y-130913684D01*
X115851858Y-130910174D01*
X115875750Y-130909000D01*
X116788250Y-130909000D01*
X116812142Y-130910174D01*
X116812142Y-130910174D01*
G37*
D19*
X116332000Y-131396500D03*
D12*
G36*
X116812142Y-132785174D02*
G01*
X116835803Y-132788684D01*
X116859007Y-132794496D01*
X116881529Y-132802554D01*
X116903153Y-132812782D01*
X116923670Y-132825079D01*
X116942883Y-132839329D01*
X116960607Y-132855393D01*
X116976671Y-132873117D01*
X116990921Y-132892330D01*
X117003218Y-132912847D01*
X117013446Y-132934471D01*
X117021504Y-132956993D01*
X117027316Y-132980197D01*
X117030826Y-133003858D01*
X117032000Y-133027750D01*
X117032000Y-133515250D01*
X117030826Y-133539142D01*
X117027316Y-133562803D01*
X117021504Y-133586007D01*
X117013446Y-133608529D01*
X117003218Y-133630153D01*
X116990921Y-133650670D01*
X116976671Y-133669883D01*
X116960607Y-133687607D01*
X116942883Y-133703671D01*
X116923670Y-133717921D01*
X116903153Y-133730218D01*
X116881529Y-133740446D01*
X116859007Y-133748504D01*
X116835803Y-133754316D01*
X116812142Y-133757826D01*
X116788250Y-133759000D01*
X115875750Y-133759000D01*
X115851858Y-133757826D01*
X115828197Y-133754316D01*
X115804993Y-133748504D01*
X115782471Y-133740446D01*
X115760847Y-133730218D01*
X115740330Y-133717921D01*
X115721117Y-133703671D01*
X115703393Y-133687607D01*
X115687329Y-133669883D01*
X115673079Y-133650670D01*
X115660782Y-133630153D01*
X115650554Y-133608529D01*
X115642496Y-133586007D01*
X115636684Y-133562803D01*
X115633174Y-133539142D01*
X115632000Y-133515250D01*
X115632000Y-133027750D01*
X115633174Y-133003858D01*
X115636684Y-132980197D01*
X115642496Y-132956993D01*
X115650554Y-132934471D01*
X115660782Y-132912847D01*
X115673079Y-132892330D01*
X115687329Y-132873117D01*
X115703393Y-132855393D01*
X115721117Y-132839329D01*
X115740330Y-132825079D01*
X115760847Y-132812782D01*
X115782471Y-132802554D01*
X115804993Y-132794496D01*
X115828197Y-132788684D01*
X115851858Y-132785174D01*
X115875750Y-132784000D01*
X116788250Y-132784000D01*
X116812142Y-132785174D01*
X116812142Y-132785174D01*
G37*
D19*
X116332000Y-133271500D03*
D15*
X130302000Y-130556000D03*
D20*
X128294953Y-139724953D03*
X122795847Y-129653847D03*
X134624653Y-112263347D03*
X132495120Y-114471836D03*
X126492000Y-138938000D03*
X134112000Y-132334000D03*
X125095000Y-139065000D03*
X126707453Y-141312453D03*
X131572000Y-126238000D03*
X120396000Y-130746500D03*
X131826000Y-113393400D03*
X137160000Y-114046000D03*
X128708435Y-112657767D03*
X116974937Y-113799937D03*
X136397480Y-122172090D03*
X130081600Y-111218400D03*
X121412000Y-111379000D03*
X127713032Y-112561971D03*
X132519847Y-111955153D03*
X119198847Y-112848847D03*
X111760000Y-124460000D03*
X122942108Y-112782108D03*
X134756663Y-122768249D03*
X138430000Y-127762000D03*
X118872000Y-135699500D03*
D21*
X122580400Y-134886700D02*
X121855200Y-134161500D01*
X131956000Y-128270000D02*
X131956000Y-128902000D01*
X131956000Y-128902000D02*
X130302000Y-130556000D01*
D22*
X128294953Y-139724953D02*
X127659953Y-139724953D01*
X127659953Y-139724953D02*
X126952147Y-139017147D01*
D21*
X119891400Y-128016400D02*
X118745000Y-126870000D01*
X121855200Y-128016400D02*
X119891400Y-128016400D01*
D22*
X122060153Y-129653847D02*
X121855200Y-129858800D01*
X122795847Y-129653847D02*
X122060153Y-129653847D01*
D21*
X121855200Y-134161500D02*
X121855200Y-129858800D01*
X121855200Y-129858800D02*
X121855200Y-128016400D01*
D22*
X132495120Y-114392880D02*
X132495120Y-114471836D01*
X134624653Y-112263347D02*
X132495120Y-114392880D01*
X126952147Y-139017147D02*
X126571147Y-139017147D01*
X126571147Y-139017147D02*
X126492000Y-138938000D01*
X133226000Y-129540000D02*
X131956000Y-128270000D01*
X134643000Y-129540000D02*
X133226000Y-129540000D01*
X130302000Y-130556000D02*
X132334000Y-130556000D01*
X132334000Y-130556000D02*
X134112000Y-132334000D01*
D21*
X126455200Y-129741900D02*
X123850400Y-132346700D01*
X126455200Y-128016400D02*
X126455200Y-129741900D01*
X126708800Y-128270000D02*
X126455200Y-128016400D01*
X129156000Y-128270000D02*
X126708800Y-128270000D01*
D22*
X125095000Y-139065000D02*
X126707453Y-140677453D01*
X126707453Y-140677453D02*
X126707453Y-141312453D01*
X126863023Y-112784964D02*
X126863023Y-111751433D01*
X127365031Y-113286972D02*
X126863023Y-112784964D01*
X128061033Y-113286972D02*
X127365031Y-113286972D01*
X128708435Y-112657767D02*
X128690238Y-112657767D01*
X128690238Y-112657767D02*
X128061033Y-113286972D01*
X126501610Y-111390020D02*
X124011400Y-111390020D01*
X126863023Y-111751433D02*
X126501610Y-111390020D01*
X124011400Y-111390020D02*
X123308890Y-111390020D01*
X122144900Y-112554010D02*
X120672402Y-112554010D01*
X123308890Y-111390020D02*
X122144900Y-112554010D01*
X117201026Y-113573848D02*
X116974937Y-113799937D01*
X120672402Y-112554010D02*
X119652564Y-113573848D01*
X119652564Y-113573848D02*
X117201026Y-113573848D01*
X140168999Y-124420999D02*
X139319000Y-123571000D01*
X140683999Y-124935999D02*
X140168999Y-124420999D01*
X140683999Y-128634501D02*
X140683999Y-124935999D01*
X137922000Y-131396500D02*
X140683999Y-128634501D01*
X136963165Y-122172090D02*
X136397480Y-122172090D01*
X137119092Y-122172090D02*
X136963165Y-122172090D01*
X138518002Y-123571000D02*
X137119092Y-122172090D01*
X139319000Y-123571000D02*
X138518002Y-123571000D01*
X130081600Y-111218400D02*
X129353200Y-110490000D01*
X129353200Y-110490000D02*
X122936089Y-110490001D01*
X122936089Y-110490001D02*
X122047090Y-111379000D01*
X122047090Y-111379000D02*
X121412000Y-111379000D01*
X129314753Y-111955153D02*
X132519847Y-111955153D01*
X129253001Y-111893401D02*
X129314753Y-111955153D01*
X127713032Y-112561971D02*
X128381602Y-111893401D01*
X128381602Y-111893401D02*
X129253001Y-111893401D01*
X127713032Y-112561971D02*
X127313033Y-112161972D01*
X127313033Y-112161972D02*
X127313033Y-111565033D01*
X127313033Y-111565033D02*
X126688010Y-110940010D01*
X126688010Y-110940010D02*
X123825000Y-110940010D01*
X123825000Y-110940010D02*
X123122490Y-110940010D01*
X123122490Y-110940010D02*
X121958500Y-112104000D01*
X121958500Y-112104000D02*
X119943694Y-112104000D01*
X119943694Y-112104000D02*
X119198847Y-112848847D01*
X122542109Y-113182107D02*
X122942108Y-112782108D01*
X120802107Y-113182107D02*
X122542109Y-113182107D01*
X119684214Y-114300000D02*
X120802107Y-113182107D01*
X117547876Y-114300000D02*
X119684214Y-114300000D01*
X113030000Y-118110000D02*
X113030000Y-117475000D01*
X113030000Y-117475000D02*
X115980062Y-114524938D01*
X111760000Y-119380000D02*
X113030000Y-118110000D01*
X111760000Y-124460000D02*
X111760000Y-119380000D01*
X115980062Y-114524938D02*
X117322938Y-114524938D01*
X117322938Y-114524938D02*
X117547876Y-114300000D01*
X134756663Y-123333934D02*
X136358728Y-124935999D01*
X134756663Y-122768249D02*
X134756663Y-123333934D01*
X136358728Y-124935999D02*
X137343001Y-124935999D01*
X137343001Y-124935999D02*
X138143999Y-125736997D01*
X138143999Y-125736997D02*
X138143999Y-127475999D01*
X138143999Y-127475999D02*
X138430000Y-127762000D01*
X116444000Y-133271500D02*
X116332000Y-133271500D01*
X118872000Y-135699500D02*
X116444000Y-133271500D01*
X137365763Y-132715263D02*
X137922000Y-133271500D01*
X136656990Y-132006490D02*
X137365763Y-132715263D01*
X136656990Y-130583990D02*
X136656990Y-132006490D01*
X135613000Y-129540000D02*
X136656990Y-130583990D01*
D23*
G36*
X133259965Y-111236508D02*
G01*
X133328233Y-111264785D01*
X134056801Y-111774783D01*
X134044421Y-111787163D01*
X133962671Y-111909510D01*
X133906360Y-112045455D01*
X133877653Y-112189774D01*
X133877653Y-112336920D01*
X133878635Y-112341857D01*
X132495656Y-113724836D01*
X132421547Y-113724836D01*
X132277228Y-113753543D01*
X132141283Y-113809854D01*
X132018936Y-113891604D01*
X131914888Y-113995652D01*
X131833138Y-114117999D01*
X131776827Y-114253944D01*
X131748120Y-114398263D01*
X131748120Y-114545409D01*
X131776827Y-114689728D01*
X131833138Y-114825673D01*
X131914888Y-114948020D01*
X132018936Y-115052068D01*
X132141283Y-115133818D01*
X132277228Y-115190129D01*
X132421547Y-115218836D01*
X132568693Y-115218836D01*
X132713012Y-115190129D01*
X132848957Y-115133818D01*
X132971304Y-115052068D01*
X133075352Y-114948020D01*
X133157102Y-114825673D01*
X133213413Y-114689728D01*
X133242120Y-114545409D01*
X133242120Y-114398263D01*
X133228038Y-114327470D01*
X134546143Y-113009365D01*
X134551080Y-113010347D01*
X134698226Y-113010347D01*
X134842545Y-112981640D01*
X134978490Y-112925329D01*
X135100837Y-112843579D01*
X135204885Y-112739531D01*
X135278220Y-112629777D01*
X139605999Y-115659223D01*
X142755014Y-120697646D01*
X143966434Y-126754745D01*
X143978000Y-127000000D01*
X143971012Y-127222365D01*
X142763492Y-133259966D01*
X142728091Y-133345431D01*
X139605999Y-138340777D01*
X134594171Y-141849058D01*
X134612578Y-141804619D01*
X134687400Y-141428463D01*
X134687400Y-141044937D01*
X134612578Y-140668781D01*
X134465809Y-140314450D01*
X134252734Y-139995560D01*
X133981540Y-139724366D01*
X133662650Y-139511291D01*
X133308319Y-139364522D01*
X132932163Y-139289700D01*
X132548637Y-139289700D01*
X132172481Y-139364522D01*
X131818150Y-139511291D01*
X131499260Y-139724366D01*
X131228066Y-139995560D01*
X131014991Y-140314450D01*
X130868222Y-140668781D01*
X130793400Y-141044937D01*
X130793400Y-141428463D01*
X130868222Y-141804619D01*
X131014991Y-142158950D01*
X131228066Y-142477840D01*
X131499260Y-142749034D01*
X131818150Y-142962109D01*
X131964265Y-143022632D01*
X127245255Y-143966434D01*
X127000000Y-143978000D01*
X126754745Y-143966434D01*
X122069993Y-143029484D01*
X122232650Y-142962109D01*
X122551540Y-142749034D01*
X122822734Y-142477840D01*
X123035809Y-142158950D01*
X123182578Y-141804619D01*
X123257400Y-141428463D01*
X123257400Y-141044937D01*
X123182578Y-140668781D01*
X123035809Y-140314450D01*
X122822734Y-139995560D01*
X122551540Y-139724366D01*
X122232650Y-139511291D01*
X121878319Y-139364522D01*
X121502163Y-139289700D01*
X121118637Y-139289700D01*
X120742481Y-139364522D01*
X120388150Y-139511291D01*
X120069260Y-139724366D01*
X119798066Y-139995560D01*
X119584991Y-140314450D01*
X119438222Y-140668781D01*
X119363400Y-141044937D01*
X119363400Y-141428463D01*
X119438222Y-141804619D01*
X119477373Y-141899139D01*
X115142073Y-138864427D01*
X125745000Y-138864427D01*
X125745000Y-139011573D01*
X125773707Y-139155892D01*
X125830018Y-139291837D01*
X125911768Y-139414184D01*
X126015816Y-139518232D01*
X126138163Y-139599982D01*
X126274108Y-139656293D01*
X126418427Y-139685000D01*
X126565573Y-139685000D01*
X126709892Y-139656293D01*
X126845837Y-139599982D01*
X126858807Y-139591316D01*
X127309806Y-140042315D01*
X127324584Y-140060322D01*
X127396455Y-140119305D01*
X127478452Y-140163133D01*
X127567425Y-140190123D01*
X127659953Y-140199236D01*
X127683133Y-140196953D01*
X127711925Y-140196953D01*
X127714721Y-140201137D01*
X127818769Y-140305185D01*
X127941116Y-140386935D01*
X128077061Y-140443246D01*
X128221380Y-140471953D01*
X128368526Y-140471953D01*
X128512845Y-140443246D01*
X128648790Y-140386935D01*
X128771137Y-140305185D01*
X128875185Y-140201137D01*
X128956935Y-140078790D01*
X129013246Y-139942845D01*
X129041953Y-139798526D01*
X129041953Y-139651380D01*
X129013246Y-139507061D01*
X128956935Y-139371116D01*
X128875185Y-139248769D01*
X128771137Y-139144721D01*
X128648790Y-139062971D01*
X128512845Y-139006660D01*
X128368526Y-138977953D01*
X128221380Y-138977953D01*
X128077061Y-139006660D01*
X127941116Y-139062971D01*
X127818769Y-139144721D01*
X127782999Y-139180491D01*
X127302298Y-138699790D01*
X127287516Y-138681778D01*
X127215645Y-138622795D01*
X127157000Y-138591449D01*
X127153982Y-138584163D01*
X127072232Y-138461816D01*
X126968184Y-138357768D01*
X126845837Y-138276018D01*
X126709892Y-138219707D01*
X126565573Y-138191000D01*
X126418427Y-138191000D01*
X126274108Y-138219707D01*
X126138163Y-138276018D01*
X126015816Y-138357768D01*
X125911768Y-138461816D01*
X125830018Y-138584163D01*
X125773707Y-138720108D01*
X125745000Y-138864427D01*
X115142073Y-138864427D01*
X114394001Y-138340777D01*
X111271909Y-133345431D01*
X111236508Y-133259966D01*
X110961315Y-131884000D01*
X114993928Y-131884000D01*
X115006188Y-132008482D01*
X115042498Y-132128180D01*
X115101463Y-132238494D01*
X115180815Y-132335185D01*
X115277506Y-132414537D01*
X115387820Y-132473502D01*
X115507518Y-132509812D01*
X115580583Y-132517008D01*
X115546615Y-132535164D01*
X115456840Y-132608840D01*
X115383164Y-132698615D01*
X115328418Y-132801038D01*
X115294705Y-132912173D01*
X115283322Y-133027750D01*
X115283322Y-133515250D01*
X115294705Y-133630827D01*
X115328418Y-133741962D01*
X115383164Y-133844385D01*
X115456840Y-133934160D01*
X115546615Y-134007836D01*
X115649038Y-134062582D01*
X115760173Y-134096295D01*
X115875750Y-134107678D01*
X116612670Y-134107678D01*
X118125982Y-135620991D01*
X118125000Y-135625927D01*
X118125000Y-135773073D01*
X118153707Y-135917392D01*
X118210018Y-136053337D01*
X118291768Y-136175684D01*
X118395816Y-136279732D01*
X118518163Y-136361482D01*
X118654108Y-136417793D01*
X118798427Y-136446500D01*
X118945573Y-136446500D01*
X119089892Y-136417793D01*
X119225837Y-136361482D01*
X119348184Y-136279732D01*
X119452232Y-136175684D01*
X119533982Y-136053337D01*
X119590293Y-135917392D01*
X119619000Y-135773073D01*
X119619000Y-135625927D01*
X119590293Y-135481608D01*
X119533982Y-135345663D01*
X119452232Y-135223316D01*
X119348184Y-135119268D01*
X119225837Y-135037518D01*
X119089892Y-134981207D01*
X118945573Y-134952500D01*
X118798427Y-134952500D01*
X118793491Y-134953482D01*
X117378399Y-133538391D01*
X117380678Y-133515250D01*
X117380678Y-133027750D01*
X117369295Y-132912173D01*
X117335582Y-132801038D01*
X117280836Y-132698615D01*
X117207160Y-132608840D01*
X117117385Y-132535164D01*
X117083417Y-132517008D01*
X117156482Y-132509812D01*
X117276180Y-132473502D01*
X117386494Y-132414537D01*
X117483185Y-132335185D01*
X117562537Y-132238494D01*
X117621502Y-132128180D01*
X117657812Y-132008482D01*
X117670072Y-131884000D01*
X117667000Y-131682250D01*
X117508250Y-131523500D01*
X116459000Y-131523500D01*
X116459000Y-131543500D01*
X116205000Y-131543500D01*
X116205000Y-131523500D01*
X115155750Y-131523500D01*
X114997000Y-131682250D01*
X114993928Y-131884000D01*
X110961315Y-131884000D01*
X110766316Y-130909000D01*
X114993928Y-130909000D01*
X114997000Y-131110750D01*
X115155750Y-131269500D01*
X116205000Y-131269500D01*
X116205000Y-130432750D01*
X116459000Y-130432750D01*
X116459000Y-131269500D01*
X117508250Y-131269500D01*
X117667000Y-131110750D01*
X117669717Y-130932334D01*
X118459250Y-130930000D01*
X118618000Y-130771250D01*
X118618000Y-129797000D01*
X118872000Y-129797000D01*
X118872000Y-130771250D01*
X119030750Y-130930000D01*
X120070000Y-130933072D01*
X120194482Y-130920812D01*
X120314180Y-130884502D01*
X120424494Y-130825537D01*
X120521185Y-130746185D01*
X120600537Y-130649494D01*
X120659502Y-130539180D01*
X120695812Y-130419482D01*
X120708072Y-130295000D01*
X120705000Y-129955750D01*
X120546250Y-129797000D01*
X118872000Y-129797000D01*
X118618000Y-129797000D01*
X116943750Y-129797000D01*
X116785000Y-129955750D01*
X116782129Y-130272781D01*
X116617750Y-130274000D01*
X116459000Y-130432750D01*
X116205000Y-130432750D01*
X116046250Y-130274000D01*
X115632000Y-130270928D01*
X115507518Y-130283188D01*
X115387820Y-130319498D01*
X115277506Y-130378463D01*
X115180815Y-130457815D01*
X115101463Y-130554506D01*
X115042498Y-130664820D01*
X115006188Y-130784518D01*
X114993928Y-130909000D01*
X110766316Y-130909000D01*
X110393516Y-129045000D01*
X116781928Y-129045000D01*
X116785000Y-129384250D01*
X116943750Y-129543000D01*
X118618000Y-129543000D01*
X118618000Y-129523000D01*
X118872000Y-129523000D01*
X118872000Y-129543000D01*
X120546250Y-129543000D01*
X120705000Y-129384250D01*
X120707453Y-129113400D01*
X120758200Y-129113400D01*
X120758200Y-129912681D01*
X120758201Y-129912691D01*
X120758200Y-134107618D01*
X120752893Y-134161500D01*
X120758200Y-134215381D01*
X120774074Y-134376548D01*
X120836801Y-134583334D01*
X120938665Y-134773909D01*
X121075751Y-134940949D01*
X121117614Y-134975305D01*
X121481722Y-135339413D01*
X121481722Y-135636700D01*
X121488422Y-135704724D01*
X121508264Y-135770133D01*
X121540485Y-135830415D01*
X121583847Y-135883253D01*
X121636685Y-135926615D01*
X121696967Y-135958836D01*
X121762376Y-135978678D01*
X121830400Y-135985378D01*
X122543555Y-135985378D01*
X122580400Y-135989007D01*
X122617245Y-135985378D01*
X123330400Y-135985378D01*
X123398424Y-135978678D01*
X123463833Y-135958836D01*
X123524115Y-135926615D01*
X123576953Y-135883253D01*
X123620315Y-135830415D01*
X123652536Y-135770133D01*
X123672378Y-135704724D01*
X123679078Y-135636700D01*
X123679078Y-134923545D01*
X123682707Y-134886700D01*
X123679078Y-134849855D01*
X123679078Y-134778655D01*
X124023400Y-134778655D01*
X124023400Y-134994745D01*
X124065557Y-135206683D01*
X124148251Y-135406324D01*
X124268304Y-135585997D01*
X124421103Y-135738796D01*
X124600776Y-135858849D01*
X124800417Y-135941543D01*
X125012355Y-135983700D01*
X125228445Y-135983700D01*
X125440383Y-135941543D01*
X125640024Y-135858849D01*
X125819697Y-135738796D01*
X125972496Y-135585997D01*
X126092549Y-135406324D01*
X126175243Y-135206683D01*
X126217400Y-134994745D01*
X126217400Y-134778655D01*
X126563400Y-134778655D01*
X126563400Y-134994745D01*
X126605557Y-135206683D01*
X126688251Y-135406324D01*
X126808304Y-135585997D01*
X126961103Y-135738796D01*
X127140776Y-135858849D01*
X127340417Y-135941543D01*
X127552355Y-135983700D01*
X127768445Y-135983700D01*
X127980383Y-135941543D01*
X128180024Y-135858849D01*
X128359697Y-135738796D01*
X128512496Y-135585997D01*
X128632549Y-135406324D01*
X128715243Y-135206683D01*
X128757400Y-134994745D01*
X128757400Y-134778655D01*
X129103400Y-134778655D01*
X129103400Y-134994745D01*
X129145557Y-135206683D01*
X129228251Y-135406324D01*
X129348304Y-135585997D01*
X129501103Y-135738796D01*
X129680776Y-135858849D01*
X129880417Y-135941543D01*
X130092355Y-135983700D01*
X130308445Y-135983700D01*
X130520383Y-135941543D01*
X130720024Y-135858849D01*
X130899697Y-135738796D01*
X131052496Y-135585997D01*
X131172549Y-135406324D01*
X131255243Y-135206683D01*
X131297400Y-134994745D01*
X131297400Y-134778655D01*
X131255243Y-134566717D01*
X131172549Y-134367076D01*
X131052496Y-134187403D01*
X130899697Y-134034604D01*
X130720024Y-133914551D01*
X130520383Y-133831857D01*
X130308445Y-133789700D01*
X130092355Y-133789700D01*
X129880417Y-133831857D01*
X129680776Y-133914551D01*
X129501103Y-134034604D01*
X129348304Y-134187403D01*
X129228251Y-134367076D01*
X129145557Y-134566717D01*
X129103400Y-134778655D01*
X128757400Y-134778655D01*
X128715243Y-134566717D01*
X128632549Y-134367076D01*
X128512496Y-134187403D01*
X128359697Y-134034604D01*
X128180024Y-133914551D01*
X127980383Y-133831857D01*
X127768445Y-133789700D01*
X127552355Y-133789700D01*
X127340417Y-133831857D01*
X127140776Y-133914551D01*
X126961103Y-134034604D01*
X126808304Y-134187403D01*
X126688251Y-134367076D01*
X126605557Y-134566717D01*
X126563400Y-134778655D01*
X126217400Y-134778655D01*
X126175243Y-134566717D01*
X126092549Y-134367076D01*
X125972496Y-134187403D01*
X125819697Y-134034604D01*
X125640024Y-133914551D01*
X125440383Y-133831857D01*
X125228445Y-133789700D01*
X125012355Y-133789700D01*
X124800417Y-133831857D01*
X124600776Y-133914551D01*
X124421103Y-134034604D01*
X124268304Y-134187403D01*
X124148251Y-134367076D01*
X124065557Y-134566717D01*
X124023400Y-134778655D01*
X123679078Y-134778655D01*
X123679078Y-134136700D01*
X123672378Y-134068676D01*
X123652536Y-134003267D01*
X123620315Y-133942985D01*
X123576953Y-133890147D01*
X123524115Y-133846785D01*
X123463833Y-133814564D01*
X123398424Y-133794722D01*
X123330400Y-133788022D01*
X123033113Y-133788022D01*
X122952200Y-133707109D01*
X122952200Y-132981448D01*
X122968204Y-133000950D01*
X122998304Y-133045997D01*
X123036614Y-133084307D01*
X123070952Y-133126148D01*
X123112793Y-133160486D01*
X123151103Y-133198796D01*
X123196150Y-133228896D01*
X123237992Y-133263234D01*
X123285733Y-133288752D01*
X123330776Y-133318849D01*
X123380819Y-133339578D01*
X123428566Y-133365099D01*
X123480375Y-133380815D01*
X123530417Y-133401543D01*
X123583543Y-133412110D01*
X123635351Y-133427826D01*
X123689229Y-133433133D01*
X123742355Y-133443700D01*
X123796518Y-133443700D01*
X123850400Y-133449007D01*
X123904282Y-133443700D01*
X123958445Y-133443700D01*
X124011571Y-133433133D01*
X124065449Y-133427826D01*
X124117257Y-133412110D01*
X124170383Y-133401543D01*
X124220425Y-133380815D01*
X124272234Y-133365099D01*
X124319981Y-133339578D01*
X124370024Y-133318849D01*
X124415067Y-133288752D01*
X124462808Y-133263234D01*
X124504650Y-133228895D01*
X124549697Y-133198796D01*
X124702496Y-133045997D01*
X124702500Y-133045991D01*
X125293457Y-132455034D01*
X125335557Y-132666683D01*
X125418251Y-132866324D01*
X125538304Y-133045997D01*
X125691103Y-133198796D01*
X125870776Y-133318849D01*
X126070417Y-133401543D01*
X126282355Y-133443700D01*
X126498445Y-133443700D01*
X126710383Y-133401543D01*
X126910024Y-133318849D01*
X127089697Y-133198796D01*
X127242496Y-133045997D01*
X127362549Y-132866324D01*
X127445243Y-132666683D01*
X127487400Y-132454745D01*
X127487400Y-132238655D01*
X127833400Y-132238655D01*
X127833400Y-132454745D01*
X127875557Y-132666683D01*
X127958251Y-132866324D01*
X128078304Y-133045997D01*
X128231103Y-133198796D01*
X128410776Y-133318849D01*
X128610417Y-133401543D01*
X128822355Y-133443700D01*
X129038445Y-133443700D01*
X129250383Y-133401543D01*
X129450024Y-133318849D01*
X129629697Y-133198796D01*
X129782496Y-133045997D01*
X129902549Y-132866324D01*
X129985243Y-132666683D01*
X130027400Y-132454745D01*
X130027400Y-132238655D01*
X129985243Y-132026717D01*
X129902549Y-131827076D01*
X129782496Y-131647403D01*
X129629697Y-131494604D01*
X129450024Y-131374551D01*
X129250383Y-131291857D01*
X129038445Y-131249700D01*
X128822355Y-131249700D01*
X128610417Y-131291857D01*
X128410776Y-131374551D01*
X128231103Y-131494604D01*
X128078304Y-131647403D01*
X127958251Y-131827076D01*
X127875557Y-132026717D01*
X127833400Y-132238655D01*
X127487400Y-132238655D01*
X127445243Y-132026717D01*
X127362549Y-131827076D01*
X127242496Y-131647403D01*
X127089697Y-131494604D01*
X126910024Y-131374551D01*
X126710383Y-131291857D01*
X126498735Y-131249758D01*
X127192797Y-130555696D01*
X127234649Y-130521349D01*
X127371735Y-130354309D01*
X127473599Y-130163735D01*
X127526538Y-129989216D01*
X127536326Y-129956950D01*
X127557507Y-129741901D01*
X127552200Y-129688019D01*
X127552200Y-129367000D01*
X128184489Y-129367000D01*
X128193825Y-129461796D01*
X128227894Y-129574104D01*
X128283217Y-129677608D01*
X128357671Y-129768329D01*
X128448392Y-129842783D01*
X128551896Y-129898106D01*
X128664204Y-129932175D01*
X128781000Y-129943678D01*
X129385420Y-129943678D01*
X129359948Y-129991333D01*
X129329851Y-130036376D01*
X129309122Y-130086419D01*
X129283601Y-130134166D01*
X129267885Y-130185975D01*
X129247157Y-130236017D01*
X129236590Y-130289143D01*
X129220874Y-130340951D01*
X129215567Y-130394829D01*
X129205000Y-130447955D01*
X129205000Y-130502118D01*
X129199693Y-130556000D01*
X129205000Y-130609882D01*
X129205000Y-130664045D01*
X129215567Y-130717171D01*
X129220874Y-130771049D01*
X129236590Y-130822857D01*
X129247157Y-130875983D01*
X129267885Y-130926025D01*
X129283601Y-130977834D01*
X129309122Y-131025581D01*
X129329851Y-131075624D01*
X129359948Y-131120667D01*
X129385466Y-131168408D01*
X129419804Y-131210250D01*
X129449904Y-131255297D01*
X129488214Y-131293607D01*
X129522552Y-131335448D01*
X129564393Y-131369786D01*
X129602703Y-131408096D01*
X129647750Y-131438196D01*
X129689592Y-131472534D01*
X129737333Y-131498052D01*
X129782376Y-131528149D01*
X129832419Y-131548878D01*
X129880166Y-131574399D01*
X129931975Y-131590115D01*
X129982017Y-131610843D01*
X130035143Y-131621410D01*
X130086951Y-131637126D01*
X130140829Y-131642433D01*
X130193955Y-131653000D01*
X130248118Y-131653000D01*
X130302000Y-131658307D01*
X130355882Y-131653000D01*
X130410045Y-131653000D01*
X130463171Y-131642433D01*
X130517049Y-131637126D01*
X130568857Y-131621410D01*
X130621983Y-131610843D01*
X130672025Y-131590115D01*
X130677145Y-131588562D01*
X130618304Y-131647403D01*
X130498251Y-131827076D01*
X130415557Y-132026717D01*
X130373400Y-132238655D01*
X130373400Y-132454745D01*
X130415557Y-132666683D01*
X130498251Y-132866324D01*
X130618304Y-133045997D01*
X130771103Y-133198796D01*
X130950776Y-133318849D01*
X131150417Y-133401543D01*
X131362355Y-133443700D01*
X131578445Y-133443700D01*
X131790383Y-133401543D01*
X131990024Y-133318849D01*
X132169697Y-133198796D01*
X132322496Y-133045997D01*
X132442549Y-132866324D01*
X132525243Y-132666683D01*
X132567400Y-132454745D01*
X132567400Y-132238655D01*
X132525243Y-132026717D01*
X132442549Y-131827076D01*
X132322496Y-131647403D01*
X132169697Y-131494604D01*
X131990024Y-131374551D01*
X131790383Y-131291857D01*
X131578445Y-131249700D01*
X131362355Y-131249700D01*
X131150417Y-131291857D01*
X131094286Y-131315107D01*
X131154096Y-131255297D01*
X131154100Y-131255291D01*
X131381391Y-131028000D01*
X132138492Y-131028000D01*
X133365982Y-132255491D01*
X133365000Y-132260427D01*
X133365000Y-132407573D01*
X133393707Y-132551892D01*
X133450018Y-132687837D01*
X133531768Y-132810184D01*
X133635816Y-132914232D01*
X133758163Y-132995982D01*
X133894108Y-133052293D01*
X134038427Y-133081000D01*
X134185573Y-133081000D01*
X134329892Y-133052293D01*
X134465837Y-132995982D01*
X134588184Y-132914232D01*
X134692232Y-132810184D01*
X134773982Y-132687837D01*
X134830293Y-132551892D01*
X134859000Y-132407573D01*
X134859000Y-132260427D01*
X134830293Y-132116108D01*
X134773982Y-131980163D01*
X134692232Y-131857816D01*
X134588184Y-131753768D01*
X134465837Y-131672018D01*
X134329892Y-131615707D01*
X134185573Y-131587000D01*
X134038427Y-131587000D01*
X134033491Y-131587982D01*
X132684151Y-130238643D01*
X132669369Y-130220631D01*
X132597498Y-130161648D01*
X132515500Y-130117820D01*
X132426528Y-130090830D01*
X132357180Y-130084000D01*
X132334000Y-130081717D01*
X132326984Y-130082408D01*
X132490028Y-129919364D01*
X132560104Y-129898106D01*
X132663608Y-129842783D01*
X132754329Y-129768329D01*
X132768975Y-129750483D01*
X132875849Y-129857357D01*
X132890631Y-129875369D01*
X132962502Y-129934352D01*
X133044500Y-129978180D01*
X133130627Y-130004307D01*
X133133472Y-130005170D01*
X133225999Y-130014283D01*
X133249179Y-130012000D01*
X133597092Y-130012000D01*
X133597515Y-130013395D01*
X133649951Y-130111496D01*
X133720518Y-130197482D01*
X133806504Y-130268049D01*
X133904605Y-130320485D01*
X134011050Y-130352775D01*
X134121750Y-130363678D01*
X134559250Y-130363678D01*
X134669950Y-130352775D01*
X134776395Y-130320485D01*
X134874496Y-130268049D01*
X134960482Y-130197482D01*
X135031049Y-130111496D01*
X135083485Y-130013395D01*
X135115775Y-129906950D01*
X135126678Y-129796250D01*
X135126678Y-129283750D01*
X135115775Y-129173050D01*
X135083485Y-129066605D01*
X135031049Y-128968504D01*
X134960482Y-128882518D01*
X134874496Y-128811951D01*
X134776395Y-128759515D01*
X134669950Y-128727225D01*
X134559250Y-128716322D01*
X134121750Y-128716322D01*
X134011050Y-128727225D01*
X133904605Y-128759515D01*
X133806504Y-128811951D01*
X133720518Y-128882518D01*
X133649951Y-128968504D01*
X133597515Y-129066605D01*
X133597092Y-129068000D01*
X133421508Y-129068000D01*
X133053000Y-128699492D01*
X133053000Y-128216118D01*
X133037126Y-128054951D01*
X132974399Y-127848165D01*
X132929678Y-127764498D01*
X132929678Y-127195000D01*
X132918175Y-127078204D01*
X132884106Y-126965896D01*
X132828783Y-126862392D01*
X132754329Y-126771671D01*
X132663608Y-126697217D01*
X132560104Y-126641894D01*
X132447796Y-126607825D01*
X132331000Y-126596322D01*
X131581000Y-126596322D01*
X131464204Y-126607825D01*
X131351896Y-126641894D01*
X131248392Y-126697217D01*
X131157671Y-126771671D01*
X131083217Y-126862392D01*
X131027894Y-126965896D01*
X130993825Y-127078204D01*
X130982322Y-127195000D01*
X130982322Y-127764499D01*
X130937601Y-127848166D01*
X130874874Y-128054952D01*
X130859000Y-128216119D01*
X130859000Y-128447608D01*
X130129678Y-129176931D01*
X130129678Y-128775502D01*
X130174399Y-128691835D01*
X130237126Y-128485049D01*
X130258307Y-128270000D01*
X130237126Y-128054951D01*
X130174399Y-127848165D01*
X130129678Y-127764498D01*
X130129678Y-127195000D01*
X130118175Y-127078204D01*
X130084106Y-126965896D01*
X130028783Y-126862392D01*
X129954329Y-126771671D01*
X129863608Y-126697217D01*
X129760104Y-126641894D01*
X129647796Y-126607825D01*
X129531000Y-126596322D01*
X128781000Y-126596322D01*
X128664204Y-126607825D01*
X128551896Y-126641894D01*
X128448392Y-126697217D01*
X128357671Y-126771671D01*
X128283217Y-126862392D01*
X128227894Y-126965896D01*
X128193825Y-127078204D01*
X128184489Y-127173000D01*
X127553878Y-127173000D01*
X127553878Y-127016400D01*
X127547178Y-126948376D01*
X127527336Y-126882967D01*
X127495115Y-126822685D01*
X127451753Y-126769847D01*
X127398915Y-126726485D01*
X127338633Y-126694264D01*
X127273224Y-126674422D01*
X127205200Y-126667722D01*
X125705200Y-126667722D01*
X125637176Y-126674422D01*
X125571767Y-126694264D01*
X125511485Y-126726485D01*
X125482827Y-126750004D01*
X125435737Y-126661906D01*
X125356385Y-126565215D01*
X125259694Y-126485863D01*
X125149380Y-126426898D01*
X125029682Y-126390588D01*
X124905200Y-126378328D01*
X124440950Y-126381400D01*
X124282200Y-126540150D01*
X124282200Y-127889400D01*
X124302200Y-127889400D01*
X124302200Y-128143400D01*
X124282200Y-128143400D01*
X124282200Y-129492650D01*
X124440950Y-129651400D01*
X124905200Y-129654472D01*
X125000635Y-129645073D01*
X123151109Y-131494600D01*
X123151103Y-131494604D01*
X122998304Y-131647403D01*
X122968205Y-131692450D01*
X122952200Y-131711952D01*
X122952200Y-130384381D01*
X123013739Y-130372140D01*
X123149684Y-130315829D01*
X123272031Y-130234079D01*
X123376079Y-130130031D01*
X123457829Y-130007684D01*
X123514140Y-129871739D01*
X123542847Y-129727420D01*
X123542847Y-129653561D01*
X123869450Y-129651400D01*
X124028200Y-129492650D01*
X124028200Y-128143400D01*
X124008200Y-128143400D01*
X124008200Y-127889400D01*
X124028200Y-127889400D01*
X124028200Y-126540150D01*
X123869450Y-126381400D01*
X123405200Y-126378328D01*
X123280718Y-126390588D01*
X123161020Y-126426898D01*
X123050706Y-126485863D01*
X122954015Y-126565215D01*
X122874663Y-126661906D01*
X122827573Y-126750004D01*
X122798915Y-126726485D01*
X122738633Y-126694264D01*
X122673224Y-126674422D01*
X122605200Y-126667722D01*
X121105200Y-126667722D01*
X121037176Y-126674422D01*
X120971767Y-126694264D01*
X120911485Y-126726485D01*
X120858647Y-126769847D01*
X120815285Y-126822685D01*
X120783064Y-126882967D01*
X120772012Y-126919400D01*
X120418678Y-126919400D01*
X120418678Y-126495000D01*
X120407175Y-126378204D01*
X120373106Y-126265896D01*
X120317783Y-126162392D01*
X120243329Y-126071671D01*
X120152608Y-125997217D01*
X120049104Y-125941894D01*
X119936796Y-125907825D01*
X119820000Y-125896322D01*
X119250500Y-125896322D01*
X119166834Y-125851601D01*
X118960049Y-125788874D01*
X118745000Y-125767693D01*
X118529951Y-125788874D01*
X118323166Y-125851601D01*
X118239500Y-125896322D01*
X117670000Y-125896322D01*
X117553204Y-125907825D01*
X117440896Y-125941894D01*
X117337392Y-125997217D01*
X117246671Y-126071671D01*
X117172217Y-126162392D01*
X117116894Y-126265896D01*
X117082825Y-126378204D01*
X117071322Y-126495000D01*
X117071322Y-127245000D01*
X117082825Y-127361796D01*
X117116894Y-127474104D01*
X117172217Y-127577608D01*
X117246671Y-127668329D01*
X117337392Y-127742783D01*
X117440896Y-127798106D01*
X117553204Y-127832175D01*
X117670000Y-127843678D01*
X118167287Y-127843678D01*
X118733608Y-128410000D01*
X118617998Y-128410000D01*
X118617998Y-128568748D01*
X118459250Y-128410000D01*
X117420000Y-128406928D01*
X117295518Y-128419188D01*
X117175820Y-128455498D01*
X117065506Y-128514463D01*
X116968815Y-128593815D01*
X116889463Y-128690506D01*
X116830498Y-128800820D01*
X116794188Y-128920518D01*
X116781928Y-129045000D01*
X110393516Y-129045000D01*
X110043379Y-127294319D01*
X110034805Y-126748548D01*
X111237167Y-120736743D01*
X111262573Y-120669506D01*
X111288001Y-120628822D01*
X111288000Y-123876972D01*
X111283816Y-123879768D01*
X111179768Y-123983816D01*
X111098018Y-124106163D01*
X111041707Y-124242108D01*
X111013000Y-124386427D01*
X111013000Y-124533573D01*
X111041707Y-124677892D01*
X111098018Y-124813837D01*
X111179768Y-124936184D01*
X111283816Y-125040232D01*
X111406163Y-125121982D01*
X111542108Y-125178293D01*
X111686427Y-125207000D01*
X111833573Y-125207000D01*
X111977892Y-125178293D01*
X112113837Y-125121982D01*
X112236184Y-125040232D01*
X112340232Y-124936184D01*
X112421982Y-124813837D01*
X112478293Y-124677892D01*
X112507000Y-124533573D01*
X112507000Y-124386427D01*
X112478293Y-124242108D01*
X112421982Y-124106163D01*
X112340232Y-123983816D01*
X112236184Y-123879768D01*
X112232000Y-123876972D01*
X112232000Y-122716400D01*
X121617128Y-122716400D01*
X121629388Y-122840882D01*
X121665698Y-122960580D01*
X121724663Y-123070894D01*
X121804015Y-123167585D01*
X121900706Y-123246937D01*
X122011020Y-123305902D01*
X122130718Y-123342212D01*
X122255200Y-123354472D01*
X123869450Y-123351400D01*
X124028200Y-123192650D01*
X124028200Y-121843400D01*
X124282200Y-121843400D01*
X124282200Y-123192650D01*
X124440950Y-123351400D01*
X126055200Y-123354472D01*
X126179682Y-123342212D01*
X126299380Y-123305902D01*
X126409694Y-123246937D01*
X126506385Y-123167585D01*
X126585737Y-123070894D01*
X126644702Y-122960580D01*
X126681012Y-122840882D01*
X126693272Y-122716400D01*
X126693179Y-122694676D01*
X134009663Y-122694676D01*
X134009663Y-122841822D01*
X134038370Y-122986141D01*
X134094681Y-123122086D01*
X134176431Y-123244433D01*
X134280479Y-123348481D01*
X134284048Y-123350865D01*
X134291493Y-123426461D01*
X134318484Y-123515434D01*
X134348184Y-123570999D01*
X134362312Y-123597432D01*
X134421295Y-123669303D01*
X134439302Y-123684081D01*
X135976403Y-125221183D01*
X135928498Y-125260498D01*
X135778916Y-125442765D01*
X135667766Y-125650712D01*
X135599320Y-125876347D01*
X135576209Y-126111000D01*
X135599320Y-126345653D01*
X135667766Y-126571288D01*
X135778916Y-126779235D01*
X135928498Y-126961502D01*
X136110765Y-127111084D01*
X136318712Y-127222234D01*
X136544347Y-127290680D01*
X136720202Y-127308000D01*
X136837798Y-127308000D01*
X137013653Y-127290680D01*
X137239288Y-127222234D01*
X137447235Y-127111084D01*
X137629502Y-126961502D01*
X137672000Y-126909718D01*
X137672000Y-127452809D01*
X137669716Y-127475999D01*
X137678829Y-127568526D01*
X137686729Y-127594566D01*
X137695753Y-127624313D01*
X137683000Y-127688427D01*
X137683000Y-127835573D01*
X137711707Y-127979892D01*
X137768018Y-128115837D01*
X137849768Y-128238184D01*
X137953816Y-128342232D01*
X138076163Y-128423982D01*
X138212108Y-128480293D01*
X138356427Y-128509000D01*
X138503573Y-128509000D01*
X138647892Y-128480293D01*
X138783837Y-128423982D01*
X138906184Y-128342232D01*
X139010232Y-128238184D01*
X139091982Y-128115837D01*
X139148293Y-127979892D01*
X139177000Y-127835573D01*
X139177000Y-127688427D01*
X139148293Y-127544108D01*
X139091982Y-127408163D01*
X139010232Y-127285816D01*
X138984942Y-127260526D01*
X139084347Y-127290680D01*
X139260202Y-127308000D01*
X139377798Y-127308000D01*
X139553653Y-127290680D01*
X139779288Y-127222234D01*
X139987235Y-127111084D01*
X140169502Y-126961502D01*
X140211999Y-126909718D01*
X140211999Y-128438993D01*
X138090670Y-130560322D01*
X137465750Y-130560322D01*
X137350173Y-130571705D01*
X137239038Y-130605418D01*
X137136615Y-130660164D01*
X137128990Y-130666422D01*
X137128990Y-130607170D01*
X137131273Y-130583990D01*
X137122160Y-130491462D01*
X137095170Y-130402489D01*
X137051342Y-130320492D01*
X137007135Y-130266626D01*
X136992359Y-130248621D01*
X136974352Y-130233843D01*
X136680693Y-129940185D01*
X136690775Y-129906950D01*
X136701678Y-129796250D01*
X136701678Y-129283750D01*
X136690775Y-129173050D01*
X136658485Y-129066605D01*
X136606049Y-128968504D01*
X136535482Y-128882518D01*
X136449496Y-128811951D01*
X136351395Y-128759515D01*
X136244950Y-128727225D01*
X136134250Y-128716322D01*
X135696750Y-128716322D01*
X135586050Y-128727225D01*
X135479605Y-128759515D01*
X135381504Y-128811951D01*
X135295518Y-128882518D01*
X135224951Y-128968504D01*
X135172515Y-129066605D01*
X135140225Y-129173050D01*
X135129322Y-129283750D01*
X135129322Y-129796250D01*
X135140225Y-129906950D01*
X135172515Y-130013395D01*
X135224951Y-130111496D01*
X135295518Y-130197482D01*
X135381504Y-130268049D01*
X135479605Y-130320485D01*
X135586050Y-130352775D01*
X135696750Y-130363678D01*
X135769170Y-130363678D01*
X136184990Y-130779499D01*
X136184991Y-131983300D01*
X136182707Y-132006490D01*
X136191820Y-132099017D01*
X136218811Y-132187990D01*
X136262638Y-132269987D01*
X136287389Y-132300146D01*
X136321622Y-132341859D01*
X136339629Y-132356637D01*
X136887140Y-132904148D01*
X136884705Y-132912173D01*
X136873322Y-133027750D01*
X136873322Y-133515250D01*
X136884705Y-133630827D01*
X136918418Y-133741962D01*
X136973164Y-133844385D01*
X137046840Y-133934160D01*
X137136615Y-134007836D01*
X137239038Y-134062582D01*
X137350173Y-134096295D01*
X137465750Y-134107678D01*
X138378250Y-134107678D01*
X138493827Y-134096295D01*
X138604962Y-134062582D01*
X138707385Y-134007836D01*
X138797160Y-133934160D01*
X138870836Y-133844385D01*
X138925582Y-133741962D01*
X138959295Y-133630827D01*
X138970678Y-133515250D01*
X138970678Y-133027750D01*
X138959295Y-132912173D01*
X138925582Y-132801038D01*
X138870836Y-132698615D01*
X138797160Y-132608840D01*
X138707385Y-132535164D01*
X138604962Y-132480418D01*
X138493827Y-132446705D01*
X138378250Y-132435322D01*
X137753330Y-132435322D01*
X137550686Y-132232678D01*
X138378250Y-132232678D01*
X138493827Y-132221295D01*
X138604962Y-132187582D01*
X138707385Y-132132836D01*
X138797160Y-132059160D01*
X138870836Y-131969385D01*
X138925582Y-131866962D01*
X138959295Y-131755827D01*
X138970678Y-131640250D01*
X138970678Y-131152750D01*
X138959295Y-131037173D01*
X138956860Y-131029148D01*
X141001356Y-128984652D01*
X141019368Y-128969870D01*
X141078351Y-128897999D01*
X141122179Y-128816001D01*
X141149169Y-128727029D01*
X141155999Y-128657681D01*
X141155999Y-128657680D01*
X141158282Y-128634502D01*
X141155999Y-128611324D01*
X141155999Y-127413086D01*
X141354901Y-127507825D01*
X141502110Y-127552476D01*
X141732000Y-127431155D01*
X141732000Y-126238000D01*
X141986000Y-126238000D01*
X141986000Y-127431155D01*
X142215890Y-127552476D01*
X142363099Y-127507825D01*
X142625920Y-127382641D01*
X142859269Y-127208588D01*
X143054178Y-126992355D01*
X143203157Y-126742252D01*
X143300481Y-126467891D01*
X143179814Y-126238000D01*
X141986000Y-126238000D01*
X141732000Y-126238000D01*
X141712000Y-126238000D01*
X141712000Y-125984000D01*
X141732000Y-125984000D01*
X141732000Y-125964000D01*
X141986000Y-125964000D01*
X141986000Y-125984000D01*
X143179814Y-125984000D01*
X143300481Y-125754109D01*
X143203157Y-125479748D01*
X143054178Y-125229645D01*
X142859269Y-125013412D01*
X142625920Y-124839359D01*
X142479626Y-124769678D01*
X142709000Y-124769678D01*
X142777024Y-124762978D01*
X142842433Y-124743136D01*
X142902715Y-124710915D01*
X142955553Y-124667553D01*
X142998915Y-124614715D01*
X143031136Y-124554433D01*
X143050978Y-124489024D01*
X143057678Y-124421000D01*
X143057678Y-122721000D01*
X143050978Y-122652976D01*
X143031136Y-122587567D01*
X142998915Y-122527285D01*
X142955553Y-122474447D01*
X142902715Y-122431085D01*
X142842433Y-122398864D01*
X142777024Y-122379022D01*
X142709000Y-122372322D01*
X141009000Y-122372322D01*
X140940976Y-122379022D01*
X140875567Y-122398864D01*
X140815285Y-122431085D01*
X140762447Y-122474447D01*
X140719085Y-122527285D01*
X140686864Y-122587567D01*
X140667022Y-122652976D01*
X140660322Y-122721000D01*
X140660322Y-124244814D01*
X140519148Y-124103640D01*
X140519144Y-124103635D01*
X140434089Y-124018580D01*
X140498680Y-123805653D01*
X140521791Y-123571000D01*
X140498680Y-123336347D01*
X140430234Y-123110712D01*
X140319084Y-122902765D01*
X140169502Y-122720498D01*
X139987235Y-122570916D01*
X139779288Y-122459766D01*
X139553653Y-122391320D01*
X139377798Y-122374000D01*
X139260202Y-122374000D01*
X139084347Y-122391320D01*
X138858712Y-122459766D01*
X138650765Y-122570916D01*
X138468498Y-122720498D01*
X138408327Y-122793817D01*
X137469243Y-121854733D01*
X137454461Y-121836721D01*
X137382590Y-121777738D01*
X137300592Y-121733910D01*
X137211620Y-121706920D01*
X137142272Y-121700090D01*
X137119092Y-121697807D01*
X137095912Y-121700090D01*
X136980508Y-121700090D01*
X136977712Y-121695906D01*
X136873664Y-121591858D01*
X136751317Y-121510108D01*
X136615372Y-121453797D01*
X136471053Y-121425090D01*
X136323907Y-121425090D01*
X136179588Y-121453797D01*
X136043643Y-121510108D01*
X135921296Y-121591858D01*
X135817248Y-121695906D01*
X135735498Y-121818253D01*
X135679187Y-121954198D01*
X135650480Y-122098517D01*
X135650480Y-122245663D01*
X135679187Y-122389982D01*
X135735498Y-122525927D01*
X135817248Y-122648274D01*
X135910907Y-122741933D01*
X135778916Y-122902765D01*
X135667766Y-123110712D01*
X135599320Y-123336347D01*
X135583833Y-123493595D01*
X135335783Y-123245545D01*
X135336895Y-123244433D01*
X135418645Y-123122086D01*
X135474956Y-122986141D01*
X135503663Y-122841822D01*
X135503663Y-122694676D01*
X135474956Y-122550357D01*
X135418645Y-122414412D01*
X135336895Y-122292065D01*
X135232847Y-122188017D01*
X135110500Y-122106267D01*
X134974555Y-122049956D01*
X134830236Y-122021249D01*
X134683090Y-122021249D01*
X134538771Y-122049956D01*
X134402826Y-122106267D01*
X134280479Y-122188017D01*
X134176431Y-122292065D01*
X134094681Y-122414412D01*
X134038370Y-122550357D01*
X134009663Y-122694676D01*
X126693179Y-122694676D01*
X126690200Y-122002150D01*
X126531450Y-121843400D01*
X124282200Y-121843400D01*
X124028200Y-121843400D01*
X121778950Y-121843400D01*
X121620200Y-122002150D01*
X121617128Y-122716400D01*
X112232000Y-122716400D01*
X112232000Y-120716400D01*
X121617128Y-120716400D01*
X121620200Y-121430650D01*
X121778950Y-121589400D01*
X124028200Y-121589400D01*
X124028200Y-120240150D01*
X124282200Y-120240150D01*
X124282200Y-121589400D01*
X126531450Y-121589400D01*
X126690200Y-121430650D01*
X126693272Y-120716400D01*
X126681012Y-120591918D01*
X126644702Y-120472220D01*
X126585737Y-120361906D01*
X126506385Y-120265215D01*
X126409694Y-120185863D01*
X126299380Y-120126898D01*
X126179682Y-120090588D01*
X126055200Y-120078328D01*
X124440950Y-120081400D01*
X124282200Y-120240150D01*
X124028200Y-120240150D01*
X123869450Y-120081400D01*
X122255200Y-120078328D01*
X122130718Y-120090588D01*
X122011020Y-120126898D01*
X121900706Y-120185863D01*
X121804015Y-120265215D01*
X121724663Y-120361906D01*
X121665698Y-120472220D01*
X121629388Y-120591918D01*
X121617128Y-120716400D01*
X112232000Y-120716400D01*
X112232000Y-119575508D01*
X113347357Y-118460151D01*
X113365369Y-118445369D01*
X113424352Y-118373498D01*
X113468180Y-118291500D01*
X113495170Y-118202528D01*
X113502000Y-118133180D01*
X113502000Y-118133179D01*
X113504283Y-118110001D01*
X113502000Y-118086821D01*
X113502000Y-117670508D01*
X116175571Y-114996938D01*
X117299758Y-114996938D01*
X117322938Y-114999221D01*
X117346118Y-114996938D01*
X117415466Y-114990108D01*
X117504438Y-114963118D01*
X117586436Y-114919290D01*
X117658307Y-114860307D01*
X117673090Y-114842294D01*
X117743384Y-114772000D01*
X119661034Y-114772000D01*
X119684214Y-114774283D01*
X119707394Y-114772000D01*
X119776742Y-114765170D01*
X119865714Y-114738180D01*
X119947712Y-114694352D01*
X120019583Y-114635369D01*
X120034365Y-114617357D01*
X120997615Y-113654107D01*
X122518929Y-113654107D01*
X122542109Y-113656390D01*
X122565289Y-113654107D01*
X122634637Y-113647277D01*
X122723609Y-113620287D01*
X122805607Y-113576459D01*
X122864325Y-113528271D01*
X122868535Y-113529108D01*
X123015681Y-113529108D01*
X123160000Y-113500401D01*
X123295945Y-113444090D01*
X123418292Y-113362340D01*
X123522340Y-113258292D01*
X123604090Y-113135945D01*
X123660401Y-113000000D01*
X123689108Y-112855681D01*
X123689108Y-112708535D01*
X123660401Y-112564216D01*
X123604090Y-112428271D01*
X123522340Y-112305924D01*
X123418292Y-112201876D01*
X123295945Y-112120126D01*
X123260835Y-112105583D01*
X123504398Y-111862020D01*
X126306102Y-111862020D01*
X126391024Y-111946942D01*
X126391023Y-112761784D01*
X126388740Y-112784964D01*
X126391945Y-112817507D01*
X126397853Y-112877491D01*
X126424843Y-112966463D01*
X126468671Y-113048462D01*
X126527654Y-113120333D01*
X126545666Y-113135115D01*
X127014884Y-113604334D01*
X127029662Y-113622341D01*
X127047667Y-113637117D01*
X127101533Y-113681324D01*
X127183531Y-113725152D01*
X127272503Y-113752142D01*
X127365031Y-113761255D01*
X127388211Y-113758972D01*
X128037853Y-113758972D01*
X128061033Y-113761255D01*
X128084213Y-113758972D01*
X128153561Y-113752142D01*
X128242533Y-113725152D01*
X128324531Y-113681324D01*
X128396402Y-113622341D01*
X128411184Y-113604329D01*
X128614747Y-113400766D01*
X128634862Y-113404767D01*
X128782008Y-113404767D01*
X128926327Y-113376060D01*
X129062272Y-113319749D01*
X129184619Y-113237999D01*
X129288667Y-113133951D01*
X129370417Y-113011604D01*
X129426728Y-112875659D01*
X129455435Y-112731340D01*
X129455435Y-112584194D01*
X129426728Y-112439875D01*
X129421458Y-112427153D01*
X131936819Y-112427153D01*
X131939615Y-112431337D01*
X132043663Y-112535385D01*
X132166010Y-112617135D01*
X132301955Y-112673446D01*
X132446274Y-112702153D01*
X132593420Y-112702153D01*
X132737739Y-112673446D01*
X132873684Y-112617135D01*
X132996031Y-112535385D01*
X133100079Y-112431337D01*
X133181829Y-112308990D01*
X133238140Y-112173045D01*
X133266847Y-112028726D01*
X133266847Y-111881580D01*
X133238140Y-111737261D01*
X133181829Y-111601316D01*
X133100079Y-111478969D01*
X132996031Y-111374921D01*
X132873684Y-111293171D01*
X132737739Y-111236860D01*
X132593420Y-111208153D01*
X132446274Y-111208153D01*
X132301955Y-111236860D01*
X132166010Y-111293171D01*
X132043663Y-111374921D01*
X131939615Y-111478969D01*
X131936819Y-111483153D01*
X130780482Y-111483153D01*
X130799893Y-111436292D01*
X130828600Y-111291973D01*
X130828600Y-111144827D01*
X130799893Y-111000508D01*
X130743582Y-110864563D01*
X130661832Y-110742216D01*
X130630164Y-110710548D01*
X133259965Y-111236508D01*
X133259965Y-111236508D01*
G37*
X133259965Y-111236508D02*
X133328233Y-111264785D01*
X134056801Y-111774783D01*
X134044421Y-111787163D01*
X133962671Y-111909510D01*
X133906360Y-112045455D01*
X133877653Y-112189774D01*
X133877653Y-112336920D01*
X133878635Y-112341857D01*
X132495656Y-113724836D01*
X132421547Y-113724836D01*
X132277228Y-113753543D01*
X132141283Y-113809854D01*
X132018936Y-113891604D01*
X131914888Y-113995652D01*
X131833138Y-114117999D01*
X131776827Y-114253944D01*
X131748120Y-114398263D01*
X131748120Y-114545409D01*
X131776827Y-114689728D01*
X131833138Y-114825673D01*
X131914888Y-114948020D01*
X132018936Y-115052068D01*
X132141283Y-115133818D01*
X132277228Y-115190129D01*
X132421547Y-115218836D01*
X132568693Y-115218836D01*
X132713012Y-115190129D01*
X132848957Y-115133818D01*
X132971304Y-115052068D01*
X133075352Y-114948020D01*
X133157102Y-114825673D01*
X133213413Y-114689728D01*
X133242120Y-114545409D01*
X133242120Y-114398263D01*
X133228038Y-114327470D01*
X134546143Y-113009365D01*
X134551080Y-113010347D01*
X134698226Y-113010347D01*
X134842545Y-112981640D01*
X134978490Y-112925329D01*
X135100837Y-112843579D01*
X135204885Y-112739531D01*
X135278220Y-112629777D01*
X139605999Y-115659223D01*
X142755014Y-120697646D01*
X143966434Y-126754745D01*
X143978000Y-127000000D01*
X143971012Y-127222365D01*
X142763492Y-133259966D01*
X142728091Y-133345431D01*
X139605999Y-138340777D01*
X134594171Y-141849058D01*
X134612578Y-141804619D01*
X134687400Y-141428463D01*
X134687400Y-141044937D01*
X134612578Y-140668781D01*
X134465809Y-140314450D01*
X134252734Y-139995560D01*
X133981540Y-139724366D01*
X133662650Y-139511291D01*
X133308319Y-139364522D01*
X132932163Y-139289700D01*
X132548637Y-139289700D01*
X132172481Y-139364522D01*
X131818150Y-139511291D01*
X131499260Y-139724366D01*
X131228066Y-139995560D01*
X131014991Y-140314450D01*
X130868222Y-140668781D01*
X130793400Y-141044937D01*
X130793400Y-141428463D01*
X130868222Y-141804619D01*
X131014991Y-142158950D01*
X131228066Y-142477840D01*
X131499260Y-142749034D01*
X131818150Y-142962109D01*
X131964265Y-143022632D01*
X127245255Y-143966434D01*
X127000000Y-143978000D01*
X126754745Y-143966434D01*
X122069993Y-143029484D01*
X122232650Y-142962109D01*
X122551540Y-142749034D01*
X122822734Y-142477840D01*
X123035809Y-142158950D01*
X123182578Y-141804619D01*
X123257400Y-141428463D01*
X123257400Y-141044937D01*
X123182578Y-140668781D01*
X123035809Y-140314450D01*
X122822734Y-139995560D01*
X122551540Y-139724366D01*
X122232650Y-139511291D01*
X121878319Y-139364522D01*
X121502163Y-139289700D01*
X121118637Y-139289700D01*
X120742481Y-139364522D01*
X120388150Y-139511291D01*
X120069260Y-139724366D01*
X119798066Y-139995560D01*
X119584991Y-140314450D01*
X119438222Y-140668781D01*
X119363400Y-141044937D01*
X119363400Y-141428463D01*
X119438222Y-141804619D01*
X119477373Y-141899139D01*
X115142073Y-138864427D01*
X125745000Y-138864427D01*
X125745000Y-139011573D01*
X125773707Y-139155892D01*
X125830018Y-139291837D01*
X125911768Y-139414184D01*
X126015816Y-139518232D01*
X126138163Y-139599982D01*
X126274108Y-139656293D01*
X126418427Y-139685000D01*
X126565573Y-139685000D01*
X126709892Y-139656293D01*
X126845837Y-139599982D01*
X126858807Y-139591316D01*
X127309806Y-140042315D01*
X127324584Y-140060322D01*
X127396455Y-140119305D01*
X127478452Y-140163133D01*
X127567425Y-140190123D01*
X127659953Y-140199236D01*
X127683133Y-140196953D01*
X127711925Y-140196953D01*
X127714721Y-140201137D01*
X127818769Y-140305185D01*
X127941116Y-140386935D01*
X128077061Y-140443246D01*
X128221380Y-140471953D01*
X128368526Y-140471953D01*
X128512845Y-140443246D01*
X128648790Y-140386935D01*
X128771137Y-140305185D01*
X128875185Y-140201137D01*
X128956935Y-140078790D01*
X129013246Y-139942845D01*
X129041953Y-139798526D01*
X129041953Y-139651380D01*
X129013246Y-139507061D01*
X128956935Y-139371116D01*
X128875185Y-139248769D01*
X128771137Y-139144721D01*
X128648790Y-139062971D01*
X128512845Y-139006660D01*
X128368526Y-138977953D01*
X128221380Y-138977953D01*
X128077061Y-139006660D01*
X127941116Y-139062971D01*
X127818769Y-139144721D01*
X127782999Y-139180491D01*
X127302298Y-138699790D01*
X127287516Y-138681778D01*
X127215645Y-138622795D01*
X127157000Y-138591449D01*
X127153982Y-138584163D01*
X127072232Y-138461816D01*
X126968184Y-138357768D01*
X126845837Y-138276018D01*
X126709892Y-138219707D01*
X126565573Y-138191000D01*
X126418427Y-138191000D01*
X126274108Y-138219707D01*
X126138163Y-138276018D01*
X126015816Y-138357768D01*
X125911768Y-138461816D01*
X125830018Y-138584163D01*
X125773707Y-138720108D01*
X125745000Y-138864427D01*
X115142073Y-138864427D01*
X114394001Y-138340777D01*
X111271909Y-133345431D01*
X111236508Y-133259966D01*
X110961315Y-131884000D01*
X114993928Y-131884000D01*
X115006188Y-132008482D01*
X115042498Y-132128180D01*
X115101463Y-132238494D01*
X115180815Y-132335185D01*
X115277506Y-132414537D01*
X115387820Y-132473502D01*
X115507518Y-132509812D01*
X115580583Y-132517008D01*
X115546615Y-132535164D01*
X115456840Y-132608840D01*
X115383164Y-132698615D01*
X115328418Y-132801038D01*
X115294705Y-132912173D01*
X115283322Y-133027750D01*
X115283322Y-133515250D01*
X115294705Y-133630827D01*
X115328418Y-133741962D01*
X115383164Y-133844385D01*
X115456840Y-133934160D01*
X115546615Y-134007836D01*
X115649038Y-134062582D01*
X115760173Y-134096295D01*
X115875750Y-134107678D01*
X116612670Y-134107678D01*
X118125982Y-135620991D01*
X118125000Y-135625927D01*
X118125000Y-135773073D01*
X118153707Y-135917392D01*
X118210018Y-136053337D01*
X118291768Y-136175684D01*
X118395816Y-136279732D01*
X118518163Y-136361482D01*
X118654108Y-136417793D01*
X118798427Y-136446500D01*
X118945573Y-136446500D01*
X119089892Y-136417793D01*
X119225837Y-136361482D01*
X119348184Y-136279732D01*
X119452232Y-136175684D01*
X119533982Y-136053337D01*
X119590293Y-135917392D01*
X119619000Y-135773073D01*
X119619000Y-135625927D01*
X119590293Y-135481608D01*
X119533982Y-135345663D01*
X119452232Y-135223316D01*
X119348184Y-135119268D01*
X119225837Y-135037518D01*
X119089892Y-134981207D01*
X118945573Y-134952500D01*
X118798427Y-134952500D01*
X118793491Y-134953482D01*
X117378399Y-133538391D01*
X117380678Y-133515250D01*
X117380678Y-133027750D01*
X117369295Y-132912173D01*
X117335582Y-132801038D01*
X117280836Y-132698615D01*
X117207160Y-132608840D01*
X117117385Y-132535164D01*
X117083417Y-132517008D01*
X117156482Y-132509812D01*
X117276180Y-132473502D01*
X117386494Y-132414537D01*
X117483185Y-132335185D01*
X117562537Y-132238494D01*
X117621502Y-132128180D01*
X117657812Y-132008482D01*
X117670072Y-131884000D01*
X117667000Y-131682250D01*
X117508250Y-131523500D01*
X116459000Y-131523500D01*
X116459000Y-131543500D01*
X116205000Y-131543500D01*
X116205000Y-131523500D01*
X115155750Y-131523500D01*
X114997000Y-131682250D01*
X114993928Y-131884000D01*
X110961315Y-131884000D01*
X110766316Y-130909000D01*
X114993928Y-130909000D01*
X114997000Y-131110750D01*
X115155750Y-131269500D01*
X116205000Y-131269500D01*
X116205000Y-130432750D01*
X116459000Y-130432750D01*
X116459000Y-131269500D01*
X117508250Y-131269500D01*
X117667000Y-131110750D01*
X117669717Y-130932334D01*
X118459250Y-130930000D01*
X118618000Y-130771250D01*
X118618000Y-129797000D01*
X118872000Y-129797000D01*
X118872000Y-130771250D01*
X119030750Y-130930000D01*
X120070000Y-130933072D01*
X120194482Y-130920812D01*
X120314180Y-130884502D01*
X120424494Y-130825537D01*
X120521185Y-130746185D01*
X120600537Y-130649494D01*
X120659502Y-130539180D01*
X120695812Y-130419482D01*
X120708072Y-130295000D01*
X120705000Y-129955750D01*
X120546250Y-129797000D01*
X118872000Y-129797000D01*
X118618000Y-129797000D01*
X116943750Y-129797000D01*
X116785000Y-129955750D01*
X116782129Y-130272781D01*
X116617750Y-130274000D01*
X116459000Y-130432750D01*
X116205000Y-130432750D01*
X116046250Y-130274000D01*
X115632000Y-130270928D01*
X115507518Y-130283188D01*
X115387820Y-130319498D01*
X115277506Y-130378463D01*
X115180815Y-130457815D01*
X115101463Y-130554506D01*
X115042498Y-130664820D01*
X115006188Y-130784518D01*
X114993928Y-130909000D01*
X110766316Y-130909000D01*
X110393516Y-129045000D01*
X116781928Y-129045000D01*
X116785000Y-129384250D01*
X116943750Y-129543000D01*
X118618000Y-129543000D01*
X118618000Y-129523000D01*
X118872000Y-129523000D01*
X118872000Y-129543000D01*
X120546250Y-129543000D01*
X120705000Y-129384250D01*
X120707453Y-129113400D01*
X120758200Y-129113400D01*
X120758200Y-129912681D01*
X120758201Y-129912691D01*
X120758200Y-134107618D01*
X120752893Y-134161500D01*
X120758200Y-134215381D01*
X120774074Y-134376548D01*
X120836801Y-134583334D01*
X120938665Y-134773909D01*
X121075751Y-134940949D01*
X121117614Y-134975305D01*
X121481722Y-135339413D01*
X121481722Y-135636700D01*
X121488422Y-135704724D01*
X121508264Y-135770133D01*
X121540485Y-135830415D01*
X121583847Y-135883253D01*
X121636685Y-135926615D01*
X121696967Y-135958836D01*
X121762376Y-135978678D01*
X121830400Y-135985378D01*
X122543555Y-135985378D01*
X122580400Y-135989007D01*
X122617245Y-135985378D01*
X123330400Y-135985378D01*
X123398424Y-135978678D01*
X123463833Y-135958836D01*
X123524115Y-135926615D01*
X123576953Y-135883253D01*
X123620315Y-135830415D01*
X123652536Y-135770133D01*
X123672378Y-135704724D01*
X123679078Y-135636700D01*
X123679078Y-134923545D01*
X123682707Y-134886700D01*
X123679078Y-134849855D01*
X123679078Y-134778655D01*
X124023400Y-134778655D01*
X124023400Y-134994745D01*
X124065557Y-135206683D01*
X124148251Y-135406324D01*
X124268304Y-135585997D01*
X124421103Y-135738796D01*
X124600776Y-135858849D01*
X124800417Y-135941543D01*
X125012355Y-135983700D01*
X125228445Y-135983700D01*
X125440383Y-135941543D01*
X125640024Y-135858849D01*
X125819697Y-135738796D01*
X125972496Y-135585997D01*
X126092549Y-135406324D01*
X126175243Y-135206683D01*
X126217400Y-134994745D01*
X126217400Y-134778655D01*
X126563400Y-134778655D01*
X126563400Y-134994745D01*
X126605557Y-135206683D01*
X126688251Y-135406324D01*
X126808304Y-135585997D01*
X126961103Y-135738796D01*
X127140776Y-135858849D01*
X127340417Y-135941543D01*
X127552355Y-135983700D01*
X127768445Y-135983700D01*
X127980383Y-135941543D01*
X128180024Y-135858849D01*
X128359697Y-135738796D01*
X128512496Y-135585997D01*
X128632549Y-135406324D01*
X128715243Y-135206683D01*
X128757400Y-134994745D01*
X128757400Y-134778655D01*
X129103400Y-134778655D01*
X129103400Y-134994745D01*
X129145557Y-135206683D01*
X129228251Y-135406324D01*
X129348304Y-135585997D01*
X129501103Y-135738796D01*
X129680776Y-135858849D01*
X129880417Y-135941543D01*
X130092355Y-135983700D01*
X130308445Y-135983700D01*
X130520383Y-135941543D01*
X130720024Y-135858849D01*
X130899697Y-135738796D01*
X131052496Y-135585997D01*
X131172549Y-135406324D01*
X131255243Y-135206683D01*
X131297400Y-134994745D01*
X131297400Y-134778655D01*
X131255243Y-134566717D01*
X131172549Y-134367076D01*
X131052496Y-134187403D01*
X130899697Y-134034604D01*
X130720024Y-133914551D01*
X130520383Y-133831857D01*
X130308445Y-133789700D01*
X130092355Y-133789700D01*
X129880417Y-133831857D01*
X129680776Y-133914551D01*
X129501103Y-134034604D01*
X129348304Y-134187403D01*
X129228251Y-134367076D01*
X129145557Y-134566717D01*
X129103400Y-134778655D01*
X128757400Y-134778655D01*
X128715243Y-134566717D01*
X128632549Y-134367076D01*
X128512496Y-134187403D01*
X128359697Y-134034604D01*
X128180024Y-133914551D01*
X127980383Y-133831857D01*
X127768445Y-133789700D01*
X127552355Y-133789700D01*
X127340417Y-133831857D01*
X127140776Y-133914551D01*
X126961103Y-134034604D01*
X126808304Y-134187403D01*
X126688251Y-134367076D01*
X126605557Y-134566717D01*
X126563400Y-134778655D01*
X126217400Y-134778655D01*
X126175243Y-134566717D01*
X126092549Y-134367076D01*
X125972496Y-134187403D01*
X125819697Y-134034604D01*
X125640024Y-133914551D01*
X125440383Y-133831857D01*
X125228445Y-133789700D01*
X125012355Y-133789700D01*
X124800417Y-133831857D01*
X124600776Y-133914551D01*
X124421103Y-134034604D01*
X124268304Y-134187403D01*
X124148251Y-134367076D01*
X124065557Y-134566717D01*
X124023400Y-134778655D01*
X123679078Y-134778655D01*
X123679078Y-134136700D01*
X123672378Y-134068676D01*
X123652536Y-134003267D01*
X123620315Y-133942985D01*
X123576953Y-133890147D01*
X123524115Y-133846785D01*
X123463833Y-133814564D01*
X123398424Y-133794722D01*
X123330400Y-133788022D01*
X123033113Y-133788022D01*
X122952200Y-133707109D01*
X122952200Y-132981448D01*
X122968204Y-133000950D01*
X122998304Y-133045997D01*
X123036614Y-133084307D01*
X123070952Y-133126148D01*
X123112793Y-133160486D01*
X123151103Y-133198796D01*
X123196150Y-133228896D01*
X123237992Y-133263234D01*
X123285733Y-133288752D01*
X123330776Y-133318849D01*
X123380819Y-133339578D01*
X123428566Y-133365099D01*
X123480375Y-133380815D01*
X123530417Y-133401543D01*
X123583543Y-133412110D01*
X123635351Y-133427826D01*
X123689229Y-133433133D01*
X123742355Y-133443700D01*
X123796518Y-133443700D01*
X123850400Y-133449007D01*
X123904282Y-133443700D01*
X123958445Y-133443700D01*
X124011571Y-133433133D01*
X124065449Y-133427826D01*
X124117257Y-133412110D01*
X124170383Y-133401543D01*
X124220425Y-133380815D01*
X124272234Y-133365099D01*
X124319981Y-133339578D01*
X124370024Y-133318849D01*
X124415067Y-133288752D01*
X124462808Y-133263234D01*
X124504650Y-133228895D01*
X124549697Y-133198796D01*
X124702496Y-133045997D01*
X124702500Y-133045991D01*
X125293457Y-132455034D01*
X125335557Y-132666683D01*
X125418251Y-132866324D01*
X125538304Y-133045997D01*
X125691103Y-133198796D01*
X125870776Y-133318849D01*
X126070417Y-133401543D01*
X126282355Y-133443700D01*
X126498445Y-133443700D01*
X126710383Y-133401543D01*
X126910024Y-133318849D01*
X127089697Y-133198796D01*
X127242496Y-133045997D01*
X127362549Y-132866324D01*
X127445243Y-132666683D01*
X127487400Y-132454745D01*
X127487400Y-132238655D01*
X127833400Y-132238655D01*
X127833400Y-132454745D01*
X127875557Y-132666683D01*
X127958251Y-132866324D01*
X128078304Y-133045997D01*
X128231103Y-133198796D01*
X128410776Y-133318849D01*
X128610417Y-133401543D01*
X128822355Y-133443700D01*
X129038445Y-133443700D01*
X129250383Y-133401543D01*
X129450024Y-133318849D01*
X129629697Y-133198796D01*
X129782496Y-133045997D01*
X129902549Y-132866324D01*
X129985243Y-132666683D01*
X130027400Y-132454745D01*
X130027400Y-132238655D01*
X129985243Y-132026717D01*
X129902549Y-131827076D01*
X129782496Y-131647403D01*
X129629697Y-131494604D01*
X129450024Y-131374551D01*
X129250383Y-131291857D01*
X129038445Y-131249700D01*
X128822355Y-131249700D01*
X128610417Y-131291857D01*
X128410776Y-131374551D01*
X128231103Y-131494604D01*
X128078304Y-131647403D01*
X127958251Y-131827076D01*
X127875557Y-132026717D01*
X127833400Y-132238655D01*
X127487400Y-132238655D01*
X127445243Y-132026717D01*
X127362549Y-131827076D01*
X127242496Y-131647403D01*
X127089697Y-131494604D01*
X126910024Y-131374551D01*
X126710383Y-131291857D01*
X126498735Y-131249758D01*
X127192797Y-130555696D01*
X127234649Y-130521349D01*
X127371735Y-130354309D01*
X127473599Y-130163735D01*
X127526538Y-129989216D01*
X127536326Y-129956950D01*
X127557507Y-129741901D01*
X127552200Y-129688019D01*
X127552200Y-129367000D01*
X128184489Y-129367000D01*
X128193825Y-129461796D01*
X128227894Y-129574104D01*
X128283217Y-129677608D01*
X128357671Y-129768329D01*
X128448392Y-129842783D01*
X128551896Y-129898106D01*
X128664204Y-129932175D01*
X128781000Y-129943678D01*
X129385420Y-129943678D01*
X129359948Y-129991333D01*
X129329851Y-130036376D01*
X129309122Y-130086419D01*
X129283601Y-130134166D01*
X129267885Y-130185975D01*
X129247157Y-130236017D01*
X129236590Y-130289143D01*
X129220874Y-130340951D01*
X129215567Y-130394829D01*
X129205000Y-130447955D01*
X129205000Y-130502118D01*
X129199693Y-130556000D01*
X129205000Y-130609882D01*
X129205000Y-130664045D01*
X129215567Y-130717171D01*
X129220874Y-130771049D01*
X129236590Y-130822857D01*
X129247157Y-130875983D01*
X129267885Y-130926025D01*
X129283601Y-130977834D01*
X129309122Y-131025581D01*
X129329851Y-131075624D01*
X129359948Y-131120667D01*
X129385466Y-131168408D01*
X129419804Y-131210250D01*
X129449904Y-131255297D01*
X129488214Y-131293607D01*
X129522552Y-131335448D01*
X129564393Y-131369786D01*
X129602703Y-131408096D01*
X129647750Y-131438196D01*
X129689592Y-131472534D01*
X129737333Y-131498052D01*
X129782376Y-131528149D01*
X129832419Y-131548878D01*
X129880166Y-131574399D01*
X129931975Y-131590115D01*
X129982017Y-131610843D01*
X130035143Y-131621410D01*
X130086951Y-131637126D01*
X130140829Y-131642433D01*
X130193955Y-131653000D01*
X130248118Y-131653000D01*
X130302000Y-131658307D01*
X130355882Y-131653000D01*
X130410045Y-131653000D01*
X130463171Y-131642433D01*
X130517049Y-131637126D01*
X130568857Y-131621410D01*
X130621983Y-131610843D01*
X130672025Y-131590115D01*
X130677145Y-131588562D01*
X130618304Y-131647403D01*
X130498251Y-131827076D01*
X130415557Y-132026717D01*
X130373400Y-132238655D01*
X130373400Y-132454745D01*
X130415557Y-132666683D01*
X130498251Y-132866324D01*
X130618304Y-133045997D01*
X130771103Y-133198796D01*
X130950776Y-133318849D01*
X131150417Y-133401543D01*
X131362355Y-133443700D01*
X131578445Y-133443700D01*
X131790383Y-133401543D01*
X131990024Y-133318849D01*
X132169697Y-133198796D01*
X132322496Y-133045997D01*
X132442549Y-132866324D01*
X132525243Y-132666683D01*
X132567400Y-132454745D01*
X132567400Y-132238655D01*
X132525243Y-132026717D01*
X132442549Y-131827076D01*
X132322496Y-131647403D01*
X132169697Y-131494604D01*
X131990024Y-131374551D01*
X131790383Y-131291857D01*
X131578445Y-131249700D01*
X131362355Y-131249700D01*
X131150417Y-131291857D01*
X131094286Y-131315107D01*
X131154096Y-131255297D01*
X131154100Y-131255291D01*
X131381391Y-131028000D01*
X132138492Y-131028000D01*
X133365982Y-132255491D01*
X133365000Y-132260427D01*
X133365000Y-132407573D01*
X133393707Y-132551892D01*
X133450018Y-132687837D01*
X133531768Y-132810184D01*
X133635816Y-132914232D01*
X133758163Y-132995982D01*
X133894108Y-133052293D01*
X134038427Y-133081000D01*
X134185573Y-133081000D01*
X134329892Y-133052293D01*
X134465837Y-132995982D01*
X134588184Y-132914232D01*
X134692232Y-132810184D01*
X134773982Y-132687837D01*
X134830293Y-132551892D01*
X134859000Y-132407573D01*
X134859000Y-132260427D01*
X134830293Y-132116108D01*
X134773982Y-131980163D01*
X134692232Y-131857816D01*
X134588184Y-131753768D01*
X134465837Y-131672018D01*
X134329892Y-131615707D01*
X134185573Y-131587000D01*
X134038427Y-131587000D01*
X134033491Y-131587982D01*
X132684151Y-130238643D01*
X132669369Y-130220631D01*
X132597498Y-130161648D01*
X132515500Y-130117820D01*
X132426528Y-130090830D01*
X132357180Y-130084000D01*
X132334000Y-130081717D01*
X132326984Y-130082408D01*
X132490028Y-129919364D01*
X132560104Y-129898106D01*
X132663608Y-129842783D01*
X132754329Y-129768329D01*
X132768975Y-129750483D01*
X132875849Y-129857357D01*
X132890631Y-129875369D01*
X132962502Y-129934352D01*
X133044500Y-129978180D01*
X133130627Y-130004307D01*
X133133472Y-130005170D01*
X133225999Y-130014283D01*
X133249179Y-130012000D01*
X133597092Y-130012000D01*
X133597515Y-130013395D01*
X133649951Y-130111496D01*
X133720518Y-130197482D01*
X133806504Y-130268049D01*
X133904605Y-130320485D01*
X134011050Y-130352775D01*
X134121750Y-130363678D01*
X134559250Y-130363678D01*
X134669950Y-130352775D01*
X134776395Y-130320485D01*
X134874496Y-130268049D01*
X134960482Y-130197482D01*
X135031049Y-130111496D01*
X135083485Y-130013395D01*
X135115775Y-129906950D01*
X135126678Y-129796250D01*
X135126678Y-129283750D01*
X135115775Y-129173050D01*
X135083485Y-129066605D01*
X135031049Y-128968504D01*
X134960482Y-128882518D01*
X134874496Y-128811951D01*
X134776395Y-128759515D01*
X134669950Y-128727225D01*
X134559250Y-128716322D01*
X134121750Y-128716322D01*
X134011050Y-128727225D01*
X133904605Y-128759515D01*
X133806504Y-128811951D01*
X133720518Y-128882518D01*
X133649951Y-128968504D01*
X133597515Y-129066605D01*
X133597092Y-129068000D01*
X133421508Y-129068000D01*
X133053000Y-128699492D01*
X133053000Y-128216118D01*
X133037126Y-128054951D01*
X132974399Y-127848165D01*
X132929678Y-127764498D01*
X132929678Y-127195000D01*
X132918175Y-127078204D01*
X132884106Y-126965896D01*
X132828783Y-126862392D01*
X132754329Y-126771671D01*
X132663608Y-126697217D01*
X132560104Y-126641894D01*
X132447796Y-126607825D01*
X132331000Y-126596322D01*
X131581000Y-126596322D01*
X131464204Y-126607825D01*
X131351896Y-126641894D01*
X131248392Y-126697217D01*
X131157671Y-126771671D01*
X131083217Y-126862392D01*
X131027894Y-126965896D01*
X130993825Y-127078204D01*
X130982322Y-127195000D01*
X130982322Y-127764499D01*
X130937601Y-127848166D01*
X130874874Y-128054952D01*
X130859000Y-128216119D01*
X130859000Y-128447608D01*
X130129678Y-129176931D01*
X130129678Y-128775502D01*
X130174399Y-128691835D01*
X130237126Y-128485049D01*
X130258307Y-128270000D01*
X130237126Y-128054951D01*
X130174399Y-127848165D01*
X130129678Y-127764498D01*
X130129678Y-127195000D01*
X130118175Y-127078204D01*
X130084106Y-126965896D01*
X130028783Y-126862392D01*
X129954329Y-126771671D01*
X129863608Y-126697217D01*
X129760104Y-126641894D01*
X129647796Y-126607825D01*
X129531000Y-126596322D01*
X128781000Y-126596322D01*
X128664204Y-126607825D01*
X128551896Y-126641894D01*
X128448392Y-126697217D01*
X128357671Y-126771671D01*
X128283217Y-126862392D01*
X128227894Y-126965896D01*
X128193825Y-127078204D01*
X128184489Y-127173000D01*
X127553878Y-127173000D01*
X127553878Y-127016400D01*
X127547178Y-126948376D01*
X127527336Y-126882967D01*
X127495115Y-126822685D01*
X127451753Y-126769847D01*
X127398915Y-126726485D01*
X127338633Y-126694264D01*
X127273224Y-126674422D01*
X127205200Y-126667722D01*
X125705200Y-126667722D01*
X125637176Y-126674422D01*
X125571767Y-126694264D01*
X125511485Y-126726485D01*
X125482827Y-126750004D01*
X125435737Y-126661906D01*
X125356385Y-126565215D01*
X125259694Y-126485863D01*
X125149380Y-126426898D01*
X125029682Y-126390588D01*
X124905200Y-126378328D01*
X124440950Y-126381400D01*
X124282200Y-126540150D01*
X124282200Y-127889400D01*
X124302200Y-127889400D01*
X124302200Y-128143400D01*
X124282200Y-128143400D01*
X124282200Y-129492650D01*
X124440950Y-129651400D01*
X124905200Y-129654472D01*
X125000635Y-129645073D01*
X123151109Y-131494600D01*
X123151103Y-131494604D01*
X122998304Y-131647403D01*
X122968205Y-131692450D01*
X122952200Y-131711952D01*
X122952200Y-130384381D01*
X123013739Y-130372140D01*
X123149684Y-130315829D01*
X123272031Y-130234079D01*
X123376079Y-130130031D01*
X123457829Y-130007684D01*
X123514140Y-129871739D01*
X123542847Y-129727420D01*
X123542847Y-129653561D01*
X123869450Y-129651400D01*
X124028200Y-129492650D01*
X124028200Y-128143400D01*
X124008200Y-128143400D01*
X124008200Y-127889400D01*
X124028200Y-127889400D01*
X124028200Y-126540150D01*
X123869450Y-126381400D01*
X123405200Y-126378328D01*
X123280718Y-126390588D01*
X123161020Y-126426898D01*
X123050706Y-126485863D01*
X122954015Y-126565215D01*
X122874663Y-126661906D01*
X122827573Y-126750004D01*
X122798915Y-126726485D01*
X122738633Y-126694264D01*
X122673224Y-126674422D01*
X122605200Y-126667722D01*
X121105200Y-126667722D01*
X121037176Y-126674422D01*
X120971767Y-126694264D01*
X120911485Y-126726485D01*
X120858647Y-126769847D01*
X120815285Y-126822685D01*
X120783064Y-126882967D01*
X120772012Y-126919400D01*
X120418678Y-126919400D01*
X120418678Y-126495000D01*
X120407175Y-126378204D01*
X120373106Y-126265896D01*
X120317783Y-126162392D01*
X120243329Y-126071671D01*
X120152608Y-125997217D01*
X120049104Y-125941894D01*
X119936796Y-125907825D01*
X119820000Y-125896322D01*
X119250500Y-125896322D01*
X119166834Y-125851601D01*
X118960049Y-125788874D01*
X118745000Y-125767693D01*
X118529951Y-125788874D01*
X118323166Y-125851601D01*
X118239500Y-125896322D01*
X117670000Y-125896322D01*
X117553204Y-125907825D01*
X117440896Y-125941894D01*
X117337392Y-125997217D01*
X117246671Y-126071671D01*
X117172217Y-126162392D01*
X117116894Y-126265896D01*
X117082825Y-126378204D01*
X117071322Y-126495000D01*
X117071322Y-127245000D01*
X117082825Y-127361796D01*
X117116894Y-127474104D01*
X117172217Y-127577608D01*
X117246671Y-127668329D01*
X117337392Y-127742783D01*
X117440896Y-127798106D01*
X117553204Y-127832175D01*
X117670000Y-127843678D01*
X118167287Y-127843678D01*
X118733608Y-128410000D01*
X118617998Y-128410000D01*
X118617998Y-128568748D01*
X118459250Y-128410000D01*
X117420000Y-128406928D01*
X117295518Y-128419188D01*
X117175820Y-128455498D01*
X117065506Y-128514463D01*
X116968815Y-128593815D01*
X116889463Y-128690506D01*
X116830498Y-128800820D01*
X116794188Y-128920518D01*
X116781928Y-129045000D01*
X110393516Y-129045000D01*
X110043379Y-127294319D01*
X110034805Y-126748548D01*
X111237167Y-120736743D01*
X111262573Y-120669506D01*
X111288001Y-120628822D01*
X111288000Y-123876972D01*
X111283816Y-123879768D01*
X111179768Y-123983816D01*
X111098018Y-124106163D01*
X111041707Y-124242108D01*
X111013000Y-124386427D01*
X111013000Y-124533573D01*
X111041707Y-124677892D01*
X111098018Y-124813837D01*
X111179768Y-124936184D01*
X111283816Y-125040232D01*
X111406163Y-125121982D01*
X111542108Y-125178293D01*
X111686427Y-125207000D01*
X111833573Y-125207000D01*
X111977892Y-125178293D01*
X112113837Y-125121982D01*
X112236184Y-125040232D01*
X112340232Y-124936184D01*
X112421982Y-124813837D01*
X112478293Y-124677892D01*
X112507000Y-124533573D01*
X112507000Y-124386427D01*
X112478293Y-124242108D01*
X112421982Y-124106163D01*
X112340232Y-123983816D01*
X112236184Y-123879768D01*
X112232000Y-123876972D01*
X112232000Y-122716400D01*
X121617128Y-122716400D01*
X121629388Y-122840882D01*
X121665698Y-122960580D01*
X121724663Y-123070894D01*
X121804015Y-123167585D01*
X121900706Y-123246937D01*
X122011020Y-123305902D01*
X122130718Y-123342212D01*
X122255200Y-123354472D01*
X123869450Y-123351400D01*
X124028200Y-123192650D01*
X124028200Y-121843400D01*
X124282200Y-121843400D01*
X124282200Y-123192650D01*
X124440950Y-123351400D01*
X126055200Y-123354472D01*
X126179682Y-123342212D01*
X126299380Y-123305902D01*
X126409694Y-123246937D01*
X126506385Y-123167585D01*
X126585737Y-123070894D01*
X126644702Y-122960580D01*
X126681012Y-122840882D01*
X126693272Y-122716400D01*
X126693179Y-122694676D01*
X134009663Y-122694676D01*
X134009663Y-122841822D01*
X134038370Y-122986141D01*
X134094681Y-123122086D01*
X134176431Y-123244433D01*
X134280479Y-123348481D01*
X134284048Y-123350865D01*
X134291493Y-123426461D01*
X134318484Y-123515434D01*
X134348184Y-123570999D01*
X134362312Y-123597432D01*
X134421295Y-123669303D01*
X134439302Y-123684081D01*
X135976403Y-125221183D01*
X135928498Y-125260498D01*
X135778916Y-125442765D01*
X135667766Y-125650712D01*
X135599320Y-125876347D01*
X135576209Y-126111000D01*
X135599320Y-126345653D01*
X135667766Y-126571288D01*
X135778916Y-126779235D01*
X135928498Y-126961502D01*
X136110765Y-127111084D01*
X136318712Y-127222234D01*
X136544347Y-127290680D01*
X136720202Y-127308000D01*
X136837798Y-127308000D01*
X137013653Y-127290680D01*
X137239288Y-127222234D01*
X137447235Y-127111084D01*
X137629502Y-126961502D01*
X137672000Y-126909718D01*
X137672000Y-127452809D01*
X137669716Y-127475999D01*
X137678829Y-127568526D01*
X137686729Y-127594566D01*
X137695753Y-127624313D01*
X137683000Y-127688427D01*
X137683000Y-127835573D01*
X137711707Y-127979892D01*
X137768018Y-128115837D01*
X137849768Y-128238184D01*
X137953816Y-128342232D01*
X138076163Y-128423982D01*
X138212108Y-128480293D01*
X138356427Y-128509000D01*
X138503573Y-128509000D01*
X138647892Y-128480293D01*
X138783837Y-128423982D01*
X138906184Y-128342232D01*
X139010232Y-128238184D01*
X139091982Y-128115837D01*
X139148293Y-127979892D01*
X139177000Y-127835573D01*
X139177000Y-127688427D01*
X139148293Y-127544108D01*
X139091982Y-127408163D01*
X139010232Y-127285816D01*
X138984942Y-127260526D01*
X139084347Y-127290680D01*
X139260202Y-127308000D01*
X139377798Y-127308000D01*
X139553653Y-127290680D01*
X139779288Y-127222234D01*
X139987235Y-127111084D01*
X140169502Y-126961502D01*
X140211999Y-126909718D01*
X140211999Y-128438993D01*
X138090670Y-130560322D01*
X137465750Y-130560322D01*
X137350173Y-130571705D01*
X137239038Y-130605418D01*
X137136615Y-130660164D01*
X137128990Y-130666422D01*
X137128990Y-130607170D01*
X137131273Y-130583990D01*
X137122160Y-130491462D01*
X137095170Y-130402489D01*
X137051342Y-130320492D01*
X137007135Y-130266626D01*
X136992359Y-130248621D01*
X136974352Y-130233843D01*
X136680693Y-129940185D01*
X136690775Y-129906950D01*
X136701678Y-129796250D01*
X136701678Y-129283750D01*
X136690775Y-129173050D01*
X136658485Y-129066605D01*
X136606049Y-128968504D01*
X136535482Y-128882518D01*
X136449496Y-128811951D01*
X136351395Y-128759515D01*
X136244950Y-128727225D01*
X136134250Y-128716322D01*
X135696750Y-128716322D01*
X135586050Y-128727225D01*
X135479605Y-128759515D01*
X135381504Y-128811951D01*
X135295518Y-128882518D01*
X135224951Y-128968504D01*
X135172515Y-129066605D01*
X135140225Y-129173050D01*
X135129322Y-129283750D01*
X135129322Y-129796250D01*
X135140225Y-129906950D01*
X135172515Y-130013395D01*
X135224951Y-130111496D01*
X135295518Y-130197482D01*
X135381504Y-130268049D01*
X135479605Y-130320485D01*
X135586050Y-130352775D01*
X135696750Y-130363678D01*
X135769170Y-130363678D01*
X136184990Y-130779499D01*
X136184991Y-131983300D01*
X136182707Y-132006490D01*
X136191820Y-132099017D01*
X136218811Y-132187990D01*
X136262638Y-132269987D01*
X136287389Y-132300146D01*
X136321622Y-132341859D01*
X136339629Y-132356637D01*
X136887140Y-132904148D01*
X136884705Y-132912173D01*
X136873322Y-133027750D01*
X136873322Y-133515250D01*
X136884705Y-133630827D01*
X136918418Y-133741962D01*
X136973164Y-133844385D01*
X137046840Y-133934160D01*
X137136615Y-134007836D01*
X137239038Y-134062582D01*
X137350173Y-134096295D01*
X137465750Y-134107678D01*
X138378250Y-134107678D01*
X138493827Y-134096295D01*
X138604962Y-134062582D01*
X138707385Y-134007836D01*
X138797160Y-133934160D01*
X138870836Y-133844385D01*
X138925582Y-133741962D01*
X138959295Y-133630827D01*
X138970678Y-133515250D01*
X138970678Y-133027750D01*
X138959295Y-132912173D01*
X138925582Y-132801038D01*
X138870836Y-132698615D01*
X138797160Y-132608840D01*
X138707385Y-132535164D01*
X138604962Y-132480418D01*
X138493827Y-132446705D01*
X138378250Y-132435322D01*
X137753330Y-132435322D01*
X137550686Y-132232678D01*
X138378250Y-132232678D01*
X138493827Y-132221295D01*
X138604962Y-132187582D01*
X138707385Y-132132836D01*
X138797160Y-132059160D01*
X138870836Y-131969385D01*
X138925582Y-131866962D01*
X138959295Y-131755827D01*
X138970678Y-131640250D01*
X138970678Y-131152750D01*
X138959295Y-131037173D01*
X138956860Y-131029148D01*
X141001356Y-128984652D01*
X141019368Y-128969870D01*
X141078351Y-128897999D01*
X141122179Y-128816001D01*
X141149169Y-128727029D01*
X141155999Y-128657681D01*
X141155999Y-128657680D01*
X141158282Y-128634502D01*
X141155999Y-128611324D01*
X141155999Y-127413086D01*
X141354901Y-127507825D01*
X141502110Y-127552476D01*
X141732000Y-127431155D01*
X141732000Y-126238000D01*
X141986000Y-126238000D01*
X141986000Y-127431155D01*
X142215890Y-127552476D01*
X142363099Y-127507825D01*
X142625920Y-127382641D01*
X142859269Y-127208588D01*
X143054178Y-126992355D01*
X143203157Y-126742252D01*
X143300481Y-126467891D01*
X143179814Y-126238000D01*
X141986000Y-126238000D01*
X141732000Y-126238000D01*
X141712000Y-126238000D01*
X141712000Y-125984000D01*
X141732000Y-125984000D01*
X141732000Y-125964000D01*
X141986000Y-125964000D01*
X141986000Y-125984000D01*
X143179814Y-125984000D01*
X143300481Y-125754109D01*
X143203157Y-125479748D01*
X143054178Y-125229645D01*
X142859269Y-125013412D01*
X142625920Y-124839359D01*
X142479626Y-124769678D01*
X142709000Y-124769678D01*
X142777024Y-124762978D01*
X142842433Y-124743136D01*
X142902715Y-124710915D01*
X142955553Y-124667553D01*
X142998915Y-124614715D01*
X143031136Y-124554433D01*
X143050978Y-124489024D01*
X143057678Y-124421000D01*
X143057678Y-122721000D01*
X143050978Y-122652976D01*
X143031136Y-122587567D01*
X142998915Y-122527285D01*
X142955553Y-122474447D01*
X142902715Y-122431085D01*
X142842433Y-122398864D01*
X142777024Y-122379022D01*
X142709000Y-122372322D01*
X141009000Y-122372322D01*
X140940976Y-122379022D01*
X140875567Y-122398864D01*
X140815285Y-122431085D01*
X140762447Y-122474447D01*
X140719085Y-122527285D01*
X140686864Y-122587567D01*
X140667022Y-122652976D01*
X140660322Y-122721000D01*
X140660322Y-124244814D01*
X140519148Y-124103640D01*
X140519144Y-124103635D01*
X140434089Y-124018580D01*
X140498680Y-123805653D01*
X140521791Y-123571000D01*
X140498680Y-123336347D01*
X140430234Y-123110712D01*
X140319084Y-122902765D01*
X140169502Y-122720498D01*
X139987235Y-122570916D01*
X139779288Y-122459766D01*
X139553653Y-122391320D01*
X139377798Y-122374000D01*
X139260202Y-122374000D01*
X139084347Y-122391320D01*
X138858712Y-122459766D01*
X138650765Y-122570916D01*
X138468498Y-122720498D01*
X138408327Y-122793817D01*
X137469243Y-121854733D01*
X137454461Y-121836721D01*
X137382590Y-121777738D01*
X137300592Y-121733910D01*
X137211620Y-121706920D01*
X137142272Y-121700090D01*
X137119092Y-121697807D01*
X137095912Y-121700090D01*
X136980508Y-121700090D01*
X136977712Y-121695906D01*
X136873664Y-121591858D01*
X136751317Y-121510108D01*
X136615372Y-121453797D01*
X136471053Y-121425090D01*
X136323907Y-121425090D01*
X136179588Y-121453797D01*
X136043643Y-121510108D01*
X135921296Y-121591858D01*
X135817248Y-121695906D01*
X135735498Y-121818253D01*
X135679187Y-121954198D01*
X135650480Y-122098517D01*
X135650480Y-122245663D01*
X135679187Y-122389982D01*
X135735498Y-122525927D01*
X135817248Y-122648274D01*
X135910907Y-122741933D01*
X135778916Y-122902765D01*
X135667766Y-123110712D01*
X135599320Y-123336347D01*
X135583833Y-123493595D01*
X135335783Y-123245545D01*
X135336895Y-123244433D01*
X135418645Y-123122086D01*
X135474956Y-122986141D01*
X135503663Y-122841822D01*
X135503663Y-122694676D01*
X135474956Y-122550357D01*
X135418645Y-122414412D01*
X135336895Y-122292065D01*
X135232847Y-122188017D01*
X135110500Y-122106267D01*
X134974555Y-122049956D01*
X134830236Y-122021249D01*
X134683090Y-122021249D01*
X134538771Y-122049956D01*
X134402826Y-122106267D01*
X134280479Y-122188017D01*
X134176431Y-122292065D01*
X134094681Y-122414412D01*
X134038370Y-122550357D01*
X134009663Y-122694676D01*
X126693179Y-122694676D01*
X126690200Y-122002150D01*
X126531450Y-121843400D01*
X124282200Y-121843400D01*
X124028200Y-121843400D01*
X121778950Y-121843400D01*
X121620200Y-122002150D01*
X121617128Y-122716400D01*
X112232000Y-122716400D01*
X112232000Y-120716400D01*
X121617128Y-120716400D01*
X121620200Y-121430650D01*
X121778950Y-121589400D01*
X124028200Y-121589400D01*
X124028200Y-120240150D01*
X124282200Y-120240150D01*
X124282200Y-121589400D01*
X126531450Y-121589400D01*
X126690200Y-121430650D01*
X126693272Y-120716400D01*
X126681012Y-120591918D01*
X126644702Y-120472220D01*
X126585737Y-120361906D01*
X126506385Y-120265215D01*
X126409694Y-120185863D01*
X126299380Y-120126898D01*
X126179682Y-120090588D01*
X126055200Y-120078328D01*
X124440950Y-120081400D01*
X124282200Y-120240150D01*
X124028200Y-120240150D01*
X123869450Y-120081400D01*
X122255200Y-120078328D01*
X122130718Y-120090588D01*
X122011020Y-120126898D01*
X121900706Y-120185863D01*
X121804015Y-120265215D01*
X121724663Y-120361906D01*
X121665698Y-120472220D01*
X121629388Y-120591918D01*
X121617128Y-120716400D01*
X112232000Y-120716400D01*
X112232000Y-119575508D01*
X113347357Y-118460151D01*
X113365369Y-118445369D01*
X113424352Y-118373498D01*
X113468180Y-118291500D01*
X113495170Y-118202528D01*
X113502000Y-118133180D01*
X113502000Y-118133179D01*
X113504283Y-118110001D01*
X113502000Y-118086821D01*
X113502000Y-117670508D01*
X116175571Y-114996938D01*
X117299758Y-114996938D01*
X117322938Y-114999221D01*
X117346118Y-114996938D01*
X117415466Y-114990108D01*
X117504438Y-114963118D01*
X117586436Y-114919290D01*
X117658307Y-114860307D01*
X117673090Y-114842294D01*
X117743384Y-114772000D01*
X119661034Y-114772000D01*
X119684214Y-114774283D01*
X119707394Y-114772000D01*
X119776742Y-114765170D01*
X119865714Y-114738180D01*
X119947712Y-114694352D01*
X120019583Y-114635369D01*
X120034365Y-114617357D01*
X120997615Y-113654107D01*
X122518929Y-113654107D01*
X122542109Y-113656390D01*
X122565289Y-113654107D01*
X122634637Y-113647277D01*
X122723609Y-113620287D01*
X122805607Y-113576459D01*
X122864325Y-113528271D01*
X122868535Y-113529108D01*
X123015681Y-113529108D01*
X123160000Y-113500401D01*
X123295945Y-113444090D01*
X123418292Y-113362340D01*
X123522340Y-113258292D01*
X123604090Y-113135945D01*
X123660401Y-113000000D01*
X123689108Y-112855681D01*
X123689108Y-112708535D01*
X123660401Y-112564216D01*
X123604090Y-112428271D01*
X123522340Y-112305924D01*
X123418292Y-112201876D01*
X123295945Y-112120126D01*
X123260835Y-112105583D01*
X123504398Y-111862020D01*
X126306102Y-111862020D01*
X126391024Y-111946942D01*
X126391023Y-112761784D01*
X126388740Y-112784964D01*
X126391945Y-112817507D01*
X126397853Y-112877491D01*
X126424843Y-112966463D01*
X126468671Y-113048462D01*
X126527654Y-113120333D01*
X126545666Y-113135115D01*
X127014884Y-113604334D01*
X127029662Y-113622341D01*
X127047667Y-113637117D01*
X127101533Y-113681324D01*
X127183531Y-113725152D01*
X127272503Y-113752142D01*
X127365031Y-113761255D01*
X127388211Y-113758972D01*
X128037853Y-113758972D01*
X128061033Y-113761255D01*
X128084213Y-113758972D01*
X128153561Y-113752142D01*
X128242533Y-113725152D01*
X128324531Y-113681324D01*
X128396402Y-113622341D01*
X128411184Y-113604329D01*
X128614747Y-113400766D01*
X128634862Y-113404767D01*
X128782008Y-113404767D01*
X128926327Y-113376060D01*
X129062272Y-113319749D01*
X129184619Y-113237999D01*
X129288667Y-113133951D01*
X129370417Y-113011604D01*
X129426728Y-112875659D01*
X129455435Y-112731340D01*
X129455435Y-112584194D01*
X129426728Y-112439875D01*
X129421458Y-112427153D01*
X131936819Y-112427153D01*
X131939615Y-112431337D01*
X132043663Y-112535385D01*
X132166010Y-112617135D01*
X132301955Y-112673446D01*
X132446274Y-112702153D01*
X132593420Y-112702153D01*
X132737739Y-112673446D01*
X132873684Y-112617135D01*
X132996031Y-112535385D01*
X133100079Y-112431337D01*
X133181829Y-112308990D01*
X133238140Y-112173045D01*
X133266847Y-112028726D01*
X133266847Y-111881580D01*
X133238140Y-111737261D01*
X133181829Y-111601316D01*
X133100079Y-111478969D01*
X132996031Y-111374921D01*
X132873684Y-111293171D01*
X132737739Y-111236860D01*
X132593420Y-111208153D01*
X132446274Y-111208153D01*
X132301955Y-111236860D01*
X132166010Y-111293171D01*
X132043663Y-111374921D01*
X131939615Y-111478969D01*
X131936819Y-111483153D01*
X130780482Y-111483153D01*
X130799893Y-111436292D01*
X130828600Y-111291973D01*
X130828600Y-111144827D01*
X130799893Y-111000508D01*
X130743582Y-110864563D01*
X130661832Y-110742216D01*
X130630164Y-110710548D01*
X133259965Y-111236508D01*
G36*
X126619000Y-126667722D02*
G01*
X125705200Y-126667722D01*
X125637176Y-126674422D01*
X125571767Y-126694264D01*
X125511485Y-126726485D01*
X125458647Y-126769847D01*
X125415285Y-126822685D01*
X125383064Y-126882967D01*
X125363222Y-126948376D01*
X125356522Y-127016400D01*
X125356522Y-127979555D01*
X125352893Y-128016400D01*
X125356522Y-128053245D01*
X125356522Y-129016400D01*
X125358200Y-129033436D01*
X125358200Y-129287507D01*
X124978707Y-129667000D01*
X123542847Y-129667000D01*
X123542847Y-129580274D01*
X123514140Y-129435955D01*
X123457829Y-129300010D01*
X123376079Y-129177663D01*
X123272031Y-129073615D01*
X123149684Y-128991865D01*
X123013739Y-128935554D01*
X122953878Y-128923647D01*
X122953878Y-128053245D01*
X122957507Y-128016400D01*
X122953878Y-127979555D01*
X122953878Y-127016400D01*
X122947178Y-126948376D01*
X122927336Y-126882967D01*
X122895115Y-126822685D01*
X122851753Y-126769847D01*
X122798915Y-126726485D01*
X122738633Y-126694264D01*
X122673224Y-126674422D01*
X122605200Y-126667722D01*
X121285000Y-126667722D01*
X121285000Y-119761000D01*
X126619000Y-119761000D01*
X126619000Y-126667722D01*
X126619000Y-126667722D01*
G37*
X126619000Y-126667722D02*
X125705200Y-126667722D01*
X125637176Y-126674422D01*
X125571767Y-126694264D01*
X125511485Y-126726485D01*
X125458647Y-126769847D01*
X125415285Y-126822685D01*
X125383064Y-126882967D01*
X125363222Y-126948376D01*
X125356522Y-127016400D01*
X125356522Y-127979555D01*
X125352893Y-128016400D01*
X125356522Y-128053245D01*
X125356522Y-129016400D01*
X125358200Y-129033436D01*
X125358200Y-129287507D01*
X124978707Y-129667000D01*
X123542847Y-129667000D01*
X123542847Y-129580274D01*
X123514140Y-129435955D01*
X123457829Y-129300010D01*
X123376079Y-129177663D01*
X123272031Y-129073615D01*
X123149684Y-128991865D01*
X123013739Y-128935554D01*
X122953878Y-128923647D01*
X122953878Y-128053245D01*
X122957507Y-128016400D01*
X122953878Y-127979555D01*
X122953878Y-127016400D01*
X122947178Y-126948376D01*
X122927336Y-126882967D01*
X122895115Y-126822685D01*
X122851753Y-126769847D01*
X122798915Y-126726485D01*
X122738633Y-126694264D01*
X122673224Y-126674422D01*
X122605200Y-126667722D01*
X121285000Y-126667722D01*
X121285000Y-119761000D01*
X126619000Y-119761000D01*
X126619000Y-126667722D01*
M02*
