G04 #@! TF.GenerationSoftware,KiCad,Pcbnew,(5.1.2)-2*
G04 #@! TF.CreationDate,2019-08-10T01:37:27-04:00*
G04 #@! TF.ProjectId,toyota-angle-sensor,746f796f-7461-42d6-916e-676c652d7365,rev?*
G04 #@! TF.SameCoordinates,Original*
G04 #@! TF.FileFunction,Soldermask,Bot*
G04 #@! TF.FilePolarity,Negative*
%FSLAX46Y46*%
G04 Gerber Fmt 4.6, Leading zero omitted, Abs format (unit mm)*
G04 Created by KiCad (PCBNEW (5.1.2)-2) date 2019-08-10 01:37:27*
%MOMM*%
%LPD*%
G04 APERTURE LIST*
%ADD10C,0.100000*%
G04 APERTURE END LIST*
D10*
G36*
X126335000Y-143581600D02*
G01*
X125633000Y-143581600D01*
X125633000Y-141929600D01*
X126335000Y-141929600D01*
X126335000Y-143581600D01*
X126335000Y-143581600D01*
G37*
G36*
X127605000Y-143581600D02*
G01*
X126903000Y-143581600D01*
X126903000Y-141929600D01*
X127605000Y-141929600D01*
X127605000Y-143581600D01*
X127605000Y-143581600D01*
G37*
G36*
X128875000Y-143581600D02*
G01*
X128173000Y-143581600D01*
X128173000Y-141929600D01*
X128875000Y-141929600D01*
X128875000Y-143581600D01*
X128875000Y-143581600D01*
G37*
G36*
X125065000Y-143581600D02*
G01*
X124363000Y-143581600D01*
X124363000Y-141929600D01*
X125065000Y-141929600D01*
X125065000Y-143581600D01*
X125065000Y-143581600D01*
G37*
G36*
X121685656Y-139627998D02*
G01*
X121791979Y-139649147D01*
X122092442Y-139773603D01*
X122362851Y-139954285D01*
X122592815Y-140184249D01*
X122773497Y-140454658D01*
X122897953Y-140755121D01*
X122961400Y-141074091D01*
X122961400Y-141399309D01*
X122897953Y-141718279D01*
X122773497Y-142018742D01*
X122592815Y-142289151D01*
X122362851Y-142519115D01*
X122092442Y-142699797D01*
X121791979Y-142824253D01*
X121685656Y-142845402D01*
X121473011Y-142887700D01*
X121147789Y-142887700D01*
X120935144Y-142845402D01*
X120828821Y-142824253D01*
X120528358Y-142699797D01*
X120257949Y-142519115D01*
X120027985Y-142289151D01*
X119847303Y-142018742D01*
X119722847Y-141718279D01*
X119659400Y-141399309D01*
X119659400Y-141074091D01*
X119722847Y-140755121D01*
X119847303Y-140454658D01*
X120027985Y-140184249D01*
X120257949Y-139954285D01*
X120528358Y-139773603D01*
X120828821Y-139649147D01*
X120935144Y-139627998D01*
X121147789Y-139585700D01*
X121473011Y-139585700D01*
X121685656Y-139627998D01*
X121685656Y-139627998D01*
G37*
G36*
X133115656Y-139627998D02*
G01*
X133221979Y-139649147D01*
X133522442Y-139773603D01*
X133792851Y-139954285D01*
X134022815Y-140184249D01*
X134203497Y-140454658D01*
X134327953Y-140755121D01*
X134391400Y-141074091D01*
X134391400Y-141399309D01*
X134327953Y-141718279D01*
X134203497Y-142018742D01*
X134022815Y-142289151D01*
X133792851Y-142519115D01*
X133522442Y-142699797D01*
X133221979Y-142824253D01*
X133115656Y-142845402D01*
X132903011Y-142887700D01*
X132577789Y-142887700D01*
X132365144Y-142845402D01*
X132258821Y-142824253D01*
X131958358Y-142699797D01*
X131687949Y-142519115D01*
X131457985Y-142289151D01*
X131277303Y-142018742D01*
X131152847Y-141718279D01*
X131089400Y-141399309D01*
X131089400Y-141074091D01*
X131152847Y-140755121D01*
X131277303Y-140454658D01*
X131457985Y-140184249D01*
X131687949Y-139954285D01*
X131958358Y-139773603D01*
X132258821Y-139649147D01*
X132365144Y-139627998D01*
X132577789Y-139585700D01*
X132903011Y-139585700D01*
X133115656Y-139627998D01*
X133115656Y-139627998D01*
G37*
G36*
X118391938Y-137936716D02*
G01*
X118412557Y-137942971D01*
X118431553Y-137953124D01*
X118448208Y-137966792D01*
X118461876Y-137983447D01*
X118472029Y-138002443D01*
X118478284Y-138023062D01*
X118481000Y-138050640D01*
X118481000Y-138509360D01*
X118478284Y-138536938D01*
X118472029Y-138557557D01*
X118461876Y-138576553D01*
X118448208Y-138593208D01*
X118431553Y-138606876D01*
X118412557Y-138617029D01*
X118391938Y-138623284D01*
X118364360Y-138626000D01*
X117855640Y-138626000D01*
X117828062Y-138623284D01*
X117807443Y-138617029D01*
X117788447Y-138606876D01*
X117771792Y-138593208D01*
X117758124Y-138576553D01*
X117747971Y-138557557D01*
X117741716Y-138536938D01*
X117739000Y-138509360D01*
X117739000Y-138050640D01*
X117741716Y-138023062D01*
X117747971Y-138002443D01*
X117758124Y-137983447D01*
X117771792Y-137966792D01*
X117788447Y-137953124D01*
X117807443Y-137942971D01*
X117828062Y-137936716D01*
X117855640Y-137934000D01*
X118364360Y-137934000D01*
X118391938Y-137936716D01*
X118391938Y-137936716D01*
G37*
G36*
X125065000Y-138181600D02*
G01*
X124363000Y-138181600D01*
X124363000Y-136529600D01*
X125065000Y-136529600D01*
X125065000Y-138181600D01*
X125065000Y-138181600D01*
G37*
G36*
X128875000Y-138181600D02*
G01*
X128173000Y-138181600D01*
X128173000Y-136529600D01*
X128875000Y-136529600D01*
X128875000Y-138181600D01*
X128875000Y-138181600D01*
G37*
G36*
X127605000Y-138181600D02*
G01*
X126903000Y-138181600D01*
X126903000Y-136529600D01*
X127605000Y-136529600D01*
X127605000Y-138181600D01*
X127605000Y-138181600D01*
G37*
G36*
X126335000Y-138181600D02*
G01*
X125633000Y-138181600D01*
X125633000Y-136529600D01*
X126335000Y-136529600D01*
X126335000Y-138181600D01*
X126335000Y-138181600D01*
G37*
G36*
X123169938Y-137299716D02*
G01*
X123190557Y-137305971D01*
X123209553Y-137316124D01*
X123226208Y-137329792D01*
X123239876Y-137346447D01*
X123250029Y-137365443D01*
X123256284Y-137386062D01*
X123259000Y-137413640D01*
X123259000Y-137922360D01*
X123256284Y-137949938D01*
X123250029Y-137970557D01*
X123239876Y-137989553D01*
X123226208Y-138006208D01*
X123209553Y-138019876D01*
X123190557Y-138030029D01*
X123169938Y-138036284D01*
X123142360Y-138039000D01*
X122683640Y-138039000D01*
X122656062Y-138036284D01*
X122635443Y-138030029D01*
X122616447Y-138019876D01*
X122599792Y-138006208D01*
X122586124Y-137989553D01*
X122575971Y-137970557D01*
X122569716Y-137949938D01*
X122567000Y-137922360D01*
X122567000Y-137413640D01*
X122569716Y-137386062D01*
X122575971Y-137365443D01*
X122586124Y-137346447D01*
X122599792Y-137329792D01*
X122616447Y-137316124D01*
X122635443Y-137305971D01*
X122656062Y-137299716D01*
X122683640Y-137297000D01*
X123142360Y-137297000D01*
X123169938Y-137299716D01*
X123169938Y-137299716D01*
G37*
G36*
X122199938Y-137299716D02*
G01*
X122220557Y-137305971D01*
X122239553Y-137316124D01*
X122256208Y-137329792D01*
X122269876Y-137346447D01*
X122280029Y-137365443D01*
X122286284Y-137386062D01*
X122289000Y-137413640D01*
X122289000Y-137922360D01*
X122286284Y-137949938D01*
X122280029Y-137970557D01*
X122269876Y-137989553D01*
X122256208Y-138006208D01*
X122239553Y-138019876D01*
X122220557Y-138030029D01*
X122199938Y-138036284D01*
X122172360Y-138039000D01*
X121713640Y-138039000D01*
X121686062Y-138036284D01*
X121665443Y-138030029D01*
X121646447Y-138019876D01*
X121629792Y-138006208D01*
X121616124Y-137989553D01*
X121605971Y-137970557D01*
X121599716Y-137949938D01*
X121597000Y-137922360D01*
X121597000Y-137413640D01*
X121599716Y-137386062D01*
X121605971Y-137365443D01*
X121616124Y-137346447D01*
X121629792Y-137329792D01*
X121646447Y-137316124D01*
X121665443Y-137305971D01*
X121686062Y-137299716D01*
X121713640Y-137297000D01*
X122172360Y-137297000D01*
X122199938Y-137299716D01*
X122199938Y-137299716D01*
G37*
G36*
X118391938Y-136966716D02*
G01*
X118412557Y-136972971D01*
X118431553Y-136983124D01*
X118448208Y-136996792D01*
X118461876Y-137013447D01*
X118472029Y-137032443D01*
X118478284Y-137053062D01*
X118481000Y-137080640D01*
X118481000Y-137539360D01*
X118478284Y-137566938D01*
X118472029Y-137587557D01*
X118461876Y-137606553D01*
X118448208Y-137623208D01*
X118431553Y-137636876D01*
X118412557Y-137647029D01*
X118391938Y-137653284D01*
X118364360Y-137656000D01*
X117855640Y-137656000D01*
X117828062Y-137653284D01*
X117807443Y-137647029D01*
X117788447Y-137636876D01*
X117771792Y-137623208D01*
X117758124Y-137606553D01*
X117747971Y-137587557D01*
X117741716Y-137566938D01*
X117739000Y-137539360D01*
X117739000Y-137080640D01*
X117741716Y-137053062D01*
X117747971Y-137032443D01*
X117758124Y-137013447D01*
X117771792Y-136996792D01*
X117788447Y-136983124D01*
X117807443Y-136972971D01*
X117828062Y-136966716D01*
X117855640Y-136964000D01*
X118364360Y-136964000D01*
X118391938Y-136966716D01*
X118391938Y-136966716D01*
G37*
G36*
X114581938Y-136031716D02*
G01*
X114602557Y-136037971D01*
X114621553Y-136048124D01*
X114638208Y-136061792D01*
X114651876Y-136078447D01*
X114662029Y-136097443D01*
X114668284Y-136118062D01*
X114671000Y-136145640D01*
X114671000Y-136604360D01*
X114668284Y-136631938D01*
X114662029Y-136652557D01*
X114651876Y-136671553D01*
X114638208Y-136688208D01*
X114621553Y-136701876D01*
X114602557Y-136712029D01*
X114581938Y-136718284D01*
X114554360Y-136721000D01*
X114045640Y-136721000D01*
X114018062Y-136718284D01*
X113997443Y-136712029D01*
X113978447Y-136701876D01*
X113961792Y-136688208D01*
X113948124Y-136671553D01*
X113937971Y-136652557D01*
X113931716Y-136631938D01*
X113929000Y-136604360D01*
X113929000Y-136145640D01*
X113931716Y-136118062D01*
X113937971Y-136097443D01*
X113948124Y-136078447D01*
X113961792Y-136061792D01*
X113978447Y-136048124D01*
X113997443Y-136037971D01*
X114018062Y-136031716D01*
X114045640Y-136029000D01*
X114554360Y-136029000D01*
X114581938Y-136031716D01*
X114581938Y-136031716D01*
G37*
G36*
X116486938Y-136031716D02*
G01*
X116507557Y-136037971D01*
X116526553Y-136048124D01*
X116543208Y-136061792D01*
X116556876Y-136078447D01*
X116567029Y-136097443D01*
X116573284Y-136118062D01*
X116576000Y-136145640D01*
X116576000Y-136604360D01*
X116573284Y-136631938D01*
X116567029Y-136652557D01*
X116556876Y-136671553D01*
X116543208Y-136688208D01*
X116526553Y-136701876D01*
X116507557Y-136712029D01*
X116486938Y-136718284D01*
X116459360Y-136721000D01*
X115950640Y-136721000D01*
X115923062Y-136718284D01*
X115902443Y-136712029D01*
X115883447Y-136701876D01*
X115866792Y-136688208D01*
X115853124Y-136671553D01*
X115842971Y-136652557D01*
X115836716Y-136631938D01*
X115834000Y-136604360D01*
X115834000Y-136145640D01*
X115836716Y-136118062D01*
X115842971Y-136097443D01*
X115853124Y-136078447D01*
X115866792Y-136061792D01*
X115883447Y-136048124D01*
X115902443Y-136037971D01*
X115923062Y-136031716D01*
X115950640Y-136029000D01*
X116459360Y-136029000D01*
X116486938Y-136031716D01*
X116486938Y-136031716D01*
G37*
G36*
X114581938Y-135061716D02*
G01*
X114602557Y-135067971D01*
X114621553Y-135078124D01*
X114638208Y-135091792D01*
X114651876Y-135108447D01*
X114662029Y-135127443D01*
X114668284Y-135148062D01*
X114671000Y-135175640D01*
X114671000Y-135634360D01*
X114668284Y-135661938D01*
X114662029Y-135682557D01*
X114651876Y-135701553D01*
X114638208Y-135718208D01*
X114621553Y-135731876D01*
X114602557Y-135742029D01*
X114581938Y-135748284D01*
X114554360Y-135751000D01*
X114045640Y-135751000D01*
X114018062Y-135748284D01*
X113997443Y-135742029D01*
X113978447Y-135731876D01*
X113961792Y-135718208D01*
X113948124Y-135701553D01*
X113937971Y-135682557D01*
X113931716Y-135661938D01*
X113929000Y-135634360D01*
X113929000Y-135175640D01*
X113931716Y-135148062D01*
X113937971Y-135127443D01*
X113948124Y-135108447D01*
X113961792Y-135091792D01*
X113978447Y-135078124D01*
X113997443Y-135067971D01*
X114018062Y-135061716D01*
X114045640Y-135059000D01*
X114554360Y-135059000D01*
X114581938Y-135061716D01*
X114581938Y-135061716D01*
G37*
G36*
X116486938Y-135061716D02*
G01*
X116507557Y-135067971D01*
X116526553Y-135078124D01*
X116543208Y-135091792D01*
X116556876Y-135108447D01*
X116567029Y-135127443D01*
X116573284Y-135148062D01*
X116576000Y-135175640D01*
X116576000Y-135634360D01*
X116573284Y-135661938D01*
X116567029Y-135682557D01*
X116556876Y-135701553D01*
X116543208Y-135718208D01*
X116526553Y-135731876D01*
X116507557Y-135742029D01*
X116486938Y-135748284D01*
X116459360Y-135751000D01*
X115950640Y-135751000D01*
X115923062Y-135748284D01*
X115902443Y-135742029D01*
X115883447Y-135731876D01*
X115866792Y-135718208D01*
X115853124Y-135701553D01*
X115842971Y-135682557D01*
X115836716Y-135661938D01*
X115834000Y-135634360D01*
X115834000Y-135175640D01*
X115836716Y-135148062D01*
X115842971Y-135127443D01*
X115853124Y-135108447D01*
X115866792Y-135091792D01*
X115883447Y-135078124D01*
X115902443Y-135067971D01*
X115923062Y-135061716D01*
X115950640Y-135059000D01*
X116459360Y-135059000D01*
X116486938Y-135061716D01*
X116486938Y-135061716D01*
G37*
G36*
X125354042Y-134116481D02*
G01*
X125478011Y-134167831D01*
X125499816Y-134176863D01*
X125631008Y-134264522D01*
X125742578Y-134376092D01*
X125830237Y-134507284D01*
X125830238Y-134507286D01*
X125890619Y-134653058D01*
X125921400Y-134807807D01*
X125921400Y-134965593D01*
X125890619Y-135120342D01*
X125830238Y-135266114D01*
X125830237Y-135266116D01*
X125742578Y-135397308D01*
X125631008Y-135508878D01*
X125499816Y-135596537D01*
X125499815Y-135596538D01*
X125499814Y-135596538D01*
X125354042Y-135656919D01*
X125199293Y-135687700D01*
X125041507Y-135687700D01*
X124886758Y-135656919D01*
X124740986Y-135596538D01*
X124740985Y-135596538D01*
X124740984Y-135596537D01*
X124609792Y-135508878D01*
X124498222Y-135397308D01*
X124410563Y-135266116D01*
X124410562Y-135266114D01*
X124350181Y-135120342D01*
X124319400Y-134965593D01*
X124319400Y-134807807D01*
X124350181Y-134653058D01*
X124410562Y-134507286D01*
X124410563Y-134507284D01*
X124498222Y-134376092D01*
X124609792Y-134264522D01*
X124740984Y-134176863D01*
X124762789Y-134167831D01*
X124886758Y-134116481D01*
X125041507Y-134085700D01*
X125199293Y-134085700D01*
X125354042Y-134116481D01*
X125354042Y-134116481D01*
G37*
G36*
X123381400Y-135687700D02*
G01*
X121779400Y-135687700D01*
X121779400Y-134085700D01*
X123381400Y-134085700D01*
X123381400Y-135687700D01*
X123381400Y-135687700D01*
G37*
G36*
X127894042Y-134116481D02*
G01*
X128018011Y-134167831D01*
X128039816Y-134176863D01*
X128171008Y-134264522D01*
X128282578Y-134376092D01*
X128370237Y-134507284D01*
X128370238Y-134507286D01*
X128430619Y-134653058D01*
X128461400Y-134807807D01*
X128461400Y-134965593D01*
X128430619Y-135120342D01*
X128370238Y-135266114D01*
X128370237Y-135266116D01*
X128282578Y-135397308D01*
X128171008Y-135508878D01*
X128039816Y-135596537D01*
X128039815Y-135596538D01*
X128039814Y-135596538D01*
X127894042Y-135656919D01*
X127739293Y-135687700D01*
X127581507Y-135687700D01*
X127426758Y-135656919D01*
X127280986Y-135596538D01*
X127280985Y-135596538D01*
X127280984Y-135596537D01*
X127149792Y-135508878D01*
X127038222Y-135397308D01*
X126950563Y-135266116D01*
X126950562Y-135266114D01*
X126890181Y-135120342D01*
X126859400Y-134965593D01*
X126859400Y-134807807D01*
X126890181Y-134653058D01*
X126950562Y-134507286D01*
X126950563Y-134507284D01*
X127038222Y-134376092D01*
X127149792Y-134264522D01*
X127280984Y-134176863D01*
X127302789Y-134167831D01*
X127426758Y-134116481D01*
X127581507Y-134085700D01*
X127739293Y-134085700D01*
X127894042Y-134116481D01*
X127894042Y-134116481D01*
G37*
G36*
X130434042Y-134116481D02*
G01*
X130558011Y-134167831D01*
X130579816Y-134176863D01*
X130711008Y-134264522D01*
X130822578Y-134376092D01*
X130910237Y-134507284D01*
X130910238Y-134507286D01*
X130970619Y-134653058D01*
X131001400Y-134807807D01*
X131001400Y-134965593D01*
X130970619Y-135120342D01*
X130910238Y-135266114D01*
X130910237Y-135266116D01*
X130822578Y-135397308D01*
X130711008Y-135508878D01*
X130579816Y-135596537D01*
X130579815Y-135596538D01*
X130579814Y-135596538D01*
X130434042Y-135656919D01*
X130279293Y-135687700D01*
X130121507Y-135687700D01*
X129966758Y-135656919D01*
X129820986Y-135596538D01*
X129820985Y-135596538D01*
X129820984Y-135596537D01*
X129689792Y-135508878D01*
X129578222Y-135397308D01*
X129490563Y-135266116D01*
X129490562Y-135266114D01*
X129430181Y-135120342D01*
X129399400Y-134965593D01*
X129399400Y-134807807D01*
X129430181Y-134653058D01*
X129490562Y-134507286D01*
X129490563Y-134507284D01*
X129578222Y-134376092D01*
X129689792Y-134264522D01*
X129820984Y-134176863D01*
X129842789Y-134167831D01*
X129966758Y-134116481D01*
X130121507Y-134085700D01*
X130279293Y-134085700D01*
X130434042Y-134116481D01*
X130434042Y-134116481D01*
G37*
G36*
X116151000Y-134216000D02*
G01*
X114649000Y-134216000D01*
X114649000Y-132914000D01*
X116151000Y-132914000D01*
X116151000Y-134216000D01*
X116151000Y-134216000D01*
G37*
G36*
X113951000Y-134216000D02*
G01*
X112449000Y-134216000D01*
X112449000Y-132914000D01*
X113951000Y-132914000D01*
X113951000Y-134216000D01*
X113951000Y-134216000D01*
G37*
G36*
X135917938Y-133491716D02*
G01*
X135938557Y-133497971D01*
X135957553Y-133508124D01*
X135974208Y-133521792D01*
X135987876Y-133538447D01*
X135998029Y-133557443D01*
X136004284Y-133578062D01*
X136007000Y-133605640D01*
X136007000Y-134064360D01*
X136004284Y-134091938D01*
X135998029Y-134112557D01*
X135987876Y-134131553D01*
X135974208Y-134148208D01*
X135957553Y-134161876D01*
X135938557Y-134172029D01*
X135917938Y-134178284D01*
X135890360Y-134181000D01*
X135381640Y-134181000D01*
X135354062Y-134178284D01*
X135333443Y-134172029D01*
X135314447Y-134161876D01*
X135297792Y-134148208D01*
X135284124Y-134131553D01*
X135273971Y-134112557D01*
X135267716Y-134091938D01*
X135265000Y-134064360D01*
X135265000Y-133605640D01*
X135267716Y-133578062D01*
X135273971Y-133557443D01*
X135284124Y-133538447D01*
X135297792Y-133521792D01*
X135314447Y-133508124D01*
X135333443Y-133497971D01*
X135354062Y-133491716D01*
X135381640Y-133489000D01*
X135890360Y-133489000D01*
X135917938Y-133491716D01*
X135917938Y-133491716D01*
G37*
G36*
X134393938Y-133491716D02*
G01*
X134414557Y-133497971D01*
X134433553Y-133508124D01*
X134450208Y-133521792D01*
X134463876Y-133538447D01*
X134474029Y-133557443D01*
X134480284Y-133578062D01*
X134483000Y-133605640D01*
X134483000Y-134064360D01*
X134480284Y-134091938D01*
X134474029Y-134112557D01*
X134463876Y-134131553D01*
X134450208Y-134148208D01*
X134433553Y-134161876D01*
X134414557Y-134172029D01*
X134393938Y-134178284D01*
X134366360Y-134181000D01*
X133857640Y-134181000D01*
X133830062Y-134178284D01*
X133809443Y-134172029D01*
X133790447Y-134161876D01*
X133773792Y-134148208D01*
X133760124Y-134131553D01*
X133749971Y-134112557D01*
X133743716Y-134091938D01*
X133741000Y-134064360D01*
X133741000Y-133605640D01*
X133743716Y-133578062D01*
X133749971Y-133557443D01*
X133760124Y-133538447D01*
X133773792Y-133521792D01*
X133790447Y-133508124D01*
X133809443Y-133497971D01*
X133830062Y-133491716D01*
X133857640Y-133489000D01*
X134366360Y-133489000D01*
X134393938Y-133491716D01*
X134393938Y-133491716D01*
G37*
G36*
X135917938Y-132521716D02*
G01*
X135938557Y-132527971D01*
X135957553Y-132538124D01*
X135974208Y-132551792D01*
X135987876Y-132568447D01*
X135998029Y-132587443D01*
X136004284Y-132608062D01*
X136007000Y-132635640D01*
X136007000Y-133094360D01*
X136004284Y-133121938D01*
X135998029Y-133142557D01*
X135987876Y-133161553D01*
X135974208Y-133178208D01*
X135957553Y-133191876D01*
X135938557Y-133202029D01*
X135917938Y-133208284D01*
X135890360Y-133211000D01*
X135381640Y-133211000D01*
X135354062Y-133208284D01*
X135333443Y-133202029D01*
X135314447Y-133191876D01*
X135297792Y-133178208D01*
X135284124Y-133161553D01*
X135273971Y-133142557D01*
X135267716Y-133121938D01*
X135265000Y-133094360D01*
X135265000Y-132635640D01*
X135267716Y-132608062D01*
X135273971Y-132587443D01*
X135284124Y-132568447D01*
X135297792Y-132551792D01*
X135314447Y-132538124D01*
X135333443Y-132527971D01*
X135354062Y-132521716D01*
X135381640Y-132519000D01*
X135890360Y-132519000D01*
X135917938Y-132521716D01*
X135917938Y-132521716D01*
G37*
G36*
X134393938Y-132521716D02*
G01*
X134414557Y-132527971D01*
X134433553Y-132538124D01*
X134450208Y-132551792D01*
X134463876Y-132568447D01*
X134474029Y-132587443D01*
X134480284Y-132608062D01*
X134483000Y-132635640D01*
X134483000Y-133094360D01*
X134480284Y-133121938D01*
X134474029Y-133142557D01*
X134463876Y-133161553D01*
X134450208Y-133178208D01*
X134433553Y-133191876D01*
X134414557Y-133202029D01*
X134393938Y-133208284D01*
X134366360Y-133211000D01*
X133857640Y-133211000D01*
X133830062Y-133208284D01*
X133809443Y-133202029D01*
X133790447Y-133191876D01*
X133773792Y-133178208D01*
X133760124Y-133161553D01*
X133749971Y-133142557D01*
X133743716Y-133121938D01*
X133741000Y-133094360D01*
X133741000Y-132635640D01*
X133743716Y-132608062D01*
X133749971Y-132587443D01*
X133760124Y-132568447D01*
X133773792Y-132551792D01*
X133790447Y-132538124D01*
X133809443Y-132527971D01*
X133830062Y-132521716D01*
X133857640Y-132519000D01*
X134366360Y-132519000D01*
X134393938Y-132521716D01*
X134393938Y-132521716D01*
G37*
G36*
X126624042Y-131576481D02*
G01*
X126769814Y-131636862D01*
X126769816Y-131636863D01*
X126901008Y-131724522D01*
X127012578Y-131836092D01*
X127100237Y-131967284D01*
X127100238Y-131967286D01*
X127160619Y-132113058D01*
X127191400Y-132267807D01*
X127191400Y-132425593D01*
X127160619Y-132580342D01*
X127100238Y-132726114D01*
X127100237Y-132726116D01*
X127012578Y-132857308D01*
X126901008Y-132968878D01*
X126769816Y-133056537D01*
X126769815Y-133056538D01*
X126769814Y-133056538D01*
X126624042Y-133116919D01*
X126469293Y-133147700D01*
X126311507Y-133147700D01*
X126156758Y-133116919D01*
X126010986Y-133056538D01*
X126010985Y-133056538D01*
X126010984Y-133056537D01*
X125879792Y-132968878D01*
X125768222Y-132857308D01*
X125680563Y-132726116D01*
X125680562Y-132726114D01*
X125620181Y-132580342D01*
X125589400Y-132425593D01*
X125589400Y-132267807D01*
X125620181Y-132113058D01*
X125680562Y-131967286D01*
X125680563Y-131967284D01*
X125768222Y-131836092D01*
X125879792Y-131724522D01*
X126010984Y-131636863D01*
X126010986Y-131636862D01*
X126156758Y-131576481D01*
X126311507Y-131545700D01*
X126469293Y-131545700D01*
X126624042Y-131576481D01*
X126624042Y-131576481D01*
G37*
G36*
X129164042Y-131576481D02*
G01*
X129309814Y-131636862D01*
X129309816Y-131636863D01*
X129441008Y-131724522D01*
X129552578Y-131836092D01*
X129640237Y-131967284D01*
X129640238Y-131967286D01*
X129700619Y-132113058D01*
X129731400Y-132267807D01*
X129731400Y-132425593D01*
X129700619Y-132580342D01*
X129640238Y-132726114D01*
X129640237Y-132726116D01*
X129552578Y-132857308D01*
X129441008Y-132968878D01*
X129309816Y-133056537D01*
X129309815Y-133056538D01*
X129309814Y-133056538D01*
X129164042Y-133116919D01*
X129009293Y-133147700D01*
X128851507Y-133147700D01*
X128696758Y-133116919D01*
X128550986Y-133056538D01*
X128550985Y-133056538D01*
X128550984Y-133056537D01*
X128419792Y-132968878D01*
X128308222Y-132857308D01*
X128220563Y-132726116D01*
X128220562Y-132726114D01*
X128160181Y-132580342D01*
X128129400Y-132425593D01*
X128129400Y-132267807D01*
X128160181Y-132113058D01*
X128220562Y-131967286D01*
X128220563Y-131967284D01*
X128308222Y-131836092D01*
X128419792Y-131724522D01*
X128550984Y-131636863D01*
X128550986Y-131636862D01*
X128696758Y-131576481D01*
X128851507Y-131545700D01*
X129009293Y-131545700D01*
X129164042Y-131576481D01*
X129164042Y-131576481D01*
G37*
G36*
X131704042Y-131576481D02*
G01*
X131849814Y-131636862D01*
X131849816Y-131636863D01*
X131981008Y-131724522D01*
X132092578Y-131836092D01*
X132180237Y-131967284D01*
X132180238Y-131967286D01*
X132240619Y-132113058D01*
X132271400Y-132267807D01*
X132271400Y-132425593D01*
X132240619Y-132580342D01*
X132180238Y-132726114D01*
X132180237Y-132726116D01*
X132092578Y-132857308D01*
X131981008Y-132968878D01*
X131849816Y-133056537D01*
X131849815Y-133056538D01*
X131849814Y-133056538D01*
X131704042Y-133116919D01*
X131549293Y-133147700D01*
X131391507Y-133147700D01*
X131236758Y-133116919D01*
X131090986Y-133056538D01*
X131090985Y-133056538D01*
X131090984Y-133056537D01*
X130959792Y-132968878D01*
X130848222Y-132857308D01*
X130760563Y-132726116D01*
X130760562Y-132726114D01*
X130700181Y-132580342D01*
X130669400Y-132425593D01*
X130669400Y-132267807D01*
X130700181Y-132113058D01*
X130760562Y-131967286D01*
X130760563Y-131967284D01*
X130848222Y-131836092D01*
X130959792Y-131724522D01*
X131090984Y-131636863D01*
X131090986Y-131636862D01*
X131236758Y-131576481D01*
X131391507Y-131545700D01*
X131549293Y-131545700D01*
X131704042Y-131576481D01*
X131704042Y-131576481D01*
G37*
G36*
X124084042Y-131576481D02*
G01*
X124229814Y-131636862D01*
X124229816Y-131636863D01*
X124361008Y-131724522D01*
X124472578Y-131836092D01*
X124560237Y-131967284D01*
X124560238Y-131967286D01*
X124620619Y-132113058D01*
X124651400Y-132267807D01*
X124651400Y-132425593D01*
X124620619Y-132580342D01*
X124560238Y-132726114D01*
X124560237Y-132726116D01*
X124472578Y-132857308D01*
X124361008Y-132968878D01*
X124229816Y-133056537D01*
X124229815Y-133056538D01*
X124229814Y-133056538D01*
X124084042Y-133116919D01*
X123929293Y-133147700D01*
X123771507Y-133147700D01*
X123616758Y-133116919D01*
X123470986Y-133056538D01*
X123470985Y-133056538D01*
X123470984Y-133056537D01*
X123339792Y-132968878D01*
X123228222Y-132857308D01*
X123140563Y-132726116D01*
X123140562Y-132726114D01*
X123080181Y-132580342D01*
X123049400Y-132425593D01*
X123049400Y-132267807D01*
X123080181Y-132113058D01*
X123140562Y-131967286D01*
X123140563Y-131967284D01*
X123228222Y-131836092D01*
X123339792Y-131724522D01*
X123470984Y-131636863D01*
X123470986Y-131636862D01*
X123616758Y-131576481D01*
X123771507Y-131545700D01*
X123929293Y-131545700D01*
X124084042Y-131576481D01*
X124084042Y-131576481D01*
G37*
G36*
X121056938Y-132346716D02*
G01*
X121077557Y-132352971D01*
X121096553Y-132363124D01*
X121113208Y-132376792D01*
X121126876Y-132393447D01*
X121137029Y-132412443D01*
X121143284Y-132433062D01*
X121146000Y-132460640D01*
X121146000Y-132969360D01*
X121143284Y-132996938D01*
X121137029Y-133017557D01*
X121126876Y-133036553D01*
X121113208Y-133053208D01*
X121096553Y-133066876D01*
X121077557Y-133077029D01*
X121056938Y-133083284D01*
X121029360Y-133086000D01*
X120570640Y-133086000D01*
X120543062Y-133083284D01*
X120522443Y-133077029D01*
X120503447Y-133066876D01*
X120486792Y-133053208D01*
X120473124Y-133036553D01*
X120462971Y-133017557D01*
X120456716Y-132996938D01*
X120454000Y-132969360D01*
X120454000Y-132460640D01*
X120456716Y-132433062D01*
X120462971Y-132412443D01*
X120473124Y-132393447D01*
X120486792Y-132376792D01*
X120503447Y-132363124D01*
X120522443Y-132352971D01*
X120543062Y-132346716D01*
X120570640Y-132344000D01*
X121029360Y-132344000D01*
X121056938Y-132346716D01*
X121056938Y-132346716D01*
G37*
G36*
X122026938Y-132346716D02*
G01*
X122047557Y-132352971D01*
X122066553Y-132363124D01*
X122083208Y-132376792D01*
X122096876Y-132393447D01*
X122107029Y-132412443D01*
X122113284Y-132433062D01*
X122116000Y-132460640D01*
X122116000Y-132969360D01*
X122113284Y-132996938D01*
X122107029Y-133017557D01*
X122096876Y-133036553D01*
X122083208Y-133053208D01*
X122066553Y-133066876D01*
X122047557Y-133077029D01*
X122026938Y-133083284D01*
X121999360Y-133086000D01*
X121540640Y-133086000D01*
X121513062Y-133083284D01*
X121492443Y-133077029D01*
X121473447Y-133066876D01*
X121456792Y-133053208D01*
X121443124Y-133036553D01*
X121432971Y-133017557D01*
X121426716Y-132996938D01*
X121424000Y-132969360D01*
X121424000Y-132460640D01*
X121426716Y-132433062D01*
X121432971Y-132412443D01*
X121443124Y-132393447D01*
X121456792Y-132376792D01*
X121473447Y-132363124D01*
X121492443Y-132352971D01*
X121513062Y-132346716D01*
X121540640Y-132344000D01*
X121999360Y-132344000D01*
X122026938Y-132346716D01*
X122026938Y-132346716D01*
G37*
G36*
X113951000Y-132516000D02*
G01*
X112449000Y-132516000D01*
X112449000Y-131214000D01*
X113951000Y-131214000D01*
X113951000Y-132516000D01*
X113951000Y-132516000D01*
G37*
G36*
X116151000Y-132516000D02*
G01*
X114649000Y-132516000D01*
X114649000Y-131214000D01*
X116151000Y-131214000D01*
X116151000Y-132516000D01*
X116151000Y-132516000D01*
G37*
G36*
X122661938Y-130441716D02*
G01*
X122682557Y-130447971D01*
X122701553Y-130458124D01*
X122718208Y-130471792D01*
X122731876Y-130488447D01*
X122742029Y-130507443D01*
X122748284Y-130528062D01*
X122751000Y-130555640D01*
X122751000Y-131064360D01*
X122748284Y-131091938D01*
X122742029Y-131112557D01*
X122731876Y-131131553D01*
X122718208Y-131148208D01*
X122701553Y-131161876D01*
X122682557Y-131172029D01*
X122661938Y-131178284D01*
X122634360Y-131181000D01*
X122175640Y-131181000D01*
X122148062Y-131178284D01*
X122127443Y-131172029D01*
X122108447Y-131161876D01*
X122091792Y-131148208D01*
X122078124Y-131131553D01*
X122067971Y-131112557D01*
X122061716Y-131091938D01*
X122059000Y-131064360D01*
X122059000Y-130555640D01*
X122061716Y-130528062D01*
X122067971Y-130507443D01*
X122078124Y-130488447D01*
X122091792Y-130471792D01*
X122108447Y-130458124D01*
X122127443Y-130447971D01*
X122148062Y-130441716D01*
X122175640Y-130439000D01*
X122634360Y-130439000D01*
X122661938Y-130441716D01*
X122661938Y-130441716D01*
G37*
G36*
X121691938Y-130441716D02*
G01*
X121712557Y-130447971D01*
X121731553Y-130458124D01*
X121748208Y-130471792D01*
X121761876Y-130488447D01*
X121772029Y-130507443D01*
X121778284Y-130528062D01*
X121781000Y-130555640D01*
X121781000Y-131064360D01*
X121778284Y-131091938D01*
X121772029Y-131112557D01*
X121761876Y-131131553D01*
X121748208Y-131148208D01*
X121731553Y-131161876D01*
X121712557Y-131172029D01*
X121691938Y-131178284D01*
X121664360Y-131181000D01*
X121205640Y-131181000D01*
X121178062Y-131178284D01*
X121157443Y-131172029D01*
X121138447Y-131161876D01*
X121121792Y-131148208D01*
X121108124Y-131131553D01*
X121097971Y-131112557D01*
X121091716Y-131091938D01*
X121089000Y-131064360D01*
X121089000Y-130555640D01*
X121091716Y-130528062D01*
X121097971Y-130507443D01*
X121108124Y-130488447D01*
X121121792Y-130471792D01*
X121138447Y-130458124D01*
X121157443Y-130447971D01*
X121178062Y-130441716D01*
X121205640Y-130439000D01*
X121664360Y-130439000D01*
X121691938Y-130441716D01*
X121691938Y-130441716D01*
G37*
G36*
X141321000Y-131100000D02*
G01*
X140619000Y-131100000D01*
X140619000Y-128998000D01*
X141321000Y-128998000D01*
X141321000Y-131100000D01*
X141321000Y-131100000D01*
G37*
G36*
X142591000Y-131100000D02*
G01*
X141889000Y-131100000D01*
X141889000Y-128998000D01*
X142591000Y-128998000D01*
X142591000Y-131100000D01*
X142591000Y-131100000D01*
G37*
G36*
X140051000Y-131100000D02*
G01*
X139349000Y-131100000D01*
X139349000Y-128998000D01*
X140051000Y-128998000D01*
X140051000Y-131100000D01*
X140051000Y-131100000D01*
G37*
G36*
X138781000Y-131100000D02*
G01*
X138079000Y-131100000D01*
X138079000Y-128998000D01*
X138781000Y-128998000D01*
X138781000Y-131100000D01*
X138781000Y-131100000D01*
G37*
G36*
X137511000Y-131100000D02*
G01*
X136809000Y-131100000D01*
X136809000Y-128998000D01*
X137511000Y-128998000D01*
X137511000Y-131100000D01*
X137511000Y-131100000D01*
G37*
G36*
X136241000Y-131100000D02*
G01*
X135539000Y-131100000D01*
X135539000Y-128998000D01*
X136241000Y-128998000D01*
X136241000Y-131100000D01*
X136241000Y-131100000D01*
G37*
G36*
X134971000Y-131100000D02*
G01*
X134269000Y-131100000D01*
X134269000Y-128998000D01*
X134971000Y-128998000D01*
X134971000Y-131100000D01*
X134971000Y-131100000D01*
G37*
G36*
X133701000Y-131100000D02*
G01*
X132999000Y-131100000D01*
X132999000Y-128998000D01*
X133701000Y-128998000D01*
X133701000Y-131100000D01*
X133701000Y-131100000D01*
G37*
G36*
X132431000Y-131100000D02*
G01*
X131729000Y-131100000D01*
X131729000Y-128998000D01*
X132431000Y-128998000D01*
X132431000Y-131100000D01*
X132431000Y-131100000D01*
G37*
G36*
X120341000Y-129637000D02*
G01*
X118739000Y-129637000D01*
X118739000Y-128935000D01*
X120341000Y-128935000D01*
X120341000Y-129637000D01*
X120341000Y-129637000D01*
G37*
G36*
X114941000Y-129637000D02*
G01*
X113339000Y-129637000D01*
X113339000Y-128935000D01*
X114941000Y-128935000D01*
X114941000Y-129637000D01*
X114941000Y-129637000D01*
G37*
G36*
X124826000Y-129226000D02*
G01*
X123274000Y-129226000D01*
X123274000Y-124774000D01*
X124826000Y-124774000D01*
X124826000Y-129226000D01*
X124826000Y-129226000D01*
G37*
G36*
X130726000Y-129226000D02*
G01*
X129174000Y-129226000D01*
X129174000Y-124774000D01*
X130726000Y-124774000D01*
X130726000Y-129226000D01*
X130726000Y-129226000D01*
G37*
G36*
X111406938Y-127776716D02*
G01*
X111427557Y-127782971D01*
X111446553Y-127793124D01*
X111463208Y-127806792D01*
X111476876Y-127823447D01*
X111487029Y-127842443D01*
X111493284Y-127863062D01*
X111496000Y-127890640D01*
X111496000Y-128349360D01*
X111493284Y-128376938D01*
X111487029Y-128397557D01*
X111476876Y-128416553D01*
X111463208Y-128433208D01*
X111446553Y-128446876D01*
X111427557Y-128457029D01*
X111406938Y-128463284D01*
X111379360Y-128466000D01*
X110870640Y-128466000D01*
X110843062Y-128463284D01*
X110822443Y-128457029D01*
X110803447Y-128446876D01*
X110786792Y-128433208D01*
X110773124Y-128416553D01*
X110762971Y-128397557D01*
X110756716Y-128376938D01*
X110754000Y-128349360D01*
X110754000Y-127890640D01*
X110756716Y-127863062D01*
X110762971Y-127842443D01*
X110773124Y-127823447D01*
X110786792Y-127806792D01*
X110803447Y-127793124D01*
X110822443Y-127782971D01*
X110843062Y-127776716D01*
X110870640Y-127774000D01*
X111379360Y-127774000D01*
X111406938Y-127776716D01*
X111406938Y-127776716D01*
G37*
G36*
X114941000Y-128367000D02*
G01*
X113339000Y-128367000D01*
X113339000Y-127665000D01*
X114941000Y-127665000D01*
X114941000Y-128367000D01*
X114941000Y-128367000D01*
G37*
G36*
X120341000Y-128367000D02*
G01*
X118739000Y-128367000D01*
X118739000Y-127665000D01*
X120341000Y-127665000D01*
X120341000Y-128367000D01*
X120341000Y-128367000D01*
G37*
G36*
X122201938Y-127395716D02*
G01*
X122222557Y-127401971D01*
X122241553Y-127412124D01*
X122258208Y-127425792D01*
X122271876Y-127442447D01*
X122282029Y-127461443D01*
X122288284Y-127482062D01*
X122291000Y-127509640D01*
X122291000Y-127968360D01*
X122288284Y-127995938D01*
X122282029Y-128016557D01*
X122271876Y-128035553D01*
X122258208Y-128052208D01*
X122241553Y-128065876D01*
X122222557Y-128076029D01*
X122201938Y-128082284D01*
X122174360Y-128085000D01*
X121665640Y-128085000D01*
X121638062Y-128082284D01*
X121617443Y-128076029D01*
X121598447Y-128065876D01*
X121581792Y-128052208D01*
X121568124Y-128035553D01*
X121557971Y-128016557D01*
X121551716Y-127995938D01*
X121549000Y-127968360D01*
X121549000Y-127509640D01*
X121551716Y-127482062D01*
X121557971Y-127461443D01*
X121568124Y-127442447D01*
X121581792Y-127425792D01*
X121598447Y-127412124D01*
X121617443Y-127401971D01*
X121638062Y-127395716D01*
X121665640Y-127393000D01*
X122174360Y-127393000D01*
X122201938Y-127395716D01*
X122201938Y-127395716D01*
G37*
G36*
X111406938Y-126806716D02*
G01*
X111427557Y-126812971D01*
X111446553Y-126823124D01*
X111463208Y-126836792D01*
X111476876Y-126853447D01*
X111487029Y-126872443D01*
X111493284Y-126893062D01*
X111496000Y-126920640D01*
X111496000Y-127379360D01*
X111493284Y-127406938D01*
X111487029Y-127427557D01*
X111476876Y-127446553D01*
X111463208Y-127463208D01*
X111446553Y-127476876D01*
X111427557Y-127487029D01*
X111406938Y-127493284D01*
X111379360Y-127496000D01*
X110870640Y-127496000D01*
X110843062Y-127493284D01*
X110822443Y-127487029D01*
X110803447Y-127476876D01*
X110786792Y-127463208D01*
X110773124Y-127446553D01*
X110762971Y-127427557D01*
X110756716Y-127406938D01*
X110754000Y-127379360D01*
X110754000Y-126920640D01*
X110756716Y-126893062D01*
X110762971Y-126872443D01*
X110773124Y-126853447D01*
X110786792Y-126836792D01*
X110803447Y-126823124D01*
X110822443Y-126812971D01*
X110843062Y-126806716D01*
X110870640Y-126804000D01*
X111379360Y-126804000D01*
X111406938Y-126806716D01*
X111406938Y-126806716D01*
G37*
G36*
X122201938Y-126425716D02*
G01*
X122222557Y-126431971D01*
X122241553Y-126442124D01*
X122258208Y-126455792D01*
X122271876Y-126472447D01*
X122282029Y-126491443D01*
X122288284Y-126512062D01*
X122291000Y-126539640D01*
X122291000Y-126998360D01*
X122288284Y-127025938D01*
X122282029Y-127046557D01*
X122271876Y-127065553D01*
X122258208Y-127082208D01*
X122241553Y-127095876D01*
X122222557Y-127106029D01*
X122201938Y-127112284D01*
X122174360Y-127115000D01*
X121665640Y-127115000D01*
X121638062Y-127112284D01*
X121617443Y-127106029D01*
X121598447Y-127095876D01*
X121581792Y-127082208D01*
X121568124Y-127065553D01*
X121557971Y-127046557D01*
X121551716Y-127025938D01*
X121549000Y-126998360D01*
X121549000Y-126539640D01*
X121551716Y-126512062D01*
X121557971Y-126491443D01*
X121568124Y-126472447D01*
X121581792Y-126455792D01*
X121598447Y-126442124D01*
X121617443Y-126431971D01*
X121638062Y-126425716D01*
X121665640Y-126423000D01*
X122174360Y-126423000D01*
X122201938Y-126425716D01*
X122201938Y-126425716D01*
G37*
G36*
X114941000Y-127097000D02*
G01*
X113339000Y-127097000D01*
X113339000Y-126395000D01*
X114941000Y-126395000D01*
X114941000Y-127097000D01*
X114941000Y-127097000D01*
G37*
G36*
X120341000Y-127097000D02*
G01*
X118739000Y-127097000D01*
X118739000Y-126395000D01*
X120341000Y-126395000D01*
X120341000Y-127097000D01*
X120341000Y-127097000D01*
G37*
G36*
X136889443Y-125216519D02*
G01*
X136955627Y-125223037D01*
X137125466Y-125274557D01*
X137281991Y-125358222D01*
X137317729Y-125387552D01*
X137419186Y-125470814D01*
X137502448Y-125572271D01*
X137531778Y-125608009D01*
X137615443Y-125764534D01*
X137666963Y-125934373D01*
X137684359Y-126111000D01*
X137666963Y-126287627D01*
X137615443Y-126457466D01*
X137531778Y-126613991D01*
X137521922Y-126626000D01*
X137419186Y-126751186D01*
X137338784Y-126817169D01*
X137281991Y-126863778D01*
X137281989Y-126863779D01*
X137175611Y-126920640D01*
X137125466Y-126947443D01*
X136955627Y-126998963D01*
X136889443Y-127005481D01*
X136823260Y-127012000D01*
X136734740Y-127012000D01*
X136668557Y-127005481D01*
X136602373Y-126998963D01*
X136432534Y-126947443D01*
X136382390Y-126920640D01*
X136276011Y-126863779D01*
X136276009Y-126863778D01*
X136219216Y-126817169D01*
X136138814Y-126751186D01*
X136036078Y-126626000D01*
X136026222Y-126613991D01*
X135942557Y-126457466D01*
X135891037Y-126287627D01*
X135873641Y-126111000D01*
X135891037Y-125934373D01*
X135942557Y-125764534D01*
X136026222Y-125608009D01*
X136055552Y-125572271D01*
X136138814Y-125470814D01*
X136240271Y-125387552D01*
X136276009Y-125358222D01*
X136432534Y-125274557D01*
X136602373Y-125223037D01*
X136668557Y-125216519D01*
X136734740Y-125210000D01*
X136823260Y-125210000D01*
X136889443Y-125216519D01*
X136889443Y-125216519D01*
G37*
G36*
X139429443Y-125216519D02*
G01*
X139495627Y-125223037D01*
X139665466Y-125274557D01*
X139821991Y-125358222D01*
X139857729Y-125387552D01*
X139959186Y-125470814D01*
X140042448Y-125572271D01*
X140071778Y-125608009D01*
X140155443Y-125764534D01*
X140206963Y-125934373D01*
X140224359Y-126111000D01*
X140206963Y-126287627D01*
X140155443Y-126457466D01*
X140071778Y-126613991D01*
X140061922Y-126626000D01*
X139959186Y-126751186D01*
X139878784Y-126817169D01*
X139821991Y-126863778D01*
X139821989Y-126863779D01*
X139715611Y-126920640D01*
X139665466Y-126947443D01*
X139495627Y-126998963D01*
X139429443Y-127005481D01*
X139363260Y-127012000D01*
X139274740Y-127012000D01*
X139208557Y-127005481D01*
X139142373Y-126998963D01*
X138972534Y-126947443D01*
X138922390Y-126920640D01*
X138816011Y-126863779D01*
X138816009Y-126863778D01*
X138759216Y-126817169D01*
X138678814Y-126751186D01*
X138576078Y-126626000D01*
X138566222Y-126613991D01*
X138482557Y-126457466D01*
X138431037Y-126287627D01*
X138413641Y-126111000D01*
X138431037Y-125934373D01*
X138482557Y-125764534D01*
X138566222Y-125608009D01*
X138595552Y-125572271D01*
X138678814Y-125470814D01*
X138780271Y-125387552D01*
X138816009Y-125358222D01*
X138972534Y-125274557D01*
X139142373Y-125223037D01*
X139208557Y-125216519D01*
X139274740Y-125210000D01*
X139363260Y-125210000D01*
X139429443Y-125216519D01*
X139429443Y-125216519D01*
G37*
G36*
X141969443Y-125216519D02*
G01*
X142035627Y-125223037D01*
X142205466Y-125274557D01*
X142361991Y-125358222D01*
X142397729Y-125387552D01*
X142499186Y-125470814D01*
X142582448Y-125572271D01*
X142611778Y-125608009D01*
X142695443Y-125764534D01*
X142746963Y-125934373D01*
X142764359Y-126111000D01*
X142746963Y-126287627D01*
X142695443Y-126457466D01*
X142611778Y-126613991D01*
X142601922Y-126626000D01*
X142499186Y-126751186D01*
X142418784Y-126817169D01*
X142361991Y-126863778D01*
X142361989Y-126863779D01*
X142255611Y-126920640D01*
X142205466Y-126947443D01*
X142035627Y-126998963D01*
X141969443Y-127005481D01*
X141903260Y-127012000D01*
X141814740Y-127012000D01*
X141748557Y-127005481D01*
X141682373Y-126998963D01*
X141512534Y-126947443D01*
X141462390Y-126920640D01*
X141356011Y-126863779D01*
X141356009Y-126863778D01*
X141299216Y-126817169D01*
X141218814Y-126751186D01*
X141116078Y-126626000D01*
X141106222Y-126613991D01*
X141022557Y-126457466D01*
X140971037Y-126287627D01*
X140953641Y-126111000D01*
X140971037Y-125934373D01*
X141022557Y-125764534D01*
X141106222Y-125608009D01*
X141135552Y-125572271D01*
X141218814Y-125470814D01*
X141320271Y-125387552D01*
X141356009Y-125358222D01*
X141512534Y-125274557D01*
X141682373Y-125223037D01*
X141748557Y-125216519D01*
X141814740Y-125210000D01*
X141903260Y-125210000D01*
X141969443Y-125216519D01*
X141969443Y-125216519D01*
G37*
G36*
X120341000Y-125827000D02*
G01*
X118739000Y-125827000D01*
X118739000Y-125125000D01*
X120341000Y-125125000D01*
X120341000Y-125827000D01*
X120341000Y-125827000D01*
G37*
G36*
X114941000Y-125827000D02*
G01*
X113339000Y-125827000D01*
X113339000Y-125125000D01*
X114941000Y-125125000D01*
X114941000Y-125827000D01*
X114941000Y-125827000D01*
G37*
G36*
X114941000Y-124557000D02*
G01*
X113339000Y-124557000D01*
X113339000Y-123855000D01*
X114941000Y-123855000D01*
X114941000Y-124557000D01*
X114941000Y-124557000D01*
G37*
G36*
X120341000Y-124557000D02*
G01*
X118739000Y-124557000D01*
X118739000Y-123855000D01*
X120341000Y-123855000D01*
X120341000Y-124557000D01*
X120341000Y-124557000D01*
G37*
G36*
X142760000Y-124472000D02*
G01*
X140958000Y-124472000D01*
X140958000Y-122670000D01*
X142760000Y-122670000D01*
X142760000Y-124472000D01*
X142760000Y-124472000D01*
G37*
G36*
X139429443Y-122676519D02*
G01*
X139495627Y-122683037D01*
X139665466Y-122734557D01*
X139821991Y-122818222D01*
X139857729Y-122847552D01*
X139959186Y-122930814D01*
X140042448Y-123032271D01*
X140071778Y-123068009D01*
X140076222Y-123076324D01*
X140148877Y-123212249D01*
X140155443Y-123224534D01*
X140206963Y-123394373D01*
X140224359Y-123571000D01*
X140206963Y-123747627D01*
X140155443Y-123917466D01*
X140071778Y-124073991D01*
X140042448Y-124109729D01*
X139959186Y-124211186D01*
X139857729Y-124294448D01*
X139821991Y-124323778D01*
X139665466Y-124407443D01*
X139495627Y-124458963D01*
X139429442Y-124465482D01*
X139363260Y-124472000D01*
X139274740Y-124472000D01*
X139208558Y-124465482D01*
X139142373Y-124458963D01*
X138972534Y-124407443D01*
X138816009Y-124323778D01*
X138780271Y-124294448D01*
X138678814Y-124211186D01*
X138595552Y-124109729D01*
X138566222Y-124073991D01*
X138482557Y-123917466D01*
X138431037Y-123747627D01*
X138413641Y-123571000D01*
X138431037Y-123394373D01*
X138482557Y-123224534D01*
X138489124Y-123212249D01*
X138561778Y-123076324D01*
X138566222Y-123068009D01*
X138595552Y-123032271D01*
X138678814Y-122930814D01*
X138780271Y-122847552D01*
X138816009Y-122818222D01*
X138972534Y-122734557D01*
X139142373Y-122683037D01*
X139208557Y-122676519D01*
X139274740Y-122670000D01*
X139363260Y-122670000D01*
X139429443Y-122676519D01*
X139429443Y-122676519D01*
G37*
G36*
X136889443Y-122676519D02*
G01*
X136955627Y-122683037D01*
X137125466Y-122734557D01*
X137281991Y-122818222D01*
X137317729Y-122847552D01*
X137419186Y-122930814D01*
X137502448Y-123032271D01*
X137531778Y-123068009D01*
X137536222Y-123076324D01*
X137608877Y-123212249D01*
X137615443Y-123224534D01*
X137666963Y-123394373D01*
X137684359Y-123571000D01*
X137666963Y-123747627D01*
X137615443Y-123917466D01*
X137531778Y-124073991D01*
X137502448Y-124109729D01*
X137419186Y-124211186D01*
X137317729Y-124294448D01*
X137281991Y-124323778D01*
X137125466Y-124407443D01*
X136955627Y-124458963D01*
X136889442Y-124465482D01*
X136823260Y-124472000D01*
X136734740Y-124472000D01*
X136668558Y-124465482D01*
X136602373Y-124458963D01*
X136432534Y-124407443D01*
X136276009Y-124323778D01*
X136240271Y-124294448D01*
X136138814Y-124211186D01*
X136055552Y-124109729D01*
X136026222Y-124073991D01*
X135942557Y-123917466D01*
X135891037Y-123747627D01*
X135873641Y-123571000D01*
X135891037Y-123394373D01*
X135942557Y-123224534D01*
X135949124Y-123212249D01*
X136021778Y-123076324D01*
X136026222Y-123068009D01*
X136055552Y-123032271D01*
X136138814Y-122930814D01*
X136240271Y-122847552D01*
X136276009Y-122818222D01*
X136432534Y-122734557D01*
X136602373Y-122683037D01*
X136668557Y-122676519D01*
X136734740Y-122670000D01*
X136823260Y-122670000D01*
X136889443Y-122676519D01*
X136889443Y-122676519D01*
G37*
G36*
X129565938Y-123075716D02*
G01*
X129586557Y-123081971D01*
X129605553Y-123092124D01*
X129622208Y-123105792D01*
X129635876Y-123122447D01*
X129646029Y-123141443D01*
X129652284Y-123162062D01*
X129655000Y-123189640D01*
X129655000Y-123698360D01*
X129652284Y-123725938D01*
X129646029Y-123746557D01*
X129635876Y-123765553D01*
X129622208Y-123782208D01*
X129605553Y-123795876D01*
X129586557Y-123806029D01*
X129565938Y-123812284D01*
X129538360Y-123815000D01*
X129079640Y-123815000D01*
X129052062Y-123812284D01*
X129031443Y-123806029D01*
X129012447Y-123795876D01*
X128995792Y-123782208D01*
X128982124Y-123765553D01*
X128971971Y-123746557D01*
X128965716Y-123725938D01*
X128963000Y-123698360D01*
X128963000Y-123189640D01*
X128965716Y-123162062D01*
X128971971Y-123141443D01*
X128982124Y-123122447D01*
X128995792Y-123105792D01*
X129012447Y-123092124D01*
X129031443Y-123081971D01*
X129052062Y-123075716D01*
X129079640Y-123073000D01*
X129538360Y-123073000D01*
X129565938Y-123075716D01*
X129565938Y-123075716D01*
G37*
G36*
X130535938Y-123075716D02*
G01*
X130556557Y-123081971D01*
X130575553Y-123092124D01*
X130592208Y-123105792D01*
X130605876Y-123122447D01*
X130616029Y-123141443D01*
X130622284Y-123162062D01*
X130625000Y-123189640D01*
X130625000Y-123698360D01*
X130622284Y-123725938D01*
X130616029Y-123746557D01*
X130605876Y-123765553D01*
X130592208Y-123782208D01*
X130575553Y-123795876D01*
X130556557Y-123806029D01*
X130535938Y-123812284D01*
X130508360Y-123815000D01*
X130049640Y-123815000D01*
X130022062Y-123812284D01*
X130001443Y-123806029D01*
X129982447Y-123795876D01*
X129965792Y-123782208D01*
X129952124Y-123765553D01*
X129941971Y-123746557D01*
X129935716Y-123725938D01*
X129933000Y-123698360D01*
X129933000Y-123189640D01*
X129935716Y-123162062D01*
X129941971Y-123141443D01*
X129952124Y-123122447D01*
X129965792Y-123105792D01*
X129982447Y-123092124D01*
X130001443Y-123081971D01*
X130022062Y-123075716D01*
X130049640Y-123073000D01*
X130508360Y-123073000D01*
X130535938Y-123075716D01*
X130535938Y-123075716D01*
G37*
G36*
X128376938Y-123075716D02*
G01*
X128397557Y-123081971D01*
X128416553Y-123092124D01*
X128433208Y-123105792D01*
X128446876Y-123122447D01*
X128457029Y-123141443D01*
X128463284Y-123162062D01*
X128466000Y-123189640D01*
X128466000Y-123698360D01*
X128463284Y-123725938D01*
X128457029Y-123746557D01*
X128446876Y-123765553D01*
X128433208Y-123782208D01*
X128416553Y-123795876D01*
X128397557Y-123806029D01*
X128376938Y-123812284D01*
X128349360Y-123815000D01*
X127890640Y-123815000D01*
X127863062Y-123812284D01*
X127842443Y-123806029D01*
X127823447Y-123795876D01*
X127806792Y-123782208D01*
X127793124Y-123765553D01*
X127782971Y-123746557D01*
X127776716Y-123725938D01*
X127774000Y-123698360D01*
X127774000Y-123189640D01*
X127776716Y-123162062D01*
X127782971Y-123141443D01*
X127793124Y-123122447D01*
X127806792Y-123105792D01*
X127823447Y-123092124D01*
X127842443Y-123081971D01*
X127863062Y-123075716D01*
X127890640Y-123073000D01*
X128349360Y-123073000D01*
X128376938Y-123075716D01*
X128376938Y-123075716D01*
G37*
G36*
X127406938Y-123075716D02*
G01*
X127427557Y-123081971D01*
X127446553Y-123092124D01*
X127463208Y-123105792D01*
X127476876Y-123122447D01*
X127487029Y-123141443D01*
X127493284Y-123162062D01*
X127496000Y-123189640D01*
X127496000Y-123698360D01*
X127493284Y-123725938D01*
X127487029Y-123746557D01*
X127476876Y-123765553D01*
X127463208Y-123782208D01*
X127446553Y-123795876D01*
X127427557Y-123806029D01*
X127406938Y-123812284D01*
X127379360Y-123815000D01*
X126920640Y-123815000D01*
X126893062Y-123812284D01*
X126872443Y-123806029D01*
X126853447Y-123795876D01*
X126836792Y-123782208D01*
X126823124Y-123765553D01*
X126812971Y-123746557D01*
X126806716Y-123725938D01*
X126804000Y-123698360D01*
X126804000Y-123189640D01*
X126806716Y-123162062D01*
X126812971Y-123141443D01*
X126823124Y-123122447D01*
X126836792Y-123105792D01*
X126853447Y-123092124D01*
X126872443Y-123081971D01*
X126893062Y-123075716D01*
X126920640Y-123073000D01*
X127379360Y-123073000D01*
X127406938Y-123075716D01*
X127406938Y-123075716D01*
G37*
G36*
X120341000Y-123287000D02*
G01*
X118739000Y-123287000D01*
X118739000Y-122585000D01*
X120341000Y-122585000D01*
X120341000Y-123287000D01*
X120341000Y-123287000D01*
G37*
G36*
X114941000Y-123287000D02*
G01*
X113339000Y-123287000D01*
X113339000Y-122585000D01*
X114941000Y-122585000D01*
X114941000Y-123287000D01*
X114941000Y-123287000D01*
G37*
G36*
X120341000Y-122017000D02*
G01*
X118739000Y-122017000D01*
X118739000Y-121315000D01*
X120341000Y-121315000D01*
X120341000Y-122017000D01*
X120341000Y-122017000D01*
G37*
G36*
X114941000Y-122017000D02*
G01*
X113339000Y-122017000D01*
X113339000Y-121315000D01*
X114941000Y-121315000D01*
X114941000Y-122017000D01*
X114941000Y-122017000D01*
G37*
G36*
X137511000Y-121700000D02*
G01*
X136809000Y-121700000D01*
X136809000Y-119598000D01*
X137511000Y-119598000D01*
X137511000Y-121700000D01*
X137511000Y-121700000D01*
G37*
G36*
X138781000Y-121700000D02*
G01*
X138079000Y-121700000D01*
X138079000Y-119598000D01*
X138781000Y-119598000D01*
X138781000Y-121700000D01*
X138781000Y-121700000D01*
G37*
G36*
X141321000Y-121700000D02*
G01*
X140619000Y-121700000D01*
X140619000Y-119598000D01*
X141321000Y-119598000D01*
X141321000Y-121700000D01*
X141321000Y-121700000D01*
G37*
G36*
X142591000Y-121700000D02*
G01*
X141889000Y-121700000D01*
X141889000Y-119598000D01*
X142591000Y-119598000D01*
X142591000Y-121700000D01*
X142591000Y-121700000D01*
G37*
G36*
X140051000Y-121700000D02*
G01*
X139349000Y-121700000D01*
X139349000Y-119598000D01*
X140051000Y-119598000D01*
X140051000Y-121700000D01*
X140051000Y-121700000D01*
G37*
G36*
X133701000Y-121700000D02*
G01*
X132999000Y-121700000D01*
X132999000Y-119598000D01*
X133701000Y-119598000D01*
X133701000Y-121700000D01*
X133701000Y-121700000D01*
G37*
G36*
X136241000Y-121700000D02*
G01*
X135539000Y-121700000D01*
X135539000Y-119598000D01*
X136241000Y-119598000D01*
X136241000Y-121700000D01*
X136241000Y-121700000D01*
G37*
G36*
X134971000Y-121700000D02*
G01*
X134269000Y-121700000D01*
X134269000Y-119598000D01*
X134971000Y-119598000D01*
X134971000Y-121700000D01*
X134971000Y-121700000D01*
G37*
G36*
X132431000Y-121700000D02*
G01*
X131729000Y-121700000D01*
X131729000Y-119598000D01*
X132431000Y-119598000D01*
X132431000Y-121700000D01*
X132431000Y-121700000D01*
G37*
G36*
X128792500Y-120607500D02*
G01*
X122540500Y-120607500D01*
X122540500Y-118905500D01*
X128792500Y-118905500D01*
X128792500Y-120607500D01*
X128792500Y-120607500D01*
G37*
G36*
X118300500Y-120132500D02*
G01*
X114998500Y-120132500D01*
X114998500Y-119630500D01*
X118300500Y-119630500D01*
X118300500Y-120132500D01*
X118300500Y-120132500D01*
G37*
G36*
X133837938Y-118249716D02*
G01*
X133858557Y-118255971D01*
X133877553Y-118266124D01*
X133894208Y-118279792D01*
X133907876Y-118296447D01*
X133918029Y-118315443D01*
X133924284Y-118336062D01*
X133927000Y-118363640D01*
X133927000Y-118872360D01*
X133924284Y-118899938D01*
X133918029Y-118920557D01*
X133907876Y-118939553D01*
X133894208Y-118956208D01*
X133877553Y-118969876D01*
X133858557Y-118980029D01*
X133837938Y-118986284D01*
X133810360Y-118989000D01*
X133351640Y-118989000D01*
X133324062Y-118986284D01*
X133303443Y-118980029D01*
X133284447Y-118969876D01*
X133267792Y-118956208D01*
X133254124Y-118939553D01*
X133243971Y-118920557D01*
X133237716Y-118899938D01*
X133235000Y-118872360D01*
X133235000Y-118363640D01*
X133237716Y-118336062D01*
X133243971Y-118315443D01*
X133254124Y-118296447D01*
X133267792Y-118279792D01*
X133284447Y-118266124D01*
X133303443Y-118255971D01*
X133324062Y-118249716D01*
X133351640Y-118247000D01*
X133810360Y-118247000D01*
X133837938Y-118249716D01*
X133837938Y-118249716D01*
G37*
G36*
X132867938Y-118249716D02*
G01*
X132888557Y-118255971D01*
X132907553Y-118266124D01*
X132924208Y-118279792D01*
X132937876Y-118296447D01*
X132948029Y-118315443D01*
X132954284Y-118336062D01*
X132957000Y-118363640D01*
X132957000Y-118872360D01*
X132954284Y-118899938D01*
X132948029Y-118920557D01*
X132937876Y-118939553D01*
X132924208Y-118956208D01*
X132907553Y-118969876D01*
X132888557Y-118980029D01*
X132867938Y-118986284D01*
X132840360Y-118989000D01*
X132381640Y-118989000D01*
X132354062Y-118986284D01*
X132333443Y-118980029D01*
X132314447Y-118969876D01*
X132297792Y-118956208D01*
X132284124Y-118939553D01*
X132273971Y-118920557D01*
X132267716Y-118899938D01*
X132265000Y-118872360D01*
X132265000Y-118363640D01*
X132267716Y-118336062D01*
X132273971Y-118315443D01*
X132284124Y-118296447D01*
X132297792Y-118279792D01*
X132314447Y-118266124D01*
X132333443Y-118255971D01*
X132354062Y-118249716D01*
X132381640Y-118247000D01*
X132840360Y-118247000D01*
X132867938Y-118249716D01*
X132867938Y-118249716D01*
G37*
G36*
X118300500Y-118932500D02*
G01*
X114998500Y-118932500D01*
X114998500Y-118430500D01*
X118300500Y-118430500D01*
X118300500Y-118932500D01*
X118300500Y-118932500D01*
G37*
G36*
X139979938Y-117995716D02*
G01*
X140000557Y-118001971D01*
X140019553Y-118012124D01*
X140036208Y-118025792D01*
X140049876Y-118042447D01*
X140060029Y-118061443D01*
X140066284Y-118082062D01*
X140069000Y-118109640D01*
X140069000Y-118618360D01*
X140066284Y-118645938D01*
X140060029Y-118666557D01*
X140049876Y-118685553D01*
X140036208Y-118702208D01*
X140019553Y-118715876D01*
X140000557Y-118726029D01*
X139979938Y-118732284D01*
X139952360Y-118735000D01*
X139493640Y-118735000D01*
X139466062Y-118732284D01*
X139445443Y-118726029D01*
X139426447Y-118715876D01*
X139409792Y-118702208D01*
X139396124Y-118685553D01*
X139385971Y-118666557D01*
X139379716Y-118645938D01*
X139377000Y-118618360D01*
X139377000Y-118109640D01*
X139379716Y-118082062D01*
X139385971Y-118061443D01*
X139396124Y-118042447D01*
X139409792Y-118025792D01*
X139426447Y-118012124D01*
X139445443Y-118001971D01*
X139466062Y-117995716D01*
X139493640Y-117993000D01*
X139952360Y-117993000D01*
X139979938Y-117995716D01*
X139979938Y-117995716D01*
G37*
G36*
X140949938Y-117995716D02*
G01*
X140970557Y-118001971D01*
X140989553Y-118012124D01*
X141006208Y-118025792D01*
X141019876Y-118042447D01*
X141030029Y-118061443D01*
X141036284Y-118082062D01*
X141039000Y-118109640D01*
X141039000Y-118618360D01*
X141036284Y-118645938D01*
X141030029Y-118666557D01*
X141019876Y-118685553D01*
X141006208Y-118702208D01*
X140989553Y-118715876D01*
X140970557Y-118726029D01*
X140949938Y-118732284D01*
X140922360Y-118735000D01*
X140463640Y-118735000D01*
X140436062Y-118732284D01*
X140415443Y-118726029D01*
X140396447Y-118715876D01*
X140379792Y-118702208D01*
X140366124Y-118685553D01*
X140355971Y-118666557D01*
X140349716Y-118645938D01*
X140347000Y-118618360D01*
X140347000Y-118109640D01*
X140349716Y-118082062D01*
X140355971Y-118061443D01*
X140366124Y-118042447D01*
X140379792Y-118025792D01*
X140396447Y-118012124D01*
X140415443Y-118001971D01*
X140436062Y-117995716D01*
X140463640Y-117993000D01*
X140922360Y-117993000D01*
X140949938Y-117995716D01*
X140949938Y-117995716D01*
G37*
G36*
X122267500Y-118632500D02*
G01*
X120565500Y-118632500D01*
X120565500Y-112380500D01*
X122267500Y-112380500D01*
X122267500Y-118632500D01*
X122267500Y-118632500D01*
G37*
G36*
X130767500Y-118632500D02*
G01*
X129065500Y-118632500D01*
X129065500Y-112380500D01*
X130767500Y-112380500D01*
X130767500Y-118632500D01*
X130767500Y-118632500D01*
G37*
G36*
X118300500Y-117732500D02*
G01*
X114998500Y-117732500D01*
X114998500Y-117230500D01*
X118300500Y-117230500D01*
X118300500Y-117732500D01*
X118300500Y-117732500D01*
G37*
G36*
X138963938Y-116471716D02*
G01*
X138984557Y-116477971D01*
X139003553Y-116488124D01*
X139020208Y-116501792D01*
X139033876Y-116518447D01*
X139044029Y-116537443D01*
X139050284Y-116558062D01*
X139053000Y-116585640D01*
X139053000Y-117094360D01*
X139050284Y-117121938D01*
X139044029Y-117142557D01*
X139033876Y-117161553D01*
X139020208Y-117178208D01*
X139003553Y-117191876D01*
X138984557Y-117202029D01*
X138963938Y-117208284D01*
X138936360Y-117211000D01*
X138477640Y-117211000D01*
X138450062Y-117208284D01*
X138429443Y-117202029D01*
X138410447Y-117191876D01*
X138393792Y-117178208D01*
X138380124Y-117161553D01*
X138369971Y-117142557D01*
X138363716Y-117121938D01*
X138361000Y-117094360D01*
X138361000Y-116585640D01*
X138363716Y-116558062D01*
X138369971Y-116537443D01*
X138380124Y-116518447D01*
X138393792Y-116501792D01*
X138410447Y-116488124D01*
X138429443Y-116477971D01*
X138450062Y-116471716D01*
X138477640Y-116469000D01*
X138936360Y-116469000D01*
X138963938Y-116471716D01*
X138963938Y-116471716D01*
G37*
G36*
X139933938Y-116471716D02*
G01*
X139954557Y-116477971D01*
X139973553Y-116488124D01*
X139990208Y-116501792D01*
X140003876Y-116518447D01*
X140014029Y-116537443D01*
X140020284Y-116558062D01*
X140023000Y-116585640D01*
X140023000Y-117094360D01*
X140020284Y-117121938D01*
X140014029Y-117142557D01*
X140003876Y-117161553D01*
X139990208Y-117178208D01*
X139973553Y-117191876D01*
X139954557Y-117202029D01*
X139933938Y-117208284D01*
X139906360Y-117211000D01*
X139447640Y-117211000D01*
X139420062Y-117208284D01*
X139399443Y-117202029D01*
X139380447Y-117191876D01*
X139363792Y-117178208D01*
X139350124Y-117161553D01*
X139339971Y-117142557D01*
X139333716Y-117121938D01*
X139331000Y-117094360D01*
X139331000Y-116585640D01*
X139333716Y-116558062D01*
X139339971Y-116537443D01*
X139350124Y-116518447D01*
X139363792Y-116501792D01*
X139380447Y-116488124D01*
X139399443Y-116477971D01*
X139420062Y-116471716D01*
X139447640Y-116469000D01*
X139906360Y-116469000D01*
X139933938Y-116471716D01*
X139933938Y-116471716D01*
G37*
G36*
X132867938Y-115709716D02*
G01*
X132888557Y-115715971D01*
X132907553Y-115726124D01*
X132924208Y-115739792D01*
X132937876Y-115756447D01*
X132948029Y-115775443D01*
X132954284Y-115796062D01*
X132957000Y-115823640D01*
X132957000Y-116332360D01*
X132954284Y-116359938D01*
X132948029Y-116380557D01*
X132937876Y-116399553D01*
X132924208Y-116416208D01*
X132907553Y-116429876D01*
X132888557Y-116440029D01*
X132867938Y-116446284D01*
X132840360Y-116449000D01*
X132381640Y-116449000D01*
X132354062Y-116446284D01*
X132333443Y-116440029D01*
X132314447Y-116429876D01*
X132297792Y-116416208D01*
X132284124Y-116399553D01*
X132273971Y-116380557D01*
X132267716Y-116359938D01*
X132265000Y-116332360D01*
X132265000Y-115823640D01*
X132267716Y-115796062D01*
X132273971Y-115775443D01*
X132284124Y-115756447D01*
X132297792Y-115739792D01*
X132314447Y-115726124D01*
X132333443Y-115715971D01*
X132354062Y-115709716D01*
X132381640Y-115707000D01*
X132840360Y-115707000D01*
X132867938Y-115709716D01*
X132867938Y-115709716D01*
G37*
G36*
X133837938Y-115709716D02*
G01*
X133858557Y-115715971D01*
X133877553Y-115726124D01*
X133894208Y-115739792D01*
X133907876Y-115756447D01*
X133918029Y-115775443D01*
X133924284Y-115796062D01*
X133927000Y-115823640D01*
X133927000Y-116332360D01*
X133924284Y-116359938D01*
X133918029Y-116380557D01*
X133907876Y-116399553D01*
X133894208Y-116416208D01*
X133877553Y-116429876D01*
X133858557Y-116440029D01*
X133837938Y-116446284D01*
X133810360Y-116449000D01*
X133351640Y-116449000D01*
X133324062Y-116446284D01*
X133303443Y-116440029D01*
X133284447Y-116429876D01*
X133267792Y-116416208D01*
X133254124Y-116399553D01*
X133243971Y-116380557D01*
X133237716Y-116359938D01*
X133235000Y-116332360D01*
X133235000Y-115823640D01*
X133237716Y-115796062D01*
X133243971Y-115775443D01*
X133254124Y-115756447D01*
X133267792Y-115739792D01*
X133284447Y-115726124D01*
X133303443Y-115715971D01*
X133324062Y-115709716D01*
X133351640Y-115707000D01*
X133810360Y-115707000D01*
X133837938Y-115709716D01*
X133837938Y-115709716D01*
G37*
G36*
X128792500Y-112107500D02*
G01*
X122540500Y-112107500D01*
X122540500Y-110405500D01*
X128792500Y-110405500D01*
X128792500Y-112107500D01*
X128792500Y-112107500D01*
G37*
M02*
