G04 #@! TF.GenerationSoftware,KiCad,Pcbnew,(5.1.2)-2*
G04 #@! TF.CreationDate,2019-08-10T11:19:50-04:00*
G04 #@! TF.ProjectId,toyota-angle-sensor,746f796f-7461-42d6-916e-676c652d7365,rev?*
G04 #@! TF.SameCoordinates,Original*
G04 #@! TF.FileFunction,Paste,Bot*
G04 #@! TF.FilePolarity,Positive*
%FSLAX46Y46*%
G04 Gerber Fmt 4.6, Leading zero omitted, Abs format (unit mm)*
G04 Created by KiCad (PCBNEW (5.1.2)-2) date 2019-08-10 11:19:50*
%MOMM*%
%LPD*%
G04 APERTURE LIST*
%ADD10C,0.100000*%
%ADD11C,0.875000*%
%ADD12C,2.400000*%
%ADD13R,0.600000X2.000000*%
%ADD14R,1.400000X1.200000*%
%ADD15R,3.200000X0.400000*%
%ADD16R,0.600000X1.550000*%
%ADD17R,1.450000X0.450000*%
%ADD18R,1.500000X0.600000*%
%ADD19R,1.600000X0.550000*%
%ADD20R,0.550000X1.600000*%
G04 APERTURE END LIST*
D10*
G36*
X130504191Y-122906553D02*
G01*
X130525426Y-122909703D01*
X130546250Y-122914919D01*
X130566462Y-122922151D01*
X130585868Y-122931330D01*
X130604281Y-122942366D01*
X130621524Y-122955154D01*
X130637430Y-122969570D01*
X130651846Y-122985476D01*
X130664634Y-123002719D01*
X130675670Y-123021132D01*
X130684849Y-123040538D01*
X130692081Y-123060750D01*
X130697297Y-123081574D01*
X130700447Y-123102809D01*
X130701500Y-123124250D01*
X130701500Y-123636750D01*
X130700447Y-123658191D01*
X130697297Y-123679426D01*
X130692081Y-123700250D01*
X130684849Y-123720462D01*
X130675670Y-123739868D01*
X130664634Y-123758281D01*
X130651846Y-123775524D01*
X130637430Y-123791430D01*
X130621524Y-123805846D01*
X130604281Y-123818634D01*
X130585868Y-123829670D01*
X130566462Y-123838849D01*
X130546250Y-123846081D01*
X130525426Y-123851297D01*
X130504191Y-123854447D01*
X130482750Y-123855500D01*
X130045250Y-123855500D01*
X130023809Y-123854447D01*
X130002574Y-123851297D01*
X129981750Y-123846081D01*
X129961538Y-123838849D01*
X129942132Y-123829670D01*
X129923719Y-123818634D01*
X129906476Y-123805846D01*
X129890570Y-123791430D01*
X129876154Y-123775524D01*
X129863366Y-123758281D01*
X129852330Y-123739868D01*
X129843151Y-123720462D01*
X129835919Y-123700250D01*
X129830703Y-123679426D01*
X129827553Y-123658191D01*
X129826500Y-123636750D01*
X129826500Y-123124250D01*
X129827553Y-123102809D01*
X129830703Y-123081574D01*
X129835919Y-123060750D01*
X129843151Y-123040538D01*
X129852330Y-123021132D01*
X129863366Y-123002719D01*
X129876154Y-122985476D01*
X129890570Y-122969570D01*
X129906476Y-122955154D01*
X129923719Y-122942366D01*
X129942132Y-122931330D01*
X129961538Y-122922151D01*
X129981750Y-122914919D01*
X130002574Y-122909703D01*
X130023809Y-122906553D01*
X130045250Y-122905500D01*
X130482750Y-122905500D01*
X130504191Y-122906553D01*
X130504191Y-122906553D01*
G37*
D11*
X130264000Y-123380500D03*
D10*
G36*
X128929191Y-122906553D02*
G01*
X128950426Y-122909703D01*
X128971250Y-122914919D01*
X128991462Y-122922151D01*
X129010868Y-122931330D01*
X129029281Y-122942366D01*
X129046524Y-122955154D01*
X129062430Y-122969570D01*
X129076846Y-122985476D01*
X129089634Y-123002719D01*
X129100670Y-123021132D01*
X129109849Y-123040538D01*
X129117081Y-123060750D01*
X129122297Y-123081574D01*
X129125447Y-123102809D01*
X129126500Y-123124250D01*
X129126500Y-123636750D01*
X129125447Y-123658191D01*
X129122297Y-123679426D01*
X129117081Y-123700250D01*
X129109849Y-123720462D01*
X129100670Y-123739868D01*
X129089634Y-123758281D01*
X129076846Y-123775524D01*
X129062430Y-123791430D01*
X129046524Y-123805846D01*
X129029281Y-123818634D01*
X129010868Y-123829670D01*
X128991462Y-123838849D01*
X128971250Y-123846081D01*
X128950426Y-123851297D01*
X128929191Y-123854447D01*
X128907750Y-123855500D01*
X128470250Y-123855500D01*
X128448809Y-123854447D01*
X128427574Y-123851297D01*
X128406750Y-123846081D01*
X128386538Y-123838849D01*
X128367132Y-123829670D01*
X128348719Y-123818634D01*
X128331476Y-123805846D01*
X128315570Y-123791430D01*
X128301154Y-123775524D01*
X128288366Y-123758281D01*
X128277330Y-123739868D01*
X128268151Y-123720462D01*
X128260919Y-123700250D01*
X128255703Y-123679426D01*
X128252553Y-123658191D01*
X128251500Y-123636750D01*
X128251500Y-123124250D01*
X128252553Y-123102809D01*
X128255703Y-123081574D01*
X128260919Y-123060750D01*
X128268151Y-123040538D01*
X128277330Y-123021132D01*
X128288366Y-123002719D01*
X128301154Y-122985476D01*
X128315570Y-122969570D01*
X128331476Y-122955154D01*
X128348719Y-122942366D01*
X128367132Y-122931330D01*
X128386538Y-122922151D01*
X128406750Y-122914919D01*
X128427574Y-122909703D01*
X128448809Y-122906553D01*
X128470250Y-122905500D01*
X128907750Y-122905500D01*
X128929191Y-122906553D01*
X128929191Y-122906553D01*
G37*
D11*
X128689000Y-123380500D03*
D10*
G36*
X121880691Y-137194053D02*
G01*
X121901926Y-137197203D01*
X121922750Y-137202419D01*
X121942962Y-137209651D01*
X121962368Y-137218830D01*
X121980781Y-137229866D01*
X121998024Y-137242654D01*
X122013930Y-137257070D01*
X122028346Y-137272976D01*
X122041134Y-137290219D01*
X122052170Y-137308632D01*
X122061349Y-137328038D01*
X122068581Y-137348250D01*
X122073797Y-137369074D01*
X122076947Y-137390309D01*
X122078000Y-137411750D01*
X122078000Y-137924250D01*
X122076947Y-137945691D01*
X122073797Y-137966926D01*
X122068581Y-137987750D01*
X122061349Y-138007962D01*
X122052170Y-138027368D01*
X122041134Y-138045781D01*
X122028346Y-138063024D01*
X122013930Y-138078930D01*
X121998024Y-138093346D01*
X121980781Y-138106134D01*
X121962368Y-138117170D01*
X121942962Y-138126349D01*
X121922750Y-138133581D01*
X121901926Y-138138797D01*
X121880691Y-138141947D01*
X121859250Y-138143000D01*
X121421750Y-138143000D01*
X121400309Y-138141947D01*
X121379074Y-138138797D01*
X121358250Y-138133581D01*
X121338038Y-138126349D01*
X121318632Y-138117170D01*
X121300219Y-138106134D01*
X121282976Y-138093346D01*
X121267070Y-138078930D01*
X121252654Y-138063024D01*
X121239866Y-138045781D01*
X121228830Y-138027368D01*
X121219651Y-138007962D01*
X121212419Y-137987750D01*
X121207203Y-137966926D01*
X121204053Y-137945691D01*
X121203000Y-137924250D01*
X121203000Y-137411750D01*
X121204053Y-137390309D01*
X121207203Y-137369074D01*
X121212419Y-137348250D01*
X121219651Y-137328038D01*
X121228830Y-137308632D01*
X121239866Y-137290219D01*
X121252654Y-137272976D01*
X121267070Y-137257070D01*
X121282976Y-137242654D01*
X121300219Y-137229866D01*
X121318632Y-137218830D01*
X121338038Y-137209651D01*
X121358250Y-137202419D01*
X121379074Y-137197203D01*
X121400309Y-137194053D01*
X121421750Y-137193000D01*
X121859250Y-137193000D01*
X121880691Y-137194053D01*
X121880691Y-137194053D01*
G37*
D11*
X121640500Y-137668000D03*
D10*
G36*
X123455691Y-137194053D02*
G01*
X123476926Y-137197203D01*
X123497750Y-137202419D01*
X123517962Y-137209651D01*
X123537368Y-137218830D01*
X123555781Y-137229866D01*
X123573024Y-137242654D01*
X123588930Y-137257070D01*
X123603346Y-137272976D01*
X123616134Y-137290219D01*
X123627170Y-137308632D01*
X123636349Y-137328038D01*
X123643581Y-137348250D01*
X123648797Y-137369074D01*
X123651947Y-137390309D01*
X123653000Y-137411750D01*
X123653000Y-137924250D01*
X123651947Y-137945691D01*
X123648797Y-137966926D01*
X123643581Y-137987750D01*
X123636349Y-138007962D01*
X123627170Y-138027368D01*
X123616134Y-138045781D01*
X123603346Y-138063024D01*
X123588930Y-138078930D01*
X123573024Y-138093346D01*
X123555781Y-138106134D01*
X123537368Y-138117170D01*
X123517962Y-138126349D01*
X123497750Y-138133581D01*
X123476926Y-138138797D01*
X123455691Y-138141947D01*
X123434250Y-138143000D01*
X122996750Y-138143000D01*
X122975309Y-138141947D01*
X122954074Y-138138797D01*
X122933250Y-138133581D01*
X122913038Y-138126349D01*
X122893632Y-138117170D01*
X122875219Y-138106134D01*
X122857976Y-138093346D01*
X122842070Y-138078930D01*
X122827654Y-138063024D01*
X122814866Y-138045781D01*
X122803830Y-138027368D01*
X122794651Y-138007962D01*
X122787419Y-137987750D01*
X122782203Y-137966926D01*
X122779053Y-137945691D01*
X122778000Y-137924250D01*
X122778000Y-137411750D01*
X122779053Y-137390309D01*
X122782203Y-137369074D01*
X122787419Y-137348250D01*
X122794651Y-137328038D01*
X122803830Y-137308632D01*
X122814866Y-137290219D01*
X122827654Y-137272976D01*
X122842070Y-137257070D01*
X122857976Y-137242654D01*
X122875219Y-137229866D01*
X122893632Y-137218830D01*
X122913038Y-137209651D01*
X122933250Y-137202419D01*
X122954074Y-137197203D01*
X122975309Y-137194053D01*
X122996750Y-137193000D01*
X123434250Y-137193000D01*
X123455691Y-137194053D01*
X123455691Y-137194053D01*
G37*
D11*
X123215500Y-137668000D03*
D10*
G36*
X138009691Y-116239053D02*
G01*
X138030926Y-116242203D01*
X138051750Y-116247419D01*
X138071962Y-116254651D01*
X138091368Y-116263830D01*
X138109781Y-116274866D01*
X138127024Y-116287654D01*
X138142930Y-116302070D01*
X138157346Y-116317976D01*
X138170134Y-116335219D01*
X138181170Y-116353632D01*
X138190349Y-116373038D01*
X138197581Y-116393250D01*
X138202797Y-116414074D01*
X138205947Y-116435309D01*
X138207000Y-116456750D01*
X138207000Y-116969250D01*
X138205947Y-116990691D01*
X138202797Y-117011926D01*
X138197581Y-117032750D01*
X138190349Y-117052962D01*
X138181170Y-117072368D01*
X138170134Y-117090781D01*
X138157346Y-117108024D01*
X138142930Y-117123930D01*
X138127024Y-117138346D01*
X138109781Y-117151134D01*
X138091368Y-117162170D01*
X138071962Y-117171349D01*
X138051750Y-117178581D01*
X138030926Y-117183797D01*
X138009691Y-117186947D01*
X137988250Y-117188000D01*
X137550750Y-117188000D01*
X137529309Y-117186947D01*
X137508074Y-117183797D01*
X137487250Y-117178581D01*
X137467038Y-117171349D01*
X137447632Y-117162170D01*
X137429219Y-117151134D01*
X137411976Y-117138346D01*
X137396070Y-117123930D01*
X137381654Y-117108024D01*
X137368866Y-117090781D01*
X137357830Y-117072368D01*
X137348651Y-117052962D01*
X137341419Y-117032750D01*
X137336203Y-117011926D01*
X137333053Y-116990691D01*
X137332000Y-116969250D01*
X137332000Y-116456750D01*
X137333053Y-116435309D01*
X137336203Y-116414074D01*
X137341419Y-116393250D01*
X137348651Y-116373038D01*
X137357830Y-116353632D01*
X137368866Y-116335219D01*
X137381654Y-116317976D01*
X137396070Y-116302070D01*
X137411976Y-116287654D01*
X137429219Y-116274866D01*
X137447632Y-116263830D01*
X137467038Y-116254651D01*
X137487250Y-116247419D01*
X137508074Y-116242203D01*
X137529309Y-116239053D01*
X137550750Y-116238000D01*
X137988250Y-116238000D01*
X138009691Y-116239053D01*
X138009691Y-116239053D01*
G37*
D11*
X137769500Y-116713000D03*
D10*
G36*
X139584691Y-116239053D02*
G01*
X139605926Y-116242203D01*
X139626750Y-116247419D01*
X139646962Y-116254651D01*
X139666368Y-116263830D01*
X139684781Y-116274866D01*
X139702024Y-116287654D01*
X139717930Y-116302070D01*
X139732346Y-116317976D01*
X139745134Y-116335219D01*
X139756170Y-116353632D01*
X139765349Y-116373038D01*
X139772581Y-116393250D01*
X139777797Y-116414074D01*
X139780947Y-116435309D01*
X139782000Y-116456750D01*
X139782000Y-116969250D01*
X139780947Y-116990691D01*
X139777797Y-117011926D01*
X139772581Y-117032750D01*
X139765349Y-117052962D01*
X139756170Y-117072368D01*
X139745134Y-117090781D01*
X139732346Y-117108024D01*
X139717930Y-117123930D01*
X139702024Y-117138346D01*
X139684781Y-117151134D01*
X139666368Y-117162170D01*
X139646962Y-117171349D01*
X139626750Y-117178581D01*
X139605926Y-117183797D01*
X139584691Y-117186947D01*
X139563250Y-117188000D01*
X139125750Y-117188000D01*
X139104309Y-117186947D01*
X139083074Y-117183797D01*
X139062250Y-117178581D01*
X139042038Y-117171349D01*
X139022632Y-117162170D01*
X139004219Y-117151134D01*
X138986976Y-117138346D01*
X138971070Y-117123930D01*
X138956654Y-117108024D01*
X138943866Y-117090781D01*
X138932830Y-117072368D01*
X138923651Y-117052962D01*
X138916419Y-117032750D01*
X138911203Y-117011926D01*
X138908053Y-116990691D01*
X138907000Y-116969250D01*
X138907000Y-116456750D01*
X138908053Y-116435309D01*
X138911203Y-116414074D01*
X138916419Y-116393250D01*
X138923651Y-116373038D01*
X138932830Y-116353632D01*
X138943866Y-116335219D01*
X138956654Y-116317976D01*
X138971070Y-116302070D01*
X138986976Y-116287654D01*
X139004219Y-116274866D01*
X139022632Y-116263830D01*
X139042038Y-116254651D01*
X139062250Y-116247419D01*
X139083074Y-116242203D01*
X139104309Y-116239053D01*
X139125750Y-116238000D01*
X139563250Y-116238000D01*
X139584691Y-116239053D01*
X139584691Y-116239053D01*
G37*
D11*
X139344500Y-116713000D03*
D10*
G36*
X121677691Y-132749053D02*
G01*
X121698926Y-132752203D01*
X121719750Y-132757419D01*
X121739962Y-132764651D01*
X121759368Y-132773830D01*
X121777781Y-132784866D01*
X121795024Y-132797654D01*
X121810930Y-132812070D01*
X121825346Y-132827976D01*
X121838134Y-132845219D01*
X121849170Y-132863632D01*
X121858349Y-132883038D01*
X121865581Y-132903250D01*
X121870797Y-132924074D01*
X121873947Y-132945309D01*
X121875000Y-132966750D01*
X121875000Y-133479250D01*
X121873947Y-133500691D01*
X121870797Y-133521926D01*
X121865581Y-133542750D01*
X121858349Y-133562962D01*
X121849170Y-133582368D01*
X121838134Y-133600781D01*
X121825346Y-133618024D01*
X121810930Y-133633930D01*
X121795024Y-133648346D01*
X121777781Y-133661134D01*
X121759368Y-133672170D01*
X121739962Y-133681349D01*
X121719750Y-133688581D01*
X121698926Y-133693797D01*
X121677691Y-133696947D01*
X121656250Y-133698000D01*
X121218750Y-133698000D01*
X121197309Y-133696947D01*
X121176074Y-133693797D01*
X121155250Y-133688581D01*
X121135038Y-133681349D01*
X121115632Y-133672170D01*
X121097219Y-133661134D01*
X121079976Y-133648346D01*
X121064070Y-133633930D01*
X121049654Y-133618024D01*
X121036866Y-133600781D01*
X121025830Y-133582368D01*
X121016651Y-133562962D01*
X121009419Y-133542750D01*
X121004203Y-133521926D01*
X121001053Y-133500691D01*
X121000000Y-133479250D01*
X121000000Y-132966750D01*
X121001053Y-132945309D01*
X121004203Y-132924074D01*
X121009419Y-132903250D01*
X121016651Y-132883038D01*
X121025830Y-132863632D01*
X121036866Y-132845219D01*
X121049654Y-132827976D01*
X121064070Y-132812070D01*
X121079976Y-132797654D01*
X121097219Y-132784866D01*
X121115632Y-132773830D01*
X121135038Y-132764651D01*
X121155250Y-132757419D01*
X121176074Y-132752203D01*
X121197309Y-132749053D01*
X121218750Y-132748000D01*
X121656250Y-132748000D01*
X121677691Y-132749053D01*
X121677691Y-132749053D01*
G37*
D11*
X121437500Y-133223000D03*
D10*
G36*
X120102691Y-132749053D02*
G01*
X120123926Y-132752203D01*
X120144750Y-132757419D01*
X120164962Y-132764651D01*
X120184368Y-132773830D01*
X120202781Y-132784866D01*
X120220024Y-132797654D01*
X120235930Y-132812070D01*
X120250346Y-132827976D01*
X120263134Y-132845219D01*
X120274170Y-132863632D01*
X120283349Y-132883038D01*
X120290581Y-132903250D01*
X120295797Y-132924074D01*
X120298947Y-132945309D01*
X120300000Y-132966750D01*
X120300000Y-133479250D01*
X120298947Y-133500691D01*
X120295797Y-133521926D01*
X120290581Y-133542750D01*
X120283349Y-133562962D01*
X120274170Y-133582368D01*
X120263134Y-133600781D01*
X120250346Y-133618024D01*
X120235930Y-133633930D01*
X120220024Y-133648346D01*
X120202781Y-133661134D01*
X120184368Y-133672170D01*
X120164962Y-133681349D01*
X120144750Y-133688581D01*
X120123926Y-133693797D01*
X120102691Y-133696947D01*
X120081250Y-133698000D01*
X119643750Y-133698000D01*
X119622309Y-133696947D01*
X119601074Y-133693797D01*
X119580250Y-133688581D01*
X119560038Y-133681349D01*
X119540632Y-133672170D01*
X119522219Y-133661134D01*
X119504976Y-133648346D01*
X119489070Y-133633930D01*
X119474654Y-133618024D01*
X119461866Y-133600781D01*
X119450830Y-133582368D01*
X119441651Y-133562962D01*
X119434419Y-133542750D01*
X119429203Y-133521926D01*
X119426053Y-133500691D01*
X119425000Y-133479250D01*
X119425000Y-132966750D01*
X119426053Y-132945309D01*
X119429203Y-132924074D01*
X119434419Y-132903250D01*
X119441651Y-132883038D01*
X119450830Y-132863632D01*
X119461866Y-132845219D01*
X119474654Y-132827976D01*
X119489070Y-132812070D01*
X119504976Y-132797654D01*
X119522219Y-132784866D01*
X119540632Y-132773830D01*
X119560038Y-132764651D01*
X119580250Y-132757419D01*
X119601074Y-132752203D01*
X119622309Y-132749053D01*
X119643750Y-132748000D01*
X120081250Y-132748000D01*
X120102691Y-132749053D01*
X120102691Y-132749053D01*
G37*
D11*
X119862500Y-133223000D03*
D10*
G36*
X132548691Y-115604053D02*
G01*
X132569926Y-115607203D01*
X132590750Y-115612419D01*
X132610962Y-115619651D01*
X132630368Y-115628830D01*
X132648781Y-115639866D01*
X132666024Y-115652654D01*
X132681930Y-115667070D01*
X132696346Y-115682976D01*
X132709134Y-115700219D01*
X132720170Y-115718632D01*
X132729349Y-115738038D01*
X132736581Y-115758250D01*
X132741797Y-115779074D01*
X132744947Y-115800309D01*
X132746000Y-115821750D01*
X132746000Y-116334250D01*
X132744947Y-116355691D01*
X132741797Y-116376926D01*
X132736581Y-116397750D01*
X132729349Y-116417962D01*
X132720170Y-116437368D01*
X132709134Y-116455781D01*
X132696346Y-116473024D01*
X132681930Y-116488930D01*
X132666024Y-116503346D01*
X132648781Y-116516134D01*
X132630368Y-116527170D01*
X132610962Y-116536349D01*
X132590750Y-116543581D01*
X132569926Y-116548797D01*
X132548691Y-116551947D01*
X132527250Y-116553000D01*
X132089750Y-116553000D01*
X132068309Y-116551947D01*
X132047074Y-116548797D01*
X132026250Y-116543581D01*
X132006038Y-116536349D01*
X131986632Y-116527170D01*
X131968219Y-116516134D01*
X131950976Y-116503346D01*
X131935070Y-116488930D01*
X131920654Y-116473024D01*
X131907866Y-116455781D01*
X131896830Y-116437368D01*
X131887651Y-116417962D01*
X131880419Y-116397750D01*
X131875203Y-116376926D01*
X131872053Y-116355691D01*
X131871000Y-116334250D01*
X131871000Y-115821750D01*
X131872053Y-115800309D01*
X131875203Y-115779074D01*
X131880419Y-115758250D01*
X131887651Y-115738038D01*
X131896830Y-115718632D01*
X131907866Y-115700219D01*
X131920654Y-115682976D01*
X131935070Y-115667070D01*
X131950976Y-115652654D01*
X131968219Y-115639866D01*
X131986632Y-115628830D01*
X132006038Y-115619651D01*
X132026250Y-115612419D01*
X132047074Y-115607203D01*
X132068309Y-115604053D01*
X132089750Y-115603000D01*
X132527250Y-115603000D01*
X132548691Y-115604053D01*
X132548691Y-115604053D01*
G37*
D11*
X132308500Y-116078000D03*
D10*
G36*
X134123691Y-115604053D02*
G01*
X134144926Y-115607203D01*
X134165750Y-115612419D01*
X134185962Y-115619651D01*
X134205368Y-115628830D01*
X134223781Y-115639866D01*
X134241024Y-115652654D01*
X134256930Y-115667070D01*
X134271346Y-115682976D01*
X134284134Y-115700219D01*
X134295170Y-115718632D01*
X134304349Y-115738038D01*
X134311581Y-115758250D01*
X134316797Y-115779074D01*
X134319947Y-115800309D01*
X134321000Y-115821750D01*
X134321000Y-116334250D01*
X134319947Y-116355691D01*
X134316797Y-116376926D01*
X134311581Y-116397750D01*
X134304349Y-116417962D01*
X134295170Y-116437368D01*
X134284134Y-116455781D01*
X134271346Y-116473024D01*
X134256930Y-116488930D01*
X134241024Y-116503346D01*
X134223781Y-116516134D01*
X134205368Y-116527170D01*
X134185962Y-116536349D01*
X134165750Y-116543581D01*
X134144926Y-116548797D01*
X134123691Y-116551947D01*
X134102250Y-116553000D01*
X133664750Y-116553000D01*
X133643309Y-116551947D01*
X133622074Y-116548797D01*
X133601250Y-116543581D01*
X133581038Y-116536349D01*
X133561632Y-116527170D01*
X133543219Y-116516134D01*
X133525976Y-116503346D01*
X133510070Y-116488930D01*
X133495654Y-116473024D01*
X133482866Y-116455781D01*
X133471830Y-116437368D01*
X133462651Y-116417962D01*
X133455419Y-116397750D01*
X133450203Y-116376926D01*
X133447053Y-116355691D01*
X133446000Y-116334250D01*
X133446000Y-115821750D01*
X133447053Y-115800309D01*
X133450203Y-115779074D01*
X133455419Y-115758250D01*
X133462651Y-115738038D01*
X133471830Y-115718632D01*
X133482866Y-115700219D01*
X133495654Y-115682976D01*
X133510070Y-115667070D01*
X133525976Y-115652654D01*
X133543219Y-115639866D01*
X133561632Y-115628830D01*
X133581038Y-115619651D01*
X133601250Y-115612419D01*
X133622074Y-115607203D01*
X133643309Y-115604053D01*
X133664750Y-115603000D01*
X134102250Y-115603000D01*
X134123691Y-115604053D01*
X134123691Y-115604053D01*
G37*
D11*
X133883500Y-116078000D03*
D10*
G36*
X127519691Y-122906553D02*
G01*
X127540926Y-122909703D01*
X127561750Y-122914919D01*
X127581962Y-122922151D01*
X127601368Y-122931330D01*
X127619781Y-122942366D01*
X127637024Y-122955154D01*
X127652930Y-122969570D01*
X127667346Y-122985476D01*
X127680134Y-123002719D01*
X127691170Y-123021132D01*
X127700349Y-123040538D01*
X127707581Y-123060750D01*
X127712797Y-123081574D01*
X127715947Y-123102809D01*
X127717000Y-123124250D01*
X127717000Y-123636750D01*
X127715947Y-123658191D01*
X127712797Y-123679426D01*
X127707581Y-123700250D01*
X127700349Y-123720462D01*
X127691170Y-123739868D01*
X127680134Y-123758281D01*
X127667346Y-123775524D01*
X127652930Y-123791430D01*
X127637024Y-123805846D01*
X127619781Y-123818634D01*
X127601368Y-123829670D01*
X127581962Y-123838849D01*
X127561750Y-123846081D01*
X127540926Y-123851297D01*
X127519691Y-123854447D01*
X127498250Y-123855500D01*
X127060750Y-123855500D01*
X127039309Y-123854447D01*
X127018074Y-123851297D01*
X126997250Y-123846081D01*
X126977038Y-123838849D01*
X126957632Y-123829670D01*
X126939219Y-123818634D01*
X126921976Y-123805846D01*
X126906070Y-123791430D01*
X126891654Y-123775524D01*
X126878866Y-123758281D01*
X126867830Y-123739868D01*
X126858651Y-123720462D01*
X126851419Y-123700250D01*
X126846203Y-123679426D01*
X126843053Y-123658191D01*
X126842000Y-123636750D01*
X126842000Y-123124250D01*
X126843053Y-123102809D01*
X126846203Y-123081574D01*
X126851419Y-123060750D01*
X126858651Y-123040538D01*
X126867830Y-123021132D01*
X126878866Y-123002719D01*
X126891654Y-122985476D01*
X126906070Y-122969570D01*
X126921976Y-122955154D01*
X126939219Y-122942366D01*
X126957632Y-122931330D01*
X126977038Y-122922151D01*
X126997250Y-122914919D01*
X127018074Y-122909703D01*
X127039309Y-122906553D01*
X127060750Y-122905500D01*
X127498250Y-122905500D01*
X127519691Y-122906553D01*
X127519691Y-122906553D01*
G37*
D11*
X127279500Y-123380500D03*
D10*
G36*
X125944691Y-122906553D02*
G01*
X125965926Y-122909703D01*
X125986750Y-122914919D01*
X126006962Y-122922151D01*
X126026368Y-122931330D01*
X126044781Y-122942366D01*
X126062024Y-122955154D01*
X126077930Y-122969570D01*
X126092346Y-122985476D01*
X126105134Y-123002719D01*
X126116170Y-123021132D01*
X126125349Y-123040538D01*
X126132581Y-123060750D01*
X126137797Y-123081574D01*
X126140947Y-123102809D01*
X126142000Y-123124250D01*
X126142000Y-123636750D01*
X126140947Y-123658191D01*
X126137797Y-123679426D01*
X126132581Y-123700250D01*
X126125349Y-123720462D01*
X126116170Y-123739868D01*
X126105134Y-123758281D01*
X126092346Y-123775524D01*
X126077930Y-123791430D01*
X126062024Y-123805846D01*
X126044781Y-123818634D01*
X126026368Y-123829670D01*
X126006962Y-123838849D01*
X125986750Y-123846081D01*
X125965926Y-123851297D01*
X125944691Y-123854447D01*
X125923250Y-123855500D01*
X125485750Y-123855500D01*
X125464309Y-123854447D01*
X125443074Y-123851297D01*
X125422250Y-123846081D01*
X125402038Y-123838849D01*
X125382632Y-123829670D01*
X125364219Y-123818634D01*
X125346976Y-123805846D01*
X125331070Y-123791430D01*
X125316654Y-123775524D01*
X125303866Y-123758281D01*
X125292830Y-123739868D01*
X125283651Y-123720462D01*
X125276419Y-123700250D01*
X125271203Y-123679426D01*
X125268053Y-123658191D01*
X125267000Y-123636750D01*
X125267000Y-123124250D01*
X125268053Y-123102809D01*
X125271203Y-123081574D01*
X125276419Y-123060750D01*
X125283651Y-123040538D01*
X125292830Y-123021132D01*
X125303866Y-123002719D01*
X125316654Y-122985476D01*
X125331070Y-122969570D01*
X125346976Y-122955154D01*
X125364219Y-122942366D01*
X125382632Y-122931330D01*
X125402038Y-122922151D01*
X125422250Y-122914919D01*
X125443074Y-122909703D01*
X125464309Y-122906553D01*
X125485750Y-122905500D01*
X125923250Y-122905500D01*
X125944691Y-122906553D01*
X125944691Y-122906553D01*
G37*
D11*
X125704500Y-123380500D03*
D10*
G36*
X135211650Y-136769732D02*
G01*
X135232811Y-136773344D01*
X135253516Y-136779013D01*
X135273565Y-136786684D01*
X135292767Y-136796284D01*
X135310934Y-136807719D01*
X135327894Y-136820880D01*
X135343482Y-136835640D01*
X135357548Y-136851857D01*
X135369957Y-136869374D01*
X135380589Y-136888024D01*
X135389342Y-136907625D01*
X135396131Y-136927990D01*
X135400892Y-136948923D01*
X135489887Y-137453637D01*
X135492573Y-137474936D01*
X135493158Y-137496395D01*
X135491637Y-137517808D01*
X135488025Y-137538969D01*
X135482356Y-137559674D01*
X135474684Y-137579724D01*
X135465085Y-137598925D01*
X135453650Y-137617093D01*
X135440489Y-137634052D01*
X135425729Y-137649640D01*
X135409512Y-137663706D01*
X135391994Y-137676115D01*
X135373345Y-137686747D01*
X135353743Y-137695500D01*
X135333378Y-137702289D01*
X135312446Y-137707050D01*
X134881593Y-137783022D01*
X134860295Y-137785708D01*
X134838835Y-137786293D01*
X134817422Y-137784772D01*
X134796261Y-137781160D01*
X134775556Y-137775491D01*
X134755507Y-137767820D01*
X134736305Y-137758220D01*
X134718138Y-137746785D01*
X134701178Y-137733624D01*
X134685590Y-137718864D01*
X134671524Y-137702647D01*
X134659115Y-137685130D01*
X134648483Y-137666480D01*
X134639730Y-137646879D01*
X134632941Y-137626514D01*
X134628180Y-137605581D01*
X134539185Y-137100867D01*
X134536499Y-137079568D01*
X134535914Y-137058109D01*
X134537435Y-137036696D01*
X134541047Y-137015535D01*
X134546716Y-136994830D01*
X134554388Y-136974780D01*
X134563987Y-136955579D01*
X134575422Y-136937411D01*
X134588583Y-136920452D01*
X134603343Y-136904864D01*
X134619560Y-136890798D01*
X134637078Y-136878389D01*
X134655727Y-136867757D01*
X134675329Y-136859004D01*
X134695694Y-136852215D01*
X134716626Y-136847454D01*
X135147479Y-136771482D01*
X135168777Y-136768796D01*
X135190237Y-136768211D01*
X135211650Y-136769732D01*
X135211650Y-136769732D01*
G37*
D11*
X135014536Y-137277252D03*
D10*
G36*
X133660578Y-137043228D02*
G01*
X133681739Y-137046840D01*
X133702444Y-137052509D01*
X133722493Y-137060180D01*
X133741695Y-137069780D01*
X133759862Y-137081215D01*
X133776822Y-137094376D01*
X133792410Y-137109136D01*
X133806476Y-137125353D01*
X133818885Y-137142870D01*
X133829517Y-137161520D01*
X133838270Y-137181121D01*
X133845059Y-137201486D01*
X133849820Y-137222419D01*
X133938815Y-137727133D01*
X133941501Y-137748432D01*
X133942086Y-137769891D01*
X133940565Y-137791304D01*
X133936953Y-137812465D01*
X133931284Y-137833170D01*
X133923612Y-137853220D01*
X133914013Y-137872421D01*
X133902578Y-137890589D01*
X133889417Y-137907548D01*
X133874657Y-137923136D01*
X133858440Y-137937202D01*
X133840922Y-137949611D01*
X133822273Y-137960243D01*
X133802671Y-137968996D01*
X133782306Y-137975785D01*
X133761374Y-137980546D01*
X133330521Y-138056518D01*
X133309223Y-138059204D01*
X133287763Y-138059789D01*
X133266350Y-138058268D01*
X133245189Y-138054656D01*
X133224484Y-138048987D01*
X133204435Y-138041316D01*
X133185233Y-138031716D01*
X133167066Y-138020281D01*
X133150106Y-138007120D01*
X133134518Y-137992360D01*
X133120452Y-137976143D01*
X133108043Y-137958626D01*
X133097411Y-137939976D01*
X133088658Y-137920375D01*
X133081869Y-137900010D01*
X133077108Y-137879077D01*
X132988113Y-137374363D01*
X132985427Y-137353064D01*
X132984842Y-137331605D01*
X132986363Y-137310192D01*
X132989975Y-137289031D01*
X132995644Y-137268326D01*
X133003316Y-137248276D01*
X133012915Y-137229075D01*
X133024350Y-137210907D01*
X133037511Y-137193948D01*
X133052271Y-137178360D01*
X133068488Y-137164294D01*
X133086006Y-137151885D01*
X133104655Y-137141253D01*
X133124257Y-137132500D01*
X133144622Y-137125711D01*
X133165554Y-137120950D01*
X133596407Y-137044978D01*
X133617705Y-137042292D01*
X133639165Y-137041707D01*
X133660578Y-137043228D01*
X133660578Y-137043228D01*
G37*
D11*
X133463464Y-137550748D03*
D10*
G36*
X136581578Y-136535228D02*
G01*
X136602739Y-136538840D01*
X136623444Y-136544509D01*
X136643493Y-136552180D01*
X136662695Y-136561780D01*
X136680862Y-136573215D01*
X136697822Y-136586376D01*
X136713410Y-136601136D01*
X136727476Y-136617353D01*
X136739885Y-136634870D01*
X136750517Y-136653520D01*
X136759270Y-136673121D01*
X136766059Y-136693486D01*
X136770820Y-136714419D01*
X136859815Y-137219133D01*
X136862501Y-137240432D01*
X136863086Y-137261891D01*
X136861565Y-137283304D01*
X136857953Y-137304465D01*
X136852284Y-137325170D01*
X136844612Y-137345220D01*
X136835013Y-137364421D01*
X136823578Y-137382589D01*
X136810417Y-137399548D01*
X136795657Y-137415136D01*
X136779440Y-137429202D01*
X136761922Y-137441611D01*
X136743273Y-137452243D01*
X136723671Y-137460996D01*
X136703306Y-137467785D01*
X136682374Y-137472546D01*
X136251521Y-137548518D01*
X136230223Y-137551204D01*
X136208763Y-137551789D01*
X136187350Y-137550268D01*
X136166189Y-137546656D01*
X136145484Y-137540987D01*
X136125435Y-137533316D01*
X136106233Y-137523716D01*
X136088066Y-137512281D01*
X136071106Y-137499120D01*
X136055518Y-137484360D01*
X136041452Y-137468143D01*
X136029043Y-137450626D01*
X136018411Y-137431976D01*
X136009658Y-137412375D01*
X136002869Y-137392010D01*
X135998108Y-137371077D01*
X135909113Y-136866363D01*
X135906427Y-136845064D01*
X135905842Y-136823605D01*
X135907363Y-136802192D01*
X135910975Y-136781031D01*
X135916644Y-136760326D01*
X135924316Y-136740276D01*
X135933915Y-136721075D01*
X135945350Y-136702907D01*
X135958511Y-136685948D01*
X135973271Y-136670360D01*
X135989488Y-136656294D01*
X136007006Y-136643885D01*
X136025655Y-136633253D01*
X136045257Y-136624500D01*
X136065622Y-136617711D01*
X136086554Y-136612950D01*
X136517407Y-136536978D01*
X136538705Y-136534292D01*
X136560165Y-136533707D01*
X136581578Y-136535228D01*
X136581578Y-136535228D01*
G37*
D11*
X136384464Y-137042748D03*
D10*
G36*
X138132650Y-136261732D02*
G01*
X138153811Y-136265344D01*
X138174516Y-136271013D01*
X138194565Y-136278684D01*
X138213767Y-136288284D01*
X138231934Y-136299719D01*
X138248894Y-136312880D01*
X138264482Y-136327640D01*
X138278548Y-136343857D01*
X138290957Y-136361374D01*
X138301589Y-136380024D01*
X138310342Y-136399625D01*
X138317131Y-136419990D01*
X138321892Y-136440923D01*
X138410887Y-136945637D01*
X138413573Y-136966936D01*
X138414158Y-136988395D01*
X138412637Y-137009808D01*
X138409025Y-137030969D01*
X138403356Y-137051674D01*
X138395684Y-137071724D01*
X138386085Y-137090925D01*
X138374650Y-137109093D01*
X138361489Y-137126052D01*
X138346729Y-137141640D01*
X138330512Y-137155706D01*
X138312994Y-137168115D01*
X138294345Y-137178747D01*
X138274743Y-137187500D01*
X138254378Y-137194289D01*
X138233446Y-137199050D01*
X137802593Y-137275022D01*
X137781295Y-137277708D01*
X137759835Y-137278293D01*
X137738422Y-137276772D01*
X137717261Y-137273160D01*
X137696556Y-137267491D01*
X137676507Y-137259820D01*
X137657305Y-137250220D01*
X137639138Y-137238785D01*
X137622178Y-137225624D01*
X137606590Y-137210864D01*
X137592524Y-137194647D01*
X137580115Y-137177130D01*
X137569483Y-137158480D01*
X137560730Y-137138879D01*
X137553941Y-137118514D01*
X137549180Y-137097581D01*
X137460185Y-136592867D01*
X137457499Y-136571568D01*
X137456914Y-136550109D01*
X137458435Y-136528696D01*
X137462047Y-136507535D01*
X137467716Y-136486830D01*
X137475388Y-136466780D01*
X137484987Y-136447579D01*
X137496422Y-136429411D01*
X137509583Y-136412452D01*
X137524343Y-136396864D01*
X137540560Y-136382798D01*
X137558078Y-136370389D01*
X137576727Y-136359757D01*
X137596329Y-136351004D01*
X137616694Y-136344215D01*
X137637626Y-136339454D01*
X138068479Y-136263482D01*
X138089777Y-136260796D01*
X138111237Y-136260211D01*
X138132650Y-136261732D01*
X138132650Y-136261732D01*
G37*
D11*
X137935536Y-136769252D03*
D10*
G36*
X115085691Y-136495053D02*
G01*
X115106926Y-136498203D01*
X115127750Y-136503419D01*
X115147962Y-136510651D01*
X115167368Y-136519830D01*
X115185781Y-136530866D01*
X115203024Y-136543654D01*
X115218930Y-136558070D01*
X115233346Y-136573976D01*
X115246134Y-136591219D01*
X115257170Y-136609632D01*
X115266349Y-136629038D01*
X115273581Y-136649250D01*
X115278797Y-136670074D01*
X115281947Y-136691309D01*
X115283000Y-136712750D01*
X115283000Y-137150250D01*
X115281947Y-137171691D01*
X115278797Y-137192926D01*
X115273581Y-137213750D01*
X115266349Y-137233962D01*
X115257170Y-137253368D01*
X115246134Y-137271781D01*
X115233346Y-137289024D01*
X115218930Y-137304930D01*
X115203024Y-137319346D01*
X115185781Y-137332134D01*
X115167368Y-137343170D01*
X115147962Y-137352349D01*
X115127750Y-137359581D01*
X115106926Y-137364797D01*
X115085691Y-137367947D01*
X115064250Y-137369000D01*
X114551750Y-137369000D01*
X114530309Y-137367947D01*
X114509074Y-137364797D01*
X114488250Y-137359581D01*
X114468038Y-137352349D01*
X114448632Y-137343170D01*
X114430219Y-137332134D01*
X114412976Y-137319346D01*
X114397070Y-137304930D01*
X114382654Y-137289024D01*
X114369866Y-137271781D01*
X114358830Y-137253368D01*
X114349651Y-137233962D01*
X114342419Y-137213750D01*
X114337203Y-137192926D01*
X114334053Y-137171691D01*
X114333000Y-137150250D01*
X114333000Y-136712750D01*
X114334053Y-136691309D01*
X114337203Y-136670074D01*
X114342419Y-136649250D01*
X114349651Y-136629038D01*
X114358830Y-136609632D01*
X114369866Y-136591219D01*
X114382654Y-136573976D01*
X114397070Y-136558070D01*
X114412976Y-136543654D01*
X114430219Y-136530866D01*
X114448632Y-136519830D01*
X114468038Y-136510651D01*
X114488250Y-136503419D01*
X114509074Y-136498203D01*
X114530309Y-136495053D01*
X114551750Y-136494000D01*
X115064250Y-136494000D01*
X115085691Y-136495053D01*
X115085691Y-136495053D01*
G37*
D11*
X114808000Y-136931500D03*
D10*
G36*
X115085691Y-134920053D02*
G01*
X115106926Y-134923203D01*
X115127750Y-134928419D01*
X115147962Y-134935651D01*
X115167368Y-134944830D01*
X115185781Y-134955866D01*
X115203024Y-134968654D01*
X115218930Y-134983070D01*
X115233346Y-134998976D01*
X115246134Y-135016219D01*
X115257170Y-135034632D01*
X115266349Y-135054038D01*
X115273581Y-135074250D01*
X115278797Y-135095074D01*
X115281947Y-135116309D01*
X115283000Y-135137750D01*
X115283000Y-135575250D01*
X115281947Y-135596691D01*
X115278797Y-135617926D01*
X115273581Y-135638750D01*
X115266349Y-135658962D01*
X115257170Y-135678368D01*
X115246134Y-135696781D01*
X115233346Y-135714024D01*
X115218930Y-135729930D01*
X115203024Y-135744346D01*
X115185781Y-135757134D01*
X115167368Y-135768170D01*
X115147962Y-135777349D01*
X115127750Y-135784581D01*
X115106926Y-135789797D01*
X115085691Y-135792947D01*
X115064250Y-135794000D01*
X114551750Y-135794000D01*
X114530309Y-135792947D01*
X114509074Y-135789797D01*
X114488250Y-135784581D01*
X114468038Y-135777349D01*
X114448632Y-135768170D01*
X114430219Y-135757134D01*
X114412976Y-135744346D01*
X114397070Y-135729930D01*
X114382654Y-135714024D01*
X114369866Y-135696781D01*
X114358830Y-135678368D01*
X114349651Y-135658962D01*
X114342419Y-135638750D01*
X114337203Y-135617926D01*
X114334053Y-135596691D01*
X114333000Y-135575250D01*
X114333000Y-135137750D01*
X114334053Y-135116309D01*
X114337203Y-135095074D01*
X114342419Y-135074250D01*
X114349651Y-135054038D01*
X114358830Y-135034632D01*
X114369866Y-135016219D01*
X114382654Y-134998976D01*
X114397070Y-134983070D01*
X114412976Y-134968654D01*
X114430219Y-134955866D01*
X114448632Y-134944830D01*
X114468038Y-134935651D01*
X114488250Y-134928419D01*
X114509074Y-134923203D01*
X114530309Y-134920053D01*
X114551750Y-134919000D01*
X115064250Y-134919000D01*
X115085691Y-134920053D01*
X115085691Y-134920053D01*
G37*
D11*
X114808000Y-135356500D03*
D10*
G36*
X116609691Y-136495053D02*
G01*
X116630926Y-136498203D01*
X116651750Y-136503419D01*
X116671962Y-136510651D01*
X116691368Y-136519830D01*
X116709781Y-136530866D01*
X116727024Y-136543654D01*
X116742930Y-136558070D01*
X116757346Y-136573976D01*
X116770134Y-136591219D01*
X116781170Y-136609632D01*
X116790349Y-136629038D01*
X116797581Y-136649250D01*
X116802797Y-136670074D01*
X116805947Y-136691309D01*
X116807000Y-136712750D01*
X116807000Y-137150250D01*
X116805947Y-137171691D01*
X116802797Y-137192926D01*
X116797581Y-137213750D01*
X116790349Y-137233962D01*
X116781170Y-137253368D01*
X116770134Y-137271781D01*
X116757346Y-137289024D01*
X116742930Y-137304930D01*
X116727024Y-137319346D01*
X116709781Y-137332134D01*
X116691368Y-137343170D01*
X116671962Y-137352349D01*
X116651750Y-137359581D01*
X116630926Y-137364797D01*
X116609691Y-137367947D01*
X116588250Y-137369000D01*
X116075750Y-137369000D01*
X116054309Y-137367947D01*
X116033074Y-137364797D01*
X116012250Y-137359581D01*
X115992038Y-137352349D01*
X115972632Y-137343170D01*
X115954219Y-137332134D01*
X115936976Y-137319346D01*
X115921070Y-137304930D01*
X115906654Y-137289024D01*
X115893866Y-137271781D01*
X115882830Y-137253368D01*
X115873651Y-137233962D01*
X115866419Y-137213750D01*
X115861203Y-137192926D01*
X115858053Y-137171691D01*
X115857000Y-137150250D01*
X115857000Y-136712750D01*
X115858053Y-136691309D01*
X115861203Y-136670074D01*
X115866419Y-136649250D01*
X115873651Y-136629038D01*
X115882830Y-136609632D01*
X115893866Y-136591219D01*
X115906654Y-136573976D01*
X115921070Y-136558070D01*
X115936976Y-136543654D01*
X115954219Y-136530866D01*
X115972632Y-136519830D01*
X115992038Y-136510651D01*
X116012250Y-136503419D01*
X116033074Y-136498203D01*
X116054309Y-136495053D01*
X116075750Y-136494000D01*
X116588250Y-136494000D01*
X116609691Y-136495053D01*
X116609691Y-136495053D01*
G37*
D11*
X116332000Y-136931500D03*
D10*
G36*
X116609691Y-134920053D02*
G01*
X116630926Y-134923203D01*
X116651750Y-134928419D01*
X116671962Y-134935651D01*
X116691368Y-134944830D01*
X116709781Y-134955866D01*
X116727024Y-134968654D01*
X116742930Y-134983070D01*
X116757346Y-134998976D01*
X116770134Y-135016219D01*
X116781170Y-135034632D01*
X116790349Y-135054038D01*
X116797581Y-135074250D01*
X116802797Y-135095074D01*
X116805947Y-135116309D01*
X116807000Y-135137750D01*
X116807000Y-135575250D01*
X116805947Y-135596691D01*
X116802797Y-135617926D01*
X116797581Y-135638750D01*
X116790349Y-135658962D01*
X116781170Y-135678368D01*
X116770134Y-135696781D01*
X116757346Y-135714024D01*
X116742930Y-135729930D01*
X116727024Y-135744346D01*
X116709781Y-135757134D01*
X116691368Y-135768170D01*
X116671962Y-135777349D01*
X116651750Y-135784581D01*
X116630926Y-135789797D01*
X116609691Y-135792947D01*
X116588250Y-135794000D01*
X116075750Y-135794000D01*
X116054309Y-135792947D01*
X116033074Y-135789797D01*
X116012250Y-135784581D01*
X115992038Y-135777349D01*
X115972632Y-135768170D01*
X115954219Y-135757134D01*
X115936976Y-135744346D01*
X115921070Y-135729930D01*
X115906654Y-135714024D01*
X115893866Y-135696781D01*
X115882830Y-135678368D01*
X115873651Y-135658962D01*
X115866419Y-135638750D01*
X115861203Y-135617926D01*
X115858053Y-135596691D01*
X115857000Y-135575250D01*
X115857000Y-135137750D01*
X115858053Y-135116309D01*
X115861203Y-135095074D01*
X115866419Y-135074250D01*
X115873651Y-135054038D01*
X115882830Y-135034632D01*
X115893866Y-135016219D01*
X115906654Y-134998976D01*
X115921070Y-134983070D01*
X115936976Y-134968654D01*
X115954219Y-134955866D01*
X115972632Y-134944830D01*
X115992038Y-134935651D01*
X116012250Y-134928419D01*
X116033074Y-134923203D01*
X116054309Y-134920053D01*
X116075750Y-134919000D01*
X116588250Y-134919000D01*
X116609691Y-134920053D01*
X116609691Y-134920053D01*
G37*
D11*
X116332000Y-135356500D03*
D10*
G36*
X122197691Y-127605053D02*
G01*
X122218926Y-127608203D01*
X122239750Y-127613419D01*
X122259962Y-127620651D01*
X122279368Y-127629830D01*
X122297781Y-127640866D01*
X122315024Y-127653654D01*
X122330930Y-127668070D01*
X122345346Y-127683976D01*
X122358134Y-127701219D01*
X122369170Y-127719632D01*
X122378349Y-127739038D01*
X122385581Y-127759250D01*
X122390797Y-127780074D01*
X122393947Y-127801309D01*
X122395000Y-127822750D01*
X122395000Y-128260250D01*
X122393947Y-128281691D01*
X122390797Y-128302926D01*
X122385581Y-128323750D01*
X122378349Y-128343962D01*
X122369170Y-128363368D01*
X122358134Y-128381781D01*
X122345346Y-128399024D01*
X122330930Y-128414930D01*
X122315024Y-128429346D01*
X122297781Y-128442134D01*
X122279368Y-128453170D01*
X122259962Y-128462349D01*
X122239750Y-128469581D01*
X122218926Y-128474797D01*
X122197691Y-128477947D01*
X122176250Y-128479000D01*
X121663750Y-128479000D01*
X121642309Y-128477947D01*
X121621074Y-128474797D01*
X121600250Y-128469581D01*
X121580038Y-128462349D01*
X121560632Y-128453170D01*
X121542219Y-128442134D01*
X121524976Y-128429346D01*
X121509070Y-128414930D01*
X121494654Y-128399024D01*
X121481866Y-128381781D01*
X121470830Y-128363368D01*
X121461651Y-128343962D01*
X121454419Y-128323750D01*
X121449203Y-128302926D01*
X121446053Y-128281691D01*
X121445000Y-128260250D01*
X121445000Y-127822750D01*
X121446053Y-127801309D01*
X121449203Y-127780074D01*
X121454419Y-127759250D01*
X121461651Y-127739038D01*
X121470830Y-127719632D01*
X121481866Y-127701219D01*
X121494654Y-127683976D01*
X121509070Y-127668070D01*
X121524976Y-127653654D01*
X121542219Y-127640866D01*
X121560632Y-127629830D01*
X121580038Y-127620651D01*
X121600250Y-127613419D01*
X121621074Y-127608203D01*
X121642309Y-127605053D01*
X121663750Y-127604000D01*
X122176250Y-127604000D01*
X122197691Y-127605053D01*
X122197691Y-127605053D01*
G37*
D11*
X121920000Y-128041500D03*
D10*
G36*
X122197691Y-126030053D02*
G01*
X122218926Y-126033203D01*
X122239750Y-126038419D01*
X122259962Y-126045651D01*
X122279368Y-126054830D01*
X122297781Y-126065866D01*
X122315024Y-126078654D01*
X122330930Y-126093070D01*
X122345346Y-126108976D01*
X122358134Y-126126219D01*
X122369170Y-126144632D01*
X122378349Y-126164038D01*
X122385581Y-126184250D01*
X122390797Y-126205074D01*
X122393947Y-126226309D01*
X122395000Y-126247750D01*
X122395000Y-126685250D01*
X122393947Y-126706691D01*
X122390797Y-126727926D01*
X122385581Y-126748750D01*
X122378349Y-126768962D01*
X122369170Y-126788368D01*
X122358134Y-126806781D01*
X122345346Y-126824024D01*
X122330930Y-126839930D01*
X122315024Y-126854346D01*
X122297781Y-126867134D01*
X122279368Y-126878170D01*
X122259962Y-126887349D01*
X122239750Y-126894581D01*
X122218926Y-126899797D01*
X122197691Y-126902947D01*
X122176250Y-126904000D01*
X121663750Y-126904000D01*
X121642309Y-126902947D01*
X121621074Y-126899797D01*
X121600250Y-126894581D01*
X121580038Y-126887349D01*
X121560632Y-126878170D01*
X121542219Y-126867134D01*
X121524976Y-126854346D01*
X121509070Y-126839930D01*
X121494654Y-126824024D01*
X121481866Y-126806781D01*
X121470830Y-126788368D01*
X121461651Y-126768962D01*
X121454419Y-126748750D01*
X121449203Y-126727926D01*
X121446053Y-126706691D01*
X121445000Y-126685250D01*
X121445000Y-126247750D01*
X121446053Y-126226309D01*
X121449203Y-126205074D01*
X121454419Y-126184250D01*
X121461651Y-126164038D01*
X121470830Y-126144632D01*
X121481866Y-126126219D01*
X121494654Y-126108976D01*
X121509070Y-126093070D01*
X121524976Y-126078654D01*
X121542219Y-126065866D01*
X121560632Y-126054830D01*
X121580038Y-126045651D01*
X121600250Y-126038419D01*
X121621074Y-126033203D01*
X121642309Y-126030053D01*
X121663750Y-126029000D01*
X122176250Y-126029000D01*
X122197691Y-126030053D01*
X122197691Y-126030053D01*
G37*
D11*
X121920000Y-126466500D03*
D10*
G36*
X121677691Y-131225053D02*
G01*
X121698926Y-131228203D01*
X121719750Y-131233419D01*
X121739962Y-131240651D01*
X121759368Y-131249830D01*
X121777781Y-131260866D01*
X121795024Y-131273654D01*
X121810930Y-131288070D01*
X121825346Y-131303976D01*
X121838134Y-131321219D01*
X121849170Y-131339632D01*
X121858349Y-131359038D01*
X121865581Y-131379250D01*
X121870797Y-131400074D01*
X121873947Y-131421309D01*
X121875000Y-131442750D01*
X121875000Y-131955250D01*
X121873947Y-131976691D01*
X121870797Y-131997926D01*
X121865581Y-132018750D01*
X121858349Y-132038962D01*
X121849170Y-132058368D01*
X121838134Y-132076781D01*
X121825346Y-132094024D01*
X121810930Y-132109930D01*
X121795024Y-132124346D01*
X121777781Y-132137134D01*
X121759368Y-132148170D01*
X121739962Y-132157349D01*
X121719750Y-132164581D01*
X121698926Y-132169797D01*
X121677691Y-132172947D01*
X121656250Y-132174000D01*
X121218750Y-132174000D01*
X121197309Y-132172947D01*
X121176074Y-132169797D01*
X121155250Y-132164581D01*
X121135038Y-132157349D01*
X121115632Y-132148170D01*
X121097219Y-132137134D01*
X121079976Y-132124346D01*
X121064070Y-132109930D01*
X121049654Y-132094024D01*
X121036866Y-132076781D01*
X121025830Y-132058368D01*
X121016651Y-132038962D01*
X121009419Y-132018750D01*
X121004203Y-131997926D01*
X121001053Y-131976691D01*
X121000000Y-131955250D01*
X121000000Y-131442750D01*
X121001053Y-131421309D01*
X121004203Y-131400074D01*
X121009419Y-131379250D01*
X121016651Y-131359038D01*
X121025830Y-131339632D01*
X121036866Y-131321219D01*
X121049654Y-131303976D01*
X121064070Y-131288070D01*
X121079976Y-131273654D01*
X121097219Y-131260866D01*
X121115632Y-131249830D01*
X121135038Y-131240651D01*
X121155250Y-131233419D01*
X121176074Y-131228203D01*
X121197309Y-131225053D01*
X121218750Y-131224000D01*
X121656250Y-131224000D01*
X121677691Y-131225053D01*
X121677691Y-131225053D01*
G37*
D11*
X121437500Y-131699000D03*
D10*
G36*
X120102691Y-131225053D02*
G01*
X120123926Y-131228203D01*
X120144750Y-131233419D01*
X120164962Y-131240651D01*
X120184368Y-131249830D01*
X120202781Y-131260866D01*
X120220024Y-131273654D01*
X120235930Y-131288070D01*
X120250346Y-131303976D01*
X120263134Y-131321219D01*
X120274170Y-131339632D01*
X120283349Y-131359038D01*
X120290581Y-131379250D01*
X120295797Y-131400074D01*
X120298947Y-131421309D01*
X120300000Y-131442750D01*
X120300000Y-131955250D01*
X120298947Y-131976691D01*
X120295797Y-131997926D01*
X120290581Y-132018750D01*
X120283349Y-132038962D01*
X120274170Y-132058368D01*
X120263134Y-132076781D01*
X120250346Y-132094024D01*
X120235930Y-132109930D01*
X120220024Y-132124346D01*
X120202781Y-132137134D01*
X120184368Y-132148170D01*
X120164962Y-132157349D01*
X120144750Y-132164581D01*
X120123926Y-132169797D01*
X120102691Y-132172947D01*
X120081250Y-132174000D01*
X119643750Y-132174000D01*
X119622309Y-132172947D01*
X119601074Y-132169797D01*
X119580250Y-132164581D01*
X119560038Y-132157349D01*
X119540632Y-132148170D01*
X119522219Y-132137134D01*
X119504976Y-132124346D01*
X119489070Y-132109930D01*
X119474654Y-132094024D01*
X119461866Y-132076781D01*
X119450830Y-132058368D01*
X119441651Y-132038962D01*
X119434419Y-132018750D01*
X119429203Y-131997926D01*
X119426053Y-131976691D01*
X119425000Y-131955250D01*
X119425000Y-131442750D01*
X119426053Y-131421309D01*
X119429203Y-131400074D01*
X119434419Y-131379250D01*
X119441651Y-131359038D01*
X119450830Y-131339632D01*
X119461866Y-131321219D01*
X119474654Y-131303976D01*
X119489070Y-131288070D01*
X119504976Y-131273654D01*
X119522219Y-131260866D01*
X119540632Y-131249830D01*
X119560038Y-131240651D01*
X119580250Y-131233419D01*
X119601074Y-131228203D01*
X119622309Y-131225053D01*
X119643750Y-131224000D01*
X120081250Y-131224000D01*
X120102691Y-131225053D01*
X120102691Y-131225053D01*
G37*
D11*
X119862500Y-131699000D03*
D10*
G36*
X139470191Y-117953553D02*
G01*
X139491426Y-117956703D01*
X139512250Y-117961919D01*
X139532462Y-117969151D01*
X139551868Y-117978330D01*
X139570281Y-117989366D01*
X139587524Y-118002154D01*
X139603430Y-118016570D01*
X139617846Y-118032476D01*
X139630634Y-118049719D01*
X139641670Y-118068132D01*
X139650849Y-118087538D01*
X139658081Y-118107750D01*
X139663297Y-118128574D01*
X139666447Y-118149809D01*
X139667500Y-118171250D01*
X139667500Y-118683750D01*
X139666447Y-118705191D01*
X139663297Y-118726426D01*
X139658081Y-118747250D01*
X139650849Y-118767462D01*
X139641670Y-118786868D01*
X139630634Y-118805281D01*
X139617846Y-118822524D01*
X139603430Y-118838430D01*
X139587524Y-118852846D01*
X139570281Y-118865634D01*
X139551868Y-118876670D01*
X139532462Y-118885849D01*
X139512250Y-118893081D01*
X139491426Y-118898297D01*
X139470191Y-118901447D01*
X139448750Y-118902500D01*
X139011250Y-118902500D01*
X138989809Y-118901447D01*
X138968574Y-118898297D01*
X138947750Y-118893081D01*
X138927538Y-118885849D01*
X138908132Y-118876670D01*
X138889719Y-118865634D01*
X138872476Y-118852846D01*
X138856570Y-118838430D01*
X138842154Y-118822524D01*
X138829366Y-118805281D01*
X138818330Y-118786868D01*
X138809151Y-118767462D01*
X138801919Y-118747250D01*
X138796703Y-118726426D01*
X138793553Y-118705191D01*
X138792500Y-118683750D01*
X138792500Y-118171250D01*
X138793553Y-118149809D01*
X138796703Y-118128574D01*
X138801919Y-118107750D01*
X138809151Y-118087538D01*
X138818330Y-118068132D01*
X138829366Y-118049719D01*
X138842154Y-118032476D01*
X138856570Y-118016570D01*
X138872476Y-118002154D01*
X138889719Y-117989366D01*
X138908132Y-117978330D01*
X138927538Y-117969151D01*
X138947750Y-117961919D01*
X138968574Y-117956703D01*
X138989809Y-117953553D01*
X139011250Y-117952500D01*
X139448750Y-117952500D01*
X139470191Y-117953553D01*
X139470191Y-117953553D01*
G37*
D11*
X139230000Y-118427500D03*
D10*
G36*
X141045191Y-117953553D02*
G01*
X141066426Y-117956703D01*
X141087250Y-117961919D01*
X141107462Y-117969151D01*
X141126868Y-117978330D01*
X141145281Y-117989366D01*
X141162524Y-118002154D01*
X141178430Y-118016570D01*
X141192846Y-118032476D01*
X141205634Y-118049719D01*
X141216670Y-118068132D01*
X141225849Y-118087538D01*
X141233081Y-118107750D01*
X141238297Y-118128574D01*
X141241447Y-118149809D01*
X141242500Y-118171250D01*
X141242500Y-118683750D01*
X141241447Y-118705191D01*
X141238297Y-118726426D01*
X141233081Y-118747250D01*
X141225849Y-118767462D01*
X141216670Y-118786868D01*
X141205634Y-118805281D01*
X141192846Y-118822524D01*
X141178430Y-118838430D01*
X141162524Y-118852846D01*
X141145281Y-118865634D01*
X141126868Y-118876670D01*
X141107462Y-118885849D01*
X141087250Y-118893081D01*
X141066426Y-118898297D01*
X141045191Y-118901447D01*
X141023750Y-118902500D01*
X140586250Y-118902500D01*
X140564809Y-118901447D01*
X140543574Y-118898297D01*
X140522750Y-118893081D01*
X140502538Y-118885849D01*
X140483132Y-118876670D01*
X140464719Y-118865634D01*
X140447476Y-118852846D01*
X140431570Y-118838430D01*
X140417154Y-118822524D01*
X140404366Y-118805281D01*
X140393330Y-118786868D01*
X140384151Y-118767462D01*
X140376919Y-118747250D01*
X140371703Y-118726426D01*
X140368553Y-118705191D01*
X140367500Y-118683750D01*
X140367500Y-118171250D01*
X140368553Y-118149809D01*
X140371703Y-118128574D01*
X140376919Y-118107750D01*
X140384151Y-118087538D01*
X140393330Y-118068132D01*
X140404366Y-118049719D01*
X140417154Y-118032476D01*
X140431570Y-118016570D01*
X140447476Y-118002154D01*
X140464719Y-117989366D01*
X140483132Y-117978330D01*
X140502538Y-117969151D01*
X140522750Y-117961919D01*
X140543574Y-117956703D01*
X140564809Y-117953553D01*
X140586250Y-117952500D01*
X141023750Y-117952500D01*
X141045191Y-117953553D01*
X141045191Y-117953553D01*
G37*
D11*
X140805000Y-118427500D03*
D10*
G36*
X111402691Y-126411053D02*
G01*
X111423926Y-126414203D01*
X111444750Y-126419419D01*
X111464962Y-126426651D01*
X111484368Y-126435830D01*
X111502781Y-126446866D01*
X111520024Y-126459654D01*
X111535930Y-126474070D01*
X111550346Y-126489976D01*
X111563134Y-126507219D01*
X111574170Y-126525632D01*
X111583349Y-126545038D01*
X111590581Y-126565250D01*
X111595797Y-126586074D01*
X111598947Y-126607309D01*
X111600000Y-126628750D01*
X111600000Y-127066250D01*
X111598947Y-127087691D01*
X111595797Y-127108926D01*
X111590581Y-127129750D01*
X111583349Y-127149962D01*
X111574170Y-127169368D01*
X111563134Y-127187781D01*
X111550346Y-127205024D01*
X111535930Y-127220930D01*
X111520024Y-127235346D01*
X111502781Y-127248134D01*
X111484368Y-127259170D01*
X111464962Y-127268349D01*
X111444750Y-127275581D01*
X111423926Y-127280797D01*
X111402691Y-127283947D01*
X111381250Y-127285000D01*
X110868750Y-127285000D01*
X110847309Y-127283947D01*
X110826074Y-127280797D01*
X110805250Y-127275581D01*
X110785038Y-127268349D01*
X110765632Y-127259170D01*
X110747219Y-127248134D01*
X110729976Y-127235346D01*
X110714070Y-127220930D01*
X110699654Y-127205024D01*
X110686866Y-127187781D01*
X110675830Y-127169368D01*
X110666651Y-127149962D01*
X110659419Y-127129750D01*
X110654203Y-127108926D01*
X110651053Y-127087691D01*
X110650000Y-127066250D01*
X110650000Y-126628750D01*
X110651053Y-126607309D01*
X110654203Y-126586074D01*
X110659419Y-126565250D01*
X110666651Y-126545038D01*
X110675830Y-126525632D01*
X110686866Y-126507219D01*
X110699654Y-126489976D01*
X110714070Y-126474070D01*
X110729976Y-126459654D01*
X110747219Y-126446866D01*
X110765632Y-126435830D01*
X110785038Y-126426651D01*
X110805250Y-126419419D01*
X110826074Y-126414203D01*
X110847309Y-126411053D01*
X110868750Y-126410000D01*
X111381250Y-126410000D01*
X111402691Y-126411053D01*
X111402691Y-126411053D01*
G37*
D11*
X111125000Y-126847500D03*
D10*
G36*
X111402691Y-127986053D02*
G01*
X111423926Y-127989203D01*
X111444750Y-127994419D01*
X111464962Y-128001651D01*
X111484368Y-128010830D01*
X111502781Y-128021866D01*
X111520024Y-128034654D01*
X111535930Y-128049070D01*
X111550346Y-128064976D01*
X111563134Y-128082219D01*
X111574170Y-128100632D01*
X111583349Y-128120038D01*
X111590581Y-128140250D01*
X111595797Y-128161074D01*
X111598947Y-128182309D01*
X111600000Y-128203750D01*
X111600000Y-128641250D01*
X111598947Y-128662691D01*
X111595797Y-128683926D01*
X111590581Y-128704750D01*
X111583349Y-128724962D01*
X111574170Y-128744368D01*
X111563134Y-128762781D01*
X111550346Y-128780024D01*
X111535930Y-128795930D01*
X111520024Y-128810346D01*
X111502781Y-128823134D01*
X111484368Y-128834170D01*
X111464962Y-128843349D01*
X111444750Y-128850581D01*
X111423926Y-128855797D01*
X111402691Y-128858947D01*
X111381250Y-128860000D01*
X110868750Y-128860000D01*
X110847309Y-128858947D01*
X110826074Y-128855797D01*
X110805250Y-128850581D01*
X110785038Y-128843349D01*
X110765632Y-128834170D01*
X110747219Y-128823134D01*
X110729976Y-128810346D01*
X110714070Y-128795930D01*
X110699654Y-128780024D01*
X110686866Y-128762781D01*
X110675830Y-128744368D01*
X110666651Y-128724962D01*
X110659419Y-128704750D01*
X110654203Y-128683926D01*
X110651053Y-128662691D01*
X110650000Y-128641250D01*
X110650000Y-128203750D01*
X110651053Y-128182309D01*
X110654203Y-128161074D01*
X110659419Y-128140250D01*
X110666651Y-128120038D01*
X110675830Y-128100632D01*
X110686866Y-128082219D01*
X110699654Y-128064976D01*
X110714070Y-128049070D01*
X110729976Y-128034654D01*
X110747219Y-128021866D01*
X110765632Y-128010830D01*
X110785038Y-128001651D01*
X110805250Y-127994419D01*
X110826074Y-127989203D01*
X110847309Y-127986053D01*
X110868750Y-127985000D01*
X111381250Y-127985000D01*
X111402691Y-127986053D01*
X111402691Y-127986053D01*
G37*
D11*
X111125000Y-128422500D03*
D10*
G36*
X119149691Y-136444053D02*
G01*
X119170926Y-136447203D01*
X119191750Y-136452419D01*
X119211962Y-136459651D01*
X119231368Y-136468830D01*
X119249781Y-136479866D01*
X119267024Y-136492654D01*
X119282930Y-136507070D01*
X119297346Y-136522976D01*
X119310134Y-136540219D01*
X119321170Y-136558632D01*
X119330349Y-136578038D01*
X119337581Y-136598250D01*
X119342797Y-136619074D01*
X119345947Y-136640309D01*
X119347000Y-136661750D01*
X119347000Y-137099250D01*
X119345947Y-137120691D01*
X119342797Y-137141926D01*
X119337581Y-137162750D01*
X119330349Y-137182962D01*
X119321170Y-137202368D01*
X119310134Y-137220781D01*
X119297346Y-137238024D01*
X119282930Y-137253930D01*
X119267024Y-137268346D01*
X119249781Y-137281134D01*
X119231368Y-137292170D01*
X119211962Y-137301349D01*
X119191750Y-137308581D01*
X119170926Y-137313797D01*
X119149691Y-137316947D01*
X119128250Y-137318000D01*
X118615750Y-137318000D01*
X118594309Y-137316947D01*
X118573074Y-137313797D01*
X118552250Y-137308581D01*
X118532038Y-137301349D01*
X118512632Y-137292170D01*
X118494219Y-137281134D01*
X118476976Y-137268346D01*
X118461070Y-137253930D01*
X118446654Y-137238024D01*
X118433866Y-137220781D01*
X118422830Y-137202368D01*
X118413651Y-137182962D01*
X118406419Y-137162750D01*
X118401203Y-137141926D01*
X118398053Y-137120691D01*
X118397000Y-137099250D01*
X118397000Y-136661750D01*
X118398053Y-136640309D01*
X118401203Y-136619074D01*
X118406419Y-136598250D01*
X118413651Y-136578038D01*
X118422830Y-136558632D01*
X118433866Y-136540219D01*
X118446654Y-136522976D01*
X118461070Y-136507070D01*
X118476976Y-136492654D01*
X118494219Y-136479866D01*
X118512632Y-136468830D01*
X118532038Y-136459651D01*
X118552250Y-136452419D01*
X118573074Y-136447203D01*
X118594309Y-136444053D01*
X118615750Y-136443000D01*
X119128250Y-136443000D01*
X119149691Y-136444053D01*
X119149691Y-136444053D01*
G37*
D11*
X118872000Y-136880500D03*
D10*
G36*
X119149691Y-138019053D02*
G01*
X119170926Y-138022203D01*
X119191750Y-138027419D01*
X119211962Y-138034651D01*
X119231368Y-138043830D01*
X119249781Y-138054866D01*
X119267024Y-138067654D01*
X119282930Y-138082070D01*
X119297346Y-138097976D01*
X119310134Y-138115219D01*
X119321170Y-138133632D01*
X119330349Y-138153038D01*
X119337581Y-138173250D01*
X119342797Y-138194074D01*
X119345947Y-138215309D01*
X119347000Y-138236750D01*
X119347000Y-138674250D01*
X119345947Y-138695691D01*
X119342797Y-138716926D01*
X119337581Y-138737750D01*
X119330349Y-138757962D01*
X119321170Y-138777368D01*
X119310134Y-138795781D01*
X119297346Y-138813024D01*
X119282930Y-138828930D01*
X119267024Y-138843346D01*
X119249781Y-138856134D01*
X119231368Y-138867170D01*
X119211962Y-138876349D01*
X119191750Y-138883581D01*
X119170926Y-138888797D01*
X119149691Y-138891947D01*
X119128250Y-138893000D01*
X118615750Y-138893000D01*
X118594309Y-138891947D01*
X118573074Y-138888797D01*
X118552250Y-138883581D01*
X118532038Y-138876349D01*
X118512632Y-138867170D01*
X118494219Y-138856134D01*
X118476976Y-138843346D01*
X118461070Y-138828930D01*
X118446654Y-138813024D01*
X118433866Y-138795781D01*
X118422830Y-138777368D01*
X118413651Y-138757962D01*
X118406419Y-138737750D01*
X118401203Y-138716926D01*
X118398053Y-138695691D01*
X118397000Y-138674250D01*
X118397000Y-138236750D01*
X118398053Y-138215309D01*
X118401203Y-138194074D01*
X118406419Y-138173250D01*
X118413651Y-138153038D01*
X118422830Y-138133632D01*
X118433866Y-138115219D01*
X118446654Y-138097976D01*
X118461070Y-138082070D01*
X118476976Y-138067654D01*
X118494219Y-138054866D01*
X118512632Y-138043830D01*
X118532038Y-138034651D01*
X118552250Y-138027419D01*
X118573074Y-138022203D01*
X118594309Y-138019053D01*
X118615750Y-138018000D01*
X119128250Y-138018000D01*
X119149691Y-138019053D01*
X119149691Y-138019053D01*
G37*
D11*
X118872000Y-138455500D03*
D10*
G36*
X132294691Y-117890053D02*
G01*
X132315926Y-117893203D01*
X132336750Y-117898419D01*
X132356962Y-117905651D01*
X132376368Y-117914830D01*
X132394781Y-117925866D01*
X132412024Y-117938654D01*
X132427930Y-117953070D01*
X132442346Y-117968976D01*
X132455134Y-117986219D01*
X132466170Y-118004632D01*
X132475349Y-118024038D01*
X132482581Y-118044250D01*
X132487797Y-118065074D01*
X132490947Y-118086309D01*
X132492000Y-118107750D01*
X132492000Y-118620250D01*
X132490947Y-118641691D01*
X132487797Y-118662926D01*
X132482581Y-118683750D01*
X132475349Y-118703962D01*
X132466170Y-118723368D01*
X132455134Y-118741781D01*
X132442346Y-118759024D01*
X132427930Y-118774930D01*
X132412024Y-118789346D01*
X132394781Y-118802134D01*
X132376368Y-118813170D01*
X132356962Y-118822349D01*
X132336750Y-118829581D01*
X132315926Y-118834797D01*
X132294691Y-118837947D01*
X132273250Y-118839000D01*
X131835750Y-118839000D01*
X131814309Y-118837947D01*
X131793074Y-118834797D01*
X131772250Y-118829581D01*
X131752038Y-118822349D01*
X131732632Y-118813170D01*
X131714219Y-118802134D01*
X131696976Y-118789346D01*
X131681070Y-118774930D01*
X131666654Y-118759024D01*
X131653866Y-118741781D01*
X131642830Y-118723368D01*
X131633651Y-118703962D01*
X131626419Y-118683750D01*
X131621203Y-118662926D01*
X131618053Y-118641691D01*
X131617000Y-118620250D01*
X131617000Y-118107750D01*
X131618053Y-118086309D01*
X131621203Y-118065074D01*
X131626419Y-118044250D01*
X131633651Y-118024038D01*
X131642830Y-118004632D01*
X131653866Y-117986219D01*
X131666654Y-117968976D01*
X131681070Y-117953070D01*
X131696976Y-117938654D01*
X131714219Y-117925866D01*
X131732632Y-117914830D01*
X131752038Y-117905651D01*
X131772250Y-117898419D01*
X131793074Y-117893203D01*
X131814309Y-117890053D01*
X131835750Y-117889000D01*
X132273250Y-117889000D01*
X132294691Y-117890053D01*
X132294691Y-117890053D01*
G37*
D11*
X132054500Y-118364000D03*
D10*
G36*
X133869691Y-117890053D02*
G01*
X133890926Y-117893203D01*
X133911750Y-117898419D01*
X133931962Y-117905651D01*
X133951368Y-117914830D01*
X133969781Y-117925866D01*
X133987024Y-117938654D01*
X134002930Y-117953070D01*
X134017346Y-117968976D01*
X134030134Y-117986219D01*
X134041170Y-118004632D01*
X134050349Y-118024038D01*
X134057581Y-118044250D01*
X134062797Y-118065074D01*
X134065947Y-118086309D01*
X134067000Y-118107750D01*
X134067000Y-118620250D01*
X134065947Y-118641691D01*
X134062797Y-118662926D01*
X134057581Y-118683750D01*
X134050349Y-118703962D01*
X134041170Y-118723368D01*
X134030134Y-118741781D01*
X134017346Y-118759024D01*
X134002930Y-118774930D01*
X133987024Y-118789346D01*
X133969781Y-118802134D01*
X133951368Y-118813170D01*
X133931962Y-118822349D01*
X133911750Y-118829581D01*
X133890926Y-118834797D01*
X133869691Y-118837947D01*
X133848250Y-118839000D01*
X133410750Y-118839000D01*
X133389309Y-118837947D01*
X133368074Y-118834797D01*
X133347250Y-118829581D01*
X133327038Y-118822349D01*
X133307632Y-118813170D01*
X133289219Y-118802134D01*
X133271976Y-118789346D01*
X133256070Y-118774930D01*
X133241654Y-118759024D01*
X133228866Y-118741781D01*
X133217830Y-118723368D01*
X133208651Y-118703962D01*
X133201419Y-118683750D01*
X133196203Y-118662926D01*
X133193053Y-118641691D01*
X133192000Y-118620250D01*
X133192000Y-118107750D01*
X133193053Y-118086309D01*
X133196203Y-118065074D01*
X133201419Y-118044250D01*
X133208651Y-118024038D01*
X133217830Y-118004632D01*
X133228866Y-117986219D01*
X133241654Y-117968976D01*
X133256070Y-117953070D01*
X133271976Y-117938654D01*
X133289219Y-117925866D01*
X133307632Y-117914830D01*
X133327038Y-117905651D01*
X133347250Y-117898419D01*
X133368074Y-117893203D01*
X133389309Y-117890053D01*
X133410750Y-117889000D01*
X133848250Y-117889000D01*
X133869691Y-117890053D01*
X133869691Y-117890053D01*
G37*
D11*
X133629500Y-118364000D03*
D12*
X138356531Y-133886297D03*
D10*
G36*
X136927666Y-135356756D02*
G01*
X136510910Y-132993218D01*
X139785396Y-132415838D01*
X140202152Y-134779376D01*
X136927666Y-135356756D01*
X136927666Y-135356756D01*
G37*
D12*
X132915469Y-134845703D03*
D10*
G36*
X131486604Y-136316162D02*
G01*
X131069848Y-133952624D01*
X134344334Y-133375244D01*
X134761090Y-135738782D01*
X131486604Y-136316162D01*
X131486604Y-136316162D01*
G37*
D13*
X142240000Y-120649000D03*
X140970000Y-120649000D03*
X139700000Y-120649000D03*
X138430000Y-120649000D03*
X137160000Y-120649000D03*
X135890000Y-120649000D03*
X134620000Y-120649000D03*
X133350000Y-120649000D03*
X132080000Y-120649000D03*
X132080000Y-130049000D03*
X133350000Y-130049000D03*
X134620000Y-130049000D03*
X135890000Y-130049000D03*
X137160000Y-130049000D03*
X138430000Y-130049000D03*
X139700000Y-130049000D03*
X140970000Y-130049000D03*
X142240000Y-130049000D03*
D14*
X115400000Y-131865000D03*
X113200000Y-131865000D03*
X113200000Y-133565000D03*
X115400000Y-133565000D03*
D15*
X116649500Y-119881500D03*
X116649500Y-118681500D03*
X116649500Y-117481500D03*
D16*
X128524000Y-137355600D03*
X127254000Y-137355600D03*
X125984000Y-137355600D03*
X124714000Y-137355600D03*
X124714000Y-142755600D03*
X125984000Y-142755600D03*
X127254000Y-142755600D03*
X128524000Y-142755600D03*
D17*
X129950000Y-128950000D03*
X129950000Y-128300000D03*
X129950000Y-127650000D03*
X129950000Y-127000000D03*
X129950000Y-126350000D03*
X129950000Y-125700000D03*
X129950000Y-125050000D03*
X124050000Y-125050000D03*
X124050000Y-125700000D03*
X124050000Y-126350000D03*
X124050000Y-127000000D03*
X124050000Y-127650000D03*
X124050000Y-128300000D03*
X124050000Y-128950000D03*
D18*
X114140000Y-129286000D03*
X114140000Y-128016000D03*
X114140000Y-126746000D03*
X114140000Y-125476000D03*
X114140000Y-124206000D03*
X114140000Y-122936000D03*
X114140000Y-121666000D03*
X119540000Y-121666000D03*
X119540000Y-122936000D03*
X119540000Y-124206000D03*
X119540000Y-125476000D03*
X119540000Y-126746000D03*
X119540000Y-128016000D03*
X119540000Y-129286000D03*
D19*
X121416500Y-118306500D03*
X121416500Y-117506500D03*
X121416500Y-116706500D03*
X121416500Y-115906500D03*
X121416500Y-115106500D03*
X121416500Y-114306500D03*
X121416500Y-113506500D03*
X121416500Y-112706500D03*
D20*
X122866500Y-111256500D03*
X123666500Y-111256500D03*
X124466500Y-111256500D03*
X125266500Y-111256500D03*
X126066500Y-111256500D03*
X126866500Y-111256500D03*
X127666500Y-111256500D03*
X128466500Y-111256500D03*
D19*
X129916500Y-112706500D03*
X129916500Y-113506500D03*
X129916500Y-114306500D03*
X129916500Y-115106500D03*
X129916500Y-115906500D03*
X129916500Y-116706500D03*
X129916500Y-117506500D03*
X129916500Y-118306500D03*
D20*
X128466500Y-119756500D03*
X127666500Y-119756500D03*
X126866500Y-119756500D03*
X126066500Y-119756500D03*
X125266500Y-119756500D03*
X124466500Y-119756500D03*
X123666500Y-119756500D03*
X122866500Y-119756500D03*
M02*
