G04 #@! TF.GenerationSoftware,KiCad,Pcbnew,(5.1.2)-2*
G04 #@! TF.CreationDate,2019-08-10T01:37:27-04:00*
G04 #@! TF.ProjectId,toyota-angle-sensor,746f796f-7461-42d6-916e-676c652d7365,rev?*
G04 #@! TF.SameCoordinates,Original*
G04 #@! TF.FileFunction,Copper,L1,Top*
G04 #@! TF.FilePolarity,Positive*
%FSLAX46Y46*%
G04 Gerber Fmt 4.6, Leading zero omitted, Abs format (unit mm)*
G04 Created by KiCad (PCBNEW (5.1.2)-2) date 2019-08-10 01:37:27*
%MOMM*%
%LPD*%
G04 APERTURE LIST*
%ADD10C,1.500000*%
%ADD11R,1.500000X1.500000*%
%ADD12C,2.400000*%
%ADD13C,0.100000*%
%ADD14R,1.500000X2.000000*%
%ADD15R,3.800000X2.000000*%
%ADD16C,0.590000*%
%ADD17O,1.700000X1.700000*%
%ADD18R,1.700000X1.700000*%
%ADD19C,0.975000*%
%ADD20C,1.250000*%
%ADD21C,0.800000*%
%ADD22C,1.500000*%
%ADD23C,0.250000*%
%ADD24C,0.254000*%
G04 APERTURE END LIST*
D10*
X131470400Y-132346700D03*
X130200400Y-134886700D03*
X128930400Y-132346700D03*
X127660400Y-134886700D03*
X126390400Y-132346700D03*
X125120400Y-134886700D03*
X123850400Y-132346700D03*
D11*
X122580400Y-134886700D03*
D12*
X141081250Y-131719605D03*
D13*
G36*
X141289230Y-133759372D02*
G01*
X139210770Y-132559372D01*
X140873270Y-129679838D01*
X142951730Y-130879838D01*
X141289230Y-133759372D01*
X141289230Y-133759372D01*
G37*
D12*
X138318750Y-136504395D03*
D13*
G36*
X138526730Y-138544162D02*
G01*
X136448270Y-137344162D01*
X138110770Y-134464628D01*
X140189230Y-135664628D01*
X138526730Y-138544162D01*
X138526730Y-138544162D01*
G37*
D14*
X121855200Y-128016400D03*
X126455200Y-128016400D03*
X124155200Y-128016400D03*
D15*
X124155200Y-121716400D03*
D13*
G36*
X133790958Y-126474710D02*
G01*
X133805276Y-126476834D01*
X133819317Y-126480351D01*
X133832946Y-126485228D01*
X133846031Y-126491417D01*
X133858447Y-126498858D01*
X133870073Y-126507481D01*
X133880798Y-126517202D01*
X133890519Y-126527927D01*
X133899142Y-126539553D01*
X133906583Y-126551969D01*
X133912772Y-126565054D01*
X133917649Y-126578683D01*
X133921166Y-126592724D01*
X133923290Y-126607042D01*
X133924000Y-126621500D01*
X133924000Y-126916500D01*
X133923290Y-126930958D01*
X133921166Y-126945276D01*
X133917649Y-126959317D01*
X133912772Y-126972946D01*
X133906583Y-126986031D01*
X133899142Y-126998447D01*
X133890519Y-127010073D01*
X133880798Y-127020798D01*
X133870073Y-127030519D01*
X133858447Y-127039142D01*
X133846031Y-127046583D01*
X133832946Y-127052772D01*
X133819317Y-127057649D01*
X133805276Y-127061166D01*
X133790958Y-127063290D01*
X133776500Y-127064000D01*
X133431500Y-127064000D01*
X133417042Y-127063290D01*
X133402724Y-127061166D01*
X133388683Y-127057649D01*
X133375054Y-127052772D01*
X133361969Y-127046583D01*
X133349553Y-127039142D01*
X133337927Y-127030519D01*
X133327202Y-127020798D01*
X133317481Y-127010073D01*
X133308858Y-126998447D01*
X133301417Y-126986031D01*
X133295228Y-126972946D01*
X133290351Y-126959317D01*
X133286834Y-126945276D01*
X133284710Y-126930958D01*
X133284000Y-126916500D01*
X133284000Y-126621500D01*
X133284710Y-126607042D01*
X133286834Y-126592724D01*
X133290351Y-126578683D01*
X133295228Y-126565054D01*
X133301417Y-126551969D01*
X133308858Y-126539553D01*
X133317481Y-126527927D01*
X133327202Y-126517202D01*
X133337927Y-126507481D01*
X133349553Y-126498858D01*
X133361969Y-126491417D01*
X133375054Y-126485228D01*
X133388683Y-126480351D01*
X133402724Y-126476834D01*
X133417042Y-126474710D01*
X133431500Y-126474000D01*
X133776500Y-126474000D01*
X133790958Y-126474710D01*
X133790958Y-126474710D01*
G37*
D16*
X133604000Y-126769000D03*
D13*
G36*
X133790958Y-127444710D02*
G01*
X133805276Y-127446834D01*
X133819317Y-127450351D01*
X133832946Y-127455228D01*
X133846031Y-127461417D01*
X133858447Y-127468858D01*
X133870073Y-127477481D01*
X133880798Y-127487202D01*
X133890519Y-127497927D01*
X133899142Y-127509553D01*
X133906583Y-127521969D01*
X133912772Y-127535054D01*
X133917649Y-127548683D01*
X133921166Y-127562724D01*
X133923290Y-127577042D01*
X133924000Y-127591500D01*
X133924000Y-127886500D01*
X133923290Y-127900958D01*
X133921166Y-127915276D01*
X133917649Y-127929317D01*
X133912772Y-127942946D01*
X133906583Y-127956031D01*
X133899142Y-127968447D01*
X133890519Y-127980073D01*
X133880798Y-127990798D01*
X133870073Y-128000519D01*
X133858447Y-128009142D01*
X133846031Y-128016583D01*
X133832946Y-128022772D01*
X133819317Y-128027649D01*
X133805276Y-128031166D01*
X133790958Y-128033290D01*
X133776500Y-128034000D01*
X133431500Y-128034000D01*
X133417042Y-128033290D01*
X133402724Y-128031166D01*
X133388683Y-128027649D01*
X133375054Y-128022772D01*
X133361969Y-128016583D01*
X133349553Y-128009142D01*
X133337927Y-128000519D01*
X133327202Y-127990798D01*
X133317481Y-127980073D01*
X133308858Y-127968447D01*
X133301417Y-127956031D01*
X133295228Y-127942946D01*
X133290351Y-127929317D01*
X133286834Y-127915276D01*
X133284710Y-127900958D01*
X133284000Y-127886500D01*
X133284000Y-127591500D01*
X133284710Y-127577042D01*
X133286834Y-127562724D01*
X133290351Y-127548683D01*
X133295228Y-127535054D01*
X133301417Y-127521969D01*
X133308858Y-127509553D01*
X133317481Y-127497927D01*
X133327202Y-127487202D01*
X133337927Y-127477481D01*
X133349553Y-127468858D01*
X133361969Y-127461417D01*
X133375054Y-127455228D01*
X133388683Y-127450351D01*
X133402724Y-127446834D01*
X133417042Y-127444710D01*
X133431500Y-127444000D01*
X133776500Y-127444000D01*
X133790958Y-127444710D01*
X133790958Y-127444710D01*
G37*
D16*
X133604000Y-127739000D03*
D17*
X136779000Y-126111000D03*
X136779000Y-123571000D03*
X139319000Y-126111000D03*
X139319000Y-123571000D03*
X141859000Y-126111000D03*
D18*
X141859000Y-123571000D03*
D13*
G36*
X137173642Y-128333174D02*
G01*
X137197303Y-128336684D01*
X137220507Y-128342496D01*
X137243029Y-128350554D01*
X137264653Y-128360782D01*
X137285170Y-128373079D01*
X137304383Y-128387329D01*
X137322107Y-128403393D01*
X137338171Y-128421117D01*
X137352421Y-128440330D01*
X137364718Y-128460847D01*
X137374946Y-128482471D01*
X137383004Y-128504993D01*
X137388816Y-128528197D01*
X137392326Y-128551858D01*
X137393500Y-128575750D01*
X137393500Y-129488250D01*
X137392326Y-129512142D01*
X137388816Y-129535803D01*
X137383004Y-129559007D01*
X137374946Y-129581529D01*
X137364718Y-129603153D01*
X137352421Y-129623670D01*
X137338171Y-129642883D01*
X137322107Y-129660607D01*
X137304383Y-129676671D01*
X137285170Y-129690921D01*
X137264653Y-129703218D01*
X137243029Y-129713446D01*
X137220507Y-129721504D01*
X137197303Y-129727316D01*
X137173642Y-129730826D01*
X137149750Y-129732000D01*
X136662250Y-129732000D01*
X136638358Y-129730826D01*
X136614697Y-129727316D01*
X136591493Y-129721504D01*
X136568971Y-129713446D01*
X136547347Y-129703218D01*
X136526830Y-129690921D01*
X136507617Y-129676671D01*
X136489893Y-129660607D01*
X136473829Y-129642883D01*
X136459579Y-129623670D01*
X136447282Y-129603153D01*
X136437054Y-129581529D01*
X136428996Y-129559007D01*
X136423184Y-129535803D01*
X136419674Y-129512142D01*
X136418500Y-129488250D01*
X136418500Y-128575750D01*
X136419674Y-128551858D01*
X136423184Y-128528197D01*
X136428996Y-128504993D01*
X136437054Y-128482471D01*
X136447282Y-128460847D01*
X136459579Y-128440330D01*
X136473829Y-128421117D01*
X136489893Y-128403393D01*
X136507617Y-128387329D01*
X136526830Y-128373079D01*
X136547347Y-128360782D01*
X136568971Y-128350554D01*
X136591493Y-128342496D01*
X136614697Y-128336684D01*
X136638358Y-128333174D01*
X136662250Y-128332000D01*
X137149750Y-128332000D01*
X137173642Y-128333174D01*
X137173642Y-128333174D01*
G37*
D19*
X136906000Y-129032000D03*
D13*
G36*
X135298642Y-128333174D02*
G01*
X135322303Y-128336684D01*
X135345507Y-128342496D01*
X135368029Y-128350554D01*
X135389653Y-128360782D01*
X135410170Y-128373079D01*
X135429383Y-128387329D01*
X135447107Y-128403393D01*
X135463171Y-128421117D01*
X135477421Y-128440330D01*
X135489718Y-128460847D01*
X135499946Y-128482471D01*
X135508004Y-128504993D01*
X135513816Y-128528197D01*
X135517326Y-128551858D01*
X135518500Y-128575750D01*
X135518500Y-129488250D01*
X135517326Y-129512142D01*
X135513816Y-129535803D01*
X135508004Y-129559007D01*
X135499946Y-129581529D01*
X135489718Y-129603153D01*
X135477421Y-129623670D01*
X135463171Y-129642883D01*
X135447107Y-129660607D01*
X135429383Y-129676671D01*
X135410170Y-129690921D01*
X135389653Y-129703218D01*
X135368029Y-129713446D01*
X135345507Y-129721504D01*
X135322303Y-129727316D01*
X135298642Y-129730826D01*
X135274750Y-129732000D01*
X134787250Y-129732000D01*
X134763358Y-129730826D01*
X134739697Y-129727316D01*
X134716493Y-129721504D01*
X134693971Y-129713446D01*
X134672347Y-129703218D01*
X134651830Y-129690921D01*
X134632617Y-129676671D01*
X134614893Y-129660607D01*
X134598829Y-129642883D01*
X134584579Y-129623670D01*
X134572282Y-129603153D01*
X134562054Y-129581529D01*
X134553996Y-129559007D01*
X134548184Y-129535803D01*
X134544674Y-129512142D01*
X134543500Y-129488250D01*
X134543500Y-128575750D01*
X134544674Y-128551858D01*
X134548184Y-128528197D01*
X134553996Y-128504993D01*
X134562054Y-128482471D01*
X134572282Y-128460847D01*
X134584579Y-128440330D01*
X134598829Y-128421117D01*
X134614893Y-128403393D01*
X134632617Y-128387329D01*
X134651830Y-128373079D01*
X134672347Y-128360782D01*
X134693971Y-128350554D01*
X134716493Y-128342496D01*
X134739697Y-128336684D01*
X134763358Y-128333174D01*
X134787250Y-128332000D01*
X135274750Y-128332000D01*
X135298642Y-128333174D01*
X135298642Y-128333174D01*
G37*
D19*
X135031000Y-129032000D03*
D13*
G36*
X117828142Y-138373174D02*
G01*
X117851803Y-138376684D01*
X117875007Y-138382496D01*
X117897529Y-138390554D01*
X117919153Y-138400782D01*
X117939670Y-138413079D01*
X117958883Y-138427329D01*
X117976607Y-138443393D01*
X117992671Y-138461117D01*
X118006921Y-138480330D01*
X118019218Y-138500847D01*
X118029446Y-138522471D01*
X118037504Y-138544993D01*
X118043316Y-138568197D01*
X118046826Y-138591858D01*
X118048000Y-138615750D01*
X118048000Y-139103250D01*
X118046826Y-139127142D01*
X118043316Y-139150803D01*
X118037504Y-139174007D01*
X118029446Y-139196529D01*
X118019218Y-139218153D01*
X118006921Y-139238670D01*
X117992671Y-139257883D01*
X117976607Y-139275607D01*
X117958883Y-139291671D01*
X117939670Y-139305921D01*
X117919153Y-139318218D01*
X117897529Y-139328446D01*
X117875007Y-139336504D01*
X117851803Y-139342316D01*
X117828142Y-139345826D01*
X117804250Y-139347000D01*
X116891750Y-139347000D01*
X116867858Y-139345826D01*
X116844197Y-139342316D01*
X116820993Y-139336504D01*
X116798471Y-139328446D01*
X116776847Y-139318218D01*
X116756330Y-139305921D01*
X116737117Y-139291671D01*
X116719393Y-139275607D01*
X116703329Y-139257883D01*
X116689079Y-139238670D01*
X116676782Y-139218153D01*
X116666554Y-139196529D01*
X116658496Y-139174007D01*
X116652684Y-139150803D01*
X116649174Y-139127142D01*
X116648000Y-139103250D01*
X116648000Y-138615750D01*
X116649174Y-138591858D01*
X116652684Y-138568197D01*
X116658496Y-138544993D01*
X116666554Y-138522471D01*
X116676782Y-138500847D01*
X116689079Y-138480330D01*
X116703329Y-138461117D01*
X116719393Y-138443393D01*
X116737117Y-138427329D01*
X116756330Y-138413079D01*
X116776847Y-138400782D01*
X116798471Y-138390554D01*
X116820993Y-138382496D01*
X116844197Y-138376684D01*
X116867858Y-138373174D01*
X116891750Y-138372000D01*
X117804250Y-138372000D01*
X117828142Y-138373174D01*
X117828142Y-138373174D01*
G37*
D19*
X117348000Y-138859500D03*
D13*
G36*
X117828142Y-136498174D02*
G01*
X117851803Y-136501684D01*
X117875007Y-136507496D01*
X117897529Y-136515554D01*
X117919153Y-136525782D01*
X117939670Y-136538079D01*
X117958883Y-136552329D01*
X117976607Y-136568393D01*
X117992671Y-136586117D01*
X118006921Y-136605330D01*
X118019218Y-136625847D01*
X118029446Y-136647471D01*
X118037504Y-136669993D01*
X118043316Y-136693197D01*
X118046826Y-136716858D01*
X118048000Y-136740750D01*
X118048000Y-137228250D01*
X118046826Y-137252142D01*
X118043316Y-137275803D01*
X118037504Y-137299007D01*
X118029446Y-137321529D01*
X118019218Y-137343153D01*
X118006921Y-137363670D01*
X117992671Y-137382883D01*
X117976607Y-137400607D01*
X117958883Y-137416671D01*
X117939670Y-137430921D01*
X117919153Y-137443218D01*
X117897529Y-137453446D01*
X117875007Y-137461504D01*
X117851803Y-137467316D01*
X117828142Y-137470826D01*
X117804250Y-137472000D01*
X116891750Y-137472000D01*
X116867858Y-137470826D01*
X116844197Y-137467316D01*
X116820993Y-137461504D01*
X116798471Y-137453446D01*
X116776847Y-137443218D01*
X116756330Y-137430921D01*
X116737117Y-137416671D01*
X116719393Y-137400607D01*
X116703329Y-137382883D01*
X116689079Y-137363670D01*
X116676782Y-137343153D01*
X116666554Y-137321529D01*
X116658496Y-137299007D01*
X116652684Y-137275803D01*
X116649174Y-137252142D01*
X116648000Y-137228250D01*
X116648000Y-136740750D01*
X116649174Y-136716858D01*
X116652684Y-136693197D01*
X116658496Y-136669993D01*
X116666554Y-136647471D01*
X116676782Y-136625847D01*
X116689079Y-136605330D01*
X116703329Y-136586117D01*
X116719393Y-136568393D01*
X116737117Y-136552329D01*
X116756330Y-136538079D01*
X116776847Y-136525782D01*
X116798471Y-136515554D01*
X116820993Y-136507496D01*
X116844197Y-136501684D01*
X116867858Y-136498174D01*
X116891750Y-136497000D01*
X117804250Y-136497000D01*
X117828142Y-136498174D01*
X117828142Y-136498174D01*
G37*
D19*
X117348000Y-136984500D03*
D13*
G36*
X119844504Y-126246204D02*
G01*
X119868773Y-126249804D01*
X119892571Y-126255765D01*
X119915671Y-126264030D01*
X119937849Y-126274520D01*
X119958893Y-126287133D01*
X119978598Y-126301747D01*
X119996777Y-126318223D01*
X120013253Y-126336402D01*
X120027867Y-126356107D01*
X120040480Y-126377151D01*
X120050970Y-126399329D01*
X120059235Y-126422429D01*
X120065196Y-126446227D01*
X120068796Y-126470496D01*
X120070000Y-126495000D01*
X120070000Y-127245000D01*
X120068796Y-127269504D01*
X120065196Y-127293773D01*
X120059235Y-127317571D01*
X120050970Y-127340671D01*
X120040480Y-127362849D01*
X120027867Y-127383893D01*
X120013253Y-127403598D01*
X119996777Y-127421777D01*
X119978598Y-127438253D01*
X119958893Y-127452867D01*
X119937849Y-127465480D01*
X119915671Y-127475970D01*
X119892571Y-127484235D01*
X119868773Y-127490196D01*
X119844504Y-127493796D01*
X119820000Y-127495000D01*
X117670000Y-127495000D01*
X117645496Y-127493796D01*
X117621227Y-127490196D01*
X117597429Y-127484235D01*
X117574329Y-127475970D01*
X117552151Y-127465480D01*
X117531107Y-127452867D01*
X117511402Y-127438253D01*
X117493223Y-127421777D01*
X117476747Y-127403598D01*
X117462133Y-127383893D01*
X117449520Y-127362849D01*
X117439030Y-127340671D01*
X117430765Y-127317571D01*
X117424804Y-127293773D01*
X117421204Y-127269504D01*
X117420000Y-127245000D01*
X117420000Y-126495000D01*
X117421204Y-126470496D01*
X117424804Y-126446227D01*
X117430765Y-126422429D01*
X117439030Y-126399329D01*
X117449520Y-126377151D01*
X117462133Y-126356107D01*
X117476747Y-126336402D01*
X117493223Y-126318223D01*
X117511402Y-126301747D01*
X117531107Y-126287133D01*
X117552151Y-126274520D01*
X117574329Y-126264030D01*
X117597429Y-126255765D01*
X117621227Y-126249804D01*
X117645496Y-126246204D01*
X117670000Y-126245000D01*
X119820000Y-126245000D01*
X119844504Y-126246204D01*
X119844504Y-126246204D01*
G37*
D20*
X118745000Y-126870000D03*
D13*
G36*
X119844504Y-129046204D02*
G01*
X119868773Y-129049804D01*
X119892571Y-129055765D01*
X119915671Y-129064030D01*
X119937849Y-129074520D01*
X119958893Y-129087133D01*
X119978598Y-129101747D01*
X119996777Y-129118223D01*
X120013253Y-129136402D01*
X120027867Y-129156107D01*
X120040480Y-129177151D01*
X120050970Y-129199329D01*
X120059235Y-129222429D01*
X120065196Y-129246227D01*
X120068796Y-129270496D01*
X120070000Y-129295000D01*
X120070000Y-130045000D01*
X120068796Y-130069504D01*
X120065196Y-130093773D01*
X120059235Y-130117571D01*
X120050970Y-130140671D01*
X120040480Y-130162849D01*
X120027867Y-130183893D01*
X120013253Y-130203598D01*
X119996777Y-130221777D01*
X119978598Y-130238253D01*
X119958893Y-130252867D01*
X119937849Y-130265480D01*
X119915671Y-130275970D01*
X119892571Y-130284235D01*
X119868773Y-130290196D01*
X119844504Y-130293796D01*
X119820000Y-130295000D01*
X117670000Y-130295000D01*
X117645496Y-130293796D01*
X117621227Y-130290196D01*
X117597429Y-130284235D01*
X117574329Y-130275970D01*
X117552151Y-130265480D01*
X117531107Y-130252867D01*
X117511402Y-130238253D01*
X117493223Y-130221777D01*
X117476747Y-130203598D01*
X117462133Y-130183893D01*
X117449520Y-130162849D01*
X117439030Y-130140671D01*
X117430765Y-130117571D01*
X117424804Y-130093773D01*
X117421204Y-130069504D01*
X117420000Y-130045000D01*
X117420000Y-129295000D01*
X117421204Y-129270496D01*
X117424804Y-129246227D01*
X117430765Y-129222429D01*
X117439030Y-129199329D01*
X117449520Y-129177151D01*
X117462133Y-129156107D01*
X117476747Y-129136402D01*
X117493223Y-129118223D01*
X117511402Y-129101747D01*
X117531107Y-129087133D01*
X117552151Y-129074520D01*
X117574329Y-129064030D01*
X117597429Y-129055765D01*
X117621227Y-129049804D01*
X117645496Y-129046204D01*
X117670000Y-129045000D01*
X119820000Y-129045000D01*
X119844504Y-129046204D01*
X119844504Y-129046204D01*
G37*
D20*
X118745000Y-129670000D03*
D13*
G36*
X132355504Y-126946204D02*
G01*
X132379773Y-126949804D01*
X132403571Y-126955765D01*
X132426671Y-126964030D01*
X132448849Y-126974520D01*
X132469893Y-126987133D01*
X132489598Y-127001747D01*
X132507777Y-127018223D01*
X132524253Y-127036402D01*
X132538867Y-127056107D01*
X132551480Y-127077151D01*
X132561970Y-127099329D01*
X132570235Y-127122429D01*
X132576196Y-127146227D01*
X132579796Y-127170496D01*
X132581000Y-127195000D01*
X132581000Y-129345000D01*
X132579796Y-129369504D01*
X132576196Y-129393773D01*
X132570235Y-129417571D01*
X132561970Y-129440671D01*
X132551480Y-129462849D01*
X132538867Y-129483893D01*
X132524253Y-129503598D01*
X132507777Y-129521777D01*
X132489598Y-129538253D01*
X132469893Y-129552867D01*
X132448849Y-129565480D01*
X132426671Y-129575970D01*
X132403571Y-129584235D01*
X132379773Y-129590196D01*
X132355504Y-129593796D01*
X132331000Y-129595000D01*
X131581000Y-129595000D01*
X131556496Y-129593796D01*
X131532227Y-129590196D01*
X131508429Y-129584235D01*
X131485329Y-129575970D01*
X131463151Y-129565480D01*
X131442107Y-129552867D01*
X131422402Y-129538253D01*
X131404223Y-129521777D01*
X131387747Y-129503598D01*
X131373133Y-129483893D01*
X131360520Y-129462849D01*
X131350030Y-129440671D01*
X131341765Y-129417571D01*
X131335804Y-129393773D01*
X131332204Y-129369504D01*
X131331000Y-129345000D01*
X131331000Y-127195000D01*
X131332204Y-127170496D01*
X131335804Y-127146227D01*
X131341765Y-127122429D01*
X131350030Y-127099329D01*
X131360520Y-127077151D01*
X131373133Y-127056107D01*
X131387747Y-127036402D01*
X131404223Y-127018223D01*
X131422402Y-127001747D01*
X131442107Y-126987133D01*
X131463151Y-126974520D01*
X131485329Y-126964030D01*
X131508429Y-126955765D01*
X131532227Y-126949804D01*
X131556496Y-126946204D01*
X131581000Y-126945000D01*
X132331000Y-126945000D01*
X132355504Y-126946204D01*
X132355504Y-126946204D01*
G37*
D20*
X131956000Y-128270000D03*
D13*
G36*
X129555504Y-126946204D02*
G01*
X129579773Y-126949804D01*
X129603571Y-126955765D01*
X129626671Y-126964030D01*
X129648849Y-126974520D01*
X129669893Y-126987133D01*
X129689598Y-127001747D01*
X129707777Y-127018223D01*
X129724253Y-127036402D01*
X129738867Y-127056107D01*
X129751480Y-127077151D01*
X129761970Y-127099329D01*
X129770235Y-127122429D01*
X129776196Y-127146227D01*
X129779796Y-127170496D01*
X129781000Y-127195000D01*
X129781000Y-129345000D01*
X129779796Y-129369504D01*
X129776196Y-129393773D01*
X129770235Y-129417571D01*
X129761970Y-129440671D01*
X129751480Y-129462849D01*
X129738867Y-129483893D01*
X129724253Y-129503598D01*
X129707777Y-129521777D01*
X129689598Y-129538253D01*
X129669893Y-129552867D01*
X129648849Y-129565480D01*
X129626671Y-129575970D01*
X129603571Y-129584235D01*
X129579773Y-129590196D01*
X129555504Y-129593796D01*
X129531000Y-129595000D01*
X128781000Y-129595000D01*
X128756496Y-129593796D01*
X128732227Y-129590196D01*
X128708429Y-129584235D01*
X128685329Y-129575970D01*
X128663151Y-129565480D01*
X128642107Y-129552867D01*
X128622402Y-129538253D01*
X128604223Y-129521777D01*
X128587747Y-129503598D01*
X128573133Y-129483893D01*
X128560520Y-129462849D01*
X128550030Y-129440671D01*
X128541765Y-129417571D01*
X128535804Y-129393773D01*
X128532204Y-129369504D01*
X128531000Y-129345000D01*
X128531000Y-127195000D01*
X128532204Y-127170496D01*
X128535804Y-127146227D01*
X128541765Y-127122429D01*
X128550030Y-127099329D01*
X128560520Y-127077151D01*
X128573133Y-127056107D01*
X128587747Y-127036402D01*
X128604223Y-127018223D01*
X128622402Y-127001747D01*
X128642107Y-126987133D01*
X128663151Y-126974520D01*
X128685329Y-126964030D01*
X128708429Y-126955765D01*
X128732227Y-126949804D01*
X128756496Y-126946204D01*
X128781000Y-126945000D01*
X129531000Y-126945000D01*
X129555504Y-126946204D01*
X129555504Y-126946204D01*
G37*
D20*
X129156000Y-128270000D03*
D10*
X130302000Y-130556000D03*
D21*
X128294953Y-139724953D03*
X126952147Y-139017147D03*
X122795847Y-129653847D03*
X134624653Y-112263347D03*
X132495120Y-114471836D03*
X134620000Y-118618000D03*
X125095000Y-139065000D03*
X126707453Y-141312453D03*
X120505200Y-131445000D03*
X131572000Y-126238000D03*
X137931306Y-114544694D03*
X138176000Y-132842000D03*
X136906000Y-134874000D03*
X137885000Y-118745000D03*
X135890000Y-118745000D03*
X128708435Y-112657767D03*
X116974937Y-113799937D03*
X130081600Y-111218400D03*
X121412000Y-111379000D03*
X127713032Y-112561971D03*
X132519847Y-111955153D03*
X119198847Y-112848847D03*
X111760000Y-124460000D03*
X122942108Y-112782108D03*
X134756663Y-122768249D03*
X134620000Y-127381000D03*
X118110000Y-135890000D03*
D22*
X122580400Y-134886700D02*
X121855200Y-134161500D01*
D23*
X133457000Y-126769000D02*
X133604000Y-126769000D01*
X131956000Y-128270000D02*
X133457000Y-126769000D01*
D22*
X131956000Y-128270000D02*
X131956000Y-128902000D01*
X131956000Y-128902000D02*
X130302000Y-130556000D01*
D23*
X128294953Y-139724953D02*
X127659953Y-139724953D01*
X127659953Y-139724953D02*
X126952147Y-139017147D01*
D22*
X119891400Y-128016400D02*
X118745000Y-126870000D01*
X121855200Y-128016400D02*
X119891400Y-128016400D01*
D23*
X122060153Y-129653847D02*
X121855200Y-129858800D01*
X122795847Y-129653847D02*
X122060153Y-129653847D01*
D22*
X121855200Y-134161500D02*
X121855200Y-129858800D01*
X121855200Y-129858800D02*
X121855200Y-128016400D01*
D23*
X132495120Y-114392880D02*
X132495120Y-114471836D01*
X134624653Y-112263347D02*
X132495120Y-114392880D01*
D22*
X126455200Y-129741900D02*
X123850400Y-132346700D01*
X126455200Y-128016400D02*
X126455200Y-129741900D01*
X126708800Y-128270000D02*
X126455200Y-128016400D01*
X129156000Y-128270000D02*
X126708800Y-128270000D01*
D23*
X125095000Y-139065000D02*
X126707453Y-140677453D01*
X126707453Y-140677453D02*
X126707453Y-141312453D01*
X139298395Y-131719605D02*
X138176000Y-132842000D01*
X141081250Y-131719605D02*
X139298395Y-131719605D01*
X138318750Y-136286750D02*
X136906000Y-134874000D01*
X138318750Y-136504395D02*
X138318750Y-136286750D01*
X138469001Y-124420999D02*
X139319000Y-123571000D01*
X138143999Y-124746001D02*
X138469001Y-124420999D01*
X138143999Y-127540001D02*
X138143999Y-124746001D01*
X136906000Y-128778000D02*
X138143999Y-127540001D01*
X137885000Y-118745000D02*
X135890000Y-118745000D01*
X126863023Y-112784964D02*
X126863023Y-111751433D01*
X127365031Y-113286972D02*
X126863023Y-112784964D01*
X128061033Y-113286972D02*
X127365031Y-113286972D01*
X128708435Y-112657767D02*
X128690238Y-112657767D01*
X128690238Y-112657767D02*
X128061033Y-113286972D01*
X126501610Y-111390020D02*
X124011400Y-111390020D01*
X126863023Y-111751433D02*
X126501610Y-111390020D01*
X124011400Y-111390020D02*
X123308890Y-111390020D01*
X122144900Y-112554010D02*
X120672402Y-112554010D01*
X123308890Y-111390020D02*
X122144900Y-112554010D01*
X117201026Y-113573848D02*
X116974937Y-113799937D01*
X120672402Y-112554010D02*
X119652564Y-113573848D01*
X119652564Y-113573848D02*
X117201026Y-113573848D01*
X130081600Y-111218400D02*
X129353200Y-110490000D01*
X129353200Y-110490000D02*
X122936089Y-110490001D01*
X122936089Y-110490001D02*
X122047090Y-111379000D01*
X122047090Y-111379000D02*
X121412000Y-111379000D01*
X129314753Y-111955153D02*
X132519847Y-111955153D01*
X129253001Y-111893401D02*
X129314753Y-111955153D01*
X127713032Y-112561971D02*
X128381602Y-111893401D01*
X128381602Y-111893401D02*
X129253001Y-111893401D01*
X127713032Y-112561971D02*
X127313033Y-112161972D01*
X127313033Y-112161972D02*
X127313033Y-111565033D01*
X127313033Y-111565033D02*
X126688010Y-110940010D01*
X126688010Y-110940010D02*
X123825000Y-110940010D01*
X123825000Y-110940010D02*
X123122490Y-110940010D01*
X123122490Y-110940010D02*
X121958500Y-112104000D01*
X121958500Y-112104000D02*
X119943694Y-112104000D01*
X119943694Y-112104000D02*
X119198847Y-112848847D01*
X122542109Y-113182107D02*
X122942108Y-112782108D01*
X120802107Y-113182107D02*
X122542109Y-113182107D01*
X119684214Y-114300000D02*
X120802107Y-113182107D01*
X117547876Y-114300000D02*
X119684214Y-114300000D01*
X113030000Y-118110000D02*
X113030000Y-117475000D01*
X113030000Y-117475000D02*
X115980062Y-114524938D01*
X111760000Y-119380000D02*
X113030000Y-118110000D01*
X111760000Y-124460000D02*
X111760000Y-119380000D01*
X115980062Y-114524938D02*
X117322938Y-114524938D01*
X117322938Y-114524938D02*
X117547876Y-114300000D01*
X134756663Y-127371337D02*
X134756663Y-122768249D01*
X134620000Y-127508000D02*
X134756663Y-127371337D01*
X118110000Y-136222500D02*
X117348000Y-136984500D01*
X118110000Y-135890000D02*
X118110000Y-136222500D01*
X133604000Y-127739000D02*
X133604000Y-128270000D01*
X134112000Y-128778000D02*
X135031000Y-128778000D01*
X133604000Y-128270000D02*
X134112000Y-128778000D01*
D24*
G36*
X133259965Y-111236508D02*
G01*
X133328233Y-111264785D01*
X134056801Y-111774783D01*
X134044421Y-111787163D01*
X133962671Y-111909510D01*
X133906360Y-112045455D01*
X133877653Y-112189774D01*
X133877653Y-112336920D01*
X133878635Y-112341857D01*
X132495656Y-113724836D01*
X132421547Y-113724836D01*
X132277228Y-113753543D01*
X132141283Y-113809854D01*
X132018936Y-113891604D01*
X131914888Y-113995652D01*
X131833138Y-114117999D01*
X131776827Y-114253944D01*
X131748120Y-114398263D01*
X131748120Y-114545409D01*
X131776827Y-114689728D01*
X131833138Y-114825673D01*
X131914888Y-114948020D01*
X132018936Y-115052068D01*
X132141283Y-115133818D01*
X132277228Y-115190129D01*
X132421547Y-115218836D01*
X132568693Y-115218836D01*
X132713012Y-115190129D01*
X132848957Y-115133818D01*
X132971304Y-115052068D01*
X133075352Y-114948020D01*
X133157102Y-114825673D01*
X133213413Y-114689728D01*
X133242120Y-114545409D01*
X133242120Y-114398263D01*
X133228038Y-114327470D01*
X134546143Y-113009365D01*
X134551080Y-113010347D01*
X134698226Y-113010347D01*
X134842545Y-112981640D01*
X134978490Y-112925329D01*
X135100837Y-112843579D01*
X135204885Y-112739531D01*
X135278220Y-112629777D01*
X139605999Y-115659223D01*
X142755014Y-120697646D01*
X143966434Y-126754745D01*
X143978000Y-127000000D01*
X143971012Y-127222365D01*
X143268310Y-130735877D01*
X143264450Y-130725622D01*
X143228355Y-130667576D01*
X143181629Y-130617688D01*
X143126069Y-130577874D01*
X141047609Y-129377874D01*
X140985349Y-129349664D01*
X140918782Y-129334143D01*
X140850465Y-129331907D01*
X140783026Y-129343041D01*
X140719054Y-129367118D01*
X140661008Y-129403213D01*
X140611120Y-129449939D01*
X140571306Y-129505499D01*
X139565500Y-131247605D01*
X139321574Y-131247605D01*
X139298394Y-131245322D01*
X139205867Y-131254435D01*
X139116895Y-131281425D01*
X139034897Y-131325253D01*
X138963026Y-131384236D01*
X138948244Y-131402248D01*
X138254510Y-132095982D01*
X138249573Y-132095000D01*
X138102427Y-132095000D01*
X137958108Y-132123707D01*
X137822163Y-132180018D01*
X137699816Y-132261768D01*
X137595768Y-132365816D01*
X137514018Y-132488163D01*
X137457707Y-132624108D01*
X137429000Y-132768427D01*
X137429000Y-132915573D01*
X137457707Y-133059892D01*
X137514018Y-133195837D01*
X137595768Y-133318184D01*
X137699816Y-133422232D01*
X137822163Y-133503982D01*
X137958108Y-133560293D01*
X138102427Y-133589000D01*
X138249573Y-133589000D01*
X138393892Y-133560293D01*
X138529837Y-133503982D01*
X138652184Y-133422232D01*
X138756232Y-133318184D01*
X138837982Y-133195837D01*
X138894293Y-133059892D01*
X138923000Y-132915573D01*
X138923000Y-132768427D01*
X138922018Y-132763490D01*
X138926373Y-132759135D01*
X138934145Y-132771634D01*
X138980871Y-132821522D01*
X139036431Y-132861336D01*
X141114891Y-134061336D01*
X141177151Y-134089546D01*
X141243718Y-134105067D01*
X141312035Y-134107303D01*
X141379474Y-134096169D01*
X141443446Y-134072092D01*
X141501492Y-134035997D01*
X141551380Y-133989271D01*
X141591194Y-133933711D01*
X143178655Y-131184148D01*
X142763492Y-133259966D01*
X142728091Y-133345431D01*
X139605999Y-138340777D01*
X134594171Y-141849058D01*
X134612578Y-141804619D01*
X134687400Y-141428463D01*
X134687400Y-141044937D01*
X134612578Y-140668781D01*
X134465809Y-140314450D01*
X134252734Y-139995560D01*
X133981540Y-139724366D01*
X133662650Y-139511291D01*
X133308319Y-139364522D01*
X132932163Y-139289700D01*
X132548637Y-139289700D01*
X132172481Y-139364522D01*
X131818150Y-139511291D01*
X131499260Y-139724366D01*
X131228066Y-139995560D01*
X131014991Y-140314450D01*
X130868222Y-140668781D01*
X130793400Y-141044937D01*
X130793400Y-141428463D01*
X130868222Y-141804619D01*
X131014991Y-142158950D01*
X131228066Y-142477840D01*
X131499260Y-142749034D01*
X131818150Y-142962109D01*
X131964265Y-143022632D01*
X127245255Y-143966434D01*
X127000000Y-143978000D01*
X126754745Y-143966434D01*
X122069993Y-143029484D01*
X122232650Y-142962109D01*
X122551540Y-142749034D01*
X122822734Y-142477840D01*
X123035809Y-142158950D01*
X123182578Y-141804619D01*
X123257400Y-141428463D01*
X123257400Y-141044937D01*
X123182578Y-140668781D01*
X123035809Y-140314450D01*
X122822734Y-139995560D01*
X122551540Y-139724366D01*
X122232650Y-139511291D01*
X121878319Y-139364522D01*
X121502163Y-139289700D01*
X121118637Y-139289700D01*
X120742481Y-139364522D01*
X120388150Y-139511291D01*
X120069260Y-139724366D01*
X119798066Y-139995560D01*
X119584991Y-140314450D01*
X119438222Y-140668781D01*
X119363400Y-141044937D01*
X119363400Y-141428463D01*
X119438222Y-141804619D01*
X119477373Y-141899139D01*
X116741997Y-139984375D01*
X117062250Y-139982000D01*
X117221000Y-139823250D01*
X117221000Y-138986500D01*
X117475000Y-138986500D01*
X117475000Y-139823250D01*
X117633750Y-139982000D01*
X118048000Y-139985072D01*
X118172482Y-139972812D01*
X118292180Y-139936502D01*
X118402494Y-139877537D01*
X118499185Y-139798185D01*
X118578537Y-139701494D01*
X118637502Y-139591180D01*
X118673812Y-139471482D01*
X118686072Y-139347000D01*
X118683000Y-139145250D01*
X118524250Y-138986500D01*
X117475000Y-138986500D01*
X117221000Y-138986500D01*
X116171750Y-138986500D01*
X116013000Y-139145250D01*
X116009928Y-139347000D01*
X116022188Y-139471482D01*
X116025664Y-139482942D01*
X115255140Y-138943574D01*
X126205147Y-138943574D01*
X126205147Y-139090720D01*
X126233854Y-139235039D01*
X126290165Y-139370984D01*
X126371915Y-139493331D01*
X126475963Y-139597379D01*
X126598310Y-139679129D01*
X126734255Y-139735440D01*
X126878574Y-139764147D01*
X127025720Y-139764147D01*
X127030656Y-139763165D01*
X127309806Y-140042315D01*
X127324584Y-140060322D01*
X127396455Y-140119305D01*
X127478452Y-140163133D01*
X127567425Y-140190123D01*
X127659953Y-140199236D01*
X127683133Y-140196953D01*
X127711925Y-140196953D01*
X127714721Y-140201137D01*
X127818769Y-140305185D01*
X127941116Y-140386935D01*
X128077061Y-140443246D01*
X128221380Y-140471953D01*
X128368526Y-140471953D01*
X128512845Y-140443246D01*
X128648790Y-140386935D01*
X128771137Y-140305185D01*
X128875185Y-140201137D01*
X128956935Y-140078790D01*
X129013246Y-139942845D01*
X129041953Y-139798526D01*
X129041953Y-139651380D01*
X129013246Y-139507061D01*
X128956935Y-139371116D01*
X128875185Y-139248769D01*
X128771137Y-139144721D01*
X128648790Y-139062971D01*
X128512845Y-139006660D01*
X128368526Y-138977953D01*
X128221380Y-138977953D01*
X128077061Y-139006660D01*
X127941116Y-139062971D01*
X127818769Y-139144721D01*
X127782999Y-139180491D01*
X127698165Y-139095656D01*
X127699147Y-139090720D01*
X127699147Y-138943574D01*
X127670440Y-138799255D01*
X127614129Y-138663310D01*
X127532379Y-138540963D01*
X127428331Y-138436915D01*
X127305984Y-138355165D01*
X127170039Y-138298854D01*
X127025720Y-138270147D01*
X126878574Y-138270147D01*
X126734255Y-138298854D01*
X126598310Y-138355165D01*
X126475963Y-138436915D01*
X126371915Y-138540963D01*
X126290165Y-138663310D01*
X126233854Y-138799255D01*
X126205147Y-138943574D01*
X115255140Y-138943574D01*
X114438606Y-138372000D01*
X116009928Y-138372000D01*
X116013000Y-138573750D01*
X116171750Y-138732500D01*
X117221000Y-138732500D01*
X117221000Y-138712500D01*
X117475000Y-138712500D01*
X117475000Y-138732500D01*
X118524250Y-138732500D01*
X118683000Y-138573750D01*
X118686072Y-138372000D01*
X118673812Y-138247518D01*
X118637502Y-138127820D01*
X118578537Y-138017506D01*
X118499185Y-137920815D01*
X118402494Y-137841463D01*
X118292180Y-137782498D01*
X118172482Y-137746188D01*
X118099417Y-137738992D01*
X118133385Y-137720836D01*
X118223160Y-137647160D01*
X118296836Y-137557385D01*
X118351582Y-137454962D01*
X118378275Y-137366967D01*
X136100339Y-137366967D01*
X136111473Y-137434406D01*
X136135550Y-137498378D01*
X136171645Y-137556424D01*
X136218371Y-137606312D01*
X136273931Y-137646126D01*
X138352391Y-138846126D01*
X138414651Y-138874336D01*
X138481218Y-138889857D01*
X138549535Y-138892093D01*
X138616974Y-138880959D01*
X138680946Y-138856882D01*
X138738992Y-138820787D01*
X138788880Y-138774061D01*
X138828694Y-138718501D01*
X140491194Y-135838967D01*
X140519404Y-135776707D01*
X140534925Y-135710140D01*
X140537161Y-135641823D01*
X140526027Y-135574384D01*
X140501950Y-135510412D01*
X140465855Y-135452366D01*
X140419129Y-135402478D01*
X140363569Y-135362664D01*
X138285109Y-134162664D01*
X138222849Y-134134454D01*
X138156282Y-134118933D01*
X138087965Y-134116697D01*
X138020526Y-134127831D01*
X137956554Y-134151908D01*
X137898508Y-134188003D01*
X137848620Y-134234729D01*
X137808806Y-134290289D01*
X137613142Y-134629188D01*
X137567982Y-134520163D01*
X137486232Y-134397816D01*
X137382184Y-134293768D01*
X137259837Y-134212018D01*
X137123892Y-134155707D01*
X136979573Y-134127000D01*
X136832427Y-134127000D01*
X136688108Y-134155707D01*
X136552163Y-134212018D01*
X136429816Y-134293768D01*
X136325768Y-134397816D01*
X136244018Y-134520163D01*
X136187707Y-134656108D01*
X136159000Y-134800427D01*
X136159000Y-134947573D01*
X136187707Y-135091892D01*
X136244018Y-135227837D01*
X136325768Y-135350184D01*
X136429816Y-135454232D01*
X136552163Y-135535982D01*
X136688108Y-135592293D01*
X136832427Y-135621000D01*
X136979573Y-135621000D01*
X136984510Y-135620018D01*
X137020378Y-135655886D01*
X136146306Y-137169823D01*
X136118096Y-137232083D01*
X136102575Y-137298650D01*
X136100339Y-137366967D01*
X118378275Y-137366967D01*
X118385295Y-137343827D01*
X118396678Y-137228250D01*
X118396678Y-136740750D01*
X118385295Y-136625173D01*
X118382861Y-136617148D01*
X118427362Y-136572647D01*
X118441032Y-136561428D01*
X118463837Y-136551982D01*
X118586184Y-136470232D01*
X118690232Y-136366184D01*
X118771982Y-136243837D01*
X118828293Y-136107892D01*
X118857000Y-135963573D01*
X118857000Y-135816427D01*
X118828293Y-135672108D01*
X118771982Y-135536163D01*
X118690232Y-135413816D01*
X118586184Y-135309768D01*
X118463837Y-135228018D01*
X118327892Y-135171707D01*
X118183573Y-135143000D01*
X118036427Y-135143000D01*
X117892108Y-135171707D01*
X117756163Y-135228018D01*
X117633816Y-135309768D01*
X117529768Y-135413816D01*
X117448018Y-135536163D01*
X117391707Y-135672108D01*
X117363000Y-135816427D01*
X117363000Y-135963573D01*
X117391707Y-136107892D01*
X117408454Y-136148322D01*
X116891750Y-136148322D01*
X116776173Y-136159705D01*
X116665038Y-136193418D01*
X116562615Y-136248164D01*
X116472840Y-136321840D01*
X116399164Y-136411615D01*
X116344418Y-136514038D01*
X116310705Y-136625173D01*
X116299322Y-136740750D01*
X116299322Y-137228250D01*
X116310705Y-137343827D01*
X116344418Y-137454962D01*
X116399164Y-137557385D01*
X116472840Y-137647160D01*
X116562615Y-137720836D01*
X116596583Y-137738992D01*
X116523518Y-137746188D01*
X116403820Y-137782498D01*
X116293506Y-137841463D01*
X116196815Y-137920815D01*
X116117463Y-138017506D01*
X116058498Y-138127820D01*
X116022188Y-138247518D01*
X116009928Y-138372000D01*
X114438606Y-138372000D01*
X114394001Y-138340777D01*
X111271909Y-133345431D01*
X111236508Y-133259966D01*
X110643516Y-130295000D01*
X116781928Y-130295000D01*
X116794188Y-130419482D01*
X116830498Y-130539180D01*
X116889463Y-130649494D01*
X116968815Y-130746185D01*
X117065506Y-130825537D01*
X117175820Y-130884502D01*
X117295518Y-130920812D01*
X117420000Y-130933072D01*
X118459250Y-130930000D01*
X118618000Y-130771250D01*
X118618000Y-129797000D01*
X118872000Y-129797000D01*
X118872000Y-130771250D01*
X119030750Y-130930000D01*
X120070000Y-130933072D01*
X120194482Y-130920812D01*
X120314180Y-130884502D01*
X120424494Y-130825537D01*
X120521185Y-130746185D01*
X120600537Y-130649494D01*
X120659502Y-130539180D01*
X120695812Y-130419482D01*
X120708072Y-130295000D01*
X120705000Y-129955750D01*
X120546250Y-129797000D01*
X118872000Y-129797000D01*
X118618000Y-129797000D01*
X116943750Y-129797000D01*
X116785000Y-129955750D01*
X116781928Y-130295000D01*
X110643516Y-130295000D01*
X110393516Y-129045000D01*
X116781928Y-129045000D01*
X116785000Y-129384250D01*
X116943750Y-129543000D01*
X118618000Y-129543000D01*
X118618000Y-129523000D01*
X118872000Y-129523000D01*
X118872000Y-129543000D01*
X120546250Y-129543000D01*
X120705000Y-129384250D01*
X120707453Y-129113400D01*
X120758200Y-129113400D01*
X120758200Y-129912681D01*
X120758201Y-129912691D01*
X120758200Y-134107618D01*
X120752893Y-134161500D01*
X120774074Y-134376549D01*
X120818758Y-134523855D01*
X120836801Y-134583334D01*
X120938665Y-134773909D01*
X121075751Y-134940949D01*
X121117614Y-134975305D01*
X121481722Y-135339413D01*
X121481722Y-135636700D01*
X121488422Y-135704724D01*
X121508264Y-135770133D01*
X121540485Y-135830415D01*
X121583847Y-135883253D01*
X121636685Y-135926615D01*
X121696967Y-135958836D01*
X121762376Y-135978678D01*
X121830400Y-135985378D01*
X122543555Y-135985378D01*
X122580400Y-135989007D01*
X122617245Y-135985378D01*
X123330400Y-135985378D01*
X123398424Y-135978678D01*
X123463833Y-135958836D01*
X123524115Y-135926615D01*
X123576953Y-135883253D01*
X123620315Y-135830415D01*
X123652536Y-135770133D01*
X123672378Y-135704724D01*
X123679078Y-135636700D01*
X123679078Y-134923545D01*
X123682707Y-134886700D01*
X123679078Y-134849855D01*
X123679078Y-134778655D01*
X124023400Y-134778655D01*
X124023400Y-134994745D01*
X124065557Y-135206683D01*
X124148251Y-135406324D01*
X124268304Y-135585997D01*
X124421103Y-135738796D01*
X124600776Y-135858849D01*
X124800417Y-135941543D01*
X125012355Y-135983700D01*
X125228445Y-135983700D01*
X125440383Y-135941543D01*
X125640024Y-135858849D01*
X125819697Y-135738796D01*
X125972496Y-135585997D01*
X126092549Y-135406324D01*
X126175243Y-135206683D01*
X126217400Y-134994745D01*
X126217400Y-134778655D01*
X126563400Y-134778655D01*
X126563400Y-134994745D01*
X126605557Y-135206683D01*
X126688251Y-135406324D01*
X126808304Y-135585997D01*
X126961103Y-135738796D01*
X127140776Y-135858849D01*
X127340417Y-135941543D01*
X127552355Y-135983700D01*
X127768445Y-135983700D01*
X127980383Y-135941543D01*
X128180024Y-135858849D01*
X128359697Y-135738796D01*
X128512496Y-135585997D01*
X128632549Y-135406324D01*
X128715243Y-135206683D01*
X128757400Y-134994745D01*
X128757400Y-134778655D01*
X129103400Y-134778655D01*
X129103400Y-134994745D01*
X129145557Y-135206683D01*
X129228251Y-135406324D01*
X129348304Y-135585997D01*
X129501103Y-135738796D01*
X129680776Y-135858849D01*
X129880417Y-135941543D01*
X130092355Y-135983700D01*
X130308445Y-135983700D01*
X130520383Y-135941543D01*
X130720024Y-135858849D01*
X130899697Y-135738796D01*
X131052496Y-135585997D01*
X131172549Y-135406324D01*
X131255243Y-135206683D01*
X131297400Y-134994745D01*
X131297400Y-134778655D01*
X131255243Y-134566717D01*
X131172549Y-134367076D01*
X131052496Y-134187403D01*
X130899697Y-134034604D01*
X130720024Y-133914551D01*
X130520383Y-133831857D01*
X130308445Y-133789700D01*
X130092355Y-133789700D01*
X129880417Y-133831857D01*
X129680776Y-133914551D01*
X129501103Y-134034604D01*
X129348304Y-134187403D01*
X129228251Y-134367076D01*
X129145557Y-134566717D01*
X129103400Y-134778655D01*
X128757400Y-134778655D01*
X128715243Y-134566717D01*
X128632549Y-134367076D01*
X128512496Y-134187403D01*
X128359697Y-134034604D01*
X128180024Y-133914551D01*
X127980383Y-133831857D01*
X127768445Y-133789700D01*
X127552355Y-133789700D01*
X127340417Y-133831857D01*
X127140776Y-133914551D01*
X126961103Y-134034604D01*
X126808304Y-134187403D01*
X126688251Y-134367076D01*
X126605557Y-134566717D01*
X126563400Y-134778655D01*
X126217400Y-134778655D01*
X126175243Y-134566717D01*
X126092549Y-134367076D01*
X125972496Y-134187403D01*
X125819697Y-134034604D01*
X125640024Y-133914551D01*
X125440383Y-133831857D01*
X125228445Y-133789700D01*
X125012355Y-133789700D01*
X124800417Y-133831857D01*
X124600776Y-133914551D01*
X124421103Y-134034604D01*
X124268304Y-134187403D01*
X124148251Y-134367076D01*
X124065557Y-134566717D01*
X124023400Y-134778655D01*
X123679078Y-134778655D01*
X123679078Y-134136700D01*
X123672378Y-134068676D01*
X123652536Y-134003267D01*
X123620315Y-133942985D01*
X123576953Y-133890147D01*
X123524115Y-133846785D01*
X123463833Y-133814564D01*
X123398424Y-133794722D01*
X123330400Y-133788022D01*
X123033113Y-133788022D01*
X122952200Y-133707109D01*
X122952200Y-132981448D01*
X122968204Y-133000950D01*
X122998304Y-133045997D01*
X123036614Y-133084307D01*
X123070952Y-133126148D01*
X123112793Y-133160486D01*
X123151103Y-133198796D01*
X123196150Y-133228896D01*
X123237992Y-133263234D01*
X123285733Y-133288752D01*
X123330776Y-133318849D01*
X123380819Y-133339578D01*
X123428566Y-133365099D01*
X123480375Y-133380815D01*
X123530417Y-133401543D01*
X123583543Y-133412110D01*
X123635351Y-133427826D01*
X123689229Y-133433133D01*
X123742355Y-133443700D01*
X123796518Y-133443700D01*
X123850400Y-133449007D01*
X123904282Y-133443700D01*
X123958445Y-133443700D01*
X124011571Y-133433133D01*
X124065449Y-133427826D01*
X124117257Y-133412110D01*
X124170383Y-133401543D01*
X124220425Y-133380815D01*
X124272234Y-133365099D01*
X124319981Y-133339578D01*
X124370024Y-133318849D01*
X124415067Y-133288752D01*
X124462808Y-133263234D01*
X124504650Y-133228895D01*
X124549697Y-133198796D01*
X124702496Y-133045997D01*
X124702500Y-133045991D01*
X125293457Y-132455034D01*
X125335557Y-132666683D01*
X125418251Y-132866324D01*
X125538304Y-133045997D01*
X125691103Y-133198796D01*
X125870776Y-133318849D01*
X126070417Y-133401543D01*
X126282355Y-133443700D01*
X126498445Y-133443700D01*
X126710383Y-133401543D01*
X126910024Y-133318849D01*
X127089697Y-133198796D01*
X127242496Y-133045997D01*
X127362549Y-132866324D01*
X127445243Y-132666683D01*
X127487400Y-132454745D01*
X127487400Y-132238655D01*
X127833400Y-132238655D01*
X127833400Y-132454745D01*
X127875557Y-132666683D01*
X127958251Y-132866324D01*
X128078304Y-133045997D01*
X128231103Y-133198796D01*
X128410776Y-133318849D01*
X128610417Y-133401543D01*
X128822355Y-133443700D01*
X129038445Y-133443700D01*
X129250383Y-133401543D01*
X129450024Y-133318849D01*
X129629697Y-133198796D01*
X129782496Y-133045997D01*
X129902549Y-132866324D01*
X129985243Y-132666683D01*
X130027400Y-132454745D01*
X130027400Y-132238655D01*
X129985243Y-132026717D01*
X129902549Y-131827076D01*
X129782496Y-131647403D01*
X129629697Y-131494604D01*
X129450024Y-131374551D01*
X129250383Y-131291857D01*
X129038445Y-131249700D01*
X128822355Y-131249700D01*
X128610417Y-131291857D01*
X128410776Y-131374551D01*
X128231103Y-131494604D01*
X128078304Y-131647403D01*
X127958251Y-131827076D01*
X127875557Y-132026717D01*
X127833400Y-132238655D01*
X127487400Y-132238655D01*
X127445243Y-132026717D01*
X127362549Y-131827076D01*
X127242496Y-131647403D01*
X127089697Y-131494604D01*
X126910024Y-131374551D01*
X126710383Y-131291857D01*
X126498735Y-131249758D01*
X127192797Y-130555696D01*
X127234649Y-130521349D01*
X127371735Y-130354309D01*
X127473599Y-130163735D01*
X127526538Y-129989216D01*
X127536326Y-129956950D01*
X127557507Y-129741901D01*
X127552200Y-129688019D01*
X127552200Y-129367000D01*
X128184489Y-129367000D01*
X128193825Y-129461796D01*
X128227894Y-129574104D01*
X128283217Y-129677608D01*
X128357671Y-129768329D01*
X128448392Y-129842783D01*
X128551896Y-129898106D01*
X128664204Y-129932175D01*
X128781000Y-129943678D01*
X129385420Y-129943678D01*
X129359948Y-129991333D01*
X129329851Y-130036376D01*
X129309122Y-130086419D01*
X129283601Y-130134166D01*
X129267885Y-130185975D01*
X129247157Y-130236017D01*
X129236590Y-130289143D01*
X129220874Y-130340951D01*
X129215567Y-130394829D01*
X129205000Y-130447955D01*
X129205000Y-130502118D01*
X129199693Y-130556000D01*
X129205000Y-130609882D01*
X129205000Y-130664045D01*
X129215567Y-130717171D01*
X129220874Y-130771049D01*
X129236590Y-130822857D01*
X129247157Y-130875983D01*
X129267885Y-130926025D01*
X129283601Y-130977834D01*
X129309122Y-131025581D01*
X129329851Y-131075624D01*
X129359948Y-131120667D01*
X129385466Y-131168408D01*
X129419804Y-131210250D01*
X129449904Y-131255297D01*
X129488214Y-131293607D01*
X129522552Y-131335448D01*
X129564393Y-131369786D01*
X129602703Y-131408096D01*
X129647750Y-131438196D01*
X129689592Y-131472534D01*
X129737333Y-131498052D01*
X129782376Y-131528149D01*
X129832419Y-131548878D01*
X129880166Y-131574399D01*
X129931975Y-131590115D01*
X129982017Y-131610843D01*
X130035143Y-131621410D01*
X130086951Y-131637126D01*
X130140829Y-131642433D01*
X130193955Y-131653000D01*
X130248118Y-131653000D01*
X130302000Y-131658307D01*
X130355882Y-131653000D01*
X130410045Y-131653000D01*
X130463171Y-131642433D01*
X130517049Y-131637126D01*
X130568857Y-131621410D01*
X130621983Y-131610843D01*
X130672025Y-131590115D01*
X130677145Y-131588562D01*
X130618304Y-131647403D01*
X130498251Y-131827076D01*
X130415557Y-132026717D01*
X130373400Y-132238655D01*
X130373400Y-132454745D01*
X130415557Y-132666683D01*
X130498251Y-132866324D01*
X130618304Y-133045997D01*
X130771103Y-133198796D01*
X130950776Y-133318849D01*
X131150417Y-133401543D01*
X131362355Y-133443700D01*
X131578445Y-133443700D01*
X131790383Y-133401543D01*
X131990024Y-133318849D01*
X132169697Y-133198796D01*
X132322496Y-133045997D01*
X132442549Y-132866324D01*
X132525243Y-132666683D01*
X132567400Y-132454745D01*
X132567400Y-132238655D01*
X132525243Y-132026717D01*
X132442549Y-131827076D01*
X132322496Y-131647403D01*
X132169697Y-131494604D01*
X131990024Y-131374551D01*
X131790383Y-131291857D01*
X131578445Y-131249700D01*
X131362355Y-131249700D01*
X131150417Y-131291857D01*
X131094286Y-131315107D01*
X131154096Y-131255297D01*
X131154100Y-131255291D01*
X132490028Y-129919364D01*
X132560104Y-129898106D01*
X132663608Y-129842783D01*
X132754329Y-129768329D01*
X132828783Y-129677608D01*
X132884106Y-129574104D01*
X132918175Y-129461796D01*
X132922132Y-129421620D01*
X132974399Y-129323835D01*
X132998868Y-129243170D01*
X133037126Y-129117050D01*
X133058307Y-128902001D01*
X133053000Y-128848119D01*
X133053000Y-128216118D01*
X133051606Y-128201962D01*
X133080649Y-128237351D01*
X133130533Y-128278290D01*
X133138830Y-128362527D01*
X133165821Y-128451500D01*
X133199496Y-128514502D01*
X133209649Y-128533498D01*
X133268632Y-128605369D01*
X133286637Y-128620145D01*
X133761853Y-129095362D01*
X133776631Y-129113369D01*
X133848502Y-129172352D01*
X133930500Y-129216180D01*
X134019472Y-129243170D01*
X134088820Y-129250000D01*
X134088821Y-129250000D01*
X134111999Y-129252283D01*
X134135177Y-129250000D01*
X134194822Y-129250000D01*
X134194822Y-129488250D01*
X134206205Y-129603827D01*
X134239918Y-129714962D01*
X134294664Y-129817385D01*
X134368340Y-129907160D01*
X134458115Y-129980836D01*
X134560538Y-130035582D01*
X134671673Y-130069295D01*
X134787250Y-130080678D01*
X135274750Y-130080678D01*
X135390327Y-130069295D01*
X135501462Y-130035582D01*
X135603885Y-129980836D01*
X135693660Y-129907160D01*
X135767336Y-129817385D01*
X135822082Y-129714962D01*
X135855795Y-129603827D01*
X135867178Y-129488250D01*
X135867178Y-128575750D01*
X135855795Y-128460173D01*
X135822082Y-128349038D01*
X135767336Y-128246615D01*
X135693660Y-128156840D01*
X135603885Y-128083164D01*
X135501462Y-128028418D01*
X135390327Y-127994705D01*
X135274750Y-127983322D01*
X135063124Y-127983322D01*
X135096184Y-127961232D01*
X135200232Y-127857184D01*
X135281982Y-127734837D01*
X135338293Y-127598892D01*
X135367000Y-127454573D01*
X135367000Y-127307427D01*
X135338293Y-127163108D01*
X135281982Y-127027163D01*
X135228663Y-126947366D01*
X135228663Y-126111000D01*
X135576209Y-126111000D01*
X135599320Y-126345653D01*
X135667766Y-126571288D01*
X135778916Y-126779235D01*
X135928498Y-126961502D01*
X136110765Y-127111084D01*
X136318712Y-127222234D01*
X136544347Y-127290680D01*
X136720202Y-127308000D01*
X136837798Y-127308000D01*
X137013653Y-127290680D01*
X137239288Y-127222234D01*
X137447235Y-127111084D01*
X137629502Y-126961502D01*
X137671999Y-126909719D01*
X137671999Y-127344492D01*
X137033170Y-127983322D01*
X136662250Y-127983322D01*
X136546673Y-127994705D01*
X136435538Y-128028418D01*
X136333115Y-128083164D01*
X136243340Y-128156840D01*
X136169664Y-128246615D01*
X136114918Y-128349038D01*
X136081205Y-128460173D01*
X136069822Y-128575750D01*
X136069822Y-129488250D01*
X136081205Y-129603827D01*
X136114918Y-129714962D01*
X136169664Y-129817385D01*
X136243340Y-129907160D01*
X136333115Y-129980836D01*
X136435538Y-130035582D01*
X136546673Y-130069295D01*
X136662250Y-130080678D01*
X137149750Y-130080678D01*
X137265327Y-130069295D01*
X137376462Y-130035582D01*
X137478885Y-129980836D01*
X137568660Y-129907160D01*
X137642336Y-129817385D01*
X137697082Y-129714962D01*
X137730795Y-129603827D01*
X137742178Y-129488250D01*
X137742178Y-128609330D01*
X138461361Y-127890148D01*
X138479368Y-127875370D01*
X138538351Y-127803499D01*
X138582179Y-127721501D01*
X138609169Y-127632529D01*
X138615999Y-127563181D01*
X138615999Y-127563180D01*
X138618282Y-127540001D01*
X138615999Y-127516821D01*
X138615999Y-127082552D01*
X138650765Y-127111084D01*
X138858712Y-127222234D01*
X139084347Y-127290680D01*
X139260202Y-127308000D01*
X139377798Y-127308000D01*
X139553653Y-127290680D01*
X139779288Y-127222234D01*
X139987235Y-127111084D01*
X140169502Y-126961502D01*
X140319084Y-126779235D01*
X140430234Y-126571288D01*
X140441280Y-126534874D01*
X140514843Y-126742252D01*
X140663822Y-126992355D01*
X140858731Y-127208588D01*
X141092080Y-127382641D01*
X141354901Y-127507825D01*
X141502110Y-127552476D01*
X141732000Y-127431155D01*
X141732000Y-126238000D01*
X141986000Y-126238000D01*
X141986000Y-127431155D01*
X142215890Y-127552476D01*
X142363099Y-127507825D01*
X142625920Y-127382641D01*
X142859269Y-127208588D01*
X143054178Y-126992355D01*
X143203157Y-126742252D01*
X143300481Y-126467891D01*
X143179814Y-126238000D01*
X141986000Y-126238000D01*
X141732000Y-126238000D01*
X141712000Y-126238000D01*
X141712000Y-125984000D01*
X141732000Y-125984000D01*
X141732000Y-125964000D01*
X141986000Y-125964000D01*
X141986000Y-125984000D01*
X143179814Y-125984000D01*
X143300481Y-125754109D01*
X143203157Y-125479748D01*
X143054178Y-125229645D01*
X142859269Y-125013412D01*
X142625920Y-124839359D01*
X142479626Y-124769678D01*
X142709000Y-124769678D01*
X142777024Y-124762978D01*
X142842433Y-124743136D01*
X142902715Y-124710915D01*
X142955553Y-124667553D01*
X142998915Y-124614715D01*
X143031136Y-124554433D01*
X143050978Y-124489024D01*
X143057678Y-124421000D01*
X143057678Y-122721000D01*
X143050978Y-122652976D01*
X143031136Y-122587567D01*
X142998915Y-122527285D01*
X142955553Y-122474447D01*
X142902715Y-122431085D01*
X142842433Y-122398864D01*
X142777024Y-122379022D01*
X142709000Y-122372322D01*
X141009000Y-122372322D01*
X140940976Y-122379022D01*
X140875567Y-122398864D01*
X140815285Y-122431085D01*
X140762447Y-122474447D01*
X140719085Y-122527285D01*
X140686864Y-122587567D01*
X140667022Y-122652976D01*
X140660322Y-122721000D01*
X140660322Y-124421000D01*
X140667022Y-124489024D01*
X140686864Y-124554433D01*
X140719085Y-124614715D01*
X140762447Y-124667553D01*
X140815285Y-124710915D01*
X140875567Y-124743136D01*
X140940976Y-124762978D01*
X141009000Y-124769678D01*
X141238374Y-124769678D01*
X141092080Y-124839359D01*
X140858731Y-125013412D01*
X140663822Y-125229645D01*
X140514843Y-125479748D01*
X140441280Y-125687126D01*
X140430234Y-125650712D01*
X140319084Y-125442765D01*
X140169502Y-125260498D01*
X139987235Y-125110916D01*
X139779288Y-124999766D01*
X139553653Y-124931320D01*
X139377798Y-124914000D01*
X139260202Y-124914000D01*
X139084347Y-124931320D01*
X138858712Y-124999766D01*
X138650765Y-125110916D01*
X138615999Y-125139448D01*
X138615999Y-124941509D01*
X138871419Y-124686089D01*
X139084347Y-124750680D01*
X139260202Y-124768000D01*
X139377798Y-124768000D01*
X139553653Y-124750680D01*
X139779288Y-124682234D01*
X139987235Y-124571084D01*
X140169502Y-124421502D01*
X140319084Y-124239235D01*
X140430234Y-124031288D01*
X140498680Y-123805653D01*
X140521791Y-123571000D01*
X140498680Y-123336347D01*
X140430234Y-123110712D01*
X140319084Y-122902765D01*
X140169502Y-122720498D01*
X139987235Y-122570916D01*
X139779288Y-122459766D01*
X139553653Y-122391320D01*
X139377798Y-122374000D01*
X139260202Y-122374000D01*
X139084347Y-122391320D01*
X138858712Y-122459766D01*
X138650765Y-122570916D01*
X138468498Y-122720498D01*
X138318916Y-122902765D01*
X138207766Y-123110712D01*
X138139320Y-123336347D01*
X138116209Y-123571000D01*
X138139320Y-123805653D01*
X138203911Y-124018581D01*
X137826638Y-124395854D01*
X137808631Y-124410632D01*
X137793854Y-124428638D01*
X137749647Y-124482504D01*
X137705820Y-124564501D01*
X137678829Y-124653474D01*
X137669716Y-124746001D01*
X137672000Y-124769191D01*
X137672000Y-125312282D01*
X137629502Y-125260498D01*
X137447235Y-125110916D01*
X137239288Y-124999766D01*
X137013653Y-124931320D01*
X136837798Y-124914000D01*
X136720202Y-124914000D01*
X136544347Y-124931320D01*
X136318712Y-124999766D01*
X136110765Y-125110916D01*
X135928498Y-125260498D01*
X135778916Y-125442765D01*
X135667766Y-125650712D01*
X135599320Y-125876347D01*
X135576209Y-126111000D01*
X135228663Y-126111000D01*
X135228663Y-123571000D01*
X135576209Y-123571000D01*
X135599320Y-123805653D01*
X135667766Y-124031288D01*
X135778916Y-124239235D01*
X135928498Y-124421502D01*
X136110765Y-124571084D01*
X136318712Y-124682234D01*
X136544347Y-124750680D01*
X136720202Y-124768000D01*
X136837798Y-124768000D01*
X137013653Y-124750680D01*
X137239288Y-124682234D01*
X137447235Y-124571084D01*
X137629502Y-124421502D01*
X137779084Y-124239235D01*
X137890234Y-124031288D01*
X137958680Y-123805653D01*
X137981791Y-123571000D01*
X137958680Y-123336347D01*
X137890234Y-123110712D01*
X137779084Y-122902765D01*
X137629502Y-122720498D01*
X137447235Y-122570916D01*
X137239288Y-122459766D01*
X137013653Y-122391320D01*
X136837798Y-122374000D01*
X136720202Y-122374000D01*
X136544347Y-122391320D01*
X136318712Y-122459766D01*
X136110765Y-122570916D01*
X135928498Y-122720498D01*
X135778916Y-122902765D01*
X135667766Y-123110712D01*
X135599320Y-123336347D01*
X135576209Y-123571000D01*
X135228663Y-123571000D01*
X135228663Y-123351277D01*
X135232847Y-123348481D01*
X135336895Y-123244433D01*
X135418645Y-123122086D01*
X135474956Y-122986141D01*
X135503663Y-122841822D01*
X135503663Y-122694676D01*
X135474956Y-122550357D01*
X135418645Y-122414412D01*
X135336895Y-122292065D01*
X135232847Y-122188017D01*
X135110500Y-122106267D01*
X134974555Y-122049956D01*
X134830236Y-122021249D01*
X134683090Y-122021249D01*
X134538771Y-122049956D01*
X134402826Y-122106267D01*
X134280479Y-122188017D01*
X134176431Y-122292065D01*
X134094681Y-122414412D01*
X134038370Y-122550357D01*
X134009663Y-122694676D01*
X134009663Y-122841822D01*
X134038370Y-122986141D01*
X134094681Y-123122086D01*
X134176431Y-123244433D01*
X134280479Y-123348481D01*
X134284664Y-123351277D01*
X134284663Y-126711355D01*
X134272678Y-126716319D01*
X134272678Y-126621500D01*
X134263144Y-126524700D01*
X134234909Y-126431621D01*
X134189057Y-126345838D01*
X134127351Y-126270649D01*
X134052162Y-126208943D01*
X133966379Y-126163091D01*
X133873300Y-126134856D01*
X133776500Y-126125322D01*
X133431500Y-126125322D01*
X133334700Y-126134856D01*
X133241621Y-126163091D01*
X133155838Y-126208943D01*
X133080649Y-126270649D01*
X133018943Y-126345838D01*
X132973091Y-126431621D01*
X132944856Y-126524700D01*
X132935322Y-126621500D01*
X132935322Y-126623169D01*
X132768975Y-126789517D01*
X132754329Y-126771671D01*
X132663608Y-126697217D01*
X132560104Y-126641894D01*
X132447796Y-126607825D01*
X132331000Y-126596322D01*
X131581000Y-126596322D01*
X131464204Y-126607825D01*
X131351896Y-126641894D01*
X131248392Y-126697217D01*
X131157671Y-126771671D01*
X131083217Y-126862392D01*
X131027894Y-126965896D01*
X130993825Y-127078204D01*
X130982322Y-127195000D01*
X130982322Y-127764499D01*
X130937601Y-127848166D01*
X130874874Y-128054952D01*
X130859000Y-128216119D01*
X130859000Y-128447608D01*
X130129678Y-129176931D01*
X130129678Y-128775502D01*
X130174399Y-128691835D01*
X130237126Y-128485049D01*
X130258307Y-128270000D01*
X130237126Y-128054951D01*
X130174399Y-127848165D01*
X130129678Y-127764498D01*
X130129678Y-127195000D01*
X130118175Y-127078204D01*
X130084106Y-126965896D01*
X130028783Y-126862392D01*
X129954329Y-126771671D01*
X129863608Y-126697217D01*
X129760104Y-126641894D01*
X129647796Y-126607825D01*
X129531000Y-126596322D01*
X128781000Y-126596322D01*
X128664204Y-126607825D01*
X128551896Y-126641894D01*
X128448392Y-126697217D01*
X128357671Y-126771671D01*
X128283217Y-126862392D01*
X128227894Y-126965896D01*
X128193825Y-127078204D01*
X128184489Y-127173000D01*
X127553878Y-127173000D01*
X127553878Y-127016400D01*
X127547178Y-126948376D01*
X127527336Y-126882967D01*
X127495115Y-126822685D01*
X127451753Y-126769847D01*
X127398915Y-126726485D01*
X127338633Y-126694264D01*
X127273224Y-126674422D01*
X127205200Y-126667722D01*
X125705200Y-126667722D01*
X125637176Y-126674422D01*
X125571767Y-126694264D01*
X125511485Y-126726485D01*
X125482827Y-126750004D01*
X125435737Y-126661906D01*
X125356385Y-126565215D01*
X125259694Y-126485863D01*
X125149380Y-126426898D01*
X125029682Y-126390588D01*
X124905200Y-126378328D01*
X124440950Y-126381400D01*
X124282200Y-126540150D01*
X124282200Y-127889400D01*
X124302200Y-127889400D01*
X124302200Y-128143400D01*
X124282200Y-128143400D01*
X124282200Y-129492650D01*
X124440950Y-129651400D01*
X124905200Y-129654472D01*
X125000635Y-129645073D01*
X123151109Y-131494600D01*
X123151103Y-131494604D01*
X122998304Y-131647403D01*
X122968205Y-131692450D01*
X122952200Y-131711952D01*
X122952200Y-130384381D01*
X123013739Y-130372140D01*
X123149684Y-130315829D01*
X123272031Y-130234079D01*
X123376079Y-130130031D01*
X123457829Y-130007684D01*
X123514140Y-129871739D01*
X123542847Y-129727420D01*
X123542847Y-129653561D01*
X123869450Y-129651400D01*
X124028200Y-129492650D01*
X124028200Y-128143400D01*
X124008200Y-128143400D01*
X124008200Y-127889400D01*
X124028200Y-127889400D01*
X124028200Y-126540150D01*
X123869450Y-126381400D01*
X123405200Y-126378328D01*
X123280718Y-126390588D01*
X123161020Y-126426898D01*
X123050706Y-126485863D01*
X122954015Y-126565215D01*
X122874663Y-126661906D01*
X122827573Y-126750004D01*
X122798915Y-126726485D01*
X122738633Y-126694264D01*
X122673224Y-126674422D01*
X122605200Y-126667722D01*
X121105200Y-126667722D01*
X121037176Y-126674422D01*
X120971767Y-126694264D01*
X120911485Y-126726485D01*
X120858647Y-126769847D01*
X120815285Y-126822685D01*
X120783064Y-126882967D01*
X120772012Y-126919400D01*
X120418678Y-126919400D01*
X120418678Y-126495000D01*
X120407175Y-126378204D01*
X120373106Y-126265896D01*
X120317783Y-126162392D01*
X120243329Y-126071671D01*
X120152608Y-125997217D01*
X120049104Y-125941894D01*
X119936796Y-125907825D01*
X119820000Y-125896322D01*
X119250500Y-125896322D01*
X119166834Y-125851601D01*
X118960049Y-125788874D01*
X118745000Y-125767693D01*
X118529951Y-125788874D01*
X118323166Y-125851601D01*
X118239500Y-125896322D01*
X117670000Y-125896322D01*
X117553204Y-125907825D01*
X117440896Y-125941894D01*
X117337392Y-125997217D01*
X117246671Y-126071671D01*
X117172217Y-126162392D01*
X117116894Y-126265896D01*
X117082825Y-126378204D01*
X117071322Y-126495000D01*
X117071322Y-127245000D01*
X117082825Y-127361796D01*
X117116894Y-127474104D01*
X117172217Y-127577608D01*
X117246671Y-127668329D01*
X117337392Y-127742783D01*
X117440896Y-127798106D01*
X117553204Y-127832175D01*
X117670000Y-127843678D01*
X118167287Y-127843678D01*
X118733608Y-128410000D01*
X118617998Y-128410000D01*
X118617998Y-128568748D01*
X118459250Y-128410000D01*
X117420000Y-128406928D01*
X117295518Y-128419188D01*
X117175820Y-128455498D01*
X117065506Y-128514463D01*
X116968815Y-128593815D01*
X116889463Y-128690506D01*
X116830498Y-128800820D01*
X116794188Y-128920518D01*
X116781928Y-129045000D01*
X110393516Y-129045000D01*
X110043379Y-127294319D01*
X110034805Y-126748548D01*
X111237167Y-120736743D01*
X111262573Y-120669506D01*
X111288001Y-120628822D01*
X111288000Y-123876972D01*
X111283816Y-123879768D01*
X111179768Y-123983816D01*
X111098018Y-124106163D01*
X111041707Y-124242108D01*
X111013000Y-124386427D01*
X111013000Y-124533573D01*
X111041707Y-124677892D01*
X111098018Y-124813837D01*
X111179768Y-124936184D01*
X111283816Y-125040232D01*
X111406163Y-125121982D01*
X111542108Y-125178293D01*
X111686427Y-125207000D01*
X111833573Y-125207000D01*
X111977892Y-125178293D01*
X112113837Y-125121982D01*
X112236184Y-125040232D01*
X112340232Y-124936184D01*
X112421982Y-124813837D01*
X112478293Y-124677892D01*
X112507000Y-124533573D01*
X112507000Y-124386427D01*
X112478293Y-124242108D01*
X112421982Y-124106163D01*
X112340232Y-123983816D01*
X112236184Y-123879768D01*
X112232000Y-123876972D01*
X112232000Y-122716400D01*
X121617128Y-122716400D01*
X121629388Y-122840882D01*
X121665698Y-122960580D01*
X121724663Y-123070894D01*
X121804015Y-123167585D01*
X121900706Y-123246937D01*
X122011020Y-123305902D01*
X122130718Y-123342212D01*
X122255200Y-123354472D01*
X123869450Y-123351400D01*
X124028200Y-123192650D01*
X124028200Y-121843400D01*
X124282200Y-121843400D01*
X124282200Y-123192650D01*
X124440950Y-123351400D01*
X126055200Y-123354472D01*
X126179682Y-123342212D01*
X126299380Y-123305902D01*
X126409694Y-123246937D01*
X126506385Y-123167585D01*
X126585737Y-123070894D01*
X126644702Y-122960580D01*
X126681012Y-122840882D01*
X126693272Y-122716400D01*
X126690200Y-122002150D01*
X126531450Y-121843400D01*
X124282200Y-121843400D01*
X124028200Y-121843400D01*
X121778950Y-121843400D01*
X121620200Y-122002150D01*
X121617128Y-122716400D01*
X112232000Y-122716400D01*
X112232000Y-120716400D01*
X121617128Y-120716400D01*
X121620200Y-121430650D01*
X121778950Y-121589400D01*
X124028200Y-121589400D01*
X124028200Y-120240150D01*
X124282200Y-120240150D01*
X124282200Y-121589400D01*
X126531450Y-121589400D01*
X126690200Y-121430650D01*
X126693272Y-120716400D01*
X126681012Y-120591918D01*
X126644702Y-120472220D01*
X126585737Y-120361906D01*
X126506385Y-120265215D01*
X126409694Y-120185863D01*
X126299380Y-120126898D01*
X126179682Y-120090588D01*
X126055200Y-120078328D01*
X124440950Y-120081400D01*
X124282200Y-120240150D01*
X124028200Y-120240150D01*
X123869450Y-120081400D01*
X122255200Y-120078328D01*
X122130718Y-120090588D01*
X122011020Y-120126898D01*
X121900706Y-120185863D01*
X121804015Y-120265215D01*
X121724663Y-120361906D01*
X121665698Y-120472220D01*
X121629388Y-120591918D01*
X121617128Y-120716400D01*
X112232000Y-120716400D01*
X112232000Y-119575508D01*
X113136081Y-118671427D01*
X135143000Y-118671427D01*
X135143000Y-118818573D01*
X135171707Y-118962892D01*
X135228018Y-119098837D01*
X135309768Y-119221184D01*
X135413816Y-119325232D01*
X135536163Y-119406982D01*
X135672108Y-119463293D01*
X135816427Y-119492000D01*
X135963573Y-119492000D01*
X136107892Y-119463293D01*
X136243837Y-119406982D01*
X136366184Y-119325232D01*
X136470232Y-119221184D01*
X136473028Y-119217000D01*
X137301972Y-119217000D01*
X137304768Y-119221184D01*
X137408816Y-119325232D01*
X137531163Y-119406982D01*
X137667108Y-119463293D01*
X137811427Y-119492000D01*
X137958573Y-119492000D01*
X138102892Y-119463293D01*
X138238837Y-119406982D01*
X138361184Y-119325232D01*
X138465232Y-119221184D01*
X138546982Y-119098837D01*
X138603293Y-118962892D01*
X138632000Y-118818573D01*
X138632000Y-118671427D01*
X138603293Y-118527108D01*
X138546982Y-118391163D01*
X138465232Y-118268816D01*
X138361184Y-118164768D01*
X138238837Y-118083018D01*
X138102892Y-118026707D01*
X137958573Y-117998000D01*
X137811427Y-117998000D01*
X137667108Y-118026707D01*
X137531163Y-118083018D01*
X137408816Y-118164768D01*
X137304768Y-118268816D01*
X137301972Y-118273000D01*
X136473028Y-118273000D01*
X136470232Y-118268816D01*
X136366184Y-118164768D01*
X136243837Y-118083018D01*
X136107892Y-118026707D01*
X135963573Y-117998000D01*
X135816427Y-117998000D01*
X135672108Y-118026707D01*
X135536163Y-118083018D01*
X135413816Y-118164768D01*
X135309768Y-118268816D01*
X135228018Y-118391163D01*
X135171707Y-118527108D01*
X135143000Y-118671427D01*
X113136081Y-118671427D01*
X113347357Y-118460151D01*
X113365369Y-118445369D01*
X113424352Y-118373498D01*
X113468180Y-118291500D01*
X113495170Y-118202528D01*
X113502000Y-118133180D01*
X113502000Y-118133179D01*
X113504283Y-118110001D01*
X113502000Y-118086821D01*
X113502000Y-117670508D01*
X116175571Y-114996938D01*
X117299758Y-114996938D01*
X117322938Y-114999221D01*
X117346118Y-114996938D01*
X117415466Y-114990108D01*
X117504438Y-114963118D01*
X117586436Y-114919290D01*
X117658307Y-114860307D01*
X117673090Y-114842294D01*
X117743384Y-114772000D01*
X119661034Y-114772000D01*
X119684214Y-114774283D01*
X119707394Y-114772000D01*
X119776742Y-114765170D01*
X119865714Y-114738180D01*
X119947712Y-114694352D01*
X120019583Y-114635369D01*
X120034365Y-114617357D01*
X120997615Y-113654107D01*
X122518929Y-113654107D01*
X122542109Y-113656390D01*
X122565289Y-113654107D01*
X122634637Y-113647277D01*
X122723609Y-113620287D01*
X122805607Y-113576459D01*
X122864325Y-113528271D01*
X122868535Y-113529108D01*
X123015681Y-113529108D01*
X123160000Y-113500401D01*
X123295945Y-113444090D01*
X123418292Y-113362340D01*
X123522340Y-113258292D01*
X123604090Y-113135945D01*
X123660401Y-113000000D01*
X123689108Y-112855681D01*
X123689108Y-112708535D01*
X123660401Y-112564216D01*
X123604090Y-112428271D01*
X123522340Y-112305924D01*
X123418292Y-112201876D01*
X123295945Y-112120126D01*
X123260835Y-112105583D01*
X123504398Y-111862020D01*
X126306102Y-111862020D01*
X126391024Y-111946942D01*
X126391023Y-112761784D01*
X126388740Y-112784964D01*
X126391945Y-112817507D01*
X126397853Y-112877491D01*
X126424843Y-112966463D01*
X126468671Y-113048462D01*
X126527654Y-113120333D01*
X126545666Y-113135115D01*
X127014884Y-113604334D01*
X127029662Y-113622341D01*
X127047667Y-113637117D01*
X127101533Y-113681324D01*
X127183531Y-113725152D01*
X127272503Y-113752142D01*
X127365031Y-113761255D01*
X127388211Y-113758972D01*
X128037853Y-113758972D01*
X128061033Y-113761255D01*
X128084213Y-113758972D01*
X128153561Y-113752142D01*
X128242533Y-113725152D01*
X128324531Y-113681324D01*
X128396402Y-113622341D01*
X128411184Y-113604329D01*
X128614747Y-113400766D01*
X128634862Y-113404767D01*
X128782008Y-113404767D01*
X128926327Y-113376060D01*
X129062272Y-113319749D01*
X129184619Y-113237999D01*
X129288667Y-113133951D01*
X129370417Y-113011604D01*
X129426728Y-112875659D01*
X129455435Y-112731340D01*
X129455435Y-112584194D01*
X129426728Y-112439875D01*
X129421458Y-112427153D01*
X131936819Y-112427153D01*
X131939615Y-112431337D01*
X132043663Y-112535385D01*
X132166010Y-112617135D01*
X132301955Y-112673446D01*
X132446274Y-112702153D01*
X132593420Y-112702153D01*
X132737739Y-112673446D01*
X132873684Y-112617135D01*
X132996031Y-112535385D01*
X133100079Y-112431337D01*
X133181829Y-112308990D01*
X133238140Y-112173045D01*
X133266847Y-112028726D01*
X133266847Y-111881580D01*
X133238140Y-111737261D01*
X133181829Y-111601316D01*
X133100079Y-111478969D01*
X132996031Y-111374921D01*
X132873684Y-111293171D01*
X132737739Y-111236860D01*
X132593420Y-111208153D01*
X132446274Y-111208153D01*
X132301955Y-111236860D01*
X132166010Y-111293171D01*
X132043663Y-111374921D01*
X131939615Y-111478969D01*
X131936819Y-111483153D01*
X130780482Y-111483153D01*
X130799893Y-111436292D01*
X130828600Y-111291973D01*
X130828600Y-111144827D01*
X130799893Y-111000508D01*
X130743582Y-110864563D01*
X130661832Y-110742216D01*
X130630164Y-110710548D01*
X133259965Y-111236508D01*
X133259965Y-111236508D01*
G37*
X133259965Y-111236508D02*
X133328233Y-111264785D01*
X134056801Y-111774783D01*
X134044421Y-111787163D01*
X133962671Y-111909510D01*
X133906360Y-112045455D01*
X133877653Y-112189774D01*
X133877653Y-112336920D01*
X133878635Y-112341857D01*
X132495656Y-113724836D01*
X132421547Y-113724836D01*
X132277228Y-113753543D01*
X132141283Y-113809854D01*
X132018936Y-113891604D01*
X131914888Y-113995652D01*
X131833138Y-114117999D01*
X131776827Y-114253944D01*
X131748120Y-114398263D01*
X131748120Y-114545409D01*
X131776827Y-114689728D01*
X131833138Y-114825673D01*
X131914888Y-114948020D01*
X132018936Y-115052068D01*
X132141283Y-115133818D01*
X132277228Y-115190129D01*
X132421547Y-115218836D01*
X132568693Y-115218836D01*
X132713012Y-115190129D01*
X132848957Y-115133818D01*
X132971304Y-115052068D01*
X133075352Y-114948020D01*
X133157102Y-114825673D01*
X133213413Y-114689728D01*
X133242120Y-114545409D01*
X133242120Y-114398263D01*
X133228038Y-114327470D01*
X134546143Y-113009365D01*
X134551080Y-113010347D01*
X134698226Y-113010347D01*
X134842545Y-112981640D01*
X134978490Y-112925329D01*
X135100837Y-112843579D01*
X135204885Y-112739531D01*
X135278220Y-112629777D01*
X139605999Y-115659223D01*
X142755014Y-120697646D01*
X143966434Y-126754745D01*
X143978000Y-127000000D01*
X143971012Y-127222365D01*
X143268310Y-130735877D01*
X143264450Y-130725622D01*
X143228355Y-130667576D01*
X143181629Y-130617688D01*
X143126069Y-130577874D01*
X141047609Y-129377874D01*
X140985349Y-129349664D01*
X140918782Y-129334143D01*
X140850465Y-129331907D01*
X140783026Y-129343041D01*
X140719054Y-129367118D01*
X140661008Y-129403213D01*
X140611120Y-129449939D01*
X140571306Y-129505499D01*
X139565500Y-131247605D01*
X139321574Y-131247605D01*
X139298394Y-131245322D01*
X139205867Y-131254435D01*
X139116895Y-131281425D01*
X139034897Y-131325253D01*
X138963026Y-131384236D01*
X138948244Y-131402248D01*
X138254510Y-132095982D01*
X138249573Y-132095000D01*
X138102427Y-132095000D01*
X137958108Y-132123707D01*
X137822163Y-132180018D01*
X137699816Y-132261768D01*
X137595768Y-132365816D01*
X137514018Y-132488163D01*
X137457707Y-132624108D01*
X137429000Y-132768427D01*
X137429000Y-132915573D01*
X137457707Y-133059892D01*
X137514018Y-133195837D01*
X137595768Y-133318184D01*
X137699816Y-133422232D01*
X137822163Y-133503982D01*
X137958108Y-133560293D01*
X138102427Y-133589000D01*
X138249573Y-133589000D01*
X138393892Y-133560293D01*
X138529837Y-133503982D01*
X138652184Y-133422232D01*
X138756232Y-133318184D01*
X138837982Y-133195837D01*
X138894293Y-133059892D01*
X138923000Y-132915573D01*
X138923000Y-132768427D01*
X138922018Y-132763490D01*
X138926373Y-132759135D01*
X138934145Y-132771634D01*
X138980871Y-132821522D01*
X139036431Y-132861336D01*
X141114891Y-134061336D01*
X141177151Y-134089546D01*
X141243718Y-134105067D01*
X141312035Y-134107303D01*
X141379474Y-134096169D01*
X141443446Y-134072092D01*
X141501492Y-134035997D01*
X141551380Y-133989271D01*
X141591194Y-133933711D01*
X143178655Y-131184148D01*
X142763492Y-133259966D01*
X142728091Y-133345431D01*
X139605999Y-138340777D01*
X134594171Y-141849058D01*
X134612578Y-141804619D01*
X134687400Y-141428463D01*
X134687400Y-141044937D01*
X134612578Y-140668781D01*
X134465809Y-140314450D01*
X134252734Y-139995560D01*
X133981540Y-139724366D01*
X133662650Y-139511291D01*
X133308319Y-139364522D01*
X132932163Y-139289700D01*
X132548637Y-139289700D01*
X132172481Y-139364522D01*
X131818150Y-139511291D01*
X131499260Y-139724366D01*
X131228066Y-139995560D01*
X131014991Y-140314450D01*
X130868222Y-140668781D01*
X130793400Y-141044937D01*
X130793400Y-141428463D01*
X130868222Y-141804619D01*
X131014991Y-142158950D01*
X131228066Y-142477840D01*
X131499260Y-142749034D01*
X131818150Y-142962109D01*
X131964265Y-143022632D01*
X127245255Y-143966434D01*
X127000000Y-143978000D01*
X126754745Y-143966434D01*
X122069993Y-143029484D01*
X122232650Y-142962109D01*
X122551540Y-142749034D01*
X122822734Y-142477840D01*
X123035809Y-142158950D01*
X123182578Y-141804619D01*
X123257400Y-141428463D01*
X123257400Y-141044937D01*
X123182578Y-140668781D01*
X123035809Y-140314450D01*
X122822734Y-139995560D01*
X122551540Y-139724366D01*
X122232650Y-139511291D01*
X121878319Y-139364522D01*
X121502163Y-139289700D01*
X121118637Y-139289700D01*
X120742481Y-139364522D01*
X120388150Y-139511291D01*
X120069260Y-139724366D01*
X119798066Y-139995560D01*
X119584991Y-140314450D01*
X119438222Y-140668781D01*
X119363400Y-141044937D01*
X119363400Y-141428463D01*
X119438222Y-141804619D01*
X119477373Y-141899139D01*
X116741997Y-139984375D01*
X117062250Y-139982000D01*
X117221000Y-139823250D01*
X117221000Y-138986500D01*
X117475000Y-138986500D01*
X117475000Y-139823250D01*
X117633750Y-139982000D01*
X118048000Y-139985072D01*
X118172482Y-139972812D01*
X118292180Y-139936502D01*
X118402494Y-139877537D01*
X118499185Y-139798185D01*
X118578537Y-139701494D01*
X118637502Y-139591180D01*
X118673812Y-139471482D01*
X118686072Y-139347000D01*
X118683000Y-139145250D01*
X118524250Y-138986500D01*
X117475000Y-138986500D01*
X117221000Y-138986500D01*
X116171750Y-138986500D01*
X116013000Y-139145250D01*
X116009928Y-139347000D01*
X116022188Y-139471482D01*
X116025664Y-139482942D01*
X115255140Y-138943574D01*
X126205147Y-138943574D01*
X126205147Y-139090720D01*
X126233854Y-139235039D01*
X126290165Y-139370984D01*
X126371915Y-139493331D01*
X126475963Y-139597379D01*
X126598310Y-139679129D01*
X126734255Y-139735440D01*
X126878574Y-139764147D01*
X127025720Y-139764147D01*
X127030656Y-139763165D01*
X127309806Y-140042315D01*
X127324584Y-140060322D01*
X127396455Y-140119305D01*
X127478452Y-140163133D01*
X127567425Y-140190123D01*
X127659953Y-140199236D01*
X127683133Y-140196953D01*
X127711925Y-140196953D01*
X127714721Y-140201137D01*
X127818769Y-140305185D01*
X127941116Y-140386935D01*
X128077061Y-140443246D01*
X128221380Y-140471953D01*
X128368526Y-140471953D01*
X128512845Y-140443246D01*
X128648790Y-140386935D01*
X128771137Y-140305185D01*
X128875185Y-140201137D01*
X128956935Y-140078790D01*
X129013246Y-139942845D01*
X129041953Y-139798526D01*
X129041953Y-139651380D01*
X129013246Y-139507061D01*
X128956935Y-139371116D01*
X128875185Y-139248769D01*
X128771137Y-139144721D01*
X128648790Y-139062971D01*
X128512845Y-139006660D01*
X128368526Y-138977953D01*
X128221380Y-138977953D01*
X128077061Y-139006660D01*
X127941116Y-139062971D01*
X127818769Y-139144721D01*
X127782999Y-139180491D01*
X127698165Y-139095656D01*
X127699147Y-139090720D01*
X127699147Y-138943574D01*
X127670440Y-138799255D01*
X127614129Y-138663310D01*
X127532379Y-138540963D01*
X127428331Y-138436915D01*
X127305984Y-138355165D01*
X127170039Y-138298854D01*
X127025720Y-138270147D01*
X126878574Y-138270147D01*
X126734255Y-138298854D01*
X126598310Y-138355165D01*
X126475963Y-138436915D01*
X126371915Y-138540963D01*
X126290165Y-138663310D01*
X126233854Y-138799255D01*
X126205147Y-138943574D01*
X115255140Y-138943574D01*
X114438606Y-138372000D01*
X116009928Y-138372000D01*
X116013000Y-138573750D01*
X116171750Y-138732500D01*
X117221000Y-138732500D01*
X117221000Y-138712500D01*
X117475000Y-138712500D01*
X117475000Y-138732500D01*
X118524250Y-138732500D01*
X118683000Y-138573750D01*
X118686072Y-138372000D01*
X118673812Y-138247518D01*
X118637502Y-138127820D01*
X118578537Y-138017506D01*
X118499185Y-137920815D01*
X118402494Y-137841463D01*
X118292180Y-137782498D01*
X118172482Y-137746188D01*
X118099417Y-137738992D01*
X118133385Y-137720836D01*
X118223160Y-137647160D01*
X118296836Y-137557385D01*
X118351582Y-137454962D01*
X118378275Y-137366967D01*
X136100339Y-137366967D01*
X136111473Y-137434406D01*
X136135550Y-137498378D01*
X136171645Y-137556424D01*
X136218371Y-137606312D01*
X136273931Y-137646126D01*
X138352391Y-138846126D01*
X138414651Y-138874336D01*
X138481218Y-138889857D01*
X138549535Y-138892093D01*
X138616974Y-138880959D01*
X138680946Y-138856882D01*
X138738992Y-138820787D01*
X138788880Y-138774061D01*
X138828694Y-138718501D01*
X140491194Y-135838967D01*
X140519404Y-135776707D01*
X140534925Y-135710140D01*
X140537161Y-135641823D01*
X140526027Y-135574384D01*
X140501950Y-135510412D01*
X140465855Y-135452366D01*
X140419129Y-135402478D01*
X140363569Y-135362664D01*
X138285109Y-134162664D01*
X138222849Y-134134454D01*
X138156282Y-134118933D01*
X138087965Y-134116697D01*
X138020526Y-134127831D01*
X137956554Y-134151908D01*
X137898508Y-134188003D01*
X137848620Y-134234729D01*
X137808806Y-134290289D01*
X137613142Y-134629188D01*
X137567982Y-134520163D01*
X137486232Y-134397816D01*
X137382184Y-134293768D01*
X137259837Y-134212018D01*
X137123892Y-134155707D01*
X136979573Y-134127000D01*
X136832427Y-134127000D01*
X136688108Y-134155707D01*
X136552163Y-134212018D01*
X136429816Y-134293768D01*
X136325768Y-134397816D01*
X136244018Y-134520163D01*
X136187707Y-134656108D01*
X136159000Y-134800427D01*
X136159000Y-134947573D01*
X136187707Y-135091892D01*
X136244018Y-135227837D01*
X136325768Y-135350184D01*
X136429816Y-135454232D01*
X136552163Y-135535982D01*
X136688108Y-135592293D01*
X136832427Y-135621000D01*
X136979573Y-135621000D01*
X136984510Y-135620018D01*
X137020378Y-135655886D01*
X136146306Y-137169823D01*
X136118096Y-137232083D01*
X136102575Y-137298650D01*
X136100339Y-137366967D01*
X118378275Y-137366967D01*
X118385295Y-137343827D01*
X118396678Y-137228250D01*
X118396678Y-136740750D01*
X118385295Y-136625173D01*
X118382861Y-136617148D01*
X118427362Y-136572647D01*
X118441032Y-136561428D01*
X118463837Y-136551982D01*
X118586184Y-136470232D01*
X118690232Y-136366184D01*
X118771982Y-136243837D01*
X118828293Y-136107892D01*
X118857000Y-135963573D01*
X118857000Y-135816427D01*
X118828293Y-135672108D01*
X118771982Y-135536163D01*
X118690232Y-135413816D01*
X118586184Y-135309768D01*
X118463837Y-135228018D01*
X118327892Y-135171707D01*
X118183573Y-135143000D01*
X118036427Y-135143000D01*
X117892108Y-135171707D01*
X117756163Y-135228018D01*
X117633816Y-135309768D01*
X117529768Y-135413816D01*
X117448018Y-135536163D01*
X117391707Y-135672108D01*
X117363000Y-135816427D01*
X117363000Y-135963573D01*
X117391707Y-136107892D01*
X117408454Y-136148322D01*
X116891750Y-136148322D01*
X116776173Y-136159705D01*
X116665038Y-136193418D01*
X116562615Y-136248164D01*
X116472840Y-136321840D01*
X116399164Y-136411615D01*
X116344418Y-136514038D01*
X116310705Y-136625173D01*
X116299322Y-136740750D01*
X116299322Y-137228250D01*
X116310705Y-137343827D01*
X116344418Y-137454962D01*
X116399164Y-137557385D01*
X116472840Y-137647160D01*
X116562615Y-137720836D01*
X116596583Y-137738992D01*
X116523518Y-137746188D01*
X116403820Y-137782498D01*
X116293506Y-137841463D01*
X116196815Y-137920815D01*
X116117463Y-138017506D01*
X116058498Y-138127820D01*
X116022188Y-138247518D01*
X116009928Y-138372000D01*
X114438606Y-138372000D01*
X114394001Y-138340777D01*
X111271909Y-133345431D01*
X111236508Y-133259966D01*
X110643516Y-130295000D01*
X116781928Y-130295000D01*
X116794188Y-130419482D01*
X116830498Y-130539180D01*
X116889463Y-130649494D01*
X116968815Y-130746185D01*
X117065506Y-130825537D01*
X117175820Y-130884502D01*
X117295518Y-130920812D01*
X117420000Y-130933072D01*
X118459250Y-130930000D01*
X118618000Y-130771250D01*
X118618000Y-129797000D01*
X118872000Y-129797000D01*
X118872000Y-130771250D01*
X119030750Y-130930000D01*
X120070000Y-130933072D01*
X120194482Y-130920812D01*
X120314180Y-130884502D01*
X120424494Y-130825537D01*
X120521185Y-130746185D01*
X120600537Y-130649494D01*
X120659502Y-130539180D01*
X120695812Y-130419482D01*
X120708072Y-130295000D01*
X120705000Y-129955750D01*
X120546250Y-129797000D01*
X118872000Y-129797000D01*
X118618000Y-129797000D01*
X116943750Y-129797000D01*
X116785000Y-129955750D01*
X116781928Y-130295000D01*
X110643516Y-130295000D01*
X110393516Y-129045000D01*
X116781928Y-129045000D01*
X116785000Y-129384250D01*
X116943750Y-129543000D01*
X118618000Y-129543000D01*
X118618000Y-129523000D01*
X118872000Y-129523000D01*
X118872000Y-129543000D01*
X120546250Y-129543000D01*
X120705000Y-129384250D01*
X120707453Y-129113400D01*
X120758200Y-129113400D01*
X120758200Y-129912681D01*
X120758201Y-129912691D01*
X120758200Y-134107618D01*
X120752893Y-134161500D01*
X120774074Y-134376549D01*
X120818758Y-134523855D01*
X120836801Y-134583334D01*
X120938665Y-134773909D01*
X121075751Y-134940949D01*
X121117614Y-134975305D01*
X121481722Y-135339413D01*
X121481722Y-135636700D01*
X121488422Y-135704724D01*
X121508264Y-135770133D01*
X121540485Y-135830415D01*
X121583847Y-135883253D01*
X121636685Y-135926615D01*
X121696967Y-135958836D01*
X121762376Y-135978678D01*
X121830400Y-135985378D01*
X122543555Y-135985378D01*
X122580400Y-135989007D01*
X122617245Y-135985378D01*
X123330400Y-135985378D01*
X123398424Y-135978678D01*
X123463833Y-135958836D01*
X123524115Y-135926615D01*
X123576953Y-135883253D01*
X123620315Y-135830415D01*
X123652536Y-135770133D01*
X123672378Y-135704724D01*
X123679078Y-135636700D01*
X123679078Y-134923545D01*
X123682707Y-134886700D01*
X123679078Y-134849855D01*
X123679078Y-134778655D01*
X124023400Y-134778655D01*
X124023400Y-134994745D01*
X124065557Y-135206683D01*
X124148251Y-135406324D01*
X124268304Y-135585997D01*
X124421103Y-135738796D01*
X124600776Y-135858849D01*
X124800417Y-135941543D01*
X125012355Y-135983700D01*
X125228445Y-135983700D01*
X125440383Y-135941543D01*
X125640024Y-135858849D01*
X125819697Y-135738796D01*
X125972496Y-135585997D01*
X126092549Y-135406324D01*
X126175243Y-135206683D01*
X126217400Y-134994745D01*
X126217400Y-134778655D01*
X126563400Y-134778655D01*
X126563400Y-134994745D01*
X126605557Y-135206683D01*
X126688251Y-135406324D01*
X126808304Y-135585997D01*
X126961103Y-135738796D01*
X127140776Y-135858849D01*
X127340417Y-135941543D01*
X127552355Y-135983700D01*
X127768445Y-135983700D01*
X127980383Y-135941543D01*
X128180024Y-135858849D01*
X128359697Y-135738796D01*
X128512496Y-135585997D01*
X128632549Y-135406324D01*
X128715243Y-135206683D01*
X128757400Y-134994745D01*
X128757400Y-134778655D01*
X129103400Y-134778655D01*
X129103400Y-134994745D01*
X129145557Y-135206683D01*
X129228251Y-135406324D01*
X129348304Y-135585997D01*
X129501103Y-135738796D01*
X129680776Y-135858849D01*
X129880417Y-135941543D01*
X130092355Y-135983700D01*
X130308445Y-135983700D01*
X130520383Y-135941543D01*
X130720024Y-135858849D01*
X130899697Y-135738796D01*
X131052496Y-135585997D01*
X131172549Y-135406324D01*
X131255243Y-135206683D01*
X131297400Y-134994745D01*
X131297400Y-134778655D01*
X131255243Y-134566717D01*
X131172549Y-134367076D01*
X131052496Y-134187403D01*
X130899697Y-134034604D01*
X130720024Y-133914551D01*
X130520383Y-133831857D01*
X130308445Y-133789700D01*
X130092355Y-133789700D01*
X129880417Y-133831857D01*
X129680776Y-133914551D01*
X129501103Y-134034604D01*
X129348304Y-134187403D01*
X129228251Y-134367076D01*
X129145557Y-134566717D01*
X129103400Y-134778655D01*
X128757400Y-134778655D01*
X128715243Y-134566717D01*
X128632549Y-134367076D01*
X128512496Y-134187403D01*
X128359697Y-134034604D01*
X128180024Y-133914551D01*
X127980383Y-133831857D01*
X127768445Y-133789700D01*
X127552355Y-133789700D01*
X127340417Y-133831857D01*
X127140776Y-133914551D01*
X126961103Y-134034604D01*
X126808304Y-134187403D01*
X126688251Y-134367076D01*
X126605557Y-134566717D01*
X126563400Y-134778655D01*
X126217400Y-134778655D01*
X126175243Y-134566717D01*
X126092549Y-134367076D01*
X125972496Y-134187403D01*
X125819697Y-134034604D01*
X125640024Y-133914551D01*
X125440383Y-133831857D01*
X125228445Y-133789700D01*
X125012355Y-133789700D01*
X124800417Y-133831857D01*
X124600776Y-133914551D01*
X124421103Y-134034604D01*
X124268304Y-134187403D01*
X124148251Y-134367076D01*
X124065557Y-134566717D01*
X124023400Y-134778655D01*
X123679078Y-134778655D01*
X123679078Y-134136700D01*
X123672378Y-134068676D01*
X123652536Y-134003267D01*
X123620315Y-133942985D01*
X123576953Y-133890147D01*
X123524115Y-133846785D01*
X123463833Y-133814564D01*
X123398424Y-133794722D01*
X123330400Y-133788022D01*
X123033113Y-133788022D01*
X122952200Y-133707109D01*
X122952200Y-132981448D01*
X122968204Y-133000950D01*
X122998304Y-133045997D01*
X123036614Y-133084307D01*
X123070952Y-133126148D01*
X123112793Y-133160486D01*
X123151103Y-133198796D01*
X123196150Y-133228896D01*
X123237992Y-133263234D01*
X123285733Y-133288752D01*
X123330776Y-133318849D01*
X123380819Y-133339578D01*
X123428566Y-133365099D01*
X123480375Y-133380815D01*
X123530417Y-133401543D01*
X123583543Y-133412110D01*
X123635351Y-133427826D01*
X123689229Y-133433133D01*
X123742355Y-133443700D01*
X123796518Y-133443700D01*
X123850400Y-133449007D01*
X123904282Y-133443700D01*
X123958445Y-133443700D01*
X124011571Y-133433133D01*
X124065449Y-133427826D01*
X124117257Y-133412110D01*
X124170383Y-133401543D01*
X124220425Y-133380815D01*
X124272234Y-133365099D01*
X124319981Y-133339578D01*
X124370024Y-133318849D01*
X124415067Y-133288752D01*
X124462808Y-133263234D01*
X124504650Y-133228895D01*
X124549697Y-133198796D01*
X124702496Y-133045997D01*
X124702500Y-133045991D01*
X125293457Y-132455034D01*
X125335557Y-132666683D01*
X125418251Y-132866324D01*
X125538304Y-133045997D01*
X125691103Y-133198796D01*
X125870776Y-133318849D01*
X126070417Y-133401543D01*
X126282355Y-133443700D01*
X126498445Y-133443700D01*
X126710383Y-133401543D01*
X126910024Y-133318849D01*
X127089697Y-133198796D01*
X127242496Y-133045997D01*
X127362549Y-132866324D01*
X127445243Y-132666683D01*
X127487400Y-132454745D01*
X127487400Y-132238655D01*
X127833400Y-132238655D01*
X127833400Y-132454745D01*
X127875557Y-132666683D01*
X127958251Y-132866324D01*
X128078304Y-133045997D01*
X128231103Y-133198796D01*
X128410776Y-133318849D01*
X128610417Y-133401543D01*
X128822355Y-133443700D01*
X129038445Y-133443700D01*
X129250383Y-133401543D01*
X129450024Y-133318849D01*
X129629697Y-133198796D01*
X129782496Y-133045997D01*
X129902549Y-132866324D01*
X129985243Y-132666683D01*
X130027400Y-132454745D01*
X130027400Y-132238655D01*
X129985243Y-132026717D01*
X129902549Y-131827076D01*
X129782496Y-131647403D01*
X129629697Y-131494604D01*
X129450024Y-131374551D01*
X129250383Y-131291857D01*
X129038445Y-131249700D01*
X128822355Y-131249700D01*
X128610417Y-131291857D01*
X128410776Y-131374551D01*
X128231103Y-131494604D01*
X128078304Y-131647403D01*
X127958251Y-131827076D01*
X127875557Y-132026717D01*
X127833400Y-132238655D01*
X127487400Y-132238655D01*
X127445243Y-132026717D01*
X127362549Y-131827076D01*
X127242496Y-131647403D01*
X127089697Y-131494604D01*
X126910024Y-131374551D01*
X126710383Y-131291857D01*
X126498735Y-131249758D01*
X127192797Y-130555696D01*
X127234649Y-130521349D01*
X127371735Y-130354309D01*
X127473599Y-130163735D01*
X127526538Y-129989216D01*
X127536326Y-129956950D01*
X127557507Y-129741901D01*
X127552200Y-129688019D01*
X127552200Y-129367000D01*
X128184489Y-129367000D01*
X128193825Y-129461796D01*
X128227894Y-129574104D01*
X128283217Y-129677608D01*
X128357671Y-129768329D01*
X128448392Y-129842783D01*
X128551896Y-129898106D01*
X128664204Y-129932175D01*
X128781000Y-129943678D01*
X129385420Y-129943678D01*
X129359948Y-129991333D01*
X129329851Y-130036376D01*
X129309122Y-130086419D01*
X129283601Y-130134166D01*
X129267885Y-130185975D01*
X129247157Y-130236017D01*
X129236590Y-130289143D01*
X129220874Y-130340951D01*
X129215567Y-130394829D01*
X129205000Y-130447955D01*
X129205000Y-130502118D01*
X129199693Y-130556000D01*
X129205000Y-130609882D01*
X129205000Y-130664045D01*
X129215567Y-130717171D01*
X129220874Y-130771049D01*
X129236590Y-130822857D01*
X129247157Y-130875983D01*
X129267885Y-130926025D01*
X129283601Y-130977834D01*
X129309122Y-131025581D01*
X129329851Y-131075624D01*
X129359948Y-131120667D01*
X129385466Y-131168408D01*
X129419804Y-131210250D01*
X129449904Y-131255297D01*
X129488214Y-131293607D01*
X129522552Y-131335448D01*
X129564393Y-131369786D01*
X129602703Y-131408096D01*
X129647750Y-131438196D01*
X129689592Y-131472534D01*
X129737333Y-131498052D01*
X129782376Y-131528149D01*
X129832419Y-131548878D01*
X129880166Y-131574399D01*
X129931975Y-131590115D01*
X129982017Y-131610843D01*
X130035143Y-131621410D01*
X130086951Y-131637126D01*
X130140829Y-131642433D01*
X130193955Y-131653000D01*
X130248118Y-131653000D01*
X130302000Y-131658307D01*
X130355882Y-131653000D01*
X130410045Y-131653000D01*
X130463171Y-131642433D01*
X130517049Y-131637126D01*
X130568857Y-131621410D01*
X130621983Y-131610843D01*
X130672025Y-131590115D01*
X130677145Y-131588562D01*
X130618304Y-131647403D01*
X130498251Y-131827076D01*
X130415557Y-132026717D01*
X130373400Y-132238655D01*
X130373400Y-132454745D01*
X130415557Y-132666683D01*
X130498251Y-132866324D01*
X130618304Y-133045997D01*
X130771103Y-133198796D01*
X130950776Y-133318849D01*
X131150417Y-133401543D01*
X131362355Y-133443700D01*
X131578445Y-133443700D01*
X131790383Y-133401543D01*
X131990024Y-133318849D01*
X132169697Y-133198796D01*
X132322496Y-133045997D01*
X132442549Y-132866324D01*
X132525243Y-132666683D01*
X132567400Y-132454745D01*
X132567400Y-132238655D01*
X132525243Y-132026717D01*
X132442549Y-131827076D01*
X132322496Y-131647403D01*
X132169697Y-131494604D01*
X131990024Y-131374551D01*
X131790383Y-131291857D01*
X131578445Y-131249700D01*
X131362355Y-131249700D01*
X131150417Y-131291857D01*
X131094286Y-131315107D01*
X131154096Y-131255297D01*
X131154100Y-131255291D01*
X132490028Y-129919364D01*
X132560104Y-129898106D01*
X132663608Y-129842783D01*
X132754329Y-129768329D01*
X132828783Y-129677608D01*
X132884106Y-129574104D01*
X132918175Y-129461796D01*
X132922132Y-129421620D01*
X132974399Y-129323835D01*
X132998868Y-129243170D01*
X133037126Y-129117050D01*
X133058307Y-128902001D01*
X133053000Y-128848119D01*
X133053000Y-128216118D01*
X133051606Y-128201962D01*
X133080649Y-128237351D01*
X133130533Y-128278290D01*
X133138830Y-128362527D01*
X133165821Y-128451500D01*
X133199496Y-128514502D01*
X133209649Y-128533498D01*
X133268632Y-128605369D01*
X133286637Y-128620145D01*
X133761853Y-129095362D01*
X133776631Y-129113369D01*
X133848502Y-129172352D01*
X133930500Y-129216180D01*
X134019472Y-129243170D01*
X134088820Y-129250000D01*
X134088821Y-129250000D01*
X134111999Y-129252283D01*
X134135177Y-129250000D01*
X134194822Y-129250000D01*
X134194822Y-129488250D01*
X134206205Y-129603827D01*
X134239918Y-129714962D01*
X134294664Y-129817385D01*
X134368340Y-129907160D01*
X134458115Y-129980836D01*
X134560538Y-130035582D01*
X134671673Y-130069295D01*
X134787250Y-130080678D01*
X135274750Y-130080678D01*
X135390327Y-130069295D01*
X135501462Y-130035582D01*
X135603885Y-129980836D01*
X135693660Y-129907160D01*
X135767336Y-129817385D01*
X135822082Y-129714962D01*
X135855795Y-129603827D01*
X135867178Y-129488250D01*
X135867178Y-128575750D01*
X135855795Y-128460173D01*
X135822082Y-128349038D01*
X135767336Y-128246615D01*
X135693660Y-128156840D01*
X135603885Y-128083164D01*
X135501462Y-128028418D01*
X135390327Y-127994705D01*
X135274750Y-127983322D01*
X135063124Y-127983322D01*
X135096184Y-127961232D01*
X135200232Y-127857184D01*
X135281982Y-127734837D01*
X135338293Y-127598892D01*
X135367000Y-127454573D01*
X135367000Y-127307427D01*
X135338293Y-127163108D01*
X135281982Y-127027163D01*
X135228663Y-126947366D01*
X135228663Y-126111000D01*
X135576209Y-126111000D01*
X135599320Y-126345653D01*
X135667766Y-126571288D01*
X135778916Y-126779235D01*
X135928498Y-126961502D01*
X136110765Y-127111084D01*
X136318712Y-127222234D01*
X136544347Y-127290680D01*
X136720202Y-127308000D01*
X136837798Y-127308000D01*
X137013653Y-127290680D01*
X137239288Y-127222234D01*
X137447235Y-127111084D01*
X137629502Y-126961502D01*
X137671999Y-126909719D01*
X137671999Y-127344492D01*
X137033170Y-127983322D01*
X136662250Y-127983322D01*
X136546673Y-127994705D01*
X136435538Y-128028418D01*
X136333115Y-128083164D01*
X136243340Y-128156840D01*
X136169664Y-128246615D01*
X136114918Y-128349038D01*
X136081205Y-128460173D01*
X136069822Y-128575750D01*
X136069822Y-129488250D01*
X136081205Y-129603827D01*
X136114918Y-129714962D01*
X136169664Y-129817385D01*
X136243340Y-129907160D01*
X136333115Y-129980836D01*
X136435538Y-130035582D01*
X136546673Y-130069295D01*
X136662250Y-130080678D01*
X137149750Y-130080678D01*
X137265327Y-130069295D01*
X137376462Y-130035582D01*
X137478885Y-129980836D01*
X137568660Y-129907160D01*
X137642336Y-129817385D01*
X137697082Y-129714962D01*
X137730795Y-129603827D01*
X137742178Y-129488250D01*
X137742178Y-128609330D01*
X138461361Y-127890148D01*
X138479368Y-127875370D01*
X138538351Y-127803499D01*
X138582179Y-127721501D01*
X138609169Y-127632529D01*
X138615999Y-127563181D01*
X138615999Y-127563180D01*
X138618282Y-127540001D01*
X138615999Y-127516821D01*
X138615999Y-127082552D01*
X138650765Y-127111084D01*
X138858712Y-127222234D01*
X139084347Y-127290680D01*
X139260202Y-127308000D01*
X139377798Y-127308000D01*
X139553653Y-127290680D01*
X139779288Y-127222234D01*
X139987235Y-127111084D01*
X140169502Y-126961502D01*
X140319084Y-126779235D01*
X140430234Y-126571288D01*
X140441280Y-126534874D01*
X140514843Y-126742252D01*
X140663822Y-126992355D01*
X140858731Y-127208588D01*
X141092080Y-127382641D01*
X141354901Y-127507825D01*
X141502110Y-127552476D01*
X141732000Y-127431155D01*
X141732000Y-126238000D01*
X141986000Y-126238000D01*
X141986000Y-127431155D01*
X142215890Y-127552476D01*
X142363099Y-127507825D01*
X142625920Y-127382641D01*
X142859269Y-127208588D01*
X143054178Y-126992355D01*
X143203157Y-126742252D01*
X143300481Y-126467891D01*
X143179814Y-126238000D01*
X141986000Y-126238000D01*
X141732000Y-126238000D01*
X141712000Y-126238000D01*
X141712000Y-125984000D01*
X141732000Y-125984000D01*
X141732000Y-125964000D01*
X141986000Y-125964000D01*
X141986000Y-125984000D01*
X143179814Y-125984000D01*
X143300481Y-125754109D01*
X143203157Y-125479748D01*
X143054178Y-125229645D01*
X142859269Y-125013412D01*
X142625920Y-124839359D01*
X142479626Y-124769678D01*
X142709000Y-124769678D01*
X142777024Y-124762978D01*
X142842433Y-124743136D01*
X142902715Y-124710915D01*
X142955553Y-124667553D01*
X142998915Y-124614715D01*
X143031136Y-124554433D01*
X143050978Y-124489024D01*
X143057678Y-124421000D01*
X143057678Y-122721000D01*
X143050978Y-122652976D01*
X143031136Y-122587567D01*
X142998915Y-122527285D01*
X142955553Y-122474447D01*
X142902715Y-122431085D01*
X142842433Y-122398864D01*
X142777024Y-122379022D01*
X142709000Y-122372322D01*
X141009000Y-122372322D01*
X140940976Y-122379022D01*
X140875567Y-122398864D01*
X140815285Y-122431085D01*
X140762447Y-122474447D01*
X140719085Y-122527285D01*
X140686864Y-122587567D01*
X140667022Y-122652976D01*
X140660322Y-122721000D01*
X140660322Y-124421000D01*
X140667022Y-124489024D01*
X140686864Y-124554433D01*
X140719085Y-124614715D01*
X140762447Y-124667553D01*
X140815285Y-124710915D01*
X140875567Y-124743136D01*
X140940976Y-124762978D01*
X141009000Y-124769678D01*
X141238374Y-124769678D01*
X141092080Y-124839359D01*
X140858731Y-125013412D01*
X140663822Y-125229645D01*
X140514843Y-125479748D01*
X140441280Y-125687126D01*
X140430234Y-125650712D01*
X140319084Y-125442765D01*
X140169502Y-125260498D01*
X139987235Y-125110916D01*
X139779288Y-124999766D01*
X139553653Y-124931320D01*
X139377798Y-124914000D01*
X139260202Y-124914000D01*
X139084347Y-124931320D01*
X138858712Y-124999766D01*
X138650765Y-125110916D01*
X138615999Y-125139448D01*
X138615999Y-124941509D01*
X138871419Y-124686089D01*
X139084347Y-124750680D01*
X139260202Y-124768000D01*
X139377798Y-124768000D01*
X139553653Y-124750680D01*
X139779288Y-124682234D01*
X139987235Y-124571084D01*
X140169502Y-124421502D01*
X140319084Y-124239235D01*
X140430234Y-124031288D01*
X140498680Y-123805653D01*
X140521791Y-123571000D01*
X140498680Y-123336347D01*
X140430234Y-123110712D01*
X140319084Y-122902765D01*
X140169502Y-122720498D01*
X139987235Y-122570916D01*
X139779288Y-122459766D01*
X139553653Y-122391320D01*
X139377798Y-122374000D01*
X139260202Y-122374000D01*
X139084347Y-122391320D01*
X138858712Y-122459766D01*
X138650765Y-122570916D01*
X138468498Y-122720498D01*
X138318916Y-122902765D01*
X138207766Y-123110712D01*
X138139320Y-123336347D01*
X138116209Y-123571000D01*
X138139320Y-123805653D01*
X138203911Y-124018581D01*
X137826638Y-124395854D01*
X137808631Y-124410632D01*
X137793854Y-124428638D01*
X137749647Y-124482504D01*
X137705820Y-124564501D01*
X137678829Y-124653474D01*
X137669716Y-124746001D01*
X137672000Y-124769191D01*
X137672000Y-125312282D01*
X137629502Y-125260498D01*
X137447235Y-125110916D01*
X137239288Y-124999766D01*
X137013653Y-124931320D01*
X136837798Y-124914000D01*
X136720202Y-124914000D01*
X136544347Y-124931320D01*
X136318712Y-124999766D01*
X136110765Y-125110916D01*
X135928498Y-125260498D01*
X135778916Y-125442765D01*
X135667766Y-125650712D01*
X135599320Y-125876347D01*
X135576209Y-126111000D01*
X135228663Y-126111000D01*
X135228663Y-123571000D01*
X135576209Y-123571000D01*
X135599320Y-123805653D01*
X135667766Y-124031288D01*
X135778916Y-124239235D01*
X135928498Y-124421502D01*
X136110765Y-124571084D01*
X136318712Y-124682234D01*
X136544347Y-124750680D01*
X136720202Y-124768000D01*
X136837798Y-124768000D01*
X137013653Y-124750680D01*
X137239288Y-124682234D01*
X137447235Y-124571084D01*
X137629502Y-124421502D01*
X137779084Y-124239235D01*
X137890234Y-124031288D01*
X137958680Y-123805653D01*
X137981791Y-123571000D01*
X137958680Y-123336347D01*
X137890234Y-123110712D01*
X137779084Y-122902765D01*
X137629502Y-122720498D01*
X137447235Y-122570916D01*
X137239288Y-122459766D01*
X137013653Y-122391320D01*
X136837798Y-122374000D01*
X136720202Y-122374000D01*
X136544347Y-122391320D01*
X136318712Y-122459766D01*
X136110765Y-122570916D01*
X135928498Y-122720498D01*
X135778916Y-122902765D01*
X135667766Y-123110712D01*
X135599320Y-123336347D01*
X135576209Y-123571000D01*
X135228663Y-123571000D01*
X135228663Y-123351277D01*
X135232847Y-123348481D01*
X135336895Y-123244433D01*
X135418645Y-123122086D01*
X135474956Y-122986141D01*
X135503663Y-122841822D01*
X135503663Y-122694676D01*
X135474956Y-122550357D01*
X135418645Y-122414412D01*
X135336895Y-122292065D01*
X135232847Y-122188017D01*
X135110500Y-122106267D01*
X134974555Y-122049956D01*
X134830236Y-122021249D01*
X134683090Y-122021249D01*
X134538771Y-122049956D01*
X134402826Y-122106267D01*
X134280479Y-122188017D01*
X134176431Y-122292065D01*
X134094681Y-122414412D01*
X134038370Y-122550357D01*
X134009663Y-122694676D01*
X134009663Y-122841822D01*
X134038370Y-122986141D01*
X134094681Y-123122086D01*
X134176431Y-123244433D01*
X134280479Y-123348481D01*
X134284664Y-123351277D01*
X134284663Y-126711355D01*
X134272678Y-126716319D01*
X134272678Y-126621500D01*
X134263144Y-126524700D01*
X134234909Y-126431621D01*
X134189057Y-126345838D01*
X134127351Y-126270649D01*
X134052162Y-126208943D01*
X133966379Y-126163091D01*
X133873300Y-126134856D01*
X133776500Y-126125322D01*
X133431500Y-126125322D01*
X133334700Y-126134856D01*
X133241621Y-126163091D01*
X133155838Y-126208943D01*
X133080649Y-126270649D01*
X133018943Y-126345838D01*
X132973091Y-126431621D01*
X132944856Y-126524700D01*
X132935322Y-126621500D01*
X132935322Y-126623169D01*
X132768975Y-126789517D01*
X132754329Y-126771671D01*
X132663608Y-126697217D01*
X132560104Y-126641894D01*
X132447796Y-126607825D01*
X132331000Y-126596322D01*
X131581000Y-126596322D01*
X131464204Y-126607825D01*
X131351896Y-126641894D01*
X131248392Y-126697217D01*
X131157671Y-126771671D01*
X131083217Y-126862392D01*
X131027894Y-126965896D01*
X130993825Y-127078204D01*
X130982322Y-127195000D01*
X130982322Y-127764499D01*
X130937601Y-127848166D01*
X130874874Y-128054952D01*
X130859000Y-128216119D01*
X130859000Y-128447608D01*
X130129678Y-129176931D01*
X130129678Y-128775502D01*
X130174399Y-128691835D01*
X130237126Y-128485049D01*
X130258307Y-128270000D01*
X130237126Y-128054951D01*
X130174399Y-127848165D01*
X130129678Y-127764498D01*
X130129678Y-127195000D01*
X130118175Y-127078204D01*
X130084106Y-126965896D01*
X130028783Y-126862392D01*
X129954329Y-126771671D01*
X129863608Y-126697217D01*
X129760104Y-126641894D01*
X129647796Y-126607825D01*
X129531000Y-126596322D01*
X128781000Y-126596322D01*
X128664204Y-126607825D01*
X128551896Y-126641894D01*
X128448392Y-126697217D01*
X128357671Y-126771671D01*
X128283217Y-126862392D01*
X128227894Y-126965896D01*
X128193825Y-127078204D01*
X128184489Y-127173000D01*
X127553878Y-127173000D01*
X127553878Y-127016400D01*
X127547178Y-126948376D01*
X127527336Y-126882967D01*
X127495115Y-126822685D01*
X127451753Y-126769847D01*
X127398915Y-126726485D01*
X127338633Y-126694264D01*
X127273224Y-126674422D01*
X127205200Y-126667722D01*
X125705200Y-126667722D01*
X125637176Y-126674422D01*
X125571767Y-126694264D01*
X125511485Y-126726485D01*
X125482827Y-126750004D01*
X125435737Y-126661906D01*
X125356385Y-126565215D01*
X125259694Y-126485863D01*
X125149380Y-126426898D01*
X125029682Y-126390588D01*
X124905200Y-126378328D01*
X124440950Y-126381400D01*
X124282200Y-126540150D01*
X124282200Y-127889400D01*
X124302200Y-127889400D01*
X124302200Y-128143400D01*
X124282200Y-128143400D01*
X124282200Y-129492650D01*
X124440950Y-129651400D01*
X124905200Y-129654472D01*
X125000635Y-129645073D01*
X123151109Y-131494600D01*
X123151103Y-131494604D01*
X122998304Y-131647403D01*
X122968205Y-131692450D01*
X122952200Y-131711952D01*
X122952200Y-130384381D01*
X123013739Y-130372140D01*
X123149684Y-130315829D01*
X123272031Y-130234079D01*
X123376079Y-130130031D01*
X123457829Y-130007684D01*
X123514140Y-129871739D01*
X123542847Y-129727420D01*
X123542847Y-129653561D01*
X123869450Y-129651400D01*
X124028200Y-129492650D01*
X124028200Y-128143400D01*
X124008200Y-128143400D01*
X124008200Y-127889400D01*
X124028200Y-127889400D01*
X124028200Y-126540150D01*
X123869450Y-126381400D01*
X123405200Y-126378328D01*
X123280718Y-126390588D01*
X123161020Y-126426898D01*
X123050706Y-126485863D01*
X122954015Y-126565215D01*
X122874663Y-126661906D01*
X122827573Y-126750004D01*
X122798915Y-126726485D01*
X122738633Y-126694264D01*
X122673224Y-126674422D01*
X122605200Y-126667722D01*
X121105200Y-126667722D01*
X121037176Y-126674422D01*
X120971767Y-126694264D01*
X120911485Y-126726485D01*
X120858647Y-126769847D01*
X120815285Y-126822685D01*
X120783064Y-126882967D01*
X120772012Y-126919400D01*
X120418678Y-126919400D01*
X120418678Y-126495000D01*
X120407175Y-126378204D01*
X120373106Y-126265896D01*
X120317783Y-126162392D01*
X120243329Y-126071671D01*
X120152608Y-125997217D01*
X120049104Y-125941894D01*
X119936796Y-125907825D01*
X119820000Y-125896322D01*
X119250500Y-125896322D01*
X119166834Y-125851601D01*
X118960049Y-125788874D01*
X118745000Y-125767693D01*
X118529951Y-125788874D01*
X118323166Y-125851601D01*
X118239500Y-125896322D01*
X117670000Y-125896322D01*
X117553204Y-125907825D01*
X117440896Y-125941894D01*
X117337392Y-125997217D01*
X117246671Y-126071671D01*
X117172217Y-126162392D01*
X117116894Y-126265896D01*
X117082825Y-126378204D01*
X117071322Y-126495000D01*
X117071322Y-127245000D01*
X117082825Y-127361796D01*
X117116894Y-127474104D01*
X117172217Y-127577608D01*
X117246671Y-127668329D01*
X117337392Y-127742783D01*
X117440896Y-127798106D01*
X117553204Y-127832175D01*
X117670000Y-127843678D01*
X118167287Y-127843678D01*
X118733608Y-128410000D01*
X118617998Y-128410000D01*
X118617998Y-128568748D01*
X118459250Y-128410000D01*
X117420000Y-128406928D01*
X117295518Y-128419188D01*
X117175820Y-128455498D01*
X117065506Y-128514463D01*
X116968815Y-128593815D01*
X116889463Y-128690506D01*
X116830498Y-128800820D01*
X116794188Y-128920518D01*
X116781928Y-129045000D01*
X110393516Y-129045000D01*
X110043379Y-127294319D01*
X110034805Y-126748548D01*
X111237167Y-120736743D01*
X111262573Y-120669506D01*
X111288001Y-120628822D01*
X111288000Y-123876972D01*
X111283816Y-123879768D01*
X111179768Y-123983816D01*
X111098018Y-124106163D01*
X111041707Y-124242108D01*
X111013000Y-124386427D01*
X111013000Y-124533573D01*
X111041707Y-124677892D01*
X111098018Y-124813837D01*
X111179768Y-124936184D01*
X111283816Y-125040232D01*
X111406163Y-125121982D01*
X111542108Y-125178293D01*
X111686427Y-125207000D01*
X111833573Y-125207000D01*
X111977892Y-125178293D01*
X112113837Y-125121982D01*
X112236184Y-125040232D01*
X112340232Y-124936184D01*
X112421982Y-124813837D01*
X112478293Y-124677892D01*
X112507000Y-124533573D01*
X112507000Y-124386427D01*
X112478293Y-124242108D01*
X112421982Y-124106163D01*
X112340232Y-123983816D01*
X112236184Y-123879768D01*
X112232000Y-123876972D01*
X112232000Y-122716400D01*
X121617128Y-122716400D01*
X121629388Y-122840882D01*
X121665698Y-122960580D01*
X121724663Y-123070894D01*
X121804015Y-123167585D01*
X121900706Y-123246937D01*
X122011020Y-123305902D01*
X122130718Y-123342212D01*
X122255200Y-123354472D01*
X123869450Y-123351400D01*
X124028200Y-123192650D01*
X124028200Y-121843400D01*
X124282200Y-121843400D01*
X124282200Y-123192650D01*
X124440950Y-123351400D01*
X126055200Y-123354472D01*
X126179682Y-123342212D01*
X126299380Y-123305902D01*
X126409694Y-123246937D01*
X126506385Y-123167585D01*
X126585737Y-123070894D01*
X126644702Y-122960580D01*
X126681012Y-122840882D01*
X126693272Y-122716400D01*
X126690200Y-122002150D01*
X126531450Y-121843400D01*
X124282200Y-121843400D01*
X124028200Y-121843400D01*
X121778950Y-121843400D01*
X121620200Y-122002150D01*
X121617128Y-122716400D01*
X112232000Y-122716400D01*
X112232000Y-120716400D01*
X121617128Y-120716400D01*
X121620200Y-121430650D01*
X121778950Y-121589400D01*
X124028200Y-121589400D01*
X124028200Y-120240150D01*
X124282200Y-120240150D01*
X124282200Y-121589400D01*
X126531450Y-121589400D01*
X126690200Y-121430650D01*
X126693272Y-120716400D01*
X126681012Y-120591918D01*
X126644702Y-120472220D01*
X126585737Y-120361906D01*
X126506385Y-120265215D01*
X126409694Y-120185863D01*
X126299380Y-120126898D01*
X126179682Y-120090588D01*
X126055200Y-120078328D01*
X124440950Y-120081400D01*
X124282200Y-120240150D01*
X124028200Y-120240150D01*
X123869450Y-120081400D01*
X122255200Y-120078328D01*
X122130718Y-120090588D01*
X122011020Y-120126898D01*
X121900706Y-120185863D01*
X121804015Y-120265215D01*
X121724663Y-120361906D01*
X121665698Y-120472220D01*
X121629388Y-120591918D01*
X121617128Y-120716400D01*
X112232000Y-120716400D01*
X112232000Y-119575508D01*
X113136081Y-118671427D01*
X135143000Y-118671427D01*
X135143000Y-118818573D01*
X135171707Y-118962892D01*
X135228018Y-119098837D01*
X135309768Y-119221184D01*
X135413816Y-119325232D01*
X135536163Y-119406982D01*
X135672108Y-119463293D01*
X135816427Y-119492000D01*
X135963573Y-119492000D01*
X136107892Y-119463293D01*
X136243837Y-119406982D01*
X136366184Y-119325232D01*
X136470232Y-119221184D01*
X136473028Y-119217000D01*
X137301972Y-119217000D01*
X137304768Y-119221184D01*
X137408816Y-119325232D01*
X137531163Y-119406982D01*
X137667108Y-119463293D01*
X137811427Y-119492000D01*
X137958573Y-119492000D01*
X138102892Y-119463293D01*
X138238837Y-119406982D01*
X138361184Y-119325232D01*
X138465232Y-119221184D01*
X138546982Y-119098837D01*
X138603293Y-118962892D01*
X138632000Y-118818573D01*
X138632000Y-118671427D01*
X138603293Y-118527108D01*
X138546982Y-118391163D01*
X138465232Y-118268816D01*
X138361184Y-118164768D01*
X138238837Y-118083018D01*
X138102892Y-118026707D01*
X137958573Y-117998000D01*
X137811427Y-117998000D01*
X137667108Y-118026707D01*
X137531163Y-118083018D01*
X137408816Y-118164768D01*
X137304768Y-118268816D01*
X137301972Y-118273000D01*
X136473028Y-118273000D01*
X136470232Y-118268816D01*
X136366184Y-118164768D01*
X136243837Y-118083018D01*
X136107892Y-118026707D01*
X135963573Y-117998000D01*
X135816427Y-117998000D01*
X135672108Y-118026707D01*
X135536163Y-118083018D01*
X135413816Y-118164768D01*
X135309768Y-118268816D01*
X135228018Y-118391163D01*
X135171707Y-118527108D01*
X135143000Y-118671427D01*
X113136081Y-118671427D01*
X113347357Y-118460151D01*
X113365369Y-118445369D01*
X113424352Y-118373498D01*
X113468180Y-118291500D01*
X113495170Y-118202528D01*
X113502000Y-118133180D01*
X113502000Y-118133179D01*
X113504283Y-118110001D01*
X113502000Y-118086821D01*
X113502000Y-117670508D01*
X116175571Y-114996938D01*
X117299758Y-114996938D01*
X117322938Y-114999221D01*
X117346118Y-114996938D01*
X117415466Y-114990108D01*
X117504438Y-114963118D01*
X117586436Y-114919290D01*
X117658307Y-114860307D01*
X117673090Y-114842294D01*
X117743384Y-114772000D01*
X119661034Y-114772000D01*
X119684214Y-114774283D01*
X119707394Y-114772000D01*
X119776742Y-114765170D01*
X119865714Y-114738180D01*
X119947712Y-114694352D01*
X120019583Y-114635369D01*
X120034365Y-114617357D01*
X120997615Y-113654107D01*
X122518929Y-113654107D01*
X122542109Y-113656390D01*
X122565289Y-113654107D01*
X122634637Y-113647277D01*
X122723609Y-113620287D01*
X122805607Y-113576459D01*
X122864325Y-113528271D01*
X122868535Y-113529108D01*
X123015681Y-113529108D01*
X123160000Y-113500401D01*
X123295945Y-113444090D01*
X123418292Y-113362340D01*
X123522340Y-113258292D01*
X123604090Y-113135945D01*
X123660401Y-113000000D01*
X123689108Y-112855681D01*
X123689108Y-112708535D01*
X123660401Y-112564216D01*
X123604090Y-112428271D01*
X123522340Y-112305924D01*
X123418292Y-112201876D01*
X123295945Y-112120126D01*
X123260835Y-112105583D01*
X123504398Y-111862020D01*
X126306102Y-111862020D01*
X126391024Y-111946942D01*
X126391023Y-112761784D01*
X126388740Y-112784964D01*
X126391945Y-112817507D01*
X126397853Y-112877491D01*
X126424843Y-112966463D01*
X126468671Y-113048462D01*
X126527654Y-113120333D01*
X126545666Y-113135115D01*
X127014884Y-113604334D01*
X127029662Y-113622341D01*
X127047667Y-113637117D01*
X127101533Y-113681324D01*
X127183531Y-113725152D01*
X127272503Y-113752142D01*
X127365031Y-113761255D01*
X127388211Y-113758972D01*
X128037853Y-113758972D01*
X128061033Y-113761255D01*
X128084213Y-113758972D01*
X128153561Y-113752142D01*
X128242533Y-113725152D01*
X128324531Y-113681324D01*
X128396402Y-113622341D01*
X128411184Y-113604329D01*
X128614747Y-113400766D01*
X128634862Y-113404767D01*
X128782008Y-113404767D01*
X128926327Y-113376060D01*
X129062272Y-113319749D01*
X129184619Y-113237999D01*
X129288667Y-113133951D01*
X129370417Y-113011604D01*
X129426728Y-112875659D01*
X129455435Y-112731340D01*
X129455435Y-112584194D01*
X129426728Y-112439875D01*
X129421458Y-112427153D01*
X131936819Y-112427153D01*
X131939615Y-112431337D01*
X132043663Y-112535385D01*
X132166010Y-112617135D01*
X132301955Y-112673446D01*
X132446274Y-112702153D01*
X132593420Y-112702153D01*
X132737739Y-112673446D01*
X132873684Y-112617135D01*
X132996031Y-112535385D01*
X133100079Y-112431337D01*
X133181829Y-112308990D01*
X133238140Y-112173045D01*
X133266847Y-112028726D01*
X133266847Y-111881580D01*
X133238140Y-111737261D01*
X133181829Y-111601316D01*
X133100079Y-111478969D01*
X132996031Y-111374921D01*
X132873684Y-111293171D01*
X132737739Y-111236860D01*
X132593420Y-111208153D01*
X132446274Y-111208153D01*
X132301955Y-111236860D01*
X132166010Y-111293171D01*
X132043663Y-111374921D01*
X131939615Y-111478969D01*
X131936819Y-111483153D01*
X130780482Y-111483153D01*
X130799893Y-111436292D01*
X130828600Y-111291973D01*
X130828600Y-111144827D01*
X130799893Y-111000508D01*
X130743582Y-110864563D01*
X130661832Y-110742216D01*
X130630164Y-110710548D01*
X133259965Y-111236508D01*
G36*
X126619000Y-126667722D02*
G01*
X125705200Y-126667722D01*
X125637176Y-126674422D01*
X125571767Y-126694264D01*
X125511485Y-126726485D01*
X125458647Y-126769847D01*
X125415285Y-126822685D01*
X125383064Y-126882967D01*
X125363222Y-126948376D01*
X125356522Y-127016400D01*
X125356522Y-127979555D01*
X125352893Y-128016400D01*
X125356522Y-128053245D01*
X125356522Y-129016400D01*
X125358200Y-129033436D01*
X125358200Y-129287507D01*
X124978707Y-129667000D01*
X123542847Y-129667000D01*
X123542847Y-129580274D01*
X123514140Y-129435955D01*
X123457829Y-129300010D01*
X123376079Y-129177663D01*
X123272031Y-129073615D01*
X123149684Y-128991865D01*
X123013739Y-128935554D01*
X122953878Y-128923647D01*
X122953878Y-128053245D01*
X122957507Y-128016400D01*
X122953878Y-127979555D01*
X122953878Y-127016400D01*
X122947178Y-126948376D01*
X122927336Y-126882967D01*
X122895115Y-126822685D01*
X122851753Y-126769847D01*
X122798915Y-126726485D01*
X122738633Y-126694264D01*
X122673224Y-126674422D01*
X122605200Y-126667722D01*
X121285000Y-126667722D01*
X121285000Y-119761000D01*
X126619000Y-119761000D01*
X126619000Y-126667722D01*
X126619000Y-126667722D01*
G37*
X126619000Y-126667722D02*
X125705200Y-126667722D01*
X125637176Y-126674422D01*
X125571767Y-126694264D01*
X125511485Y-126726485D01*
X125458647Y-126769847D01*
X125415285Y-126822685D01*
X125383064Y-126882967D01*
X125363222Y-126948376D01*
X125356522Y-127016400D01*
X125356522Y-127979555D01*
X125352893Y-128016400D01*
X125356522Y-128053245D01*
X125356522Y-129016400D01*
X125358200Y-129033436D01*
X125358200Y-129287507D01*
X124978707Y-129667000D01*
X123542847Y-129667000D01*
X123542847Y-129580274D01*
X123514140Y-129435955D01*
X123457829Y-129300010D01*
X123376079Y-129177663D01*
X123272031Y-129073615D01*
X123149684Y-128991865D01*
X123013739Y-128935554D01*
X122953878Y-128923647D01*
X122953878Y-128053245D01*
X122957507Y-128016400D01*
X122953878Y-127979555D01*
X122953878Y-127016400D01*
X122947178Y-126948376D01*
X122927336Y-126882967D01*
X122895115Y-126822685D01*
X122851753Y-126769847D01*
X122798915Y-126726485D01*
X122738633Y-126694264D01*
X122673224Y-126674422D01*
X122605200Y-126667722D01*
X121285000Y-126667722D01*
X121285000Y-119761000D01*
X126619000Y-119761000D01*
X126619000Y-126667722D01*
M02*
