G04 #@! TF.GenerationSoftware,KiCad,Pcbnew,(5.1.2)-2*
G04 #@! TF.CreationDate,2019-08-10T01:37:27-04:00*
G04 #@! TF.ProjectId,toyota-angle-sensor,746f796f-7461-42d6-916e-676c652d7365,rev?*
G04 #@! TF.SameCoordinates,Original*
G04 #@! TF.FileFunction,Soldermask,Top*
G04 #@! TF.FilePolarity,Negative*
%FSLAX46Y46*%
G04 Gerber Fmt 4.6, Leading zero omitted, Abs format (unit mm)*
G04 Created by KiCad (PCBNEW (5.1.2)-2) date 2019-08-10 01:37:27*
%MOMM*%
%LPD*%
G04 APERTURE LIST*
%ADD10C,0.100000*%
G04 APERTURE END LIST*
D10*
G36*
X133115656Y-139627998D02*
G01*
X133221979Y-139649147D01*
X133522442Y-139773603D01*
X133792851Y-139954285D01*
X134022815Y-140184249D01*
X134203497Y-140454658D01*
X134327953Y-140755121D01*
X134391400Y-141074091D01*
X134391400Y-141399309D01*
X134327953Y-141718279D01*
X134203497Y-142018742D01*
X134022815Y-142289151D01*
X133792851Y-142519115D01*
X133522442Y-142699797D01*
X133221979Y-142824253D01*
X133115656Y-142845402D01*
X132903011Y-142887700D01*
X132577789Y-142887700D01*
X132365144Y-142845402D01*
X132258821Y-142824253D01*
X131958358Y-142699797D01*
X131687949Y-142519115D01*
X131457985Y-142289151D01*
X131277303Y-142018742D01*
X131152847Y-141718279D01*
X131089400Y-141399309D01*
X131089400Y-141074091D01*
X131152847Y-140755121D01*
X131277303Y-140454658D01*
X131457985Y-140184249D01*
X131687949Y-139954285D01*
X131958358Y-139773603D01*
X132258821Y-139649147D01*
X132365144Y-139627998D01*
X132577789Y-139585700D01*
X132903011Y-139585700D01*
X133115656Y-139627998D01*
X133115656Y-139627998D01*
G37*
G36*
X121685656Y-139627998D02*
G01*
X121791979Y-139649147D01*
X122092442Y-139773603D01*
X122362851Y-139954285D01*
X122592815Y-140184249D01*
X122773497Y-140454658D01*
X122897953Y-140755121D01*
X122961400Y-141074091D01*
X122961400Y-141399309D01*
X122897953Y-141718279D01*
X122773497Y-142018742D01*
X122592815Y-142289151D01*
X122362851Y-142519115D01*
X122092442Y-142699797D01*
X121791979Y-142824253D01*
X121685656Y-142845402D01*
X121473011Y-142887700D01*
X121147789Y-142887700D01*
X120935144Y-142845402D01*
X120828821Y-142824253D01*
X120528358Y-142699797D01*
X120257949Y-142519115D01*
X120027985Y-142289151D01*
X119847303Y-142018742D01*
X119722847Y-141718279D01*
X119659400Y-141399309D01*
X119659400Y-141074091D01*
X119722847Y-140755121D01*
X119847303Y-140454658D01*
X120027985Y-140184249D01*
X120257949Y-139954285D01*
X120528358Y-139773603D01*
X120828821Y-139649147D01*
X120935144Y-139627998D01*
X121147789Y-139585700D01*
X121473011Y-139585700D01*
X121685656Y-139627998D01*
X121685656Y-139627998D01*
G37*
G36*
X117932468Y-138325565D02*
G01*
X117971138Y-138337296D01*
X118006777Y-138356346D01*
X118038017Y-138381983D01*
X118063654Y-138413223D01*
X118082704Y-138448862D01*
X118094435Y-138487532D01*
X118099000Y-138533888D01*
X118099000Y-139185112D01*
X118094435Y-139231468D01*
X118082704Y-139270138D01*
X118063654Y-139305777D01*
X118038017Y-139337017D01*
X118006777Y-139362654D01*
X117971138Y-139381704D01*
X117932468Y-139393435D01*
X117886112Y-139398000D01*
X116809888Y-139398000D01*
X116763532Y-139393435D01*
X116724862Y-139381704D01*
X116689223Y-139362654D01*
X116657983Y-139337017D01*
X116632346Y-139305777D01*
X116613296Y-139270138D01*
X116601565Y-139231468D01*
X116597000Y-139185112D01*
X116597000Y-138533888D01*
X116601565Y-138487532D01*
X116613296Y-138448862D01*
X116632346Y-138413223D01*
X116657983Y-138381983D01*
X116689223Y-138356346D01*
X116724862Y-138337296D01*
X116763532Y-138325565D01*
X116809888Y-138321000D01*
X117886112Y-138321000D01*
X117932468Y-138325565D01*
X117932468Y-138325565D01*
G37*
G36*
X140258898Y-135645960D02*
G01*
X138545398Y-138613830D01*
X136378602Y-137362830D01*
X138092102Y-134394960D01*
X140258898Y-135645960D01*
X140258898Y-135645960D01*
G37*
G36*
X117932468Y-136450565D02*
G01*
X117971138Y-136462296D01*
X118006777Y-136481346D01*
X118038017Y-136506983D01*
X118063654Y-136538223D01*
X118082704Y-136573862D01*
X118094435Y-136612532D01*
X118099000Y-136658888D01*
X118099000Y-137310112D01*
X118094435Y-137356468D01*
X118082704Y-137395138D01*
X118063654Y-137430777D01*
X118038017Y-137462017D01*
X118006777Y-137487654D01*
X117971138Y-137506704D01*
X117932468Y-137518435D01*
X117886112Y-137523000D01*
X116809888Y-137523000D01*
X116763532Y-137518435D01*
X116724862Y-137506704D01*
X116689223Y-137487654D01*
X116657983Y-137462017D01*
X116632346Y-137430777D01*
X116613296Y-137395138D01*
X116601565Y-137356468D01*
X116597000Y-137310112D01*
X116597000Y-136658888D01*
X116601565Y-136612532D01*
X116613296Y-136573862D01*
X116632346Y-136538223D01*
X116657983Y-136506983D01*
X116689223Y-136481346D01*
X116724862Y-136462296D01*
X116763532Y-136450565D01*
X116809888Y-136446000D01*
X117886112Y-136446000D01*
X117932468Y-136450565D01*
X117932468Y-136450565D01*
G37*
G36*
X130434042Y-134116481D02*
G01*
X130579814Y-134176862D01*
X130579816Y-134176863D01*
X130711008Y-134264522D01*
X130822578Y-134376092D01*
X130910237Y-134507284D01*
X130910238Y-134507286D01*
X130970619Y-134653058D01*
X131001400Y-134807807D01*
X131001400Y-134965593D01*
X130970619Y-135120342D01*
X130910238Y-135266114D01*
X130910237Y-135266116D01*
X130822578Y-135397308D01*
X130711008Y-135508878D01*
X130579816Y-135596537D01*
X130579815Y-135596538D01*
X130579814Y-135596538D01*
X130434042Y-135656919D01*
X130279293Y-135687700D01*
X130121507Y-135687700D01*
X129966758Y-135656919D01*
X129820986Y-135596538D01*
X129820985Y-135596538D01*
X129820984Y-135596537D01*
X129689792Y-135508878D01*
X129578222Y-135397308D01*
X129490563Y-135266116D01*
X129490562Y-135266114D01*
X129430181Y-135120342D01*
X129399400Y-134965593D01*
X129399400Y-134807807D01*
X129430181Y-134653058D01*
X129490562Y-134507286D01*
X129490563Y-134507284D01*
X129578222Y-134376092D01*
X129689792Y-134264522D01*
X129820984Y-134176863D01*
X129820986Y-134176862D01*
X129966758Y-134116481D01*
X130121507Y-134085700D01*
X130279293Y-134085700D01*
X130434042Y-134116481D01*
X130434042Y-134116481D01*
G37*
G36*
X127894042Y-134116481D02*
G01*
X128039814Y-134176862D01*
X128039816Y-134176863D01*
X128171008Y-134264522D01*
X128282578Y-134376092D01*
X128370237Y-134507284D01*
X128370238Y-134507286D01*
X128430619Y-134653058D01*
X128461400Y-134807807D01*
X128461400Y-134965593D01*
X128430619Y-135120342D01*
X128370238Y-135266114D01*
X128370237Y-135266116D01*
X128282578Y-135397308D01*
X128171008Y-135508878D01*
X128039816Y-135596537D01*
X128039815Y-135596538D01*
X128039814Y-135596538D01*
X127894042Y-135656919D01*
X127739293Y-135687700D01*
X127581507Y-135687700D01*
X127426758Y-135656919D01*
X127280986Y-135596538D01*
X127280985Y-135596538D01*
X127280984Y-135596537D01*
X127149792Y-135508878D01*
X127038222Y-135397308D01*
X126950563Y-135266116D01*
X126950562Y-135266114D01*
X126890181Y-135120342D01*
X126859400Y-134965593D01*
X126859400Y-134807807D01*
X126890181Y-134653058D01*
X126950562Y-134507286D01*
X126950563Y-134507284D01*
X127038222Y-134376092D01*
X127149792Y-134264522D01*
X127280984Y-134176863D01*
X127280986Y-134176862D01*
X127426758Y-134116481D01*
X127581507Y-134085700D01*
X127739293Y-134085700D01*
X127894042Y-134116481D01*
X127894042Y-134116481D01*
G37*
G36*
X125354042Y-134116481D02*
G01*
X125499814Y-134176862D01*
X125499816Y-134176863D01*
X125631008Y-134264522D01*
X125742578Y-134376092D01*
X125830237Y-134507284D01*
X125830238Y-134507286D01*
X125890619Y-134653058D01*
X125921400Y-134807807D01*
X125921400Y-134965593D01*
X125890619Y-135120342D01*
X125830238Y-135266114D01*
X125830237Y-135266116D01*
X125742578Y-135397308D01*
X125631008Y-135508878D01*
X125499816Y-135596537D01*
X125499815Y-135596538D01*
X125499814Y-135596538D01*
X125354042Y-135656919D01*
X125199293Y-135687700D01*
X125041507Y-135687700D01*
X124886758Y-135656919D01*
X124740986Y-135596538D01*
X124740985Y-135596538D01*
X124740984Y-135596537D01*
X124609792Y-135508878D01*
X124498222Y-135397308D01*
X124410563Y-135266116D01*
X124410562Y-135266114D01*
X124350181Y-135120342D01*
X124319400Y-134965593D01*
X124319400Y-134807807D01*
X124350181Y-134653058D01*
X124410562Y-134507286D01*
X124410563Y-134507284D01*
X124498222Y-134376092D01*
X124609792Y-134264522D01*
X124740984Y-134176863D01*
X124740986Y-134176862D01*
X124886758Y-134116481D01*
X125041507Y-134085700D01*
X125199293Y-134085700D01*
X125354042Y-134116481D01*
X125354042Y-134116481D01*
G37*
G36*
X123381400Y-135687700D02*
G01*
X121779400Y-135687700D01*
X121779400Y-134085700D01*
X123381400Y-134085700D01*
X123381400Y-135687700D01*
X123381400Y-135687700D01*
G37*
G36*
X143021398Y-130861170D02*
G01*
X141307898Y-133829040D01*
X139141102Y-132578040D01*
X140854602Y-129610170D01*
X143021398Y-130861170D01*
X143021398Y-130861170D01*
G37*
G36*
X124084042Y-131576481D02*
G01*
X124229814Y-131636862D01*
X124229816Y-131636863D01*
X124361008Y-131724522D01*
X124472578Y-131836092D01*
X124560237Y-131967284D01*
X124560238Y-131967286D01*
X124620619Y-132113058D01*
X124651400Y-132267807D01*
X124651400Y-132425593D01*
X124620619Y-132580342D01*
X124560238Y-132726114D01*
X124560237Y-132726116D01*
X124472578Y-132857308D01*
X124361008Y-132968878D01*
X124229816Y-133056537D01*
X124229815Y-133056538D01*
X124229814Y-133056538D01*
X124084042Y-133116919D01*
X123929293Y-133147700D01*
X123771507Y-133147700D01*
X123616758Y-133116919D01*
X123470986Y-133056538D01*
X123470985Y-133056538D01*
X123470984Y-133056537D01*
X123339792Y-132968878D01*
X123228222Y-132857308D01*
X123140563Y-132726116D01*
X123140562Y-132726114D01*
X123080181Y-132580342D01*
X123049400Y-132425593D01*
X123049400Y-132267807D01*
X123080181Y-132113058D01*
X123140562Y-131967286D01*
X123140563Y-131967284D01*
X123228222Y-131836092D01*
X123339792Y-131724522D01*
X123470984Y-131636863D01*
X123470986Y-131636862D01*
X123616758Y-131576481D01*
X123771507Y-131545700D01*
X123929293Y-131545700D01*
X124084042Y-131576481D01*
X124084042Y-131576481D01*
G37*
G36*
X126624042Y-131576481D02*
G01*
X126769814Y-131636862D01*
X126769816Y-131636863D01*
X126901008Y-131724522D01*
X127012578Y-131836092D01*
X127100237Y-131967284D01*
X127100238Y-131967286D01*
X127160619Y-132113058D01*
X127191400Y-132267807D01*
X127191400Y-132425593D01*
X127160619Y-132580342D01*
X127100238Y-132726114D01*
X127100237Y-132726116D01*
X127012578Y-132857308D01*
X126901008Y-132968878D01*
X126769816Y-133056537D01*
X126769815Y-133056538D01*
X126769814Y-133056538D01*
X126624042Y-133116919D01*
X126469293Y-133147700D01*
X126311507Y-133147700D01*
X126156758Y-133116919D01*
X126010986Y-133056538D01*
X126010985Y-133056538D01*
X126010984Y-133056537D01*
X125879792Y-132968878D01*
X125768222Y-132857308D01*
X125680563Y-132726116D01*
X125680562Y-132726114D01*
X125620181Y-132580342D01*
X125589400Y-132425593D01*
X125589400Y-132267807D01*
X125620181Y-132113058D01*
X125680562Y-131967286D01*
X125680563Y-131967284D01*
X125768222Y-131836092D01*
X125879792Y-131724522D01*
X126010984Y-131636863D01*
X126010986Y-131636862D01*
X126156758Y-131576481D01*
X126311507Y-131545700D01*
X126469293Y-131545700D01*
X126624042Y-131576481D01*
X126624042Y-131576481D01*
G37*
G36*
X129164042Y-131576481D02*
G01*
X129309814Y-131636862D01*
X129309816Y-131636863D01*
X129441008Y-131724522D01*
X129552578Y-131836092D01*
X129640237Y-131967284D01*
X129640238Y-131967286D01*
X129700619Y-132113058D01*
X129731400Y-132267807D01*
X129731400Y-132425593D01*
X129700619Y-132580342D01*
X129640238Y-132726114D01*
X129640237Y-132726116D01*
X129552578Y-132857308D01*
X129441008Y-132968878D01*
X129309816Y-133056537D01*
X129309815Y-133056538D01*
X129309814Y-133056538D01*
X129164042Y-133116919D01*
X129009293Y-133147700D01*
X128851507Y-133147700D01*
X128696758Y-133116919D01*
X128550986Y-133056538D01*
X128550985Y-133056538D01*
X128550984Y-133056537D01*
X128419792Y-132968878D01*
X128308222Y-132857308D01*
X128220563Y-132726116D01*
X128220562Y-132726114D01*
X128160181Y-132580342D01*
X128129400Y-132425593D01*
X128129400Y-132267807D01*
X128160181Y-132113058D01*
X128220562Y-131967286D01*
X128220563Y-131967284D01*
X128308222Y-131836092D01*
X128419792Y-131724522D01*
X128550984Y-131636863D01*
X128550986Y-131636862D01*
X128696758Y-131576481D01*
X128851507Y-131545700D01*
X129009293Y-131545700D01*
X129164042Y-131576481D01*
X129164042Y-131576481D01*
G37*
G36*
X131704042Y-131576481D02*
G01*
X131849814Y-131636862D01*
X131849816Y-131636863D01*
X131981008Y-131724522D01*
X132092578Y-131836092D01*
X132180237Y-131967284D01*
X132180238Y-131967286D01*
X132240619Y-132113058D01*
X132271400Y-132267807D01*
X132271400Y-132425593D01*
X132240619Y-132580342D01*
X132180238Y-132726114D01*
X132180237Y-132726116D01*
X132092578Y-132857308D01*
X131981008Y-132968878D01*
X131849816Y-133056537D01*
X131849815Y-133056538D01*
X131849814Y-133056538D01*
X131704042Y-133116919D01*
X131549293Y-133147700D01*
X131391507Y-133147700D01*
X131236758Y-133116919D01*
X131090986Y-133056538D01*
X131090985Y-133056538D01*
X131090984Y-133056537D01*
X130959792Y-132968878D01*
X130848222Y-132857308D01*
X130760563Y-132726116D01*
X130760562Y-132726114D01*
X130700181Y-132580342D01*
X130669400Y-132425593D01*
X130669400Y-132267807D01*
X130700181Y-132113058D01*
X130760562Y-131967286D01*
X130760563Y-131967284D01*
X130848222Y-131836092D01*
X130959792Y-131724522D01*
X131090984Y-131636863D01*
X131090986Y-131636862D01*
X131236758Y-131576481D01*
X131391507Y-131545700D01*
X131549293Y-131545700D01*
X131704042Y-131576481D01*
X131704042Y-131576481D01*
G37*
G36*
X119963604Y-128998347D02*
G01*
X120000144Y-129009432D01*
X120033821Y-129027433D01*
X120063341Y-129051659D01*
X120087567Y-129081179D01*
X120105568Y-129114856D01*
X120116653Y-129151396D01*
X120121000Y-129195538D01*
X120121000Y-130144462D01*
X120116653Y-130188604D01*
X120105568Y-130225144D01*
X120087567Y-130258821D01*
X120063341Y-130288341D01*
X120033821Y-130312567D01*
X120000144Y-130330568D01*
X119963604Y-130341653D01*
X119919462Y-130346000D01*
X117570538Y-130346000D01*
X117526396Y-130341653D01*
X117489856Y-130330568D01*
X117456179Y-130312567D01*
X117426659Y-130288341D01*
X117402433Y-130258821D01*
X117384432Y-130225144D01*
X117373347Y-130188604D01*
X117369000Y-130144462D01*
X117369000Y-129195538D01*
X117373347Y-129151396D01*
X117384432Y-129114856D01*
X117402433Y-129081179D01*
X117426659Y-129051659D01*
X117456179Y-129027433D01*
X117489856Y-129009432D01*
X117526396Y-128998347D01*
X117570538Y-128994000D01*
X119919462Y-128994000D01*
X119963604Y-128998347D01*
X119963604Y-128998347D01*
G37*
G36*
X135402968Y-128285565D02*
G01*
X135441638Y-128297296D01*
X135477277Y-128316346D01*
X135508517Y-128341983D01*
X135534154Y-128373223D01*
X135553204Y-128408862D01*
X135564935Y-128447532D01*
X135569500Y-128493888D01*
X135569500Y-129570112D01*
X135564935Y-129616468D01*
X135553204Y-129655138D01*
X135534154Y-129690777D01*
X135508517Y-129722017D01*
X135477277Y-129747654D01*
X135441638Y-129766704D01*
X135402968Y-129778435D01*
X135356612Y-129783000D01*
X134705388Y-129783000D01*
X134659032Y-129778435D01*
X134620362Y-129766704D01*
X134584723Y-129747654D01*
X134553483Y-129722017D01*
X134527846Y-129690777D01*
X134508796Y-129655138D01*
X134497065Y-129616468D01*
X134492500Y-129570112D01*
X134492500Y-128493888D01*
X134497065Y-128447532D01*
X134508796Y-128408862D01*
X134527846Y-128373223D01*
X134553483Y-128341983D01*
X134584723Y-128316346D01*
X134620362Y-128297296D01*
X134659032Y-128285565D01*
X134705388Y-128281000D01*
X135356612Y-128281000D01*
X135402968Y-128285565D01*
X135402968Y-128285565D01*
G37*
G36*
X137277968Y-128285565D02*
G01*
X137316638Y-128297296D01*
X137352277Y-128316346D01*
X137383517Y-128341983D01*
X137409154Y-128373223D01*
X137428204Y-128408862D01*
X137439935Y-128447532D01*
X137444500Y-128493888D01*
X137444500Y-129570112D01*
X137439935Y-129616468D01*
X137428204Y-129655138D01*
X137409154Y-129690777D01*
X137383517Y-129722017D01*
X137352277Y-129747654D01*
X137316638Y-129766704D01*
X137277968Y-129778435D01*
X137231612Y-129783000D01*
X136580388Y-129783000D01*
X136534032Y-129778435D01*
X136495362Y-129766704D01*
X136459723Y-129747654D01*
X136428483Y-129722017D01*
X136402846Y-129690777D01*
X136383796Y-129655138D01*
X136372065Y-129616468D01*
X136367500Y-129570112D01*
X136367500Y-128493888D01*
X136372065Y-128447532D01*
X136383796Y-128408862D01*
X136402846Y-128373223D01*
X136428483Y-128341983D01*
X136459723Y-128316346D01*
X136495362Y-128297296D01*
X136534032Y-128285565D01*
X136580388Y-128281000D01*
X137231612Y-128281000D01*
X137277968Y-128285565D01*
X137277968Y-128285565D01*
G37*
G36*
X129674604Y-126898347D02*
G01*
X129711144Y-126909432D01*
X129744821Y-126927433D01*
X129774341Y-126951659D01*
X129798567Y-126981179D01*
X129816568Y-127014856D01*
X129827653Y-127051396D01*
X129832000Y-127095538D01*
X129832000Y-129444462D01*
X129827653Y-129488604D01*
X129816568Y-129525144D01*
X129798567Y-129558821D01*
X129774341Y-129588341D01*
X129744821Y-129612567D01*
X129711144Y-129630568D01*
X129674604Y-129641653D01*
X129630462Y-129646000D01*
X128681538Y-129646000D01*
X128637396Y-129641653D01*
X128600856Y-129630568D01*
X128567179Y-129612567D01*
X128537659Y-129588341D01*
X128513433Y-129558821D01*
X128495432Y-129525144D01*
X128484347Y-129488604D01*
X128480000Y-129444462D01*
X128480000Y-127095538D01*
X128484347Y-127051396D01*
X128495432Y-127014856D01*
X128513433Y-126981179D01*
X128537659Y-126951659D01*
X128567179Y-126927433D01*
X128600856Y-126909432D01*
X128637396Y-126898347D01*
X128681538Y-126894000D01*
X129630462Y-126894000D01*
X129674604Y-126898347D01*
X129674604Y-126898347D01*
G37*
G36*
X132474604Y-126898347D02*
G01*
X132511144Y-126909432D01*
X132544821Y-126927433D01*
X132574341Y-126951659D01*
X132598567Y-126981179D01*
X132616568Y-127014856D01*
X132627653Y-127051396D01*
X132632000Y-127095538D01*
X132632000Y-129444462D01*
X132627653Y-129488604D01*
X132616568Y-129525144D01*
X132598567Y-129558821D01*
X132574341Y-129588341D01*
X132544821Y-129612567D01*
X132511144Y-129630568D01*
X132474604Y-129641653D01*
X132430462Y-129646000D01*
X131481538Y-129646000D01*
X131437396Y-129641653D01*
X131400856Y-129630568D01*
X131367179Y-129612567D01*
X131337659Y-129588341D01*
X131313433Y-129558821D01*
X131295432Y-129525144D01*
X131284347Y-129488604D01*
X131280000Y-129444462D01*
X131280000Y-127095538D01*
X131284347Y-127051396D01*
X131295432Y-127014856D01*
X131313433Y-126981179D01*
X131337659Y-126951659D01*
X131367179Y-126927433D01*
X131400856Y-126909432D01*
X131437396Y-126898347D01*
X131481538Y-126894000D01*
X132430462Y-126894000D01*
X132474604Y-126898347D01*
X132474604Y-126898347D01*
G37*
G36*
X127256200Y-129067400D02*
G01*
X125654200Y-129067400D01*
X125654200Y-126965400D01*
X127256200Y-126965400D01*
X127256200Y-129067400D01*
X127256200Y-129067400D01*
G37*
G36*
X124956200Y-129067400D02*
G01*
X123354200Y-129067400D01*
X123354200Y-126965400D01*
X124956200Y-126965400D01*
X124956200Y-129067400D01*
X124956200Y-129067400D01*
G37*
G36*
X122656200Y-129067400D02*
G01*
X121054200Y-129067400D01*
X121054200Y-126965400D01*
X122656200Y-126965400D01*
X122656200Y-129067400D01*
X122656200Y-129067400D01*
G37*
G36*
X133885938Y-127395716D02*
G01*
X133906557Y-127401971D01*
X133925553Y-127412124D01*
X133942208Y-127425792D01*
X133955876Y-127442447D01*
X133966029Y-127461443D01*
X133972284Y-127482062D01*
X133975000Y-127509640D01*
X133975000Y-127968360D01*
X133972284Y-127995938D01*
X133966029Y-128016557D01*
X133955876Y-128035553D01*
X133942208Y-128052208D01*
X133925553Y-128065876D01*
X133906557Y-128076029D01*
X133885938Y-128082284D01*
X133858360Y-128085000D01*
X133349640Y-128085000D01*
X133322062Y-128082284D01*
X133301443Y-128076029D01*
X133282447Y-128065876D01*
X133265792Y-128052208D01*
X133252124Y-128035553D01*
X133241971Y-128016557D01*
X133235716Y-127995938D01*
X133233000Y-127968360D01*
X133233000Y-127509640D01*
X133235716Y-127482062D01*
X133241971Y-127461443D01*
X133252124Y-127442447D01*
X133265792Y-127425792D01*
X133282447Y-127412124D01*
X133301443Y-127401971D01*
X133322062Y-127395716D01*
X133349640Y-127393000D01*
X133858360Y-127393000D01*
X133885938Y-127395716D01*
X133885938Y-127395716D01*
G37*
G36*
X119963604Y-126198347D02*
G01*
X120000144Y-126209432D01*
X120033821Y-126227433D01*
X120063341Y-126251659D01*
X120087567Y-126281179D01*
X120105568Y-126314856D01*
X120116653Y-126351396D01*
X120121000Y-126395538D01*
X120121000Y-127344462D01*
X120116653Y-127388604D01*
X120105568Y-127425144D01*
X120087567Y-127458821D01*
X120063341Y-127488341D01*
X120033821Y-127512567D01*
X120000144Y-127530568D01*
X119963604Y-127541653D01*
X119919462Y-127546000D01*
X117570538Y-127546000D01*
X117526396Y-127541653D01*
X117489856Y-127530568D01*
X117456179Y-127512567D01*
X117426659Y-127488341D01*
X117402433Y-127458821D01*
X117384432Y-127425144D01*
X117373347Y-127388604D01*
X117369000Y-127344462D01*
X117369000Y-126395538D01*
X117373347Y-126351396D01*
X117384432Y-126314856D01*
X117402433Y-126281179D01*
X117426659Y-126251659D01*
X117456179Y-126227433D01*
X117489856Y-126209432D01*
X117526396Y-126198347D01*
X117570538Y-126194000D01*
X119919462Y-126194000D01*
X119963604Y-126198347D01*
X119963604Y-126198347D01*
G37*
G36*
X133885938Y-126425716D02*
G01*
X133906557Y-126431971D01*
X133925553Y-126442124D01*
X133942208Y-126455792D01*
X133955876Y-126472447D01*
X133966029Y-126491443D01*
X133972284Y-126512062D01*
X133975000Y-126539640D01*
X133975000Y-126998360D01*
X133972284Y-127025938D01*
X133966029Y-127046557D01*
X133955876Y-127065553D01*
X133942208Y-127082208D01*
X133925553Y-127095876D01*
X133906557Y-127106029D01*
X133885938Y-127112284D01*
X133858360Y-127115000D01*
X133349640Y-127115000D01*
X133322062Y-127112284D01*
X133301443Y-127106029D01*
X133282447Y-127095876D01*
X133265792Y-127082208D01*
X133252124Y-127065553D01*
X133241971Y-127046557D01*
X133235716Y-127025938D01*
X133233000Y-126998360D01*
X133233000Y-126539640D01*
X133235716Y-126512062D01*
X133241971Y-126491443D01*
X133252124Y-126472447D01*
X133265792Y-126455792D01*
X133282447Y-126442124D01*
X133301443Y-126431971D01*
X133322062Y-126425716D01*
X133349640Y-126423000D01*
X133858360Y-126423000D01*
X133885938Y-126425716D01*
X133885938Y-126425716D01*
G37*
G36*
X141969443Y-125216519D02*
G01*
X142035627Y-125223037D01*
X142205466Y-125274557D01*
X142361991Y-125358222D01*
X142397729Y-125387552D01*
X142499186Y-125470814D01*
X142582448Y-125572271D01*
X142611778Y-125608009D01*
X142695443Y-125764534D01*
X142746963Y-125934373D01*
X142764359Y-126111000D01*
X142746963Y-126287627D01*
X142695443Y-126457466D01*
X142611778Y-126613991D01*
X142582448Y-126649729D01*
X142499186Y-126751186D01*
X142397729Y-126834448D01*
X142361991Y-126863778D01*
X142205466Y-126947443D01*
X142035627Y-126998963D01*
X141969443Y-127005481D01*
X141903260Y-127012000D01*
X141814740Y-127012000D01*
X141748557Y-127005481D01*
X141682373Y-126998963D01*
X141512534Y-126947443D01*
X141356009Y-126863778D01*
X141320271Y-126834448D01*
X141218814Y-126751186D01*
X141135552Y-126649729D01*
X141106222Y-126613991D01*
X141022557Y-126457466D01*
X140971037Y-126287627D01*
X140953641Y-126111000D01*
X140971037Y-125934373D01*
X141022557Y-125764534D01*
X141106222Y-125608009D01*
X141135552Y-125572271D01*
X141218814Y-125470814D01*
X141320271Y-125387552D01*
X141356009Y-125358222D01*
X141512534Y-125274557D01*
X141682373Y-125223037D01*
X141748557Y-125216519D01*
X141814740Y-125210000D01*
X141903260Y-125210000D01*
X141969443Y-125216519D01*
X141969443Y-125216519D01*
G37*
G36*
X139429443Y-125216519D02*
G01*
X139495627Y-125223037D01*
X139665466Y-125274557D01*
X139821991Y-125358222D01*
X139857729Y-125387552D01*
X139959186Y-125470814D01*
X140042448Y-125572271D01*
X140071778Y-125608009D01*
X140155443Y-125764534D01*
X140206963Y-125934373D01*
X140224359Y-126111000D01*
X140206963Y-126287627D01*
X140155443Y-126457466D01*
X140071778Y-126613991D01*
X140042448Y-126649729D01*
X139959186Y-126751186D01*
X139857729Y-126834448D01*
X139821991Y-126863778D01*
X139665466Y-126947443D01*
X139495627Y-126998963D01*
X139429443Y-127005481D01*
X139363260Y-127012000D01*
X139274740Y-127012000D01*
X139208557Y-127005481D01*
X139142373Y-126998963D01*
X138972534Y-126947443D01*
X138816009Y-126863778D01*
X138780271Y-126834448D01*
X138678814Y-126751186D01*
X138595552Y-126649729D01*
X138566222Y-126613991D01*
X138482557Y-126457466D01*
X138431037Y-126287627D01*
X138413641Y-126111000D01*
X138431037Y-125934373D01*
X138482557Y-125764534D01*
X138566222Y-125608009D01*
X138595552Y-125572271D01*
X138678814Y-125470814D01*
X138780271Y-125387552D01*
X138816009Y-125358222D01*
X138972534Y-125274557D01*
X139142373Y-125223037D01*
X139208557Y-125216519D01*
X139274740Y-125210000D01*
X139363260Y-125210000D01*
X139429443Y-125216519D01*
X139429443Y-125216519D01*
G37*
G36*
X136889443Y-125216519D02*
G01*
X136955627Y-125223037D01*
X137125466Y-125274557D01*
X137281991Y-125358222D01*
X137317729Y-125387552D01*
X137419186Y-125470814D01*
X137502448Y-125572271D01*
X137531778Y-125608009D01*
X137615443Y-125764534D01*
X137666963Y-125934373D01*
X137684359Y-126111000D01*
X137666963Y-126287627D01*
X137615443Y-126457466D01*
X137531778Y-126613991D01*
X137502448Y-126649729D01*
X137419186Y-126751186D01*
X137317729Y-126834448D01*
X137281991Y-126863778D01*
X137125466Y-126947443D01*
X136955627Y-126998963D01*
X136889443Y-127005481D01*
X136823260Y-127012000D01*
X136734740Y-127012000D01*
X136668557Y-127005481D01*
X136602373Y-126998963D01*
X136432534Y-126947443D01*
X136276009Y-126863778D01*
X136240271Y-126834448D01*
X136138814Y-126751186D01*
X136055552Y-126649729D01*
X136026222Y-126613991D01*
X135942557Y-126457466D01*
X135891037Y-126287627D01*
X135873641Y-126111000D01*
X135891037Y-125934373D01*
X135942557Y-125764534D01*
X136026222Y-125608009D01*
X136055552Y-125572271D01*
X136138814Y-125470814D01*
X136240271Y-125387552D01*
X136276009Y-125358222D01*
X136432534Y-125274557D01*
X136602373Y-125223037D01*
X136668557Y-125216519D01*
X136734740Y-125210000D01*
X136823260Y-125210000D01*
X136889443Y-125216519D01*
X136889443Y-125216519D01*
G37*
G36*
X139429443Y-122676519D02*
G01*
X139495627Y-122683037D01*
X139665466Y-122734557D01*
X139821991Y-122818222D01*
X139857729Y-122847552D01*
X139959186Y-122930814D01*
X140042448Y-123032271D01*
X140071778Y-123068009D01*
X140155443Y-123224534D01*
X140206963Y-123394373D01*
X140224359Y-123571000D01*
X140206963Y-123747627D01*
X140155443Y-123917466D01*
X140071778Y-124073991D01*
X140042448Y-124109729D01*
X139959186Y-124211186D01*
X139857729Y-124294448D01*
X139821991Y-124323778D01*
X139665466Y-124407443D01*
X139495627Y-124458963D01*
X139429442Y-124465482D01*
X139363260Y-124472000D01*
X139274740Y-124472000D01*
X139208558Y-124465482D01*
X139142373Y-124458963D01*
X138972534Y-124407443D01*
X138816009Y-124323778D01*
X138780271Y-124294448D01*
X138678814Y-124211186D01*
X138595552Y-124109729D01*
X138566222Y-124073991D01*
X138482557Y-123917466D01*
X138431037Y-123747627D01*
X138413641Y-123571000D01*
X138431037Y-123394373D01*
X138482557Y-123224534D01*
X138566222Y-123068009D01*
X138595552Y-123032271D01*
X138678814Y-122930814D01*
X138780271Y-122847552D01*
X138816009Y-122818222D01*
X138972534Y-122734557D01*
X139142373Y-122683037D01*
X139208557Y-122676519D01*
X139274740Y-122670000D01*
X139363260Y-122670000D01*
X139429443Y-122676519D01*
X139429443Y-122676519D01*
G37*
G36*
X142760000Y-124472000D02*
G01*
X140958000Y-124472000D01*
X140958000Y-122670000D01*
X142760000Y-122670000D01*
X142760000Y-124472000D01*
X142760000Y-124472000D01*
G37*
G36*
X136889443Y-122676519D02*
G01*
X136955627Y-122683037D01*
X137125466Y-122734557D01*
X137281991Y-122818222D01*
X137317729Y-122847552D01*
X137419186Y-122930814D01*
X137502448Y-123032271D01*
X137531778Y-123068009D01*
X137615443Y-123224534D01*
X137666963Y-123394373D01*
X137684359Y-123571000D01*
X137666963Y-123747627D01*
X137615443Y-123917466D01*
X137531778Y-124073991D01*
X137502448Y-124109729D01*
X137419186Y-124211186D01*
X137317729Y-124294448D01*
X137281991Y-124323778D01*
X137125466Y-124407443D01*
X136955627Y-124458963D01*
X136889442Y-124465482D01*
X136823260Y-124472000D01*
X136734740Y-124472000D01*
X136668558Y-124465482D01*
X136602373Y-124458963D01*
X136432534Y-124407443D01*
X136276009Y-124323778D01*
X136240271Y-124294448D01*
X136138814Y-124211186D01*
X136055552Y-124109729D01*
X136026222Y-124073991D01*
X135942557Y-123917466D01*
X135891037Y-123747627D01*
X135873641Y-123571000D01*
X135891037Y-123394373D01*
X135942557Y-123224534D01*
X136026222Y-123068009D01*
X136055552Y-123032271D01*
X136138814Y-122930814D01*
X136240271Y-122847552D01*
X136276009Y-122818222D01*
X136432534Y-122734557D01*
X136602373Y-122683037D01*
X136668557Y-122676519D01*
X136734740Y-122670000D01*
X136823260Y-122670000D01*
X136889443Y-122676519D01*
X136889443Y-122676519D01*
G37*
G36*
X126106200Y-122767400D02*
G01*
X122204200Y-122767400D01*
X122204200Y-120665400D01*
X126106200Y-120665400D01*
X126106200Y-122767400D01*
X126106200Y-122767400D01*
G37*
M02*
