M48
; DRILL file {KiCad (5.1.2)-2} date 10/08/2019 01:37:25
; FORMAT={-:-/ absolute / inch / decimal}
; #@! TF.CreationDate,2019-08-10T01:37:25-04:00
; #@! TF.GenerationSoftware,Kicad,Pcbnew,(5.1.2)-2
; #@! TF.FileFunction,Plated,1,2,PTH
FMAT,2
INCH
T1C0.0157
T2C0.0299
T3C0.0394
%
G90
G05
T1
X4.4Y-4.9
X4.6053Y-4.4803
X4.65Y-5.35
X4.6929Y-4.4429
X4.7443Y-5.175
X4.78Y-4.385
X4.8345Y-5.1045
X4.8402Y-4.4402
X4.925Y-5.475
X4.9885Y-5.5635
X4.9981Y-5.4731
X5.0281Y-4.4316
X5.051Y-5.501
X5.0673Y-4.4353
X5.1213Y-4.3787
X5.18Y-4.97
X5.2163Y-4.5068
X5.2173Y-4.4077
X5.3Y-4.67
X5.3Y-5.015
X5.3002Y-4.4198
X5.3054Y-4.8334
X5.35Y-4.675
X5.39Y-5.31
X5.4285Y-4.675
X5.4304Y-4.5096
X5.44Y-5.23
T2
X4.826Y-5.3105
X4.876Y-5.2105
X4.926Y-5.3105
X4.976Y-5.2105
X5.026Y-5.3105
X5.076Y-5.2105
X5.126Y-5.3105
X5.176Y-5.2105
T3
X5.13Y-5.14
X5.385Y-4.865
X5.385Y-4.965
X5.485Y-4.865
X5.485Y-4.965
X5.585Y-4.865
X5.585Y-4.965
T0
M30
