G04 #@! TF.GenerationSoftware,KiCad,Pcbnew,(5.1.2)-2*
G04 #@! TF.CreationDate,2019-08-10T12:47:09-04:00*
G04 #@! TF.ProjectId,toyota-angle-sensor,746f796f-7461-42d6-916e-676c652d7365,rev?*
G04 #@! TF.SameCoordinates,Original*
G04 #@! TF.FileFunction,Soldermask,Bot*
G04 #@! TF.FilePolarity,Negative*
%FSLAX46Y46*%
G04 Gerber Fmt 4.6, Leading zero omitted, Abs format (unit mm)*
G04 Created by KiCad (PCBNEW (5.1.2)-2) date 2019-08-10 12:47:09*
%MOMM*%
%LPD*%
G04 APERTURE LIST*
%ADD10C,0.100000*%
G04 APERTURE END LIST*
D10*
G36*
X128875000Y-143581600D02*
G01*
X128173000Y-143581600D01*
X128173000Y-141929600D01*
X128875000Y-141929600D01*
X128875000Y-143581600D01*
X128875000Y-143581600D01*
G37*
G36*
X127605000Y-143581600D02*
G01*
X126903000Y-143581600D01*
X126903000Y-141929600D01*
X127605000Y-141929600D01*
X127605000Y-143581600D01*
X127605000Y-143581600D01*
G37*
G36*
X126335000Y-143581600D02*
G01*
X125633000Y-143581600D01*
X125633000Y-141929600D01*
X126335000Y-141929600D01*
X126335000Y-143581600D01*
X126335000Y-143581600D01*
G37*
G36*
X125065000Y-143581600D02*
G01*
X124363000Y-143581600D01*
X124363000Y-141929600D01*
X125065000Y-141929600D01*
X125065000Y-143581600D01*
X125065000Y-143581600D01*
G37*
G36*
X121685656Y-139627998D02*
G01*
X121791979Y-139649147D01*
X122092442Y-139773603D01*
X122362851Y-139954285D01*
X122592815Y-140184249D01*
X122773497Y-140454658D01*
X122897953Y-140755121D01*
X122961400Y-141074091D01*
X122961400Y-141399309D01*
X122897953Y-141718279D01*
X122773497Y-142018742D01*
X122592815Y-142289151D01*
X122362851Y-142519115D01*
X122092442Y-142699797D01*
X121791979Y-142824253D01*
X121685656Y-142845402D01*
X121473011Y-142887700D01*
X121147789Y-142887700D01*
X120935144Y-142845402D01*
X120828821Y-142824253D01*
X120528358Y-142699797D01*
X120257949Y-142519115D01*
X120027985Y-142289151D01*
X119847303Y-142018742D01*
X119722847Y-141718279D01*
X119659400Y-141399309D01*
X119659400Y-141074091D01*
X119722847Y-140755121D01*
X119847303Y-140454658D01*
X120027985Y-140184249D01*
X120257949Y-139954285D01*
X120528358Y-139773603D01*
X120828821Y-139649147D01*
X120935144Y-139627998D01*
X121147789Y-139585700D01*
X121473011Y-139585700D01*
X121685656Y-139627998D01*
X121685656Y-139627998D01*
G37*
G36*
X133115656Y-139627998D02*
G01*
X133221979Y-139649147D01*
X133522442Y-139773603D01*
X133792851Y-139954285D01*
X134022815Y-140184249D01*
X134203497Y-140454658D01*
X134327953Y-140755121D01*
X134391400Y-141074091D01*
X134391400Y-141399309D01*
X134327953Y-141718279D01*
X134203497Y-142018742D01*
X134022815Y-142289151D01*
X133792851Y-142519115D01*
X133522442Y-142699797D01*
X133221979Y-142824253D01*
X133115656Y-142845402D01*
X132903011Y-142887700D01*
X132577789Y-142887700D01*
X132365144Y-142845402D01*
X132258821Y-142824253D01*
X131958358Y-142699797D01*
X131687949Y-142519115D01*
X131457985Y-142289151D01*
X131277303Y-142018742D01*
X131152847Y-141718279D01*
X131089400Y-141399309D01*
X131089400Y-141074091D01*
X131152847Y-140755121D01*
X131277303Y-140454658D01*
X131457985Y-140184249D01*
X131687949Y-139954285D01*
X131958358Y-139773603D01*
X132258821Y-139649147D01*
X132365144Y-139627998D01*
X132577789Y-139585700D01*
X132903011Y-139585700D01*
X133115656Y-139627998D01*
X133115656Y-139627998D01*
G37*
G36*
X119251591Y-137971085D02*
G01*
X119285569Y-137981393D01*
X119316890Y-137998134D01*
X119344339Y-138020661D01*
X119366866Y-138048110D01*
X119383607Y-138079431D01*
X119393915Y-138113409D01*
X119398000Y-138154890D01*
X119398000Y-138756110D01*
X119393915Y-138797591D01*
X119383607Y-138831569D01*
X119366866Y-138862890D01*
X119344339Y-138890339D01*
X119316890Y-138912866D01*
X119285569Y-138929607D01*
X119251591Y-138939915D01*
X119210110Y-138944000D01*
X118533890Y-138944000D01*
X118492409Y-138939915D01*
X118458431Y-138929607D01*
X118427110Y-138912866D01*
X118399661Y-138890339D01*
X118377134Y-138862890D01*
X118360393Y-138831569D01*
X118350085Y-138797591D01*
X118346000Y-138756110D01*
X118346000Y-138154890D01*
X118350085Y-138113409D01*
X118360393Y-138079431D01*
X118377134Y-138048110D01*
X118399661Y-138020661D01*
X118427110Y-137998134D01*
X118458431Y-137981393D01*
X118492409Y-137971085D01*
X118533890Y-137967000D01*
X119210110Y-137967000D01*
X119251591Y-137971085D01*
X119251591Y-137971085D01*
G37*
G36*
X121982591Y-137146085D02*
G01*
X122016569Y-137156393D01*
X122047890Y-137173134D01*
X122075339Y-137195661D01*
X122097866Y-137223110D01*
X122114607Y-137254431D01*
X122124915Y-137288409D01*
X122129000Y-137329890D01*
X122129000Y-138006110D01*
X122124915Y-138047591D01*
X122114607Y-138081569D01*
X122097866Y-138112890D01*
X122075339Y-138140339D01*
X122047890Y-138162866D01*
X122016569Y-138179607D01*
X121982591Y-138189915D01*
X121941110Y-138194000D01*
X121339890Y-138194000D01*
X121298409Y-138189915D01*
X121264431Y-138179607D01*
X121233110Y-138162866D01*
X121205661Y-138140339D01*
X121183134Y-138112890D01*
X121166393Y-138081569D01*
X121156085Y-138047591D01*
X121152000Y-138006110D01*
X121152000Y-137329890D01*
X121156085Y-137288409D01*
X121166393Y-137254431D01*
X121183134Y-137223110D01*
X121205661Y-137195661D01*
X121233110Y-137173134D01*
X121264431Y-137156393D01*
X121298409Y-137146085D01*
X121339890Y-137142000D01*
X121941110Y-137142000D01*
X121982591Y-137146085D01*
X121982591Y-137146085D01*
G37*
G36*
X123557591Y-137146085D02*
G01*
X123591569Y-137156393D01*
X123622890Y-137173134D01*
X123650339Y-137195661D01*
X123672866Y-137223110D01*
X123689607Y-137254431D01*
X123699915Y-137288409D01*
X123704000Y-137329890D01*
X123704000Y-138006110D01*
X123699915Y-138047591D01*
X123689607Y-138081569D01*
X123672866Y-138112890D01*
X123650339Y-138140339D01*
X123622890Y-138162866D01*
X123591569Y-138179607D01*
X123557591Y-138189915D01*
X123516110Y-138194000D01*
X122914890Y-138194000D01*
X122873409Y-138189915D01*
X122839431Y-138179607D01*
X122808110Y-138162866D01*
X122780661Y-138140339D01*
X122758134Y-138112890D01*
X122741393Y-138081569D01*
X122731085Y-138047591D01*
X122727000Y-138006110D01*
X122727000Y-137329890D01*
X122731085Y-137288409D01*
X122741393Y-137254431D01*
X122758134Y-137223110D01*
X122780661Y-137195661D01*
X122808110Y-137173134D01*
X122839431Y-137156393D01*
X122873409Y-137146085D01*
X122914890Y-137142000D01*
X123516110Y-137142000D01*
X123557591Y-137146085D01*
X123557591Y-137146085D01*
G37*
G36*
X125065000Y-138181600D02*
G01*
X124363000Y-138181600D01*
X124363000Y-136529600D01*
X125065000Y-136529600D01*
X125065000Y-138181600D01*
X125065000Y-138181600D01*
G37*
G36*
X126335000Y-138181600D02*
G01*
X125633000Y-138181600D01*
X125633000Y-136529600D01*
X126335000Y-136529600D01*
X126335000Y-138181600D01*
X126335000Y-138181600D01*
G37*
G36*
X127605000Y-138181600D02*
G01*
X126903000Y-138181600D01*
X126903000Y-136529600D01*
X127605000Y-136529600D01*
X127605000Y-138181600D01*
X127605000Y-138181600D01*
G37*
G36*
X128875000Y-138181600D02*
G01*
X128173000Y-138181600D01*
X128173000Y-136529600D01*
X128875000Y-136529600D01*
X128875000Y-138181600D01*
X128875000Y-138181600D01*
G37*
G36*
X133744978Y-136981609D02*
G01*
X133778731Y-136992657D01*
X133809678Y-137010077D01*
X133836625Y-137033195D01*
X133858551Y-137061132D01*
X133874604Y-137092810D01*
X133885830Y-137132946D01*
X133895617Y-137188451D01*
X133993410Y-137743060D01*
X134003254Y-137798891D01*
X134006434Y-137840455D01*
X134002184Y-137875708D01*
X133991138Y-137909453D01*
X133973716Y-137940404D01*
X133950599Y-137967350D01*
X133922658Y-137989279D01*
X133890985Y-138005330D01*
X133850847Y-138016556D01*
X133258763Y-138120957D01*
X133217199Y-138124137D01*
X133181950Y-138119887D01*
X133148197Y-138108839D01*
X133117250Y-138091419D01*
X133090303Y-138068301D01*
X133068377Y-138040364D01*
X133052324Y-138008686D01*
X133041098Y-137968550D01*
X133005536Y-137766868D01*
X132933460Y-137358106D01*
X132933460Y-137358103D01*
X132923674Y-137302605D01*
X132920494Y-137261041D01*
X132924744Y-137225788D01*
X132935790Y-137192043D01*
X132953212Y-137161092D01*
X132976329Y-137134146D01*
X133004270Y-137112217D01*
X133035943Y-137096166D01*
X133076081Y-137084940D01*
X133668165Y-136980539D01*
X133709729Y-136977359D01*
X133744978Y-136981609D01*
X133744978Y-136981609D01*
G37*
G36*
X135296050Y-136708113D02*
G01*
X135329803Y-136719161D01*
X135360750Y-136736581D01*
X135387697Y-136759699D01*
X135409623Y-136787636D01*
X135425676Y-136819314D01*
X135436902Y-136859450D01*
X135446689Y-136914955D01*
X135542681Y-137459350D01*
X135554326Y-137525395D01*
X135557506Y-137566959D01*
X135553256Y-137602212D01*
X135542210Y-137635957D01*
X135524788Y-137666908D01*
X135501671Y-137693854D01*
X135473730Y-137715783D01*
X135442057Y-137731834D01*
X135401919Y-137743060D01*
X134809835Y-137847461D01*
X134768271Y-137850641D01*
X134733022Y-137846391D01*
X134699269Y-137835343D01*
X134668322Y-137817923D01*
X134641375Y-137794805D01*
X134619449Y-137766868D01*
X134603396Y-137735190D01*
X134592170Y-137695054D01*
X134545858Y-137432404D01*
X134484532Y-137084610D01*
X134484532Y-137084607D01*
X134474746Y-137029109D01*
X134471566Y-136987545D01*
X134475816Y-136952292D01*
X134486862Y-136918547D01*
X134504284Y-136887596D01*
X134527401Y-136860650D01*
X134555342Y-136838721D01*
X134587015Y-136822670D01*
X134627153Y-136811444D01*
X135219237Y-136707043D01*
X135260801Y-136703863D01*
X135296050Y-136708113D01*
X135296050Y-136708113D01*
G37*
G36*
X136665978Y-136473609D02*
G01*
X136699731Y-136484657D01*
X136730678Y-136502077D01*
X136757625Y-136525195D01*
X136779551Y-136553132D01*
X136795604Y-136584810D01*
X136806830Y-136624946D01*
X136816617Y-136680451D01*
X136914410Y-137235060D01*
X136924254Y-137290891D01*
X136927434Y-137332455D01*
X136923184Y-137367708D01*
X136912138Y-137401453D01*
X136894716Y-137432404D01*
X136871599Y-137459350D01*
X136843658Y-137481279D01*
X136811985Y-137497330D01*
X136771847Y-137508556D01*
X136179763Y-137612957D01*
X136138199Y-137616137D01*
X136102950Y-137611887D01*
X136069197Y-137600839D01*
X136038250Y-137583419D01*
X136011303Y-137560301D01*
X135989377Y-137532364D01*
X135973324Y-137500686D01*
X135962098Y-137460550D01*
X135940558Y-137338391D01*
X135854460Y-136850106D01*
X135854460Y-136850103D01*
X135844674Y-136794605D01*
X135841494Y-136753041D01*
X135845744Y-136717788D01*
X135856790Y-136684043D01*
X135874212Y-136653092D01*
X135897329Y-136626146D01*
X135925270Y-136604217D01*
X135956943Y-136588166D01*
X135997081Y-136576940D01*
X136589165Y-136472539D01*
X136630729Y-136469359D01*
X136665978Y-136473609D01*
X136665978Y-136473609D01*
G37*
G36*
X115187591Y-136447085D02*
G01*
X115221569Y-136457393D01*
X115252890Y-136474134D01*
X115280339Y-136496661D01*
X115302866Y-136524110D01*
X115319607Y-136555431D01*
X115329915Y-136589409D01*
X115334000Y-136630890D01*
X115334000Y-137232110D01*
X115329915Y-137273591D01*
X115319607Y-137307569D01*
X115302866Y-137338890D01*
X115280339Y-137366339D01*
X115252890Y-137388866D01*
X115221569Y-137405607D01*
X115187591Y-137415915D01*
X115146110Y-137420000D01*
X114469890Y-137420000D01*
X114428409Y-137415915D01*
X114394431Y-137405607D01*
X114363110Y-137388866D01*
X114335661Y-137366339D01*
X114313134Y-137338890D01*
X114296393Y-137307569D01*
X114286085Y-137273591D01*
X114282000Y-137232110D01*
X114282000Y-136630890D01*
X114286085Y-136589409D01*
X114296393Y-136555431D01*
X114313134Y-136524110D01*
X114335661Y-136496661D01*
X114363110Y-136474134D01*
X114394431Y-136457393D01*
X114428409Y-136447085D01*
X114469890Y-136443000D01*
X115146110Y-136443000D01*
X115187591Y-136447085D01*
X115187591Y-136447085D01*
G37*
G36*
X116711591Y-136447085D02*
G01*
X116745569Y-136457393D01*
X116776890Y-136474134D01*
X116804339Y-136496661D01*
X116826866Y-136524110D01*
X116843607Y-136555431D01*
X116853915Y-136589409D01*
X116858000Y-136630890D01*
X116858000Y-137232110D01*
X116853915Y-137273591D01*
X116843607Y-137307569D01*
X116826866Y-137338890D01*
X116804339Y-137366339D01*
X116776890Y-137388866D01*
X116745569Y-137405607D01*
X116711591Y-137415915D01*
X116670110Y-137420000D01*
X115993890Y-137420000D01*
X115952409Y-137415915D01*
X115918431Y-137405607D01*
X115887110Y-137388866D01*
X115859661Y-137366339D01*
X115837134Y-137338890D01*
X115820393Y-137307569D01*
X115810085Y-137273591D01*
X115806000Y-137232110D01*
X115806000Y-136630890D01*
X115810085Y-136589409D01*
X115820393Y-136555431D01*
X115837134Y-136524110D01*
X115859661Y-136496661D01*
X115887110Y-136474134D01*
X115918431Y-136457393D01*
X115952409Y-136447085D01*
X115993890Y-136443000D01*
X116670110Y-136443000D01*
X116711591Y-136447085D01*
X116711591Y-136447085D01*
G37*
G36*
X119251591Y-136396085D02*
G01*
X119285569Y-136406393D01*
X119316890Y-136423134D01*
X119344339Y-136445661D01*
X119366866Y-136473110D01*
X119383607Y-136504431D01*
X119393915Y-136538409D01*
X119398000Y-136579890D01*
X119398000Y-137181110D01*
X119393915Y-137222591D01*
X119383607Y-137256569D01*
X119366866Y-137287890D01*
X119344339Y-137315339D01*
X119316890Y-137337866D01*
X119285569Y-137354607D01*
X119251591Y-137364915D01*
X119210110Y-137369000D01*
X118533890Y-137369000D01*
X118492409Y-137364915D01*
X118458431Y-137354607D01*
X118427110Y-137337866D01*
X118399661Y-137315339D01*
X118377134Y-137287890D01*
X118360393Y-137256569D01*
X118350085Y-137222591D01*
X118346000Y-137181110D01*
X118346000Y-136579890D01*
X118350085Y-136538409D01*
X118360393Y-136504431D01*
X118377134Y-136473110D01*
X118399661Y-136445661D01*
X118427110Y-136423134D01*
X118458431Y-136406393D01*
X118492409Y-136396085D01*
X118533890Y-136392000D01*
X119210110Y-136392000D01*
X119251591Y-136396085D01*
X119251591Y-136396085D01*
G37*
G36*
X138217050Y-136200113D02*
G01*
X138250803Y-136211161D01*
X138281750Y-136228581D01*
X138308697Y-136251699D01*
X138330623Y-136279636D01*
X138346676Y-136311314D01*
X138357902Y-136351450D01*
X138367689Y-136406955D01*
X138457897Y-136918547D01*
X138475326Y-137017395D01*
X138478506Y-137058959D01*
X138474256Y-137094212D01*
X138463210Y-137127957D01*
X138445788Y-137158908D01*
X138422671Y-137185854D01*
X138394730Y-137207783D01*
X138363057Y-137223834D01*
X138322919Y-137235060D01*
X137730835Y-137339461D01*
X137689271Y-137342641D01*
X137654022Y-137338391D01*
X137620269Y-137327343D01*
X137589322Y-137309923D01*
X137562375Y-137286805D01*
X137540449Y-137258868D01*
X137524396Y-137227190D01*
X137513170Y-137187054D01*
X137486688Y-137036868D01*
X137405532Y-136576610D01*
X137405532Y-136576607D01*
X137395746Y-136521109D01*
X137392566Y-136479545D01*
X137396816Y-136444292D01*
X137407862Y-136410547D01*
X137425284Y-136379596D01*
X137448401Y-136352650D01*
X137476342Y-136330721D01*
X137508015Y-136314670D01*
X137548153Y-136303444D01*
X138140237Y-136199043D01*
X138181801Y-136195863D01*
X138217050Y-136200113D01*
X138217050Y-136200113D01*
G37*
G36*
X135051502Y-135859248D02*
G01*
X131676566Y-136454341D01*
X131242098Y-133990352D01*
X134617034Y-133395259D01*
X135051502Y-135859248D01*
X135051502Y-135859248D01*
G37*
G36*
X116711591Y-134872085D02*
G01*
X116745569Y-134882393D01*
X116776890Y-134899134D01*
X116804339Y-134921661D01*
X116826866Y-134949110D01*
X116843607Y-134980431D01*
X116853915Y-135014409D01*
X116858000Y-135055890D01*
X116858000Y-135657110D01*
X116853915Y-135698591D01*
X116843607Y-135732569D01*
X116826866Y-135763890D01*
X116804339Y-135791339D01*
X116776890Y-135813866D01*
X116745569Y-135830607D01*
X116711591Y-135840915D01*
X116670110Y-135845000D01*
X115993890Y-135845000D01*
X115952409Y-135840915D01*
X115918431Y-135830607D01*
X115887110Y-135813866D01*
X115859661Y-135791339D01*
X115837134Y-135763890D01*
X115820393Y-135732569D01*
X115810085Y-135698591D01*
X115806000Y-135657110D01*
X115806000Y-135055890D01*
X115810085Y-135014409D01*
X115820393Y-134980431D01*
X115837134Y-134949110D01*
X115859661Y-134921661D01*
X115887110Y-134899134D01*
X115918431Y-134882393D01*
X115952409Y-134872085D01*
X115993890Y-134868000D01*
X116670110Y-134868000D01*
X116711591Y-134872085D01*
X116711591Y-134872085D01*
G37*
G36*
X115187591Y-134872085D02*
G01*
X115221569Y-134882393D01*
X115252890Y-134899134D01*
X115280339Y-134921661D01*
X115302866Y-134949110D01*
X115319607Y-134980431D01*
X115329915Y-135014409D01*
X115334000Y-135055890D01*
X115334000Y-135657110D01*
X115329915Y-135698591D01*
X115319607Y-135732569D01*
X115302866Y-135763890D01*
X115280339Y-135791339D01*
X115252890Y-135813866D01*
X115221569Y-135830607D01*
X115187591Y-135840915D01*
X115146110Y-135845000D01*
X114469890Y-135845000D01*
X114428409Y-135840915D01*
X114394431Y-135830607D01*
X114363110Y-135813866D01*
X114335661Y-135791339D01*
X114313134Y-135763890D01*
X114296393Y-135732569D01*
X114286085Y-135698591D01*
X114282000Y-135657110D01*
X114282000Y-135055890D01*
X114286085Y-135014409D01*
X114296393Y-134980431D01*
X114313134Y-134949110D01*
X114335661Y-134921661D01*
X114363110Y-134899134D01*
X114394431Y-134882393D01*
X114428409Y-134872085D01*
X114469890Y-134868000D01*
X115146110Y-134868000D01*
X115187591Y-134872085D01*
X115187591Y-134872085D01*
G37*
G36*
X125354042Y-134116481D02*
G01*
X125499814Y-134176862D01*
X125499816Y-134176863D01*
X125631008Y-134264522D01*
X125742578Y-134376092D01*
X125830237Y-134507284D01*
X125830238Y-134507286D01*
X125890619Y-134653058D01*
X125921400Y-134807807D01*
X125921400Y-134965593D01*
X125890619Y-135120342D01*
X125830238Y-135266114D01*
X125830237Y-135266116D01*
X125742578Y-135397308D01*
X125631008Y-135508878D01*
X125499816Y-135596537D01*
X125499815Y-135596538D01*
X125499814Y-135596538D01*
X125354042Y-135656919D01*
X125199293Y-135687700D01*
X125041507Y-135687700D01*
X124886758Y-135656919D01*
X124740986Y-135596538D01*
X124740985Y-135596538D01*
X124740984Y-135596537D01*
X124609792Y-135508878D01*
X124498222Y-135397308D01*
X124410563Y-135266116D01*
X124410562Y-135266114D01*
X124350181Y-135120342D01*
X124319400Y-134965593D01*
X124319400Y-134807807D01*
X124350181Y-134653058D01*
X124410562Y-134507286D01*
X124410563Y-134507284D01*
X124498222Y-134376092D01*
X124609792Y-134264522D01*
X124740984Y-134176863D01*
X124740986Y-134176862D01*
X124886758Y-134116481D01*
X125041507Y-134085700D01*
X125199293Y-134085700D01*
X125354042Y-134116481D01*
X125354042Y-134116481D01*
G37*
G36*
X130434042Y-134116481D02*
G01*
X130579814Y-134176862D01*
X130579816Y-134176863D01*
X130711008Y-134264522D01*
X130822578Y-134376092D01*
X130910237Y-134507284D01*
X130910238Y-134507286D01*
X130970619Y-134653058D01*
X131001400Y-134807807D01*
X131001400Y-134965593D01*
X130970619Y-135120342D01*
X130910238Y-135266114D01*
X130910237Y-135266116D01*
X130822578Y-135397308D01*
X130711008Y-135508878D01*
X130579816Y-135596537D01*
X130579815Y-135596538D01*
X130579814Y-135596538D01*
X130434042Y-135656919D01*
X130279293Y-135687700D01*
X130121507Y-135687700D01*
X129966758Y-135656919D01*
X129820986Y-135596538D01*
X129820985Y-135596538D01*
X129820984Y-135596537D01*
X129689792Y-135508878D01*
X129578222Y-135397308D01*
X129490563Y-135266116D01*
X129490562Y-135266114D01*
X129430181Y-135120342D01*
X129399400Y-134965593D01*
X129399400Y-134807807D01*
X129430181Y-134653058D01*
X129490562Y-134507286D01*
X129490563Y-134507284D01*
X129578222Y-134376092D01*
X129689792Y-134264522D01*
X129820984Y-134176863D01*
X129820986Y-134176862D01*
X129966758Y-134116481D01*
X130121507Y-134085700D01*
X130279293Y-134085700D01*
X130434042Y-134116481D01*
X130434042Y-134116481D01*
G37*
G36*
X127894042Y-134116481D02*
G01*
X128039814Y-134176862D01*
X128039816Y-134176863D01*
X128171008Y-134264522D01*
X128282578Y-134376092D01*
X128370237Y-134507284D01*
X128370238Y-134507286D01*
X128430619Y-134653058D01*
X128461400Y-134807807D01*
X128461400Y-134965593D01*
X128430619Y-135120342D01*
X128370238Y-135266114D01*
X128370237Y-135266116D01*
X128282578Y-135397308D01*
X128171008Y-135508878D01*
X128039816Y-135596537D01*
X128039815Y-135596538D01*
X128039814Y-135596538D01*
X127894042Y-135656919D01*
X127739293Y-135687700D01*
X127581507Y-135687700D01*
X127426758Y-135656919D01*
X127280986Y-135596538D01*
X127280985Y-135596538D01*
X127280984Y-135596537D01*
X127149792Y-135508878D01*
X127038222Y-135397308D01*
X126950563Y-135266116D01*
X126950562Y-135266114D01*
X126890181Y-135120342D01*
X126859400Y-134965593D01*
X126859400Y-134807807D01*
X126890181Y-134653058D01*
X126950562Y-134507286D01*
X126950563Y-134507284D01*
X127038222Y-134376092D01*
X127149792Y-134264522D01*
X127280984Y-134176863D01*
X127280986Y-134176862D01*
X127426758Y-134116481D01*
X127581507Y-134085700D01*
X127739293Y-134085700D01*
X127894042Y-134116481D01*
X127894042Y-134116481D01*
G37*
G36*
X123381400Y-135687700D02*
G01*
X121779400Y-135687700D01*
X121779400Y-134085700D01*
X123381400Y-134085700D01*
X123381400Y-135687700D01*
X123381400Y-135687700D01*
G37*
G36*
X140492564Y-134899842D02*
G01*
X137117628Y-135494935D01*
X136683160Y-133030946D01*
X140058096Y-132435853D01*
X140492564Y-134899842D01*
X140492564Y-134899842D01*
G37*
G36*
X116151000Y-134216000D02*
G01*
X114649000Y-134216000D01*
X114649000Y-132914000D01*
X116151000Y-132914000D01*
X116151000Y-134216000D01*
X116151000Y-134216000D01*
G37*
G36*
X113951000Y-134216000D02*
G01*
X112449000Y-134216000D01*
X112449000Y-132914000D01*
X113951000Y-132914000D01*
X113951000Y-134216000D01*
X113951000Y-134216000D01*
G37*
G36*
X120204591Y-132701085D02*
G01*
X120238569Y-132711393D01*
X120269890Y-132728134D01*
X120297339Y-132750661D01*
X120319866Y-132778110D01*
X120336607Y-132809431D01*
X120346915Y-132843409D01*
X120351000Y-132884890D01*
X120351000Y-133561110D01*
X120346915Y-133602591D01*
X120336607Y-133636569D01*
X120319866Y-133667890D01*
X120297339Y-133695339D01*
X120269890Y-133717866D01*
X120238569Y-133734607D01*
X120204591Y-133744915D01*
X120163110Y-133749000D01*
X119561890Y-133749000D01*
X119520409Y-133744915D01*
X119486431Y-133734607D01*
X119455110Y-133717866D01*
X119427661Y-133695339D01*
X119405134Y-133667890D01*
X119388393Y-133636569D01*
X119378085Y-133602591D01*
X119374000Y-133561110D01*
X119374000Y-132884890D01*
X119378085Y-132843409D01*
X119388393Y-132809431D01*
X119405134Y-132778110D01*
X119427661Y-132750661D01*
X119455110Y-132728134D01*
X119486431Y-132711393D01*
X119520409Y-132701085D01*
X119561890Y-132697000D01*
X120163110Y-132697000D01*
X120204591Y-132701085D01*
X120204591Y-132701085D01*
G37*
G36*
X121779591Y-132701085D02*
G01*
X121813569Y-132711393D01*
X121844890Y-132728134D01*
X121872339Y-132750661D01*
X121894866Y-132778110D01*
X121911607Y-132809431D01*
X121921915Y-132843409D01*
X121926000Y-132884890D01*
X121926000Y-133561110D01*
X121921915Y-133602591D01*
X121911607Y-133636569D01*
X121894866Y-133667890D01*
X121872339Y-133695339D01*
X121844890Y-133717866D01*
X121813569Y-133734607D01*
X121779591Y-133744915D01*
X121738110Y-133749000D01*
X121136890Y-133749000D01*
X121095409Y-133744915D01*
X121061431Y-133734607D01*
X121030110Y-133717866D01*
X121002661Y-133695339D01*
X120980134Y-133667890D01*
X120963393Y-133636569D01*
X120953085Y-133602591D01*
X120949000Y-133561110D01*
X120949000Y-132884890D01*
X120953085Y-132843409D01*
X120963393Y-132809431D01*
X120980134Y-132778110D01*
X121002661Y-132750661D01*
X121030110Y-132728134D01*
X121061431Y-132711393D01*
X121095409Y-132701085D01*
X121136890Y-132697000D01*
X121738110Y-132697000D01*
X121779591Y-132701085D01*
X121779591Y-132701085D01*
G37*
G36*
X126624042Y-131576481D02*
G01*
X126769814Y-131636862D01*
X126769816Y-131636863D01*
X126901008Y-131724522D01*
X127012578Y-131836092D01*
X127100237Y-131967284D01*
X127100238Y-131967286D01*
X127160619Y-132113058D01*
X127191400Y-132267807D01*
X127191400Y-132425593D01*
X127160619Y-132580342D01*
X127104596Y-132715592D01*
X127100237Y-132726116D01*
X127012578Y-132857308D01*
X126901008Y-132968878D01*
X126769816Y-133056537D01*
X126769815Y-133056538D01*
X126769814Y-133056538D01*
X126624042Y-133116919D01*
X126469293Y-133147700D01*
X126311507Y-133147700D01*
X126156758Y-133116919D01*
X126010986Y-133056538D01*
X126010985Y-133056538D01*
X126010984Y-133056537D01*
X125879792Y-132968878D01*
X125768222Y-132857308D01*
X125680563Y-132726116D01*
X125676204Y-132715592D01*
X125620181Y-132580342D01*
X125589400Y-132425593D01*
X125589400Y-132267807D01*
X125620181Y-132113058D01*
X125680562Y-131967286D01*
X125680563Y-131967284D01*
X125768222Y-131836092D01*
X125879792Y-131724522D01*
X126010984Y-131636863D01*
X126010986Y-131636862D01*
X126156758Y-131576481D01*
X126311507Y-131545700D01*
X126469293Y-131545700D01*
X126624042Y-131576481D01*
X126624042Y-131576481D01*
G37*
G36*
X124084042Y-131576481D02*
G01*
X124229814Y-131636862D01*
X124229816Y-131636863D01*
X124361008Y-131724522D01*
X124472578Y-131836092D01*
X124560237Y-131967284D01*
X124560238Y-131967286D01*
X124620619Y-132113058D01*
X124651400Y-132267807D01*
X124651400Y-132425593D01*
X124620619Y-132580342D01*
X124564596Y-132715592D01*
X124560237Y-132726116D01*
X124472578Y-132857308D01*
X124361008Y-132968878D01*
X124229816Y-133056537D01*
X124229815Y-133056538D01*
X124229814Y-133056538D01*
X124084042Y-133116919D01*
X123929293Y-133147700D01*
X123771507Y-133147700D01*
X123616758Y-133116919D01*
X123470986Y-133056538D01*
X123470985Y-133056538D01*
X123470984Y-133056537D01*
X123339792Y-132968878D01*
X123228222Y-132857308D01*
X123140563Y-132726116D01*
X123136204Y-132715592D01*
X123080181Y-132580342D01*
X123049400Y-132425593D01*
X123049400Y-132267807D01*
X123080181Y-132113058D01*
X123140562Y-131967286D01*
X123140563Y-131967284D01*
X123228222Y-131836092D01*
X123339792Y-131724522D01*
X123470984Y-131636863D01*
X123470986Y-131636862D01*
X123616758Y-131576481D01*
X123771507Y-131545700D01*
X123929293Y-131545700D01*
X124084042Y-131576481D01*
X124084042Y-131576481D01*
G37*
G36*
X131704042Y-131576481D02*
G01*
X131849814Y-131636862D01*
X131849816Y-131636863D01*
X131981008Y-131724522D01*
X132092578Y-131836092D01*
X132180237Y-131967284D01*
X132180238Y-131967286D01*
X132240619Y-132113058D01*
X132271400Y-132267807D01*
X132271400Y-132425593D01*
X132240619Y-132580342D01*
X132184596Y-132715592D01*
X132180237Y-132726116D01*
X132092578Y-132857308D01*
X131981008Y-132968878D01*
X131849816Y-133056537D01*
X131849815Y-133056538D01*
X131849814Y-133056538D01*
X131704042Y-133116919D01*
X131549293Y-133147700D01*
X131391507Y-133147700D01*
X131236758Y-133116919D01*
X131090986Y-133056538D01*
X131090985Y-133056538D01*
X131090984Y-133056537D01*
X130959792Y-132968878D01*
X130848222Y-132857308D01*
X130760563Y-132726116D01*
X130756204Y-132715592D01*
X130700181Y-132580342D01*
X130669400Y-132425593D01*
X130669400Y-132267807D01*
X130700181Y-132113058D01*
X130760562Y-131967286D01*
X130760563Y-131967284D01*
X130848222Y-131836092D01*
X130959792Y-131724522D01*
X131090984Y-131636863D01*
X131090986Y-131636862D01*
X131236758Y-131576481D01*
X131391507Y-131545700D01*
X131549293Y-131545700D01*
X131704042Y-131576481D01*
X131704042Y-131576481D01*
G37*
G36*
X129164042Y-131576481D02*
G01*
X129309814Y-131636862D01*
X129309816Y-131636863D01*
X129441008Y-131724522D01*
X129552578Y-131836092D01*
X129640237Y-131967284D01*
X129640238Y-131967286D01*
X129700619Y-132113058D01*
X129731400Y-132267807D01*
X129731400Y-132425593D01*
X129700619Y-132580342D01*
X129644596Y-132715592D01*
X129640237Y-132726116D01*
X129552578Y-132857308D01*
X129441008Y-132968878D01*
X129309816Y-133056537D01*
X129309815Y-133056538D01*
X129309814Y-133056538D01*
X129164042Y-133116919D01*
X129009293Y-133147700D01*
X128851507Y-133147700D01*
X128696758Y-133116919D01*
X128550986Y-133056538D01*
X128550985Y-133056538D01*
X128550984Y-133056537D01*
X128419792Y-132968878D01*
X128308222Y-132857308D01*
X128220563Y-132726116D01*
X128216204Y-132715592D01*
X128160181Y-132580342D01*
X128129400Y-132425593D01*
X128129400Y-132267807D01*
X128160181Y-132113058D01*
X128220562Y-131967286D01*
X128220563Y-131967284D01*
X128308222Y-131836092D01*
X128419792Y-131724522D01*
X128550984Y-131636863D01*
X128550986Y-131636862D01*
X128696758Y-131576481D01*
X128851507Y-131545700D01*
X129009293Y-131545700D01*
X129164042Y-131576481D01*
X129164042Y-131576481D01*
G37*
G36*
X116151000Y-132516000D02*
G01*
X114649000Y-132516000D01*
X114649000Y-131214000D01*
X116151000Y-131214000D01*
X116151000Y-132516000D01*
X116151000Y-132516000D01*
G37*
G36*
X113951000Y-132516000D02*
G01*
X112449000Y-132516000D01*
X112449000Y-131214000D01*
X113951000Y-131214000D01*
X113951000Y-132516000D01*
X113951000Y-132516000D01*
G37*
G36*
X121779591Y-131177085D02*
G01*
X121813569Y-131187393D01*
X121844890Y-131204134D01*
X121872339Y-131226661D01*
X121894866Y-131254110D01*
X121911607Y-131285431D01*
X121921915Y-131319409D01*
X121926000Y-131360890D01*
X121926000Y-132037110D01*
X121921915Y-132078591D01*
X121911607Y-132112569D01*
X121894866Y-132143890D01*
X121872339Y-132171339D01*
X121844890Y-132193866D01*
X121813569Y-132210607D01*
X121779591Y-132220915D01*
X121738110Y-132225000D01*
X121136890Y-132225000D01*
X121095409Y-132220915D01*
X121061431Y-132210607D01*
X121030110Y-132193866D01*
X121002661Y-132171339D01*
X120980134Y-132143890D01*
X120963393Y-132112569D01*
X120953085Y-132078591D01*
X120949000Y-132037110D01*
X120949000Y-131360890D01*
X120953085Y-131319409D01*
X120963393Y-131285431D01*
X120980134Y-131254110D01*
X121002661Y-131226661D01*
X121030110Y-131204134D01*
X121061431Y-131187393D01*
X121095409Y-131177085D01*
X121136890Y-131173000D01*
X121738110Y-131173000D01*
X121779591Y-131177085D01*
X121779591Y-131177085D01*
G37*
G36*
X120204591Y-131177085D02*
G01*
X120238569Y-131187393D01*
X120269890Y-131204134D01*
X120297339Y-131226661D01*
X120319866Y-131254110D01*
X120336607Y-131285431D01*
X120346915Y-131319409D01*
X120351000Y-131360890D01*
X120351000Y-132037110D01*
X120346915Y-132078591D01*
X120336607Y-132112569D01*
X120319866Y-132143890D01*
X120297339Y-132171339D01*
X120269890Y-132193866D01*
X120238569Y-132210607D01*
X120204591Y-132220915D01*
X120163110Y-132225000D01*
X119561890Y-132225000D01*
X119520409Y-132220915D01*
X119486431Y-132210607D01*
X119455110Y-132193866D01*
X119427661Y-132171339D01*
X119405134Y-132143890D01*
X119388393Y-132112569D01*
X119378085Y-132078591D01*
X119374000Y-132037110D01*
X119374000Y-131360890D01*
X119378085Y-131319409D01*
X119388393Y-131285431D01*
X119405134Y-131254110D01*
X119427661Y-131226661D01*
X119455110Y-131204134D01*
X119486431Y-131187393D01*
X119520409Y-131177085D01*
X119561890Y-131173000D01*
X120163110Y-131173000D01*
X120204591Y-131177085D01*
X120204591Y-131177085D01*
G37*
G36*
X134971000Y-131100000D02*
G01*
X134269000Y-131100000D01*
X134269000Y-128998000D01*
X134971000Y-128998000D01*
X134971000Y-131100000D01*
X134971000Y-131100000D01*
G37*
G36*
X132431000Y-131100000D02*
G01*
X131729000Y-131100000D01*
X131729000Y-128998000D01*
X132431000Y-128998000D01*
X132431000Y-131100000D01*
X132431000Y-131100000D01*
G37*
G36*
X133701000Y-131100000D02*
G01*
X132999000Y-131100000D01*
X132999000Y-128998000D01*
X133701000Y-128998000D01*
X133701000Y-131100000D01*
X133701000Y-131100000D01*
G37*
G36*
X142591000Y-131100000D02*
G01*
X141889000Y-131100000D01*
X141889000Y-128998000D01*
X142591000Y-128998000D01*
X142591000Y-131100000D01*
X142591000Y-131100000D01*
G37*
G36*
X141321000Y-131100000D02*
G01*
X140619000Y-131100000D01*
X140619000Y-128998000D01*
X141321000Y-128998000D01*
X141321000Y-131100000D01*
X141321000Y-131100000D01*
G37*
G36*
X140051000Y-131100000D02*
G01*
X139349000Y-131100000D01*
X139349000Y-128998000D01*
X140051000Y-128998000D01*
X140051000Y-131100000D01*
X140051000Y-131100000D01*
G37*
G36*
X137511000Y-131100000D02*
G01*
X136809000Y-131100000D01*
X136809000Y-128998000D01*
X137511000Y-128998000D01*
X137511000Y-131100000D01*
X137511000Y-131100000D01*
G37*
G36*
X136241000Y-131100000D02*
G01*
X135539000Y-131100000D01*
X135539000Y-128998000D01*
X136241000Y-128998000D01*
X136241000Y-131100000D01*
X136241000Y-131100000D01*
G37*
G36*
X138781000Y-131100000D02*
G01*
X138079000Y-131100000D01*
X138079000Y-128998000D01*
X138781000Y-128998000D01*
X138781000Y-131100000D01*
X138781000Y-131100000D01*
G37*
G36*
X114941000Y-129637000D02*
G01*
X113339000Y-129637000D01*
X113339000Y-128935000D01*
X114941000Y-128935000D01*
X114941000Y-129637000D01*
X114941000Y-129637000D01*
G37*
G36*
X120341000Y-129637000D02*
G01*
X118739000Y-129637000D01*
X118739000Y-128935000D01*
X120341000Y-128935000D01*
X120341000Y-129637000D01*
X120341000Y-129637000D01*
G37*
G36*
X124826000Y-129226000D02*
G01*
X123274000Y-129226000D01*
X123274000Y-124774000D01*
X124826000Y-124774000D01*
X124826000Y-129226000D01*
X124826000Y-129226000D01*
G37*
G36*
X130726000Y-129226000D02*
G01*
X129174000Y-129226000D01*
X129174000Y-124774000D01*
X130726000Y-124774000D01*
X130726000Y-129226000D01*
X130726000Y-129226000D01*
G37*
G36*
X111504591Y-127938085D02*
G01*
X111538569Y-127948393D01*
X111569890Y-127965134D01*
X111597339Y-127987661D01*
X111619866Y-128015110D01*
X111636607Y-128046431D01*
X111646915Y-128080409D01*
X111651000Y-128121890D01*
X111651000Y-128723110D01*
X111646915Y-128764591D01*
X111636607Y-128798569D01*
X111619866Y-128829890D01*
X111597339Y-128857339D01*
X111569890Y-128879866D01*
X111538569Y-128896607D01*
X111504591Y-128906915D01*
X111463110Y-128911000D01*
X110786890Y-128911000D01*
X110745409Y-128906915D01*
X110711431Y-128896607D01*
X110680110Y-128879866D01*
X110652661Y-128857339D01*
X110630134Y-128829890D01*
X110613393Y-128798569D01*
X110603085Y-128764591D01*
X110599000Y-128723110D01*
X110599000Y-128121890D01*
X110603085Y-128080409D01*
X110613393Y-128046431D01*
X110630134Y-128015110D01*
X110652661Y-127987661D01*
X110680110Y-127965134D01*
X110711431Y-127948393D01*
X110745409Y-127938085D01*
X110786890Y-127934000D01*
X111463110Y-127934000D01*
X111504591Y-127938085D01*
X111504591Y-127938085D01*
G37*
G36*
X122299591Y-127557085D02*
G01*
X122333569Y-127567393D01*
X122364890Y-127584134D01*
X122392339Y-127606661D01*
X122414866Y-127634110D01*
X122431607Y-127665431D01*
X122441915Y-127699409D01*
X122446000Y-127740890D01*
X122446000Y-128342110D01*
X122441915Y-128383591D01*
X122431607Y-128417569D01*
X122414866Y-128448890D01*
X122392339Y-128476339D01*
X122364890Y-128498866D01*
X122333569Y-128515607D01*
X122299591Y-128525915D01*
X122258110Y-128530000D01*
X121581890Y-128530000D01*
X121540409Y-128525915D01*
X121506431Y-128515607D01*
X121475110Y-128498866D01*
X121447661Y-128476339D01*
X121425134Y-128448890D01*
X121408393Y-128417569D01*
X121398085Y-128383591D01*
X121394000Y-128342110D01*
X121394000Y-127740890D01*
X121398085Y-127699409D01*
X121408393Y-127665431D01*
X121425134Y-127634110D01*
X121447661Y-127606661D01*
X121475110Y-127584134D01*
X121506431Y-127567393D01*
X121540409Y-127557085D01*
X121581890Y-127553000D01*
X122258110Y-127553000D01*
X122299591Y-127557085D01*
X122299591Y-127557085D01*
G37*
G36*
X120341000Y-128367000D02*
G01*
X118739000Y-128367000D01*
X118739000Y-127665000D01*
X120341000Y-127665000D01*
X120341000Y-128367000D01*
X120341000Y-128367000D01*
G37*
G36*
X114941000Y-128367000D02*
G01*
X113339000Y-128367000D01*
X113339000Y-127665000D01*
X114941000Y-127665000D01*
X114941000Y-128367000D01*
X114941000Y-128367000D01*
G37*
G36*
X111504591Y-126363085D02*
G01*
X111538569Y-126373393D01*
X111569890Y-126390134D01*
X111597339Y-126412661D01*
X111619866Y-126440110D01*
X111636607Y-126471431D01*
X111646915Y-126505409D01*
X111651000Y-126546890D01*
X111651000Y-127148110D01*
X111646915Y-127189591D01*
X111636607Y-127223569D01*
X111619866Y-127254890D01*
X111597339Y-127282339D01*
X111569890Y-127304866D01*
X111538569Y-127321607D01*
X111504591Y-127331915D01*
X111463110Y-127336000D01*
X110786890Y-127336000D01*
X110745409Y-127331915D01*
X110711431Y-127321607D01*
X110680110Y-127304866D01*
X110652661Y-127282339D01*
X110630134Y-127254890D01*
X110613393Y-127223569D01*
X110603085Y-127189591D01*
X110599000Y-127148110D01*
X110599000Y-126546890D01*
X110603085Y-126505409D01*
X110613393Y-126471431D01*
X110630134Y-126440110D01*
X110652661Y-126412661D01*
X110680110Y-126390134D01*
X110711431Y-126373393D01*
X110745409Y-126363085D01*
X110786890Y-126359000D01*
X111463110Y-126359000D01*
X111504591Y-126363085D01*
X111504591Y-126363085D01*
G37*
G36*
X120341000Y-127097000D02*
G01*
X118739000Y-127097000D01*
X118739000Y-126395000D01*
X120341000Y-126395000D01*
X120341000Y-127097000D01*
X120341000Y-127097000D01*
G37*
G36*
X114941000Y-127097000D02*
G01*
X113339000Y-127097000D01*
X113339000Y-126395000D01*
X114941000Y-126395000D01*
X114941000Y-127097000D01*
X114941000Y-127097000D01*
G37*
G36*
X141969443Y-125216519D02*
G01*
X142035627Y-125223037D01*
X142205466Y-125274557D01*
X142361991Y-125358222D01*
X142397729Y-125387552D01*
X142499186Y-125470814D01*
X142582448Y-125572271D01*
X142611778Y-125608009D01*
X142695443Y-125764534D01*
X142746963Y-125934373D01*
X142764359Y-126111000D01*
X142746963Y-126287627D01*
X142695443Y-126457466D01*
X142695442Y-126457468D01*
X142669817Y-126505409D01*
X142611778Y-126613991D01*
X142601922Y-126626000D01*
X142499186Y-126751186D01*
X142397729Y-126834448D01*
X142361991Y-126863778D01*
X142205466Y-126947443D01*
X142035627Y-126998963D01*
X141969443Y-127005481D01*
X141903260Y-127012000D01*
X141814740Y-127012000D01*
X141748557Y-127005481D01*
X141682373Y-126998963D01*
X141512534Y-126947443D01*
X141356009Y-126863778D01*
X141320271Y-126834448D01*
X141218814Y-126751186D01*
X141116078Y-126626000D01*
X141106222Y-126613991D01*
X141048183Y-126505409D01*
X141022558Y-126457468D01*
X141022557Y-126457466D01*
X140971037Y-126287627D01*
X140953641Y-126111000D01*
X140971037Y-125934373D01*
X141022557Y-125764534D01*
X141106222Y-125608009D01*
X141135552Y-125572271D01*
X141218814Y-125470814D01*
X141320271Y-125387552D01*
X141356009Y-125358222D01*
X141512534Y-125274557D01*
X141682373Y-125223037D01*
X141748557Y-125216519D01*
X141814740Y-125210000D01*
X141903260Y-125210000D01*
X141969443Y-125216519D01*
X141969443Y-125216519D01*
G37*
G36*
X136889443Y-125216519D02*
G01*
X136955627Y-125223037D01*
X137125466Y-125274557D01*
X137281991Y-125358222D01*
X137317729Y-125387552D01*
X137419186Y-125470814D01*
X137502448Y-125572271D01*
X137531778Y-125608009D01*
X137615443Y-125764534D01*
X137666963Y-125934373D01*
X137684359Y-126111000D01*
X137666963Y-126287627D01*
X137615443Y-126457466D01*
X137615442Y-126457468D01*
X137589817Y-126505409D01*
X137531778Y-126613991D01*
X137521922Y-126626000D01*
X137419186Y-126751186D01*
X137317729Y-126834448D01*
X137281991Y-126863778D01*
X137125466Y-126947443D01*
X136955627Y-126998963D01*
X136889443Y-127005481D01*
X136823260Y-127012000D01*
X136734740Y-127012000D01*
X136668557Y-127005481D01*
X136602373Y-126998963D01*
X136432534Y-126947443D01*
X136276009Y-126863778D01*
X136240271Y-126834448D01*
X136138814Y-126751186D01*
X136036078Y-126626000D01*
X136026222Y-126613991D01*
X135968183Y-126505409D01*
X135942558Y-126457468D01*
X135942557Y-126457466D01*
X135891037Y-126287627D01*
X135873641Y-126111000D01*
X135891037Y-125934373D01*
X135942557Y-125764534D01*
X136026222Y-125608009D01*
X136055552Y-125572271D01*
X136138814Y-125470814D01*
X136240271Y-125387552D01*
X136276009Y-125358222D01*
X136432534Y-125274557D01*
X136602373Y-125223037D01*
X136668557Y-125216519D01*
X136734740Y-125210000D01*
X136823260Y-125210000D01*
X136889443Y-125216519D01*
X136889443Y-125216519D01*
G37*
G36*
X139429443Y-125216519D02*
G01*
X139495627Y-125223037D01*
X139665466Y-125274557D01*
X139821991Y-125358222D01*
X139857729Y-125387552D01*
X139959186Y-125470814D01*
X140042448Y-125572271D01*
X140071778Y-125608009D01*
X140155443Y-125764534D01*
X140206963Y-125934373D01*
X140224359Y-126111000D01*
X140206963Y-126287627D01*
X140155443Y-126457466D01*
X140155442Y-126457468D01*
X140129817Y-126505409D01*
X140071778Y-126613991D01*
X140061922Y-126626000D01*
X139959186Y-126751186D01*
X139857729Y-126834448D01*
X139821991Y-126863778D01*
X139665466Y-126947443D01*
X139495627Y-126998963D01*
X139429443Y-127005481D01*
X139363260Y-127012000D01*
X139274740Y-127012000D01*
X139208557Y-127005481D01*
X139142373Y-126998963D01*
X138972534Y-126947443D01*
X138816009Y-126863778D01*
X138780271Y-126834448D01*
X138678814Y-126751186D01*
X138576078Y-126626000D01*
X138566222Y-126613991D01*
X138508183Y-126505409D01*
X138482558Y-126457468D01*
X138482557Y-126457466D01*
X138431037Y-126287627D01*
X138413641Y-126111000D01*
X138431037Y-125934373D01*
X138482557Y-125764534D01*
X138566222Y-125608009D01*
X138595552Y-125572271D01*
X138678814Y-125470814D01*
X138780271Y-125387552D01*
X138816009Y-125358222D01*
X138972534Y-125274557D01*
X139142373Y-125223037D01*
X139208557Y-125216519D01*
X139274740Y-125210000D01*
X139363260Y-125210000D01*
X139429443Y-125216519D01*
X139429443Y-125216519D01*
G37*
G36*
X122299591Y-125982085D02*
G01*
X122333569Y-125992393D01*
X122364890Y-126009134D01*
X122392339Y-126031661D01*
X122414866Y-126059110D01*
X122431607Y-126090431D01*
X122441915Y-126124409D01*
X122446000Y-126165890D01*
X122446000Y-126767110D01*
X122441915Y-126808591D01*
X122431607Y-126842569D01*
X122414866Y-126873890D01*
X122392339Y-126901339D01*
X122364890Y-126923866D01*
X122333569Y-126940607D01*
X122299591Y-126950915D01*
X122258110Y-126955000D01*
X121581890Y-126955000D01*
X121540409Y-126950915D01*
X121506431Y-126940607D01*
X121475110Y-126923866D01*
X121447661Y-126901339D01*
X121425134Y-126873890D01*
X121408393Y-126842569D01*
X121398085Y-126808591D01*
X121394000Y-126767110D01*
X121394000Y-126165890D01*
X121398085Y-126124409D01*
X121408393Y-126090431D01*
X121425134Y-126059110D01*
X121447661Y-126031661D01*
X121475110Y-126009134D01*
X121506431Y-125992393D01*
X121540409Y-125982085D01*
X121581890Y-125978000D01*
X122258110Y-125978000D01*
X122299591Y-125982085D01*
X122299591Y-125982085D01*
G37*
G36*
X120341000Y-125827000D02*
G01*
X118739000Y-125827000D01*
X118739000Y-125125000D01*
X120341000Y-125125000D01*
X120341000Y-125827000D01*
X120341000Y-125827000D01*
G37*
G36*
X114941000Y-125827000D02*
G01*
X113339000Y-125827000D01*
X113339000Y-125125000D01*
X114941000Y-125125000D01*
X114941000Y-125827000D01*
X114941000Y-125827000D01*
G37*
G36*
X120341000Y-124557000D02*
G01*
X118739000Y-124557000D01*
X118739000Y-123855000D01*
X120341000Y-123855000D01*
X120341000Y-124557000D01*
X120341000Y-124557000D01*
G37*
G36*
X114941000Y-124557000D02*
G01*
X113339000Y-124557000D01*
X113339000Y-123855000D01*
X114941000Y-123855000D01*
X114941000Y-124557000D01*
X114941000Y-124557000D01*
G37*
G36*
X142760000Y-124472000D02*
G01*
X140958000Y-124472000D01*
X140958000Y-122670000D01*
X142760000Y-122670000D01*
X142760000Y-124472000D01*
X142760000Y-124472000D01*
G37*
G36*
X139429443Y-122676519D02*
G01*
X139495627Y-122683037D01*
X139665466Y-122734557D01*
X139821991Y-122818222D01*
X139857729Y-122847552D01*
X139959186Y-122930814D01*
X140042448Y-123032271D01*
X140071778Y-123068009D01*
X140155443Y-123224534D01*
X140206963Y-123394373D01*
X140224359Y-123571000D01*
X140206963Y-123747627D01*
X140155443Y-123917466D01*
X140071778Y-124073991D01*
X140042448Y-124109729D01*
X139959186Y-124211186D01*
X139857729Y-124294448D01*
X139821991Y-124323778D01*
X139665466Y-124407443D01*
X139495627Y-124458963D01*
X139429442Y-124465482D01*
X139363260Y-124472000D01*
X139274740Y-124472000D01*
X139208558Y-124465482D01*
X139142373Y-124458963D01*
X138972534Y-124407443D01*
X138816009Y-124323778D01*
X138780271Y-124294448D01*
X138678814Y-124211186D01*
X138595552Y-124109729D01*
X138566222Y-124073991D01*
X138482557Y-123917466D01*
X138431037Y-123747627D01*
X138413641Y-123571000D01*
X138431037Y-123394373D01*
X138482557Y-123224534D01*
X138566222Y-123068009D01*
X138595552Y-123032271D01*
X138678814Y-122930814D01*
X138780271Y-122847552D01*
X138816009Y-122818222D01*
X138972534Y-122734557D01*
X139142373Y-122683037D01*
X139208557Y-122676519D01*
X139274740Y-122670000D01*
X139363260Y-122670000D01*
X139429443Y-122676519D01*
X139429443Y-122676519D01*
G37*
G36*
X136889443Y-122676519D02*
G01*
X136955627Y-122683037D01*
X137125466Y-122734557D01*
X137281991Y-122818222D01*
X137317729Y-122847552D01*
X137419186Y-122930814D01*
X137502448Y-123032271D01*
X137531778Y-123068009D01*
X137615443Y-123224534D01*
X137666963Y-123394373D01*
X137684359Y-123571000D01*
X137666963Y-123747627D01*
X137615443Y-123917466D01*
X137531778Y-124073991D01*
X137502448Y-124109729D01*
X137419186Y-124211186D01*
X137317729Y-124294448D01*
X137281991Y-124323778D01*
X137125466Y-124407443D01*
X136955627Y-124458963D01*
X136889442Y-124465482D01*
X136823260Y-124472000D01*
X136734740Y-124472000D01*
X136668558Y-124465482D01*
X136602373Y-124458963D01*
X136432534Y-124407443D01*
X136276009Y-124323778D01*
X136240271Y-124294448D01*
X136138814Y-124211186D01*
X136055552Y-124109729D01*
X136026222Y-124073991D01*
X135942557Y-123917466D01*
X135891037Y-123747627D01*
X135873641Y-123571000D01*
X135891037Y-123394373D01*
X135942557Y-123224534D01*
X136026222Y-123068009D01*
X136055552Y-123032271D01*
X136138814Y-122930814D01*
X136240271Y-122847552D01*
X136276009Y-122818222D01*
X136432534Y-122734557D01*
X136602373Y-122683037D01*
X136668557Y-122676519D01*
X136734740Y-122670000D01*
X136823260Y-122670000D01*
X136889443Y-122676519D01*
X136889443Y-122676519D01*
G37*
G36*
X130606091Y-122858585D02*
G01*
X130640069Y-122868893D01*
X130671390Y-122885634D01*
X130698839Y-122908161D01*
X130721366Y-122935610D01*
X130738107Y-122966931D01*
X130748415Y-123000909D01*
X130752500Y-123042390D01*
X130752500Y-123718610D01*
X130748415Y-123760091D01*
X130738107Y-123794069D01*
X130721366Y-123825390D01*
X130698839Y-123852839D01*
X130671390Y-123875366D01*
X130640069Y-123892107D01*
X130606091Y-123902415D01*
X130564610Y-123906500D01*
X129963390Y-123906500D01*
X129921909Y-123902415D01*
X129887931Y-123892107D01*
X129856610Y-123875366D01*
X129829161Y-123852839D01*
X129806634Y-123825390D01*
X129789893Y-123794069D01*
X129779585Y-123760091D01*
X129775500Y-123718610D01*
X129775500Y-123042390D01*
X129779585Y-123000909D01*
X129789893Y-122966931D01*
X129806634Y-122935610D01*
X129829161Y-122908161D01*
X129856610Y-122885634D01*
X129887931Y-122868893D01*
X129921909Y-122858585D01*
X129963390Y-122854500D01*
X130564610Y-122854500D01*
X130606091Y-122858585D01*
X130606091Y-122858585D01*
G37*
G36*
X129031091Y-122858585D02*
G01*
X129065069Y-122868893D01*
X129096390Y-122885634D01*
X129123839Y-122908161D01*
X129146366Y-122935610D01*
X129163107Y-122966931D01*
X129173415Y-123000909D01*
X129177500Y-123042390D01*
X129177500Y-123718610D01*
X129173415Y-123760091D01*
X129163107Y-123794069D01*
X129146366Y-123825390D01*
X129123839Y-123852839D01*
X129096390Y-123875366D01*
X129065069Y-123892107D01*
X129031091Y-123902415D01*
X128989610Y-123906500D01*
X128388390Y-123906500D01*
X128346909Y-123902415D01*
X128312931Y-123892107D01*
X128281610Y-123875366D01*
X128254161Y-123852839D01*
X128231634Y-123825390D01*
X128214893Y-123794069D01*
X128204585Y-123760091D01*
X128200500Y-123718610D01*
X128200500Y-123042390D01*
X128204585Y-123000909D01*
X128214893Y-122966931D01*
X128231634Y-122935610D01*
X128254161Y-122908161D01*
X128281610Y-122885634D01*
X128312931Y-122868893D01*
X128346909Y-122858585D01*
X128388390Y-122854500D01*
X128989610Y-122854500D01*
X129031091Y-122858585D01*
X129031091Y-122858585D01*
G37*
G36*
X127621591Y-122858585D02*
G01*
X127655569Y-122868893D01*
X127686890Y-122885634D01*
X127714339Y-122908161D01*
X127736866Y-122935610D01*
X127753607Y-122966931D01*
X127763915Y-123000909D01*
X127768000Y-123042390D01*
X127768000Y-123718610D01*
X127763915Y-123760091D01*
X127753607Y-123794069D01*
X127736866Y-123825390D01*
X127714339Y-123852839D01*
X127686890Y-123875366D01*
X127655569Y-123892107D01*
X127621591Y-123902415D01*
X127580110Y-123906500D01*
X126978890Y-123906500D01*
X126937409Y-123902415D01*
X126903431Y-123892107D01*
X126872110Y-123875366D01*
X126844661Y-123852839D01*
X126822134Y-123825390D01*
X126805393Y-123794069D01*
X126795085Y-123760091D01*
X126791000Y-123718610D01*
X126791000Y-123042390D01*
X126795085Y-123000909D01*
X126805393Y-122966931D01*
X126822134Y-122935610D01*
X126844661Y-122908161D01*
X126872110Y-122885634D01*
X126903431Y-122868893D01*
X126937409Y-122858585D01*
X126978890Y-122854500D01*
X127580110Y-122854500D01*
X127621591Y-122858585D01*
X127621591Y-122858585D01*
G37*
G36*
X126046591Y-122858585D02*
G01*
X126080569Y-122868893D01*
X126111890Y-122885634D01*
X126139339Y-122908161D01*
X126161866Y-122935610D01*
X126178607Y-122966931D01*
X126188915Y-123000909D01*
X126193000Y-123042390D01*
X126193000Y-123718610D01*
X126188915Y-123760091D01*
X126178607Y-123794069D01*
X126161866Y-123825390D01*
X126139339Y-123852839D01*
X126111890Y-123875366D01*
X126080569Y-123892107D01*
X126046591Y-123902415D01*
X126005110Y-123906500D01*
X125403890Y-123906500D01*
X125362409Y-123902415D01*
X125328431Y-123892107D01*
X125297110Y-123875366D01*
X125269661Y-123852839D01*
X125247134Y-123825390D01*
X125230393Y-123794069D01*
X125220085Y-123760091D01*
X125216000Y-123718610D01*
X125216000Y-123042390D01*
X125220085Y-123000909D01*
X125230393Y-122966931D01*
X125247134Y-122935610D01*
X125269661Y-122908161D01*
X125297110Y-122885634D01*
X125328431Y-122868893D01*
X125362409Y-122858585D01*
X125403890Y-122854500D01*
X126005110Y-122854500D01*
X126046591Y-122858585D01*
X126046591Y-122858585D01*
G37*
G36*
X114941000Y-123287000D02*
G01*
X113339000Y-123287000D01*
X113339000Y-122585000D01*
X114941000Y-122585000D01*
X114941000Y-123287000D01*
X114941000Y-123287000D01*
G37*
G36*
X120341000Y-123287000D02*
G01*
X118739000Y-123287000D01*
X118739000Y-122585000D01*
X120341000Y-122585000D01*
X120341000Y-123287000D01*
X120341000Y-123287000D01*
G37*
G36*
X114941000Y-122017000D02*
G01*
X113339000Y-122017000D01*
X113339000Y-121315000D01*
X114941000Y-121315000D01*
X114941000Y-122017000D01*
X114941000Y-122017000D01*
G37*
G36*
X120341000Y-122017000D02*
G01*
X118739000Y-122017000D01*
X118739000Y-121315000D01*
X120341000Y-121315000D01*
X120341000Y-122017000D01*
X120341000Y-122017000D01*
G37*
G36*
X142591000Y-121700000D02*
G01*
X141889000Y-121700000D01*
X141889000Y-119598000D01*
X142591000Y-119598000D01*
X142591000Y-121700000D01*
X142591000Y-121700000D01*
G37*
G36*
X132431000Y-121700000D02*
G01*
X131729000Y-121700000D01*
X131729000Y-119598000D01*
X132431000Y-119598000D01*
X132431000Y-121700000D01*
X132431000Y-121700000D01*
G37*
G36*
X133701000Y-121700000D02*
G01*
X132999000Y-121700000D01*
X132999000Y-119598000D01*
X133701000Y-119598000D01*
X133701000Y-121700000D01*
X133701000Y-121700000D01*
G37*
G36*
X134971000Y-121700000D02*
G01*
X134269000Y-121700000D01*
X134269000Y-119598000D01*
X134971000Y-119598000D01*
X134971000Y-121700000D01*
X134971000Y-121700000D01*
G37*
G36*
X137511000Y-121700000D02*
G01*
X136809000Y-121700000D01*
X136809000Y-119598000D01*
X137511000Y-119598000D01*
X137511000Y-121700000D01*
X137511000Y-121700000D01*
G37*
G36*
X141321000Y-121700000D02*
G01*
X140619000Y-121700000D01*
X140619000Y-119598000D01*
X141321000Y-119598000D01*
X141321000Y-121700000D01*
X141321000Y-121700000D01*
G37*
G36*
X140051000Y-121700000D02*
G01*
X139349000Y-121700000D01*
X139349000Y-119598000D01*
X140051000Y-119598000D01*
X140051000Y-121700000D01*
X140051000Y-121700000D01*
G37*
G36*
X138781000Y-121700000D02*
G01*
X138079000Y-121700000D01*
X138079000Y-119598000D01*
X138781000Y-119598000D01*
X138781000Y-121700000D01*
X138781000Y-121700000D01*
G37*
G36*
X136241000Y-121700000D02*
G01*
X135539000Y-121700000D01*
X135539000Y-119598000D01*
X136241000Y-119598000D01*
X136241000Y-121700000D01*
X136241000Y-121700000D01*
G37*
G36*
X128792500Y-120607500D02*
G01*
X122540500Y-120607500D01*
X122540500Y-118905500D01*
X128792500Y-118905500D01*
X128792500Y-120607500D01*
X128792500Y-120607500D01*
G37*
G36*
X118300500Y-120132500D02*
G01*
X114998500Y-120132500D01*
X114998500Y-119630500D01*
X118300500Y-119630500D01*
X118300500Y-120132500D01*
X118300500Y-120132500D01*
G37*
G36*
X118300500Y-118932500D02*
G01*
X114998500Y-118932500D01*
X114998500Y-118430500D01*
X118300500Y-118430500D01*
X118300500Y-118932500D01*
X118300500Y-118932500D01*
G37*
G36*
X133971591Y-117842085D02*
G01*
X134005569Y-117852393D01*
X134036890Y-117869134D01*
X134064339Y-117891661D01*
X134086866Y-117919110D01*
X134103607Y-117950431D01*
X134113915Y-117984409D01*
X134118000Y-118025890D01*
X134118000Y-118702110D01*
X134113915Y-118743591D01*
X134103607Y-118777569D01*
X134086866Y-118808890D01*
X134064339Y-118836339D01*
X134036890Y-118858866D01*
X134005569Y-118875607D01*
X133971591Y-118885915D01*
X133930110Y-118890000D01*
X133328890Y-118890000D01*
X133287409Y-118885915D01*
X133253431Y-118875607D01*
X133222110Y-118858866D01*
X133194661Y-118836339D01*
X133172134Y-118808890D01*
X133155393Y-118777569D01*
X133145085Y-118743591D01*
X133141000Y-118702110D01*
X133141000Y-118025890D01*
X133145085Y-117984409D01*
X133155393Y-117950431D01*
X133172134Y-117919110D01*
X133194661Y-117891661D01*
X133222110Y-117869134D01*
X133253431Y-117852393D01*
X133287409Y-117842085D01*
X133328890Y-117838000D01*
X133930110Y-117838000D01*
X133971591Y-117842085D01*
X133971591Y-117842085D01*
G37*
G36*
X132396591Y-117842085D02*
G01*
X132430569Y-117852393D01*
X132461890Y-117869134D01*
X132489339Y-117891661D01*
X132511866Y-117919110D01*
X132528607Y-117950431D01*
X132538915Y-117984409D01*
X132543000Y-118025890D01*
X132543000Y-118702110D01*
X132538915Y-118743591D01*
X132528607Y-118777569D01*
X132511866Y-118808890D01*
X132489339Y-118836339D01*
X132461890Y-118858866D01*
X132430569Y-118875607D01*
X132396591Y-118885915D01*
X132355110Y-118890000D01*
X131753890Y-118890000D01*
X131712409Y-118885915D01*
X131678431Y-118875607D01*
X131647110Y-118858866D01*
X131619661Y-118836339D01*
X131597134Y-118808890D01*
X131580393Y-118777569D01*
X131570085Y-118743591D01*
X131566000Y-118702110D01*
X131566000Y-118025890D01*
X131570085Y-117984409D01*
X131580393Y-117950431D01*
X131597134Y-117919110D01*
X131619661Y-117891661D01*
X131647110Y-117869134D01*
X131678431Y-117852393D01*
X131712409Y-117842085D01*
X131753890Y-117838000D01*
X132355110Y-117838000D01*
X132396591Y-117842085D01*
X132396591Y-117842085D01*
G37*
G36*
X140575591Y-117842085D02*
G01*
X140609569Y-117852393D01*
X140640890Y-117869134D01*
X140668339Y-117891661D01*
X140690866Y-117919110D01*
X140707607Y-117950431D01*
X140717915Y-117984409D01*
X140722000Y-118025890D01*
X140722000Y-118702110D01*
X140717915Y-118743591D01*
X140707607Y-118777569D01*
X140690866Y-118808890D01*
X140668339Y-118836339D01*
X140640890Y-118858866D01*
X140609569Y-118875607D01*
X140575591Y-118885915D01*
X140534110Y-118890000D01*
X139932890Y-118890000D01*
X139891409Y-118885915D01*
X139857431Y-118875607D01*
X139826110Y-118858866D01*
X139798661Y-118836339D01*
X139776134Y-118808890D01*
X139759393Y-118777569D01*
X139749085Y-118743591D01*
X139745000Y-118702110D01*
X139745000Y-118025890D01*
X139749085Y-117984409D01*
X139759393Y-117950431D01*
X139776134Y-117919110D01*
X139798661Y-117891661D01*
X139826110Y-117869134D01*
X139857431Y-117852393D01*
X139891409Y-117842085D01*
X139932890Y-117838000D01*
X140534110Y-117838000D01*
X140575591Y-117842085D01*
X140575591Y-117842085D01*
G37*
G36*
X139000591Y-117842085D02*
G01*
X139034569Y-117852393D01*
X139065890Y-117869134D01*
X139093339Y-117891661D01*
X139115866Y-117919110D01*
X139132607Y-117950431D01*
X139142915Y-117984409D01*
X139147000Y-118025890D01*
X139147000Y-118702110D01*
X139142915Y-118743591D01*
X139132607Y-118777569D01*
X139115866Y-118808890D01*
X139093339Y-118836339D01*
X139065890Y-118858866D01*
X139034569Y-118875607D01*
X139000591Y-118885915D01*
X138959110Y-118890000D01*
X138357890Y-118890000D01*
X138316409Y-118885915D01*
X138282431Y-118875607D01*
X138251110Y-118858866D01*
X138223661Y-118836339D01*
X138201134Y-118808890D01*
X138184393Y-118777569D01*
X138174085Y-118743591D01*
X138170000Y-118702110D01*
X138170000Y-118025890D01*
X138174085Y-117984409D01*
X138184393Y-117950431D01*
X138201134Y-117919110D01*
X138223661Y-117891661D01*
X138251110Y-117869134D01*
X138282431Y-117852393D01*
X138316409Y-117842085D01*
X138357890Y-117838000D01*
X138959110Y-117838000D01*
X139000591Y-117842085D01*
X139000591Y-117842085D01*
G37*
G36*
X122267500Y-118632500D02*
G01*
X120565500Y-118632500D01*
X120565500Y-112380500D01*
X122267500Y-112380500D01*
X122267500Y-118632500D01*
X122267500Y-118632500D01*
G37*
G36*
X130767500Y-118632500D02*
G01*
X129065500Y-118632500D01*
X129065500Y-112380500D01*
X130767500Y-112380500D01*
X130767500Y-118632500D01*
X130767500Y-118632500D01*
G37*
G36*
X118300500Y-117732500D02*
G01*
X114998500Y-117732500D01*
X114998500Y-117230500D01*
X118300500Y-117230500D01*
X118300500Y-117732500D01*
X118300500Y-117732500D01*
G37*
G36*
X136968591Y-115556085D02*
G01*
X137002569Y-115566393D01*
X137033890Y-115583134D01*
X137061339Y-115605661D01*
X137083866Y-115633110D01*
X137100607Y-115664431D01*
X137110915Y-115698409D01*
X137115000Y-115739890D01*
X137115000Y-116416110D01*
X137110915Y-116457591D01*
X137100607Y-116491569D01*
X137083866Y-116522890D01*
X137061339Y-116550339D01*
X137033890Y-116572866D01*
X137002569Y-116589607D01*
X136968591Y-116599915D01*
X136927110Y-116604000D01*
X136325890Y-116604000D01*
X136284409Y-116599915D01*
X136250431Y-116589607D01*
X136219110Y-116572866D01*
X136191661Y-116550339D01*
X136169134Y-116522890D01*
X136152393Y-116491569D01*
X136142085Y-116457591D01*
X136138000Y-116416110D01*
X136138000Y-115739890D01*
X136142085Y-115698409D01*
X136152393Y-115664431D01*
X136169134Y-115633110D01*
X136191661Y-115605661D01*
X136219110Y-115583134D01*
X136250431Y-115566393D01*
X136284409Y-115556085D01*
X136325890Y-115552000D01*
X136927110Y-115552000D01*
X136968591Y-115556085D01*
X136968591Y-115556085D01*
G37*
G36*
X138543591Y-115556085D02*
G01*
X138577569Y-115566393D01*
X138608890Y-115583134D01*
X138636339Y-115605661D01*
X138658866Y-115633110D01*
X138675607Y-115664431D01*
X138685915Y-115698409D01*
X138690000Y-115739890D01*
X138690000Y-116416110D01*
X138685915Y-116457591D01*
X138675607Y-116491569D01*
X138658866Y-116522890D01*
X138636339Y-116550339D01*
X138608890Y-116572866D01*
X138577569Y-116589607D01*
X138543591Y-116599915D01*
X138502110Y-116604000D01*
X137900890Y-116604000D01*
X137859409Y-116599915D01*
X137825431Y-116589607D01*
X137794110Y-116572866D01*
X137766661Y-116550339D01*
X137744134Y-116522890D01*
X137727393Y-116491569D01*
X137717085Y-116457591D01*
X137713000Y-116416110D01*
X137713000Y-115739890D01*
X137717085Y-115698409D01*
X137727393Y-115664431D01*
X137744134Y-115633110D01*
X137766661Y-115605661D01*
X137794110Y-115583134D01*
X137825431Y-115566393D01*
X137859409Y-115556085D01*
X137900890Y-115552000D01*
X138502110Y-115552000D01*
X138543591Y-115556085D01*
X138543591Y-115556085D01*
G37*
G36*
X132396591Y-115556085D02*
G01*
X132430569Y-115566393D01*
X132461890Y-115583134D01*
X132489339Y-115605661D01*
X132511866Y-115633110D01*
X132528607Y-115664431D01*
X132538915Y-115698409D01*
X132543000Y-115739890D01*
X132543000Y-116416110D01*
X132538915Y-116457591D01*
X132528607Y-116491569D01*
X132511866Y-116522890D01*
X132489339Y-116550339D01*
X132461890Y-116572866D01*
X132430569Y-116589607D01*
X132396591Y-116599915D01*
X132355110Y-116604000D01*
X131753890Y-116604000D01*
X131712409Y-116599915D01*
X131678431Y-116589607D01*
X131647110Y-116572866D01*
X131619661Y-116550339D01*
X131597134Y-116522890D01*
X131580393Y-116491569D01*
X131570085Y-116457591D01*
X131566000Y-116416110D01*
X131566000Y-115739890D01*
X131570085Y-115698409D01*
X131580393Y-115664431D01*
X131597134Y-115633110D01*
X131619661Y-115605661D01*
X131647110Y-115583134D01*
X131678431Y-115566393D01*
X131712409Y-115556085D01*
X131753890Y-115552000D01*
X132355110Y-115552000D01*
X132396591Y-115556085D01*
X132396591Y-115556085D01*
G37*
G36*
X133971591Y-115556085D02*
G01*
X134005569Y-115566393D01*
X134036890Y-115583134D01*
X134064339Y-115605661D01*
X134086866Y-115633110D01*
X134103607Y-115664431D01*
X134113915Y-115698409D01*
X134118000Y-115739890D01*
X134118000Y-116416110D01*
X134113915Y-116457591D01*
X134103607Y-116491569D01*
X134086866Y-116522890D01*
X134064339Y-116550339D01*
X134036890Y-116572866D01*
X134005569Y-116589607D01*
X133971591Y-116599915D01*
X133930110Y-116604000D01*
X133328890Y-116604000D01*
X133287409Y-116599915D01*
X133253431Y-116589607D01*
X133222110Y-116572866D01*
X133194661Y-116550339D01*
X133172134Y-116522890D01*
X133155393Y-116491569D01*
X133145085Y-116457591D01*
X133141000Y-116416110D01*
X133141000Y-115739890D01*
X133145085Y-115698409D01*
X133155393Y-115664431D01*
X133172134Y-115633110D01*
X133194661Y-115605661D01*
X133222110Y-115583134D01*
X133253431Y-115566393D01*
X133287409Y-115556085D01*
X133328890Y-115552000D01*
X133930110Y-115552000D01*
X133971591Y-115556085D01*
X133971591Y-115556085D01*
G37*
G36*
X128792500Y-112107500D02*
G01*
X122540500Y-112107500D01*
X122540500Y-110405500D01*
X128792500Y-110405500D01*
X128792500Y-112107500D01*
X128792500Y-112107500D01*
G37*
M02*
