G04 #@! TF.GenerationSoftware,KiCad,Pcbnew,(5.1.2)-2*
G04 #@! TF.CreationDate,2019-08-10T12:47:09-04:00*
G04 #@! TF.ProjectId,toyota-angle-sensor,746f796f-7461-42d6-916e-676c652d7365,rev?*
G04 #@! TF.SameCoordinates,Original*
G04 #@! TF.FileFunction,Legend,Bot*
G04 #@! TF.FilePolarity,Positive*
%FSLAX46Y46*%
G04 Gerber Fmt 4.6, Leading zero omitted, Abs format (unit mm)*
G04 Created by KiCad (PCBNEW (5.1.2)-2) date 2019-08-10 12:47:09*
%MOMM*%
%LPD*%
G04 APERTURE LIST*
%ADD10C,0.120000*%
%ADD11C,0.150000*%
G04 APERTURE END LIST*
D10*
X133096000Y-115062000D02*
X133477000Y-115062000D01*
X132842000Y-115316000D02*
X133096000Y-115062000D01*
X137033000Y-115062000D02*
X137287000Y-115316000D01*
X136652000Y-115062000D02*
X137033000Y-115062000D01*
X134747000Y-118364000D02*
X134239000Y-118364000D01*
X137541000Y-118364000D02*
X138049000Y-118364000D01*
D11*
X114752380Y-116927523D02*
X114752380Y-116356095D01*
X114752380Y-116641809D02*
X113752380Y-116641809D01*
X113895238Y-116546571D01*
X113990476Y-116451333D01*
X114038095Y-116356095D01*
X113752380Y-117784666D02*
X113752380Y-117594190D01*
X113800000Y-117498952D01*
X113847619Y-117451333D01*
X113990476Y-117356095D01*
X114180952Y-117308476D01*
X114561904Y-117308476D01*
X114657142Y-117356095D01*
X114704761Y-117403714D01*
X114752380Y-117498952D01*
X114752380Y-117689428D01*
X114704761Y-117784666D01*
X114657142Y-117832285D01*
X114561904Y-117879904D01*
X114323809Y-117879904D01*
X114228571Y-117832285D01*
X114180952Y-117784666D01*
X114133333Y-117689428D01*
X114133333Y-117498952D01*
X114180952Y-117403714D01*
X114228571Y-117356095D01*
X114323809Y-117308476D01*
X114752380Y-118308476D02*
X113752380Y-118308476D01*
X114466666Y-118641809D01*
X113752380Y-118975142D01*
X114752380Y-118975142D01*
X114752380Y-119451333D02*
X113752380Y-119451333D01*
X114228571Y-119451333D02*
X114228571Y-120022761D01*
X114752380Y-120022761D02*
X113752380Y-120022761D01*
X114085714Y-120403714D02*
X114085714Y-120927523D01*
X114752380Y-120403714D01*
X114752380Y-120927523D01*
D10*
X129032000Y-140970000D02*
X129159000Y-140843000D01*
X128905000Y-141097000D02*
X129032000Y-140970000D01*
X128143000Y-141859000D02*
X128905000Y-141097000D01*
X127381000Y-141859000D02*
X128143000Y-141859000D01*
X142240000Y-128778000D02*
X141605000Y-128778000D01*
X142875000Y-128143000D02*
X142240000Y-128778000D01*
X142875000Y-127381000D02*
X142875000Y-128143000D01*
X125095000Y-128778000D02*
X125095000Y-128397000D01*
X125730000Y-129413000D02*
X125095000Y-128778000D01*
X126111000Y-129413000D02*
X125730000Y-129413000D01*
X115062000Y-129032000D02*
X115062000Y-128270000D01*
X115824000Y-129794000D02*
X115062000Y-129032000D01*
X116586000Y-129794000D02*
X115824000Y-129794000D01*
X122682000Y-118110000D02*
X122682000Y-116840000D01*
X124714000Y-118618000D02*
X123190000Y-118618000D01*
D11*
X128524755Y-113364207D02*
X128154366Y-112993818D01*
X128120694Y-112892803D01*
X128154366Y-112791788D01*
X128289053Y-112657101D01*
X128390068Y-112623429D01*
X128491083Y-113330536D02*
X128592098Y-113296864D01*
X128760457Y-113128505D01*
X128794129Y-113027490D01*
X128760457Y-112926475D01*
X128693114Y-112859131D01*
X128592098Y-112825459D01*
X128491083Y-112859131D01*
X128322724Y-113027490D01*
X128221709Y-113061162D01*
X127817648Y-113128505D02*
X127548274Y-113397879D01*
X127480931Y-112993818D02*
X128087022Y-113599910D01*
X128120694Y-113700925D01*
X128087022Y-113801940D01*
X128019679Y-113869284D01*
X127783976Y-114104986D02*
X127312572Y-113633581D01*
X127379915Y-113700925D02*
X127312572Y-113700925D01*
X127211557Y-113734597D01*
X127110541Y-113835612D01*
X127076870Y-113936627D01*
X127110541Y-114037642D01*
X127480931Y-114408032D01*
X127110541Y-114037642D02*
X127009526Y-114003971D01*
X126908511Y-114037642D01*
X126807496Y-114138658D01*
X126773824Y-114239673D01*
X126807496Y-114340688D01*
X127177885Y-114711077D01*
X126538122Y-115283497D02*
X126639137Y-115249825D01*
X126773824Y-115115138D01*
X126807496Y-115014123D01*
X126773824Y-114913108D01*
X126504450Y-114643734D01*
X126403435Y-114610062D01*
X126302419Y-114643734D01*
X126167732Y-114778421D01*
X126134061Y-114879436D01*
X126167732Y-114980451D01*
X126235076Y-115047795D01*
X126639137Y-114778421D01*
X125460625Y-115485528D02*
X126033045Y-116057948D01*
X126134061Y-116091619D01*
X126201404Y-116091619D01*
X126302419Y-116057948D01*
X126403435Y-115956932D01*
X126437106Y-115855917D01*
X125898358Y-115923261D02*
X125999374Y-115889589D01*
X126134061Y-115754902D01*
X126167732Y-115653887D01*
X126167732Y-115586543D01*
X126134061Y-115485528D01*
X125932030Y-115283497D01*
X125831015Y-115249825D01*
X125763671Y-115249825D01*
X125662656Y-115283497D01*
X125527969Y-115418184D01*
X125494297Y-115519200D01*
X125292267Y-116596696D02*
X124921877Y-116226306D01*
X124888206Y-116125291D01*
X124921877Y-116024276D01*
X125056564Y-115889589D01*
X125157580Y-115855917D01*
X125258595Y-116563024D02*
X125359610Y-116529352D01*
X125527969Y-116360993D01*
X125561641Y-116259978D01*
X125527969Y-116158963D01*
X125460625Y-116091619D01*
X125359610Y-116057948D01*
X125258595Y-116091619D01*
X125090236Y-116259978D01*
X124989221Y-116293650D01*
X124315786Y-116158963D02*
X123878053Y-116596696D01*
X124383129Y-116630367D01*
X124282114Y-116731383D01*
X124248442Y-116832398D01*
X124248442Y-116899741D01*
X124282114Y-117000757D01*
X124450473Y-117169115D01*
X124551488Y-117202787D01*
X124618832Y-117202787D01*
X124719847Y-117169115D01*
X124921877Y-116967085D01*
X124955549Y-116866070D01*
X124955549Y-116798726D01*
X123676023Y-116933413D02*
X123608679Y-116933413D01*
X123507664Y-116967085D01*
X123339305Y-117135444D01*
X123305633Y-117236459D01*
X123305633Y-117303802D01*
X123339305Y-117404818D01*
X123406649Y-117472161D01*
X123541336Y-117539505D01*
X124349458Y-117539505D01*
X123911725Y-117977237D01*
X123103603Y-117977237D02*
X123137275Y-117876222D01*
X123137275Y-117808879D01*
X123103603Y-117707863D01*
X123069931Y-117674192D01*
X122968916Y-117640520D01*
X122901572Y-117640520D01*
X122800557Y-117674192D01*
X122665870Y-117808879D01*
X122632198Y-117909894D01*
X122632198Y-117977237D01*
X122665870Y-118078253D01*
X122699542Y-118111924D01*
X122800557Y-118145596D01*
X122867901Y-118145596D01*
X122968916Y-118111924D01*
X123103603Y-117977237D01*
X123204618Y-117943566D01*
X123271962Y-117943566D01*
X123372977Y-117977237D01*
X123507664Y-118111924D01*
X123541336Y-118212940D01*
X123541336Y-118280283D01*
X123507664Y-118381298D01*
X123372977Y-118515985D01*
X123271962Y-118549657D01*
X123204618Y-118549657D01*
X123103603Y-118515985D01*
X122968916Y-118381298D01*
X122935244Y-118280283D01*
X122935244Y-118212940D01*
X122968916Y-118111924D01*
D10*
X132302929Y-133245829D02*
X138213745Y-132203593D01*
X138838879Y-135748901D02*
X132928063Y-136791137D01*
X129313721Y-122870500D02*
X129639279Y-122870500D01*
X129313721Y-123890500D02*
X129639279Y-123890500D01*
X122590779Y-138178000D02*
X122265221Y-138178000D01*
X122590779Y-137158000D02*
X122265221Y-137158000D01*
X137576779Y-116588000D02*
X137251221Y-116588000D01*
X137576779Y-115568000D02*
X137251221Y-115568000D01*
X120487221Y-132713000D02*
X120812779Y-132713000D01*
X120487221Y-133733000D02*
X120812779Y-133733000D01*
X133004779Y-116588000D02*
X132679221Y-116588000D01*
X133004779Y-115568000D02*
X132679221Y-115568000D01*
X126329221Y-122870500D02*
X126654779Y-122870500D01*
X126329221Y-123890500D02*
X126654779Y-123890500D01*
X133990133Y-136940014D02*
X134310745Y-136883482D01*
X134167255Y-137944518D02*
X134487867Y-137887986D01*
X137408867Y-137379986D02*
X137088255Y-137436518D01*
X137231745Y-136375482D02*
X136911133Y-136432014D01*
X115318000Y-135981221D02*
X115318000Y-136306779D01*
X114298000Y-135981221D02*
X114298000Y-136306779D01*
X116842000Y-135981221D02*
X116842000Y-136306779D01*
X115822000Y-135981221D02*
X115822000Y-136306779D01*
X122430000Y-127091221D02*
X122430000Y-127416779D01*
X121410000Y-127091221D02*
X121410000Y-127416779D01*
X120487221Y-131189000D02*
X120812779Y-131189000D01*
X120487221Y-132209000D02*
X120812779Y-132209000D01*
X139608779Y-118874000D02*
X139283221Y-118874000D01*
X139608779Y-117854000D02*
X139283221Y-117854000D01*
X110615000Y-127797779D02*
X110615000Y-127472221D01*
X111635000Y-127797779D02*
X111635000Y-127472221D01*
X118362000Y-137830779D02*
X118362000Y-137505221D01*
X119382000Y-137830779D02*
X119382000Y-137505221D01*
X133004779Y-118874000D02*
X132679221Y-118874000D01*
X133004779Y-117854000D02*
X132679221Y-117854000D01*
D11*
X142860000Y-129224000D02*
X142860000Y-131049000D01*
X131210000Y-129224000D02*
X131210000Y-121474000D01*
X143110000Y-129224000D02*
X143110000Y-121474000D01*
X131210000Y-129224000D02*
X131555000Y-129224000D01*
X131210000Y-121474000D02*
X131555000Y-121474000D01*
X143110000Y-121474000D02*
X142765000Y-121474000D01*
X143110000Y-129224000D02*
X142860000Y-129224000D01*
D10*
X116300000Y-134365000D02*
X112300000Y-134365000D01*
X116300000Y-131065000D02*
X116300000Y-134365000D01*
X115449500Y-120481500D02*
X115449500Y-120331500D01*
X117849500Y-120481500D02*
X117849500Y-120331500D01*
X117849500Y-117931500D02*
X117849500Y-117881500D01*
X117849500Y-116881500D02*
X117849500Y-117031500D01*
X115449500Y-116881500D02*
X115449500Y-117031500D01*
X117449500Y-116681500D02*
X117849500Y-116681500D01*
X117449500Y-116881500D02*
X117849500Y-116881500D01*
X117449500Y-120481500D02*
X117849500Y-120481500D01*
X115449500Y-116681500D02*
X117449500Y-116681500D01*
X117849500Y-117931500D02*
X118249500Y-117931500D01*
X117449500Y-116881500D02*
X115449500Y-116881500D01*
X115449500Y-120481500D02*
X117449500Y-120481500D01*
D11*
X129144000Y-142130600D02*
X129144000Y-143530600D01*
X124044000Y-142130600D02*
X124044000Y-137980600D01*
X129194000Y-142130600D02*
X129194000Y-137980600D01*
X124044000Y-142130600D02*
X124189000Y-142130600D01*
X124044000Y-137980600D02*
X124189000Y-137980600D01*
X129194000Y-137980600D02*
X129049000Y-137980600D01*
X129194000Y-142130600D02*
X129144000Y-142130600D01*
X124675000Y-129500000D02*
X123325000Y-129500000D01*
X124675000Y-124375000D02*
X129325000Y-124375000D01*
X124675000Y-129625000D02*
X129325000Y-129625000D01*
X124675000Y-124375000D02*
X124675000Y-124600000D01*
X129325000Y-124375000D02*
X129325000Y-124600000D01*
X129325000Y-129625000D02*
X129325000Y-129400000D01*
X124675000Y-129625000D02*
X124675000Y-129500000D01*
X114765000Y-129926000D02*
X114765000Y-129901000D01*
X118915000Y-129926000D02*
X118915000Y-129811000D01*
X118915000Y-121026000D02*
X118915000Y-121141000D01*
X114765000Y-121026000D02*
X114765000Y-121141000D01*
X114765000Y-129926000D02*
X118915000Y-129926000D01*
X114765000Y-121026000D02*
X118915000Y-121026000D01*
X114765000Y-129901000D02*
X113390000Y-129901000D01*
X122041500Y-119131500D02*
X122041500Y-118906500D01*
X129291500Y-119131500D02*
X129291500Y-118806500D01*
X129291500Y-111881500D02*
X129291500Y-112206500D01*
X122041500Y-111881500D02*
X122041500Y-112206500D01*
X122041500Y-119131500D02*
X122366500Y-119131500D01*
X122041500Y-111881500D02*
X122366500Y-111881500D01*
X129291500Y-111881500D02*
X128966500Y-111881500D01*
X129291500Y-119131500D02*
X128966500Y-119131500D01*
X122041500Y-118906500D02*
X120616500Y-118906500D01*
X136401661Y-131764847D02*
X136487183Y-131701414D01*
X136525810Y-131646249D01*
X136556168Y-131544189D01*
X136547899Y-131497293D01*
X136484465Y-131411771D01*
X136429300Y-131373145D01*
X136327240Y-131342787D01*
X136139658Y-131375863D01*
X136054136Y-131439296D01*
X136015509Y-131494461D01*
X135985151Y-131596521D01*
X135993420Y-131643417D01*
X136056854Y-131728939D01*
X136112018Y-131767565D01*
X136214079Y-131797923D01*
X136401661Y-131764847D01*
X136503721Y-131795205D01*
X136558886Y-131833832D01*
X136622319Y-131919354D01*
X136655395Y-132106936D01*
X136625037Y-132208996D01*
X136586411Y-132264161D01*
X136500888Y-132327595D01*
X136313306Y-132360670D01*
X136211246Y-132330313D01*
X136156081Y-132291686D01*
X136092648Y-132206164D01*
X136059572Y-132018581D01*
X136089930Y-131916521D01*
X136128556Y-131861357D01*
X136214079Y-131797923D01*
X135703663Y-132468167D02*
X135530015Y-131483359D01*
X135325780Y-132244676D01*
X134873476Y-131599125D01*
X135047125Y-132583932D01*
X134578169Y-132666622D02*
X134404520Y-131681814D01*
X134487210Y-132150770D02*
X133924463Y-132249998D01*
X134015421Y-132765850D02*
X133841773Y-131781042D01*
X133524491Y-132175463D02*
X133008639Y-132266421D01*
X133640256Y-132832001D01*
X133124405Y-132922960D01*
X130833642Y-122307642D02*
X130786023Y-122355261D01*
X130833642Y-122402880D01*
X130881261Y-122355261D01*
X130833642Y-122307642D01*
X130833642Y-122402880D01*
X129833642Y-122402880D02*
X130405071Y-122402880D01*
X130119357Y-122402880D02*
X130119357Y-121402880D01*
X130214595Y-121545738D01*
X130309833Y-121640976D01*
X130405071Y-121688595D01*
X128976500Y-121736214D02*
X128976500Y-122402880D01*
X129405071Y-121736214D02*
X129405071Y-122260023D01*
X129357452Y-122355261D01*
X129262214Y-122402880D01*
X129119357Y-122402880D01*
X129024119Y-122355261D01*
X128976500Y-122307642D01*
X128166976Y-121879071D02*
X128500309Y-121879071D01*
X128500309Y-122402880D02*
X128500309Y-121402880D01*
X128024119Y-121402880D01*
X124039142Y-136755142D02*
X123991523Y-136802761D01*
X124039142Y-136850380D01*
X124086761Y-136802761D01*
X124039142Y-136755142D01*
X124039142Y-136850380D01*
X123039142Y-136850380D02*
X123610571Y-136850380D01*
X123324857Y-136850380D02*
X123324857Y-135850380D01*
X123420095Y-135993238D01*
X123515333Y-136088476D01*
X123610571Y-136136095D01*
X122182000Y-136183714D02*
X122182000Y-136850380D01*
X122610571Y-136183714D02*
X122610571Y-136707523D01*
X122562952Y-136802761D01*
X122467714Y-136850380D01*
X122324857Y-136850380D01*
X122229619Y-136802761D01*
X122182000Y-136755142D01*
X121372476Y-136326571D02*
X121705809Y-136326571D01*
X121705809Y-136850380D02*
X121705809Y-135850380D01*
X121229619Y-135850380D01*
X136485142Y-115419142D02*
X136437523Y-115466761D01*
X136485142Y-115514380D01*
X136532761Y-115466761D01*
X136485142Y-115419142D01*
X136485142Y-115514380D01*
X135485142Y-115514380D02*
X136056571Y-115514380D01*
X135770857Y-115514380D02*
X135770857Y-114514380D01*
X135866095Y-114657238D01*
X135961333Y-114752476D01*
X136056571Y-114800095D01*
X134628000Y-114847714D02*
X134628000Y-115514380D01*
X135056571Y-114847714D02*
X135056571Y-115371523D01*
X135008952Y-115466761D01*
X134913714Y-115514380D01*
X134770857Y-115514380D01*
X134675619Y-115466761D01*
X134628000Y-115419142D01*
X133818476Y-114990571D02*
X134151809Y-114990571D01*
X134151809Y-115514380D02*
X134151809Y-114514380D01*
X133675619Y-114514380D01*
X121245142Y-134723142D02*
X121197523Y-134770761D01*
X121245142Y-134818380D01*
X121292761Y-134770761D01*
X121245142Y-134723142D01*
X121245142Y-134818380D01*
X120245142Y-134818380D02*
X120816571Y-134818380D01*
X120530857Y-134818380D02*
X120530857Y-133818380D01*
X120626095Y-133961238D01*
X120721333Y-134056476D01*
X120816571Y-134104095D01*
X119388000Y-134151714D02*
X119388000Y-134818380D01*
X119816571Y-134151714D02*
X119816571Y-134675523D01*
X119768952Y-134770761D01*
X119673714Y-134818380D01*
X119530857Y-134818380D01*
X119435619Y-134770761D01*
X119388000Y-134723142D01*
X118578476Y-134294571D02*
X118911809Y-134294571D01*
X118911809Y-134818380D02*
X118911809Y-133818380D01*
X118435619Y-133818380D01*
X127039523Y-122402880D02*
X127610952Y-122402880D01*
X127325238Y-122402880D02*
X127325238Y-121402880D01*
X127420476Y-121545738D01*
X127515714Y-121640976D01*
X127610952Y-121688595D01*
X126610952Y-122307642D02*
X126563333Y-122355261D01*
X126610952Y-122402880D01*
X126658571Y-122355261D01*
X126610952Y-122307642D01*
X126610952Y-122402880D01*
X125944285Y-121402880D02*
X125849047Y-121402880D01*
X125753809Y-121450500D01*
X125706190Y-121498119D01*
X125658571Y-121593357D01*
X125610952Y-121783833D01*
X125610952Y-122021928D01*
X125658571Y-122212404D01*
X125706190Y-122307642D01*
X125753809Y-122355261D01*
X125849047Y-122402880D01*
X125944285Y-122402880D01*
X126039523Y-122355261D01*
X126087142Y-122307642D01*
X126134761Y-122212404D01*
X126182380Y-122021928D01*
X126182380Y-121783833D01*
X126134761Y-121593357D01*
X126087142Y-121498119D01*
X126039523Y-121450500D01*
X125944285Y-121402880D01*
X124753809Y-121736214D02*
X124753809Y-122402880D01*
X125182380Y-121736214D02*
X125182380Y-122260023D01*
X125134761Y-122355261D01*
X125039523Y-122402880D01*
X124896666Y-122402880D01*
X124801428Y-122355261D01*
X124753809Y-122307642D01*
X123944285Y-121879071D02*
X124277619Y-121879071D01*
X124277619Y-122402880D02*
X124277619Y-121402880D01*
X123801428Y-121402880D01*
X137429343Y-137953212D02*
X137374178Y-137914585D01*
X137272118Y-137884228D01*
X137037640Y-137925573D01*
X136952118Y-137989006D01*
X136913491Y-138044171D01*
X136883133Y-138146231D01*
X136899671Y-138240022D01*
X136971374Y-138372440D01*
X137633349Y-138835960D01*
X137023706Y-138943456D01*
X136521788Y-138016531D02*
X135865250Y-138132297D01*
X136460959Y-139042684D01*
X135547968Y-138526718D02*
X135721616Y-139511525D01*
X135556237Y-138573613D02*
X135454177Y-138543255D01*
X135266594Y-138576331D01*
X135181072Y-138639765D01*
X135142445Y-138694929D01*
X135112087Y-138796990D01*
X135161701Y-139078363D01*
X135225135Y-139163885D01*
X135280299Y-139202512D01*
X135382360Y-139232870D01*
X135569942Y-139199794D01*
X135655464Y-139136360D01*
X134353489Y-138882397D02*
X134681758Y-138824515D01*
X134772717Y-139340366D02*
X134599068Y-138355559D01*
X134130112Y-138438248D01*
X116895428Y-138628380D02*
X117466857Y-138628380D01*
X117181142Y-138628380D02*
X117181142Y-137628380D01*
X117276380Y-137771238D01*
X117371619Y-137866476D01*
X117466857Y-137914095D01*
X116324000Y-138056952D02*
X116419238Y-138009333D01*
X116466857Y-137961714D01*
X116514476Y-137866476D01*
X116514476Y-137818857D01*
X116466857Y-137723619D01*
X116419238Y-137676000D01*
X116324000Y-137628380D01*
X116133523Y-137628380D01*
X116038285Y-137676000D01*
X115990666Y-137723619D01*
X115943047Y-137818857D01*
X115943047Y-137866476D01*
X115990666Y-137961714D01*
X116038285Y-138009333D01*
X116133523Y-138056952D01*
X116324000Y-138056952D01*
X116419238Y-138104571D01*
X116466857Y-138152190D01*
X116514476Y-138247428D01*
X116514476Y-138437904D01*
X116466857Y-138533142D01*
X116419238Y-138580761D01*
X116324000Y-138628380D01*
X116133523Y-138628380D01*
X116038285Y-138580761D01*
X115990666Y-138533142D01*
X115943047Y-138437904D01*
X115943047Y-138247428D01*
X115990666Y-138152190D01*
X116038285Y-138104571D01*
X116133523Y-138056952D01*
X115514476Y-137961714D02*
X115514476Y-138961714D01*
X115514476Y-138009333D02*
X115419238Y-137961714D01*
X115228761Y-137961714D01*
X115133523Y-138009333D01*
X115085904Y-138056952D01*
X115038285Y-138152190D01*
X115038285Y-138437904D01*
X115085904Y-138533142D01*
X115133523Y-138580761D01*
X115228761Y-138628380D01*
X115419238Y-138628380D01*
X115514476Y-138580761D01*
X114276380Y-138104571D02*
X114609714Y-138104571D01*
X114609714Y-138628380D02*
X114609714Y-137628380D01*
X114133523Y-137628380D01*
X122372380Y-123769523D02*
X122372380Y-123198095D01*
X122372380Y-123483809D02*
X121372380Y-123483809D01*
X121515238Y-123388571D01*
X121610476Y-123293333D01*
X121658095Y-123198095D01*
X121372380Y-124388571D02*
X121372380Y-124483809D01*
X121420000Y-124579047D01*
X121467619Y-124626666D01*
X121562857Y-124674285D01*
X121753333Y-124721904D01*
X121991428Y-124721904D01*
X122181904Y-124674285D01*
X122277142Y-124626666D01*
X122324761Y-124579047D01*
X122372380Y-124483809D01*
X122372380Y-124388571D01*
X122324761Y-124293333D01*
X122277142Y-124245714D01*
X122181904Y-124198095D01*
X121991428Y-124150476D01*
X121753333Y-124150476D01*
X121562857Y-124198095D01*
X121467619Y-124245714D01*
X121420000Y-124293333D01*
X121372380Y-124388571D01*
X122372380Y-125150476D02*
X121372380Y-125150476D01*
X122372380Y-125721904D02*
X121800952Y-125293333D01*
X121372380Y-125721904D02*
X121943809Y-125150476D01*
X121340476Y-130721380D02*
X121911904Y-130721380D01*
X121626190Y-130721380D02*
X121626190Y-129721380D01*
X121721428Y-129864238D01*
X121816666Y-129959476D01*
X121911904Y-130007095D01*
X120721428Y-129721380D02*
X120626190Y-129721380D01*
X120530952Y-129769000D01*
X120483333Y-129816619D01*
X120435714Y-129911857D01*
X120388095Y-130102333D01*
X120388095Y-130340428D01*
X120435714Y-130530904D01*
X120483333Y-130626142D01*
X120530952Y-130673761D01*
X120626190Y-130721380D01*
X120721428Y-130721380D01*
X120816666Y-130673761D01*
X120864285Y-130626142D01*
X120911904Y-130530904D01*
X120959523Y-130340428D01*
X120959523Y-130102333D01*
X120911904Y-129911857D01*
X120864285Y-129816619D01*
X120816666Y-129769000D01*
X120721428Y-129721380D01*
X119959523Y-130721380D02*
X119959523Y-129721380D01*
X119388095Y-130721380D02*
X119816666Y-130149952D01*
X119388095Y-129721380D02*
X119959523Y-130292809D01*
X112974380Y-127222285D02*
X112974380Y-126650857D01*
X112974380Y-126936571D02*
X111974380Y-126936571D01*
X112117238Y-126841333D01*
X112212476Y-126746095D01*
X112260095Y-126650857D01*
X112974380Y-127650857D02*
X111974380Y-127650857D01*
X112688666Y-127984190D01*
X111974380Y-128317523D01*
X112974380Y-128317523D01*
X120594380Y-137453714D02*
X120594380Y-136882285D01*
X120594380Y-137168000D02*
X119594380Y-137168000D01*
X119737238Y-137072761D01*
X119832476Y-136977523D01*
X119880095Y-136882285D01*
X120594380Y-137882285D02*
X119594380Y-137882285D01*
X120594380Y-138453714D02*
X120022952Y-138025142D01*
X119594380Y-138453714D02*
X120165809Y-137882285D01*
X136834476Y-118816380D02*
X137405904Y-118816380D01*
X137120190Y-118816380D02*
X137120190Y-117816380D01*
X137215428Y-117959238D01*
X137310666Y-118054476D01*
X137405904Y-118102095D01*
X136215428Y-117816380D02*
X136120190Y-117816380D01*
X136024952Y-117864000D01*
X135977333Y-117911619D01*
X135929714Y-118006857D01*
X135882095Y-118197333D01*
X135882095Y-118435428D01*
X135929714Y-118625904D01*
X135977333Y-118721142D01*
X136024952Y-118768761D01*
X136120190Y-118816380D01*
X136215428Y-118816380D01*
X136310666Y-118768761D01*
X136358285Y-118721142D01*
X136405904Y-118625904D01*
X136453523Y-118435428D01*
X136453523Y-118197333D01*
X136405904Y-118006857D01*
X136358285Y-117911619D01*
X136310666Y-117864000D01*
X136215428Y-117816380D01*
X135453523Y-118816380D02*
X135453523Y-117816380D01*
X134882095Y-118816380D02*
X135310666Y-118244952D01*
X134882095Y-117816380D02*
X135453523Y-118387809D01*
X133802380Y-121983904D02*
X132802380Y-121983904D01*
X133516666Y-122317238D01*
X132802380Y-122650571D01*
X133802380Y-122650571D01*
X133707142Y-123698190D02*
X133754761Y-123650571D01*
X133802380Y-123507714D01*
X133802380Y-123412476D01*
X133754761Y-123269619D01*
X133659523Y-123174380D01*
X133564285Y-123126761D01*
X133373809Y-123079142D01*
X133230952Y-123079142D01*
X133040476Y-123126761D01*
X132945238Y-123174380D01*
X132850000Y-123269619D01*
X132802380Y-123412476D01*
X132802380Y-123507714D01*
X132850000Y-123650571D01*
X132897619Y-123698190D01*
X133802380Y-124126761D02*
X132802380Y-124126761D01*
X132802380Y-124507714D01*
X132850000Y-124602952D01*
X132897619Y-124650571D01*
X132992857Y-124698190D01*
X133135714Y-124698190D01*
X133230952Y-124650571D01*
X133278571Y-124602952D01*
X133326190Y-124507714D01*
X133326190Y-124126761D01*
X132897619Y-125079142D02*
X132850000Y-125126761D01*
X132802380Y-125222000D01*
X132802380Y-125460095D01*
X132850000Y-125555333D01*
X132897619Y-125602952D01*
X132992857Y-125650571D01*
X133088095Y-125650571D01*
X133230952Y-125602952D01*
X133802380Y-125031523D01*
X133802380Y-125650571D01*
X132802380Y-126555333D02*
X132802380Y-126079142D01*
X133278571Y-126031523D01*
X133230952Y-126079142D01*
X133183333Y-126174380D01*
X133183333Y-126412476D01*
X133230952Y-126507714D01*
X133278571Y-126555333D01*
X133373809Y-126602952D01*
X133611904Y-126602952D01*
X133707142Y-126555333D01*
X133754761Y-126507714D01*
X133802380Y-126412476D01*
X133802380Y-126174380D01*
X133754761Y-126079142D01*
X133707142Y-126031523D01*
X133802380Y-127555333D02*
X133802380Y-126983904D01*
X133802380Y-127269619D02*
X132802380Y-127269619D01*
X132945238Y-127174380D01*
X133040476Y-127079142D01*
X133088095Y-126983904D01*
X132802380Y-128460095D02*
X132802380Y-127983904D01*
X133278571Y-127936285D01*
X133230952Y-127983904D01*
X133183333Y-128079142D01*
X133183333Y-128317238D01*
X133230952Y-128412476D01*
X133278571Y-128460095D01*
X133373809Y-128507714D01*
X133611904Y-128507714D01*
X133707142Y-128460095D01*
X133754761Y-128412476D01*
X133802380Y-128317238D01*
X133802380Y-128079142D01*
X133754761Y-127983904D01*
X133707142Y-127936285D01*
X111545714Y-130294285D02*
X112212380Y-130294285D01*
X111164761Y-130056190D02*
X111879047Y-129818095D01*
X111879047Y-130437142D01*
X111212380Y-131008571D02*
X111212380Y-131103809D01*
X111260000Y-131199047D01*
X111307619Y-131246666D01*
X111402857Y-131294285D01*
X111593333Y-131341904D01*
X111831428Y-131341904D01*
X112021904Y-131294285D01*
X112117142Y-131246666D01*
X112164761Y-131199047D01*
X112212380Y-131103809D01*
X112212380Y-131008571D01*
X112164761Y-130913333D01*
X112117142Y-130865714D01*
X112021904Y-130818095D01*
X111831428Y-130770476D01*
X111593333Y-130770476D01*
X111402857Y-130818095D01*
X111307619Y-130865714D01*
X111260000Y-130913333D01*
X111212380Y-131008571D01*
X112212380Y-131770476D02*
X111212380Y-131770476D01*
X111926666Y-132103809D01*
X111212380Y-132437142D01*
X112212380Y-132437142D01*
X112212380Y-132913333D02*
X111212380Y-132913333D01*
X111688571Y-132913333D02*
X111688571Y-133484761D01*
X112212380Y-133484761D02*
X111212380Y-133484761D01*
X111545714Y-133865714D02*
X111545714Y-134389523D01*
X112212380Y-133865714D01*
X112212380Y-134389523D01*
X130000000Y-138517380D02*
X129428571Y-138517380D01*
X129714285Y-139517380D02*
X129714285Y-138517380D01*
X128809523Y-138517380D02*
X128809523Y-139231666D01*
X128857142Y-139374523D01*
X128952380Y-139469761D01*
X129095238Y-139517380D01*
X129190476Y-139517380D01*
X128380952Y-139231666D02*
X127904761Y-139231666D01*
X128476190Y-139517380D02*
X128142857Y-138517380D01*
X127809523Y-139517380D01*
X126952380Y-139517380D02*
X127523809Y-139517380D01*
X127238095Y-139517380D02*
X127238095Y-138517380D01*
X127333333Y-138660238D01*
X127428571Y-138755476D01*
X127523809Y-138803095D01*
X126333333Y-138517380D02*
X126238095Y-138517380D01*
X126142857Y-138565000D01*
X126095238Y-138612619D01*
X126047619Y-138707857D01*
X126000000Y-138898333D01*
X126000000Y-139136428D01*
X126047619Y-139326904D01*
X126095238Y-139422142D01*
X126142857Y-139469761D01*
X126238095Y-139517380D01*
X126333333Y-139517380D01*
X126428571Y-139469761D01*
X126476190Y-139422142D01*
X126523809Y-139326904D01*
X126571428Y-139136428D01*
X126571428Y-138898333D01*
X126523809Y-138707857D01*
X126476190Y-138612619D01*
X126428571Y-138565000D01*
X126333333Y-138517380D01*
X125095238Y-138517380D02*
X125571428Y-138517380D01*
X125619047Y-138993571D01*
X125571428Y-138945952D01*
X125476190Y-138898333D01*
X125238095Y-138898333D01*
X125142857Y-138945952D01*
X125095238Y-138993571D01*
X125047619Y-139088809D01*
X125047619Y-139326904D01*
X125095238Y-139422142D01*
X125142857Y-139469761D01*
X125238095Y-139517380D01*
X125476190Y-139517380D01*
X125571428Y-139469761D01*
X125619047Y-139422142D01*
X124428571Y-138517380D02*
X124333333Y-138517380D01*
X124238095Y-138565000D01*
X124190476Y-138612619D01*
X124142857Y-138707857D01*
X124095238Y-138898333D01*
X124095238Y-139136428D01*
X124142857Y-139326904D01*
X124190476Y-139422142D01*
X124238095Y-139469761D01*
X124333333Y-139517380D01*
X124428571Y-139517380D01*
X124523809Y-139469761D01*
X124571428Y-139422142D01*
X124619047Y-139326904D01*
X124666666Y-139136428D01*
X124666666Y-138898333D01*
X124619047Y-138707857D01*
X124571428Y-138612619D01*
X124523809Y-138565000D01*
X124428571Y-138517380D01*
X127166666Y-124515952D02*
X127166666Y-124992142D01*
X127452380Y-124420714D02*
X126452380Y-124754047D01*
X127452380Y-125087380D01*
X127404761Y-125373095D02*
X127452380Y-125515952D01*
X127452380Y-125754047D01*
X127404761Y-125849285D01*
X127357142Y-125896904D01*
X127261904Y-125944523D01*
X127166666Y-125944523D01*
X127071428Y-125896904D01*
X127023809Y-125849285D01*
X126976190Y-125754047D01*
X126928571Y-125563571D01*
X126880952Y-125468333D01*
X126833333Y-125420714D01*
X126738095Y-125373095D01*
X126642857Y-125373095D01*
X126547619Y-125420714D01*
X126500000Y-125468333D01*
X126452380Y-125563571D01*
X126452380Y-125801666D01*
X126500000Y-125944523D01*
X126452380Y-126849285D02*
X126452380Y-126373095D01*
X126928571Y-126325476D01*
X126880952Y-126373095D01*
X126833333Y-126468333D01*
X126833333Y-126706428D01*
X126880952Y-126801666D01*
X126928571Y-126849285D01*
X127023809Y-126896904D01*
X127261904Y-126896904D01*
X127357142Y-126849285D01*
X127404761Y-126801666D01*
X127452380Y-126706428D01*
X127452380Y-126468333D01*
X127404761Y-126373095D01*
X127357142Y-126325476D01*
X126452380Y-127515952D02*
X126452380Y-127611190D01*
X126500000Y-127706428D01*
X126547619Y-127754047D01*
X126642857Y-127801666D01*
X126833333Y-127849285D01*
X127071428Y-127849285D01*
X127261904Y-127801666D01*
X127357142Y-127754047D01*
X127404761Y-127706428D01*
X127452380Y-127611190D01*
X127452380Y-127515952D01*
X127404761Y-127420714D01*
X127357142Y-127373095D01*
X127261904Y-127325476D01*
X127071428Y-127277857D01*
X126833333Y-127277857D01*
X126642857Y-127325476D01*
X126547619Y-127373095D01*
X126500000Y-127420714D01*
X126452380Y-127515952D01*
X126785714Y-128706428D02*
X127452380Y-128706428D01*
X126404761Y-128468333D02*
X127119047Y-128230238D01*
X127119047Y-128849285D01*
X126452380Y-129135000D02*
X126452380Y-129801666D01*
X127452380Y-129373095D01*
X127452380Y-130182619D02*
X126452380Y-130182619D01*
X126452380Y-130563571D01*
X126500000Y-130658809D01*
X126547619Y-130706428D01*
X126642857Y-130754047D01*
X126785714Y-130754047D01*
X126880952Y-130706428D01*
X126928571Y-130658809D01*
X126976190Y-130563571D01*
X126976190Y-130182619D01*
X117292380Y-122523571D02*
X117292380Y-122047380D01*
X116292380Y-122047380D01*
X117244761Y-122809285D02*
X117292380Y-122952142D01*
X117292380Y-123190238D01*
X117244761Y-123285476D01*
X117197142Y-123333095D01*
X117101904Y-123380714D01*
X117006666Y-123380714D01*
X116911428Y-123333095D01*
X116863809Y-123285476D01*
X116816190Y-123190238D01*
X116768571Y-122999761D01*
X116720952Y-122904523D01*
X116673333Y-122856904D01*
X116578095Y-122809285D01*
X116482857Y-122809285D01*
X116387619Y-122856904D01*
X116340000Y-122904523D01*
X116292380Y-122999761D01*
X116292380Y-123237857D01*
X116340000Y-123380714D01*
X116292380Y-123714047D02*
X116292380Y-124380714D01*
X117292380Y-123952142D01*
X116292380Y-124666428D02*
X116292380Y-125285476D01*
X116673333Y-124952142D01*
X116673333Y-125095000D01*
X116720952Y-125190238D01*
X116768571Y-125237857D01*
X116863809Y-125285476D01*
X117101904Y-125285476D01*
X117197142Y-125237857D01*
X117244761Y-125190238D01*
X117292380Y-125095000D01*
X117292380Y-124809285D01*
X117244761Y-124714047D01*
X117197142Y-124666428D01*
X116292380Y-126142619D02*
X116292380Y-125952142D01*
X116340000Y-125856904D01*
X116387619Y-125809285D01*
X116530476Y-125714047D01*
X116720952Y-125666428D01*
X117101904Y-125666428D01*
X117197142Y-125714047D01*
X117244761Y-125761666D01*
X117292380Y-125856904D01*
X117292380Y-126047380D01*
X117244761Y-126142619D01*
X117197142Y-126190238D01*
X117101904Y-126237857D01*
X116863809Y-126237857D01*
X116768571Y-126190238D01*
X116720952Y-126142619D01*
X116673333Y-126047380D01*
X116673333Y-125856904D01*
X116720952Y-125761666D01*
X116768571Y-125714047D01*
X116863809Y-125666428D01*
X116292380Y-127095000D02*
X116292380Y-126904523D01*
X116340000Y-126809285D01*
X116387619Y-126761666D01*
X116530476Y-126666428D01*
X116720952Y-126618809D01*
X117101904Y-126618809D01*
X117197142Y-126666428D01*
X117244761Y-126714047D01*
X117292380Y-126809285D01*
X117292380Y-126999761D01*
X117244761Y-127095000D01*
X117197142Y-127142619D01*
X117101904Y-127190238D01*
X116863809Y-127190238D01*
X116768571Y-127142619D01*
X116720952Y-127095000D01*
X116673333Y-126999761D01*
X116673333Y-126809285D01*
X116720952Y-126714047D01*
X116768571Y-126666428D01*
X116863809Y-126618809D01*
X117292380Y-128190238D02*
X116816190Y-127856904D01*
X117292380Y-127618809D02*
X116292380Y-127618809D01*
X116292380Y-127999761D01*
X116340000Y-128095000D01*
X116387619Y-128142619D01*
X116482857Y-128190238D01*
X116625714Y-128190238D01*
X116720952Y-128142619D01*
X116768571Y-128095000D01*
X116816190Y-127999761D01*
X116816190Y-127618809D01*
M02*
